<svg height="512pt" viewBox="0 0 512 512.00011" width="512pt" xmlns="http://www.w3.org/2000/svg"><path d="m512 256c0 50.390625-14.558594 97.378906-39.699219 136.988281-.582031.910157-1.160156 1.820313-1.75 2.722657-39.199219 60.078124-102.949219 102.667968-177.011719 113.550781-.960937.136719-1.929687.277343-2.898437.410156-11.332031 1.539063-22.890625 2.328125-34.640625 2.328125-141.378906 0-256-114.621094-256-256s114.621094-256 256-256c26.941406 0 52.898438 4.171875 77.289062 11.890625.222657.058594.429688.128906.652344.199219 43.929688 14.019531 82.707032 39.589844 112.757813 73.128906.660156.730469 1.3125 1.460938 1.949219 2.191406 39.441406 45.039063 63.351562 104.019532 63.351562 168.589844zm0 0" fill="#0084a6"/><path d="m399.023438 398.449219c0-222.269531-210.621094-73.765625-251.359376-73.765625-40.738281 0-73.765624 33.027344-73.765624 73.765625s33.027343 73.765625 73.765624 73.765625c40.738282 0 251.359376-33.027344 251.359376-73.765625zm0 0" fill="#ff931f"/><path d="m398.410156 468.761719c-12.339844 8.277343-25.441406 15.519531-39.179687 21.570312-10.652344 4.699219-21.679688 8.699219-33.03125 11.917969-1.160157.332031-2.328125.648438-3.5.960938-21.257813 5.738281-43.621094 8.789062-66.699219 8.789062s-45.449219-3.058594-66.71875-8.789062c-1.160156-.300782-2.320312-.621094-3.480469-.949219-7.242187-2.0625-14.359375-4.441407-21.332031-7.121094-.429688-.160156-.859375-.320313-1.289062-.492187-3.507813-1.359376-6.980469-2.808594-10.410157-4.316407-13.738281-6.0625-26.839843-13.292969-39.191406-21.582031 10.390625-14.371094 23.761719-26.429688 39.191406-35.320312 10.199219-5.871094 21.300781-10.339844 33.03125-13.148438 1.808594-.441406 3.640625-.839844 5.480469-1.191406 3.46875-.679688 7-1.199219 10.570312-1.570313 1.027344-.109375 2.046876-.210937 3.089844-.289062 3.378906-.28125 6.796875-.421875 10.257813-.421875h81.589843c4.519532 0 8.972657.242187 13.351563.703125 3.570313.367187 7.089844.898437 10.570313 1.558593 1.390624.269532 2.769531.558594 4.140624.871094.449219.117188.910157.207032 1.347657.328125 11.742187 2.820313 22.832031 7.289063 33.03125 13.160157 15.429687 8.902343 28.789062 20.960937 39.179687 35.332031zm0 0" fill="#f9c5ac"/><path d="m215.203125 416.808594c-29.359375 0-49.257813 42.429687-50.730469 78.332031-.429687-.160156-.859375-.320313-1.289062-.492187-3.507813-1.359376-6.980469-2.808594-10.410156-4.316407-13.738282-6.0625-26.839844-13.292969-39.1875-21.582031 10.386718-14.371094 23.757812-26.429688 39.1875-35.320312 10.199218-5.871094 21.300781-10.339844 33.03125-13.148438 1.808593-.441406 3.640624-.839844 5.480468-1.191406 3.46875-.679688 7-1.199219 10.570313-1.570313 1.027343-.109375 2.046875-.210937 3.089843-.289062 3.378907-.28125 6.796876-.421875 10.257813-.421875zm0 0" fill="#efb29a"/><path d="m300.710938 368.539062v54.867188c0 20.089844-13.246094 37.066406-31.488282 42.707031-4.175781 1.296875-8.628906 1.996094-13.230468 1.996094-24.691407 0-44.703126-20.011719-44.703126-44.703125v-54.867188zm0 0" fill="#efb29a"/><path d="m300.710938 419.933594v3.472656c0 20.089844-13.246094 37.066406-31.488282 42.707031-16.460937-5.058593-28.839844-19.371093-31.125-36.882812 2.988282.183593 5.992188.273437 9.007813.273437 8.460937 0 16.75-.671875 24.828125-1.996094 9.953125-1.601562 19.570312-4.160156 28.777344-7.574218zm0 0" fill="#f9c5ac"/><path d="m132.542969 278.152344c0 20.496094-14.972657 37.492187-34.578125 40.648437-2.144532.34375-4.347656.527344-6.597656.527344-22.742188 0-41.171876-18.429687-41.171876-41.175781s18.429688-41.175782 41.171876-41.175782c2.25 0 4.453124.179688 6.597656.527344 19.605468 3.15625 34.578125 20.152344 34.578125 40.648438zm0 0" fill="#f9c5ac"/><path d="m132.542969 278.152344c0 20.496094-14.972657 37.492187-34.578125 40.648437-3.5625-12.953125-5.464844-26.582031-5.464844-40.648437s1.902344-27.695313 5.464844-40.644532c19.605468 3.152344 34.578125 20.148438 34.578125 40.644532zm0 0" fill="#efb29a"/><path d="m106.085938 278.152344c0 8.128906-6.589844 14.714844-14.714844 14.714844-8.128906 0-14.71875-6.585938-14.71875-14.714844 0-8.125 6.589844-14.714844 14.71875-14.714844 8.125 0 14.714844 6.589844 14.714844 14.714844zm0 0" fill="#efb29a"/><path d="m379.453125 278.152344c0 20.496094 14.972656 37.492187 34.578125 40.648437 2.144531.34375 4.347656.527344 6.597656.527344 22.746094 0 41.175782-18.429687 41.175782-41.175781s-18.429688-41.175782-41.175782-41.175782c-2.25 0-4.453125.179688-6.597656.527344-19.605469 3.15625-34.578125 20.152344-34.578125 40.648438zm0 0" fill="#f9c5ac"/><path d="m379.453125 278.152344c0 20.496094 14.972656 37.492187 34.578125 40.648437 3.5625-12.953125 5.464844-26.582031 5.464844-40.648437s-1.902344-27.695313-5.464844-40.644532c-19.605469 3.152344-34.578125 20.148438-34.578125 40.644532zm0 0" fill="#efb29a"/><path d="m435.34375 278.152344c0 8.128906-6.589844 14.714844-14.714844 14.714844-8.128906 0-14.71875-6.585938-14.71875-14.714844 0-8.125 6.589844-14.714844 14.71875-14.714844 8.125 0 14.714844 6.589844 14.714844 14.714844zm0 0" fill="#efb29a"/><path d="m410.699219 256.511719c0 76.984375-56.238281 140.847656-129.871094 152.703125-8.078125 1.328125-16.371094 2-24.828125 2-85.445312 0-154.703125-69.257813-154.703125-154.703125v-157.5h309.402344zm0 0" fill="#f9c5ac"/><path d="m283.246094 408.808594c-.800782.140625-1.609375.28125-2.417969.410156-8.082031 1.320312-16.371094 1.992188-24.832031 1.992188-85.4375 0-154.699219-69.25-154.699219-154.699219v-157.5h54.550781v157.5c0 76.136719 54.980469 139.410156 127.398438 152.296875zm0 0" fill="#efb29a"/><path d="m360.265625 296.496094c0 10.539062-8.542969 19.082031-19.082031 19.082031-10.539063 0-19.082032-8.542969-19.082032-19.082031 0-10.539063 8.542969-19.082032 19.082032-19.082032 10.539062 0 19.082031 8.542969 19.082031 19.082032zm0 0" fill="#efb29a"/><path d="m189.890625 296.496094c0 10.539062-8.542969 19.082031-19.082031 19.082031-10.539063 0-19.082032-8.542969-19.082032-19.082031 0-10.539063 8.542969-19.082032 19.082032-19.082032 10.539062 0 19.082031 8.542969 19.082031 19.082032zm0 0" fill="#efb29a"/><path d="m273.382812 297.921875h-34.757812c-4.140625 0-7.496094-3.355469-7.496094-7.496094s3.355469-7.496093 7.496094-7.496093h34.757812c4.136719 0 7.496094 3.355468 7.496094 7.496093s-3.355468 7.496094-7.496094 7.496094zm0 0" fill="#efb29a"/><path d="m256.003906 345.351562c-12.828125 0-25.65625-3.214843-37.351562-9.640624-3.296875-1.8125-4.5-5.957032-2.6875-9.253907 1.8125-3.300781 5.957031-4.503906 9.253906-2.691406 19.277344 10.597656 42.292969 10.597656 61.566406 0 3.296875-1.8125 7.441406-.609375 9.257813 2.691406 1.8125 3.296875.609375 7.441407-2.691407 9.253907-11.691406 6.425781-24.519531 9.640624-37.347656 9.640624zm0 0" fill="#f93d6e"/><path d="m343.996094 244.328125c0-17.808594-14.433594-32.242187-32.242188-32.242187s-32.242187 14.433593-32.242187 32.242187" fill="#efb29a"/><path d="m333.777344 258.054688c0 12.164062-9.859375 22.023437-22.023438 22.023437-12.164062 0-22.023437-9.859375-22.023437-22.023437 0-12.164063 9.859375-22.023438 22.023437-22.023438 12.164063 0 22.023438 9.859375 22.023438 22.023438zm0 0" fill="#2f373b"/><path d="m330.367188 254.167969c0 5.210937-4.222657 9.4375-9.433594 9.4375-5.214844 0-9.4375-4.226563-9.4375-9.4375 0-5.210938 4.222656-9.4375 9.4375-9.4375 5.210937 0 9.433594 4.226562 9.433594 9.4375zm0 0" fill="#fff"/><path d="m232.484375 244.328125c0-17.808594-14.433594-32.242187-32.242187-32.242187-17.808594 0-32.242188 14.433593-32.242188 32.242187" fill="#efb29a"/><path d="m222.265625 258.054688c0 12.164062-9.859375 22.023437-22.023437 22.023437-12.160157 0-22.019532-9.859375-22.019532-22.023437 0-12.164063 9.859375-22.023438 22.019532-22.023438 12.164062 0 22.023437 9.859375 22.023437 22.023438zm0 0" fill="#2f373b"/><path d="m205.210938 279.511719c-1.601563.378906-3.261719.570312-4.96875.570312-12.160157 0-22.019532-9.863281-22.019532-22.03125 0-12.160156 9.859375-22.019531 22.019532-22.019531 1.707031 0 3.367187.199219 4.96875.570312-9.78125 2.25-17.058594 11-17.058594 21.449219 0 10.460938 7.277344 19.210938 17.058594 21.460938zm0 0" fill="#181e21"/><path d="m316.722656 279.511719c-1.601562.378906-3.261718.570312-4.972656.570312-12.160156 0-22.019531-9.863281-22.019531-22.03125 0-12.160156 9.859375-22.019531 22.019531-22.019531 1.710938 0 3.371094.199219 4.972656.570312-9.78125 2.25-17.0625 11-17.0625 21.449219 0 10.460938 7.28125 19.210938 17.0625 21.460938zm0 0" fill="#181e21"/><path d="m218.859375 254.167969c0 5.210937-4.226563 9.4375-9.4375 9.4375s-9.4375-4.226563-9.4375-9.4375c0-5.210938 4.226563-9.4375 9.4375-9.4375s9.4375 4.226562 9.4375 9.4375zm0 0" fill="#fff"/><path d="m322.699219 503.210938c-21.257813 5.738281-43.621094 8.789062-66.699219 8.789062s-45.449219-3.058594-66.71875-8.789062c16.796875-5.421876 40.480469-8.789063 66.71875-8.789063 26.21875 0 49.898438 3.367187 66.699219 8.789063zm0 0" fill="#f93d6e"/><path d="m470.550781 395.710938c-39.199219 60.078124-102.949219 102.667968-177.011719 113.550781-.960937.136719-1.929687.277343-2.898437.410156-8.589844-36.050781 7.398437-69.730469 35.558594-89.402344 106.0625-74.050781 29.539062-112.71875 49.878906-227.128906 11.710937-65.839844-40.898437-82.800781-76.816406-74.820313l-26.023438-82.78125s26.152344-16.46875 59.050781-23.449218c.332032-.070313.660157-.140625 1-.199219 31.171876-6.421875 68.160157-4.152344 94.671876 28.609375 10.71875 13.25 16.359374 28.449219 18.738281 44.71875.109375.730469.210937 1.460938.300781 2.191406 8.519531 66.699219-35.949219 150.421875-11.660156 190.738282 16.390625 27.210937 33.761718 75.652343 35.210937 117.5625zm0 0" fill="#ffbb16"/><path d="m303.917969 104.683594s7.316406 69.503906-58.859375 82.472656c-66.175782 12.96875-63.183594-28.265625-106.414063-.667969-43.230469 27.601563 36.582031 93.445313 15.628907 150.976563-20.949219 57.527344-121.042969 70.5-136.007813 3.988281-10.957031-48.691406 22.539063-73.65625 53.054687-82.042969 17.605469-4.839844 29.976563-20.59375 29.976563-38.855468v-.480469c0-21.945313-53.4375-135.675781 10.414063-183.5625 63.847656-47.882813 184.371093-39.226563 192.207031 68.171875zm0 0" fill="#ff931f"/><path d="m288.289062 106.347656c0-33.609375-14.964843-60.855468-33.421874-60.855468-18.457032 0-33.417969 27.246093-33.417969 60.855468s14.960937 60.855469 33.417969 60.855469c18.457031 0 33.421874-27.246094 33.421874-60.855469zm0 0" fill="#ffbb16"/><path d="m145.628906 316.847656c0-15.429687-6.476562-27.933594-14.464844-27.933594-7.992187 0-14.46875 12.503907-14.46875 27.933594 0 15.425782 6.476563 27.929688 14.46875 27.929688 7.988282 0 14.464844-12.503906 14.464844-27.929688zm0 0" fill="#ffbb16"/><path d="m399.019531 112.332031-6.980469 35.917969s-26.597656-46.230469-86.128906-53.539062l7.75-28.519532s52.179688-7.960937 76.78125 28c2.207032 3.238282 4.199219 6.828125 5.910156 10.808594.988282 2.308594 1.878907 4.75 2.667969 7.332031zm0 0" fill="#e41753"/><path d="m236.835938 61.207031c16.414062 16.410157 39.003906 22.855469 60.289062 19.371094 3.484375-21.28125-2.960938-43.875-19.375-60.289063-16.414062-16.410156-39.003906-22.855468-60.289062-19.371093-3.484376 21.28125 2.960937 43.875 19.375 60.289062zm0 0" fill="#f93d6e"/><path d="m259.847656 49.003906c0 5.28125-4.28125 9.5625-9.5625 9.5625-5.277344 0-9.558594-4.28125-9.558594-9.5625s4.28125-9.5625 9.558594-9.5625c5.28125 0 9.5625 4.28125 9.5625 9.5625zm0 0" fill="#fff"/><path d="m289.828125 41.570312c0 5.277344-4.277344 9.558594-9.558594 9.558594s-9.5625-4.28125-9.5625-9.558594c0-5.28125 4.28125-9.5625 9.5625-9.5625s9.558594 4.28125 9.558594 9.5625zm0 0" fill="#fff"/><path d="m262.636719 69.496094c9.386719 9.386718 22.3125 13.074218 34.488281 11.082031 1.992188-12.175781-1.695312-25.097656-11.082031-34.488281-9.390625-9.390625-22.316407-13.074219-34.488281-11.082032-1.996094 12.175782 1.691406 25.097657 11.082031 34.488282zm0 0" fill="#e41753"/><path d="m388.769531 58.800781c-.730469.808594-1.488281 1.609375-2.28125 2.398438-3.816406 3.820312-7.96875 7.101562-12.359375 9.839843-14.488281 9.042969-31.589844 12.210938-47.929687 9.542969-3.480469-21.28125 2.960937-43.882812 19.378906-60.292969 16.410156-16.410156 39-22.859374 60.28125-19.367187 3.320313 20.257813-2.359375 41.707031-17.089844 57.878906zm0 0" fill="#f93d6e"/><path d="m361.878906 35.964844c0 5.277344-4.28125 9.558594-9.5625 9.558594s-9.5625-4.28125-9.5625-9.558594c0-5.28125 4.28125-9.5625 9.5625-9.5625s9.5625 4.28125 9.5625 9.5625zm0 0" fill="#fff"/><path d="m360.691406 69.496094c-9.390625 9.386718-22.3125 13.074218-34.488281 11.082031-1.992187-12.175781 1.691406-25.097656 11.082031-34.488281s22.3125-13.074219 34.488282-11.082032c1.992187 12.175782-1.691407 25.097657-11.082032 34.488282zm0 0" fill="#e41753"/><path d="m336.558594 88.699219c-.378906 6.640625-5.71875 11.980469-12.359375 12.359375-3.570313.203125-7.128907.320312-10.699219.351562-4.789062.039063-9.589844-.070312-14.378906-.351562-1.042969-.058594-2.0625-.238282-3.019532-.539063-5.179687-1.550781-9.011718-6.21875-9.339843-11.820312-.480469-8.359375-.480469-16.71875 0-25.078125.386719-6.640625 5.71875-11.972656 12.359375-12.359375 8.359375-.480469 16.71875-.480469 25.078125 0 6.640625.386719 11.980469 5.71875 12.359375 12.359375.480468 8.359375.480468 16.71875 0 25.078125zm0 0" fill="#f93d6e"/><path d="m314.203125 101.058594c1.671875.101562 3.332031.171875 5 .230468-6.6875.230469-13.386719.152344-20.078125-.230468-6.640625-.378906-11.96875-5.71875-12.359375-12.359375-.480469-8.359375-.480469-16.71875 0-25.078125.390625-6.640625 5.71875-11.972656 12.359375-12.359375 6.691406-.382813 13.390625-.460938 20.078125-.230469-1.667969.058594-3.328125.128906-5 .230469-6.636719.386719-11.976563 5.71875-12.359375 12.359375-.480469 8.359375-.480469 16.71875 0 25.078125.382812 6.640625 5.722656 11.980469 12.359375 12.359375zm0 0" fill="#e41753"/><g fill="#fff"><path d="m396.351562 105c-.882812 4.371094-4.75 7.671875-9.382812 7.671875-5.277344 0-9.558594-4.28125-9.558594-9.5625 0-5.277344 4.28125-9.570313 9.558594-9.570313 1.222656 0 2.390625.230469 3.472656.652344 2.207032 3.238282 4.199219 6.828125 5.910156 10.808594zm0 0"/><path d="m366.019531 97.367188c0 5.28125-4.277343 9.5625-9.558593 9.5625s-9.5625-4.28125-9.5625-9.5625c0-5.277344 4.28125-9.558594 9.5625-9.558594s9.558593 4.28125 9.558593 9.558594zm0 0"/><path d="m403.664062 16.214844c0 5.28125-4.28125 9.5625-9.5625 9.5625-5.277343 0-9.558593-4.28125-9.558593-9.5625 0-5.277344 4.28125-9.558594 9.558593-9.558594 5.28125 0 9.5625 4.28125 9.5625 9.558594zm0 0"/><path d="m388.769531 58.800781c-.730469.808594-1.488281 1.609375-2.28125 2.398438-3.816406 3.820312-7.96875 7.101562-12.359375 9.839843-1.617187-1.707031-2.609375-4.019531-2.609375-6.558593 0-5.28125 4.28125-9.558594 9.558594-9.558594 3.152344 0 5.953125 1.527344 7.691406 3.878906zm0 0"/><path d="m331.945312 64.769531c0 5.28125-4.28125 9.5625-9.5625 9.5625-5.277343 0-9.558593-4.28125-9.558593-9.5625s4.28125-9.5625 9.558593-9.5625c5.28125 0 9.5625 4.28125 9.5625 9.5625zm0 0"/><path d="m314.558594 97.03125c0 1.578125-.378906 3.070312-1.058594 4.378906-4.789062.039063-9.589844-.070312-14.378906-.351562-1.042969-.058594-2.0625-.238282-3.019532-.539063-.429687-1.078125-.660156-2.257812-.660156-3.488281 0-5.28125 4.277344-9.5625 9.558594-9.5625s9.558594 4.28125 9.558594 9.5625zm0 0"/><path d="m246.449219 11.847656c0 5.28125-4.28125 9.5625-9.5625 9.5625-5.277344 0-9.558594-4.28125-9.558594-9.5625 0-5.277344 4.28125-9.558594 9.558594-9.558594 5.28125 0 9.5625 4.28125 9.5625 9.558594zm0 0"/></g><path d="m297.917969 307.203125c0 3.121094-2.53125 5.652344-5.652344 5.652344s-5.652344-2.53125-5.652344-5.652344c0-3.125 2.53125-5.652344 5.652344-5.652344s5.652344 2.527344 5.652344 5.652344zm0 0" fill="#d9723e"/></svg>