<svg id="Capa_1" enable-background="new 0 0 512 512" height="512" viewBox="0 0 512 512" width="512" xmlns="http://www.w3.org/2000/svg"><g><path d="m0 256c0-141.385 114.615-256 256-256s256 114.615 256 256c0 80.844-37.474 152.936-96 199.852-2.067 1.657-102.314-46.397-160-46.397s-157.933 48.053-160 46.397c-58.526-46.916-96-119.008-96-199.852z" fill="#20b7a1"/><path d="m459.809 256c0 112.56-91.248 203.809-203.809 203.809s-203.809-91.249-203.809-203.809 91.249-203.809 203.809-203.809 203.809 91.249 203.809 203.809z" fill="#24d3b5"/><path d="m163.659 208.957h-34.992v-76.46h34.992z" fill="#c2eaf2"/><path d="m383.333 208.957h-34.992v-76.46h34.992z" fill="#def4f8"/><path d="m157.936 362.478c-11.546 12.482-18.603 29.178-18.603 47.522v59.048c0 6.803-7.402 11.035-13.261 7.577-10.531-6.215-20.579-13.163-30.072-20.773v-45.852c0-35.376 26.242-64.623 60.321-69.336.537-.074 1.615 21.814 1.615 21.814z" fill="#c2eaf2"/><path d="m416 410v45.852c-18.23 14.614-38.503 26.785-60.321 36.017-2.564 1.085-5.149-6.371-7.755-5.368-28.531 10.98-59.525 16.999-91.924 16.999-32.397 0-63.388-6.018-91.917-16.997-2.608-1.004-5.196 6.452-7.762 5.366-10.482-4.435-20.608-9.549-30.321-15.286v-66.583c0-27.809 16.216-51.83 39.707-63.124 9.167-4.407 19.441-.217 30.293-.217h150c3.284 0 6.515-6.433 9.679-5.996 34.079 4.714 60.321 33.961 60.321 69.337z" fill="#def4f8"/><path d="m166 340h5.322l2.827 1.723h8.553l3.619-1.723h25.003l44.676 100 44.676-100h25.003l3.511 2.362h7.979l3.511-2.362h5.32c3.284 0 6.515.227 9.678.664v122.504c0 18.04-11.852 34.05-29.198 39.007-5.654 1.616-11.387 3.042-17.193 4.271-.817.173-1.554-1.547-2.374-1.382-3.394.684-6.812 1.3-10.253 1.848-.763.122-1.608 2.129-2.374 2.244-10.082 1.512-20.356 2.436-30.787 2.736-2.491.072-4.991-3.445-7.5-3.445s-5.009 3.517-7.5 3.445c-10.431-.3-20.705-1.224-30.787-2.736-1.261-.189-1.174-4.774-2.428-4.981-2.505-.414-4.997-.864-7.476-1.351-1.254-.246-3.849 3.885-5.096 3.621-5.786-1.225-11.499-2.646-17.133-4.254-17.344-4.952-29.258-20.87-29.258-38.907v-122.62c3.164-.437 6.395-.664 9.679-.664z" fill="#c97e67"/><path d="m300.676 340h8.612v166.446c-4.949 1.048-9.95 1.953-15 2.71v-154.856zm40.002 0h-15v162.402c5.065-1.43 10.067-3.011 15-4.74zm-122.965 14.3-6.388-14.3h-8.612v166.445c4.949 1.048 9.95 1.953 15 2.71zm-46.391 143.362c4.933 1.729 9.935 3.31 15 4.74v-162.402h-15z" fill="#d29380"/><path d="m355.678 407.733v84.136c-4.923 2.083-9.925 4.016-15 5.795v-89.93c0-4.142 3.358-7.5 7.5-7.5s7.5 3.357 7.5 7.499zm-199.356 0v84.136c4.923 2.083 9.925 4.016 15 5.795v-89.93c0-4.142-3.358-7.5-7.5-7.5s-7.5 3.357-7.5 7.499zm92.178 15.479v88.68c2.491.072 4.991.108 7.5.108s5.009-.036 7.5-.108v-88.68c-2.897 6.485-12.103 6.485-15 0z" fill="#c0694e"/><path d="m230 427.5c0-4.142 3.358-7.5 7.5-7.5h37c4.142 0 7.5 3.358 7.5 7.5s-3.358 7.5-7.5 7.5h-37c-4.142 0-7.5-3.358-7.5-7.5zm44.5 22.5h-37c-4.142 0-7.5 3.358-7.5 7.5s3.358 7.5 7.5 7.5h37c4.142 0 7.5-3.358 7.5-7.5s-3.358-7.5-7.5-7.5zm0 30h-37c-4.142 0-7.5 3.358-7.5 7.5s3.358 7.5 7.5 7.5h37c4.142 0 7.5-3.358 7.5-7.5s-3.358-7.5-7.5-7.5z" fill="#ae583e"/><path d="m325.83 333.922-42.493 55.662-27.337-27.337-27.337 27.337-42.493-55.662c-1.644-2.153-1.274-5.225.835-6.926l68.995-55.643 68.995 55.643c2.109 1.701 2.479 4.773.835 6.926z" fill="#fff5f5"/><path d="m146 250c-13.807 0-25-11.193-25-25v-10c0-13.807 11.193-25 25-25 13.807 0 25 11.193 25 25v10c0 13.807-11.193 25-25 25z" fill="#ffbeaa"/><path d="m136 210v20c0 8.178 3.927 15.439 9.998 20-13.806-.001-24.998-11.193-24.998-25v-10c0-13.806 11.192-24.999 24.998-25-6.071 4.561-9.998 11.822-9.998 20zm230-20v-20c0-60.751-49.249-110-110-110-60.751 0-110 49.249-110 110v40c0 50.351 33.83 92.801 80 105.859v8.008c0 5.191 2.018 10.178 5.628 13.909l24.372 25.184 24.372-25.184c3.61-3.73 5.628-8.718 5.628-13.909v-8.008c33.586-9.5 60.641-34.551 72.895-66.883 2.252.666 4.637 1.024 7.105 1.024 13.807 0 25-11.193 25-25v-10c0-13.807-11.193-25-25-25z" fill="#faa68e"/><path d="m366 170v40c0 50.792-34.425 93.543-81.216 106.195-9.023 2.44-18.545 2.44-27.568 0-46.791-12.652-81.216-55.403-81.216-106.195v-40c0-55.663 41.345-101.669 95-108.985 53.655 7.316 95 53.322 95 108.985z" fill="#ffbeaa"/><path d="m241.5 216.732c-2.929-2.93-2.929-7.678 0-10.607 2.929-2.928 7.678-2.928 10.606 0 1.042 1.042 2.424 1.616 3.893 1.616s2.851-.574 3.893-1.616c2.929-2.928 7.678-2.928 10.606 0 2.929 2.93 2.929 7.678 0 10.607-3.875 3.875-9.024 6.009-14.5 6.009s-10.623-2.134-14.498-6.009z" fill="#e09380"/><path d="m223.5 177.5c0 8.284-6.716 15-15 15s-15-6.716-15-15 6.716-15 15-15 15 6.716 15 15zm80-15c-8.284 0-15 6.716-15 15s6.716 15 15 15 15-6.716 15-15-6.716-15-15-15z" fill="#274c91"/><path d="m226 170c0 4.142-3.358 7.5-7.5 7.5s-7.5-3.358-7.5-7.5 3.358-7.5 7.5-7.5 7.5 3.358 7.5 7.5zm87.5-7.5c-4.142 0-7.5 3.358-7.5 7.5s3.358 7.5 7.5 7.5 7.5-3.358 7.5-7.5-3.358-7.5-7.5-7.5z" fill="#fff5f5"/><path d="m256 280c-16.569 0-30-13.431-30-30 0-4.142 3.358-7.5 7.5-7.5h45c4.142 0 7.5 3.358 7.5 7.5 0 16.569-13.431 30-30 30z" fill="#fff5f5"/><path d="m263.5 279.055c-2.397.617-4.91.945-7.5.945-16.568 0-30-13.431-30-30 0-4.142 3.358-7.5 7.5-7.5h15c-4.142 0-7.5 3.358-7.5 7.5 0 13.979 9.561 25.725 22.5 29.055z" fill="#def4f8"/><path d="m285.142 400.726c-2.929 2.929-7.678 2.929-10.607 0l-17.678-17.678-.857-.858-.858.858-17.678 17.678c-2.929 2.929-7.678 2.929-10.607 0s-2.929-7.678 0-10.606l17.678-17.678.358-.358h-1.393c-4.142 0-7.5-3.358-7.5-7.5s3.358-7.5 7.5-7.5h25c4.142 0 7.5 3.358 7.5 7.5s-3.358 7.5-7.5 7.5h-1.393l.358.358 17.678 17.678c2.928 2.928 2.928 7.677-.001 10.606z" fill="#2e5aac"/><path d="m167.753 159.426h-30.991v-26.928h57.919c0 14.871-12.056 26.928-26.928 26.928z" fill="#c2eaf2"/><path d="m317.319 132.497h57.919v26.928h-30.991c-14.872.001-26.928-12.056-26.928-26.928z" fill="#def4f8"/><path d="m146.686 89.608c4.161-16.968 10.103-33.236 17.618-48.594 3.332-6.811 10.321-11.068 17.903-11.068h147.586c7.583 0 14.571 4.257 17.903 11.068 7.518 15.366 13.463 31.642 17.624 48.619.425 1.735-.907 3.409-2.694 3.409h-213.227c-1.799 0-3.141-1.686-2.713-3.434z" fill="#ffd993"/><path d="m184.399 93.042h-35c-1.8 0-3.142-1.686-2.713-3.434 4.161-16.968 10.103-33.236 17.618-48.594 3.333-6.811 10.321-11.068 17.903-11.068h35c-7.583 0-14.571 4.257-17.903 11.068-7.515 15.358-13.457 31.626-17.618 48.594-.428 1.748.914 3.434 2.713 3.434z" fill="#ffcd71"/><path d="m365.286 89.584c3.416 13.902 5.636 28.273 6.544 43h-190.37c-13.11 0-23.171-11.741-21.036-24.676.039-.237.079-.474.118-.71 1.714-10.199 10.638-17.613 20.979-17.613h183.765z" fill="#c97e67"/><path d="m181.714 89.584c-3.416 13.901-5.636 28.273-6.544 43h-35c.908-14.727 3.128-29.099 6.544-43z" fill="#c0694e"/><path d="m159.085 140.084h-48.085c-13.807 0-25-11.193-25-25 0-2.761 2.239-5 5-5h88.085c2.761 0 5 2.239 5 5 0 13.807-11.193 25-25 25z" fill="#ffd993"/><path d="m401 140.084h-239.238c-13.807 0-25-11.193-25-25 0-2.761 2.239-5 5-5h279.238c2.761 0 5 2.239 5 5 0 13.807-11.193 25-25 25z" fill="#ffe7c0"/></g></svg>