<svg id="Capa_1" enable-background="new 0 0 512 512" height="512" viewBox="0 0 512 512" width="512" xmlns="http://www.w3.org/2000/svg"><g><path d="m372.538 335.98 63.915 21.187c26.077 8.644 43.68 33.025 43.68 60.497v94.336h-98.531z" fill="#332866"/><path d="m334.622 323.411 37.916 12.569c5.957 17.822 9.064 36.581 9.064 55.407v120.613h-30s-16.98-188.589-16.98-188.589z" fill="#180a33"/><path d="m139.462 335.98-63.915 21.187c-26.077 8.644-43.68 33.025-43.68 60.497v94.336h98.531z" fill="#574d8c"/><path d="m177.378 323.411-37.916 12.569c-5.957 17.822-9.064 36.581-9.064 55.407v120.613h30s16.98-188.589 16.98-188.589z" fill="#332866"/><path d="m160.398 414.274v97.726h63.735l10-107.726z" fill="#fff5f5"/><path d="m234.133 323.411h-56.755c-11.149 20.923-16.98 44.268-16.98 67.976v22.887h63.735z" fill="#ece6f2"/><path d="m277.867 404.274 10 107.726h63.735v-97.726z" fill="#ece6f2"/><path d="m351.602 414.274v-22.887c0-23.708-5.831-47.052-16.98-67.976h-56.755l10 90.863z" fill="#cfcfe6"/><path d="m246 404.274 10 107.726h31.867v-97.726z" fill="#24b3b3"/><path d="m224.133 414.274v97.726h31.867v-107.726z" fill="#2ee6a8"/><path d="m246 374.274 10 40h31.867v-30z" fill="#ffda44"/><path d="m224.133 384.274v30h31.867v-40z" fill="#fff79f"/><path d="m287.867 384.274v-60.863h-41.867l10 60.863z" fill="#198080"/><path d="m224.133 323.411h31.867v60.863h-31.867z" fill="#24b3b3"/><path d="m128.579 226.611h-31.915c-17.6 0-31.868-14.268-31.868-31.868 0-17.6 14.268-31.868 31.868-31.868l41.867-10z" fill="#ffdecf"/><path d="m373.469 152.876 41.867 10c17.6 0 31.868 14.268 31.868 31.868 0 17.6-14.268 31.868-31.868 31.868h-31.915z" fill="#ffcdbe"/><path d="m246 65.794 10 284.745c70.399 0 127.469-57.07 127.469-127.469v-60.195z" fill="#ffdecf"/><path d="m128.531 162.876v60.195c0 70.399 57.07 127.469 127.469 127.469v-284.746z" fill="#ffeee5"/><path d="m184.299 192.137h31.867v30h-31.867z" fill="#332866"/><path d="m295.834 192.137h31.867v30h-31.867z" fill="#180a33"/><path d="m211.741 105.794.001-.001c-.001.001-14.516-29.464-14.516-29.464l-32.978-27.617c-38.265 5.822-67.585 38.865-67.585 78.756v35.407h31.867c48.848.001 83.211-57.081 83.211-57.081z" fill="#ffb655"/><path d="m415.336 162.876v-19.474c0-79.199-64.203-143.402-143.402-143.402-5.386 0-10.702.298-15.934.876l-10 64.918 10 67.382c62.54 29.697 127.469 29.7 127.469 29.7z" fill="#ffb655"/><path d="m164.249 48.713c21.657 41.287 56.321 67.639 91.751 84.464v-132.301c-36.445 4.031-68.77 21.722-91.751 47.837z" fill="#ffda44"/></g></svg>