<svg id="Capa_1" enable-background="new 0 0 512 512" height="512" viewBox="0 0 512 512" width="512" xmlns="http://www.w3.org/2000/svg"><g><g><path d="m456.969 407.139c27.744-39.712 44.031-88.02 44.031-140.139 0-135.31-109.69-245-245-245s-245 109.69-245 245c0 52.119 16.287 100.427 44.031 140.139z" fill="#ffdd40"/></g><g><circle cx="256" cy="242" fill="#ffc839" r="200"/></g><g><path d="m405.805 149.805c0-4.834-1.401-9.336-3.813-13.134-2.276-3.582-2.847-7.917-1.575-11.966 1.348-4.293 1.535-9.004.284-13.673s-3.769-8.655-7.083-11.699c-3.126-2.871-4.799-6.91-4.619-11.15.191-4.495-.847-9.094-3.264-13.281-2.417-4.186-5.881-7.385-9.869-9.467-3.762-1.964-6.424-5.433-7.347-9.575-.979-4.392-3.172-8.565-6.59-11.983s-7.592-5.611-11.983-6.59c-4.142-.924-7.611-3.585-9.575-7.347-2.082-3.989-5.281-7.452-9.467-9.869s-8.785-3.455-13.281-3.264c-4.24.18-8.28-1.493-11.151-4.619-3.044-3.314-7.03-5.832-11.699-7.083s-9.38-1.063-13.673.284c-4.049 1.271-8.384.701-11.966-1.575-3.798-2.413-8.3-3.814-13.134-3.814s-9.336 1.401-13.133 3.814c-3.582 2.276-7.917 2.847-11.966 1.575-4.293-1.348-9.004-1.535-13.673-.284s-8.655 3.769-11.699 7.083c-2.871 3.126-6.91 4.799-11.151 4.619-4.495-.191-9.094.847-13.281 3.264-4.186 2.417-7.385 5.881-9.467 9.869-1.964 3.762-5.433 6.424-9.575 7.347-4.392.979-8.565 3.172-11.983 6.59s-5.611 7.592-6.59 11.983c-.924 4.142-3.585 7.611-7.347 9.575-3.988 2.082-7.452 5.281-9.869 9.467s-3.455 8.785-3.264 13.281c.18 4.24-1.493 8.279-4.619 11.151-3.314 3.044-5.832 7.03-7.083 11.699s-1.064 9.38.284 13.673c1.271 4.049.701 8.384-1.575 11.966-2.413 3.798-3.813 8.3-3.813 13.134s1.4 9.336 3.813 13.134c2.276 3.582 2.847 7.917 1.575 11.966-1.348 4.293-1.535 9.004-.284 13.673s3.769 8.655 7.083 11.699c3.126 2.871 4.799 6.91 4.619 11.151-.191 4.495.847 9.094 3.264 13.281 2.417 4.186 5.881 7.385 9.869 9.467 3.762 1.964 6.424 5.433 7.347 9.575.979 4.392 3.172 8.565 6.59 11.983s7.592 5.611 11.983 6.59c4.142.924 7.611 3.585 9.575 7.347 2.082 3.988 5.281 7.452 9.467 9.869s8.785 3.455 13.281 3.264c4.24-.18 8.28 1.493 11.151 4.619 3.044 3.314 7.03 5.832 11.699 7.083s9.38 1.064 13.673-.284c4.049-1.271 8.384-.701 11.966 1.575 3.798 2.413 8.3 3.814 13.134 3.814s9.336-1.4 13.134-3.814c3.582-2.276 7.917-2.847 11.966-1.575 4.293 1.348 9.004 1.535 13.673.284s8.655-3.769 11.699-7.083c2.871-3.126 6.91-4.799 11.151-4.619 4.495.191 9.094-.847 13.281-3.264 4.186-2.417 7.385-5.881 9.467-9.869 1.964-3.762 5.433-6.424 9.575-7.347 4.392-.979 8.565-3.172 11.983-6.59s5.611-7.592 6.59-11.983c.924-4.142 3.585-7.611 7.347-9.575 3.988-2.082 7.452-5.281 9.869-9.467s3.455-8.785 3.264-13.281c-.18-4.24 1.493-8.279 4.619-11.15 3.314-3.044 5.832-7.03 7.083-11.699s1.064-9.38-.284-13.673c-1.271-4.049-.701-8.384 1.575-11.966 2.411-3.8 3.812-8.302 3.812-13.136z" fill="#2d3c6b"/></g><g><path d="m256 259.36c-1.651-1.001-3.214-2.201-4.641-3.627-3.418-3.418-5.611-7.592-6.59-11.984-.924-4.142-3.585-7.611-7.347-9.575-3.989-2.082-7.452-5.281-9.869-9.467-2.417-4.187-3.455-8.785-3.264-13.281.18-4.24-1.493-8.279-4.619-11.151-3.314-3.044-5.832-7.03-7.083-11.699s-1.064-9.38.284-13.673c1.271-4.049.701-8.384-1.575-11.966-2.413-3.798-3.813-8.3-3.813-13.134s1.401-9.336 3.813-13.134c2.276-3.582 2.847-7.917 1.575-11.966-1.348-4.293-1.535-9.004-.284-13.673s3.769-8.655 7.083-11.699c3.126-2.871 4.799-6.91 4.619-11.151-.191-4.495.847-9.094 3.264-13.281 2.417-4.186 5.881-7.385 9.869-9.467 3.762-1.964 6.424-5.433 7.347-9.575.979-4.392 3.172-8.565 6.59-11.983s7.592-5.611 11.983-6.59c4.142-.924 7.611-3.585 9.575-7.347 2.082-3.989 5.281-7.452 9.467-9.869s8.785-3.455 13.281-3.264c4.159.177 8.118-1.439 10.978-4.45-.056-.059-.118-.109-.173-.169-3.044-3.313-7.03-5.832-11.699-7.083s-9.38-1.063-13.673.284c-4.049 1.271-8.384.701-11.966-1.575-3.796-2.411-8.298-3.811-13.132-3.811s-9.336 1.4-13.133 3.813c-3.582 2.276-7.917 2.847-11.966 1.575-4.293-1.348-9.004-1.535-13.673-.284s-8.655 3.769-11.699 7.083c-2.871 3.126-6.91 4.799-11.151 4.619-4.495-.191-9.094.847-13.281 3.264-4.186 2.417-7.385 5.881-9.467 9.869-1.964 3.762-5.433 6.424-9.575 7.347-4.392.979-8.565 3.172-11.983 6.59s-5.611 7.592-6.59 11.983c-.924 4.142-3.585 7.611-7.347 9.575-3.988 2.082-7.452 5.281-9.869 9.467s-3.455 8.785-3.264 13.281c.18 4.24-1.493 8.28-4.619 11.151-3.314 3.044-5.832 7.03-7.083 11.699s-1.064 9.38.284 13.673c1.271 4.049.701 8.384-1.575 11.966-2.413 3.798-3.814 8.3-3.814 13.134s1.401 9.336 3.814 13.134c2.276 3.582 2.847 7.917 1.575 11.966-1.348 4.293-1.535 9.004-.284 13.673s3.769 8.655 7.083 11.699c3.126 2.871 4.799 6.91 4.619 11.151-.191 4.495.847 9.094 3.264 13.281 2.417 4.186 5.881 7.385 9.869 9.467 3.762 1.964 6.424 5.433 7.347 9.575.979 4.392 3.172 8.565 6.59 11.984 3.418 3.418 7.592 5.611 11.983 6.59 4.142.924 7.611 3.585 9.575 7.347 2.082 3.989 5.281 7.452 9.467 9.869s8.785 3.455 13.281 3.264c4.24-.18 8.28 1.493 11.151 4.619 3.044 3.314 7.03 5.832 11.699 7.083s9.38 1.063 13.673-.284c4.049-1.271 8.384-.701 11.966 1.575 3.798 2.413 8.299 3.814 13.134 3.814v-40.252z" fill="#213159"/></g><g><path d="m456.949 407.139c-8.256-22.709-16.99-42.685-24.722-51.911-.904-1.078-1.795-2.019-2.668-2.79-6.623-5.848-19.39-11.382-34.352-16.323h-278.413c-14.961 4.941-27.729 10.475-34.352 16.323-.874.772-1.765 1.712-2.668 2.79-7.732 9.226-16.467 29.203-24.722 51.911-.001.009-.001.018-.002.026 16.027 22.935 35.88 42.998 58.632 59.266h284.637c22.752-16.268 42.605-36.331 58.632-59.266-.001-.008-.001-.017-.002-.026z" fill="#5c45bf"/></g><g><path d="m141.55 336.115h-24.757c-14.961 4.941-27.729 10.475-34.352 16.323-.874.772-1.765 1.712-2.668 2.79-7.732 9.226-16.467 29.203-24.722 51.911-.001.009-.001.018-.002.026 16.027 22.935 35.88 42.998 58.632 59.266h87.391c-37.369-36.628-54.767-85.508-59.522-130.316z" fill="#4432ad"/></g><g><path d="m395.206 336.115c-37.929-12.525-89.967-21.232-91.82-21.54h-94.772c-1.853.307-53.892 9.014-91.82 21.54.004.013 27.153 89.732-3.116 130.304v.01c29.165 20.855 63.099 35.456 99.848 41.88l42.474-20.458 42.474 20.457c36.748-6.423 70.683-21.024 99.848-41.88 0-.003 0-.007 0-.01-30.268-40.572-3.119-130.291-3.116-130.303z" fill="#dae2fe"/></g><g><path d="m140.901 329.049c-8.258 2.175-16.469 4.543-24.108 7.065.004.013 27.153 89.732-3.116 130.304v.01c29.165 20.855 63.099 35.456 99.848 41.88l26.545-12.785c-67.495-37.641-94.52-106.566-99.169-166.474z" fill="#bec8f7"/></g><g><path d="m349.296 379.57c5.805-7.806 5.152-18.657-1.547-25.71l-35.902-37.796c-4.95-.903-8.035-1.419-8.461-1.489h-94.772c-.426.071-3.51.586-8.461 1.489l-35.902 37.796c-6.7 7.053-7.353 17.904-1.547 25.71l26.774 36c2.603 3.5 2.637 8.282.085 11.819l-8.73 12.099c-5.035 6.977-5.043 16.393-.02 23.379l32.684 45.455c7.356 1.287 14.829 2.236 22.395 2.852l20.108-23.323 20.107 23.323c7.566-.616 15.039-1.565 22.395-2.852l32.684-45.455c5.023-6.986 5.015-16.401-.02-23.379l-8.73-12.099c-2.552-3.537-2.518-8.32.085-11.819z" fill="#e9efff"/></g><g><path d="m303.386 314.575h-94.772l27.272 196.606c6.634.539 13.341.819 20.114.819s13.48-.28 20.114-.819z" fill="#5c45bf"/></g><g><path d="m276.114 511.181 4.111-29.633c-26.458-6.208-53.849-38.937-60.138-84.271l15.8 113.904c6.633.539 13.34.819 20.113.819s13.48-.28 20.114-.819z" fill="#4432ad"/></g><g><path d="m248.5 511.873c2.492.076 4.99.127 7.5.127s5.008-.051 7.5-.127v-197.298h-15z" fill="#2d2296"/></g><g><path d="m91.07 426.843v21.327c7.157 6.519 14.704 12.617 22.599 18.262l-12.035-41.103c-1.75-5.98-10.564-4.716-10.564 1.514z" fill="#2d2296"/></g><g><path d="m420.93 426.843v21.327c-7.157 6.519-14.704 12.617-22.599 18.262l12.035-41.103c1.75-5.98 10.564-4.716 10.564 1.514z" fill="#4432ad"/></g><g><path d="m208.614 221.239v93.336s19.021 33.261 47.17 33.261c.073 0 .143-.005.216-.005 28.031-.103 47.386-33.256 47.386-33.256v-93.336z" fill="#a05838"/></g><g><path d="m208.614 220.734v93.841c94.723 0 94.772-53.4 94.772-53.4v-40.44h-94.772z" fill="#934a2e"/></g><g><path d="m303.386 299.609-47.386 48.222s18.328 33.146 30.188 33.146c7.034 0 17.106-22.384 24.137-40.597 5.342-13.84 2.694-29.488-6.939-40.771z" fill="#7255ce"/></g><g><path d="m208.614 299.609 47.386 48.222s-18.328 33.146-30.188 33.146c-7.034 0-17.106-22.384-24.137-40.597-5.342-13.84-2.694-29.488 6.939-40.771z" fill="#7255ce"/></g><g><path d="m180.942 159.567s-10.385-25.285-28.897-19.415.448 60.664 36.573 64.116z" fill="#934a2e"/></g><g><path d="m331.058 159.567s10.385-25.285 28.897-19.415-.448 60.664-36.573 64.116z" fill="#a05838"/></g><g><path d="m327.049 124.754c-3.509-10.287-9.219-24.496-16.225-32.717-3.978-3.853-8.145-7.046-12.399-9.103-8.195-3.963-15.758-4.069-22.16-2.497-13.314 3.269-27.216 3.268-40.53 0-6.402-1.572-13.966-1.466-22.16 2.497-4.254 2.057-8.421 5.25-12.399 9.103-7.006 8.221-12.716 22.43-16.225 32.717-2.762 8.097-8.72 14.703-16.484 18.295-.031 1.23-.063 2.46-.063 3.705 0 64.505 39.219 140.155 87.597 140.155s87.597-75.651 87.597-140.155c0-1.245-.032-2.475-.063-3.705-7.766-3.592-13.724-10.198-16.486-18.295z" fill="#b76c4e"/></g><g><path d="m208.403 146.754c0-25.925 6.339-48.917 17.057-67.152-3.755.312-7.739 1.327-11.885 3.333-4.254 2.057-8.421 5.25-12.399 9.103-7.006 8.221-12.716 22.43-16.225 32.717-2.762 8.097-8.72 14.703-16.484 18.295-.031 1.23-.063 2.46-.063 3.705 0 64.505 39.219 140.155 87.597 140.155 6.881 0 13.576-1.535 20-4.346-38.742-16.953-67.598-80.48-67.598-135.81z" fill="#a05838"/></g><g><path d="m223.5 138.968h-20c-4.142 0-7.5-3.358-7.5-7.5 0-4.142 3.358-7.5 7.5-7.5h20c4.142 0 7.5 3.358 7.5 7.5 0 4.142-3.358 7.5-7.5 7.5z" fill="#162544"/></g><g><path d="m308.5 138.968h-20c-4.142 0-7.5-3.358-7.5-7.5 0-4.142 3.358-7.5 7.5-7.5h20c4.142 0 7.5 3.358 7.5 7.5 0 4.142-3.358 7.5-7.5 7.5z" fill="#162544"/></g><g><g><path d="m242.013 192.447 8.436-13.441c2.569-4.093 8.533-4.093 11.102 0l8.436 13.441c2.739 4.365-.398 10.038-5.551 10.038h-16.871c-5.154-.001-8.291-5.674-5.552-10.038z" fill="#934a2e"/></g></g><g><g><path d="m235.384 240.87h41.233c4.111-3.622 7.258-8.309 9.01-13.631 1.584-4.811-2.069-9.754-7.134-9.754h-44.985c-5.065 0-8.718 4.943-7.134 9.754 1.752 5.322 4.899 10.009 9.01 13.631z" fill="#162544"/></g><g><path d="m276.616 240.87c-5.493 4.849-12.714 7.798-20.616 7.798s-15.124-2.948-20.616-7.798c5.5-4.849 12.714-7.798 20.616-7.798s15.116 2.949 20.616 7.798z" fill="#ff4155"/></g></g><g><path d="m310.999 162.085c.043-3.495-1.371-7.004-4.242-9.539-4.675-4.128-11.84-4.128-16.515 0-2.871 2.535-4.284 6.044-4.242 9.539.055 4.538 5.629 6.716 8.838 3.507 2.022-2.022 5.3-2.022 7.322 0 3.21 3.21 8.784 1.032 8.839-3.507z" fill="#162544"/></g><g><path d="m201.001 162.085c-.043-3.495 1.371-7.004 4.242-9.539 4.675-4.128 11.84-4.128 16.515 0 2.871 2.535 4.284 6.044 4.242 9.539-.055 4.538-5.629 6.716-8.838 3.507-2.022-2.022-5.3-2.022-7.322 0-3.21 3.21-8.784 1.032-8.839-3.507z" fill="#162544"/></g></g></svg>