<svg height="512pt" viewBox="0 0 512 512" width="512pt" xmlns="http://www.w3.org/2000/svg"><path d="m512 256c0 141.386719-114.613281 256-256 256s-256-114.613281-256-256 114.613281-256 256-256 256 114.613281 256 256zm0 0" fill="#f93d6e"/><path d="m398.410156 468.761719c-12.339844 8.277343-25.441406 15.519531-39.179687 21.566406-10.652344 4.703125-21.679688 8.703125-33.03125 11.921875-22.300781 6.351562-45.847657 9.75-70.199219 9.75-24.339844 0-47.890625-3.398438-70.199219-9.738281-7.242187-2.0625-14.359375-4.441407-21.332031-7.121094-.429688-.160156-.859375-.320313-1.289062-.492187-3.507813-1.359376-6.980469-2.808594-10.410157-4.320313-13.738281-6.058594-26.839843-13.289063-39.191406-21.578125 10.390625-14.371094 23.761719-26.429688 39.191406-35.320312 10.199219-5.871094 21.300781-10.339844 33.03125-13.148438 1.808594-.441406 3.640625-.839844 5.480469-1.191406 3.46875-.679688 7-1.199219 10.570312-1.570313 1.027344-.109375 2.046876-.210937 3.089844-.289062 3.378906-.28125 6.796875-.421875 10.257813-.421875h81.589843c4.519532 0 8.972657.242187 13.351563.703125 3.570313.367187 7.089844.898437 10.570313 1.558593 1.390624.269532 2.769531.558594 4.140624.871094.449219.117188.910157.207032 1.347657.328125 11.742187 2.820313 22.832031 7.289063 33.03125 13.160157 15.429687 8.898437 28.789062 20.960937 39.179687 35.332031zm0 0" fill="#42b7a1"/><path d="m133.347656 278.613281c0 20.695313-15.121094 37.859375-34.917968 41.042969-2.164063.351562-4.390626.535156-6.660157.535156-22.96875 0-41.582031-18.613281-41.582031-41.582031s18.613281-41.578125 41.582031-41.578125c2.269531 0 4.496094.183594 6.660157.535156 19.796874 3.1875 34.917968 20.347656 34.917968 41.046875zm0 0" fill="#f9c5ac"/><path d="m133.347656 278.613281c0 20.695313-15.121094 37.859375-34.917968 41.042969-3.597657-13.078125-5.519532-26.839844-5.519532-41.042969 0-14.207031 1.921875-27.96875 5.519532-41.046875 19.796874 3.1875 34.917968 20.347656 34.917968 41.046875zm0 0" fill="#efb29a"/><path d="m106.628906 278.613281c0 8.207031-6.652344 14.859375-14.859375 14.859375s-14.863281-6.652344-14.863281-14.859375 6.65625-14.859375 14.863281-14.859375 14.859375 6.652344 14.859375 14.859375zm0 0" fill="#efb29a"/><path d="m215.199219 416.808594c-29.359375 0-49.257813 42.429687-50.730469 78.332031-.429688-.160156-.859375-.320313-1.289062-.492187-3.507813-1.359376-6.980469-2.808594-10.410157-4.320313-13.738281-6.058594-26.839843-13.289063-39.191406-21.578125 10.390625-14.371094 23.761719-26.429688 39.191406-35.320312 10.199219-5.871094 21.300781-10.339844 33.03125-13.148438 1.808594-.441406 3.640625-.839844 5.480469-1.191406 3.46875-.679688 7-1.199219 10.570312-1.570313 1.027344-.109375 2.046876-.210937 3.089844-.289062 3.378906-.28125 6.796875-.421875 10.257813-.421875zm0 0" fill="#289983"/><path d="m378.640625 278.613281c0 20.695313 15.117187 37.859375 34.917969 41.042969 2.164062.351562 4.386718.535156 6.660156.535156 22.96875 0 41.578125-18.613281 41.578125-41.582031s-18.609375-41.578125-41.578125-41.578125c-2.273438 0-4.496094.183594-6.660156.535156-19.800782 3.1875-34.917969 20.347656-34.917969 41.046875zm0 0" fill="#f9c5ac"/><path d="m378.640625 278.613281c0 20.695313 15.117187 37.859375 34.917969 41.042969 3.59375-13.078125 5.515625-26.839844 5.515625-41.042969 0-14.207031-1.921875-27.96875-5.515625-41.046875-19.800782 3.1875-34.917969 20.347656-34.917969 41.046875zm0 0" fill="#efb29a"/><path d="m435.078125 278.613281c0 8.207031-6.652344 14.859375-14.859375 14.859375s-14.859375-6.652344-14.859375-14.859375 6.652344-14.859375 14.859375-14.859375 14.859375 6.652344 14.859375 14.859375zm0 0" fill="#efb29a"/><path d="m320.710938 419.070312v4.339844c0 28.539063-18.320313 53.378906-45.589844 61.808594-6.171875 1.921875-12.609375 2.890625-19.132813 2.890625-35.679687 0-64.707031-29.03125-64.707031-64.699219v-4.320312c3.46875-.679688 7-1.199219 10.570312-1.570313 1.027344-.109375 2.046876-.210937 3.089844-.289062 3.378906-.28125 6.796875-.421875 10.257813-.421875h81.589843c4.519532 0 8.972657.242187 13.351563.703125 3.570313.367187 7.089844.898437 10.570313 1.558593zm0 0" fill="#f9c5ac"/><path d="m204.941406 417.230469c-1.042968.078125-2.0625.179687-3.089844.289062-3.570312.371094-7.101562.890625-10.570312 1.570313v4.320312c0 1.246094.042969 2.480469.113281 3.707032 6.902344-6.417969 14.921875-10.308594 23.804688-10.308594-3.460938 0-6.878907.140625-10.257813.421875zm0 0" fill="#efb29a"/><path d="m300.707031 368.539062v54.867188c0 20.089844-13.246093 37.066406-31.488281 42.707031-4.179688 1.296875-8.628906 1.996094-13.230469 1.996094-24.691406 0-44.703125-20.011719-44.703125-44.703125v-54.867188zm0 0" fill="#efb29a"/><path d="m300.707031 419.933594v3.472656c0 20.089844-13.246093 37.066406-31.488281 42.707031-16.460938-5.058593-28.839844-19.371093-31.125-36.882812 2.988281.183593 5.992188.273437 9.007812.273437 8.460938 0 16.75-.671875 24.828126-1.996094 9.953124-1.601562 19.570312-4.160156 28.777343-7.574218zm0 0" fill="#f9c5ac"/><path d="m410.695312 256.511719c0 76.984375-56.242187 140.847656-129.871093 152.703125-8.078125 1.328125-16.371094 2-24.828125 2-85.445313 0-154.703125-69.257813-154.703125-154.703125v-157.5h309.402343zm0 0" fill="#f9c5ac"/><path d="m283.242188 408.808594c-.800782.140625-1.609376.28125-2.417969.410156-8.082031 1.320312-16.371094 1.992188-24.832031 1.992188-85.4375 0-154.699219-69.25-154.699219-154.699219v-157.5h54.550781v157.5c0 76.136719 54.980469 139.410156 127.398438 152.296875zm0 0" fill="#efb29a"/><path d="m255.996094 337.929688c-12.957032 0-25.910156-3.246094-37.71875-9.738282-3.328125-1.828125-4.542969-6.011718-2.714844-9.34375 1.832031-3.332031 6.015625-4.546875 9.347656-2.714844 19.464844 10.699219 42.707032 10.699219 62.167969 0 3.332031-1.832031 7.515625-.617187 9.347656 2.714844 1.832031 3.332032.617188 7.515625-2.714843 9.34375-11.808594 6.492188-24.761719 9.738282-37.714844 9.738282zm0 0" fill="#dd9f8a"/><path d="m273.542969 291.695312h-35.097657c-4.179687 0-7.570312-3.390624-7.570312-7.570312 0-4.183594 3.390625-7.570312 7.570312-7.570312h35.097657c4.183593 0 7.570312 3.386718 7.570312 7.570312 0 4.179688-3.386719 7.570312-7.570312 7.570312zm0 0" fill="#efb29a"/><path d="m281.339844 249.160156c0 17.164063 13.914062 31.082032 31.082031 31.082032 17.164063 0 31.078125-13.917969 31.078125-31.082032" fill="#efb29a"/><path d="m334.707031 249.160156c0 12.308594-9.976562 22.289063-22.285156 22.289063-12.3125 0-22.289063-9.980469-22.289063-22.289063s9.976563-22.285156 22.289063-22.285156c12.308594 0 22.285156 9.976562 22.285156 22.285156zm0 0" fill="#2f373b"/><path d="m331.257812 245.226562c0 5.277344-4.277343 9.550782-9.550781 9.550782-5.273437 0-9.550781-4.273438-9.550781-9.550782 0-5.273437 4.277344-9.546874 9.550781-9.546874 5.273438 0 9.550781 4.273437 9.550781 9.546874zm0 0" fill="#fff"/><path d="m168.488281 249.160156c0 17.164063 13.917969 31.082032 31.082031 31.082032 17.164063 0 31.078126-13.917969 31.078126-31.082032" fill="#efb29a"/><path d="m221.855469 249.160156c0 12.308594-9.976563 22.289063-22.285157 22.289063-12.308593 0-22.289062-9.980469-22.289062-22.289063s9.980469-22.285156 22.289062-22.285156c12.308594 0 22.285157 9.976562 22.285157 22.285156zm0 0" fill="#2f373b"/><path d="m204.78125 270.832031c-1.667969.410157-3.417969.617188-5.210938.617188-12.308593 0-22.289062-9.976563-22.289062-22.289063 0-12.308594 9.980469-22.289062 22.289062-22.289062 1.792969 0 3.542969.210937 5.210938.621094-9.800781 2.339843-17.070312 11.160156-17.070312 21.667968 0 10.511719 7.269531 19.332032 17.070312 21.671875zm0 0" fill="#181e21"/><path d="m317.632812 270.832031c-1.671874.410157-3.421874.617188-5.210937.617188-12.308594 0-22.289063-9.976563-22.289063-22.289063 0-12.308594 9.980469-22.289062 22.289063-22.289062 1.789063 0 3.539063.210937 5.210937.621094-9.800781 2.339843-17.070312 11.160156-17.070312 21.667968 0 10.511719 7.269531 19.332032 17.070312 21.671875zm0 0" fill="#181e21"/><path d="m218.40625 245.226562c0 5.277344-4.273438 9.550782-9.546875 9.550782-5.277344 0-9.550781-4.273438-9.550781-9.550782 0-5.273437 4.273437-9.546874 9.550781-9.546874 5.273437 0 9.546875 4.273437 9.546875 9.546874zm0 0" fill="#fff"/><path d="m271.972656 182.414062c3.582032-8.46875 34.859375 32.492188 46.585938 29.320313 23.683594-6.398437 2.605468-34.53125 2.605468-34.53125l-35.507812-30.625-20.199219 14.007813" fill="#efb29a"/><path d="m155.84375 210.757812c0-13.03125 54.335938 21.9375 71.820312 4.453126 17.484376-17.484376-68.089843-63.746094-68.089843-63.746094l-34.535157 3.910156" fill="#efb29a"/><path d="m62.429688 259.664062c-4.980469-17.691406-7.507813-36.0625-7.507813-54.605468 0-110.875 90.203125-201.078125 201.078125-201.078125s201.078125 90.203125 201.078125 201.078125c0 18.269531-2.453125 36.378906-7.289063 53.824218l-19.273437-5.34375c4.355469-15.703124 6.5625-32.015624 6.5625-48.480468 0-99.847656-81.230469-181.078125-181.078125-181.078125s-181.078125 81.230469-181.078125 181.078125c0 16.710937 2.273437 33.257812 6.757813 49.183594zm0 0" fill="#f1eee9"/><path d="m439.738281 122.46875c17.589844-28.339844-36.160156-49.847656-36.160156-49.847656s25.773437-1.542969 17.59375-22.480469c-8.78125-22.480469-75.261719 0-75.261719-22.480469 0-22.480468-34.210937-15.628906-89.910156 5.871094-55.699219-21.5-89.910156-28.351562-89.910156-5.871094 0 22.480469-67.109375 0-75.261719 22.480469-7.65625 21.140625 17.59375 22.480469 17.59375 22.480469s-53.75 21.507812-36.160156 49.847656c17.589843 28.339844 32.257812 15.640625 24.929687 35.671875-7.339844 20.039063-24.929687 35.679687-12.222656 48.378906 12.703125 12.710938 6.800781 30.511719 6.800781 30.511719s-1.269531 11.519531 13.71875 11.519531c14.992188 0 7.820313-57.660156 39.101563-68.421875 19.800781-6.808594 47.449218 13.429688 73 25.960938 14.800781 7.261718 28.898437 11.929687 40.371094 7.269531 31.277343-12.699219 4.890624-39.089844 31.277343-39.089844 26.390625 0 43.3125 48.121094 61.570313 42.03125 8.148437-2.71875 1.851562-15.53125 9.886718-19.226562 16-7.351563 32.015626 24.15625 37.335938 40.945312 2 6.332031 4.429688 10.53125 8.480469 10.53125 14.988281 0 13.71875-11.519531 13.71875-11.519531s-5.902344-17.800781 6.800781-30.511719c12.707031-12.699219-4.882812-28.339843-12.222656-48.378906-7.328125-20.03125 7.339844-7.332031 24.929687-35.671875zm0 0" fill="#2f373b"/><path d="m367.875 376.046875c-9.863281 0-19.199219-1.472656-27.238281-3.425781l4.71875-19.433594c58.492187 14.203125 75.527343-29.046875 76.222656-30.894531l18.777344 6.886719c-.238281.652343-5.972657 16.089843-21.265625 29.019531-16.027344 13.550781-34.386719 17.847656-51.214844 17.847656zm0 0" fill="#f1eee9"/><path d="m194.429688 65.78125c19.550781 19.546875-45.929688 26.390625-41.050782 50.820312 4.890625 24.4375 64.210938 89.488282 64.210938 89.488282-25.550782-12.53125-53.199219-32.769532-73-25.960938-31.28125 10.761719-24.109375 68.421875-39.101563 68.421875-14.988281 0-13.71875-11.519531-13.71875-11.519531s5.902344-17.800781-6.800781-30.511719c-12.707031-12.699219 4.882812-28.339843 12.222656-48.378906 7.328125-20.03125-7.339844-7.332031-24.929687-35.671875-17.589844-28.339844 36.160156-49.847656 36.160156-49.847656s-25.25-1.339844-17.59375-22.480469c8.152344-22.480469 75.261719 0 75.261719-22.480469 0-22.480468 34.210937-15.628906 89.910156 5.871094-38.308594-13.382812-81.109375 12.699219-61.570312 32.25zm0 0" fill="#181e21"/><path d="m44.457031 329.71875 11.019531-1.605469c8.828126-1.285156 14.941407-9.484375 13.65625-18.3125l-9.636718-66.136719c-1.285156-8.828124-9.484375-14.941406-18.3125-13.65625l-11.019532 1.605469c-8.828124 1.285157-14.945312 9.484375-13.65625 18.3125l9.632813 66.136719c1.289063 8.828125 9.488281 14.945312 18.316406 13.65625zm0 0" fill="#2f373b"/><path d="m97.988281 343.121094-26.617187 3.878906c-12.6875 1.847656-24.472656-6.941406-26.320313-19.628906l-13.648437-93.675782c-1.847656-12.691406 6.941406-24.476562 19.628906-26.324218l26.613281-3.878906c12.691407-1.847657 24.476563 6.941406 26.324219 19.628906l13.648438 93.679687c1.847656 12.6875-6.941407 24.472657-19.628907 26.320313zm0 0" fill="#40b4d3"/><path d="m112.730469 283.28125 4.882812 33.519531c1.847657 12.6875-6.9375 24.472657-19.625 26.320313l-26.617187 3.878906c-12.6875 1.847656-24.472656-6.9375-26.320313-19.628906l-4.886719-33.519532c1.851563 12.6875 13.636719 21.476563 26.324219 19.628907l26.617188-3.878907c12.6875-1.847656 21.472656-13.632812 19.625-26.320312zm0 0" fill="#0084a6"/><path d="m467.542969 329.71875-11.019531-1.605469c-8.828126-1.285156-14.941407-9.484375-13.65625-18.3125l9.636718-66.136719c1.285156-8.828124 9.484375-14.941406 18.3125-13.65625l11.019532 1.605469c8.828124 1.285157 14.945312 9.484375 13.65625 18.3125l-9.632813 66.136719c-1.289063 8.828125-9.488281 14.945312-18.316406 13.65625zm0 0" fill="#2f373b"/><path d="m414.011719 343.121094 26.617187 3.878906c12.6875 1.847656 24.472656-6.941406 26.320313-19.628906l13.648437-93.675782c1.847656-12.691406-6.941406-24.476562-19.628906-26.324218l-26.613281-3.878906c-12.691407-1.847657-24.476563 6.941406-26.324219 19.628906l-13.644531 93.679687c-1.851563 12.6875 6.9375 24.472657 19.625 26.320313zm0 0" fill="#40b4d3"/><path d="m399.269531 283.28125-4.882812 33.519531c-1.847657 12.6875 6.9375 24.472657 19.628906 26.320313l26.617187 3.878906c12.6875 1.847656 24.472657-6.9375 26.320313-19.628906l4.882813-33.519532c-1.847657 12.6875-13.632813 21.476563-26.320313 19.628907l-26.617187-3.878907c-12.691407-1.847656-21.476563-13.632812-19.628907-26.320312zm0 0" fill="#0084a6"/><path d="m363.03125 360.949219c0 13.761719-11.160156 24.921875-24.921875 24.921875-13.765625 0-24.925781-11.160156-24.925781-24.921875 0-13.765625 11.160156-24.925781 24.925781-24.925781 13.761719 0 24.921875 11.160156 24.921875 24.925781zm0 0" fill="#2f373b"/><path d="m345.523438 384.75c-2.339844.730469-4.828126 1.121094-7.410157 1.121094-13.769531 0-24.929687-11.160156-24.929687-24.921875 0-13.769531 11.160156-24.917969 24.929687-24.917969 2.582031 0 5.070313.390625 7.410157 1.117188-10.136719 3.160156-17.5 12.621093-17.5 23.800781 0 11.179687 7.363281 20.640625 17.5 23.800781zm0 0" fill="#181e21"/><g fill="#fff"><path d="m367.15625 247.324219v.265625c.160156 15.179687 23.285156 15.179687 23.445312 0 0-.085938 0-.179688 0-.265625 0-8.945313-4.6875-16.773438-11.722656-21.226563-7.035156 4.453125-11.722656 12.28125-11.722656 21.226563zm0 0"/><path d="m122.730469 283.28125v.269531c.160156 15.179688 23.285156 15.179688 23.445312 0 0-.089843 0-.179687 0-.269531 0-8.941406-4.6875-16.773438-11.722656-21.222656-7.035156 4.449218-11.722656 12.28125-11.722656 21.222656zm0 0"/></g></svg>