<svg id="Capa_1" enable-background="new 0 0 512 512" height="512" viewBox="0 0 512 512" width="512" xmlns="http://www.w3.org/2000/svg"><g><path d="m436.453 357.167-101.831-33.756-78.61 188.589h224.121v-94.336c0-27.472-17.604-51.852-43.68-60.497z" fill="#332866"/><path d="m177.378 323.411-101.831 33.756c-26.077 8.644-43.68 33.025-43.68 60.497v94.336h224.144z" fill="#574d8c"/><path d="m246.001 417.255 10 94.737c.004.003.007.005.011.008 45.899-32.921 69.327-65.84 80.384-94.749z" fill="#ffda44"/><path d="m175.624 417.259c11.062 28.904 34.489 61.818 80.377 94.733v-94.737z" fill="#fff79f"/><path d="m336.396 417.251c4.918-12.857 7.389-24.92 8.3-35.837l-98.695.003 10 49.671c27.832.001 54.755-4.659 80.395-13.837z" fill="#ffb655"/><path d="m175.624 417.259c25.634 9.172 52.55 13.83 80.375 13.83h.002v-49.671l-88.684.004c.912 10.916 3.386 22.98 8.307 35.837z" fill="#ffda44"/><path d="m344.696 381.414c2.906-34.841-10.073-58.003-10.073-58.003h-88.621l10 77.678c31.1 0 60.898-6.624 88.694-19.675z" fill="#ece6f2"/><path d="m167.317 381.421c27.792 13.046 57.586 19.668 88.682 19.668h.002v-77.678h-78.623s-12.975 23.165-10.061 58.01z" fill="#fff5f5"/><path d="m415.336 159.336c0-87.999-71.337-159.336-159.335-159.336l-10 172.876 169.335-10z" fill="#ff7c48"/><path d="m256 0c-87.999 0-159.336 71.337-159.336 159.336v3.54l159.337 10z" fill="#ffb655"/><path d="m81.757 222.91s-16.961 36.784-16.961 72.38l112.581 28.121h78.623v-100.501z" fill="#ffb655"/><path d="m447.204 295.29c0-35.595-16.961-72.38-16.961-72.38h-174.242v100.501h78.621z" fill="#ff7c48"/><path d="m138.579 226.611h-41.915c-17.6 0-31.868-14.268-31.868-31.868 0-17.6 14.268-31.868 31.868-31.868h31.867z" fill="#ffdecf"/><path d="m373.421 226.611h41.915c17.6 0 31.868-14.268 31.868-31.868 0-17.6-14.268-31.868-31.868-31.868h-31.867z" fill="#ffcdbe"/><path d="m256.001 97.344-10 109.793 10 143.403c70.399 0 127.468-57.07 127.468-127.469v-60.195h.002s-81.509 0-127.47-65.532z" fill="#ffdecf"/><path d="m128.531 162.876v60.195c0 70.399 57.07 127.469 127.469 127.469h.001v-253.196c-45.961 65.532-127.47 65.532-127.47 65.532z" fill="#ffeee5"/><path d="m184.299 192.137h31.867v30h-31.867z" fill="#332866"/><path d="m295.834 192.137h31.867v30h-31.867z" fill="#180a33"/></g></svg>