<svg id="Capa_1" enable-background="new 0 0 512 512" height="512" viewBox="0 0 512 512" width="512" xmlns="http://www.w3.org/2000/svg"><g><path d="m0 256c0-141.385 114.615-256 256-256s256 114.615 256 256c0 80.844-37.474 152.936-96 199.852-2.029 1.627-102.263-46.57-160-46.57s-157.971 48.197-160 46.57c-58.526-46.916-96-119.008-96-199.852z" fill="#ffb52d"/><path d="m456.362 256c0 110.657-89.705 200.362-200.362 200.362s-200.362-89.705-200.362-200.362 89.705-200.362 200.362-200.362 200.362 89.705 200.362 200.362z" fill="#ffc14f"/><path d="m192.489 360.506c-30.524 7.541-53.156 35.107-53.156 67.96v40.934c0 6.647-7.228 10.774-12.958 7.404-10.642-6.261-20.791-13.269-30.375-20.952v-27.385c0-38.66 31.34-70 70-70h25z" fill="#2e5aac"/><path d="m416 428.466v27.385c-43.827 35.134-99.459 56.149-160 56.149-47.457 0-91.897-12.913-130-35.417v-48.116c0-36.983 28.68-67.267 65.012-69.825 1.647-.116 4.64 6.486 6.317 6.486h117.34l6.33-6.661h25c38.661-.001 70.001 31.339 70.001 69.999z" fill="#4172cc"/><path d="m355.678 426.199v65.669c-4.923 2.083-9.925 4.017-15 5.794v-71.464c0-4.143 3.358-7.5 7.5-7.5s7.5 3.359 7.5 7.501zm-191.856-7.5c-4.142 0-7.5 3.357-7.5 7.5v65.669c4.923 2.083 9.925 4.017 15 5.794v-71.464c0-4.141-3.358-7.499-7.5-7.499z" fill="#2e5aac"/><path d="m274.394 470h-21.894c-25.74 0-46.606-20.866-46.606-46.606v-54.822c0-5.581 4.525-10.106 10.106-10.106l10 8.959h60.447l9.553-8.959h25v64.927c0 25.741-20.866 46.607-46.606 46.607z" fill="#def4f8"/><path d="m263.138 470h-25.532c-25.74 0-46.606-20.866-46.606-46.606v-64.927h25l.532.477v64.45c0 25.74 20.866 46.606 46.606 46.606z" fill="#c2eaf2"/><path d="m256 461.28c-4.142 0-7.5-3.358-7.5-7.5v-26.667c0-4.142 3.358-7.5 7.5-7.5 4.142 0 7.5 3.358 7.5 7.5v26.667c0 4.142-3.358 7.5-7.5 7.5zm-22.117-16.951v-18.191c0-4.142-3.358-7.5-7.5-7.5-4.142 0-7.5 3.358-7.5 7.5v18.191c0 4.142 3.358 7.5 7.5 7.5 4.142 0 7.5-3.358 7.5-7.5zm59.234 0v-18.191c0-4.142-3.358-7.5-7.5-7.5-4.142 0-7.5 3.358-7.5 7.5v18.191c0 4.142 3.358 7.5 7.5 7.5 4.142 0 7.5-3.358 7.5-7.5z" fill="#a6e0ec"/><path d="m296 358.466v14.935c0 19.366-17.909 35.065-40 35.065-22.091 0-40-15.699-40-35.065v-14.935z" fill="#60c8dd"/><path d="m451.596 189.171-195.596 70.515-195.596-70.515c-12.055-4.346-13.462-20.831-2.317-27.156l91.913-52.167 210-1.135 93.913 53.302c11.145 6.325 9.739 22.81-2.317 27.156z" fill="#c2eaf2"/><path d="m367 338.466h-184.723c-8.284 0-15-6.716-15-15v-145c0-4.953.327-9.83.962-14.609 3-22.605 22.605-39.317 45.408-39.317h146.116c5.229 0 9.943 3.074 12.137 7.821 6.483 14.023 10.1 29.642 10.1 46.106v145c0 8.284-6.716 14.999-15 14.999z" fill="#954c35"/><path d="m191 338.466h-46c-8.284 0-15-6.716-15-15v-145c0-4.953.327-9.83.962-14.609 3-22.605 22.605-39.317 45.408-39.317h46c-22.803 0-42.408 16.712-45.408 39.317-.634 4.78-.962 9.656-.962 14.609v145c0 8.285 6.716 15 15 15z" fill="#7c3f2c"/><path d="m146 268.466c-13.807 0-25-11.193-25-25v-10c0-13.807 11.193-25 25-25 13.807 0 25 11.193 25 25v10c0 13.807-11.193 25-25 25z" fill="#ffcdbe"/><path d="m136 228.466v20c0 8.178 3.927 15.439 9.998 20-13.806-.001-24.998-11.194-24.998-25v-10c0-13.807 11.192-24.999 24.998-25-6.071 4.561-9.998 11.822-9.998 20zm230-20v-20c0-60.751-49.249-110-110-110-60.751 0-110 49.249-110 110v40c0 50.351 33.83 92.801 80 105.859v34.141c0 16.569 13.431 30 30 30s30-13.431 30-30v-34.141c33.585-9.5 60.641-34.551 72.895-66.883 2.252.667 4.637 1.024 7.105 1.024 13.807 0 25-11.193 25-25v-10c0-13.807-11.193-25-25-25z" fill="#ffbeaa"/><path d="m366 188.466v40c0 50.792-34.425 93.543-81.216 106.195-9.023 2.44-18.545 2.44-27.568 0-46.791-12.651-81.216-55.403-81.216-106.195v-40c0-55.663 41.345-101.669 95-108.985 53.655 7.316 95 53.322 95 108.985z" fill="#ffcdbe"/><path d="m270.5 235.198c-3.875 3.875-9.024 6.009-14.5 6.009-5.475 0-10.624-2.134-14.499-6.009-2.929-2.93-2.929-7.678 0-10.607 2.929-2.928 7.678-2.928 10.606 0 1.042 1.042 2.424 1.616 3.893 1.616s2.851-.574 3.893-1.616c2.929-2.928 7.678-2.928 10.606 0 2.93 2.929 2.93 7.677.001 10.607z" fill="#faa68e"/><path d="m223.5 195.966c0 8.284-6.716 15-15 15s-15-6.716-15-15 6.716-15 15-15 15 6.716 15 15zm80-15c-8.284 0-15 6.716-15 15s6.716 15 15 15 15-6.716 15-15-6.716-15-15-15z" fill="#126e66"/><path d="m226 188.466c0 4.142-3.358 7.5-7.5 7.5s-7.5-3.358-7.5-7.5 3.358-7.5 7.5-7.5 7.5 3.358 7.5 7.5zm87.5-7.5c-4.142 0-7.5 3.358-7.5 7.5s3.358 7.5 7.5 7.5 7.5-3.358 7.5-7.5-3.358-7.5-7.5-7.5z" fill="#fff5f5"/><path d="m256 298.466c-16.569 0-30-13.431-30-30 0-4.142 3.358-7.5 7.5-7.5h45c4.142 0 7.5 3.358 7.5 7.5 0 16.569-13.431 30-30 30z" fill="#fff5f5"/><path d="m263.5 297.521c-2.397.617-4.91.945-7.5.945-16.568 0-30-13.431-30-30 0-4.142 3.358-7.5 7.5-7.5h15c-4.142 0-7.5 3.358-7.5 7.5 0 13.979 9.561 25.725 22.5 29.055z" fill="#def4f8"/><path d="m257.764 68.466h14.236c44.483 0 82.799 26.405 100.13 64.396-20.146 22.595-49.477 36.824-82.13 36.824h-112.593c-2.445 0-4.32-2.192-3.928-4.605 7.46-45.925 40.644-83.218 84.285-96.615z" fill="#954c35"/><path d="m177.597 169.686h-27.597c-6.656 0-13.174-.591-19.505-1.724 5.289-55.824 52.297-99.496 109.505-99.496h32c3.52 0 7.001.166 10.437.489-54.348 4.957-97.598 47.075-104.84 100.731z" fill="#7c3f2c"/><path d="m213.097 111.231c-3.592 4.072-8.924 6.169-14.328 5.639-15.748-1.547-31.448-3.779-47.052-6.7l-1.717-.322 90.93-103.079c7.987-9.054 22.115-9.021 30.059.071l12.525 14.335c2.569 2.94 2.559 7.33-.024 10.258z" fill="#c2eaf2"/><path d="m283.482 21.138 76.518 87.575c-53.048 10.698-107.658 13.393-161.342 8.145z" fill="#def4f8"/></g></svg>