<svg id="Capa_1" enable-background="new 0 0 512 512" height="512" viewBox="0 0 512 512" width="512" xmlns="http://www.w3.org/2000/svg"><g><g><path d="m456.969 407.139c27.744-39.712 44.031-88.02 44.031-140.139 0-135.31-109.69-245-245-245s-245 109.69-245 245c0 52.119 16.287 100.427 44.031 140.139z" fill="#7255ce"/></g><g><circle cx="256" cy="242" fill="#5c45bf" r="200"/></g><g><path d="m355.547 83.218c-12.65-41.159-45.137-83.218-80.681-83.218-12.234 0-18.866 12-18.866 12s-6.632-12-18.866-12c-35.545 0-68.033 42.062-80.682 83.222-3.586 10.526-5.547 21.804-5.589 33.534-.001.128-.005.259-.005.387v30.076h210.286v-30.076c-.001-11.871-1.971-23.282-5.597-33.925z" fill="#2d3c6b"/></g><g><path d="m208.916 147.218v-12.854c-19.658-17.231-40.8-96.13-.303-125.564-23.524 14.475-43.023 44.682-52.162 74.423-3.586 10.526-5.547 21.804-5.589 33.534-.001.128-.005.259-.005.387v30.076h58.059z" fill="#213159"/></g><g><path d="m456.949 407.139c-8.256-22.709-16.99-42.685-24.722-51.911-.904-1.078-1.795-2.019-2.668-2.79-6.623-5.848-19.39-11.382-34.352-16.323h-278.413c-14.961 4.941-27.729 10.475-34.352 16.323-.874.772-1.765 1.712-2.668 2.79-7.732 9.226-16.467 29.203-24.722 51.911-.001.009-.001.018-.002.026 16.034 22.945 35.907 43.002 58.672 59.273l142.278 18.094 142.279-18.094c22.764-16.271 42.637-36.328 58.671-59.273 0-.008 0-.017-.001-.026z" fill="#dae2fe"/></g><g><path d="m116.794 336.115c-14.961 4.941-27.729 10.475-34.352 16.323-.874.772-1.765 1.712-2.668 2.79-7.732 9.226-16.467 29.203-24.722 51.911-.001.009-.001.018-.002.026 16.034 22.945 35.907 43.002 58.672 59.273l96.407 12.26c-33.276-34.13-56.546-84.611-63.27-142.584h-30.065z" fill="#bec8f7"/></g><g><path d="m395.206 336.115c-37.929-12.525-89.967-21.232-91.82-21.54h-94.772c-1.853.307-53.892 9.014-91.82 21.54.004.013 27.153 89.732-3.116 130.304v.01.01c40.118 28.679 89.247 45.561 142.322 45.561s102.204-16.882 142.322-45.562c0-.003 0-.006 0-.01 0-.003 0-.007 0-.01-30.269-40.572-3.119-130.291-3.116-130.303z" fill="#ff4155"/></g><g><path d="m303.386 314.575h-94.772s-4.38 97.106 47.386 163.319c51.766-66.213 47.386-163.319 47.386-163.319z" fill="#dae2fe"/></g><g><path d="m256 477.894c2.647-3.385 5.139-6.855 7.5-10.384v-152.935h-15v152.934c2.361 3.53 4.853 6.999 7.5 10.385z" fill="#acbbef"/></g><g><path d="m91.07 426.843v21.327c7.157 6.519 14.704 12.617 22.599 18.262l-12.035-41.103c-1.75-5.98-10.564-4.716-10.564 1.514z" fill="#acbbef"/></g><g><path d="m420.93 426.843v21.327c-7.157 6.519-14.704 12.617-22.599 18.262l12.035-41.103c1.75-5.98 10.564-4.716 10.564 1.514z" fill="#bec8f7"/></g><g><path d="m208.614 221.239v93.336s19.021 33.261 47.17 33.261c.073 0 .143-.005.216-.005 28.031-.103 47.386-33.256 47.386-33.256v-93.336z" fill="#f3d6ac"/></g><g><path d="m208.614 220.734v93.841c94.723 0 94.772-53.4 94.772-53.4v-40.44h-94.772z" fill="#eabe8d"/></g><g><path d="m303.386 299.609-47.386 48.222s18.328 33.146 30.188 33.146c7.034 0 17.106-22.384 24.137-40.597 5.342-13.84 2.694-29.488-6.939-40.771z" fill="#e9efff"/></g><g><path d="m208.614 299.609 47.386 48.222s-18.328 33.146-30.188 33.146c-7.034 0-17.106-22.384-24.137-40.597-5.342-13.84-2.694-29.488 6.939-40.771z" fill="#e9efff"/></g><g><path d="m180.942 159.567s-10.385-25.285-28.897-19.415.448 60.664 36.573 64.116z" fill="#eabe8d"/></g><g><path d="m331.058 159.567s10.385-25.285 28.897-19.415-.448 60.664-36.573 64.116z" fill="#f3d6ac"/></g><g><path d="m255.784 82.484s-19.69 60.442-87.333 60.562c-.029 1.23-.049 2.464-.049 3.708 0 64.505 39.219 140.155 87.597 140.155s87.597-75.651 87.597-140.155c0-1.244-.02-2.478-.049-3.708-67.642-.12-87.763-60.562-87.763-60.562z" fill="#f8e6cc"/></g><g><path d="m208.403 146.754c0-4.214.187-8.339.513-12.39-11.036 5.219-24.395 8.653-40.465 8.682-.029 1.23-.049 2.464-.049 3.708 0 64.505 39.219 140.155 87.597 140.155 6.881 0 13.576-1.535 20-4.346-38.74-16.952-67.596-80.479-67.596-135.809z" fill="#f3d6ac"/></g><g><path d="m223.5 138.968h-20c-4.142 0-7.5-3.358-7.5-7.5 0-4.142 3.358-7.5 7.5-7.5h20c4.142 0 7.5 3.358 7.5 7.5 0 4.142-3.358 7.5-7.5 7.5z" fill="#162544"/></g><g><path d="m308.5 138.968h-20c-4.142 0-7.5-3.358-7.5-7.5 0-4.142 3.358-7.5 7.5-7.5h20c4.142 0 7.5 3.358 7.5 7.5 0 4.142-3.358 7.5-7.5 7.5z" fill="#162544"/></g><g><g><path d="m242.013 192.447 8.436-13.441c2.569-4.093 8.533-4.093 11.102 0l8.436 13.441c2.739 4.365-.398 10.038-5.551 10.038h-16.871c-5.154-.001-8.291-5.674-5.552-10.038z" fill="#eabe8d"/></g></g><g><g><path d="m235.384 240.87h41.233c4.111-3.622 7.258-8.309 9.01-13.631 1.584-4.811-2.069-9.754-7.134-9.754h-44.985c-5.065 0-8.718 4.943-7.134 9.754 1.752 5.322 4.899 10.009 9.01 13.631z" fill="#162544"/></g><g><path d="m276.616 240.87c-5.493 4.849-12.714 7.798-20.616 7.798s-15.124-2.948-20.616-7.798c5.5-4.849 12.714-7.798 20.616-7.798s15.116 2.949 20.616 7.798z" fill="#ff4155"/></g></g><g><path d="m311.557 158.853c-.863-3.387-3.137-6.41-6.566-8.116-5.584-2.778-12.505-.923-15.952 4.274-2.117 3.192-2.574 6.947-1.628 10.312 1.228 4.369 7.176 5.031 9.445 1.1 1.43-2.476 4.596-3.325 7.072-1.895 3.93 2.269 8.75-1.277 7.629-5.675z" fill="#162544"/></g><g><path d="m200.443 158.853c.863-3.387 3.137-6.41 6.566-8.116 5.584-2.778 12.505-.923 15.952 4.274 2.117 3.192 2.574 6.947 1.628 10.312-1.228 4.369-7.176 5.031-9.445 1.1-1.43-2.476-4.596-3.325-7.072-1.895-3.93 2.269-8.75-1.277-7.629-5.675z" fill="#162544"/></g><g><path d="m318.485 355.832-1.354 3.315c-1.785 4.372-1.785 9.27 0 13.642l1.354 3.315c2.747 6.726 1.192 14.442-3.945 19.579-7.046 7.046-18.47 7.046-25.516 0l-29.715-29.715 29.715-29.715c7.046-7.046 18.47-7.046 25.516 0 5.136 5.136 6.691 12.853 3.945 19.579z" fill="#ffc839"/></g><g><path d="m193.515 355.832 1.354 3.315c1.785 4.372 1.785 9.27 0 13.642l-1.354 3.315c-2.747 6.726-1.191 14.442 3.945 19.579 7.046 7.046 18.47 7.046 25.516 0l29.715-29.715-29.715-29.715c-7.046-7.046-18.47-7.046-25.516 0-5.136 5.136-6.691 12.853-3.945 19.579z" fill="#ffc839"/></g><g><path d="m222.977 336.252c-5.449-5.449-13.509-6.665-20.145-3.686 1.945.873 3.774 2.089 5.371 3.686 16.411 16.411 16.411 43.019 0 59.431-1.597 1.597-3.426 2.813-5.371 3.686 6.636 2.978 14.696 1.762 20.145-3.686l29.715-29.716z" fill="#ffb332"/></g><g><path d="m289.023 336.252c5.449-5.449 13.509-6.665 20.145-3.686-1.945.873-3.774 2.089-5.371 3.686-16.411 16.411-16.411 43.019 0 59.431 1.597 1.597 3.426 2.813 5.371 3.686-6.636 2.978-14.696 1.762-20.145-3.686l-29.715-29.716z" fill="#ffb332"/></g><g><path d="m264.653 345.573c-1.588-.01-3.079.403-4.365 1.134-2.657 1.509-5.918 1.509-8.575 0-1.287-.731-2.777-1.144-4.365-1.134-4.834.032-8.682 4.083-8.682 8.916v22.956c0 4.834 3.849 8.885 8.682 8.916 1.588.01 3.079-.403 4.365-1.134 2.657-1.509 5.918-1.509 8.575 0 1.287.731 2.777 1.144 4.365 1.134 4.834-.032 8.682-4.083 8.682-8.916v-22.955c0-4.834-3.848-8.885-8.682-8.917z" fill="#ffdd40"/></g><g><path d="m255.854 377.446v-22.956c0-4.353 3.122-8.07 7.273-8.789-1.017.172-1.975.516-2.839 1.007-2.657 1.509-5.918 1.509-8.576 0-1.287-.731-2.777-1.144-4.365-1.134-4.833.031-8.682 4.083-8.682 8.916v22.956c0 4.834 3.849 8.885 8.682 8.916 1.588.01 3.079-.403 4.365-1.134 2.657-1.509 5.918-1.509 8.576 0 .865.491 1.823.834 2.839 1.007-4.151-.719-7.273-4.436-7.273-8.789z" fill="#ffc839"/></g><g><path d="m145.992 327.734c-9.951 2.525-19.99 5.34-29.198 8.381.004.013 27.153 89.732-3.116 130.304v.01.01c40.118 28.679 89.247 45.561 142.322 45.561-59.037-27.924-102.525-98.553-110.008-184.266z" fill="#e80054"/></g></g></svg>