<svg id="Capa_1" enable-background="new 0 0 512 512" height="512" viewBox="0 0 512 512" width="512" xmlns="http://www.w3.org/2000/svg"><g><path d="m177.378 323.411-101.831 33.756c-26.077 8.644-43.68 33.025-43.68 60.497v94.336h192.266l10-188.589z" fill="#9cf"/><path d="m480.133 417.664c0-27.472-17.603-51.853-43.68-60.497l-101.83-33.756h-56.754l10 188.589h192.265v-94.336z" fill="#80aaff"/><path d="m351.6 414.274s11.926-53.87-16.978-90.863h-78.622v90.863z" fill="#ece6f2"/><path d="m160.4 414.274h95.6v-90.863h-78.622c-28.904 36.993-16.978 90.863-16.978 90.863z" fill="#fff5f5"/><path d="m256 512h31.868v-97.726l-41.868-10z" fill="#e50058"/><path d="m224.133 414.274v97.726h31.867v-107.726z" fill="#ff4a4a"/><path d="m246 374.274 10 40h31.868v-30z" fill="#c50048"/><path d="m256 374.274-31.867 10v30h31.867z" fill="#e50058"/><path d="m287.868 384.274v-60.863h-41.868l10 60.863z" fill="#e50058"/><path d="m224.133 323.411h31.867v60.863h-31.867z" fill="#ff4a4a"/><path d="m415.336 159.336c0-87.999-71.337-159.336-159.336-159.336l-10 172.876 169.336-10z" fill="#895140"/><path d="m256 0c-87.999 0-159.336 71.337-159.336 159.336v3.54l159.336 10z" fill="#b56d3c"/><path d="m138.579 226.611h-41.915c-17.6 0-31.868-14.268-31.868-31.868 0-17.6 14.268-31.868 31.868-31.868h31.867z" fill="#ffdecf"/><path d="m373.421 226.611h41.915c17.6 0 31.868-14.268 31.868-31.868 0-17.6-14.268-31.868-31.868-31.868h-31.867z" fill="#ffcdbe"/><path d="m325.989 126.198s-27.319 17.16-69.99 17.16l-10 63.779 10 143.403c70.399 0 127.469-57.07 127.469-127.469v-60.195c-29.431 0-57.479-36.678-57.479-36.678z" fill="#ffdecf"/><path d="m186.011 126.198s-28.048 36.678-57.479 36.678v60.195c0 70.399 57.07 127.469 127.469 127.469v-207.182c-42.671 0-69.99-17.16-69.99-17.16z" fill="#ffeee5"/><path d="m184.299 192.137h31.867v30h-31.867z" fill="#332866"/><path d="m295.834 192.137h31.867v30h-31.867z" fill="#180a33"/></g></svg>