<svg height="512pt" viewBox="0 0 512 512.00003" width="512pt" xmlns="http://www.w3.org/2000/svg"><path d="m511.988281 256.003906c0 141.382813-114.609375 255.996094-255.992187 255.996094-141.382813 0-255.996094-114.613281-255.996094-255.996094 0-141.382812 114.613281-255.9921872 255.996094-255.9921872 141.382812 0 255.992187 114.6093752 255.992187 255.9921872zm0 0" fill="#42b7a1"/><path d="m398.402344 468.761719c-12.339844 8.277343-25.4375 15.519531-39.179688 21.570312-10.648437 4.699219-21.679687 8.699219-33.027344 11.917969-9.179687 2.609375-18.558593 4.71875-28.128906 6.300781-6.140625 1.019531-12.351562 1.820313-18.640625 2.390625-7.71875.699219-15.53125 1.058594-23.429687 1.058594-8.058594 0-16.03125-.371094-23.898438-1.109375-6.28125-.582031-12.492187-1.378906-18.628906-2.410156-9.410156-1.570313-18.640625-3.648438-27.671875-6.21875-7.238281-2.0625-14.359375-4.441407-21.328125-7.121094-.429688-.160156-.859375-.320313-1.289062-.492187-3.511719-1.359376-6.980469-2.808594-10.410157-4.316407-13.742187-6.0625-26.839843-13.292969-39.191406-21.582031 10.390625-14.367188 23.761719-26.429688 39.191406-35.320312 10.199219-5.867188 21.296875-10.339844 33.027344-13.148438 1.808594-.4375 3.640625-.839844 5.480469-1.1875 2.378906-.472656 4.78125-.863281 7.210937-1.171875 1.109375-.148437 2.238281-.28125 3.359375-.398437 1.03125-.113282 2.050782-.210938 3.089844-.292969 3.378906-.277344 6.800781-.417969 10.257812-.417969h81.589844c4.519532 0 8.96875.238281 13.351563.699219.976562.101562 1.957031.21875 2.929687.351562 2.570313.320313 5.117188.730469 7.636719 1.207031 1.390625.273438 2.773437.5625 4.140625.871094.449219.121094.910156.210938 1.351562.332032 11.738282 2.816406 22.828126 7.289062 33.027344 13.15625 15.429688 8.902343 28.789063 20.960937 39.179688 35.332031zm0 0" fill="#2f373b"/><path d="m115.199219 382.296875c0-3.429687.839843-10.132813.839843-10.132813h279.914063s.839844 6.703126.839844 10.132813c0 51.238281-63.039063 92.78125-140.796875 92.78125-77.757813 0-140.796875-41.542969-140.796875-92.78125zm0 0" fill="#181e21"/><path d="m340.753906 417.863281c.015625 20.886719-29.839844 57.40625-42.6875 90.6875-6.140625 1.019531-12.351562 1.820313-18.640625 2.390625-7.71875.699219-15.53125 1.058594-23.429687 1.058594-8.058594 0-16.03125-.371094-23.898438-1.109375-6.28125-.582031-12.492187-1.378906-18.628906-2.410156-12.8125-33.230469-42.671875-69.679688-42.671875-90.558594 0-10.710937 28.261719-17.320313 28.261719-17.320313h113.425781s28.257813 6.589844 28.269531 17.261719zm0 0" fill="#181e21"/><path d="m279.425781 510.941406c-7.71875.699219-15.53125 1.058594-23.429687 1.058594-8.058594 0-16.03125-.371094-23.898438-1.109375-26.128906-35.441406-20.800781-87.480469-20.800781-87.480469h88.957031s5.351563 52.089844-20.828125 87.53125zm0 0" fill="#f1eee9"/><path d="m215.199219 416.8125c-29.359375 0-49.257813 42.429688-50.726563 78.328125-.429687-.160156-.859375-.320313-1.289062-.492187-3.511719-1.359376-6.980469-2.808594-10.410156-4.316407-13.742188-6.0625-26.839844-13.292969-39.191407-21.582031 10.390625-14.367188 23.761719-26.429688 39.191407-35.320312 10.199218-5.867188 21.296874-10.339844 33.027343-13.148438 1.8125-.4375 3.640625-.839844 5.480469-1.1875 3.46875-.683594 7-1.203125 10.570312-1.570312 1.03125-.113282 2.050782-.210938 3.089844-.292969 3.378906-.277344 6.800782-.417969 10.257813-.417969zm0 0" fill="#181e21"/><path d="m300.707031 368.539062v54.871094c0 20.085938-13.246093 37.066406-31.492187 42.703125-4.175782 1.296875-8.625 2-13.226563 2-24.691406 0-44.703125-20.011719-44.703125-44.703125v-54.867187h89.421875zm0 0" fill="#efb29a"/><path d="m300.707031 419.933594v3.476562c0 20.085938-13.246093 37.066406-31.492187 42.703125-16.457032-5.058593-28.835938-19.371093-31.121094-36.882812 2.988281.183593 5.992188.273437 9.007812.273437 8.460938 0 16.75-.667968 24.828126-1.996094 9.953124-1.597656 19.570312-4.160156 28.777343-7.574218zm0 0" fill="#f9c5ac"/><path d="m132.542969 278.15625c0 20.496094-14.972657 37.492188-34.578125 40.648438-2.144532.34375-4.347656.527343-6.597656.527343-22.746094 0-41.171876-18.429687-41.171876-41.175781s18.425782-41.175781 41.171876-41.175781c2.25 0 4.453124.183593 6.597656.53125 19.605468 3.15625 34.578125 20.148437 34.578125 40.644531zm0 0" fill="#f9c5ac"/><path d="m132.542969 278.15625c0 20.496094-14.972657 37.492188-34.578125 40.648438-3.5625-12.953126-5.464844-26.582032-5.464844-40.648438s1.902344-27.695312 5.464844-40.644531c19.605468 3.15625 34.578125 20.148437 34.578125 40.644531zm0 0" fill="#efb29a"/><path d="m106.085938 278.15625c0 8.128906-6.589844 14.71875-14.714844 14.71875-8.128906 0-14.71875-6.589844-14.71875-14.71875 0-8.125 6.589844-14.714844 14.71875-14.714844 8.125 0 14.714844 6.589844 14.714844 14.714844zm0 0" fill="#efb29a"/><path d="m379.449219 278.15625c0 20.496094 14.972656 37.492188 34.578125 40.648438 2.140625.34375 4.34375.527343 6.59375.527343 22.746094 0 41.175781-18.429687 41.175781-41.175781s-18.429687-41.175781-41.175781-41.175781c-2.25 0-4.453125.183593-6.59375.53125-19.609375 3.15625-34.578125 20.148437-34.578125 40.644531zm0 0" fill="#f9c5ac"/><path d="m379.449219 278.15625c0 20.496094 14.972656 37.492188 34.578125 40.648438 3.558594-12.953126 5.460937-26.582032 5.460937-40.648438s-1.902343-27.695312-5.460937-40.644531c-19.609375 3.15625-34.578125 20.148437-34.578125 40.644531zm0 0" fill="#efb29a"/><path d="m435.335938 278.15625c0 8.128906-6.585938 14.71875-14.714844 14.71875s-14.714844-6.589844-14.714844-14.71875c0-8.125 6.585938-14.714844 14.714844-14.714844s14.714844 6.589844 14.714844 14.714844zm0 0" fill="#efb29a"/><path d="m410.691406 256.515625c0 76.984375-56.238281 140.84375-129.867187 152.703125-8.078125 1.324219-16.371094 1.996094-24.828125 1.996094-85.445313 0-154.699219-69.253906-154.699219-154.699219v-157.496094h309.398437v157.496094zm0 0" fill="#f9c5ac"/><path d="m283.246094 408.8125c-.800782.140625-1.609375.28125-2.421875.410156-8.078125 1.320313-16.367188 1.988282-24.828125 1.988282-74.648438 0-136.957032-52.867188-151.496094-123.214844-2.101562-10.160156-3.199219-20.691406-3.199219-31.480469v-157.496094h54.546875v157.496094c0 76.136719 54.980469 139.40625 127.398438 152.296875zm0 0" fill="#efb29a"/><path d="m255.996094 337.933594c-12.953125 0-25.910156-3.246094-37.714844-9.738282-3.332031-1.828124-4.546875-6.011718-2.714844-9.34375 1.828125-3.332031 6.015625-4.546874 9.34375-2.714843 19.464844 10.699219 42.707032 10.699219 62.167969 0 3.332031-1.832031 7.515625-.617188 9.347656 2.714843 1.832031 3.332032.617188 7.515626-2.714843 9.34375-11.808594 6.492188-24.761719 9.738282-37.714844 9.738282zm0 0" fill="#dd9f8a"/><path d="m273.542969 291.699219h-35.097657c-4.179687 0-7.570312-3.390625-7.570312-7.570313 0-4.179687 3.390625-7.570312 7.570312-7.570312h35.097657c4.179687 0 7.570312 3.390625 7.570312 7.570312 0 4.179688-3.390625 7.570313-7.570312 7.570313zm0 0" fill="#efb29a"/><path d="m281.339844 249.167969c0 17.164062 13.914062 31.078125 31.078125 31.078125 17.164062 0 31.082031-13.914063 31.082031-31.078125" fill="#efb29a"/><path d="m334.707031 249.167969c0 12.308593-9.980469 22.285156-22.289062 22.285156-12.308594 0-22.285157-9.976563-22.285157-22.285156 0-12.308594 9.976563-22.289063 22.285157-22.289063 12.308593 0 22.289062 9.980469 22.289062 22.289063zm0 0" fill="#2f373b"/><path d="m331.257812 245.234375c0 5.273437-4.277343 9.546875-9.550781 9.546875-5.273437 0-9.550781-4.273438-9.550781-9.546875s4.277344-9.550781 9.550781-9.550781c5.273438 0 9.550781 4.277344 9.550781 9.550781zm0 0" fill="#fff"/><path d="m168.492188 249.167969c0 17.164062 13.914062 31.078125 31.078124 31.078125 17.164063 0 31.082032-13.914063 31.082032-31.078125" fill="#efb29a"/><path d="m221.859375 249.167969c0 12.308593-9.980469 22.285156-22.289063 22.285156-12.308593 0-22.285156-9.976563-22.285156-22.285156 0-12.308594 9.976563-22.289063 22.285156-22.289063 12.308594 0 22.289063 9.980469 22.289063 22.289063zm0 0" fill="#2f373b"/><path d="m204.78125 270.835938c-1.667969.410156-3.417969.621093-5.207031.621093-12.3125 0-22.289063-9.980469-22.289063-22.289062 0-12.3125 9.976563-22.292969 22.289063-22.292969 1.789062 0 3.539062.210938 5.207031.621094-9.796875 2.339844-17.066406 11.160156-17.066406 21.671875 0 10.507812 7.269531 19.328125 17.066406 21.667969zm0 0" fill="#181e21"/><path d="m317.632812 270.835938c-1.671874.410156-3.421874.621093-5.210937.621093-12.308594 0-22.289063-9.980469-22.289063-22.289062 0-12.3125 9.980469-22.292969 22.289063-22.292969 1.789063 0 3.539063.210938 5.210937.621094-9.800781 2.339844-17.070312 11.160156-17.070312 21.671875 0 10.507812 7.269531 19.328125 17.070312 21.667969zm0 0" fill="#181e21"/><path d="m218.410156 245.234375c0 5.273437-4.277344 9.546875-9.550781 9.546875s-9.550781-4.273438-9.550781-9.546875 4.277344-9.550781 9.550781-9.550781 9.550781 4.277344 9.550781 9.550781zm0 0" fill="#fff"/><path d="m377.453125 147.257812-13.675781 140.738282h43.714844c2.101562-10.160156 3.203124-20.691406 3.203124-31.480469v-109.257813zm0 0" fill="#2f373b"/><path d="m429.039062 101.84375c-.460937 55.386719-45.5 100.140625-100.984374 100.140625-17.441407 0-33.847657-4.417969-48.164063-12.199219-34.894531-18.96875-74.25-28.199218-113.964844-28.199218h-.589843c0 15.039062-10.367188 27.648437-24.335938 31.082031-.660156.167969-1.332031.308593-2 .429687l9.21875 94.898438h-43.71875c-2.101562-10.160156-3.199219-20.691406-3.199219-31.480469v-165.289063c0-32.390624 26.253907-58.648437 58.648438-58.648437h93.816406c13.238281-14.359375 30.578125-24.878906 50.167969-29.679687.050781-.007813.089844-.027344.140625-.027344 1.351562-.332032 2.710937-.632813 4.082031-.902344 8.289062-1.660156 16.960938-2.3125 25.84375-1.796875 53.453125 3.097656 95.484375 48.128906 95.039062 101.671875zm0 0" fill="#2f373b"/><path d="m381.484375 392.894531c0 5.128907-4.15625 9.285157-9.285156 9.285157-5.125 0-9.285157-4.15625-9.285157-9.285157 0-5.128906 4.160157-9.285156 9.285157-9.285156 5.128906 0 9.285156 4.15625 9.285156 9.285156zm0 0" fill="#fff"/><path d="m149.074219 392.894531c0 5.128907-4.15625 9.285157-9.285157 9.285157-5.128906 0-9.285156-4.15625-9.285156-9.285157 0-5.128906 4.15625-9.285156 9.285156-9.285156 5.128907 0 9.285157 4.15625 9.285157 9.285156zm0 0" fill="#fff"/><path d="m369.421875 116.308594c-29.316406 65.476562-172.195313-25.21875-216.992187 19.578125-17.179688 17.179687-17.53125 37.839843-11.429688 56.78125-.660156.167969-1.332031.308593-2 .429687l9.21875 94.898438h-43.71875c-2.101562-10.160156-3.199219-20.691406-3.199219-31.480469v-165.289063c0-32.386718 26.257813-58.648437 58.648438-58.648437h93.816406c13.238281-14.359375 30.578125-24.878906 50.167969-29.679687.050781-.007813.089844-.027344.140625-.027344 1.351562-.382813 2.710937-.679688 4.082031-.902344 41.21875-6.808594 89.617188 51.019531 61.265625 114.339844zm0 0" fill="#181e21"/></svg>