<svg id="Capa_1" enable-background="new 0 0 512 512" height="512" viewBox="0 0 512 512" width="512" xmlns="http://www.w3.org/2000/svg"><g><path d="m0 256c0-141.385 114.615-256 256-256s256 114.615 256 256c0 80.844-37.474 152.936-96 199.852-2.029 1.627-102.263-46.57-160-46.57s-157.971 48.197-160 46.57c-58.526-46.916-96-119.008-96-199.852z" fill="#fb5858"/><path d="m449.298 256c0 106.755-86.543 193.298-193.298 193.298s-193.298-86.543-193.298-193.298 86.543-193.298 193.298-193.298 193.298 86.543 193.298 193.298z" fill="#fc7979"/><path d="m382 148.78v145c0 8.284-6.716 15-15 15h-222c-8.284 0-15-6.716-15-15v-145c0-60.751 49.249-110 110-110h32c60.751 0 110 49.249 110 110z" fill="#ffcd71"/><path d="m191 308.78h-46c-8.284 0-15-6.716-15-15v-145c0-60.751 49.249-110 110-110h32c2.351 0 4.685.074 7 .219-57.49 3.61-103 51.381-103 109.781v145c0 8.284 6.716 15 15 15z" fill="#ffc14f"/><path d="m160.112 349.008c-12.83 12.688-20.779 30.302-20.779 49.772v70.488c0 6.706-7.294 10.872-13.072 7.469-10.6-6.244-20.711-13.229-30.262-20.885v-57.072c0-35.494 26.417-64.818 60.663-69.383 1.826-.243 3.449 1.189 3.449 3.031v16.58z" fill="#c2eaf2"/><path d="m355.678 329.444c34.08 4.713 60.322 33.96 60.322 69.336v57.071c-18.23 14.614-38.503 26.785-60.322 36.017-2.601 1.1-2.171-3.982-4.815-2.966-28.5 10.953-62.506 12.225-94.863 12.225-32.496 0-60.526-1.324-89.128-12.367-2.519-.973-8.071 4.157-10.551 3.108-10.482-4.435-20.608-9.549-30.322-15.286v-77.802c0-27.058 15.352-50.53 37.82-62.181 9.634-4.996 17.663 4.699 29.265 4.699l152.916 3.745c3.284 0 6.515-16.036 9.678-15.599z" fill="#def4f8"/><path d="m156.322 329.444c3.164-.438 6.395-.664 9.678-.664h25l7.021 5.879h113.021l9.958-5.879h25c3.284 0 6.515.227 9.678.664v153.13c-30.636 12.963-64.32 20.132-99.678 20.132-35.359 0-69.042-7.169-99.678-20.132z" fill="#60c8dd"/><path d="m191 402.528v-60.507c0-5.57 4.515-10.085 10.085-10.085h109.83c5.57 0 10.085 4.515 10.085 10.085v60.507c0 20.76-7.019 51.449-20.06 68.279l-24.115 31.121c-6.869.515-13.814.778-20.825.778s-13.957-.263-20.825-.778l-24.115-31.121c-13.041-16.83-20.06-47.519-20.06-68.279z" fill="#4172cc"/><path d="m355.678 396.513v84.774c0 1.985-1.19 3.789-3.028 4.539-1.767.721-3.544 1.422-5.33 2.104-3.204 1.224-6.642-1.166-6.642-4.596v-86.506c0-4.106 3.165-7.688 7.269-7.811 4.248-.128 7.731 3.277 7.731 7.496zm-191.626-7.496c-4.248-.127-7.731 3.278-7.731 7.497v84.774c0 1.985 1.19 3.789 3.028 4.539 1.767.721 3.544 1.422 5.33 2.104 3.204 1.224 6.642-1.166 6.642-4.596v-86.506c.001-4.108-3.164-7.689-7.269-7.812z" fill="#2cb3cd"/><path d="m329.861 425.867c-.479 2.72-3.073 4.536-5.792 4.056l-68.069-12.002-68.068 12.002c-2.719.479-5.313-1.336-5.792-4.056-.479-2.719 1.336-5.313 4.056-5.792l41.011-7.231-41.011-7.231c-2.719-.479-4.535-3.073-4.056-5.792.479-2.72 3.073-4.536 5.792-4.056l68.068 12.002 68.068-12.002c2.719-.479 5.313 1.336 5.792 4.056.479 2.719-1.336 5.313-4.056 5.792l-41.011 7.231 41.011 7.231c2.72.48 4.536 3.073 4.057 5.792zm-10.973 34.208-34.094-6.012 33.357-5.882c2.719-.479 4.535-3.073 4.056-5.792-.479-2.72-3.073-4.536-5.792-4.056l-60.415 10.653-61.151-10.783c-2.719-.479-5.313 1.336-5.792 4.056-.48 2.72 1.336 5.313 4.056 5.792l34.094 6.012-33.356 5.882c-2.719.479-4.535 3.073-4.056 5.792.479 2.72 3.073 4.535 5.792 4.056l60.413-10.652 61.151 10.783c2.719.479 5.313-1.336 5.792-4.056.48-2.72-1.336-5.313-4.055-5.793z" fill="#a6e0ec"/><path d="m170.787 480h170.426c.552 0 1 .448 1 1v15.409c0 .426-.268.807-.669.949-26.75 9.481-55.545 14.642-85.544 14.642s-58.794-5.161-85.544-14.642c-.401-.142-.669-.523-.669-.949v-15.409c0-.552.448-1 1-1z" fill="#274c91"/><path d="m171.322 480v17.663c-5.075-1.778-10.077-3.711-15-5.794v-11.869zm169.356 0v17.663c5.075-1.778 10.077-3.711 15-5.794v-11.869z" fill="#203e76"/><path d="m146 238.78c-13.807 0-25-11.193-25-25v-10c0-13.807 11.193-25 25-25 13.807 0 25 11.193 25 25v10c0 13.808-11.193 25-25 25z" fill="#ffcdbe"/><path d="m136 198.78v20c0 8.178 3.927 15.439 9.998 20-13.806-.001-24.998-11.193-24.998-25v-10c0-13.806 11.192-24.999 24.998-25-6.071 4.562-9.998 11.822-9.998 20zm230-20v-20c0-60.751-49.249-110-110-110-60.751 0-110 49.249-110 110v40c0 50.351 33.83 92.801 80 105.859v24.141h-35v14.613c0 25.74 20.866 46.606 46.606 46.606h36.787c25.74 0 46.606-20.866 46.606-46.606v-14.613h-35v-24.14c33.586-9.5 60.641-34.551 72.895-66.883 2.252.667 4.637 1.024 7.105 1.024 13.807 0 25-11.193 25-25v-10c.001-13.807-11.192-25-24.999-25.001z" fill="#ffbeaa"/><path d="m366 158.78v40c0 50.792-34.425 93.543-81.216 106.195-9.023 2.44-18.545 2.44-27.568 0-46.791-12.651-81.216-55.402-81.216-106.195v-40c0-55.663 41.345-101.669 95-108.985 53.655 7.316 95 53.322 95 108.985z" fill="#ffcdbe"/><path d="m223.5 166.28c0 8.284-6.716 15-15 15s-15-6.716-15-15 6.716-15 15-15 15 6.716 15 15zm80-15c-8.284 0-15 6.716-15 15s6.716 15 15 15 15-6.716 15-15-6.716-15-15-15z" fill="#61362b"/><path d="m226 158.78c0 4.142-3.358 7.5-7.5 7.5s-7.5-3.358-7.5-7.5 3.358-7.5 7.5-7.5 7.5 3.358 7.5 7.5zm87.5-7.5c-4.142 0-7.5 3.358-7.5 7.5s3.358 7.5 7.5 7.5 7.5-3.358 7.5-7.5-3.358-7.5-7.5-7.5z" fill="#fff5f5"/><path d="m148.688 78.466c-1.476 0-2.549-1.429-2.109-2.839 4.148-13.295 10.097-26.04 17.632-38.071 3.36-5.365 10.338-8.776 17.997-8.776h147.586c7.659 0 14.637 3.412 17.997 8.776 7.518 12.004 13.456 24.719 17.604 37.981.455 1.454-.652 2.929-2.175 2.929z" fill="#c2eaf2"/><path d="m206.083 37.557c-8.07 12.885-14.32 26.589-18.488 40.91h-38.907c-1.476 0-2.549-1.429-2.109-2.839 4.149-13.294 10.097-26.04 17.632-38.071 3.36-5.365 10.338-8.776 17.997-8.776h41.872c-7.659-.001-14.638 3.411-17.997 8.776z" fill="#a6e0ec"/><path d="m365.286 75.265c3.416 10.835 5.636 22.037 6.544 33.516h-231.66c.908-11.479 3.128-22.68 6.544-33.516z" fill="#6990d7"/><path d="m188.586 75.265c-3.416 10.835-5.636 22.037-6.544 33.516h-41.872c.908-11.479 3.128-22.68 6.544-33.516z" fill="#4172cc"/><path d="m180.681 128.864h-69.681c-13.807 0-25-11.193-25-25 0-2.761 2.239-5 5-5h109.681c2.761 0 5 2.239 5 5 0 13.807-11.193 25-25 25z" fill="#def4f8"/><path d="m401 128.864h-225c-13.807 0-25-11.193-25-25 0-2.761 2.239-5 5-5h265c2.761 0 5 2.239 5 5 0 13.807-11.193 25-25 25z" fill="#fff5f5"/><path d="m241.5 205.512c-2.929-2.93-2.929-7.678 0-10.607 2.929-2.928 7.678-2.928 10.606 0 1.042 1.042 2.424 1.616 3.893 1.616s2.851-.574 3.893-1.616c2.929-2.928 7.678-2.928 10.606 0 2.929 2.93 2.929 7.678 0 10.607-3.875 3.875-9.024 6.009-14.5 6.009s-10.623-2.134-14.498-6.009zm44.803 27.601c-2.929-2.928-7.678-2.928-10.606 0-10.861 10.861-28.532 10.861-39.394 0-2.929-2.928-7.678-2.928-10.606 0-2.929 2.93-2.929 7.678 0 10.607 8.354 8.354 19.329 12.531 30.303 12.531s21.949-4.177 30.303-12.531c2.929-2.93 2.929-7.678 0-10.607z" fill="#e09380"/></g></svg>