<svg id="Capa_1" enable-background="new 0 0 512 512" height="512" viewBox="0 0 512 512" width="512" xmlns="http://www.w3.org/2000/svg"><g><path d="m431.27 159.336c0-14.741-5.52-28.301-14.762-39.098 2.066-13.552-.613-27.804-8.72-40.57s-20.346-22.001-34.288-27.15c-5.664-12.675-15.823-23.801-29.865-31.171s-29.72-9.805-44.627-7.927c-11.877-8.402-26.793-13.42-43.008-13.42l-10 177.141 185.27-10z" fill="#cfcfe6"/><path d="m212.992 13.42c-14.906-1.878-30.585.557-44.627 7.927s-24.201 18.496-29.865 31.171c-13.942 5.149-26.181 14.384-34.288 27.15s-10.786 27.018-8.72 40.57c-9.242 10.797-14.762 24.357-14.762 39.098v7.805l175.27 10v-177.141c-16.215 0-31.131 5.018-43.008 13.42z" fill="#ece6f2"/><path d="m508.495 512-21.039-104.113c-4.529-22.411-20.715-40.679-42.417-47.873l-80.417-26.657s-112.515 70.605-93.622 178.644h237.495z" fill="#332866"/><path d="m3.505 512 21.039-104.113c4.529-22.411 20.715-40.679 42.417-47.873l80.417-26.657s112.515 70.605 93.622 178.644h-237.495z" fill="#574d8c"/><path d="m334.622 323.411h-88.622l10 188.589h15c0-18.64 16.106-41.548 46.579-66.25 29.896-24.236 47.043-60.208 47.043-98.694v-13.7z" fill="#180a33"/><path d="m177.378 323.411-30 9.945v13.7c0 38.486 17.146 74.458 47.044 98.694 30.472 24.702 46.578 47.61 46.578 66.25h15v-188.589z" fill="#332866"/><path d="m298.688 422.445c22.837-18.513 35.935-45.991 35.935-75.39v-23.644h-88.622l10 144.029c9.632-14.715 23.875-29.746 42.687-44.995z" fill="#ece6f2"/><path d="m177.378 323.411v23.644c0 29.398 13.098 56.877 35.936 75.39 18.811 15.249 33.054 30.28 42.687 44.995v-144.029z" fill="#fff5f5"/><path d="m138.579 226.611h-41.915c-17.6 0-31.868-14.268-31.868-31.868 0-17.6 14.268-31.868 31.868-31.868h31.867z" fill="#ffdecf"/><path d="m383.469 162.876h31.867c17.6 0 31.868 14.268 31.868 31.868 0 17.6-14.268 31.868-31.868 31.868h-41.915z" fill="#ffcdbe"/><path d="m256 120.386-10 86.75 10 143.403c70.399 0 127.469-57.07 127.469-127.469v-60.195c0 .001-71.701.001-127.469-42.489z" fill="#ffdecf"/><path d="m128.531 162.876v60.195c0 70.399 57.07 127.469 127.469 127.469v-230.154c-55.768 42.49-127.469 42.49-127.469 42.49z" fill="#ffeee5"/><path d="m184.299 192.137h31.867v30h-31.867z" fill="#332866"/><path d="m295.834 192.137h31.867v30h-31.867z" fill="#180a33"/></g></svg>