<svg height="512pt" viewBox="0 0 512 512" width="512pt" xmlns="http://www.w3.org/2000/svg"><path d="m512 256c0 141.386719-114.613281 256-256 256s-256-114.613281-256-256 114.613281-256 256-256 256 114.613281 256 256zm0 0" fill="#ff931f"/><path d="m398.410156 468.761719c-12.339844 8.277343-25.441406 15.519531-39.179687 21.566406-10.652344 4.703125-21.679688 8.703125-33.03125 11.921875-22.300781 6.351562-45.847657 9.75-70.199219 9.75-24.339844 0-47.890625-3.398438-70.199219-9.738281-7.242187-2.0625-14.359375-4.441407-21.332031-7.121094-.429688-.160156-.859375-.320313-1.289062-.492187-3.507813-1.359376-6.980469-2.808594-10.410157-4.320313-13.738281-6.058594-26.839843-13.289063-39.191406-21.578125 10.390625-14.371094 23.761719-26.429688 39.191406-35.320312 10.199219-5.871094 21.300781-10.339844 33.03125-13.148438 1.808594-.441406 3.640625-.839844 5.480469-1.191406 3.46875-.679688 7-1.199219 10.570312-1.570313 1.027344-.109375 2.046876-.210937 3.089844-.289062 3.378906-.28125 6.796875-.421875 10.257813-.421875h81.589843c4.519532 0 8.972657.242187 13.351563.703125 3.570313.367187 7.089844.898437 10.570313 1.558593 1.390624.269532 2.769531.558594 4.140624.871094.449219.117188.910157.207032 1.347657.328125 11.742187 2.820313 22.832031 7.289063 33.03125 13.160157 15.429687 8.898437 28.789062 20.960937 39.179687 35.332031zm0 0" fill="#2f373b"/><path d="m215.199219 416.808594c-29.359375 0-49.257813 42.429687-50.730469 78.332031-.429688-.160156-.859375-.320313-1.289062-.492187-3.507813-1.359376-6.980469-2.808594-10.410157-4.320313-13.738281-6.058594-26.839843-13.289063-39.191406-21.578125 10.390625-14.371094 23.761719-26.429688 39.191406-35.320312 10.199219-5.871094 21.300781-10.339844 33.03125-13.148438 1.808594-.441406 3.640625-.839844 5.480469-1.191406 3.46875-.679688 7-1.199219 10.570312-1.570313 1.027344-.109375 2.046876-.210937 3.089844-.289062 3.378906-.28125 6.796875-.421875 10.257813-.421875zm0 0" fill="#181e21"/><path d="m314.449219 342.929688v71.734374c0 26.265626-17.316407 48.464844-41.167969 55.835938-5.460938 1.695312-11.277344 2.609375-17.296875 2.609375-32.28125 0-58.445313-26.164063-58.445313-58.445313v-71.734374zm0 0" fill="#181e21"/><path d="m314.449219 410.121094v4.542968c0 26.265626-17.316407 48.464844-41.167969 55.835938-21.519531-6.617188-37.703125-25.328125-40.691406-48.222656 3.90625.238281 7.832031.359375 11.777344.359375 11.058593 0 21.898437-.875 32.460937-2.609375 13.011719-2.09375 25.585937-5.441406 37.621094-9.90625zm0 0" fill="#2f373b"/><path d="m132.539062 278.152344c0 20.496094-14.972656 37.492187-34.578124 40.648437-2.144532.34375-4.347657.527344-6.597657.527344-22.746093 0-41.171875-18.429687-41.171875-41.175781s18.425782-41.175782 41.171875-41.175782c2.25 0 4.453125.179688 6.597657.527344 19.605468 3.15625 34.578124 20.152344 34.578124 40.648438zm0 0" fill="#f9c5ac"/><path d="m132.539062 278.152344c0 20.496094-14.972656 37.492187-34.578124 40.648437-3.5625-12.953125-5.464844-26.582031-5.464844-40.648437s1.902344-27.695313 5.464844-40.644532c19.605468 3.152344 34.578124 20.148438 34.578124 40.644532zm0 0" fill="#efb29a"/><path d="m106.082031 278.152344c0 8.128906-6.589843 14.714844-14.71875 14.714844-8.125 0-14.714843-6.585938-14.714843-14.714844 0-8.125 6.589843-14.714844 14.714843-14.714844 8.128907 0 14.71875 6.589844 14.71875 14.714844zm0 0" fill="#efb29a"/><path d="m379.449219 278.152344c0 20.496094 14.972656 37.492187 34.578125 40.648437 2.144531.34375 4.347656.527344 6.597656.527344 22.746094 0 41.175781-18.429687 41.175781-41.175781s-18.429687-41.175782-41.175781-41.175782c-2.25 0-4.453125.179688-6.597656.527344-19.605469 3.15625-34.578125 20.152344-34.578125 40.648438zm0 0" fill="#f9c5ac"/><path d="m379.449219 278.152344c0 20.496094 14.972656 37.492187 34.578125 40.648437 3.5625-12.953125 5.464844-26.582031 5.464844-40.648437s-1.902344-27.695313-5.464844-40.644532c-19.605469 3.152344-34.578125 20.148438-34.578125 40.644532zm0 0" fill="#efb29a"/><path d="m435.339844 278.152344c0 8.128906-6.589844 14.714844-14.714844 14.714844-8.128906 0-14.71875-6.585938-14.71875-14.714844 0-8.125 6.589844-14.714844 14.71875-14.714844 8.125 0 14.714844 6.589844 14.714844 14.714844zm0 0" fill="#efb29a"/><path d="m410.695312 256.511719c0 76.984375-56.242187 140.847656-129.871093 152.703125-8.078125 1.328125-16.371094 2-24.828125 2-85.445313 0-154.703125-69.257813-154.703125-154.703125v-157.5h309.402343zm0 0" fill="#f9c5ac"/><path d="m283.242188 408.808594c-.800782.140625-1.609376.28125-2.417969.410156-8.082031 1.320312-16.371094 1.992188-24.832031 1.992188-85.4375 0-154.699219-69.25-154.699219-154.699219v-157.5h54.550781v157.5c0 76.136719 54.980469 139.410156 127.398438 152.296875zm0 0" fill="#efb29a"/><path d="m255.996094 344.902344c-12.957032 0-25.910156-3.246094-37.71875-9.738282-3.328125-1.828124-4.542969-6.015624-2.714844-9.34375 1.832031-3.332031 6.015625-4.546874 9.347656-2.714843 19.464844 10.699219 42.707032 10.699219 62.167969 0 3.332031-1.832031 7.515625-.617188 9.347656 2.714843 1.832031 3.328126.617188 7.515626-2.714843 9.34375-11.808594 6.492188-24.761719 9.738282-37.714844 9.738282zm0 0" fill="#dd9f8a"/><path d="m273.542969 291.695312h-35.097657c-4.179687 0-7.570312-3.390624-7.570312-7.570312 0-4.183594 3.390625-7.570312 7.570312-7.570312h35.097657c4.183593 0 7.570312 3.386718 7.570312 7.570312 0 4.179688-3.386719 7.570312-7.570312 7.570312zm0 0" fill="#efb29a"/><path d="m255.335938 225.492188c-4.59375 0-9.699219.597656-11.261719 11.390624-1.105469 6.890626-3.261719 13.472657-5.34375 19.019532-7.785157 20.75-14.355469 31.425781-23.433594 38.082031-10.867187 7.96875-29.34375 7.957031-40.40625 7.957031-11.058594 0-29.535156.011719-40.402344-7.957031-9.078125-6.65625-15.648437-17.335937-23.433593-38.082031-4.273438-11.167969-12.527344-33.925782-14.007813-48.921875-.222656-2.265625-.339844-5.683594-.398437-8.898438-.085938-4.695312 3.699218-8.546875 8.398437-8.546875h68.671875c48.222656 0 71.125 8.074219 81.617188 8.074219 10.492187 0 33.394531-8.074219 81.617187-8.074219h68.675781c4.695313 0 8.484375 3.851563 8.398438 8.546875-.058594 3.214844-.175782 6.632813-.398438 8.898438-1.484375 14.996093-9.738281 37.757812-14.011718 48.921875-7.785157 20.746094-14.355469 31.425781-23.433594 38.082031-10.867188 7.96875-29.34375 7.957031-40.402344 7.957031s-29.539062.011719-40.40625-7.957031c-9.074219-6.65625-15.644531-17.332031-23.433594-38.082031-2.078125-5.546875-4.234375-12.128906-5.34375-19.019532-1.558594-10.792968-6.664062-11.390624-11.261718-11.390624zm0 0" fill="#2f373b"/><path d="m125.003906 250.675781c14.285156 38.066407 22.542969 36.378907 49.882813 36.378907 3.574219 0 6.8125.027343 9.78125 0-26.210938-29.882813-34.660157-60.382813-36.929688-81.839844-22.761719 2.277344-35.621093 11.113281-22.734375 45.460937zm0 0" fill="#181e21"/><path d="m285.894531 250.675781c14.289063 38.066407 22.546875 36.378907 49.882813 36.378907 4.054687 0 7.695312.039062 10.992187-.027344-26.253906-29.9375-34.675781-60.464844-36.929687-81.925782-23.503906 2.089844-37.066406 10.621094-23.945313 45.574219zm0 0" fill="#181e21"/><path d="m462.773438 98.453125c7.566406-5.734375 7.550781-15.398437-.015626-21.136719-53.820312-40.820312-126.617187-65.878906-206.761718-65.878906-80.148438 0-152.941406 25.058594-206.765625 65.878906-7.5625 5.738282-7.578125 15.402344-.011719 21.136719 4.847656 3.675781 9.847656 7.222656 14.996094 10.632813 20.554687 13.625 32.25 33.949218 32.25 55.261718h319.0625c0-21.3125 11.695312-41.636718 32.25-55.261718 5.144531-3.414063 10.148437-6.957032 14.996094-10.632813zm0 0" fill="#2f373b"/><path d="m152.003906 77.320312c-3.800781 5.730469-3.8125 15.398438-.011718 21.128907 2.441406 3.679687 4.960937 7.222656 7.550781 10.640625 10.328125 13.621094 16.210937 33.949218 16.210937 55.261718h-79.292968c0-21.3125-11.699219-41.640624-32.25-55.261718-5.148438-3.417969-10.148438-6.960938-15-10.640625-7.570313-5.730469-7.550782-15.398438.019531-21.128907 53.820312-40.820312 126.613281-65.878906 206.761719-65.878906-40.308594 0-76.921876 25.058594-103.988282 65.878906zm0 0" fill="#181e21"/><path d="m267.117188 11.4375c0 6.140625-4.980469 11.121094-11.121094 11.121094-6.144532 0-11.121094-4.980469-11.121094-11.121094 0-6.144531 4.976562-11.121094 11.121094-11.121094 6.140625 0 11.121094 4.976563 11.121094 11.121094zm0 0" fill="#2f373b"/><path d="m255.996094 306.871094s-15.863282-11.972656-31.824219-5.988282c-15.964844 5.984376-22.882813 26.9375-36.914063 26.9375 0 0 51.1875 9.367188 68.738282-20.949218zm0 0" fill="#181e21"/><path d="m255.996094 306.871094s15.863281-11.972656 31.824218-5.988282c15.960938 5.984376 22.882813 26.9375 36.910157 26.9375 0 0-51.1875 9.367188-68.734375-20.949218zm0 0" fill="#2f373b"/><path d="m255.996094 411.214844c29.625-9.429688 47.496094-51.984375 32.023437-59.128906-15.476562-7.140626-16.695312 7.144531-32.023437 7.144531-15.332032 0-16.550782-14.285157-32.023438-7.144531-15.476562 7.144531 2.394532 49.695312 32.023438 59.128906zm0 0" fill="#2f373b"/><path d="m255.992188 411.210938c-29.628907-9.429688-47.5-51.980469-32.019532-59.121094 8.519532-3.941406 12.710938-1.378906 17.320313 1.71875-4.570313 10.570312 2.859375 48.550781 14.699219 57.402344zm0 0" fill="#181e21"/></svg>