<svg id="Capa_1" enable-background="new 0 0 512 512" height="512" viewBox="0 0 512 512" width="512" xmlns="http://www.w3.org/2000/svg"><g><g><path d="m456.951 407.165c27.755-39.717 44.049-88.035 44.049-140.165 0-135.31-109.69-245-245-245s-245 109.69-245 245c0 52.13 16.294 100.448 44.049 140.165z" fill="#73c3f9"/></g><g><circle cx="256" cy="242" fill="#4fabf7" r="200"/></g><g><path d="m348.593 64.834c-15.486-34.415-43.5-64.834-73.727-64.834-12.234 0-18.866 12-18.866 12s-6.635-12-18.869-12c-30.227 0-58.241 30.419-73.726 64.834-10.98 23.725-45.223 58.317-29.862 90.26 4.798 9.977 5.859 21.241 3.377 32.03-.906 3.938-1.189 7.928-.643 11.992 3.771 28.069 37.792 75.63 119.724 75.63s115.949-47.561 119.721-75.63c.546-4.064.263-8.054-.643-11.992-2.482-10.789-1.421-22.053 3.377-32.03 15.36-31.943-18.883-66.535-29.863-90.26z" fill="#b76c4e"/></g><g><path d="m225.46 79.602c-24.124-10.117-34.832-61.063-8.091-75.355-22.327 9.516-41.93 33.841-53.965 60.587-10.98 23.725-45.223 58.317-29.862 90.26 4.798 9.977 5.859 21.241 3.377 32.03-.906 3.938-1.189 7.928-.643 11.992 3.263 24.288 29.182 63.163 89.184 73.198z" fill="#a05838"/></g><g><path d="m456.949 407.139c-8.256-22.709-16.99-42.685-24.722-51.911-.904-1.078-1.794-2.019-2.668-2.79-6.623-5.848-19.39-11.382-34.352-16.323-37.928-12.525-89.968-21.232-91.82-21.54h-94.772c-1.853.307-53.892 9.014-91.82 21.54-14.961 4.941-27.729 10.475-34.352 16.323-.874.772-1.765 1.712-2.668 2.79-7.732 9.226-16.467 29.203-24.722 51.911-.001.009-.001.018-.002.026 32.701 46.795 81.325 81.638 138.014 96.668l-.003-.009 62.939-26.781 62.942 26.781.001.008c56.687-15.03 105.309-49.872 138.009-96.666-.003-.009-.003-.018-.004-.027z" fill="#3c5082"/></g><g><path d="m215.165 494.418c-64.574-57.836-80.564-130.035-84.521-162.552-4.742 1.359-9.394 2.777-13.85 4.249-14.961 4.941-27.729 10.475-34.352 16.323-.874.772-1.765 1.712-2.668 2.79-7.732 9.226-16.467 29.203-24.722 51.911-.001.009-.001.018-.002.026 32.706 46.802 81.349 81.619 138.051 96.641z" fill="#2d3c6b"/></g><g><path d="m91.07 426.843v21.327c7.157 6.519 14.704 12.617 22.599 18.262l-12.035-41.103c-1.75-5.98-10.564-4.716-10.564 1.514z" fill="#213159"/></g><g><path d="m420.93 426.843v21.327c-7.157 6.519-14.704 12.617-22.599 18.262l12.035-41.103c1.75-5.98 10.564-4.716 10.564 1.514z" fill="#2d3c6b"/></g><g><path d="m331.058 159.567s10.385-25.285 28.897-19.415-.448 60.664-36.573 64.116z" fill="#fcad6d"/></g><g><path d="m180.942 159.567s-10.385-25.285-28.897-19.415.448 60.664 36.573 64.116z" fill="#fd995b"/></g><g><path d="m376.363 400.049c-12.574-62.943-53.75-134.554-120.363-134.554s-107.789 71.611-120.363 134.554c-2.232 11.171 4.616 22.15 15.628 25.069l1.946.516c6.666 1.767 12.085 6.615 14.579 13.045l25.27 65.146c9.503 2.519 19.234 4.477 29.152 5.849l33.786-32.63 33.79 32.63c9.918-1.372 19.649-3.33 29.152-5.849l25.27-65.146c2.494-6.43 7.913-11.278 14.579-13.045l1.946-.516c11.012-2.919 17.86-13.898 15.628-25.069z" fill="#7255ce"/></g><g><path d="m208.614 314.575 12.756 107.781c.554 4.681.832 9.39.832 14.104v73.224c11.048 1.524 22.33 2.316 33.798 2.316s22.75-.792 33.798-2.317v-73.224c0-4.713.278-9.423.832-14.104l12.756-107.781h-94.772z" fill="#dae2fe"/></g><g><path d="m289.798 509.683c-36.648-8.211-67.597-46.428-67.597-73.224v73.224c11.049 1.525 22.331 2.317 33.799 2.317s22.75-.792 33.798-2.317z" fill="#bec8f7"/></g><g><path d="m248.5 511.873c2.492.076 4.99.127 7.5.127s5.008-.051 7.5-.127v-197.298h-15z" fill="#acbbef"/></g><g><path d="m208.614 221.239v93.336s19.021 33.261 47.17 33.261c.073 0 .143-.005.216-.005 28.031-.103 47.386-33.256 47.386-33.256v-93.336z" fill="#fcad6d"/></g><g><path d="m208.614 220.734v93.841c94.723 0 94.772-53.4 94.772-53.4v-40.44h-94.772z" fill="#fd995b"/></g><g><path d="m303.386 299.609-47.386 48.222s18.328 33.146 30.188 33.146c7.034 0 17.106-22.384 24.137-40.597 5.342-13.84 2.694-29.488-6.939-40.771z" fill="#e9efff"/></g><g><path d="m208.614 299.609 47.386 48.222s-18.328 33.146-30.188 33.146c-7.034 0-17.106-22.384-24.137-40.597-5.342-13.84-2.694-29.488 6.939-40.771z" fill="#e9efff"/></g><g><path d="m327.049 124.754c-3.509-10.287-9.219-24.496-16.225-32.717-3.978-3.853-8.145-7.046-12.399-9.103-8.195-3.963-15.758-4.069-22.16-2.497-13.314 3.269-27.216 3.268-40.53 0-6.402-1.572-13.966-1.466-22.16 2.497-4.254 2.057-8.421 5.25-12.399 9.103-7.006 8.221-12.716 22.43-16.225 32.717-2.762 8.097-8.72 14.703-16.484 18.295-.031 1.23-.063 2.46-.063 3.705 0 64.505 39.219 140.155 87.597 140.155s87.597-75.651 87.597-140.155c0-1.245-.032-2.475-.063-3.705-7.766-3.592-13.724-10.198-16.486-18.295z" fill="#f9ba8f"/></g><g><path d="m208.403 146.754c0-25.925 6.339-48.917 17.057-67.152-3.755.312-7.739 1.327-11.885 3.333-4.254 2.057-8.421 5.25-12.399 9.103-7.006 8.221-12.716 22.43-16.225 32.717-2.762 8.097-8.72 14.703-16.484 18.295-.031 1.23-.063 2.46-.063 3.705 0 64.505 39.219 140.155 87.597 140.155 6.881 0 13.576-1.535 20-4.346-38.742-16.953-67.598-80.48-67.598-135.81z" fill="#fcad6d"/></g><g><g><path d="m235.384 240.87h41.233c4.111-3.622 7.258-8.309 9.01-13.631 1.584-4.811-2.069-9.754-7.134-9.754h-44.985c-5.065 0-8.718 4.943-7.134 9.754 1.752 5.322 4.899 10.009 9.01 13.631z" fill="#162544"/></g><g><path d="m276.616 240.87c-5.493 4.849-12.714 7.798-20.616 7.798s-15.124-2.948-20.616-7.798c5.5-4.849 12.714-7.798 20.616-7.798s15.116 2.949 20.616 7.798z" fill="#ff4155"/></g></g><g><g><path d="m242.013 192.447 8.436-13.441c2.569-4.093 8.533-4.093 11.102 0l8.436 13.441c2.739 4.365-.398 10.038-5.551 10.038h-16.871c-5.154-.001-8.291-5.674-5.552-10.038z" fill="#fd995b"/></g></g><g><path d="m310.999 162.085c.043-3.495-1.371-7.004-4.242-9.539-4.675-4.128-11.84-4.128-16.515 0-2.871 2.535-4.284 6.044-4.242 9.539.055 4.538 5.629 6.716 8.838 3.507 2.022-2.022 5.3-2.022 7.322 0 3.21 3.21 8.784 1.032 8.839-3.507z" fill="#162544"/></g><g><path d="m201.001 162.085c-.043-3.495 1.371-7.004 4.242-9.539 4.675-4.128 11.84-4.128 16.515 0 2.871 2.535 4.284 6.044 4.242 9.539-.055 4.538-5.629 6.716-8.838 3.507-2.022-2.022-5.3-2.022-7.322 0-3.21 3.21-8.784 1.032-8.839-3.507z" fill="#162544"/></g><g><path d="m223.5 138.968h-20c-4.142 0-7.5-3.358-7.5-7.5 0-4.142 3.358-7.5 7.5-7.5h20c4.142 0 7.5 3.358 7.5 7.5 0 4.142-3.358 7.5-7.5 7.5z" fill="#934a2e"/></g><g><path d="m308.5 138.968h-20c-4.142 0-7.5-3.358-7.5-7.5 0-4.142 3.358-7.5 7.5-7.5h20c4.142 0 7.5 3.358 7.5 7.5 0 4.142-3.358 7.5-7.5 7.5z" fill="#934a2e"/></g></g></svg>