<svg id="Capa_1" enable-background="new 0 0 512 512" height="512" viewBox="0 0 512 512" width="512" xmlns="http://www.w3.org/2000/svg"><g><path d="m0 256c0-141.385 114.615-256 256-256s256 114.615 256 256c0 80.844-37.474 152.936-96 199.852-2.029 1.627-102.263-46.57-160-46.57s-157.971 48.197-160 46.57c-58.526-46.916-96-119.008-96-199.852z" fill="#2cb3cd"/><path d="m456.532 256c0 110.751-89.781 200.532-200.532 200.532s-200.532-89.781-200.532-200.532 89.781-200.532 200.532-200.532 200.532 89.781 200.532 200.532z" fill="#44bfd7"/><path d="m163.862 166.691c0 10.681-8.659 19.34-19.34 19.34s-19.34-8.659-19.34-19.34 8.659-19.34 19.34-19.34 19.34 8.659 19.34 19.34z" fill="#61362b"/><path d="m386.819 165.707c0 10.138-8.218 18.356-18.356 18.356s-18.356-8.218-18.356-18.356 8.218-18.356 18.356-18.356 18.356 8.219 18.356 18.356z" fill="#784132"/><path d="m157.426 363.036c-11.243 12.419-18.092 28.892-18.092 46.964v59.382c0 6.656-7.237 10.788-12.973 7.412-10.636-6.259-20.78-13.264-30.36-20.943v-45.851c0-35.423 26.311-64.7 60.457-69.355.511-.07.969.335.969.85v21.541z" fill="#ffd993"/><path d="m416 410v45.852c-18.23 14.614-38.503 26.785-60.321 36.017-1.357.574-5.097-4.356-6.466-3.805-21.771 8.769-41.233 16.035-65.489 18.511-2.095.214-5.614 4.493-7.723 4.656-6.6.51-13.27.77-20 .77s-13.4-.26-20-.77c-2.362-.183-4.716-5.601-7.06-5.847-24.036-2.525-44.652-7.972-66.238-16.681-1.323-.534-5.069 3.721-6.381 3.166-10.482-4.435-20.608-9.549-30.321-15.286v-66.583c0-28.074 16.527-52.288 40.381-63.443 8.995-4.207 17.054-2.195 27.64-2.195l146.657 1.021c3.284 0 11.837-5.157 15-4.719 34.079 4.713 60.321 33.96 60.321 69.336z" fill="#ffe7c0"/><path d="m280.306 340h20.605c1.301 0 1.964 1.563 1.059 2.498l-45.97 47.502-45.873-47.402c-.941-.972-.252-2.598 1.101-2.598h20.466l24.306 25.116z" fill="#fa9084"/><path d="m229.042 379.659c4.587 10.268 6.958 21.387 6.958 32.632v98.939c-4.927-.381-9.816-.901-14.661-1.557-1.016-.137-1.21-2.242-2.221-2.391-3.136-.463-6.254-.983-9.351-1.558-.871-.162-2.56 1.633-3.427 1.463-17.367-3.414-34.103-8.584-50.017-15.318v-151.205c3.164-.438 6.395-.664 9.678-.664h13.397l3.795 1.574h10.213l2.421-1.574h15.499zm116.958-39.659h-13.397l-3.603 2.064h-10.298l-2.527-2.064h-15.499l-17.718 39.659c-4.587 10.268-6.958 21.387-6.958 32.632v98.939c4.927-.381 9.816-.901 14.661-1.557 1.109-.15 1.214-2.377 2.319-2.541 3.039-.452 6.06-.957 9.063-1.515.874-.162 2.748 1.74 3.619 1.569 17.367-3.414 34.103-8.584 50.017-15.318v-151.204c-3.164-.437-6.395-.664-9.679-.664z" fill="#fb5858"/><path d="m355.678 407.733v84.136c-4.923 2.083-9.925 4.017-15 5.794v-89.93c0-4.142 3.358-7.5 7.5-7.5s7.5 3.358 7.5 7.5zm-191.856-7.5c-4.142 0-7.5 3.358-7.5 7.5v84.136c4.923 2.083 9.925 4.017 15 5.794v-89.93c0-4.142-3.358-7.5-7.5-7.5z" fill="#c83c50"/><path d="m210.066 371.876c7.48 16.743 11.272 34.53 11.272 52.867v84.929c-5.048-.683-10.05-1.513-15-2.487v-82.442c0-16.215-3.354-31.943-9.968-46.748l-16.973-37.995h16.429zm106.109-31.876-14.241 31.876c-7.479 16.742-11.272 34.528-11.272 52.867v84.929c5.048-.683 10.05-1.513 15-2.486v-82.443c0-16.216 3.354-31.944 9.968-46.748l16.973-37.995z" fill="#ffc14f"/><path d="m171 215v10c0 13.807-11.193 25-25 25s-25-11.193-25-25v-10c0-13.807 11.193-25 25-25s25 11.193 25 25z" fill="#ffcdbe"/><path d="m136 210v20c0 8.178 3.927 15.439 9.998 20-13.806-.001-24.998-11.193-24.998-25v-10c0-13.806 11.192-24.999 24.998-25-6.071 4.561-9.998 11.822-9.998 20zm230-20v-20c0-60.751-49.249-110-110-110-60.751 0-110 49.249-110 110v40c0 50.351 33.83 92.801 80 105.859v24.141l30 30 30-30v-24.141c33.586-9.5 60.641-34.551 72.895-66.883 2.252.666 4.637 1.024 7.105 1.024 13.807 0 25-11.193 25-25v-10c0-13.807-11.193-25-25-25z" fill="#ffbeaa"/><path d="m366 170v40c0 50.792-34.425 93.543-81.216 106.195-9.023 2.439-18.545 2.439-27.568 0-46.791-12.652-81.216-55.403-81.216-106.195v-40c0-55.663 41.345-101.669 95-108.985 53.655 7.316 95 53.322 95 108.985z" fill="#ffcdbe"/><path d="m270.5 216.731c-3.875 3.875-9.024 6.009-14.5 6.009s-10.625-2.134-14.5-6.009c-2.929-2.93-2.929-7.678 0-10.607 2.929-2.928 7.678-2.928 10.606 0 1.042 1.042 2.424 1.616 3.893 1.616s2.851-.574 3.893-1.616c2.929-2.928 7.678-2.928 10.606 0 2.931 2.93 2.931 7.678.002 10.607z" fill="#faa68e"/><path d="m223.5 177.5c0 8.284-6.716 15-15 15s-15-6.716-15-15 6.716-15 15-15 15 6.716 15 15zm80-15c-8.284 0-15 6.716-15 15s6.716 15 15 15 15-6.716 15-15-6.716-15-15-15z" fill="#274c91"/><path d="m226 170c0 4.142-3.358 7.5-7.5 7.5s-7.5-3.358-7.5-7.5 3.358-7.5 7.5-7.5 7.5 3.358 7.5 7.5zm87.5-7.5c-4.142 0-7.5 3.358-7.5 7.5s3.358 7.5 7.5 7.5 7.5-3.358 7.5-7.5-3.358-7.5-7.5-7.5z" fill="#fff5f5"/><path d="m286 250c0 16.569-13.431 30-30 30s-30-13.431-30-30c0-4.142 3.358-7.5 7.5-7.5h45c4.142 0 7.5 3.358 7.5 7.5z" fill="#fff5f5"/><path d="m263.5 279.055c-2.397.617-4.91.945-7.5.945-16.568 0-30-13.431-30-30 0-4.142 3.358-7.5 7.5-7.5h15c-4.142 0-7.5 3.358-7.5 7.5 0 13.979 9.561 25.725 22.5 29.055z" fill="#def4f8"/><path d="m167.492 175.402c.815 1.941 1.266 4.073 1.266 6.311 0 9.007-7.302 16.309-16.308 16.309s-16.308-7.302-16.308-16.309c0-6.646 3.975-12.363 9.677-14.904-1.786-2.93-2.816-6.372-2.816-10.054 0-10.682 8.659-19.34 19.341-19.34 10.681 0 19.34 8.659 19.34 19.34-.001 8.899-6.01 16.393-14.192 18.647z" fill="#61362b"/><path d="m330.317 156.755c0-10.682 8.659-19.34 19.34-19.34 10.682 0 19.341 8.659 19.341 19.34 0 3.682-1.029 7.124-2.816 10.054 5.702 2.541 9.677 8.258 9.677 14.904 0 9.007-7.302 16.309-16.308 16.309s-16.308-7.302-16.308-16.309c0-2.237.451-4.37 1.266-6.311-8.183-2.254-14.192-9.748-14.192-18.647z" fill="#784132"/><path d="m362.177 149.939h-212.354c-5.355 0-9.523-4.648-8.955-9.973 4.792-44.944 21.209-86.779 46.47-122.966 7.457-10.682 19.708-17 32.736-17h71.853c13.028 0 25.279 6.317 32.736 17 25.261 36.187 41.678 78.022 46.47 122.967.567 5.324-3.602 9.972-8.956 9.972z" fill="#c0694e"/><g fill="#ae583e"><path d="m176.376 149.939h-26.553c-5.355 0-9.523-4.648-8.955-9.973 4.792-44.944 21.209-86.779 46.47-122.966 7.457-10.682 19.708-17 32.736-17h26.553c-13.028 0-25.279 6.317-32.736 17-25.261 36.187-41.678 78.022-46.47 122.967-.567 5.324 3.601 9.972 8.955 9.972z"/><path d="m193.17 26.745c0-4.142 3.358-7.5 7.5-7.5h110.66c4.142 0 7.5 3.358 7.5 7.5 0 4.142-3.358 7.5-7.5 7.5h-110.66c-4.142 0-7.5-3.358-7.5-7.5zm-9.67 39.925h145c4.142 0 7.5-3.357 7.5-7.5 0-4.142-3.358-7.5-7.5-7.5h-145c-4.142 0-7.5 3.358-7.5 7.5 0 4.143 3.358 7.5 7.5 7.5zm154.979 17.426h-164.958c-4.142 0-7.5 3.358-7.5 7.5s3.358 7.5 7.5 7.5h164.958c4.142 0 7.5-3.358 7.5-7.5s-3.358-7.5-7.5-7.5zm21.032 39.925c0-4.142-3.358-7.5-7.5-7.5h-192.022c-4.142 0-7.5 3.358-7.5 7.5 0 4.142 3.358 7.5 7.5 7.5h192.021c4.143 0 7.501-3.358 7.501-7.5z"/></g></g></svg>