<svg height="512pt" viewBox="0 0 512 512" width="512pt" xmlns="http://www.w3.org/2000/svg"><path d="m512 256c0 141.386719-114.613281 256-256 256s-256-114.613281-256-256 114.613281-256 256-256 256 114.613281 256 256zm0 0" fill="#f93d6e"/><path d="m120.808594 297.890625h274.34375v89.785156h-274.34375zm0 0" fill="#ff931f"/><path d="m400.058594 468.761719c-12.339844 8.277343-25.4375 15.519531-39.179688 21.566406-5.859375 2.59375-11.839844 4.960937-17.929687 7.101563-4.960938 1.769531-10 3.371093-15.097657 4.820312-22.300781 6.351562-45.851562 9.75-70.203124 9.75-24.339844 0-47.886719-3.398438-70.199219-9.738281-5.097657-1.453125-10.148438-3.0625-15.121094-4.832031-2.078125-.738282-4.148437-1.5-6.207031-2.289063-.429688-.160156-.859375-.320313-1.292969-.492187-3.507813-1.359376-6.976563-2.808594-10.40625-4.320313-13.742187-6.058594-26.84375-13.289063-39.191406-21.578125.390625-.550781.789062-1.089844 1.210937-1.628906 6.277344-8.410156 13.597656-15.992188 21.757813-22.570313 5.089843-4.109375 10.511719-7.832031 16.222656-11.121093 10.199219-5.871094 21.296875-10.339844 33.027344-13.148438 1.8125-.441406 3.640625-.839844 5.480469-1.191406 3.46875-.679688 7-1.199219 10.570312-1.570313 1.03125-.109375 2.050781-.210937 3.089844-.289062 3.378906-.28125 6.800781-.421875 10.261718-.421875h81.589844c4.519532 0 8.96875.242187 13.347656.703125 3.570313.367187 7.089844.898437 10.570313 1.558593 1.390625.269532 2.769531.558594 4.140625.871094.449219.117188.910156.207032 1.351562.328125 11.738282 2.820313 22.828126 7.289063 33.027344 13.160157 5.699219 3.289062 11.121094 7.011718 16.210938 11.121093 8.160156 6.578125 15.46875 14.160157 21.75 22.570313.421875.539062.820312 1.089844 1.21875 1.640625zm0 0" fill="#2f373b"/><path d="m342.949219 497.429688c-4.960938 1.769531-10 3.371093-15.097657 4.820312-22.300781 6.351562-45.851562 9.75-70.203124 9.75-24.339844 0-47.886719-3.398438-70.199219-9.738281-5.097657-1.453125-10.148438-3.0625-15.121094-4.832031zm0 0" fill="#f1eee9"/><path d="m216.855469 416.808594c-29.363281 0-49.261719 42.429687-50.730469 78.332031-.429688-.160156-.859375-.320313-1.289062-.492187-3.511719-1.359376-6.980469-2.808594-10.410157-4.320313-13.742187-6.058594-26.839843-13.289063-39.191406-21.578125 10.390625-14.371094 23.757813-26.429688 39.191406-35.320312 10.199219-5.871094 21.296875-10.339844 33.027344-13.148438 1.8125-.441406 3.640625-.839844 5.480469-1.191406 3.46875-.679688 7-1.199219 10.570312-1.570313 1.03125-.109375 2.050782-.210937 3.089844-.289062 3.378906-.28125 6.800781-.421875 10.261719-.421875zm0 0" fill="#181e21"/><path d="m398.839844 467.121094h-282.398438c6.277344-8.410156 13.597656-15.992188 21.757813-22.570313h238.890625c8.160156 6.578125 15.46875 14.160157 21.75 22.570313zm0 0" fill="#f1eee9"/><path d="m170.722656 467.121094c2.289063-8 5.375-15.699219 9.15625-22.570313h-41.679687c-8.160157 6.582031-15.46875 14.167969-21.757813 22.570313zm0 0" fill="#d7d3cd"/><path d="m322.363281 419.070312v4.339844c0 28.539063-18.320312 53.378906-45.589843 61.808594-6.167969 1.921875-12.609376 2.890625-19.128907 2.890625-35.679687 0-64.710937-29.03125-64.710937-64.699219v-4.320312c3.46875-.679688 7-1.199219 10.570312-1.570313 1.03125-.109375 2.050782-.210937 3.089844-.289062 3.378906-.28125 6.800781-.421875 10.261719-.421875h81.589843c4.519532 0 8.96875.242187 13.347657.703125 3.570312.367187 7.089843.898437 10.570312 1.558593zm0 0" fill="#f9c5ac"/><path d="m302.359375 368.539062v54.867188c0 20.089844-13.246094 37.066406-31.488281 42.707031-4.175782 1.296875-8.628906 1.996094-13.230469 1.996094-24.691406 0-44.703125-20.011719-44.703125-44.703125v-54.867188zm0 0" fill="#efb29a"/><path d="m302.359375 419.933594v3.472656c0 20.089844-13.246094 37.066406-31.488281 42.707031-16.460938-5.058593-28.835938-19.371093-31.125-36.882812 2.988281.183593 5.992187.273437 9.011718.273437 8.457032 0 16.75-.671875 24.828126-1.996094 9.949218-1.601562 19.566406-4.160156 28.773437-7.574218zm0 0" fill="#f9c5ac"/><path d="m134.195312 278.152344c0 20.496094-14.972656 37.492187-34.582031 40.648437-2.140625.34375-4.34375.527344-6.59375.527344-22.746093 0-41.175781-18.429687-41.175781-41.175781s18.429688-41.175782 41.175781-41.175782c2.25 0 4.453125.179688 6.59375.527344 19.609375 3.15625 34.582031 20.152344 34.582031 40.648438zm0 0" fill="#f9c5ac"/><path d="m134.195312 278.152344c0 20.496094-14.972656 37.492187-34.582031 40.648437-3.558593-12.953125-5.460937-26.582031-5.460937-40.648437s1.902344-27.695313 5.460937-40.644532c19.609375 3.152344 34.582031 20.148438 34.582031 40.644532zm0 0" fill="#efb29a"/><path d="m107.734375 278.152344c0 8.128906-6.585937 14.714844-14.714844 14.714844-8.128906 0-14.714843-6.585938-14.714843-14.714844 0-8.125 6.585937-14.714844 14.714843-14.714844 8.128907 0 14.714844 6.589844 14.714844 14.714844zm0 0" fill="#efb29a"/><path d="m381.105469 278.152344c0 20.496094 14.972656 37.492187 34.578125 40.648437 2.140625.34375 4.347656.527344 6.59375.527344 22.746094 0 41.175781-18.429687 41.175781-41.175781s-18.429687-41.175782-41.175781-41.175782c-2.246094 0-4.453125.179688-6.59375.527344-19.609375 3.15625-34.578125 20.152344-34.578125 40.648438zm0 0" fill="#f9c5ac"/><path d="m381.105469 278.152344c0 20.496094 14.972656 37.492187 34.578125 40.648437 3.5625-12.953125 5.464844-26.582031 5.464844-40.648437s-1.902344-27.695313-5.464844-40.644532c-19.609375 3.152344-34.578125 20.148438-34.578125 40.644532zm0 0" fill="#efb29a"/><path d="m436.992188 278.152344c0 8.128906-6.585938 14.714844-14.714844 14.714844-8.125 0-14.714844-6.585938-14.714844-14.714844 0-8.125 6.589844-14.714844 14.714844-14.714844 8.128906 0 14.714844 6.589844 14.714844 14.714844zm0 0" fill="#efb29a"/><path d="m412.351562 256.511719c0 76.984375-56.242187 140.847656-129.875 152.703125-8.078124 1.328125-16.367187 2-24.828124 2-85.445313 0-154.703126-69.257813-154.703126-154.703125v-157.5h309.40625zm0 0" fill="#f9c5ac"/><g fill="#efb29a"><path d="m284.898438 408.808594c-.800782.140625-1.613282.28125-2.421876.410156-8.078124 1.320312-16.371093 1.992188-24.828124 1.992188-85.441407 0-154.703126-69.25-154.703126-154.699219v-157.5h54.550782v157.5c0 76.136719 54.980468 139.410156 127.402344 152.296875zm0 0"/><path d="m361.917969 296.496094c0 10.539062-8.542969 19.082031-19.082031 19.082031-10.539063 0-19.082032-8.542969-19.082032-19.082031 0-10.539063 8.542969-19.082032 19.082032-19.082032 10.539062 0 19.082031 8.542969 19.082031 19.082032zm0 0"/><path d="m191.542969 296.496094c0 10.539062-8.542969 19.082031-19.082031 19.082031-10.539063 0-19.082032-8.542969-19.082032-19.082031 0-10.539063 8.542969-19.082032 19.082032-19.082032 10.539062 0 19.082031 8.542969 19.082031 19.082032zm0 0"/><path d="m275.03125 297.921875h-34.757812c-4.140626 0-7.496094-3.355469-7.496094-7.496094s3.355468-7.496093 7.496094-7.496093h34.757812c4.140625 0 7.496094 3.355468 7.496094 7.496093s-3.355469 7.496094-7.496094 7.496094zm0 0"/></g><path d="m257.652344 345.351562c-12.828125 0-25.65625-3.214843-37.347656-9.640624-3.296876-1.8125-4.5-5.957032-2.6875-9.257813 1.8125-3.296875 5.957031-4.5 9.253906-2.6875 19.277344 10.597656 42.292968 10.597656 61.566406 0 3.296875-1.8125 7.441406-.609375 9.253906 2.6875 1.816406 3.300781.609375 7.445313-2.6875 9.257813-11.695312 6.425781-24.523437 9.640624-37.351562 9.640624zm0 0" fill="#dd9f8a"/><path d="m98.117188 164.351562c0 40.761719 24.683593 265.226563-9.234376 277.199219 0 0 49.882813-6.984375 49.882813-115.726562 0-108.738281 0-177.578125 0-177.578125" fill="#ff931f"/><path d="m417.179688 164.351562c0 40.761719-24.683594 265.226563 9.234374 277.199219 0 0-49.882812-6.984375-49.882812-115.726562 0-108.738281 0-177.578125 0-177.578125" fill="#ffbb16"/><path d="m464.425781 98.453125c7.566407-5.734375 7.550781-15.398437-.015625-21.136719-53.820312-40.820312-126.613281-65.878906-206.761718-65.878906-80.144532 0-152.941407 25.058594-206.761719 65.878906-7.566407 5.738282-7.582031 15.402344-.015625 21.136719 4.847656 3.675781 9.851562 7.222656 14.996094 10.632813 20.554687 13.625 32.25 33.949218 32.25 55.261718h319.0625c0-21.3125 11.695312-41.636718 32.25-55.261718 5.148437-3.414063 10.148437-6.957032 14.996093-10.632813zm0 0" fill="#2f373b"/><path d="m153.65625 77.320312c-3.800781 5.730469-3.808594 15.398438-.011719 21.128907 2.441407 3.679687 4.960938 7.222656 7.550781 10.640625 10.332032 13.621094 16.210938 33.949218 16.210938 55.261718h-79.289062c0-21.3125-11.703126-41.640624-32.25-55.261718-5.152344-3.417969-10.152344-6.960938-15-10.640625-7.570313-5.730469-7.550782-15.398438.019531-21.128907 53.820312-40.820312 126.609375-65.878906 206.757812-65.878906-40.308593 0-76.917969 25.058594-103.988281 65.878906zm0 0" fill="#181e21"/><path d="m268.769531 11.4375c0 6.140625-4.980469 11.121094-11.121093 11.121094-6.140626 0-11.121094-4.980469-11.121094-11.121094 0-6.144531 4.980468-11.121094 11.121094-11.121094 6.140624 0 11.121093 4.976563 11.121093 11.121094zm0 0" fill="#2f373b"/><path d="m400.570312 224.128906c-.003906-3.582031-.015624-7.730468-.019531-11.230468-.007812-2.4375-1.441406-4.660157-3.691406-5.605469-15.203125-6.394531-44.847656-11.214844-63.828125-11.214844-20.84375 0-36.1875 4.585937-46.90625 14.019531-2.894531 2.546875-5.394531 5.410156-7.496094 8.578125-1.226562 1.84375-3.699218 2.382813-5.617187 1.273438-3.921875-2.273438-8.378907-3.472657-12.914063-3.472657h-6.183594c-4.535156 0-8.988281 1.195313-12.914062 3.472657-1.914062 1.109375-4.386719.570312-5.617188-1.273438-2.101562-3.167969-4.601562-6.03125-7.496093-8.578125-10.71875-9.433594-26.0625-14.019531-46.90625-14.019531-18.984375 0-48.628907 4.820313-63.832031 11.214844-2.246094.945312-3.679688 3.167969-3.683594 5.605469-.007813 3.5-.023438 7.648437-.027344 11.230468 0 1.375.417969 2.691406 1.113281 3.878906 3.980469 6.796876 2.441407 16.886719 2.441407 27.035157 0 16.023437 6.976562 31.050781 19.644531 42.304687 12.089843 10.746094 27.835937 16.660156 44.339843 16.660156 16.664063 0 32.550782-7.1875 44.734376-20.234374 11.453124-12.265626 18.019531-28.269532 18.019531-43.914063 0-1.09375-.019531-2.167969-.066407-3.230469-.308593-7.496094 5.605469-13.84375 13.105469-13.875h.234375.230469c7.503906.03125 13.414063 6.378906 13.105469 13.875-.042969 1.0625-.066406 2.136719-.066406 3.226563 0 15.648437 6.570312 31.652343 18.019531 43.914062 12.1875 13.050781 28.074219 20.238281 44.734375 20.238281 16.503906 0 32.25-5.917968 44.339844-16.660156 12.667968-11.257812 19.644531-26.28125 19.644531-42.304687 0-10.152344-1.539063-20.246094 2.449219-27.046875.695312-1.179688 1.113281-2.496094 1.109374-3.867188zm0 0" fill="#42b7a1"/><path d="m228.597656 249.859375c0 20.664063-15.550781 41.785156-36.480468 47.5-3.574219.988281-7.292969 1.511719-11.136719 1.511719-26.296875 0-48.847657-19.621094-48.847657-43.832032 0-24.207031 13.917969-43.828124 48.847657-43.828124 5.019531 0 9.582031.296874 13.707031.882812 24.609375 3.46875 33.910156 17.039062 33.910156 37.765625zm0 0" fill="#181e21"/><path d="m381.886719 255.039062c0 20.25-15.765625 37.285157-36.320313 42.320313-4.027344.988281-8.230468 1.511719-12.539062 1.511719-26.300782 0-47.617188-24.8125-47.617188-49.011719 0-24.207031 12.699219-38.648437 47.617188-38.648437 5.699218 0 10.839844.523437 15.457031 1.5 23.648437 5.03125 33.402344 22.066406 33.402344 42.328124zm0 0" fill="#181e21"/><path d="m381.886719 255.039062c0 20.25-15.765625 37.285157-36.320313 42.320313 21.34375-33.914063 14.71875-63.585937 2.917969-84.648437 23.648437 5.03125 33.402344 22.066406 33.402344 42.328124zm0 0" fill="#2f373b"/><path d="m228.597656 249.859375c0 20.664063-15.550781 41.785156-36.480468 47.5 21.558593-34.25 14.585937-64.160156 2.570312-85.265625 24.609375 3.46875 33.910156 17.039062 33.910156 37.765625zm0 0" fill="#2f373b"/></svg>