<svg id="Capa_1" enable-background="new 0 0 512 512" height="512" viewBox="0 0 512 512" width="512" xmlns="http://www.w3.org/2000/svg"><g><path d="m0 256c0-115.724 76.786-213.514 182.188-245.198 23.372 7.025 48.151 10.801 73.812 10.801s50.44-3.776 73.812-10.802c105.402 31.685 182.188 129.475 182.188 245.199 0 80.844-37.474 152.935-96 199.852-2.613 2.094-103.068-43.886-160-43.886s-157.387 45.98-160 43.886c-58.526-46.917-96-119.008-96-199.852z" fill="#fcc1b8"/><path d="m441.298 256c0 102.337-82.961 185.298-185.298 185.298s-185.298-82.961-185.298-185.298 82.961-185.298 185.298-185.298 185.298 82.961 185.298 185.298z" fill="#fccfc9"/><path d="m169.936 313.869c-20.335 12.247-33.936 34.539-33.936 60.007v97.759c0 4.776-5.191 7.769-9.311 5.353-10.756-6.308-21.01-13.378-30.689-21.137v-81.976c0-38.66 31.34-70 70-70h2.5z" fill="#199a8e"/><path d="m416 373.876v81.976c-43.827 35.133-99.459 56.148-160 56.148-47.457 0-91.897-12.913-130-35.417v-102.707c0-54.958 42.5-70 42.5-70s19.667 6.622 29.351 6.622l137.902-.705 7.747-5.917h2.5c38.66 0 70 31.34 70 70z" fill="#20b7a1"/><path d="m335.753 309.793c-2.282 27.269-20.196 50.095-44.753 59.487v60.72c0 19.33-15.67 35-35 35-19.33 0-35-15.67-35-35v-60.721c-26.314-10.064-45-32.172-45-62.024l7.5-3.379h26.5l6.617 4.188h78.766l6.617-4.188h26.5s7.417 3.966 7.253 5.917z" fill="#fff04a"/><path d="m343.5 303.876c0 30.159-17.882 57.806-45 70.372v55.752c0 23.435-19.065 42.5-42.5 42.5s-42.5-19.065-42.5-42.5v-55.752c-27.118-12.566-45-40.213-45-70.372h15c0 25.737 16.147 49.206 40.179 58.398l4.821 1.844v65.882c0 15.163 12.336 27.5 27.5 27.5s27.5-12.337 27.5-27.5v-65.882l4.821-1.844c24.032-9.192 40.179-32.661 40.179-58.398z" fill="#24d3b5"/><path d="m176.352 315.996c-2.538 0-4.711-1.924-4.969-4.503-.036-.354-.069-.707-.1-1.061-.239-2.752 1.798-5.175 4.549-5.414 2.745-.233 5.175 1.798 5.414 4.549.027.311.056.621.087.932.275 2.747-1.73 5.197-4.478 5.473-.169.016-.337.024-.503.024zm14.158 21.748c-.296-.481-.585-.969-.868-1.459-1.378-2.392-4.435-3.213-6.829-1.836-2.393 1.379-3.214 4.436-1.835 6.828.33.572.667 1.14 1.011 1.701.944 1.536 2.584 2.384 4.265 2.384.892 0 1.796-.239 2.612-.74 2.353-1.445 3.089-4.524 1.644-6.878zm-6.124-13.102c-.181-.538-.355-1.079-.523-1.623-.813-2.639-3.607-4.122-6.25-3.308-2.639.812-4.12 3.61-3.308 6.249.194.63.396 1.257.606 1.879.704 2.087 2.65 3.402 4.737 3.402.53 0 1.069-.085 1.6-.264 2.616-.882 4.022-3.719 3.138-6.335zm26.189 33.742c-.476-.31-.947-.625-1.414-.947-2.272-1.569-5.386-.996-6.955 1.275-1.568 2.273-.997 5.388 1.276 6.955.541.373 1.087.739 1.638 1.098.842.548 1.788.811 2.723.811 1.635 0 3.237-.802 4.195-2.273 1.506-2.316.851-5.413-1.463-6.919zm-12.353-10.438c-1.873-2.027-5.036-2.156-7.065-.282-2.029 1.873-2.156 5.036-.283 7.065.445.481.896.957 1.354 1.428.98 1.009 2.282 1.515 3.585 1.515 1.256 0 2.513-.471 3.485-1.415 1.98-1.925 2.024-5.091.1-7.07-.398-.409-.79-.822-1.176-1.241zm22.778 27.333c2.761 0 5-2.238 5-5v-1c0-2.075-1.282-3.935-3.221-4.673-.292-.111-.583-.226-.873-.341-2.569-1.018-5.474.238-6.49 2.807-.746 1.881-.27 3.944 1.048 5.313.794 1.709 2.527 2.894 4.536 2.894zm0 49.567c2.761 0 5-2.238 5-5v-1.943c0-2.762-2.239-5-5-5s-5 2.238-5 5v1.943c0 2.761 2.239 5 5 5zm35.791 35.143c-.549.017-1.105.015-1.656-.002-.05-.001-.099-.002-.148-.002-2.694 0-4.916 2.144-4.995 4.854-.08 2.761 2.092 5.063 4.853 5.144.384.011.77.017 1.156.017.359 0 .718-.005 1.075-.015 2.76-.078 4.934-2.38 4.856-5.14-.08-2.76-2.39-4.933-5.141-4.856zm-25.585-13.093c-1.555-2.282-4.667-2.869-6.948-1.313-2.281 1.557-2.869 4.667-1.313 6.948.419.615.856 1.218 1.309 1.806.985 1.28 2.467 1.951 3.966 1.951 1.064 0 2.137-.338 3.046-1.037 2.188-1.685 2.597-4.823.913-7.012-.337-.438-.661-.886-.973-1.343zm-4.717-11.466c-.099-.542-.184-1.09-.253-1.642-.344-2.739-2.838-4.68-5.584-4.338-2.74.344-4.682 2.844-4.338 5.584.093.739.206 1.473.339 2.198.442 2.412 2.545 4.1 4.912 4.1.299 0 .603-.027.908-.083 2.716-.498 4.514-3.103 4.016-5.819zm-5.489-39.05c-2.761 0-5 2.238-5 5v1.943c0 2.762 2.239 5 5 5s5-2.238 5-5v-1.943c0-2.762-2.239-5-5-5zm5-11.523c0-2.762-2.239-5-5-5s-5 2.238-5 5v1.943c0 2.762 2.239 5 5 5s5-2.238 5-5zm17.08 72.226c-.5-.239-.994-.491-1.479-.757-2.42-1.329-5.46-.442-6.788 1.98-1.328 2.421-.441 5.46 1.98 6.787.648.355 1.306.693 1.975 1.013.695.332 1.43.489 2.152.489 1.866 0 3.657-1.049 4.515-2.845 1.191-2.491.136-5.476-2.355-6.667zm47.92-60.63c-2.761 0-5 2.238-5 5v1.944c0 2.762 2.239 5 5 5s5-2.238 5-5v-1.944c0-2.762-2.239-5-5-5zm0-16.522c-2.761 0-5 2.238-5 5v1.944c0 2.762 2.239 5 5 5s5-2.238 5-5v-1.944c0-2.762-2.239-5-5-5zm0 33.045c-2.761 0-5 2.238-5 5v1.943c0 2.762 2.239 5 5 5s5-2.238 5-5v-1.943c0-2.762-2.239-5-5-5zm-20.652 43.378c-.489.266-.986.52-1.49.76-2.494 1.187-3.553 4.17-2.366 6.663.856 1.8 2.649 2.853 4.518 2.853.72 0 1.452-.156 2.145-.486.669-.318 1.329-.654 1.977-1.008 2.425-1.32 3.32-4.357 2-6.782-1.321-2.426-4.359-3.321-6.784-2zm17.365-10.703c-2.275-1.562-5.389-.983-6.952 1.292-.315.459-.642.908-.981 1.349-1.685 2.188-1.278 5.327.909 7.013.909.7 1.983 1.039 3.048 1.039 1.498 0 2.979-.67 3.964-1.948.451-.585.885-1.183 1.304-1.792 1.564-2.278.985-5.39-1.292-6.953zm3.636-16.126c-2.745-.348-5.244 1.586-5.593 4.326-.071.553-.157 1.101-.257 1.644-.502 2.716 1.292 5.324 4.007 5.826.307.057.613.084.915.084 2.364 0 4.465-1.684 4.911-4.092.134-.725.249-1.456.343-2.194.349-2.739-1.587-5.243-4.326-5.594zm-1.255-65.259c-.29.115-.581.229-.873.341-1.939.738-3.221 2.598-3.221 4.673v1c0 2.762 2.239 5 5 5 2.009 0 3.742-1.186 4.536-2.895 1.318-1.368 1.793-3.432 1.048-5.313-1.017-2.567-3.921-3.822-6.49-2.806zm39.091-29.815c-2.394-1.379-5.451-.558-6.829 1.836-.284.492-.574.98-.87 1.464-1.442 2.355-.702 5.434 1.653 6.875.815.499 1.716.737 2.606.737 1.683 0 3.326-.85 4.269-2.39.342-.56.678-1.124 1.006-1.694 1.379-2.392.557-5.449-1.835-6.828zm5.203-14.729c-2.639-.812-5.438.664-6.253 3.302-.168.545-.343 1.088-.524 1.627-.881 2.618.527 5.453 3.145 6.334.529.178 1.066.262 1.595.262 2.088 0 4.036-1.318 4.738-3.406.208-.619.409-1.24.602-1.865.814-2.64-.665-5.44-3.303-6.254zm-31.55 37.716c-.468.322-.941.64-1.418.95-2.313 1.509-2.966 4.606-1.457 6.92.958 1.47 2.559 2.27 4.193 2.27.936 0 1.883-.263 2.726-.813.55-.359 1.096-.724 1.635-1.097 2.273-1.567 2.844-4.682 1.276-6.955-1.568-2.272-4.682-2.845-6.955-1.275zm18.005-9.774c-2.029-1.874-5.192-1.745-7.065.282-.387.42-.779.833-1.176 1.242-1.924 1.981-1.877 5.146.104 7.07.972.943 2.228 1.413 3.483 1.413 1.304 0 2.607-.507 3.587-1.517.456-.47.907-.945 1.351-1.426 1.872-2.028 1.745-5.191-.284-7.064zm15.325-42.645c-2.744-.241-5.174 1.799-5.414 4.549-.027.311-.056.621-.087.932-.275 2.747 1.73 5.197 4.478 5.473.169.017.337.024.503.024 2.538 0 4.711-1.924 4.969-4.503.036-.354.069-.707.1-1.061.239-2.752-1.798-5.175-4.549-5.414z" fill="#adebdc"/><path d="m171.322 436.149v61.514c-5.075-1.778-10.077-3.711-15-5.794v-55.72c0-4.142 3.358-7.5 7.5-7.5s7.5 3.358 7.5 7.5zm176.856-7.5c-4.142 0-7.5 3.358-7.5 7.5v61.514c5.075-1.778 10.077-3.711 15-5.794v-55.72c0-4.142-3.357-7.5-7.5-7.5z" fill="#199a8e"/><path d="m158 69.014v100.151c0 7.364-5.97 13.333-13.333 13.333-7.364 0-13.333-5.97-13.333-13.333v-100.151c0-7.364 5.969-13.333 13.333-13.333 7.363 0 13.333 5.969 13.333 13.333z" fill="#61362b"/><path d="m380.667 69.014v100.151c0 7.364-5.97 13.333-13.333 13.333-7.364 0-13.333-5.97-13.333-13.333v-100.151c0-7.364 5.97-13.333 13.333-13.333 7.363 0 13.333 5.969 13.333 13.333z" fill="#784132"/><path d="m171 178.876v10c0 13.807-11.193 25-25 25s-25-11.193-25-25v-10c0-13.807 11.193-25 25-25s25 11.193 25 25z" fill="#c38778"/><path d="m136 173.876v20c0 8.178 3.927 15.439 9.998 20-13.806-.001-24.998-11.193-24.998-25v-10c0-13.807 11.192-24.999 24.998-25-6.071 4.561-9.998 11.822-9.998 20zm230-20v-20c0-60.751-49.249-110-110-110-60.751 0-110 49.249-110 110v40c0 50.351 33.83 92.801 80 105.859v24.141h-16v4.344c0 15.866 12.862 28.728 28.727 28.728h7.273v43.052c0 5.523 4.477 10 10 10s10-4.477 10-10v-43.052h7.273c15.866 0 28.727-12.862 28.727-28.728v-4.344h-16v-24.141c33.586-9.499 60.641-34.551 72.895-66.883 2.252.667 4.637 1.024 7.105 1.024 13.807 0 25-11.193 25-25v-10c0-13.807-11.193-25-25-25z" fill="#b46e5a"/><path d="m366 133.876v40c0 50.792-34.425 93.543-81.216 106.195-9.023 2.439-18.545 2.439-27.568 0-46.791-12.652-81.216-55.403-81.216-106.195v-40c0-55.663 41.345-101.669 95-108.985 53.655 7.316 95 53.322 95 108.985z" fill="#c38778"/><path d="m270.5 180.607c-3.875 3.875-9.024 6.009-14.5 6.009s-10.625-2.134-14.5-6.009c-2.929-2.93-2.929-7.678 0-10.607 2.929-2.928 7.678-2.928 10.606 0 1.042 1.042 2.424 1.616 3.893 1.616s2.851-.574 3.893-1.616c2.929-2.928 7.678-2.928 10.606 0 2.931 2.93 2.931 7.678.002 10.607z" fill="#915041"/><path d="m223.5 141.376c0 8.284-6.716 15-15 15s-15-6.716-15-15 6.716-15 15-15 15 6.716 15 15zm80-15c-8.284 0-15 6.716-15 15s6.716 15 15 15 15-6.716 15-15-6.716-15-15-15z" fill="#61362b"/><path d="m226 133.876c0 4.142-3.358 7.5-7.5 7.5s-7.5-3.358-7.5-7.5 3.358-7.5 7.5-7.5 7.5 3.358 7.5 7.5zm87.5-7.5c-4.142 0-7.5 3.358-7.5 7.5s3.358 7.5 7.5 7.5 7.5-3.358 7.5-7.5-3.358-7.5-7.5-7.5z" fill="#fff5f5"/><path d="m286 213.876c0 16.568-13.431 30-30 30-16.568 0-30-13.432-30-30 0-4.142 3.358-7.5 7.5-7.5h45c4.142 0 7.5 3.358 7.5 7.5z" fill="#fff5f5"/><path d="m263.5 242.931c-2.397.617-4.91.945-7.5.945-16.568 0-30-13.432-30-30 0-4.142 3.358-7.5 7.5-7.5h15c-4.142 0-7.5 3.358-7.5 7.5 0 13.979 9.561 25.725 22.5 29.055z" fill="#def4f8"/><path d="m198.485 13.333v65.287c0 7.364-5.97 13.333-13.333 13.333-4.675 0-8.788-2.406-11.168-6.047-2.38 2.211-5.569 3.564-9.074 3.564-4.652 0-8.748-2.383-11.133-5.995-2.384 2.231-5.587 3.597-9.109 3.597-7.364 0-13.333-5.97-13.333-13.333v-60.406c0-7.364 5.97-13.333 13.333-13.333 4.049 0 7.676 1.805 10.121 4.654 2.444-2.849 6.071-4.654 10.12-4.654 4.049 0 7.676 1.805 10.121 4.654 2.446-2.849 6.073-4.654 10.121-4.654 7.364 0 13.334 5.969 13.334 13.333z" fill="#61362b"/><path d="m380.667 13.333v60.407c0 7.364-5.97 13.333-13.333 13.333-3.522 0-6.726-1.366-9.109-3.597-2.386 3.612-6.481 5.995-11.133 5.995-3.505 0-6.694-1.353-9.074-3.564-2.38 3.641-6.493 6.047-11.168 6.047-3.488 0-6.662-1.339-9.038-3.531-2.375 3.672-6.506 6.103-11.204 6.103-3.469 0-6.629-1.325-9.001-3.497-2.369 3.705-6.518 6.16-11.241 6.16-3.451 0-6.595-1.311-8.963-3.462-2.362 3.738-6.531 6.221-11.279 6.221-4.049 0-7.676-1.805-10.121-4.653-2.445 2.849-6.072 4.653-10.121 4.653-4.749 0-8.917-2.482-11.279-6.221-2.368 2.151-5.512 3.462-8.963 3.462-4.723 0-8.873-2.456-11.241-6.16-2.372 2.171-5.532 3.497-9.001 3.497-7.364 0-13.333-5.969-13.333-13.333v-67.86c-.004-7.364 5.965-13.333 13.329-13.333 4.049 0 7.676 1.805 10.121 4.654 2.446-2.849 6.073-4.654 10.121-4.654s7.676 1.805 10.121 4.654c2.446-2.849 6.073-4.654 10.122-4.654s7.676 1.805 10.121 4.654c2.445-2.849 6.072-4.654 10.121-4.654s7.676 1.805 10.121 4.654c2.446-2.849 6.073-4.654 10.122-4.654s7.676 1.805 10.121 4.654c2.445-2.849 6.072-4.654 10.121-4.654 4.049 0 7.676 1.805 10.121 4.654 2.446-2.849 6.073-4.654 10.121-4.654 4.049 0 7.676 1.805 10.121 4.654 2.446-2.849 6.073-4.654 10.122-4.654 4.049 0 7.676 1.805 10.121 4.654 2.445-2.849 6.073-4.654 10.121-4.654 7.364 0 13.334 5.969 13.334 13.333z" fill="#784132"/></g></svg>