<svg id="Capa_1" enable-background="new 0 0 512 512" height="512" viewBox="0 0 512 512" width="512" xmlns="http://www.w3.org/2000/svg"><g><path d="m480.133 385.797c0-27.472-17.604-51.853-43.68-60.497l-101.831-33.756-49.311 110.228-29.311 110.228h224.133z" fill="#332866"/><path d="m177.378 291.544-101.831 33.756c-26.077 8.644-43.68 33.025-43.68 60.497v126.203h224.133l-29.37-110.393z" fill="#574d8c"/><path d="m334.622 291.544c0 .001-45.921 100.725-45.921 100.725l-32.701 119.731c92.904-6.031 156.377-131.47 156.377-131.47z" fill="#180a33"/><path d="m177.378 291.544-77.755 88.986s63.473 125.439 156.377 131.47l-32.701-119.733s-45.921-100.723-45.921-100.723z" fill="#332866"/><path d="m256 512c37.94-34.321 58.987-71.434 70.318-105.25 0 0-80.313-108.054-80.318-108.077z" fill="#ece6f2"/><path d="m185.682 406.75c11.331 33.816 32.378 70.929 70.318 105.25v-213.327c-.005.026-70.318 108.077-70.318 108.077z" fill="#fff5f5"/><path d="m334.622 291.544h-88.622l10 27.128v.001c.005.024 15.032 72.269 70.318 88.077 21.245-63.403 8.304-115.204 8.304-115.206z" fill="#cfcfe6"/><path d="m256 318.672v-27.128h-78.622s-12.942 51.802 8.303 115.206c55.295-15.811 70.319-88.078 70.319-88.078z" fill="#ece6f2"/><path d="m373.469 191.204h31.867c17.6 0 31.868-14.268 31.868-31.868 0-17.6-14.268-31.868-31.868-31.868h-31.867z" fill="#c78f2c"/><path d="m138.531 127.468h-31.867c-17.6 0-31.868 14.268-31.868 31.868 0 17.6 14.268 31.868 31.868 31.868h31.867z" fill="#e1bb78"/><path d="m378.839 93.362-132.839-46.454 10 271.764c70.399 0 127.469-57.07 127.469-127.469v-63.735c0-11.815-1.621-23.249-4.63-34.106z" fill="#e1bb78"/><path d="m144.475 65.71c-10.154 18.297-15.944 39.35-15.944 61.759v63.735c0 70.399 57.07 127.469 127.469 127.469v-271.765s-111.525 18.802-111.525 18.802z" fill="#edd7b0"/><path d="m184.299 144.336h31.867v30h-31.867z" fill="#332866"/><path d="m295.834 144.336h31.867v30h-31.867z" fill="#180a33"/><path d="m378.839 93.362c-8.147-29.401-26.554-54.536-51.138-71.292l-36.349 8.506-18.937 30.324c0-.001 36.258 46.705 106.424 32.462z" fill="#332866"/><path d="m327.701 22.069c-20.429-13.924-45.113-22.069-71.701-22.069l-10 37.307 10 29.611c24.042-7.386 49.031-21.026 71.701-44.849z" fill="#180a33"/><path d="m256 0c-47.99 0-89.779 26.525-111.525 65.71 0 0 52.946 19.203 111.525 1.208z" fill="#332866"/></g></svg>