<svg id="Capa_1" enable-background="new 0 0 512 512" height="512" viewBox="0 0 512 512" width="512" xmlns="http://www.w3.org/2000/svg"><g><g><path d="m456.969 407.139c27.744-39.712 44.031-88.02 44.031-140.139 0-135.31-109.69-245-245-245s-245 109.69-245 245c0 52.119 16.287 100.427 44.031 140.139z" fill="#ff596e"/></g><g><circle cx="256" cy="242" fill="#ff4155" r="200"/></g><g><path d="m412.228 259.136c-21.522-7.533-27.392-22.468-18.088-51.816 8.405-26.513-26.225-54.168-32.997-59.266v-30.911c0-27.404-10.487-52.356-27.663-71.07 0 0-.921-27.711-14.708-34.073-13.787-6.362-28.523-12-62.772-12s-62.086 14.101-81.87 36.423-23.273 57.711-23.273 80.72v.121c0 17.61-6.634 34.491-18.288 47.694-10.147 11.495-19.542 27.117-14.709 42.362 9.304 29.349 3.435 44.283-18.088 51.816-21.522 7.533-72.394 55.796-18.914 126.233h350.283c53.48-70.437 2.609-118.7-18.913-126.233z" fill="#ffdd40"/></g><g><path d="m346.915 242c17.872-24.064 10.383-56.958-7.009-59.596h-167.812c-17.392 2.639-24.881 35.532-7.009 59.596s-72 73.227-28.085 143.369h238c43.915-70.142-45.957-119.305-28.085-143.369z" fill="#ffc839"/></g><g><path d="m102.383 457.831h307.235c18.06-14.558 34.021-31.615 47.333-50.665-.001-.009-.001-.017-.002-.026-8.256-22.709-16.99-42.685-24.722-51.911-.904-1.078-1.795-2.019-2.668-2.79-6.623-5.848-19.39-11.382-34.352-16.323-37.929-12.525-89.967-21.232-91.82-21.54h-94.772c-1.853.307-53.892 9.014-91.82 21.54-14.961 4.941-27.729 10.475-34.352 16.323-.874.772-1.765 1.712-2.668 2.79-7.732 9.226-16.467 29.203-24.722 51.911-.001.009-.001.018-.002.026 13.31 19.049 29.272 36.106 47.332 50.665z" fill="#fcad6d"/></g><g><path d="m102.383 457.831h118.606c-17.282-17.151-30.825-37.677-39.83-62.575-7.588-20.984-11.96-45.066-12.65-72.831v-.001c-16.433 3.612-35.381 8.297-51.715 13.691-14.961 4.941-27.729 10.475-34.352 16.323-.874.772-1.765 1.712-2.668 2.79-7.732 9.226-16.467 29.203-24.722 51.911-.001.009-.001.018-.002.026 13.311 19.05 29.273 36.107 47.333 50.666z" fill="#fd995b"/></g><g><path d="m391.147 471.33c6.374-4.223 12.555-8.713 18.491-13.499-4.027-11.7-11.689-21.884-21.736-29.06v42.559z" fill="#fd995b"/></g><g><path d="m124.098 471.33v-42.559c-10.047 7.176-17.708 17.36-21.736 29.06 5.936 4.786 12.117 9.277 18.491 13.499z" fill="#ef854b"/></g><g><path d="m379.202 415.644.017-.006c-.05-.05-.099-.098-.149-.148-1.882-2.145-3.921-4.152-6.097-6.012-35.607-34.723-69.588-61.613-69.588-94.903h-94.772c0 33.29-33.981 60.18-69.588 94.903-2.176 1.86-4.215 3.867-6.097 6.012-.05.05-.099.098-.149.148l.017.006c-11.756 13.487-17.434 32.166-13.151 51.388.604 2.713 1.146 4.246 1.165 4.298v.009c38.75 25.687 85.218 40.661 135.19 40.661 49.971 0 96.439-14.974 135.187-40.661l.001-.009c.019-.052.56-1.586 1.165-4.298 4.283-19.222-1.395-37.901-13.151-51.388z" fill="#3c5082"/></g><g><path d="m208.614 221.239v93.336s19.021 20.093 47.17 20.093c.073 0 .143-.005.216-.005 28.031-.103 47.386-20.088 47.386-20.088v-93.336z" fill="#fcad6d"/></g><g><path d="m208.614 220.734v93.841c94.723 0 94.772-53.4 94.772-53.4v-40.44h-94.772z" fill="#fd995b"/></g><g><path d="m331.058 159.567s10.385-25.285 28.897-19.415-.448 60.664-36.573 64.116z" fill="#fcad6d"/></g><g><path d="m316 91.851c6.171 33.533 27.477 51.149 27.549 51.209.029 1.226.048 2.456.048 3.695 0 64.505-39.219 140.155-87.597 140.155-39.611 0-73.076-50.717-83.906-104.506 92.184-9.194 143.906-90.553 143.906-90.553z" fill="#f9ba8f"/></g><g><path d="m210.585 173.978c-11.908 4.071-24.746 7.055-38.491 8.425 10.83 53.79 44.295 104.507 83.906 104.507 6.881 0 13.576-1.535 20-4.346-32.483-14.215-58.014-61.17-65.415-108.586z" fill="#fcad6d"/></g><g><g><path d="m269.987 192.447-8.436-13.441c-2.569-4.093-8.533-4.093-11.102 0l-8.436 13.441c-2.739 4.365.398 10.038 5.551 10.038h16.871c5.154-.001 8.291-5.674 5.552-10.038z" fill="#fd995b"/></g></g><g><g><path d="m276.616 240.87h-41.233c-4.111-3.622-7.258-8.309-9.01-13.631-1.584-4.811 2.069-9.754 7.134-9.754h44.985c5.065 0 8.718 4.943 7.134 9.754-1.752 5.322-4.899 10.009-9.01 13.631z" fill="#162544"/></g><g><path d="m235.384 240.87c5.493 4.849 12.714 7.798 20.616 7.798s15.124-2.948 20.616-7.798c-5.5-4.849-12.714-7.798-20.616-7.798s-15.116 2.949-20.616 7.798z" fill="#ff4155"/></g></g><g><path d="m310.999 162.085c.043-3.495-1.371-7.004-4.242-9.539-4.675-4.128-11.84-4.128-16.515 0-2.871 2.535-4.284 6.044-4.242 9.539.055 4.538 5.629 6.716 8.838 3.507 2.022-2.022 5.3-2.022 7.322 0 3.21 3.21 8.784 1.032 8.839-3.507z" fill="#162544"/></g><g><path d="m288.5 138.968h20c4.142 0 7.5-3.358 7.5-7.5 0-4.142-3.358-7.5-7.5-7.5h-20c-4.142 0-7.5 3.358-7.5 7.5 0 4.142 3.358 7.5 7.5 7.5z" fill="#ff9100"/></g><g><path d="m301.031 507.862c-56.84-22.966-99.707-56.85-119.872-112.606-2.368-6.548-4.422-13.398-6.15-20.567-10.814 11.031-23.29 22.412-35.983 34.789-2.176 1.86-4.215 3.867-6.097 6.012-.05.05-.099.098-.149.148l.017.006c-11.756 13.487-17.434 32.166-13.151 51.388.604 2.713 1.146 4.246 1.165 4.298v.009c38.749 25.687 85.217 40.661 135.189 40.661 15.384 0 30.434-1.424 45.031-4.138z" fill="#2d3c6b"/></g><g><path d="m256 358.298c-23.415 0-37.67-11.537-45.507-21.215-8.401-10.376-11.305-20.751-11.424-21.188-.729-2.664.839-5.414 3.503-6.143 2.658-.728 5.408.836 6.14 3.495.419 1.497 10.26 35.051 47.288 35.051 37.264 0 47.187-34.692 47.283-35.042.729-2.664 3.479-4.23 6.142-3.503 2.664.729 4.232 3.479 3.503 6.142-.12.437-3.022 10.812-11.423 21.188-7.835 9.678-22.09 21.215-45.505 21.215z" fill="#e9efff"/></g><g><path d="m256 404.553c-10.841 0-20-13.738-20-30s9.159-30 20-30 20 13.738 20 30-9.159 30-20 30z" fill="#73c3f9"/></g><g><path d="m256 374.553c0-10.842 4.074-20.555 10-25.83-2.963-2.637-6.387-4.17-10-4.17-10.841 0-20 13.738-20 30s9.159 30 20 30c3.613 0 7.037-1.533 10-4.17-5.926-5.275-10-14.988-10-25.83z" fill="#4fabf7"/></g></g></svg>