<svg id="Capa_1" enable-background="new 0 0 512 512" height="512" viewBox="0 0 512 512" width="512" xmlns="http://www.w3.org/2000/svg"><g><path d="m436.453 325.3-101.831-33.756-22.855 7.886-39.521 66.327 26.244 146.243h117.909l63.735-78.734v-47.469c-.001-27.472-17.605-51.853-43.681-60.497z" fill="#ece6f2"/><path d="m75.547 325.3 101.831-33.756 22.855 7.886 39.521 66.327-26.244 146.243h-117.908l-63.735-78.734v-47.469c0-27.472 17.604-51.853 43.68-60.497z" fill="#fff5f5"/><path d="m246 414.725 10 97.275h42.49l-16.244-146.243z" fill="#332866"/><path d="m311.767 379.62v-80.19l-55.767 19.242v106.053c52.068 0 55.767-45.105 55.767-45.105z" fill="#180a33"/><path d="m256 414.725v97.275h-42.49l16.244-146.243z" fill="#574d8c"/><path d="m200.233 379.62v-80.19l55.767 19.242v106.053c-52.068 0-55.767-45.105-55.767-45.105z" fill="#332866"/><path d="m358.188 385.506-23.566-93.962h-88.622l10 27.128s21.245 66.834 102.188 66.834z" fill="#cfcfe6"/><path d="m153.812 385.506 23.566-93.962h78.622v27.128s-21.245 66.834-102.188 66.834z" fill="#ece6f2"/><path d="m138.531 191.204h-31.867c-17.6 0-31.868-14.268-31.868-31.868 0-17.6 14.268-31.868 31.868-31.868h31.867z" fill="#895140"/><path d="m373.469 191.204h31.867c17.6 0 31.868-14.268 31.868-31.868 0-17.6-14.268-31.868-31.868-31.868h-31.867z" fill="#5b362a"/><path d="m331.697 24.908h-85.697l10 293.764c70.399 0 127.469-57.07 127.469-127.469v-63.735c0-42.052-20.368-79.343-51.772-102.56z" fill="#895140"/><path d="m180.303 24.908c-31.404 23.217-51.772 60.508-51.772 102.561v63.735c0 70.399 57.07 127.469 127.469 127.469v-293.765z" fill="#b56d3c"/><path d="m184.299 144.336h31.867v30h-31.867z" fill="#332866"/><path d="m295.834 144.336h31.867v30h-31.867z" fill="#180a33"/><path d="m331.697 24.908c-21.169-15.65-47.35-24.908-75.697-24.908l-10 39.834 10 39.834c35.301 0 65.239-22.96 75.697-54.76z" fill="#332866"/><path d="m256 0c-28.346 0-54.528 9.258-75.697 24.908 10.458 31.801 40.396 54.76 75.697 54.76z" fill="#574d8c"/><path d="m95.602 433.266h-63.735v30l31.868 10 31.867-10z" fill="#ece6f2"/><path d="m480.133 433.266h-63.735v30l31.867 10 31.868-10z" fill="#cfcfe6"/><path d="m416.398 463.266h63.735v48.734h-63.735z" fill="#895140"/><path d="m31.867 463.266h63.735v48.734h-63.735z" fill="#b56d3c"/></g></svg>