<svg id="Capa_1" enable-background="new 0 0 512 512" height="512" viewBox="0 0 512 512" width="512" xmlns="http://www.w3.org/2000/svg"><g><path d="m0 256c0-141.257 114.407-255.792 255.615-256 140.877-.207 256.07 114.541 256.384 255.417.181 81.237-37.479 153.685-96.34 200.707-5.726 4.574-13.753 4.829-19.89.822-40.186-26.238-88.197-41.488-139.77-41.488s-99.584 15.25-139.769 41.488c-6.138 4.008-14.167 3.75-19.894-.825-58.718-46.909-96.336-119.122-96.336-200.121z" fill="#ffb52d"/><path d="m461.809 256c0 113.665-92.144 205.809-205.809 205.809s-205.809-92.144-205.809-205.809 92.144-205.809 205.809-205.809 205.809 92.144 205.809 205.809z" fill="#ffc14f"/><path d="m386.159 95c5.747 0 10.902 3.552 12.939 8.926 5.429 14.321 8.402 29.85 8.402 46.074v229h-240.5v-229c0-19.658 4.364-38.296 12.174-55z" fill="#def4f8"/><path d="m187.014 97.553c-7.081 16.042-11.014 33.785-11.014 52.447v229h-71.5v-229c0-16.376 3.028-32.045 8.555-46.478 1.372-3.583 4.787-5.969 8.624-5.969z" fill="#c2eaf2"/><path d="m391 188.416v10c0 13.807-11.193 25-25 25-2.468 0-4.853-.358-7.105-1.024-12.254 32.332-39.309 57.384-72.895 66.883v64.141h-60v-64.141c-33.586-9.5-60.641-34.551-72.895-66.883-2.252.666-4.637 1.024-7.105 1.024-13.807 0-25-11.193-25-25v-10c0-13.807 11.193-25 25-25v-20c0-60.751 49.249-110 110-110 60.751 0 110 49.249 110 110v20c13.807 0 25 11.193 25 25z" fill="#e3a76f"/><path d="m366 143.416v40c0 50.792-34.425 93.543-81.216 106.195-9.023 2.44-18.545 2.44-27.568 0-46.791-12.652-81.216-55.403-81.216-106.195v-40c0-55.663 41.345-101.669 95-108.985 53.655 7.316 95 53.322 95 108.985z" fill="#f2bb88"/><path d="m223.5 150.916c0 8.284-6.716 15-15 15s-15-6.716-15-15 6.716-15 15-15 15 6.716 15 15zm80-15c-8.284 0-15 6.716-15 15s6.716 15 15 15 15-6.716 15-15-6.716-15-15-15z" fill="#61362b"/><path d="m226 143.416c0 4.142-3.358 7.5-7.5 7.5s-7.5-3.358-7.5-7.5 3.358-7.5 7.5-7.5 7.5 3.358 7.5 7.5zm87.5-7.5c-4.142 0-7.5 3.358-7.5 7.5s3.358 7.5 7.5 7.5 7.5-3.358 7.5-7.5-3.358-7.5-7.5-7.5z" fill="#fff5f5"/><path d="m166 323.416h43.333c-38.66 0-70 31.34-70 70v86.282c0 1.388-9.254-.706-13.333-3.115-10.505-6.204-20.528-13.138-30-20.731v-62.436c0-38.66 31.34-70 70-70z" fill="#2e5aac"/><path d="m416 393.416v62.436c-43.827 35.133-99.459 56.148-160 56.148-47.457 0-91.897-12.913-130-35.417v-83.167c0-38.66 31.34-70 70-70h14v-3.416c0-5.523 4.477-10 10-10h72c5.523 0 10 4.477 10 10v3.416h44c38.66 0 70 31.34 70 70z" fill="#4172cc"/><path d="m256 430c-5.523 0-10-4.477-10-10v-110h20v110c0 5.523-4.477 10-10 10zm90.077-44.532h-54.678v38.967l27.339 15.298 27.339-15.298zm-182.255 54.532c-4.142 0-7.5 3.358-7.5 7.5v44.369c4.923 2.083 9.925 4.017 15 5.795v-50.164c0-4.142-3.358-7.5-7.5-7.5zm191.856 7.5v44.369c-4.923 2.083-9.925 4.017-15 5.795v-50.164c0-4.142 3.358-7.5 7.5-7.5s7.5 3.358 7.5 7.5z" fill="#2e5aac"/><path d="m346.476 400h-55.476c-2.761 0-5-2.239-5-5v-10c0-2.761 2.239-5 5-5h55.476c2.761 0 5 2.239 5 5v10c0 2.761-2.238 5-5 5zm-90.476-74.084c-4.142 0-7.5 3.358-7.5 7.5s3.358 7.5 7.5 7.5 7.5-3.358 7.5-7.5-3.358-7.5-7.5-7.5zm7.5 34.848c0 4.142-3.358 7.5-7.5 7.5s-7.5-3.358-7.5-7.5 3.358-7.5 7.5-7.5 7.5 3.357 7.5 7.5zm0 27.347c0 4.142-3.358 7.5-7.5 7.5s-7.5-3.358-7.5-7.5 3.358-7.5 7.5-7.5 7.5 3.358 7.5 7.5zm0 27.348c0 4.142-3.358 7.5-7.5 7.5s-7.5-3.358-7.5-7.5 3.358-7.5 7.5-7.5 7.5 3.357 7.5 7.5z" fill="#274c91"/><path d="m380.362 143v47c0 60.751-48.608 110-108.57 110h-31.584c-.262 0-.524-.001-.785-.003-37.815-.271-68.21-31.282-68.21-69.098v-10.334c0-3.712 4.499-5.508 7.09-2.849 6.724 6.903 14.355 12.896 22.698 17.783v-25.499c0-11.046 8.954-20 20-20h70c11.046 0 20 8.954 20 20v25.499c32.023-18.757 53.57-53.828 53.57-93.999 0-59.923-47.945-108.5-107.089-108.5h14.311c59.96 0 108.569 49.249 108.569 110z" fill="#784132"/><path d="m278.181 299.813c-2.114.124-4.244.188-6.389.188h-31.584c-59.961 0-108.57-49.249-108.57-110v-47c0-60.751 48.608-110 108.57-110h14.311c-59.143-.001-107.089 48.576-107.089 108.499 0 29.083 11.294 55.494 29.681 74.975.912.967 5.023 4.923 5.97 5.855 12.123 44.518 47.991 74.712 95.1 77.483z" fill="#61362b"/><path d="m399.127 104h-52.601c-16.003 0-31.929 3.022-46.574 9.472-9.532 4.198-20.07 6.528-31.154 6.528h-25.595c-11.084 0-21.623-2.331-31.155-6.528-9.377-4.13-19.28-6.854-29.391-8.279-7.392-1.042-11.318-9.32-7.457-15.71 9.231-15.277 20.392-29.257 33.144-41.602 18.53-17.938 43.366-27.881 69.156-27.881 55.601 0 103.049 34.906 121.627 84z" fill="#def4f8"/><path d="m182.815 105.215c-5.753-.822-11.509-1.215-17.341-1.215h-52.6c18.577-49.094 66.025-84 121.627-84h43c10.081 0 19.893 1.148 29.315 3.319h-3.123c-54.808 0-101.757 33.907-120.878 81.896z" fill="#c2eaf2"/><path d="m372 70h-232c-5.523 0-10-4.477-10-10v-10c0-5.523 4.477-10 10-10h232c5.523 0 10 4.477 10 10v10c0 5.523-4.477 10-10 10z" fill="#c97e67"/><path d="m187.5 70h-47.5c-5.523 0-10-4.477-10-10v-10c0-5.523 4.477-10 10-10h47.5c-5.523 0-10 4.477-10 10v10c0 5.523 4.477 10 10 10z" fill="#c0694e"/><path d="m386 80h-217.25c-5.523 0-10-4.477-10-10 0-5.523 4.477-10 10-10h217.25c5.523 0 10 4.477 10 10 0 5.523-4.477 10-10 10z" fill="#d29380"/><path d="m176 80h-50c-5.523 0-10-4.477-10-10s4.477-10 10-10h50c-5.523 0-10 4.477-10 10s4.477 10 10 10z" fill="#c97e67"/><path d="m241.5 190.148c-2.929-2.93-2.929-7.678 0-10.607 2.929-2.928 7.678-2.928 10.606 0 1.042 1.042 2.424 1.616 3.893 1.616s2.851-.574 3.893-1.616c2.929-2.928 7.678-2.928 10.606 0 2.929 2.93 2.929 7.678 0 10.607-3.875 3.875-9.024 6.009-14.5 6.009s-10.623-2.134-14.498-6.009z" fill="#d6995c"/><path d="m256 253.416c-16.569 0-30-13.431-30-30 0-4.142 3.358-7.5 7.5-7.5h45c4.142 0 7.5 3.358 7.5 7.5 0 16.569-13.431 30-30 30z" fill="#fff5f5"/><path d="m263.5 252.471c-2.397.617-4.91.945-7.5.945-16.568 0-30-13.431-30-30 0-4.142 3.358-7.5 7.5-7.5h15c-4.142 0-7.5 3.358-7.5 7.5 0 13.979 9.561 25.725 22.5 29.055z" fill="#def4f8"/></g></svg>