<svg height="512pt" viewBox="0 0 512 512" width="512pt" xmlns="http://www.w3.org/2000/svg"><path d="m512 256c0 45.140625-11.691406 87.550781-32.191406 124.371094-.359375.640625-.707032 1.277344-1.078125 1.910156-.601563 1.058594-1.210938 2.109375-1.832031 3.160156-.226563.386719-.457032.777344-.699219 1.167969-9.550781 16.101563-20.820313 31.050781-33.558594 44.609375-.539063.582031-1.089844 1.152344-1.652344 1.722656-8.046875 8.417969-16.667969 16.296875-25.808593 23.546875-5.050782 4.03125-10.257813 7.871094-15.628907 11.511719-5.972656 4.050781-12.128906 7.851562-18.449219 11.398438-.550781.3125-1.101562.613281-1.652343.910156-19.089844 10.53125-39.660157 18.703125-61.328125 24.089844-19.882813 4.972656-40.699219 7.601562-62.121094 7.601562-21.429688 0-42.238281-2.628906-62.121094-7.601562-21.050781-5.238282-41.070312-13.089844-59.6875-23.1875-.550781-.300782-1.101562-.601563-1.652344-.921876-8.519531-4.6875-16.738281-9.847656-24.617187-15.460937-12.660156-8.976563-24.460937-19.089844-35.273437-30.167969-.546876-.570312-1.109376-1.140625-1.648438-1.71875-13.109375-13.691406-24.691406-28.832031-34.511719-45.160156-.238281-.390625-.46875-.78125-.699219-1.171875-.488281-.808594-.960937-1.621094-1.429687-2.4375v-.011719c-.371094-.628906-.730469-1.261718-1.078125-1.898437-21.179688-37.25-33.28125-80.339844-33.28125-126.261719 0-98.410156 55.539062-183.859375 136.980469-226.710938.007812 0 .007812-.007812.019531-.007812 5.261719-2.769531 10.628906-5.351562 16.101562-7.761719h.007813c29.589844-13 62.101563-20.570312 96.28125-21.441406 1.640625-.046875 3.289063-.0664062 4.960937-.0664062.546876-.0117188 1.097657-.0117188 1.648438-.0117188 43.011719 0 83.539062 10.609375 119.128906 29.371094 4.371094 2.289062 8.660156 4.707031 12.871094 7.25 74.308594 44.800781 124 126.289062 124 219.378906zm0 0" fill="#40b4d3"/><path d="m415.179688 261.980469v194.507812c-10.691407 8.523438-22.078126 16.183594-34.078126 22.910157-.550781.3125-1.101562.613281-1.652343.910156-19.089844 10.53125-39.660157 18.703125-61.328125 24.089844h-124.242188c-21.050781-5.238282-41.070312-13.089844-59.6875-23.1875-.550781-.300782-1.101562-.601563-1.652344-.921876-8.519531-4.6875-16.738281-9.847656-24.617187-15.460937v-202.847656zm0 0" fill="#ff931f"/><path d="m398.410156 468.761719c-12.339844 8.277343-25.441406 15.519531-39.179687 21.566406-10.652344 4.703125-21.679688 8.703125-33.03125 11.921875-22.300781 6.351562-45.847657 9.75-70.199219 9.75-24.339844 0-47.890625-3.398438-70.199219-9.738281-7.242187-2.0625-14.359375-4.441407-21.332031-7.121094-.429688-.160156-.859375-.320313-1.289062-.492187-3.507813-1.359376-6.980469-2.808594-10.410157-4.320313-13.738281-6.058594-26.839843-13.289063-39.191406-21.578125 10.390625-14.371094 23.761719-26.429688 39.191406-35.320312 10.199219-5.871094 21.300781-10.339844 33.03125-13.148438.160157-.042969.328125-.082031.488281-.109375 1.652344-.402344 3.320313-.761719 4.992188-1.082031 1.660156-.320313 3.328125-.609375 5.007812-.859375 1.839844-.28125 3.691407-.519531 5.5625-.710938 1.027344-.109375 2.046876-.210937 3.089844-.289062 3.378906-.28125 6.796875-.421875 10.257813-.421875h81.589843c4.519532 0 8.972657.242187 13.351563.703125 1.871094.1875 3.730469.429687 5.570313.707031 1.679687.25 3.339843.542969 5 .851562 1.390624.269532 2.769531.558594 4.140624.871094.289063.078125.570313.136719.859376.207032.167968.042968.328124.082031.488281.121093 11.742187 2.820313 22.832031 7.289063 33.03125 13.160157 15.429687 8.898437 28.789062 20.960937 39.179687 35.332031zm0 0" fill="#f9c5ac"/><path d="m215.203125 416.808594c-29.359375 0-49.257813 42.429687-50.730469 78.332031-.429687-.160156-.859375-.320313-1.289062-.492187-3.507813-1.359376-6.980469-2.808594-10.410156-4.320313-13.738282-6.058594-26.839844-13.289063-39.1875-21.578125 10.386718-14.371094 23.757812-26.429688 39.1875-35.320312 10.199218-5.871094 21.300781-10.339844 33.03125-13.148438 1.808593-.441406 3.640624-.839844 5.480468-1.191406 3.46875-.679688 7-1.199219 10.570313-1.570313 1.027343-.109375 2.046875-.210937 3.089843-.289062 3.378907-.28125 6.796876-.421875 10.257813-.421875zm0 0" fill="#efb29a"/><path d="m324.851562 419.941406c-1.371093-.3125-2.75-.601562-4.140624-.871094-1.660157-.308593-3.320313-.601562-5-.851562v5.191406c0 26.339844-16.902344 49.261719-42.070313 57.039063-5.691406 1.761719-11.628906 2.660156-17.652344 2.660156-32.917969 0-59.699219-26.78125-59.699219-59.699219v-5.179687c-1.679687.25-3.347656.539062-5.007812.859375-1.671875.320312-3.339844.679687-4.992188 1.082031v3.238281c0 38.429688 31.269532 69.699219 69.699219 69.699219 7.03125 0 13.960938-1.050781 20.613281-3.109375 29.378907-9.078125 49.109376-35.839844 49.109376-66.589844v-3.261718c-.289063-.070313-.570313-.128907-.859376-.207032zm0 0" fill="#f93d6e"/><path d="m300.710938 368.539062v54.867188c0 20.089844-13.246094 37.066406-31.488282 42.707031-4.175781 1.296875-8.628906 1.996094-13.230468 1.996094-24.691407 0-44.703126-20.011719-44.703126-44.703125v-54.867188zm0 0" fill="#efb29a"/><path d="m300.710938 419.933594v3.472656c0 20.089844-13.246094 37.066406-31.488282 42.707031-16.460937-5.058593-28.839844-19.371093-31.125-36.882812 2.988282.183593 5.992188.273437 9.007813.273437 8.460937 0 16.75-.671875 24.828125-1.996094 9.953125-1.601562 19.570312-4.160156 28.777344-7.574218zm0 0" fill="#f9c5ac"/><path d="m132.542969 278.152344c0 20.496094-14.972657 37.492187-34.578125 40.648437-2.144532.34375-4.347656.527344-6.597656.527344-22.746094 0-41.171876-18.429687-41.171876-41.175781s18.425782-41.175782 41.171876-41.175782c2.25 0 4.453124.179688 6.597656.527344 19.605468 3.15625 34.578125 20.152344 34.578125 40.648438zm0 0" fill="#f9c5ac"/><path d="m132.542969 278.152344c0 20.496094-14.972657 37.492187-34.578125 40.648437-3.5625-12.953125-5.464844-26.582031-5.464844-40.648437s1.902344-27.695313 5.464844-40.644532c19.605468 3.152344 34.578125 20.148438 34.578125 40.644532zm0 0" fill="#efb29a"/><path d="m106.085938 278.152344c0 8.128906-6.589844 14.714844-14.714844 14.714844-8.128906 0-14.71875-6.585938-14.71875-14.714844 0-8.125 6.589844-14.714844 14.71875-14.714844 8.125 0 14.714844 6.589844 14.714844 14.714844zm0 0" fill="#efb29a"/><path d="m379.453125 278.152344c0 20.496094 14.972656 37.492187 34.578125 40.648437 2.144531.34375 4.347656.527344 6.597656.527344 22.746094 0 41.175782-18.429687 41.175782-41.175781s-18.429688-41.175782-41.175782-41.175782c-2.25 0-4.453125.179688-6.597656.527344-19.605469 3.15625-34.578125 20.152344-34.578125 40.648438zm0 0" fill="#f9c5ac"/><path d="m379.453125 278.152344c0 20.496094 14.972656 37.492187 34.578125 40.648437 3.5625-12.953125 5.464844-26.582031 5.464844-40.648437s-1.902344-27.695313-5.464844-40.644532c-19.605469 3.152344-34.578125 20.148438-34.578125 40.644532zm0 0" fill="#efb29a"/><path d="m435.34375 278.152344c0 8.128906-6.589844 14.714844-14.714844 14.714844-8.128906 0-14.71875-6.585938-14.71875-14.714844 0-8.125 6.589844-14.714844 14.71875-14.714844 8.125 0 14.714844 6.589844 14.714844 14.714844zm0 0" fill="#efb29a"/><path d="m410.699219 256.511719c0 76.984375-56.238281 140.847656-129.871094 152.703125-8.078125 1.328125-16.371094 2-24.832031 2-85.441406 0-154.699219-69.257813-154.699219-154.703125v-157.5h309.402344zm0 0" fill="#f9c5ac"/><g fill="#efb29a"><path d="m283.246094 408.808594c-.800782.140625-1.609375.28125-2.417969.410156-8.082031 1.320312-16.371094 1.992188-24.832031 1.992188-85.4375 0-154.699219-69.25-154.699219-154.699219v-157.5h54.550781v157.5c0 76.136719 54.980469 139.410156 127.398438 152.296875zm0 0"/><path d="m273.546875 291.695312h-35.097656c-4.179688 0-7.570313-3.390624-7.570313-7.570312 0-4.183594 3.390625-7.570312 7.570313-7.570312h35.097656c4.183594 0 7.570313 3.386718 7.570313 7.570312 0 4.179688-3.386719 7.570312-7.570313 7.570312zm0 0"/><path d="m281.34375 249.160156c0 17.164063 13.914062 31.082032 31.082031 31.082032 17.164063 0 31.078125-13.917969 31.078125-31.082032"/></g><path d="m334.710938 249.160156c0 12.308594-9.976563 22.289063-22.285157 22.289063-12.3125 0-22.289062-9.980469-22.289062-22.289063s9.976562-22.285156 22.289062-22.285156c12.308594 0 22.285157 9.976562 22.285157 22.285156zm0 0" fill="#2f373b"/><path d="m331.261719 245.226562c0 5.277344-4.277344 9.550782-9.550781 9.550782-5.273438 0-9.550782-4.273438-9.550782-9.550782 0-5.273437 4.277344-9.546874 9.550782-9.546874 5.273437 0 9.550781 4.273437 9.550781 9.546874zm0 0" fill="#fff"/><path d="m168.492188 249.160156c0 17.164063 13.917968 31.082032 31.082031 31.082032 17.164062 0 31.078125-13.917969 31.078125-31.082032" fill="#efb29a"/><path d="m221.859375 249.160156c0 12.308594-9.976563 22.289063-22.285156 22.289063-12.308594 0-22.289063-9.980469-22.289063-22.289063s9.980469-22.285156 22.289063-22.285156c12.308593 0 22.285156 9.976562 22.285156 22.285156zm0 0" fill="#2f373b"/><path d="m204.785156 270.832031c-1.667968.410157-3.417968.617188-5.210937.617188-12.308594 0-22.289063-9.976563-22.289063-22.289063 0-12.308594 9.980469-22.289062 22.289063-22.289062 1.792969 0 3.542969.210937 5.210937.621094-9.800781 2.339843-17.070312 11.160156-17.070312 21.667968 0 10.511719 7.269531 19.332032 17.070312 21.671875zm0 0" fill="#181e21"/><path d="m317.636719 270.832031c-1.667969.410157-3.417969.617188-5.210938.617188-12.308593 0-22.289062-9.976563-22.289062-22.289063 0-12.308594 9.980469-22.289062 22.289062-22.289062 1.792969 0 3.542969.210937 5.210938.621094-9.800781 2.339843-17.070313 11.160156-17.070313 21.667968 0 10.511719 7.269532 19.332032 17.070313 21.671875zm0 0" fill="#181e21"/><path d="m218.410156 245.226562c0 5.277344-4.273437 9.550782-9.546875 9.550782-5.277343 0-9.550781-4.273438-9.550781-9.550782 0-5.273437 4.273438-9.546874 9.550781-9.546874 5.273438 0 9.546875 4.273437 9.546875 9.546874zm0 0" fill="#fff"/><path d="m478.730469 382.28125c-.601563 1.058594-1.210938 2.109375-1.832031 3.160156-.226563.386719-.457032.777344-.699219 1.167969l-.949219-1.167969-34.261719-41.992187v89.492187c-17.476562 18.277344-37.648437 33.988282-59.886719 46.457032-.550781.3125-1.101562.613281-1.652343.910156v-202.160156c0-105.199219-123.449219-99.636719-123.449219-170.136719 0 70.5-123.460938 64.9375-123.460938 170.136719l-24.96875 129.480468c-22.179687-12.207031-17.378906 45.019532-34.921874 27.03125-.546876-.570312-1.109376-1.140625-1.648438-1.71875v-89.492187l-35.210938 43.160156c-.488281-.808594-.960937-1.621094-1.429687-2.4375v-.011719c-.371094-.628906-.730469-1.261718-1.078125-1.898437l49.699219-166.511719-43.902344 59.859375 62.222656-176.597656-48.921875 42.25s15.070313-70.589844 84.601563-111.972657c.007812 0 .007812-.007812.019531-.007812 4.578125-2.722656 9.398438-5.3125 14.460938-7.761719 25.390624-12.257812 57.019531-20.609375 96.277343-21.441406 2.183594-.0585938 4.382813-.078125 6.613281-.078125h3.296876c50.421874 0 88.640624 12.171875 117.480468 29.371094 3.910156 2.328125 7.652344 4.75 11.222656 7.25 59.859376 41.847656 73.269532 104.640625 73.269532 104.640625l-48.921875-42.25 62.222656 176.597656-43.902344-59.859375 49.140625 164.621094zm0 0" fill="#ffbb16"/><path d="m254.351562 0v.0117188c0 36.1796872-14.421874 113.3164062-64.960937 151.8984372-50.550781 38.570313-56.851563 80.898438-56.851563 126.238282v202.140624c-22.179687-12.210937-42.347656-27.640624-59.890624-45.628906-.546876-.570312-1.109376-1.140625-1.648438-1.71875v-89.492187l-35.210938 43.160156c-.488281-.808594-.960937-1.621094-1.429687-2.4375v-.011719c-.371094-.628906-.730469-1.261718-1.078125-1.898437l49.699219-166.511719-43.902344 59.859375 62.222656-176.597656-48.921875 42.25s15.070313-70.589844 84.601563-111.972657c.007812 0 .019531-.007812.019531-.007812 4.578125-2.722656 9.390625-5.320312 14.449219-7.761719h.011719c25.390624-12.257812 57.019531-20.609375 96.277343-21.441406 2.183594-.0585938 4.382813-.078125 6.613281-.078125zm0 0" fill="#ff931f"/><path d="m399.550781 266.300781v201.699219c-5.972656 4.050781-12.128906 7.851562-18.449219 11.398438-.550781.3125-1.101562.613281-1.652343.910156v-202.160156c0-105.199219-123.449219-99.636719-123.449219-170.136719v-33.25c0 33.25 143.550781 109.066406 143.550781 191.539062zm0 0" fill="#ff931f"/><path d="m300.210938 309.480469v.058593c0 5.789063-1.371094 11.261719-3.8125 16.109376-5.898438 11.722656-18.039063 19.761718-32.058594 19.761718h-16.589844c-14.019531 0-26.160156-8.039062-32.070312-19.761718-2.441407-4.847657-3.808594-10.320313-3.808594-16.109376v-.058593zm0 0" fill="#f1eee9"/></svg>