<svg id="Capa_1" enable-background="new 0 0 512 512" height="512" viewBox="0 0 512 512" width="512" xmlns="http://www.w3.org/2000/svg"><g><g><path d="m55.031 407.139c-27.744-39.712-44.031-88.02-44.031-140.139 0-135.31 109.69-245 245-245s245 109.69 245 245c0 52.119-16.287 100.427-44.031 140.139z" fill="#7255ce"/></g><g><circle cx="256" cy="242" fill="#5c45bf" r="200"/></g><g><path d="m109.204 248.951c0-4.737 1.372-9.148 3.737-12.87 2.23-3.51 2.79-7.758 1.544-11.726-1.321-4.206-1.505-8.823-.279-13.398s3.693-8.481 6.94-11.464c3.063-2.813 4.702-6.771 4.526-10.927-.187-4.405.83-8.912 3.199-13.014 2.368-4.102 5.763-7.236 9.671-9.277 3.687-1.925 6.295-5.324 7.2-9.383.959-4.303 3.108-8.393 6.458-11.743 3.35-3.349 7.439-5.498 11.743-6.458 4.059-.905 7.458-3.513 9.383-7.2 2.04-3.908 5.175-7.303 9.277-9.671s8.609-3.386 13.014-3.199c4.155.176 8.113-1.463 10.927-4.526 2.983-3.247 6.888-5.715 11.464-6.94 4.575-1.226 9.192-1.042 13.398.279 3.968 1.246 8.215.687 11.726-1.544 3.721-2.365 8.133-3.737 12.87-3.737s9.148 1.372 12.87 3.737c3.51 2.23 7.758 2.79 11.726 1.544 4.207-1.321 8.823-1.505 13.398-.279 4.576 1.226 8.481 3.693 11.464 6.94 2.813 3.063 6.771 4.702 10.927 4.526 4.405-.187 8.912.83 13.014 3.199 4.102 2.368 7.237 5.763 9.277 9.671 1.925 3.687 5.324 6.295 9.383 7.2 4.303.959 8.393 3.108 11.743 6.458s5.499 7.439 6.458 11.743c.905 4.059 3.513 7.458 7.2 9.383 3.908 2.041 7.303 5.175 9.671 9.277s3.386 8.609 3.199 13.014c-.176 4.155 1.463 8.113 4.526 10.927 3.247 2.983 5.714 6.888 6.94 11.464s1.042 9.192-.279 13.398c-1.246 3.968-.687 8.215 1.544 11.725 2.365 3.721 3.737 8.133 3.737 12.87s-1.372 9.148-3.737 12.87c-2.23 3.51-2.79 7.758-1.544 11.725 1.321 4.207 1.505 8.823.279 13.398s-3.693 8.481-6.94 11.464c-3.063 2.813-4.702 6.771-4.526 10.927.187 4.405-.83 8.912-3.199 13.014-2.368 4.102-5.763 7.236-9.671 9.277-3.687 1.925-6.295 5.324-7.2 9.383-.959 4.303-3.108 8.393-6.458 11.743-3.35 3.349-7.439 5.498-11.743 6.458-4.059.905-7.458 3.513-9.383 7.2-2.041 3.908-5.175 7.303-9.277 9.671s-8.609 3.386-13.014 3.199c-4.155-.176-8.113 1.463-10.927 4.526-2.983 3.247-6.888 5.714-11.464 6.94s-9.192 1.042-13.398-.279c-3.968-1.246-8.215-.687-11.725 1.544-3.721 2.365-8.133 3.737-12.87 3.737s-9.148-1.372-12.87-3.737c-3.51-2.23-7.758-2.79-11.725-1.544-4.207 1.321-8.823 1.505-13.398.279s-8.481-3.693-11.464-6.94c-2.813-3.063-6.771-4.702-10.927-4.526-4.405.187-8.912-.83-13.014-3.199-4.102-2.368-7.236-5.763-9.277-9.671-1.925-3.687-5.324-6.295-9.383-7.2-4.303-.959-8.393-3.108-11.743-6.458s-5.499-7.439-6.458-11.743c-.905-4.059-3.513-7.458-7.2-9.383-3.908-2.041-7.303-5.175-9.671-9.277s-3.386-8.609-3.199-13.014c.176-4.155-1.463-8.113-4.526-10.927-3.247-2.983-5.714-6.888-6.94-11.464s-1.042-9.192.279-13.398c1.246-3.968.687-8.215-1.544-11.726-2.367-3.719-3.739-8.131-3.739-12.868z" fill="#213159"/></g><g><path d="m339.003 36.423c-19.784-22.322-47.62-36.423-81.869-36.423s-48.985 5.638-62.772 12-14.708 34.073-14.708 34.073c-17.176 18.715-27.663 43.666-27.663 71.07v30.076h210.286v-30.076c0-23.009-3.49-58.398-23.274-80.72z" fill="#2d3c6b"/></g><g><path d="m151.991 117.143v30.076h42.846v-62.315c-10.759-7.032-15.794-24.117-15.183-38.831-17.176 18.714-27.663 43.666-27.663 71.07z" fill="#213159"/></g><g><path d="m456.949 407.139c-8.256-22.709-16.99-42.685-24.722-51.911-.904-1.078-1.795-2.019-2.668-2.79-6.623-5.848-19.39-11.382-34.352-16.323-6.213-2.052-12.805-4-19.492-5.827l-18.352 6.563-13.87-14.426v-.001c-21.725-4.775-39.05-7.674-40.105-7.849h-94.772c-1.055.175-18.38 3.074-40.105 7.849v.001l-13.87 14.426-18.352-6.563c-6.687 1.827-13.279 3.775-19.492 5.827-14.961 4.941-27.729 10.475-34.352 16.323-.874.772-1.765 1.712-2.668 2.79-7.732 9.226-16.467 29.203-24.722 51.911-.001.009-.001.018-.002.026 13.312 19.05 29.274 36.107 47.333 50.665h307.235c18.06-14.558 34.021-31.615 47.333-50.665-.004-.008-.004-.017-.005-.026z" fill="#a05838"/></g><g><path d="m276.616 369.362s10.767-11.809 23.703-11.809 55.191 11.809 55.191 11.809z" fill="#934a2e"/></g><g><path d="m235.384 369.362s-10.767-11.809-23.703-11.809-55.191 11.809-55.191 11.809z" fill="#934a2e"/></g><g><path d="m181.159 395.255c-7.588-20.983-11.96-45.066-12.65-72.83l-13.87 14.426-18.352-6.563c-6.687 1.827-13.279 3.775-19.492 5.827-14.961 4.941-27.729 10.475-34.352 16.323-.874.772-1.765 1.712-2.668 2.79-7.732 9.226-16.467 29.203-24.722 51.911-.001.009-.001.018-.002.026 13.312 19.05 29.274 36.107 47.333 50.665h118.606c-17.283-17.15-30.826-37.676-39.831-62.575z" fill="#934a2e"/></g><g><path d="m136.286 330.288c-.13 43.613-8.91 85.439-15.491 110.712h85.304c-22.866-29.663-36.333-68.013-37.59-118.575-10.183 2.238-21.328 4.887-32.223 7.863z" fill="#ff9100"/></g><g><path d="m375.714 330.288c.13 43.613 8.91 85.439 15.491 110.712h-85.304c22.866-29.663 36.333-68.013 37.59-118.575 10.183 2.238 21.328 4.887 32.223 7.863z" fill="#ffb332"/></g><g><path d="m391.147 471.33c6.374-4.223 12.555-8.713 18.491-13.499-4.027-11.7-11.689-21.884-21.736-29.06v42.559z" fill="#934a2e"/></g><g><path d="m124.098 471.33v-42.559c-10.047 7.176-17.708 17.36-21.736 29.06 5.936 4.786 12.117 9.277 18.491 13.499z" fill="#823821"/></g><g><path d="m177.575 395.255c-37.77 0-66.143 34.911-57.928 71.776.604 2.713 1.146 4.246 1.165 4.298v.009c38.748 25.688 85.216 40.662 135.188 40.662 49.971 0 96.439-14.974 135.187-40.661l.001-.009c.019-.052.56-1.586 1.165-4.298 8.215-36.866-20.158-71.776-57.928-71.776h-156.85z" fill="#ffdd40"/></g><g><path d="m301.031 507.862c-56.84-22.966-99.707-56.85-119.872-112.606h-3.584c-37.77 0-66.143 34.911-57.928 71.776.604 2.713 1.146 4.246 1.165 4.298v.009c38.748 25.687 85.216 40.661 135.188 40.661 15.384 0 30.434-1.424 45.031-4.138z" fill="#ffc839"/></g><g><path d="m208.614 221.239v93.336s19.021 20.093 47.17 20.093c.073 0 .143-.005.216-.005 28.031-.103 47.386-20.088 47.386-20.088v-93.336z" fill="#a05838"/></g><g><path d="m208.614 220.734v93.841c94.723 0 94.772-53.4 94.772-53.4v-40.44h-94.772z" fill="#934a2e"/></g><g><path d="m180.942 159.567s-10.385-25.285-28.897-19.415.448 60.664 36.573 64.116z" fill="#934a2e"/></g><g><path d="m331.058 159.567s10.385-25.285 28.897-19.415-.448 60.664-36.573 64.116z" fill="#a05838"/></g><g><path d="m194.837 84.904c-10.322 3.439-17.93 12.279-20.432 22.867-2.552 10.801-6.002 27.519-6.002 38.984 0 64.505 39.219 140.155 87.597 140.155s87.597-75.65 87.597-140.155c0-1.674-.033-2.084-.085-3.733-81.411-.002-112.185-70.275-148.675-58.118z" fill="#b76c4e"/></g><g><path d="m276 282.564c-38.741-16.953-67.597-80.479-67.597-135.809 0-21.971 4.564-41.826 12.476-58.475-8.87-4.459-17.292-6.291-26.042-3.376-10.322 3.439-17.93 12.279-20.432 22.867-2.552 10.801-6.002 27.519-6.002 38.984 0 64.505 39.219 140.155 87.597 140.155 6.881 0 13.576-1.535 20-4.346z" fill="#a05838"/></g><g><path d="m223.5 138.968h-20c-4.142 0-7.5-3.358-7.5-7.5 0-4.142 3.358-7.5 7.5-7.5h20c4.142 0 7.5 3.358 7.5 7.5 0 4.142-3.358 7.5-7.5 7.5z" fill="#162544"/></g><g><path d="m308.5 138.968h-20c-4.142 0-7.5-3.358-7.5-7.5 0-4.142 3.358-7.5 7.5-7.5h20c4.142 0 7.5 3.358 7.5 7.5 0 4.142-3.358 7.5-7.5 7.5z" fill="#162544"/></g><g><g><path d="m242.013 192.447 8.436-13.441c2.569-4.093 8.533-4.093 11.102 0l8.436 13.441c2.739 4.365-.398 10.038-5.551 10.038h-16.871c-5.154-.001-8.291-5.674-5.552-10.038z" fill="#934a2e"/></g></g><g><g><path d="m235.384 240.87h41.233c4.111-3.622 7.258-8.309 9.01-13.631 1.584-4.811-2.069-9.754-7.134-9.754h-44.985c-5.065 0-8.718 4.943-7.134 9.754 1.752 5.322 4.899 10.009 9.01 13.631z" fill="#162544"/></g><g><path d="m276.616 240.87c-5.493 4.849-12.714 7.798-20.616 7.798s-15.124-2.948-20.616-7.798c5.5-4.849 12.714-7.798 20.616-7.798s15.116 2.949 20.616 7.798z" fill="#ff4155"/></g></g><g><path d="m310.999 162.085c.043-3.495-1.371-7.004-4.242-9.539-4.675-4.128-11.84-4.128-16.515 0-2.871 2.535-4.284 6.044-4.242 9.539.055 4.538 5.629 6.716 8.838 3.507 2.022-2.022 5.3-2.022 7.322 0 3.21 3.21 8.784 1.032 8.839-3.507z" fill="#162544"/></g><g><path d="m201.001 162.085c-.043-3.495 1.371-7.004 4.242-9.539 4.675-4.128 11.84-4.128 16.515 0 2.871 2.535 4.284 6.044 4.242 9.539-.055 4.538-5.629 6.716-8.838 3.507-2.022-2.022-5.3-2.022-7.322 0-3.21 3.21-8.784 1.032-8.839-3.507z" fill="#162544"/></g><g><circle cx="207.862" cy="314.575" fill="#bec8f7" r="12.5"/></g><g><circle cx="227.515" cy="327.866" fill="#dae2fe" r="15"/></g><g><circle cx="304.138" cy="314.575" fill="#bec8f7" r="12.5"/></g><g><circle cx="284.485" cy="327.866" fill="#dae2fe" r="15"/></g><g><circle cx="256" cy="334.663" fill="#e9efff" r="17.5"/></g></g></svg>