<svg id="Capa_1" enable-background="new 0 0 512 512" height="512" viewBox="0 0 512 512" width="512" xmlns="http://www.w3.org/2000/svg"><g><path d="m128.531 191.203s-58.559 41.364-35.902 128.434h163.371v-128.434z" fill="#332866"/><path d="m383.469 191.203h-127.469v128.434h163.371c22.656-87.07-35.902-128.434-35.902-128.434z" fill="#180a33"/><path d="m480.133 385.797c0-27.472-17.603-51.853-43.68-60.497l-71.831-23.811-10 80.918 10 129.593h115.511z" fill="#e50058"/><path d="m334.622 291.544-10 90.863 10 129.593h30v-210.511z" fill="#c50048"/><path d="m75.547 325.3c-26.077 8.644-43.68 33.025-43.68 60.497v126.203h115.511l10-129.593-10-80.918z" fill="#ff4a4a"/><path d="m147.378 301.489v210.511h30l10-129.593-10-90.863z" fill="#e50058"/><path d="m256 512h78.622v-129.593l-88.622-10z" fill="#ece6f2"/><path d="m177.378 382.407v129.593h78.622v-139.593z" fill="#fff5f5"/><path d="m256 382.407h78.622v-90.863h-88.622z" fill="#c78f2c"/><path d="m177.378 291.544h78.622v90.863h-78.622z" fill="#e1bb78"/><path d="m373.469 127.468h31.867c17.6 0 31.868 14.268 31.868 31.868 0 17.6-14.268 31.868-31.868 31.868h-31.867z" fill="#c78f2c"/><path d="m138.531 191.204h-31.867c-17.6 0-31.868-14.268-31.868-31.868 0-17.6 14.268-31.868 31.868-31.868h31.867z" fill="#e1bb78"/><path d="m246 84.897 10 233.775c70.399 0 127.469-57.07 127.469-127.469v-63.735z" fill="#e1bb78"/><path d="m255.988 84.882-127.457 42.587v63.735c0 70.399 57.07 127.469 127.469 127.469v-223.776c-.004-.005-.008-10.01-.012-10.015z" fill="#edd7b0"/><path d="m295.834 160.27h31.867v30h-31.867z" fill="#180a33"/><path d="m184.299 160.27h31.867v30h-31.867z" fill="#332866"/><path d="m319.723 127.469h63.746c0-70.399-57.07-127.469-127.469-127.469l-10 48.682 10 46.215c14.323 19.717 37.544 32.572 63.723 32.572z" fill="#332866"/><path d="m128.531 127.469h63.723c26.186 0 49.412-12.862 63.734-32.587.004.005.008.01.012.016v-94.898c-70.399 0-127.469 57.07-127.469 127.469z" fill="#574d8c"/></g></svg>