<svg id="Capa_1" enable-background="new 0 0 512 512" height="512" viewBox="0 0 512 512" width="512" xmlns="http://www.w3.org/2000/svg"><g><path d="m0 256c0-141.385 114.615-256 256-256s256 114.615 256 256c0 80.844-37.475 152.936-96 199.852-3.507 2.811-104.304-39.829-160-39.829s-156.493 42.64-160 39.829c-58.525-46.916-96-119.008-96-199.852z" fill="#ae583e"/><path d="m463 256c0 114.323-92.677 207-207 207s-207-92.677-207-207 92.677-207 207-207 207 92.677 207 207z" fill="#c0694e"/><path d="m195 60h127.723c32.738 0 59.277 26.539 59.277 59.277v54.723c0 61.028-43.388 111.922-101 123.519-57.612-11.597-101-62.491-101-123.519v-99c0-8.284 6.716-15 15-15z" fill="#ffb655"/><path d="m284.75 296.705c-9.234 2.155-18.859 3.295-28.75 3.295-69.588 0-126-56.412-126-126v-99c0-8.284 6.716-15 15-15h57.5c-8.284 0-15 6.716-15 15v99c0 59.697 41.516 109.697 97.25 122.705z" fill="#ff9f22"/><path d="m169.17 363.077c-18.043 12.662-29.837 33.623-29.837 57.339v49.649c0 6.354-6.9 10.283-12.384 7.075-10.851-6.346-21.192-13.468-30.949-21.289v-35.436c0-38.66 31.34-70 70-70h1.261c1.054 0 1.909.855 1.909 1.909z" fill="#ffd993"/><path d="m416 420.416v35.436c-18.205 14.593-38.446 26.751-60.23 35.978-1.673.709-2.781-2.866-4.472-2.192-9.981 3.978-20.272 7.345-30.826 10.057-1.626.418-3.833 5.086-5.472 5.472-18.941 4.468-38.694 6.832-59 6.832s-40.059-2.364-59-6.832c-1.987-.469-1.442-6.086-3.411-6.601-10.184-2.662-20.12-5.936-29.767-9.78-1.668-.664-5.85 3.78-7.5 3.081-10.482-4.435-20.608-9.549-30.322-15.286v-56.167c0-38.66 31.34-70 70-70h119.723l15.665 5.376c5.242 1.799 11.013-.481 13.611-5.376h1c38.661.002 70.001 31.342 70.001 70.002z" fill="#ffe7c0"/><path d="m146 260.416c-13.807 0-25-11.193-25-25v-10c0-13.807 11.193-25 25-25 13.807 0 25 11.193 25 25v10c0 13.807-11.193 25-25 25z" fill="#ffcdbe"/><path d="m355.678 418.463v73.405c-3.643 1.542-7.329 3.001-11.056 4.376-1.912.705-3.944-.691-3.944-2.728v-75.368c0-4.219 3.483-7.624 7.731-7.497 4.105.125 7.269 3.706 7.269 7.812zm-192.087-7.811c-4.105.123-7.269 3.704-7.269 7.811v73.405c3.561 1.507 7.164 2.936 10.806 4.284 2.032.752 4.194-.736 4.194-2.902v-75.101c0-4.219-3.484-7.624-7.731-7.497zm84.909-5.7v48.023c0 4.142 3.358 7.5 7.5 7.5s7.5-3.358 7.5-7.5v-48.023l54.765-56.59h-124.53z" fill="#ffd993"/><path d="m136 220.416v20c0 8.178 3.927 15.439 9.998 20-13.806-.001-24.998-11.194-24.998-25v-10c0-13.806 11.192-24.999 24.998-25-6.071 4.561-9.998 11.822-9.998 20zm230-20v-20c0-60.751-49.249-110-110-110s-110 49.249-110 110v40c0 50.351 33.83 92.801 80 105.859v32.725l30 31 30-31v-32.725c33.586-9.499 60.641-34.551 72.895-66.883 2.252.667 4.637 1.024 7.105 1.024 13.807 0 25-11.193 25-25v-10c0-13.807-11.193-25-25-25z" fill="#ffbeaa"/><path d="m366 180.416v40c0 50.792-34.425 93.543-81.216 106.195-9.023 2.44-18.545 2.44-27.568 0-46.791-12.652-81.216-55.403-81.216-106.195v-40c0-55.663 41.345-101.669 95-108.985 53.655 7.316 95 53.322 95 108.985z" fill="#ffcdbe"/><path d="m223.5 187.916c0 8.284-6.716 15-15 15s-15-6.716-15-15 6.716-15 15-15 15 6.716 15 15zm80-15c-8.284 0-15 6.716-15 15s6.716 15 15 15 15-6.716 15-15-6.716-15-15-15z" fill="#126e66"/><path d="m226 180.416c0 4.142-3.358 7.5-7.5 7.5s-7.5-3.358-7.5-7.5 3.358-7.5 7.5-7.5 7.5 3.358 7.5 7.5zm87.5-7.5c-4.142 0-7.5 3.358-7.5 7.5s3.358 7.5 7.5 7.5 7.5-3.358 7.5-7.5-3.358-7.5-7.5-7.5z" fill="#fff5f5"/><path d="m382 118.252c0 17.534-14.214 31.748-31.748 31.748h-115.724c-45.319 0-82.056-36.738-82.056-82.056 0-4.387 3.556-7.943 7.943-7.943h163.333c32.172-.001 58.252 26.079 58.252 58.251z" fill="#ffb655"/><path d="m258.056 150h-46c-45.318 0-82.056-36.738-82.056-82.056 0-4.387 3.556-7.943 7.943-7.943h46c-4.387 0-7.943 3.556-7.943 7.943 0 45.318 36.738 82.056 82.056 82.056z" fill="#ff9f22"/><path d="m345 350.416v145.689c-9.734 3.61-19.748 6.644-30 9.063v-154.752zm-178 145.689c9.734 3.61 19.748 6.644 30 9.063v-154.752h-30z" fill="#20b7a1"/><path d="m286 359.936h-60c-44.183 0-80-35.817-80-80v-9.936c0-22.091 17.909-40 40-40h140c22.091 0 40 17.909 40 40v9.936c0 44.183-35.817 80-80 80z" fill="#ffb655"/><path d="m260.383 359.936h-34.383c-44.183 0-80-35.817-80-80v-9.936c0-22.091 17.909-40 40-40h34.383c-22.092 0-40 17.909-40 40v9.936c0 44.183 35.817 80 80 80z" fill="#ff9f22"/><path d="m241.5 227.148c-2.929-2.93-2.929-7.678 0-10.607 2.929-2.928 7.678-2.928 10.606 0 1.042 1.042 2.424 1.616 3.893 1.616s2.851-.574 3.893-1.616c2.929-2.928 7.678-2.928 10.606 0 2.929 2.93 2.929 7.678 0 10.607-3.875 3.875-9.024 6.009-14.5 6.009s-10.623-2.134-14.498-6.009z" fill="#faa68e"/><path d="m256 290.416c-16.569 0-30-13.431-30-30 0-4.142 3.358-7.5 7.5-7.5h45c4.142 0 7.5 3.358 7.5 7.5 0 16.569-13.431 30-30 30z" fill="#fff5f5"/><path d="m263.5 289.471c-2.397.617-4.91.945-7.5.945-16.568 0-30-13.431-30-30 0-4.142 3.358-7.5 7.5-7.5h15c-4.142 0-7.5 3.358-7.5 7.5 0 13.979 9.561 25.725 22.5 29.055z" fill="#def4f8"/><path d="m229.766 409.468c0-4.142 3.358-7.5 7.5-7.5h37.468c4.142 0 7.5 3.358 7.5 7.5s-3.358 7.5-7.5 7.5h-37.468c-4.142 0-7.5-3.358-7.5-7.5zm44.968 19.468h-37.468c-4.142 0-7.5 3.358-7.5 7.5s3.358 7.5 7.5 7.5h37.468c4.142 0 7.5-3.358 7.5-7.5s-3.358-7.5-7.5-7.5z" fill="#ffc14f"/><path d="m378.5 56.151c0 16.569-13.431 30-30 30h-165c-27.614 0-50-22.386-50-50 0-5.523 4.477-10 10-10h94.838l-4.497-4.497c-2.929-2.929-2.929-7.678 0-10.606 2.929-2.929 7.678-2.929 10.607 0l15.103 15.103h88.949c16.569 0 30 13.431 30 30z" fill="#20b7a1"/><path d="m216 86.151h-32.5c-27.614 0-50-22.386-50-50 0-5.523 4.477-10 10-10h32.5c-5.523 0-10 4.477-10 10 0 27.614 22.386 50 50 50z" fill="#199a8e"/></g></svg>