<svg id="Capa_1" enable-background="new 0 0 512 512" height="512" viewBox="0 0 512 512" width="512" xmlns="http://www.w3.org/2000/svg"><g><g><path d="m456.969 407.139c27.744-39.712 44.031-88.02 44.031-140.139 0-135.31-109.69-245-245-245s-245 109.69-245 245c0 52.119 16.287 100.427 44.031 140.139z" fill="#ffdd40"/></g><g><circle cx="256" cy="242" fill="#ffc839" r="200"/></g><g><path d="m456.949 407.139c-8.256-22.709-16.99-42.685-24.722-51.911-.904-1.078-1.795-2.019-2.668-2.79-6.623-5.848-19.39-11.382-34.352-16.323-6.224-2.055-12.828-4.007-19.528-5.836l-.005.01h-239.388c-6.687 1.827-13.279 3.775-19.492 5.827-14.961 4.941-27.729 10.475-34.352 16.323-.874.772-1.765 1.712-2.668 2.79-7.732 9.226-16.467 29.203-24.722 51.911-.001.009-.001.018-.002.026 13.315 19.054 29.286 36.108 47.354 50.665h307.194c18.068-14.557 34.039-31.611 47.354-50.665-.002-.009-.002-.018-.003-.027z" fill="#f8e6cc"/></g><g><path d="m391.147 471.33c6.374-4.223 12.555-8.713 18.491-13.499-4.027-11.7-11.689-21.884-21.736-29.06v42.559z" fill="#f3d6ac"/></g><g><path d="m375.674 330.277c-34.127-9.319-70.739-15.445-72.288-15.702h-94.772c-1.549.257-38.189 6.388-72.328 15.713-.13 43.613-8.91 85.439-15.491 110.712h270.37c-6.583-25.278-15.362-67.11-15.491-110.723z" fill="#ff4155"/></g><g><path d="m136.286 330.288c-6.687 1.827-13.279 3.775-19.492 5.827-14.961 4.941-27.729 10.475-34.352 16.323-.874.772-1.765 1.712-2.668 2.79-7.732 9.226-16.467 29.203-24.722 51.911-.001.009-.001.018-.002.026 13.315 19.054 29.286 36.108 47.354 50.665h118.571c-30.448-30.219-49.246-70.959-52.154-127.543h-32.535z" fill="#f3d6ac"/></g><g><path d="m124.098 471.33v-42.559c-10.047 7.176-17.708 17.36-21.736 29.06 5.936 4.786 12.117 9.277 18.491 13.499z" fill="#eabe8d"/></g><g><path d="m136.286 330.288c-.13 43.613-8.91 85.439-15.491 110.712h85.304c-22.866-29.663-36.333-68.013-37.59-118.575-10.183 2.238-21.328 4.887-32.223 7.863z" fill="#e80054"/></g><g><path d="m177.575 395.255c-37.77 0-66.143 34.911-57.928 71.776.604 2.713 1.146 4.246 1.165 4.298v.009c38.748 25.688 85.216 40.662 135.188 40.662 49.971 0 96.439-14.974 135.187-40.661l.001-.009c.019-.052.56-1.586 1.165-4.298 8.215-36.866-20.158-71.776-57.928-71.776h-156.85z" fill="#e80054"/></g><g><path d="m301.031 507.862c-56.84-22.966-99.707-56.85-119.872-112.606h-3.584c-37.77 0-66.143 34.911-57.928 71.776.604 2.713 1.146 4.246 1.165 4.298v.009c38.748 25.687 85.216 40.661 135.188 40.661 15.384 0 30.434-1.424 45.031-4.138z" fill="#cc0053"/></g><g><path d="m248.5 511.873c2.492.076 4.99.127 7.5.127s5.008-.051 7.5-.127v-197.298h-15z" fill="#cc0053"/></g><g><path d="m208.614 221.239v93.336s19.021 20.093 47.17 20.093c.073 0 .143-.005.216-.005 28.031-.103 47.386-20.088 47.386-20.088v-93.336z" fill="#eabe8d"/></g><g><ellipse cx="256" cy="22" fill="#162544" rx="43.951" ry="22"/></g><g><path d="m256 22c-58.069 0-105.143 47.074-105.143 105.143v20.076h210.286v-20.076c0-58.069-47.074-105.143-105.143-105.143z" fill="#2d3c6b"/></g><g><path d="m196.304 88.696s-5.856-46.623 18.908-58.49c-37.81 15.929-64.354 53.332-64.354 96.936v20.076h45.447v-58.522z" fill="#213159"/></g><g><path d="m180.942 159.567s-10.385-25.285-28.897-19.415.448 60.664 36.573 64.116z" fill="#eabe8d"/></g><g><path d="m331.058 159.567s10.385-25.285 28.897-19.415-.448 60.664-36.573 64.116z" fill="#f3d6ac"/></g><g><path d="m343.549 143.073-.038-.009-27.855-54.367s-1.298 31.537-12.146 54.367h-10.872c-.71-4.248-2.616-13.346-6.82-20.829 0 0-1.644 12.113-8.877 20.829h-68.491c-10.848-22.83-12.146-54.367-12.146-54.367l-27.853 54.363c-.029 1.226-.048 2.456-.048 3.696 0 64.505 39.219 140.155 87.597 140.155s87.597-75.651 87.597-140.155c0-1.236-.019-2.462-.048-3.683z" fill="#f8e6cc"/></g><g><path d="m208.403 146.754c0-1.24.031-2.465.06-3.691h-.013c-10.848-22.83-12.146-54.367-12.146-54.367l-27.853 54.363c-.029 1.226-.048 2.456-.048 3.696 0 64.505 39.219 140.155 87.597 140.155 6.881 0 13.576-1.535 20-4.346-38.741-16.953-67.597-80.48-67.597-135.81z" fill="#f3d6ac"/></g><g><g><path d="m242.013 192.447 8.436-13.441c2.569-4.093 8.533-4.093 11.102 0l8.436 13.441c2.739 4.365-.398 10.038-5.551 10.038h-16.871c-5.154-.001-8.291-5.674-5.552-10.038z" fill="#eabe8d"/></g></g><g><g><path d="m235.384 240.87h41.233c4.111-3.622 7.258-8.309 9.01-13.631 1.584-4.811-2.069-9.754-7.134-9.754h-44.985c-5.065 0-8.718 4.943-7.134 9.754 1.752 5.322 4.899 10.009 9.01 13.631z" fill="#162544"/></g><g><path d="m276.616 240.87c-5.493 4.849-12.714 7.798-20.616 7.798s-15.124-2.948-20.616-7.798c5.5-4.849 12.714-7.798 20.616-7.798s15.116 2.949 20.616 7.798z" fill="#ff4155"/></g></g><g><path d="m223.5 134.968h-20c-4.142 0-7.5-3.358-7.5-7.5 0-4.142 3.358-7.5 7.5-7.5h20c4.142 0 7.5 3.358 7.5 7.5 0 4.142-3.358 7.5-7.5 7.5z" fill="#162544"/></g><g><path d="m308.5 134.968h-20c-4.142 0-7.5-3.358-7.5-7.5 0-4.142 3.358-7.5 7.5-7.5h20c4.142 0 7.5 3.358 7.5 7.5 0 4.142-3.358 7.5-7.5 7.5z" fill="#162544"/></g><g><path d="m311.557 158.853c-.863-3.387-3.137-6.41-6.566-8.116-5.584-2.778-12.505-.923-15.952 4.274-2.117 3.192-2.574 6.947-1.628 10.312 1.228 4.369 7.176 5.031 9.445 1.1 1.43-2.476 4.596-3.325 7.072-1.895 3.93 2.269 8.75-1.277 7.629-5.675z" fill="#162544"/></g><g><path d="m200.443 158.853c.863-3.387 3.137-6.41 6.566-8.116 5.584-2.778 12.505-.923 15.952 4.274 2.117 3.192 2.574 6.947 1.628 10.312-1.228 4.369-7.176 5.031-9.445 1.1-1.43-2.476-4.596-3.325-7.072-1.895-3.93 2.269-8.75-1.277-7.629-5.675z" fill="#162544"/></g><g><path d="m196.304 316.82v-29.482c0-5.322 4.314-9.637 9.637-9.637 1.885 0 3.728.553 5.302 1.589l26.743 17.618c11.233 7.4 17.994 19.951 17.994 33.403v14.356c-38.299.001-59.676-27.847-59.676-27.847z" fill="#ff596e"/></g><g><path d="m315.656 316.82v-29.482c0-5.322-4.314-9.637-9.637-9.637-1.885 0-3.728.553-5.302 1.589l-26.743 17.618c-11.233 7.4-17.994 19.951-17.994 33.403v14.356c38.299.001 59.676-27.847 59.676-27.847z" fill="#ff596e"/></g></g></svg>