<svg id="Capa_1" enable-background="new 0 0 512 512" height="512" viewBox="0 0 512 512" width="512" xmlns="http://www.w3.org/2000/svg"><g><path d="m430.243 222.91-14.906-60.034v-19.474c-.001-79.199-64.204-143.402-143.403-143.402-5.386 0-10.702.298-15.934.876l-10 356.291h190.453c20.676-89.012-6.21-134.257-6.21-134.257z" fill="#895140"/><path d="m164.249 48.713c-38.265 5.822-67.585 38.865-67.585 78.756v35.407l-14.907 60.034s-26.887 45.244-6.21 134.257h180.453v-356.291c-36.445 4.031-68.77 21.722-91.751 47.837z" fill="#b56d3c"/><path d="m128.531 162.876h-31.867c-17.6 0-31.868 14.268-31.868 31.868 0 17.6 14.268 31.868 31.868 31.868h42.537z" fill="#ffdecf"/><path d="m383.469 162.876h31.867c17.6 0 31.868 14.268 31.868 31.868 0 17.6-14.268 31.868-31.868 31.868h-42.537z" fill="#ffcdbe"/><path d="m487.456 407.886c-4.529-22.411-20.715-40.679-42.417-47.873l-31.639-10.487h-167.4l10 162.474h252.495z" fill="#2e6be6"/><path d="m98.6 349.526-31.638 10.488c-21.703 7.194-37.889 25.462-42.417 47.873l-21.04 104.113h252.495v-162.474z" fill="#6680ff"/><path d="m381.024 338.793h-135.024l10 113.281h15c0-20.167 13.896-37.397 33.794-41.901 40.994-9.28 78.976-30.588 108.606-60.648z" fill="#6680ff"/><path d="m130.976 338.793-32.376 10.733c29.63 30.06 67.612 51.368 108.606 60.648 19.898 4.504 33.794 21.734 33.794 41.901h15v-113.282z" fill="#80aaff"/><path d="m334.622 323.411h-88.622l10 84.336c10.129-13.185 24.79-22.899 42.171-26.833 30.529-6.911 59.13-21.558 82.853-42.121z" fill="#ffcdbe"/><path d="m177.378 323.411-46.403 15.382c23.723 20.563 52.325 35.21 82.854 42.121 17.38 3.934 32.042 13.648 42.17 26.833v-84.336z" fill="#ffdecf"/><path d="m383.469 162.876h-16.271c-38.481 0-75.72-13.616-105.126-38.438-1.92-1.621-3.954-3.077-6.072-4.381l-10 87.079 10 143.403c70.399 0 127.469-57.07 127.469-127.469z" fill="#ffdecf"/><path d="m229.661 112.588c-17.64 0-33.989 9.251-43.072 24.372-9.659 16.08-27.043 25.916-45.801 25.916h-12.257v60.195c0 70.399 57.07 127.469 127.469 127.469v-230.483c-7.88-4.852-16.988-7.469-26.339-7.469z" fill="#ffeee5"/><path d="m184.299 192.137h31.867v30h-31.867z" fill="#332866"/><path d="m295.834 192.137h31.867v30h-31.867z" fill="#180a33"/></g></svg>