<svg height="512pt" viewBox="0 0 512 512" width="512pt" xmlns="http://www.w3.org/2000/svg"><path d="m512 256c0 141.386719-114.613281 256-256 256s-256-114.613281-256-256 114.613281-256 256-256 256 114.613281 256 256zm0 0" fill="#d9723e"/><path d="m398.410156 468.761719c-12.339844 8.277343-25.441406 15.519531-39.179687 21.566406-9.589844 4.230469-19.492188 7.902344-29.652344 10.933594-1.117187.339843-2.25.667969-3.378906.988281-22.300781 6.351562-45.847657 9.75-70.199219 9.75-24.339844 0-47.890625-3.398438-70.199219-9.738281-7.242187-2.0625-14.359375-4.441407-21.332031-7.121094-.429688-.160156-.859375-.320313-1.289062-.492187-3.507813-1.359376-6.980469-2.808594-10.410157-4.320313-13.738281-6.058594-26.839843-13.289063-39.191406-21.578125 10.390625-14.371094 23.761719-26.429688 39.191406-35.320312 10.199219-5.871094 21.300781-10.339844 33.03125-13.148438 1.808594-.441406 3.640625-.839844 5.480469-1.191406 3.46875-.679688 7-1.199219 10.570312-1.570313 1.027344-.109375 2.046876-.210937 3.089844-.289062 3.378906-.28125 6.796875-.421875 10.257813-.421875h81.589843c4.519532 0 8.972657.242187 13.351563.703125 3.570313.367187 7.089844.898437 10.570313 1.558593 1.390624.269532 2.769531.558594 4.140624.871094.449219.117188.910157.207032 1.347657.328125 3.480469.839844 6.902343 1.820313 10.261719 2.941407 7.980468 2.648437 15.589843 6.089843 22.769531 10.21875 15.429687 8.898437 28.789062 20.960937 39.179687 35.332031zm0 0" fill="#42b7a1"/><path d="m215.199219 416.808594c-29.359375 0-49.257813 42.429687-50.730469 78.332031-.429688-.160156-.859375-.320313-1.289062-.492187-3.507813-1.359376-6.980469-2.808594-10.410157-4.320313-13.738281-6.058594-26.839843-13.289063-39.191406-21.578125 10.390625-14.371094 23.761719-26.429688 39.191406-35.320312 10.199219-5.871094 21.300781-10.339844 33.03125-13.148438 1.808594-.441406 3.640625-.839844 5.480469-1.191406 3.46875-.679688 7-1.199219 10.570312-1.570313 1.027344-.109375 2.046876-.210937 3.089844-.289062 3.378906-.28125 6.796875-.421875 10.257813-.421875zm0 0" fill="#289983"/><path d="m320.710938 419.070312v4.339844c0 28.539063-18.320313 53.378906-45.589844 61.808594-6.171875 1.921875-12.609375 2.890625-19.132813 2.890625-35.679687 0-64.707031-29.03125-64.707031-64.699219v-4.320312c3.46875-.679688 7-1.199219 10.570312-1.570313 1.027344-.109375 2.046876-.210937 3.089844-.289062 3.378906-.28125 6.796875-.421875 10.257813-.421875h81.589843c4.519532 0 8.972657.242187 13.351563.703125 3.570313.367187 7.089844.898437 10.570313 1.558593zm0 0" fill="#f9c5ac"/><path d="m204.941406 417.230469c-1.042968.078125-2.0625.179687-3.089844.289062-3.570312.371094-7.101562.890625-10.570312 1.570313v4.320312c0 1.246094.042969 2.480469.113281 3.707032 6.902344-6.417969 14.921875-10.308594 23.804688-10.308594-3.460938 0-6.878907.140625-10.257813.421875zm0 0" fill="#efb29a"/><path d="m300.707031 368.539062v54.867188c0 20.089844-13.246093 37.066406-31.488281 42.707031-4.179688 1.296875-8.628906 1.996094-13.230469 1.996094-24.691406 0-44.703125-20.011719-44.703125-44.703125v-54.867188zm0 0" fill="#efb29a"/><path d="m300.707031 419.933594v3.472656c0 20.089844-13.246093 37.066406-31.488281 42.707031-16.460938-5.058593-28.839844-19.371093-31.125-36.882812 2.988281.183593 5.992188.273437 9.007812.273437 8.460938 0 16.75-.671875 24.828126-1.996094 9.953124-1.601562 19.570312-4.160156 28.777343-7.574218zm0 0" fill="#f9c5ac"/><path d="m132.539062 278.152344c0 20.496094-14.972656 37.492187-34.578124 40.648437-2.144532.34375-4.347657.527344-6.597657.527344-22.746093 0-41.171875-18.429687-41.171875-41.175781s18.425782-41.175782 41.171875-41.175782c2.25 0 4.453125.179688 6.597657.527344 19.605468 3.15625 34.578124 20.152344 34.578124 40.648438zm0 0" fill="#f9c5ac"/><path d="m132.539062 278.152344c0 20.496094-14.972656 37.492187-34.578124 40.648437-3.5625-12.953125-5.464844-26.582031-5.464844-40.648437s1.902344-27.695313 5.464844-40.644532c19.605468 3.152344 34.578124 20.148438 34.578124 40.644532zm0 0" fill="#efb29a"/><path d="m106.082031 278.152344c0 8.128906-6.589843 14.714844-14.71875 14.714844-8.125 0-14.714843-6.585938-14.714843-14.714844 0-8.125 6.589843-14.714844 14.714843-14.714844 8.128907 0 14.71875 6.589844 14.71875 14.714844zm0 0" fill="#efb29a"/><path d="m379.449219 278.152344c0 20.496094 14.972656 37.492187 34.578125 40.648437 2.144531.34375 4.347656.527344 6.597656.527344 22.746094 0 41.175781-18.429687 41.175781-41.175781s-18.429687-41.175782-41.175781-41.175782c-2.25 0-4.453125.179688-6.597656.527344-19.605469 3.15625-34.578125 20.152344-34.578125 40.648438zm0 0" fill="#f9c5ac"/><path d="m379.449219 278.152344c0 20.496094 14.972656 37.492187 34.578125 40.648437 3.5625-12.953125 5.464844-26.582031 5.464844-40.648437s-1.902344-27.695313-5.464844-40.644532c-19.605469 3.152344-34.578125 20.148438-34.578125 40.644532zm0 0" fill="#efb29a"/><path d="m435.339844 278.152344c0 8.128906-6.589844 14.714844-14.714844 14.714844-8.128906 0-14.71875-6.585938-14.71875-14.714844 0-8.125 6.589844-14.714844 14.71875-14.714844 8.125 0 14.714844 6.589844 14.714844 14.714844zm0 0" fill="#efb29a"/><path d="m410.695312 256.511719c0 76.984375-56.242187 140.847656-129.871093 152.703125-7.867188 1.292968-15.933594 1.960937-24.160157 1.996094-85.453124.359374-155.371093-70.640626-155.371093-156.09375v-37.589844c0-85.4375 69.261719-154.699219 154.699219-154.699219 85.441406 0 154.703124 69.261719 154.703124 154.699219zm0 0" fill="#f9c5ac"/><path d="m285.433594 408.398438c-1.53125.300781-3.070313.570312-4.609375.820312-7.871094 1.292969-15.929688 1.960938-24.160157 1.992188-85.449218.359374-155.371093-70.640626-155.371093-156.089844v-37.589844c0-85.441406 69.261719-154.703125 154.699219-154.703125 10.011718 0 19.789062.953125 29.269531 2.773437-71.449219 13.667969-125.4375 76.5-125.4375 151.929688v37.589844c0 75.277344 54.257812 139.347656 125.609375 153.277344zm0 0" fill="#efb29a"/><path d="m324.546875 7.972656c-9.023437 51.769532-18.0625 103.539063-27.101563 155.304688-22.53125-3.925782-45.5-4.632813-68.183593-2.09375-4.921875.546875-9.828125 1.238281-14.71875 2.09375-9.039063-51.765625-18.078125-103.535156-27.101563-155.304688 12.925782-2.253906 25.929688-3.871094 38.980469-4.835937 19.488281-1.453125 39.058594-1.46875 58.550781-.039063l4.320313 31.820313 10.140625-30.503907c8.398437.910157 16.769531 2.105469 25.113281 3.558594zm0 0" fill="#2f373b"/><path d="m229.261719 161.183594c-4.921875.546875-9.828125 1.238281-14.71875 2.09375-9.039063-51.765625-18.078125-103.535156-27.101563-155.304688 12.925782-2.253906 25.929688-3.871094 38.980469-4.835937zm0 0" fill="#181e21"/><path d="m273.542969 291.695312h-35.097657c-4.179687 0-7.570312-3.390624-7.570312-7.570312 0-4.183594 3.390625-7.570312 7.570312-7.570312h35.097657c4.183593 0 7.570312 3.386718 7.570312 7.570312 0 4.179688-3.386719 7.570312-7.570312 7.570312zm0 0" fill="#efb29a"/><path d="m281.339844 249.160156c0 17.164063 13.914062 31.082032 31.082031 31.082032 17.164063 0 31.078125-13.917969 31.078125-31.082032" fill="#efb29a"/><path d="m334.707031 249.160156c0 12.308594-9.976562 22.289063-22.285156 22.289063-12.3125 0-22.289063-9.980469-22.289063-22.289063s9.976563-22.285156 22.289063-22.285156c12.308594 0 22.285156 9.976562 22.285156 22.285156zm0 0" fill="#2f373b"/><path d="m331.257812 245.226562c0 5.277344-4.277343 9.550782-9.550781 9.550782-5.273437 0-9.550781-4.273438-9.550781-9.550782 0-5.273437 4.277344-9.546874 9.550781-9.546874 5.273438 0 9.550781 4.273437 9.550781 9.546874zm0 0" fill="#fff"/><path d="m168.488281 249.160156c0 17.164063 13.917969 31.082032 31.082031 31.082032 17.164063 0 31.078126-13.917969 31.078126-31.082032" fill="#efb29a"/><path d="m221.855469 249.160156c0 12.308594-9.976563 22.289063-22.285157 22.289063-12.308593 0-22.289062-9.980469-22.289062-22.289063s9.980469-22.285156 22.289062-22.285156c12.308594 0 22.285157 9.976562 22.285157 22.285156zm0 0" fill="#2f373b"/><path d="m204.78125 270.832031c-1.667969.410157-3.417969.617188-5.210938.617188-12.308593 0-22.289062-9.976563-22.289062-22.289063 0-12.308594 9.980469-22.289062 22.289062-22.289062 1.792969 0 3.542969.210937 5.210938.621094-9.800781 2.339843-17.070312 11.160156-17.070312 21.667968 0 10.511719 7.269531 19.332032 17.070312 21.671875zm0 0" fill="#181e21"/><path d="m317.632812 270.832031c-1.671874.410157-3.421874.617188-5.210937.617188-12.308594 0-22.289063-9.976563-22.289063-22.289063 0-12.308594 9.980469-22.289062 22.289063-22.289062 1.789063 0 3.539063.210937 5.210937.621094-9.800781 2.339843-17.070312 11.160156-17.070312 21.667968 0 10.511719 7.269531 19.332032 17.070312 21.671875zm0 0" fill="#181e21"/><path d="m218.40625 245.226562c0 5.277344-4.273438 9.550782-9.546875 9.550782-5.277344 0-9.550781-4.273438-9.550781-9.550782 0-5.273437 4.273437-9.546874 9.550781-9.546874 5.273437 0 9.546875 4.273437 9.546875 9.546874zm0 0" fill="#fff"/><path d="m398.410156 468.761719c-12.339844 8.277343-25.441406 15.519531-39.179687 21.566406-9.589844 4.230469-19.492188 7.902344-29.652344 10.933594-10.179687-37.523438-.066406-64.980469 6.882813-78.050781 7.980468 2.648437 15.589843 6.089843 22.769531 10.21875 15.429687 8.898437 28.789062 20.960937 39.179687 35.332031zm0 0" fill="#f9c5ac"/><path d="m113.578125 468.761719c12.34375 8.277343 25.441406 15.519531 39.183594 21.566406 9.589843 4.230469 19.488281 7.902344 29.648437 10.933594 10.179688-37.523438.070313-64.980469-6.878906-78.050781-7.980469 2.648437-15.589844 6.089843-22.769531 10.21875-15.433594 8.898437-28.792969 20.960937-39.183594 35.332031zm0 0" fill="#efb29a"/><path d="m300.210938 309.480469v.070312c0 4.128907-.511719 8.128907-1.460938 11.898438-.609375 2.410156-1.398438 4.742187-2.351562 6.941406-5.898438 13.699219-18.039063 23.109375-32.058594 23.109375h-16.589844c-14.019531 0-26.160156-9.410156-32.070312-23.109375-.949219-2.199219-1.738282-4.53125-2.351563-6.941406-.949219-3.769531-1.457031-7.769531-1.457031-11.898438v-.070312zm0 0" fill="#f1eee9"/><path d="m298.75 321.449219c-.609375 2.410156-1.398438 4.742187-2.351562 6.941406-5.898438 13.699219-18.039063 23.109375-32.058594 23.109375h-16.589844c-14.019531 0-26.160156-9.410156-32.070312-23.109375-.949219-2.199219-1.738282-4.53125-2.351563-6.941406zm0 0" fill="#2f373b"/><path d="m267.871094 332.875h-23.660156c-5.710938 0-10.339844 4.628906-10.339844 10.339844v11.828125c0 12.242187 9.925781 22.167969 22.167968 22.167969 12.246094 0 22.171876-9.925782 22.171876-22.167969v-11.828125c0-5.710938-4.632813-10.339844-10.339844-10.339844zm0 0" fill="#f93d6e"/><path d="m278.210938 343.210938v11.828124c0 .382813-.011719.761719-.03125 1.132813-.398438-5.34375-4.871094-9.550781-10.308594-9.550781h-23.660156c-5.441407 0-9.910157 4.207031-10.3125 9.550781-.019532-.371094-.027344-.75-.027344-1.132813v-11.828124c0-5.710938 4.628906-10.339844 10.339844-10.339844h23.660156c5.707031 0 10.339844 4.628906 10.339844 10.339844zm0 0" fill="#e41753"/><path d="m345.898438 274.917969 4.242187-4.242188 19.730469 19.730469-4.242188 4.242188zm0 0" fill="#0084a6"/><path d="m345.898438 290.40625 19.730468-19.734375 4.242188 4.242187-19.730469 19.734376zm0 0" fill="#0084a6"/><path d="m428.617188 308.578125c0 5.503906-4.464844 9.96875-9.96875 9.96875-5.507813 0-9.96875-4.464844-9.96875-9.96875 0-5.507813 4.460937-9.96875 9.96875-9.96875 5.503906 0 9.96875 4.460937 9.96875 9.96875zm0 0" fill="#2f373b"/></svg>