<svg id="Capa_1" enable-background="new 0 0 512 512" height="512" viewBox="0 0 512 512" width="512" xmlns="http://www.w3.org/2000/svg"><g><path d="m0 256c0-141.266 114.422-255.807 255.643-256 140.562-.192 255.611 114.058 256.353 254.619.42 79.575-35.469 150.782-92.062 198.015-7.169 5.983-17.425 6.533-25.27 1.469-39.959-25.797-87.563-40.77-138.664-40.77-52.951 0-102.147 16.076-142.973 43.614-5.052 3.408-11.741 3.121-16.506-.678-58.824-46.906-96.521-119.185-96.521-200.269z" fill="#ffb52d"/><path d="m458.234 256c0 111.691-90.543 202.234-202.234 202.234s-202.234-90.543-202.234-202.234 90.543-202.234 202.234-202.234 202.234 90.543 202.234 202.234z" fill="#ffc14f"/><path d="m322.049 360h-91.099c-33.109 0-59.95-26.841-59.95-59.951v-138.542c0-.634.005-1.266.016-1.897.066-3.874 3.193-6.993 7.067-6.993h198.13c3.1 0 5.645 2.462 5.737 5.561.033 1.106.05 2.216.05 3.33v138.542c0 33.109-26.841 59.95-59.951 59.95z" fill="#954c35"/><path d="m235.951 360h-46c-33.11 0-59.951-26.841-59.951-59.951v-138.542c0-.634.005-1.266.016-1.897.066-3.874 3.193-6.993 7.067-6.993h46c-3.874 0-7.001 3.119-7.067 6.993-.011.631-.016 1.263-.016 1.897v138.542c0 33.11 26.841 59.951 59.951 59.951z" fill="#7c3f2c"/><path d="m166 350.416h43.333c-38.66 0-70 31.34-70 70v48.781c0 6.737-7.329 10.925-13.133 7.504-10.578-6.235-20.668-13.208-30.2-20.849v-35.436c0-38.66 31.34-70 70-70z" fill="#c2eaf2"/><path d="m318.5 496.429c0 4.702-3.298 8.735-7.893 9.734-17.596 3.823-35.866 5.837-54.607 5.837-47.457 0-91.897-12.913-130-35.417v-56.167c0-38.66 31.34-70 70-70h10.702l12.596 4.754 74.213.681 11.787-5.435h13.202z" fill="#def4f8"/><path d="m248.014 405.228-41.312-54.812h98.596l-41.312 54.812c-4.001 5.308-11.971 5.308-15.972 0zm-76.692 12.921v79.514c-5.075-1.778-10.077-3.711-15-5.795v-73.72c0-4.142 3.358-7.5 7.5-7.5s7.5 3.359 7.5 7.501z" fill="#c2eaf2"/><path d="m146 260.416c-13.807 0-25-11.193-25-25v-10c0-13.807 11.193-25 25-25 13.807 0 25 11.193 25 25v10c0 13.807-11.193 25-25 25z" fill="#ffbeaa"/><path d="m136 220.416v20c0 8.178 3.927 15.439 9.998 20-13.806-.001-24.998-11.194-24.998-25v-10c0-13.806 11.192-24.999 24.998-25-6.071 4.561-9.998 11.822-9.998 20zm230-20v-20c0-60.751-49.249-110-110-110-60.751 0-110 49.249-110 110v40c0 50.351 33.83 92.801 80 105.859v24.141l26.015 34.326c2.001 2.64 5.969 2.64 7.97 0l26.015-34.326v-24.141c33.586-9.499 60.641-34.551 72.895-66.883 2.403.711 4.957 1.071 7.602 1.019 13.711-.266 24.503-11.874 24.503-25.588v-9.407c0-13.807-11.193-25-25-25z" fill="#faa68e"/><path d="m366 180.416v40c0 50.792-34.425 93.543-81.216 106.195-9.023 2.44-18.545 2.44-27.568 0-46.791-12.652-81.216-55.403-81.216-106.195v-40c0-55.663 41.345-101.669 95-108.985 53.655 7.316 95 53.322 95 108.985z" fill="#ffbeaa"/><path d="m241.5 227.148c-2.929-2.93-2.929-7.678 0-10.607 2.929-2.928 7.678-2.928 10.606 0 1.042 1.042 2.424 1.616 3.893 1.616s2.851-.574 3.893-1.616c2.929-2.928 7.678-2.928 10.606 0 2.929 2.93 2.929 7.678 0 10.607-3.875 3.875-9.024 6.009-14.5 6.009s-10.623-2.134-14.498-6.009z" fill="#faa68e"/><path d="m223.5 187.916c0 8.284-6.716 15-15 15s-15-6.716-15-15 6.716-15 15-15 15 6.716 15 15zm80-15c-8.284 0-15 6.716-15 15s6.716 15 15 15 15-6.716 15-15-6.716-15-15-15z" fill="#61362b"/><path d="m226 180.416c0 4.142-3.358 7.5-7.5 7.5s-7.5-3.358-7.5-7.5 3.358-7.5 7.5-7.5 7.5 3.358 7.5 7.5zm87.5-7.5c-4.142 0-7.5 3.358-7.5 7.5s3.358 7.5 7.5 7.5 7.5-3.358 7.5-7.5-3.358-7.5-7.5-7.5z" fill="#fff5f5"/><path d="m256 290.416c-16.569 0-30-13.431-30-30 0-4.142 3.358-7.5 7.5-7.5h45c4.142 0 7.5 3.358 7.5 7.5 0 16.569-13.431 30-30 30z" fill="#fff5f5"/><path d="m263.5 289.471c-2.397.617-4.91.945-7.5.945-16.568 0-30-13.431-30-30 0-4.142 3.358-7.5 7.5-7.5h15c-4.142 0-7.5 3.358-7.5 7.5 0 13.979 9.561 25.725 22.5 29.055z" fill="#def4f8"/><path d="m142.049 160h-12.039c.628-46.743 30.41-86.446 71.99-101.752v41.802c0 33.109-26.841 59.95-59.951 59.95z" fill="#7c3f2c"/><path d="m380.049 160h-132.098c-33.11 0-59.951-26.841-59.951-59.951v-35.499c15.484-8.322 33.19-13.043 52-13.043h32c60.238 0 109.167 48.42 109.989 108.462-.644.021-1.291.031-1.94.031z" fill="#954c35"/><path d="m362 130h-183.005c-16.569 0-30-13.431-30-30 0-33.137 26.863-60 60-60h123.005c33.137 0 60 26.863 60 60 0 16.569-13.431 30-30 30z" fill="#fb5858"/><path d="m196.005 130h-46.005c-16.569 0-30-13.431-30-30 0-33.137 26.863-60 60-60h46.005c-33.137 0-60 26.863-60 60 0 16.569 13.432 30 30 30z" fill="#c83c50"/><path d="m246.801 60.694c-5.622 12.331-18.056 20.902-32.492 20.902-19.712 0-35.692-15.979-35.692-35.691 0-14.436 8.571-26.87 20.902-32.492.451-.206-1.242 8.085-1.242 12.832 0 19.712 15.98 35.691 35.692 35.691 4.747 0 13.037-1.693 12.832-1.242z" fill="#fbb3a8"/><path d="m250 45.904c0 5.276-1.145 10.284-3.199 14.79-4.506 2.054-9.514 3.199-14.79 3.199-19.712 0-35.692-15.979-35.692-35.691 0-5.276 1.145-10.284 3.2-14.79 4.506-2.054 9.514-3.199 14.79-3.199 19.711 0 35.691 15.979 35.691 35.691z" fill="#fccfc9"/><path d="m420 350v10l-3.809 2.617v8.553l3.809 3.83v17.415c-4.349 2.663-7 7.396-7 12.496v24.871c0 4.185 1.79 8.171 4.917 10.951l2.083 1.852v9.994c-3.046 2.544-6.153 5.019-9.317 7.422-1.246.946-4.143.693-5.407 1.617-8.475 6.195-15.702 10.952-24.922 16.085-.948.528-1.899 3.168-2.854 3.684-5.706 3.083-11.543 5.955-17.5 8.607-1.473.656-4.406-2.345-5.894-1.716-7.585 3.205-14.871 6.037-22.809 8.511-1.582.493-2.203 4.631-3.798 5.094-5.752 1.67-11.588 3.143-17.5 4.413v-7.161l4.319-6.125v-44.3l-4.318-6.125v-17.585l3.681-4.245v-6.511l-3.681-4.244v-20.319c0-27.438 22.243-49.681 49.681-49.681h17.819l3.415 2.234h8.17l3.415-2.234h17.5c5.523 0 10 4.477 10 10z" fill="#fb5858"/><path d="m420 392.415v17.585l-3.043 3.679v7.643l3.043 3.678v17.585h-60v-50h-50v-17.585l2.319-2.521v-9.957l-2.319-2.522v-10c0-5.523 4.477-10 10-10h7.5l3.479 1.553h9.255l2.266-1.553h17.5v52.415zm-110 106.718h17.5l8.86-6.516s4.021 5.159 6.015 4.445c5.981-2.143 11.859-4.503 17.625-7.069v-47.408h-50v17.415l2.404 3.479v8.043l-2.404 3.478z" fill="#c83c50"/><path d="m420 375v-15h-27.5v-20h-15v20h-35v-20h-15v20h-17.5v15h17.5v35h-17.5v15h17.5v35h-17.5v15h17.5v26.881c5.067-1.471 10.068-3.094 15-4.864v-22.017h35v6.386c3.772-2.038 7.487-4.168 11.143-6.386.348-.211-.37-1.449-.023-1.662.693-.425 1.384-.853 2.072-1.285.248-.156 1.561.715 1.808.558 6.249-3.946 12.315-8.155 18.183-12.612h-18.183v-35h27.5v-15h-27.5v-35h27.5zm-42.5 85h-35v-35h35zm0-50h-35v-35h35z" fill="#f87b67"/><path d="m327.5 410h15v15h-15zm0 65h15v-15h-15zm15-115h-15v15h15zm50 100h-15v15h11.143c1.293-.785 2.579-1.581 3.857-2.388zm-15-85h15v-15h-15zm15 35h-15v15h15z" fill="#faa598"/></g></svg>