<svg height="512pt" viewBox="0 0 512 512" width="512pt" xmlns="http://www.w3.org/2000/svg"><path d="m512 256c0 141.378906-114.621094 256-256 256-29.140625 0-57.140625-4.871094-83.238281-13.851562-29.523438-10.136719-56.613281-25.527344-80.140625-45.058594-24.332032-20.191406-44.859375-44.808594-60.359375-72.609375v-.011719c-20.550781-36.847656-32.261719-79.289062-32.261719-124.46875 0-51.789062 15.378906-99.980469 41.808594-140.269531 0-.011719.011718-.011719.011718-.011719 37.101563-56.527344 95.988282-97.488281 164.730469-110.949219h.019531c15.988282-3.128906 32.519532-4.769531 49.429688-4.769531 141.378906 0 256 114.621094 256 256zm0 0" fill="#0084a6"/><path d="m135.039062 343.558594h121v121h-121zm0 0" fill="#e41753"/><path d="m398.410156 468.761719c-12.339844 8.277343-25.441406 15.519531-39.179687 21.566406-10.652344 4.703125-21.679688 8.703125-33.03125 11.921875-22.300781 6.351562-45.847657 9.75-70.199219 9.75-24.339844 0-47.890625-3.398438-70.199219-9.738281-7.242187-2.0625-14.359375-4.441407-21.332031-7.121094-.429688-.160156-.859375-.320313-1.289062-.492187-3.507813-1.359376-6.980469-2.808594-10.410157-4.320313-13.738281-6.058594-26.839843-13.289063-39.191406-21.578125 10.390625-14.371094 23.761719-26.429688 39.191406-35.320312 10.199219-5.871094 21.300781-10.339844 33.03125-13.148438 1.808594-.441406 3.640625-.839844 5.480469-1.191406 3.46875-.679688 7-1.199219 10.570312-1.570313 1.027344-.109375 2.046876-.210937 3.089844-.289062 3.378906-.28125 6.796875-.421875 10.257813-.421875h81.589843c4.519532 0 8.972657.242187 13.351563.703125 3.570313.367187 7.089844.898437 10.570313 1.558593 1.390624.269532 2.769531.558594 4.140624.871094.449219.117188.910157.207032 1.347657.328125 11.742187 2.820313 22.832031 7.289063 33.03125 13.160157 15.429687 8.898437 28.789062 20.960937 39.179687 35.332031zm0 0" fill="#2f373b"/><path d="m215.199219 416.808594c-29.359375 0-49.257813 42.429687-50.730469 78.332031-.429688-.160156-.859375-.320313-1.289062-.492187-3.507813-1.359376-6.980469-2.808594-10.410157-4.320313-13.738281-6.058594-26.839843-13.289063-39.191406-21.578125 10.390625-14.371094 23.761719-26.429688 39.191406-35.320312 10.199219-5.871094 21.300781-10.339844 33.03125-13.148438 1.808594-.441406 3.640625-.839844 5.480469-1.191406 3.46875-.679688 7-1.199219 10.570312-1.570313 1.027344-.109375 2.046876-.210937 3.089844-.289062 3.378906-.28125 6.796875-.421875 10.257813-.421875zm0 0" fill="#181e21"/><path d="m320.710938 419.070312v4.339844c0 28.539063-18.320313 53.378906-45.589844 61.808594-6.171875 1.921875-12.609375 2.890625-19.132813 2.890625-35.679687 0-64.707031-29.03125-64.707031-64.699219v-4.320312c3.46875-.679688 7-1.199219 10.570312-1.570313 1.027344-.109375 2.046876-.210937 3.089844-.289062 3.378906-.28125 6.796875-.421875 10.257813-.421875h81.589843c4.519532 0 8.972657.242187 13.351563.703125 3.570313.367187 7.089844.898437 10.570313 1.558593zm0 0" fill="#f9c5ac"/><path d="m300.707031 368.539062v54.867188c0 20.089844-13.246093 37.066406-31.488281 42.707031-4.179688 1.296875-8.628906 1.996094-13.230469 1.996094-24.691406 0-44.703125-20.011719-44.703125-44.703125v-54.867188zm0 0" fill="#efb29a"/><path d="m300.707031 419.933594v3.472656c0 20.089844-13.246093 37.066406-31.488281 42.707031-16.460938-5.058593-28.839844-19.371093-31.125-36.882812 2.988281.183593 5.992188.273437 9.007812.273437 8.460938 0 16.75-.671875 24.828126-1.996094 9.953124-1.601562 19.570312-4.160156 28.777343-7.574218zm0 0" fill="#f9c5ac"/><path d="m132.539062 278.152344c0 20.496094-14.972656 37.492187-34.578124 40.648437-2.144532.34375-4.347657.527344-6.597657.527344-22.746093 0-41.171875-18.429687-41.171875-41.175781s18.425782-41.175782 41.171875-41.175782c2.25 0 4.453125.179688 6.597657.527344 19.605468 3.15625 34.578124 20.152344 34.578124 40.648438zm0 0" fill="#f9c5ac"/><path d="m132.539062 278.152344c0 20.496094-14.972656 37.492187-34.578124 40.648437-3.5625-12.953125-5.464844-26.582031-5.464844-40.648437s1.902344-27.695313 5.464844-40.644532c19.605468 3.152344 34.578124 20.148438 34.578124 40.644532zm0 0" fill="#efb29a"/><path d="m106.082031 278.152344c0 8.128906-6.589843 14.714844-14.71875 14.714844-8.125 0-14.714843-6.585938-14.714843-14.714844 0-8.125 6.589843-14.714844 14.714843-14.714844 8.128907 0 14.71875 6.589844 14.71875 14.714844zm0 0" fill="#efb29a"/><path d="m379.449219 278.152344c0 20.496094 14.972656 37.492187 34.578125 40.648437 2.144531.34375 4.347656.527344 6.597656.527344 22.746094 0 41.175781-18.429687 41.175781-41.175781s-18.429687-41.175782-41.175781-41.175782c-2.25 0-4.453125.179688-6.597656.527344-19.605469 3.15625-34.578125 20.152344-34.578125 40.648438zm0 0" fill="#f9c5ac"/><path d="m379.449219 278.152344c0 20.496094 14.972656 37.492187 34.578125 40.648437 3.5625-12.953125 5.464844-26.582031 5.464844-40.648437s-1.902344-27.695313-5.464844-40.644532c-19.605469 3.152344-34.578125 20.148438-34.578125 40.644532zm0 0" fill="#efb29a"/><path d="m435.339844 278.152344c0 8.128906-6.589844 14.714844-14.714844 14.714844-8.128906 0-14.71875-6.585938-14.71875-14.714844 0-8.125 6.589844-14.714844 14.71875-14.714844 8.125 0 14.714844 6.589844 14.714844 14.714844zm0 0" fill="#efb29a"/><path d="m410.699219 217.53125v38.980469c0 76.988281-56.238281 140.847656-129.878907 152.707031-7.859374 1.292969-15.929687 1.960938-24.160156 1.992188-85.449218.359374-155.371094-70.640626-155.371094-156.089844v-37.589844c0-85.441406 69.269532-154.703125 154.699219-154.703125 25.960938 0 50.433594 6.390625 71.910157 17.703125h.011718c13.871094 7.289062 26.488282 16.628906 37.46875 27.609375 28 28 45.320313 66.667969 45.320313 109.390625zm0 0" fill="#f9c5ac"/><g fill="#efb29a"><path d="m285.433594 408.398438c-1.53125.300781-3.070313.570312-4.609375.820312-7.871094 1.292969-15.929688 1.960938-24.160157 1.992188-85.449218.359374-155.371093-70.640626-155.371093-156.089844v-37.589844c0-85.441406 69.261719-154.703125 154.699219-154.703125 10.011718 0 19.789062.953125 29.269531 2.773437-71.449219 13.667969-125.4375 76.5-125.4375 151.929688v37.589844c0 75.277344 54.257812 139.347656 125.609375 153.277344zm0 0"/><path d="m360.261719 296.496094c0 10.539062-8.542969 19.082031-19.082031 19.082031-10.539063 0-19.082032-8.542969-19.082032-19.082031 0-10.539063 8.542969-19.082032 19.082032-19.082032 10.539062 0 19.082031 8.542969 19.082031 19.082032zm0 0"/><path d="m189.886719 296.496094c0 10.539062-8.542969 19.082031-19.082031 19.082031-10.539063 0-19.082032-8.542969-19.082032-19.082031 0-10.539063 8.542969-19.082032 19.082032-19.082032 10.539062 0 19.082031 8.542969 19.082031 19.082032zm0 0"/><path d="m273.378906 297.921875h-34.757812c-4.140625 0-7.5-3.355469-7.5-7.496094s3.359375-7.496093 7.5-7.496093h34.757812c4.136719 0 7.496094 3.355468 7.496094 7.496093s-3.359375 7.496094-7.496094 7.496094zm0 0"/><path d="m343.992188 244.328125c0-17.808594-14.433594-32.242187-32.242188-32.242187s-32.242188 14.433593-32.242188 32.242187"/></g><path d="m333.773438 258.054688c0 12.164062-9.859376 22.023437-22.023438 22.023437s-22.023438-9.859375-22.023438-22.023437c0-12.164063 9.859376-22.023438 22.023438-22.023438s22.023438 9.859375 22.023438 22.023438zm0 0" fill="#2f373b"/><path d="m330.363281 254.167969c0 5.210937-4.222656 9.4375-9.433593 9.4375-5.214844 0-9.4375-4.226563-9.4375-9.4375 0-5.210938 4.222656-9.4375 9.4375-9.4375 5.210937 0 9.433593 4.226562 9.433593 9.4375zm0 0" fill="#fff"/><path d="m232.480469 244.328125c0-17.808594-14.433594-32.242187-32.242188-32.242187-17.808593 0-32.242187 14.433593-32.242187 32.242187" fill="#efb29a"/><path d="m222.261719 258.054688c0 12.164062-9.859375 22.023437-22.023438 22.023437-12.160156 0-22.019531-9.859375-22.019531-22.023437 0-12.164063 9.859375-22.023438 22.019531-22.023438 12.164063 0 22.023438 9.859375 22.023438 22.023438zm0 0" fill="#2f373b"/><path d="m205.207031 279.511719c-1.601562.378906-3.261719.566406-4.96875.566406-12.160156 0-22.019531-9.859375-22.019531-22.027344 0-12.160156 9.859375-22.019531 22.019531-22.019531 1.707031 0 3.367188.199219 4.96875.570312-9.78125 2.25-17.058593 11-17.058593 21.449219 0 10.460938 7.277343 19.210938 17.058593 21.460938zm0 0" fill="#181e21"/><path d="m316.71875 279.511719c-1.601562.378906-3.261719.566406-4.972656.566406-12.160156 0-22.019532-9.859375-22.019532-22.027344 0-12.160156 9.859376-22.019531 22.019532-22.019531 1.710937 0 3.371094.199219 4.972656.570312-9.78125 2.25-17.0625 11-17.0625 21.449219 0 10.460938 7.28125 19.210938 17.0625 21.460938zm0 0" fill="#181e21"/><path d="m218.855469 254.167969c0 5.210937-4.226563 9.4375-9.4375 9.4375-5.210938 0-9.4375-4.226563-9.4375-9.4375 0-5.210938 4.226562-9.4375 9.4375-9.4375 5.210937 0 9.4375 4.226562 9.4375 9.4375zm0 0" fill="#fff"/><path d="m134.039062 199.859375c0 105.660156 79.941407 202.039063 38.722657 298.289063-60.050781-20.628907-110.011719-62.976563-140.5-117.667969 3.628906-71.332031-7.320313-159.332031 3.019531-235.160157 1.4375-10.589843 3.648438-20.441406 6.527344-29.589843 24.8125-78.871094 99.472656-105.941407 164.761718-110.960938 19.25-1.46875 37.691407-1.03125 53.789063.558594 17.851563 1.773437 32.839844 4.960937 42.902344 8.53125 53.5 18.992187 24.636719 66.671875 24.636719 66.671875-26.257813 7.589844-193.859376 8.589844-193.859376 119.328125zm0 0" fill="#f93d6e"/><path d="m410.699219 217.53125v20.660156c-74.621094-24.851562-90.769531-114.152344-82.800781-157.660156h.011718c13.871094 7.289062 26.488282 16.628906 37.46875 27.609375 28 28 45.320313 66.667969 45.320313 109.390625zm0 0" fill="#efb29a"/><path d="m77.839844 227.789062c7.589844 123.980469 24.269531 183.261719 14.78125 225.300782-24.332032-20.191406-44.859375-44.808594-60.359375-72.609375v-.011719c3.628906-71.328125-7.320313-159.320312 3.019531-235.148438 1.4375-10.589843 3.648438-20.441406 6.527344-29.589843 0-.011719.011718-.011719.011718-.011719 24.800782-78.847656 99.441407-105.929688 164.730469-110.949219h.019531c19.25-1.46875 37.691407-1.03125 53.789063.558594-72.109375 6.972656-194.488281 26.933594-182.519531 222.460937zm0 0" fill="#e41753"/><path d="m300.210938 309.480469v.070312c0 4.128907-.511719 8.128907-1.460938 11.898438-.609375 2.410156-1.398438 4.742187-2.351562 6.941406-5.898438 13.699219-18.039063 23.109375-32.058594 23.109375h-16.589844c-14.019531 0-26.160156-9.410156-32.070312-23.109375-.949219-2.199219-1.738282-4.53125-2.351563-6.941406-.949219-3.769531-1.457031-7.769531-1.457031-11.898438v-.070312zm0 0" fill="#f1eee9"/><path d="m298.75 321.449219c-.609375 2.410156-1.398438 4.742187-2.351562 6.941406-5.898438 13.699219-18.039063 23.109375-32.058594 23.109375h-16.589844c-14.019531 0-26.160156-9.410156-32.070312-23.109375-.949219-2.199219-1.738282-4.53125-2.351563-6.941406zm0 0" fill="#2f373b"/><path d="m267.871094 332.875h-23.660156c-5.710938 0-10.339844 4.628906-10.339844 10.339844v11.828125c0 12.242187 9.925781 22.167969 22.167968 22.167969 12.246094 0 22.171876-9.925782 22.171876-22.167969v-11.828125c0-5.710938-4.632813-10.339844-10.339844-10.339844zm0 0" fill="#f93d6e"/><path d="m278.210938 343.210938v11.828124c0 .382813-.011719.761719-.03125 1.132813-.398438-5.34375-4.871094-9.550781-10.308594-9.550781h-23.660156c-5.441407 0-9.910157 4.207031-10.3125 9.550781-.019532-.371094-.027344-.75-.027344-1.132813v-11.828124c0-5.710938 4.628906-10.339844 10.339844-10.339844h23.660156c5.707031 0 10.339844 4.628906 10.339844 10.339844zm0 0" fill="#e41753"/><path d="m435.8125 250.402344c0 3.0625-2.480469 5.542968-5.542969 5.542968-3.058593 0-5.539062-2.480468-5.539062-5.542968 0-3.058594 2.480469-5.542969 5.539062-5.542969 3.0625 0 5.542969 2.484375 5.542969 5.542969zm0 0" fill="#2f373b"/><path d="m447.339844 258.828125c0 3.0625-2.480469 5.542969-5.539063 5.542969-3.0625 0-5.542969-2.480469-5.542969-5.542969s2.480469-5.542969 5.542969-5.542969c3.058594 0 5.539063 2.480469 5.539063 5.542969zm0 0" fill="#2f373b"/><path d="m424.191406 308.578125c0 3.058594-2.484375 5.539063-5.542968 5.539063-3.0625 0-5.542969-2.480469-5.542969-5.539063 0-3.0625 2.480469-5.542969 5.542969-5.542969 3.058593 0 5.542968 2.480469 5.542968 5.542969zm0 0" fill="#2f373b"/><path d="m359.867188 293.257812-1.539063-1.203124c-1.339844-1.042969-13.097656-10.425782-13.554687-17.878907-.125-2.035156.546874-3.847656 1.945312-5.246093 2.632812-2.632813 5.253906-2.96875 6.984375-2.789063 2.589844.273437 4.714844 1.796875 6.164063 3.214844 1.449218-1.417969 3.574218-2.941407 6.164062-3.214844 1.734375-.179687 4.351562.15625 6.984375 2.789063 1.398437 1.394531 2.070313 3.210937 1.945313 5.246093-.457032 7.453125-12.214844 16.832031-13.554688 17.878907zm-6.980469-22.160156c-.5 0-1.429688.164063-2.632813 1.367188-.386718.386718-.527344.792968-.488281 1.40625.207031 3.34375 5.601563 9.171875 10.101563 12.988281 4.308593-3.652344 9.890624-9.488281 10.101562-12.992187.039062-.609376-.105469-1.015626-.488281-1.402344-1.496094-1.496094-2.566407-1.386719-2.917969-1.351563-2.015625.203125-4.050781 2.644531-4.605469 3.480469l-2.101562 3.183594-2.085938-3.191406c-.546875-.828126-2.582031-3.269532-4.597656-3.472657-.070313-.003906-.164063-.015625-.285156-.015625zm0 0" fill="#0084a6"/></svg>