<svg id="Capa_1" enable-background="new 0 0 512 512" height="512" viewBox="0 0 512 512" width="512" xmlns="http://www.w3.org/2000/svg"><g><path d="m75.547 357.167c-26.077 8.644-43.68 33.025-43.68 60.497v94.336h97.521l-10.807-79.443-30.807-79.443z" fill="#2ee6a8"/><path d="m436.453 357.167c26.077 8.644 43.68 33.025 43.68 60.497v94.336h-97.521l10.807-79.443 30.807-79.443z" fill="#24b3b3"/><path d="m424.227 353.115-41.615 158.885h-31.012l12.046-84.172 32.046-84.172z" fill="#198080"/><path d="m87.773 353.115 41.615 158.885h31.012l-12.031-84.117-32.061-84.227z" fill="#24b3b3"/><path d="m124.704 375.71 35.696 136.29h63.733l10-107.726z" fill="#ece6f2"/><path d="m177.378 323.411-61.07 20.244 8.396 32.055c8.927 34.084 44.095 54.201 78.001 44.619l21.428-6.056v-90.863h-46.755z" fill="#fff5f5"/><path d="m387.296 375.71-35.696 136.29h-63.733l-10-107.726z" fill="#cfcfe6"/><path d="m287.867 414.274v97.726h-31.867l-10-107.726z" fill="#332866"/><path d="m334.622 323.411 61.07 20.244-8.396 32.055c-8.927 34.084-44.095 54.201-78.001 44.619l-21.428-6.056v-90.863h46.755z" fill="#ece6f2"/><path d="m224.133 414.274v97.726h31.867v-107.726z" fill="#574d8c"/><path d="m287.867 384.274v30h-31.867l-10-40z" fill="#ffda44"/><path d="m224.133 384.274v30h31.867v-40z" fill="#fff79f"/><path d="m246 323.411h41.867v60.863h-31.867z" fill="#332866"/><path d="m224.133 323.411h31.867v60.863h-31.867z" fill="#574d8c"/><path d="m415.336 159.336c0-87.999-71.337-159.336-159.336-159.336l-10 172.876 169.336-10z" fill="#b56d3c"/><path d="m256 0c-87.999 0-159.336 71.337-159.336 159.336v3.54l159.336 10z" fill="#c78f2c"/><path d="m81.757 222.91s-2.979 10.192-6.44 24.652c-8.57 35.811 17.323 70.673 54.076 72.918l47.984 2.931h78.623v-100.501z" fill="#c78f2c"/><path d="m436.682 247.563c-3.461-14.461-6.44-24.652-6.44-24.652h-174.242v100.501h78.622l47.984-2.931c36.754-2.245 62.647-37.107 54.076-72.918z" fill="#b56d3c"/><path d="m138.579 226.611h-41.915c-17.6 0-31.868-14.268-31.868-31.868 0-17.6 14.268-31.868 31.868-31.868h31.867z" fill="#ffdecf"/><path d="m373.421 226.611h41.915c17.6 0 31.868-14.268 31.868-31.868 0-17.6-14.268-31.868-31.868-31.868h-31.867z" fill="#ffcdbe"/><path d="m383.444 162.876c-20.396 0-47.796-2.591-81.437-7.703-16.972-2.579-32.479-11.178-43.665-24.215-.806-.939-1.578-1.902-2.331-2.878-.004.005-.008.01-.012.014l-10 79.041 10 143.403c70.399 0 127.469-57.07 127.469-127.469v-60.195h-.024z" fill="#ffdecf"/><path d="m253.681 130.959c-11.187 13.037-26.693 21.636-43.665 24.215-33.641 5.111-61.04 7.703-81.437 7.703h-.048v60.195c0 70.399 57.07 127.469 127.469 127.469v-222.446c-.75.971-1.517 1.929-2.319 2.864z" fill="#ffeee5"/><path d="m184.299 192.137h31.867v30h-31.867z" fill="#332866"/><path d="m295.834 192.137h31.867v30h-31.867z" fill="#180a33"/></g></svg>