<svg id="Capa_1" enable-background="new 0 0 512 512" height="512" viewBox="0 0 512 512" width="512" xmlns="http://www.w3.org/2000/svg"><g><path d="m0 256c0-141.385 114.615-256 256-256s256 114.615 256 256c0 80.844-37.475 152.936-96 199.851-2.326 1.864-102.672-45.203-160-45.203s-157.674 47.068-160 45.204c-58.525-46.916-96-119.008-96-199.852z" fill="#20b7a1"/><path d="m462 256c0 113.771-92.229 206-206 206s-206-92.229-206-206 92.229-206 206-206 206 92.229 206 206z" fill="#24d3b5"/><path d="m209.333 350.416c-38.66 0-70 31.34-70 70v48.613c0 6.811-7.411 11.049-13.277 7.586-10.525-6.213-20.567-13.158-30.056-20.764v-35.436c0-38.66 31.34-70 70-70h43.333z" fill="#b03244"/><path d="m416 420.416v35.436c-26.676 21.385-57.727 37.538-91.595 46.906-1.027.284-13.704-2.199-19.483-2.199h-97.844c-5.779 0-18.456 2.484-19.483 2.2-21.843-6.042-42.514-14.906-61.595-26.176v-56.167c0-38.66 31.34-70 70-70h150c38.66 0 70 31.34 70 70z" fill="#c83c50"/><path d="m355.678 418.149v73.72c-4.923 2.083-9.925 4.017-15 5.795v-79.514c0-4.142 3.358-7.5 7.5-7.5s7.5 3.357 7.5 7.499zm-191.856-7.5c-4.142 0-7.5 3.358-7.5 7.5v73.72c4.923 2.083 9.925 4.017 15 5.795v-79.514c0-4.143-3.358-7.501-7.5-7.501z" fill="#b03244"/><path d="m171 370 70-50s-20.862 189.718-31 187.878c-7.59-1.377-15.064-3.089-22.405-5.12zm100-40s20.862 179.718 31 177.878c7.59-1.377 15.064-3.089 22.405-5.12l16.595-132.758z" fill="#fb5858"/><path d="m302 350v157.878c-11.741 2.13-23.76 3.46-36 3.93-3.318.127-10-16.425-10-16.425s-6.682 16.553-10 16.425c-12.24-.47-24.259-1.8-36-3.93v-157.878z" fill="#c2eaf2"/><path d="m266 349.042v162.766c-3.318.127-6.651.192-10 .192s-6.682-.064-10-.192v-162.766z" fill="#203e76"/><path d="m271 374.021v15.979c0 5.523-4.477 10-10 10h-10c-5.523 0-10-4.477-10-10v-15.979c0-5.523 4.477-10 10-10h10c5.523 0 10 4.478 10 10z" fill="#4172cc"/><path d="m325.249 355.121-38.376 38.376c-1.953 1.953-5.118 1.953-7.071 0l-23.802-23.802-23.802 23.802c-1.953 1.953-5.118 1.953-7.071 0l-38.376-38.376c-1.953-1.953-1.953-5.118 0-7.071l69.249-69.249 69.249 69.249c1.952 1.952 1.952 5.118 0 7.071z" fill="#fff5f5"/><path d="m171 225.416v10c0 13.807-11.193 25-25 25s-25-11.193-25-25v-10c0-13.807 11.193-25 25-25s25 11.193 25 25z" fill="#ffcdbe"/><path d="m136 220.416v20c0 8.178 3.927 15.439 9.998 20-13.806-.001-24.998-11.194-24.998-25v-10c0-13.806 11.192-24.999 24.998-25-6.071 4.561-9.998 11.822-9.998 20zm230-20v-20c0-60.751-49.249-110-110-110-60.751 0-110 49.249-110 110v40c0 50.351 33.83 92.801 80 105.859v4.905c0 5.271 2.081 10.33 5.791 14.075l24.209 24.44 24.209-24.44c3.71-3.745 5.791-8.803 5.791-14.075v-4.905c33.586-9.499 60.641-34.551 72.895-66.883 2.252.667 4.637 1.024 7.105 1.024 13.807 0 25-11.193 25-25v-10c0-13.807-11.193-25-25-25z" fill="#ffbeaa"/><path d="m366 180.416v40c0 50.792-34.425 93.543-81.216 106.195-9.023 2.44-18.545 2.44-27.568 0-46.791-12.652-81.216-55.403-81.216-106.195v-40c0-55.663 41.345-101.669 95-108.985 53.655 7.316 95 53.322 95 108.985z" fill="#ffcdbe"/><path d="m205.025 69.626-22.578 63.057h-40.17l22.578-63.057c6.336-17.695 21.473-30.824 39.911-34.467 16.655-3.291 33.772-5.005 51.234-5.005 6.749 0 13.446.256 20.085.76-10.539.8-20.931 2.226-31.149 4.245-18.438 3.643-33.576 16.773-39.911 34.467z" fill="#ae583e"/><path d="m347.146 69.626 22.578 63.057h-192.549l22.578-63.057c6.336-17.695 21.473-30.824 39.911-34.467 11.069-2.187 22.342-3.678 33.785-4.432 11.443.754 22.716 2.244 33.785 4.432 18.439 3.643 33.576 16.773 39.912 34.467z" fill="#c0694e"/><path d="m202.175 127.883c0 13.807-11.193 25-25 25h-66.175c-13.807 0-25-11.193-25-25 0-2.761 2.239-5 5-5h106.175c2.761 0 5 2.239 5 5z" fill="#c0694e"/><path d="m426 127.883c0 13.807-11.193 25-25 25h-244.413c-13.807 0-25-11.193-25-25 0-2.761 2.239-5 5-5h284.413c2.761 0 5 2.239 5 5z" fill="#c97e67"/><path d="m237.042 189.15c0 18.051-14.633 32.684-32.684 32.684s-32.684-14.633-32.684-32.684 14.633-32.684 32.684-32.684 32.684 14.633 32.684 32.684zm70.6-32.684c-18.051 0-32.684 14.633-32.684 32.684s14.633 32.684 32.684 32.684 32.684-14.633 32.684-32.684-14.634-32.684-32.684-32.684z" fill="#bacbec"/><path d="m223.5 187.916c0 8.284-6.716 15-15 15s-15-6.716-15-15 6.716-15 15-15 15 6.716 15 15zm80-15c-8.284 0-15 6.716-15 15s6.716 15 15 15 15-6.716 15-15-6.716-15-15-15z" fill="#61362b"/><path d="m226 180.416c0 4.142-3.358 7.5-7.5 7.5s-7.5-3.358-7.5-7.5 3.358-7.5 7.5-7.5 7.5 3.358 7.5 7.5zm87.5-7.5c-4.142 0-7.5 3.358-7.5 7.5s3.358 7.5 7.5 7.5 7.5-3.358 7.5-7.5-3.358-7.5-7.5-7.5z" fill="#fff5f5"/><path d="m371.423 189.62h-25.601c.002-.156.003-.313.003-.47 0-21.055-17.129-38.184-38.184-38.184-19.187 0-35.114 14.226-37.788 32.684h-27.708c-2.674-18.458-18.601-32.684-37.788-32.684-21.055 0-38.184 17.129-38.184 38.184 0 .157.001.313.003.47h-25.6c-3.038 0-5.5 2.463-5.5 5.5s2.462 5.5 5.5 5.5h27.357c4.881 15.468 19.363 26.714 36.423 26.714 19.187 0 35.114-14.226 37.788-32.684h27.708c2.674 18.458 18.601 32.684 37.788 32.684 17.06 0 31.542-11.246 36.423-26.714h27.358c3.037 0 5.5-2.463 5.5-5.5s-2.461-5.5-5.498-5.5zm-167.065 26.714c-14.989 0-27.184-12.194-27.184-27.184s12.194-27.184 27.184-27.184 27.184 12.194 27.184 27.184-12.194 27.184-27.184 27.184zm103.284 0c-14.989 0-27.184-12.194-27.184-27.184s12.194-27.184 27.184-27.184 27.184 12.194 27.184 27.184-12.195 27.184-27.184 27.184z" fill="#2e5aac"/><path d="m241.5 227.147c-2.929-2.93-2.929-7.678 0-10.607 2.929-2.928 7.678-2.928 10.606 0 1.042 1.042 2.424 1.616 3.893 1.616s2.851-.574 3.893-1.616c2.929-2.928 7.678-2.928 10.606 0 2.929 2.93 2.929 7.678 0 10.607-3.875 3.875-9.024 6.009-14.5 6.009s-10.623-2.134-14.498-6.009zm44.803 27.601c-2.929-2.928-7.678-2.928-10.606 0-10.861 10.861-28.532 10.861-39.394 0-2.929-2.928-7.678-2.928-10.606 0-2.929 2.93-2.929 7.678 0 10.607 8.354 8.354 19.329 12.531 30.303 12.531s21.949-4.177 30.303-12.531c2.929-2.929 2.929-7.677 0-10.607z" fill="#e09380"/></g></svg>