<svg id="Capa_1" enable-background="new 0 0 512 512" height="512" viewBox="0 0 512 512" width="512" xmlns="http://www.w3.org/2000/svg"><g><g><path d="m55.031 407.139c-27.744-39.712-44.031-88.02-44.031-140.139 0-135.31 109.69-245 245-245s245 109.69 245 245c0 52.119-16.287 100.427-44.031 140.139z" fill="#49d88b"/></g><g><circle cx="256" cy="242" fill="#38c674" r="200"/></g><g><path d="m388.907 252.146c-18.31-6.409-23.303-19.114-15.388-44.081s-28.802-51.13-28.802-51.13h-88.717-88.717s-36.718 26.162-28.802 51.13c7.915 24.968 2.922 37.673-15.388 44.081-18.31 6.409-61.587 47.467-16.09 107.389h148.997 148.997c45.497-59.922 2.219-100.98-16.09-107.389z" fill="#a05838"/></g><g><path d="m327.362 208.064c4.807-24.968-17.49-51.13-17.49-51.13h-53.872-53.872s-22.296 26.162-17.49 51.13c14.114 73.314-67.347 46.046-19.115 151.471h90.477 90.476c42.396-92.03-30.186-93.959-19.114-151.471z" fill="#934a2e"/></g><g><path d="m355.547 83.218c-12.65-41.159-45.137-83.218-80.681-83.218-12.234 0-18.866 12-18.866 12s-6.632-12-18.866-12c-35.545 0-68.033 42.062-80.682 83.222-3.586 10.526-5.547 21.804-5.589 33.534-.001.128-.005.259-.005.387v30.076h210.286v-30.076c-.001-11.871-1.971-23.282-5.597-33.925z" fill="#b76c4e"/></g><g><path d="m208.916 147.218v-12.854c-19.658-17.231-40.8-96.13-.303-125.564-23.524 14.475-43.023 44.682-52.162 74.423-3.586 10.526-5.547 21.804-5.589 33.534-.001.128-.005.259-.005.387v30.076h58.059z" fill="#a05838"/></g><g><path d="m180.942 159.567s-10.385-25.285-28.897-19.415.448 60.664 36.573 64.116z" fill="#fd995b"/></g><g><path d="m331.058 159.567s10.385-25.285 28.897-19.415-.448 60.664-36.573 64.116z" fill="#fcad6d"/></g><g><path d="m409.617 457.831h-307.234c-18.06-14.558-34.021-31.615-47.333-50.665.001-.009.001-.017.002-.026 8.256-22.709 16.99-42.685 24.722-51.911.904-1.078 1.795-2.019 2.668-2.79 6.623-5.848 19.39-11.382 34.352-16.323 37.929-12.525 89.967-21.232 91.82-21.54h94.772c1.853.307 53.892 9.014 91.82 21.54 14.961 4.941 27.729 10.475 34.352 16.323.874.772 1.765 1.712 2.668 2.79 7.732 9.226 16.467 29.203 24.722 51.911.001.009.001.018.002.026-13.311 19.049-29.273 36.106-47.333 50.665z" fill="#fcad6d"/></g><g><path d="m182.912 319.385c-18.834 3.813-44.718 9.662-66.118 16.729-14.961 4.941-27.729 10.475-34.352 16.323-.874.772-1.765 1.712-2.668 2.79-7.732 9.226-16.467 29.203-24.722 51.911-.001.009-.001.018-.002.026 13.312 19.05 29.274 36.107 47.333 50.665h60.55c-17.346-67.552 9.435-120.944 19.979-138.444z" fill="#fd995b"/></g><g><path d="m276.616 369.362s10.767-11.809 23.703-11.809 55.191 11.809 55.191 11.809z" fill="#fd995b"/></g><g><path d="m235.384 369.362s-10.767-11.809-23.703-11.809-55.191 11.809-55.191 11.809z" fill="#fd995b"/></g><g><path d="m391.147 471.33c6.374-4.223 12.555-8.713 18.491-13.499-4.027-11.7-11.689-21.884-21.736-29.06v42.559z" fill="#fd995b"/></g><g><path d="m124.098 471.33v-42.559c-10.047 7.176-17.708 17.36-21.736 29.06 5.936 4.786 12.117 9.277 18.491 13.499z" fill="#ef854b"/></g><g><path d="m208.614 221.239v93.336s19.021 20.093 47.17 20.093c.073 0 .143-.005.216-.005 28.031-.103 47.386-20.088 47.386-20.088v-93.336z" fill="#fd995b"/></g><g><path d="m315.656 316.82s29.213 19.687 17.427 92.888h34.073s5.844-80.154-61.5-106.879z" fill="#dae2fe"/></g><g><path d="m196.344 316.82s-29.213 19.687-17.428 92.888h-34.073s-5.844-80.154 61.5-106.879z" fill="#bec8f7"/></g><g><path d="m306.019 282.701h-100.078c-5.322 0-9.637 4.314-9.637 9.637v24.482s21.377 17.848 59.676 17.848 59.676-17.848 59.676-17.848v-24.482c0-5.322-4.315-9.637-9.637-9.637z" fill="#e9efff"/></g><g><path d="m226.324 292.338c0-5.322 4.315-9.637 9.637-9.637h-30.02c-5.322 0-9.637 4.314-9.637 9.637v24.482s10.528 8.773 30.02 14.017z" fill="#dae2fe"/></g><g><path d="m255.784 82.484s-19.69 60.442-87.333 60.562c-.029 1.23-.049 2.464-.049 3.708 0 64.505 39.219 140.155 87.597 140.155s87.597-75.651 87.597-140.155c0-1.244-.02-2.478-.049-3.708-67.642-.12-87.763-60.562-87.763-60.562z" fill="#f9ba8f"/></g><g><path d="m208.403 146.754c0-4.214.187-8.339.513-12.39-11.036 5.219-24.395 8.653-40.465 8.682-.029 1.23-.049 2.464-.049 3.708 0 64.505 39.219 140.155 87.597 140.155 6.881 0 13.576-1.535 20-4.346-38.74-16.952-67.596-80.479-67.596-135.809z" fill="#fcad6d"/></g><g><path d="m223.5 138.968h-20c-4.142 0-7.5-3.358-7.5-7.5 0-4.142 3.358-7.5 7.5-7.5h20c4.142 0 7.5 3.358 7.5 7.5 0 4.142-3.358 7.5-7.5 7.5z" fill="#934a2e"/></g><g><path d="m308.5 138.968h-20c-4.142 0-7.5-3.358-7.5-7.5 0-4.142 3.358-7.5 7.5-7.5h20c4.142 0 7.5 3.358 7.5 7.5 0 4.142-3.358 7.5-7.5 7.5z" fill="#934a2e"/></g><g><g><path d="m242.013 192.447 8.436-13.441c2.569-4.093 8.533-4.093 11.102 0l8.436 13.441c2.739 4.365-.398 10.038-5.551 10.038h-16.871c-5.154-.001-8.291-5.674-5.552-10.038z" fill="#fd995b"/></g></g><g><g><path d="m235.384 240.87h41.233c4.111-3.622 7.258-8.309 9.01-13.631 1.584-4.811-2.069-9.754-7.134-9.754h-44.985c-5.065 0-8.718 4.943-7.134 9.754 1.752 5.322 4.899 10.009 9.01 13.631z" fill="#162544"/></g><g><path d="m276.616 240.87c-5.493 4.849-12.714 7.798-20.616 7.798s-15.124-2.948-20.616-7.798c5.5-4.849 12.714-7.798 20.616-7.798s15.116 2.949 20.616 7.798z" fill="#ff4155"/></g></g><g><path d="m310.999 162.085c.043-3.495-1.371-7.004-4.242-9.539-4.675-4.128-11.84-4.128-16.515 0-2.871 2.535-4.284 6.044-4.242 9.539.055 4.538 5.629 6.716 8.838 3.507 2.022-2.022 5.3-2.022 7.322 0 3.21 3.21 8.784 1.032 8.839-3.507z" fill="#162544"/></g><g><path d="m201.001 162.085c-.043-3.495 1.371-7.004 4.242-9.539 4.675-4.128 11.84-4.128 16.515 0 2.871 2.535 4.284 6.044 4.242 9.539-.055 4.538-5.629 6.716-8.838 3.507-2.022-2.022-5.3-2.022-7.322 0-3.21 3.21-8.784 1.032-8.839-3.507z" fill="#162544"/></g><g><path d="m177.575 395.255c-37.77 0-66.143 34.911-57.928 71.776.604 2.713 1.146 4.246 1.165 4.298v.009c38.748 25.688 85.216 40.662 135.188 40.662 49.971 0 96.439-14.974 135.187-40.661l.001-.009c.019-.052.56-1.586 1.165-4.298 8.215-36.866-20.158-71.776-57.928-71.776h-156.85z" fill="#e9efff"/></g><g><path d="m177.206 395.266c-37.584.228-65.746 35.021-57.558 71.766.604 2.713 1.146 4.246 1.165 4.298v.009c38.748 25.687 85.215 40.661 135.187 40.661 12.203 0 24.196-.899 35.92-2.623-66.012-14.346-113.138-83.959-114.714-114.111z" fill="#dae2fe"/></g></g></svg>