<svg height="512pt" viewBox="0 0 512 512" width="512pt" xmlns="http://www.w3.org/2000/svg"><path d="m512 256c0 74.148438-31.53125 140.941406-81.910156 187.699219-25.167969 23.351562-55.050782 41.699219-88.050782 53.472656-26.890624 9.597656-55.847656 14.828125-86.039062 14.828125s-59.160156-5.230469-86.050781-14.828125c-33-11.773437-62.878907-30.132813-88.050781-53.480469-50.378907-46.761718-81.898438-113.542968-81.898438-187.691406 0-139.878906 112.210938-253.570312 251.519531-255.9609375.609375-.0078125 1.210938-.0195313 1.820313-.0273437h.21875c.8125-.0117188 1.632812-.0117188 2.441406-.0117188s1.621094 0 2.429688.0117188c.679687.0078124 1.359374.0195312 2.039062.0273437 139.320312 2.3828125 251.53125 116.0703125 251.53125 255.9609375zm0 0" fill="#ffbb16"/><path d="m135.105469 343.515625h240.761719v113.0625h-240.761719zm0 0" fill="#bd5423"/><path d="m59.796875 81.429688c-19.269531-10.617188-41.660156-10.109376-59.796875-.628907 1.667969 20.398438 13.195312 39.601563 32.460938 50.21875 19.265624 10.621094 41.65625 10.113281 59.792968.632813-1.667968-20.398438-13.191406-39.601563-32.457031-50.222656zm0 0" fill="#40b4d3"/><path d="m73.6875 107.4375c-5.34375-2.945312-11.136719-4.277344-16.828125-4.160156-9.371094.195312-15.023437 10.445312-10.179687 18.472656 2.9375 4.871094 7.160156 9.0625 12.5 12.003906 10.222656 5.636719 22.105468 5.367188 31.730468.335938-.882812-10.824219-7-21.015625-17.222656-26.652344zm0 0" fill="#0084a6"/><path d="m39.894531 156.714844c-10.621093 19.265625-10.113281 41.65625-.632812 59.796875 20.398437-1.667969 39.601562-13.195313 50.222656-32.460938 10.617187-19.265625 10.109375-41.65625.628906-59.792969-20.394531 1.667969-39.601562 13.191407-50.21875 32.457032zm0 0" fill="#40b4d3"/><path d="m65.558594 140.125c-2.230469 4.050781-3.457032 8.378906-3.761719 12.703125-.722656 10.257813 10.992187 16.714844 19.277344 10.625 3.492187-2.566406 6.5-5.914063 8.730469-9.964844 5.191406-9.417969 4.945312-20.367187.308593-29.234375-9.972656.816406-19.359375 6.453125-24.554687 15.871094zm0 0" fill="#0084a6"/><path d="m398.410156 468.761719c-12.339844 8.277343-25.441406 15.519531-39.179687 21.566406-10.652344 4.703125-21.679688 8.703125-33.03125 11.921875-22.300781 6.351562-45.847657 9.75-70.199219 9.75-24.339844 0-47.890625-3.398438-70.199219-9.738281-7.242187-2.0625-14.359375-4.441407-21.332031-7.121094-.429688-.160156-.859375-.320313-1.289062-.492187-3.507813-1.359376-6.980469-2.808594-10.410157-4.320313-13.738281-6.058594-26.839843-13.289063-39.191406-21.578125 10.390625-14.371094 23.761719-26.429688 39.191406-35.320312 10.199219-5.871094 21.300781-10.339844 33.03125-13.148438 1.808594-.441406 3.640625-.839844 5.480469-1.191406 3.46875-.679688 7-1.199219 10.570312-1.570313 1.027344-.109375 2.046876-.210937 3.089844-.289062 3.378906-.28125 6.796875-.421875 10.257813-.421875h81.589843c4.519532 0 8.972657.242187 13.351563.703125 3.570313.367187 7.089844.898437 10.570313 1.558593 1.390624.269532 2.769531.558594 4.140624.871094.449219.117188.910157.207032 1.347657.328125 11.742187 2.820313 22.832031 7.289063 33.03125 13.160157 15.429687 8.898437 28.789062 20.960937 39.179687 35.332031zm0 0" fill="#f93d6e"/><path d="m215.199219 416.808594c-29.359375 0-49.257813 42.429687-50.730469 78.332031-.429688-.160156-.859375-.320313-1.289062-.492187-3.507813-1.359376-6.980469-2.808594-10.410157-4.320313-13.738281-6.058594-26.839843-13.289063-39.191406-21.578125 10.390625-14.371094 23.761719-26.429688 39.191406-35.320312 10.199219-5.871094 21.300781-10.339844 33.03125-13.148438 1.808594-.441406 3.640625-.839844 5.480469-1.191406 3.46875-.679688 7-1.199219 10.570312-1.570313 1.027344-.109375 2.046876-.210937 3.089844-.289062 3.378906-.28125 6.796875-.421875 10.257813-.421875zm0 0" fill="#e41753"/><path d="m255.988281 468.109375-52.996093 29.453125-16.121094-74.988281 32.929687-19.390625" fill="#e41753"/><path d="m255.988281 468.109375 52.992188 29.453125 16.121093-74.988281-32.925781-19.390625" fill="#e41753"/><path d="m300.707031 368.539062v54.867188c0 20.089844-13.246093 37.066406-31.488281 42.707031-4.179688 1.296875-8.628906 1.996094-13.230469 1.996094-24.691406 0-44.703125-20.011719-44.703125-44.703125v-54.867188zm0 0" fill="#efb29a"/><path d="m300.707031 419.933594v3.472656c0 20.089844-13.246093 37.066406-31.488281 42.707031-16.460938-5.058593-28.839844-19.371093-31.125-36.882812 2.988281.183593 5.992188.273437 9.007812.273437 8.460938 0 16.75-.671875 24.828126-1.996094 9.953124-1.601562 19.570312-4.160156 28.777343-7.574218zm0 0" fill="#f9c5ac"/><path d="m132.539062 278.152344c0 20.496094-14.972656 37.492187-34.578124 40.648437-2.144532.34375-4.347657.527344-6.597657.527344-22.746093 0-41.171875-18.429687-41.171875-41.175781s18.425782-41.175782 41.171875-41.175782c2.25 0 4.453125.179688 6.597657.527344 19.605468 3.15625 34.578124 20.152344 34.578124 40.648438zm0 0" fill="#f9c5ac"/><path d="m132.539062 278.152344c0 20.496094-14.972656 37.492187-34.578124 40.648437-3.5625-12.953125-5.464844-26.582031-5.464844-40.648437s1.902344-27.695313 5.464844-40.644532c19.605468 3.152344 34.578124 20.148438 34.578124 40.644532zm0 0" fill="#efb29a"/><path d="m106.082031 278.152344c0 8.128906-6.589843 14.714844-14.71875 14.714844-8.125 0-14.714843-6.585938-14.714843-14.714844 0-8.125 6.589843-14.714844 14.714843-14.714844 8.128907 0 14.71875 6.589844 14.71875 14.714844zm0 0" fill="#efb29a"/><path d="m379.449219 278.152344c0 20.496094 14.972656 37.492187 34.578125 40.648437 2.144531.34375 4.347656.527344 6.597656.527344 22.746094 0 41.175781-18.429687 41.175781-41.175781s-18.429687-41.175782-41.175781-41.175782c-2.25 0-4.453125.179688-6.597656.527344-19.605469 3.15625-34.578125 20.152344-34.578125 40.648438zm0 0" fill="#f9c5ac"/><path d="m379.449219 278.152344c0 20.496094 14.972656 37.492187 34.578125 40.648437 3.5625-12.953125 5.464844-26.582031 5.464844-40.648437s-1.902344-27.695313-5.464844-40.644532c-19.605469 3.152344-34.578125 20.148438-34.578125 40.644532zm0 0" fill="#efb29a"/><path d="m435.339844 278.152344c0 8.128906-6.589844 14.714844-14.714844 14.714844-8.128906 0-14.71875-6.585938-14.71875-14.714844 0-8.125 6.589844-14.714844 14.71875-14.714844 8.125 0 14.714844 6.589844 14.714844 14.714844zm0 0" fill="#efb29a"/><path d="m410.699219 99.011719v157.5c0 48.378906-22.210938 91.578125-56.988281 119.9375-20.570313 16.78125-45.53125 28.359375-72.890626 32.769531-8.070312 1.320312-16.371093 1.992188-24.832031 1.992188-36.96875 0-70.898437-12.960938-97.507812-34.589844-34.902344-28.371094-57.191407-71.632813-57.191407-120.109375v-157.5zm0 0" fill="#f9c5ac"/><path d="m353.21875 372.171875.492188 4.277344c-20.570313 16.78125-45.53125 28.359375-72.890626 32.769531-8.070312 1.320312-16.371093 1.992188-24.832031 1.992188-36.96875 0-70.898437-12.960938-97.507812-34.589844l.289062-4.449219c-11.910156-94.050781 59.800781-70.5625 97.21875-70.5625 37.433594 0 109.140625-23.488281 97.230469 70.5625zm0 0" fill="#efb29a"/><path d="m237.957031 249.292969-7.804687-10.394531c15.214844-11.425782 36.46875-11.425782 51.683594 0l-7.804688 10.394531c-10.621094-7.972657-25.453125-7.972657-36.074219 0zm0 0" fill="#181e21"/><path d="m283.242188 408.808594c-.800782.140625-1.609376.28125-2.417969.410156-8.082031 1.320312-16.371094 1.992188-24.832031 1.992188-85.4375 0-154.699219-69.25-154.699219-154.699219v-157.5h54.550781v157.5c0 76.136719 54.980469 139.410156 127.398438 152.296875zm0 0" fill="#efb29a"/><path d="m255.996094 343.914062c-12.957032 0-25.910156-3.242187-37.71875-9.734374-3.328125-1.832032-4.542969-6.015626-2.714844-9.347657 1.832031-3.328125 6.015625-4.542969 9.347656-2.714843 19.464844 10.703124 42.707032 10.699218 62.167969 0 3.332031-1.832032 7.515625-.613282 9.347656 2.714843 1.832031 3.332031.617188 7.515625-2.714843 9.347657-11.808594 6.492187-24.761719 9.734374-37.714844 9.734374zm0 0" fill="#dd9f8a"/><path d="m243.835938 244.097656c0 24.445313-19.820313 44.265625-44.265626 44.265625-24.445312 0-44.265624-19.820312-44.265624-44.265625 0-24.445312 19.820312-44.261718 44.265624-44.261718 24.445313 0 44.265626 19.816406 44.265626 44.261718zm0 0" fill="#181e21"/><path d="m334.546875 205.773438c-21.171875-12.222657-48.242187-4.96875-60.464844 16.199218-12.222656 21.171875-4.96875 48.242188 16.199219 60.464844 21.171875 12.222656 48.242188 4.96875 60.464844-16.199219 12.222656-21.171875 4.96875-48.242187-16.199219-60.464843zm0 0" fill="#181e21"/><path d="m343.519531 262.054688c-9.917969 17.171874-31.882812 23.058593-49.054687 13.144531-2.789063-1.609375-5.28125-3.535157-7.453125-5.710938 15.316406 4.109375 32.074219-2.359375 40.378906-16.742187 8.3125-14.394532 5.527344-32.132813-5.691406-43.34375 2.972656.792968 5.886719 1.988281 8.675781 3.601562 17.171875 9.910156 23.0625 31.867188 13.144531 49.050782zm0 0" fill="#2f373b"/><path d="m347.179688 229.992188 41.234374-4.65625 1.460938 12.917968-41.234375 4.65625zm0 0" fill="#181e21"/><path d="m122.121094 238.242188 1.457031-12.917969 41.234375 4.65625-1.457031 12.917969zm0 0" fill="#181e21"/><path d="m273.542969 291.695312h-35.097657c-4.179687 0-7.570312-3.390624-7.570312-7.570312 0-4.183594 3.390625-7.570312 7.570312-7.570312h35.097657c4.183593 0 7.570312 3.386718 7.570312 7.570312 0 4.179688-3.386719 7.570312-7.570312 7.570312zm0 0" fill="#efb29a"/><path d="m255.988281 99.011719c0 5.988281-1.628906 11.867187-4.539062 17.699219-24.140625 48.617187-136.050781 93.277343-118.910157 161.4375 17.621094 70.089843 53.152344 160.570312 37.410157 219.023437-8.257813-2.953125-16.320313-6.3125-24.160157-10.050781-23.5-11.222656-45.019531-25.921875-63.890624-43.429688v-302.691406c0-56.390625 56.851562-136.789062 169.632812-140.828125 1.480469-.0625 2.96875-.1015625 4.46875-.1328125.800781-.0078125-.011719 98.9726565-.011719 98.9726565zm0 0" fill="#bd5423"/><path d="m132.539062 278.148438c17.621094 70.089843 53.152344 160.570312 37.410157 219.023437-8.257813-2.953125-16.320313-6.3125-24.160157-10.050781 17.671876-33.691406 3.871094-98.402344-20.988281-176.53125-27.941406-87.789063 33.917969-133.679688 45.890625-178.570313l80.757813-15.308593c-24.140625 48.617187-136.050781 93.277343-118.910157 161.4375zm0 0" fill="#d9723e"/><path d="m430.089844 141v302.699219c-25.167969 23.351562-55.050782 41.699219-88.050782 53.472656-15.738281-58.453125 19.789063-148.933594 37.410157-219.023437 19.191406-76.328126-123.460938-123.1875-123.460938-179.136719 0 0-7.761719-41.074219-7.816406-70.300781-.03125-16.148438 7.429687-28.679688 7.699219-28.6718755h.128906c1.5.03125 2.988281.0703125 4.460938.1328125 112.777343 4.039063 169.628906 84.4375 169.628906 140.828125zm0 0" fill="#d9723e"/><path d="m221.695312 205.769531c-21.167968-12.222656-48.242187-4.96875-60.464843 16.199219-12.222657 21.171875-4.96875 48.242188 16.203125 60.464844 21.167968 12.226562 48.238281 4.972656 60.464844-16.199219 12.222656-21.171875 4.96875-48.242187-16.203126-60.464844zm0 0" fill="#181e21"/><path d="m230.667969 262.054688c-9.914063 17.171874-31.882813 23.058593-49.054688 13.144531-2.789062-1.609375-5.277343-3.535157-7.453125-5.710938 15.320313 4.109375 32.078125-2.359375 40.382813-16.742187 8.308593-14.394532 5.523437-32.132813-5.691407-43.34375 2.972657.792968 5.882813 1.988281 8.671876 3.601562 17.171874 9.910156 23.066406 31.867188 13.144531 49.050782zm0 0" fill="#2f373b"/><path d="m425.164062 79.253906c-112.679687-6.726562-225.660156-6.726562-338.339843 0-5.09375.304688-9.070313 4.539063-9.070313 9.648438v46.496094c0 5.5625 4.683594 9.960937 10.234375 9.628906 111.90625-6.632813 224.105469-6.632813 336.011719 0 5.550781.332031 10.234375-4.066406 10.234375-9.628906v-46.5c.003906-5.105469-3.972656-9.339844-9.070313-9.644532zm0 0" fill="#40b4d3"/><path d="m142.59375 85.71875v53.632812c0 1.019532.140625 2.007813.390625 2.949219-18.339844.730469-36.671875 1.640625-55 2.730469-5.550781.328125-10.230469-4.070312-10.230469-9.632812v-46.5c0-5.109376 3.96875-9.339844 9.070313-9.648438 20.320312-1.210938 40.660156-2.210938 61-2.980469-3.152344 1.96875-5.230469 5.492188-5.230469 9.449219zm0 0" fill="#0084a6"/><g fill="#f93d6e"><path d="m441.140625 119.484375c0 9.464844-7.675781 27.605469-17.140625 27.605469s-17.136719-18.140625-17.136719-27.605469 7.671875-17.136719 17.136719-17.136719 17.140625 7.671875 17.140625 17.136719zm0 0"/><path d="m406.863281 197.488281c0-9.464843 7.671875-27.605469 17.136719-27.605469s17.140625 18.140626 17.140625 27.605469c0 9.464844-7.675781 17.136719-17.140625 17.136719s-17.136719-7.671875-17.136719-17.136719zm0 0"/><path d="m398.796875 124.144531c8.195313 4.734375 20.066406 20.449219 15.335937 28.644531-4.734374 8.195313-24.277343 5.773438-32.476562 1.039063-8.195312-4.730469-11.003906-15.214844-6.273438-23.410156 4.734376-8.195313 15.214844-11.007813 23.414063-6.273438zm0 0"/><path d="m449.207031 192.828125c-8.195312-4.730469-20.070312-20.445313-15.335937-28.644531 4.730468-8.195313 24.277344-5.769532 32.472656-1.039063 8.199219 4.734375 11.007812 15.214844 6.273438 23.410157-4.730469 8.199218-15.214844 11.007812-23.410157 6.273437zm0 0"/><path d="m381.65625 163.144531c8.199219-4.734375 27.742188-7.15625 32.476562 1.039063 4.730469 8.199218-7.140624 23.914062-15.335937 28.644531-8.199219 4.734375-18.679687 1.925781-23.414063-6.273437-4.730468-8.195313-1.921874-18.675782 6.273438-23.410157zm0 0"/><path d="m466.34375 153.828125c-8.195312 4.734375-27.742188 7.15625-32.472656-1.039063-4.734375-8.199218 7.140625-23.910156 15.335937-28.644531 8.195313-4.734375 18.679688-1.925781 23.410157 6.273438 4.734374 8.195312 1.925781 18.679687-6.273438 23.410156zm0 0"/></g><path d="m446.109375 158.488281c0 12.210938-9.898437 22.109375-22.109375 22.109375s-22.109375-9.898437-22.109375-22.109375c0-12.210937 9.898437-22.109375 22.109375-22.109375s22.109375 9.898438 22.109375 22.109375zm0 0" fill="#f1eee9"/></svg>