<svg id="Capa_1" enable-background="new 0 0 512 512" height="512" viewBox="0 0 512 512" width="512" xmlns="http://www.w3.org/2000/svg"><g><path d="m419.371 319.638c22.656-87.07-35.902-128.434-35.902-128.434h-71.701v128.434z" fill="#332866"/><path d="m436.453 325.3-101.831-33.756-78.622 220.456h224.133v-126.203c0-27.472-17.604-51.853-43.68-60.497z" fill="#e50058"/><path d="m75.547 325.3 101.831-33.756 78.622 220.456h-224.133v-126.203c0-27.472 17.604-51.853 43.68-60.497z" fill="#ff4a4a"/><path d="m380.51 369.908-45.888-78.364-37.055 75.863-41.567 144.593c92.904-6.031 124.51-142.092 124.51-142.092z" fill="#ece6f2"/><path d="m131.49 369.908 45.888-78.364 37.055 75.863 41.567 144.593c-92.904-6.031-124.51-142.092-124.51-142.092z" fill="#fff5f5"/><path d="m256 512 40.868-114.593-50.868-10z" fill="#6680ff"/><path d="m215.132 397.407 40.868 114.593v-124.593z" fill="#80aaff"/><path d="m256 397.407h40.868l10.699-30-61.567-10z" fill="#80aaff"/><path d="m256 357.407-51.567 10 10.699 30h40.868z" fill="#9cf"/><path d="m307.567 367.407 27.055-75.863h-88.622l10 75.863z" fill="#c78f2c"/><path d="m204.433 367.407h51.567v-75.863h-78.622z" fill="#e1bb78"/><path d="m138.531 191.204h-31.867c-17.6 0-31.868-14.268-31.868-31.868 0-17.6 14.268-31.868 31.868-31.868h31.867z" fill="#e1bb78"/><path d="m373.469 191.204h31.867c17.6 0 31.868-14.268 31.868-31.868 0-17.6-14.268-31.868-31.868-31.868h-31.867z" fill="#c78f2c"/><path d="m246 95.596 10 223.076c70.399 0 127.469-57.07 127.469-127.469v-63.735c0 .001-137.469-31.865-137.469-31.872z" fill="#e1bb78"/><path d="m128.531 127.469v63.735c0 70.399 57.07 127.469 127.469 127.469v-223.07z" fill="#edd7b0"/><path d="m184.299 160.27h31.867v30h-31.867z" fill="#332866"/><path d="m295.834 160.27h31.867v30h-31.867z" fill="#180a33"/><path d="m383.469 127.469c0-70.399-57.07-127.469-127.469-127.469l-10 50.921 10 54.676c73.134 26.649 127.469 21.872 127.469 21.872z" fill="#180a33"/><path d="m256 105.603v-.007l-41.567-37.661-60.363-17.014c-16.033 21.316-25.539 47.821-25.539 76.548s54.333 4.785 127.469-21.866z" fill="#574d8c"/><path d="m256 0c-41.672 0-78.671 19.999-101.93 50.921 35.572 25.958 70.486 43.218 101.93 54.676z" fill="#332866"/></g></svg>