<svg id="Capa_1" enable-background="new 0 0 512 512" height="512" viewBox="0 0 512 512" width="512" xmlns="http://www.w3.org/2000/svg"><g><g><path d="m456.969 407.139c27.744-39.712 44.031-88.02 44.031-140.139 0-135.31-109.69-245-245-245s-245 109.69-245 245c0 52.119 16.287 100.427 44.031 140.139z" fill="#3c5082"/></g><g><circle cx="256" cy="242" fill="#2d3c6b" r="200"/></g><g><g><path d="m172.972 66.073c-44.779 53.057-70.844 135.464-52.359 201.033s83.657 80.918 135.387 80.918v-281.951z" fill="#ff4155"/></g><g><path d="m391.387 267.105c18.485-65.569-7.58-147.976-52.359-201.033h-83.028v281.952c51.73 0 116.902-15.35 135.387-80.919z" fill="#ff596e"/></g></g><g><path d="m315.132 128.774h-118.264c-31.892 37.787-50.455 96.478-37.29 143.176s59.58 57.63 96.422 57.63 83.257-10.932 96.422-57.63-5.398-105.389-37.29-143.176z" fill="#e80054"/></g><g><path d="m102.383 457.831h307.235c18.06-14.558 34.021-31.615 47.333-50.665-.001-.009-.001-.017-.002-.026-8.256-22.709-16.99-42.685-24.722-51.911-.904-1.078-1.795-2.019-2.668-2.79-6.623-5.848-19.39-11.382-34.352-16.323-37.929-12.525-89.967-21.232-91.82-21.54h-94.772c-1.853.307-53.892 9.014-91.82 21.54-14.961 4.941-27.729 10.475-34.352 16.323-.874.772-1.765 1.712-2.668 2.79-7.732 9.226-16.467 29.203-24.722 51.911-.001.009-.001.018-.002.026 13.31 19.049 29.272 36.106 47.332 50.665z" fill="#f3d6ac"/></g><g><path d="m102.383 457.831h118.606c-17.282-17.151-30.825-37.677-39.83-62.575-7.588-20.984-11.96-45.066-12.65-72.831v-.001c-16.433 3.612-35.381 8.297-51.715 13.691-14.961 4.941-27.729 10.475-34.352 16.323-.874.772-1.765 1.712-2.668 2.79-7.732 9.226-16.467 29.203-24.722 51.911-.001.009-.001.018-.002.026 13.311 19.05 29.273 36.107 47.333 50.666z" fill="#eabe8d"/></g><g><path d="m276.616 369.362s10.767-11.809 23.703-11.809 55.191 11.809 55.191 11.809z" fill="#eabe8d"/></g><g><path d="m235.384 369.362s-10.767-11.809-23.703-11.809-55.191 11.809-55.191 11.809z" fill="#eabe8d"/></g><g><path d="m391.147 471.33c6.374-4.223 12.555-8.713 18.491-13.499-4.027-11.7-11.689-21.884-21.736-29.06v42.559z" fill="#eabe8d"/></g><g><path d="m124.098 471.33v-42.559c-10.047 7.176-17.708 17.36-21.736 29.06 5.936 4.786 12.117 9.277 18.491 13.499z" fill="#d8a97c"/></g><g><path d="m177.575 395.255c-37.77 0-66.143 34.911-57.928 71.776.604 2.713 1.146 4.246 1.165 4.298v.009c38.748 25.688 85.216 40.662 135.188 40.662 49.971 0 96.439-14.974 135.187-40.661l.001-.009c.019-.052.56-1.586 1.165-4.298 8.215-36.866-20.158-71.776-57.928-71.776h-156.85z" fill="#73c3f9"/></g><g><path d="m208.614 221.239v93.336s19.021 20.093 47.17 20.093c.073 0 .143-.005.216-.005 28.031-.103 47.386-20.088 47.386-20.088v-93.336z" fill="#f3d6ac"/></g><g><path d="m208.614 220.734v93.841c94.723 0 94.772-53.4 94.772-53.4v-40.44h-94.772z" fill="#eabe8d"/></g><g><path d="m257.301 23.132s-96.419-20.934-141.948 68.378c-2.895 5.679 3.181 11.732 8.83 8.778 7.547-3.947 16.671 1.107 17.328 9.599l.219 2.829c.504 6.515 9.223 8.341 12.273 2.561 14.456-27.395 45.707-71.785 103.298-92.145z" fill="#bec8f7"/></g><g><path d="m254.699 23.132s96.419-20.934 141.948 68.378c2.895 5.679-3.181 11.732-8.83 8.778-7.547-3.947-16.671 1.107-17.328 9.599l-.219 2.829c-.504 6.515-9.223 8.341-12.273 2.561-14.455-27.395-45.707-71.785-103.298-92.145z" fill="#bec8f7"/></g><g><ellipse cx="256" cy="22" fill="#e9efff" rx="43.951" ry="22"/></g><g><path d="m256 22c-58.069 0-105.143 47.074-105.143 105.143v20.076h210.286v-20.076c0-58.069-47.074-105.143-105.143-105.143z" fill="#ff596e"/></g><g><path d="m213.575 82.935c-10.489-15.979-17.425-45.293 13.765-56.979-44.139 12.477-76.482 53.055-76.482 101.188v20.076h62.718v-64.285z" fill="#ff4155"/></g><g><path d="m331.058 159.567s10.385-25.285 28.897-19.415-.448 60.664-36.573 64.116z" fill="#f3d6ac"/></g><g><path d="m180.942 159.567s-10.385-25.285-28.897-19.415.448 60.664 36.573 64.116z" fill="#eabe8d"/></g><g><path d="m279.623 95.694 12.283 14.501c2.38 2.809.013 7.078-3.631 6.548-55.268-8.042-74.702-33.809-74.702-33.809-15.713 7.454-23.178 25.856-28.624 41.82-2.762 8.097-8.72 14.703-16.484 18.295l-.015-.007c-.029 1.231-.049 2.467-.049 3.713 0 64.505 39.219 140.155 87.597 140.155s87.597-75.651 87.597-140.155c0-1.244-.02-2.479-.049-3.71-21.033-24.057-43.596-38.596-63.923-47.351z" fill="#f8e6cc"/></g><g><path d="m208.403 146.754c0-21.401 4.332-40.792 11.868-57.171-4.647-3.937-6.696-6.649-6.696-6.649-15.713 7.454-23.178 25.856-28.624 41.82-2.762 8.097-8.72 14.703-16.484 18.295l-.015-.007c-.029 1.231-.049 2.468-.049 3.713 0 64.505 39.219 140.155 87.597 140.155 6.881 0 13.576-1.535 20-4.346-38.741-16.953-67.597-80.48-67.597-135.81z" fill="#f3d6ac"/></g><g><path d="m223.5 138.968h-20c-4.142 0-7.5-3.358-7.5-7.5 0-4.142 3.358-7.5 7.5-7.5h20c4.142 0 7.5 3.358 7.5 7.5 0 4.142-3.358 7.5-7.5 7.5z" fill="#e80054"/></g><g><path d="m308.5 138.968h-20c-4.142 0-7.5-3.358-7.5-7.5 0-4.142 3.358-7.5 7.5-7.5h20c4.142 0 7.5 3.358 7.5 7.5 0 4.142-3.358 7.5-7.5 7.5z" fill="#e80054"/></g><g><g><path d="m242.013 192.447 8.436-13.441c2.569-4.093 8.533-4.093 11.102 0l8.436 13.441c2.739 4.365-.398 10.038-5.551 10.038h-16.871c-5.154-.001-8.291-5.674-5.552-10.038z" fill="#eabe8d"/></g></g><g><g><path d="m235.384 240.87h41.233c4.111-3.622 7.258-8.309 9.01-13.631 1.584-4.811-2.069-9.754-7.134-9.754h-44.985c-5.065 0-8.718 4.943-7.134 9.754 1.752 5.322 4.899 10.009 9.01 13.631z" fill="#162544"/></g><g><path d="m276.616 240.87c-5.493 4.849-12.714 7.798-20.616 7.798s-15.124-2.948-20.616-7.798c5.5-4.849 12.714-7.798 20.616-7.798s15.116 2.949 20.616 7.798z" fill="#ff4155"/></g></g><g><path d="m310.999 162.085c.043-3.495-1.371-7.004-4.242-9.539-4.675-4.128-11.84-4.128-16.515 0-2.871 2.535-4.284 6.044-4.242 9.539.055 4.538 5.629 6.716 8.838 3.507 2.022-2.022 5.3-2.022 7.322 0 3.21 3.21 8.784 1.032 8.839-3.507z" fill="#162544"/></g><g><path d="m201.001 162.085c-.043-3.495 1.371-7.004 4.242-9.539 4.675-4.128 11.84-4.128 16.515 0 2.871 2.535 4.284 6.044 4.242 9.539-.055 4.538-5.629 6.716-8.838 3.507-2.022-2.022-5.3-2.022-7.322 0-3.21 3.21-8.784 1.032-8.839-3.507z" fill="#162544"/></g><g><path d="m301.031 507.862c-56.84-22.966-99.707-56.85-119.872-112.606h-3.584c-37.77 0-66.143 34.911-57.928 71.776.604 2.713 1.146 4.246 1.165 4.298v.009c38.748 25.687 85.216 40.661 135.188 40.661 15.384 0 30.434-1.424 45.031-4.138z" fill="#4fabf7"/></g><g><path d="m256 358.298c-23.414 0-37.67-11.537-45.507-21.215-8.401-10.376-11.305-20.751-11.424-21.188-.729-2.664.839-5.414 3.502-6.143 2.664-.728 5.405.834 6.14 3.49.399 1.431 10.222 35.055 47.289 35.055 37.264 0 47.187-34.692 47.283-35.042.728-2.664 3.477-4.233 6.142-3.503 2.664.729 4.232 3.479 3.503 6.142-.119.437-3.021 10.812-11.423 21.188-7.835 9.679-22.091 21.216-45.505 21.216z" fill="#e9efff"/></g><g><path d="m256 404.553c-10.841 0-20-13.738-20-30s9.159-30 20-30 20 13.738 20 30-9.159 30-20 30z" fill="#7255ce"/></g><g><path d="m256 374.553c0-10.842 4.074-20.555 10-25.83-2.963-2.637-6.387-4.17-10-4.17-10.841 0-20 13.738-20 30s9.159 30 20 30c3.613 0 7.037-1.533 10-4.17-5.926-5.275-10-14.988-10-25.83z" fill="#5c45bf"/></g></g></svg>