<svg id="Capa_1" enable-background="new 0 0 512 512" height="512" viewBox="0 0 512 512" width="512" xmlns="http://www.w3.org/2000/svg"><g><path d="m0 256c0-141.262 114.416-255.801 255.632-256 140.696-.198 255.806 114.263 256.366 254.958.324 81.383-37.329 153.983-96.25 201.095-5.282 4.224-12.7 4.494-18.335.753-40.517-26.899-89.135-42.57-141.413-42.57-52.455 0-101.224 15.776-141.823 42.843-5.384 3.589-12.48 3.311-17.542-.72-58.889-46.903-96.635-119.223-96.635-200.359z" fill="#ffb52d"/><path d="m456.404 256c0 110.68-89.724 200.404-200.404 200.404s-200.404-89.724-200.404-200.404 89.724-200.404 200.404-200.404 200.404 89.724 200.404 200.404z" fill="#ffc14f"/><path d="m144.873 356.078c-3.567 8.399-5.54 17.638-5.54 27.338v86.281c0 6.516-7.081 10.555-12.701 7.257-10.735-6.299-20.97-13.358-30.632-21.103v-72.436c0-22.53 10.644-42.573 27.177-55.377 6.405 9.988 13.672 19.369 21.696 28.04z" fill="#f44545"/><path d="m411.905 359.77c2.651 7.386 4.095 15.348 4.095 23.646v72.436c-43.827 35.133-99.459 56.148-160 56.148-47.457 0-91.897-12.913-130-35.417v-93.167c0-2.015.085-4.01.252-5.982 38.047 22.413 82.396 35.269 129.748 35.269 58.671 0 112.732-19.737 155.905-52.933z" fill="#fb5858"/><path d="m435.345 342.518c0 20.576-16.68 37.257-37.257 37.257-1.876 0-3.719-.139-5.521-.407.268 1.802.407 3.645.407 5.521 0 20.576-16.68 37.257-37.257 37.257-2.823 0-5.572-.314-8.215-.909.595 2.643.909 5.392.909 8.214 0 20.577-16.68 37.257-37.257 37.257-3.56 0-7.003-.499-10.263-1.432.023.596.036 1.195.036 1.797 0 24.812-20.114 44.927-44.927 44.927s-44.927-20.115-44.927-44.927c0-.602.012-1.201.036-1.797-3.26.933-6.703 1.432-10.263 1.432-20.576 0-37.257-16.68-37.257-37.257 0-2.823.315-5.572.909-8.214-2.643.595-5.392.909-8.215.909-20.576 0-37.257-16.68-37.257-37.257 0-1.876.139-3.719.407-5.521-1.801.268-3.645.407-5.521.407-20.576 0-37.257-16.68-37.257-37.257s16.68-37.257 37.257-37.257 37.257 16.68 37.257 37.257c0 1.876-.139 3.719-.407 5.52 1.801-.268 3.645-.406 5.521-.406 20.576 0 37.257 16.68 37.257 37.257 0 2.823-.315 5.572-.909 8.214 2.643-.594 5.392-.909 8.215-.909 19.387 0 35.315 14.808 37.091 33.731 5.528-2.43 11.638-3.779 18.063-3.779s12.536 1.349 18.063 3.779c1.776-18.923 17.704-33.731 37.091-33.731 2.823 0 5.572.315 8.215.909-.595-2.643-.909-5.392-.909-8.214 0-20.576 16.68-37.257 37.257-37.257 1.876 0 3.719.139 5.521.406-.268-1.801-.407-3.644-.407-5.52 0-20.576 16.68-37.257 37.257-37.257s37.257 16.68 37.257 37.257z" fill="#fc7979"/><path d="m398.088 305.261c5.987 0 11.645 1.413 16.657 3.923 3.237 5.209 5.106 11.356 5.106 17.939 0 18.799-15.24 34.038-34.038 34.038-1.714 0-3.398-.127-5.044-.372.245 1.646.372 3.33.372 5.044 0 18.799-15.239 34.038-34.038 34.038-2.579 0-5.09-.287-7.505-.831.543 2.415.831 4.926.831 7.505 0 18.799-15.239 34.038-34.038 34.038-3.252 0-6.398-.456-9.376-1.308.021.545.032 1.092.032 1.642 0 22.669-18.377 41.046-41.046 41.046s-41.046-18.377-41.046-41.046c0-.55.011-1.097.032-1.642-2.979.852-6.124 1.308-9.376 1.308-18.799 0-34.038-15.239-34.038-34.038 0-2.579.287-5.09.831-7.505-2.415.543-4.926.831-7.505.831-18.799 0-34.038-15.239-34.038-34.038 0-1.714.127-3.398.372-5.044-1.646.244-3.33.372-5.044.372-18.799 0-34.038-15.24-34.038-34.038 0-6.583 1.869-12.73 5.106-17.939 5.013-2.51 10.67-3.923 16.657-3.923 20.576 0 37.257 16.68 37.257 37.257 0 1.876-.139 3.719-.407 5.52 1.801-.268 3.645-.406 5.521-.406 20.576 0 37.257 16.68 37.257 37.257 0 2.823-.315 5.572-.909 8.214 2.643-.594 5.392-.909 8.215-.909 19.387 0 35.315 14.808 37.091 33.731 5.528-2.43 11.638-3.779 18.063-3.779s12.536 1.349 18.063 3.779c1.776-18.923 17.704-33.731 37.091-33.731 2.823 0 5.572.315 8.215.909-.595-2.643-.909-5.392-.909-8.214 0-20.576 16.68-37.257 37.257-37.257 1.876 0 3.719.139 5.521.406-.268-1.801-.407-3.644-.407-5.52-.002-20.577 16.678-37.257 37.255-37.257z" fill="#fd9a9a"/><path d="m395.666 328.998c0 16.024-12.99 29.014-29.014 29.014-1.461 0-2.896-.108-4.299-.317.208 1.403.317 2.838.317 4.299 0 16.024-12.99 29.014-29.014 29.014-2.198 0-4.339-.245-6.397-.708.463 2.058.708 4.199.708 6.397 0 16.024-12.99 29.014-29.014 29.014-2.772 0-5.453-.389-7.992-1.115.018.464.028.931.028 1.399 0 19.323-15.665 34.988-34.988 34.988s-34.988-15.665-34.988-34.988c0-.469.009-.935.028-1.399-2.539.726-5.22 1.115-7.992 1.115-16.024 0-29.014-12.99-29.014-29.014 0-2.198.245-4.339.708-6.397-2.058.463-4.199.708-6.397.708-16.024 0-29.014-12.99-29.014-29.014 0-1.461.108-2.896.317-4.299-1.403.208-2.838.317-4.299.317-16.024 0-29.014-12.99-29.014-29.014s12.99-29.014 29.014-29.014 29.014 12.99 29.014 29.014c0 1.461-.108 2.896-.317 4.299 1.403-.208 2.838-.317 4.299-.317 16.024 0 29.014 12.99 29.014 29.014 0 2.198-.245 4.339-.708 6.397 2.058-.463 4.199-.708 6.397-.708 15.098 0 27.502 11.532 28.885 26.268 4.305-1.893 9.063-2.943 14.067-2.943s9.762 1.051 14.067 2.943c1.383-14.736 13.787-26.268 28.885-26.268 2.198 0 4.339.245 6.397.708-.463-2.058-.708-4.199-.708-6.397 0-16.024 12.99-29.014 29.014-29.014 1.461 0 2.896.108 4.299.317-.208-1.403-.317-2.838-.317-4.299 0-16.024 12.99-29.014 29.014-29.014s29.014 12.99 29.014 29.014z" fill="#c83c50"/><path d="m395.666 328.998c0 16.024-12.99 29.014-29.014 29.014-1.461 0-2.896-.108-4.299-.317.208 1.403.317 2.838.317 4.299 0 16.024-12.99 29.014-29.014 29.014-2.198 0-4.339-.245-6.397-.708.463 2.058.708 4.199.708 6.397 0 16.024-12.99 29.014-29.014 29.014-2.772 0-5.453-.389-7.992-1.115.018.464.028.931.028 1.399 0 19.323-15.664 34.988-34.988 34.988s-34.988-15.665-34.988-34.988c0-.469.009-.935.028-1.399-2.539.726-5.22 1.115-7.992 1.115-16.024 0-29.014-12.99-29.014-29.014 0-2.198.245-4.339.708-6.397-2.058.463-4.199.708-6.397.708-16.024 0-29.014-12.99-29.014-29.014 0-1.461.108-2.896.317-4.299-1.403.208-2.838.317-4.299.317-16.024 0-29.014-12.99-29.014-29.014 0-13.33 8.99-24.56 21.237-27.959-3.575 4.427-5.716 10.059-5.716 16.192 0 14.243 11.547 25.79 25.79 25.79 1.299 0 2.574-.096 3.821-.281-.185 1.247-.282 2.523-.282 3.821 0 14.243 11.547 25.79 25.79 25.79 1.954 0 3.857-.218 5.686-.629-.412 1.829-.629 3.732-.629 5.686 0 14.243 11.547 25.79 25.79 25.79 2.464 0 4.847-.346 7.104-.991-.016.413-.025.827-.025 1.244 0 17.176 13.924 31.1 31.099 31.1s31.099-13.924 31.099-31.1c0-.417-.008-.831-.025-1.244 2.257.646 4.64.991 7.104.991 14.243 0 25.79-11.547 25.79-25.79 0-1.954-.218-3.857-.629-5.686 1.83.412 3.732.629 5.686.629 14.243 0 25.79-11.547 25.79-25.79 0-1.299-.096-2.574-.282-3.821 1.247.185 2.523.281 3.821.281 14.243 0 25.79-11.547 25.79-25.79 0-6.133-2.141-11.766-5.716-16.192 12.248 3.399 21.237 14.629 21.237 27.959z" fill="#b03244"/><path d="m345.056 313.416c.785 0 1.566.014 2.344.04 6.178.207 9.07 7.774 4.699 12.145l-89.209 89.209c-3.796 3.796-9.951 3.796-13.747 0l-89.316-89.316c-4.453-4.453-1.306-12.066 4.991-12.077h.16 4.756l86.284 74.851 86.25-74.851h2.788z" fill="#962a3a"/><path d="m355.678 469.323v22.546c-4.923 2.083-9.925 4.017-15 5.795v-28.341c0-4.142 3.358-7.5 7.5-7.5s7.5 3.358 7.5 7.5zm-191.856-7.5c-4.142 0-7.5 3.358-7.5 7.5v22.546c4.923 2.083 9.925 4.017 15 5.795v-28.341c0-4.142-3.358-7.5-7.5-7.5z" fill="#f44545"/><path d="m348.213 296h-151.926c-29.271 0-53-23.729-53-53s23.729-53 53-53h151.926c29.271 0 53 23.729 53 53s-23.729 53-53 53z" fill="#784132"/><path d="m201.064 296h-37.277c-29.271 0-53-23.729-53-53 0-29.271 23.729-53 53-53h37.277c-29.271 0-53 23.729-53 53 0 29.271 23.729 53 53 53z" fill="#61362b"/><path d="m171 188.416v10c0 13.807-11.193 25-25 25s-25-11.193-25-25v-10c0-13.807 11.193-25 25-25s25 11.193 25 25z" fill="#f2bb88"/><path d="m136 183.416v20c0 8.178 3.927 15.439 9.998 20-13.806-.001-24.998-11.194-24.998-25v-10c0-13.806 11.192-24.999 24.998-25-6.071 4.561-9.998 11.822-9.998 20zm230-20v-20c0-60.751-49.249-110-110-110-60.751 0-110 49.249-110 110v40c0 50.351 33.83 92.801 80 105.859v24.141h-56.267l86.267 86.267 86.267-86.267h-56.267v-24.141c33.586-9.499 60.641-34.551 72.895-66.883 2.252.667 4.637 1.024 7.105 1.024 13.807 0 25-11.193 25-25v-10c0-13.807-11.193-25-25-25z" fill="#e3a76f"/><path d="m366 143.416v40c0 50.792-34.425 93.543-81.216 106.195-9.023 2.44-18.545 2.44-27.568 0-46.791-12.652-81.216-55.403-81.216-106.195v-40c0-55.663 41.345-101.669 95-108.985 53.655 7.316 95 53.322 95 108.985z" fill="#f2bb88"/><path d="m270.5 190.147c-3.875 3.875-9.024 6.009-14.5 6.009s-10.625-2.134-14.5-6.009c-2.929-2.93-2.929-7.678 0-10.607 2.929-2.928 7.678-2.928 10.606 0 1.042 1.042 2.424 1.616 3.893 1.616s2.851-.574 3.893-1.616c2.929-2.928 7.678-2.928 10.606 0 2.931 2.93 2.931 7.678.002 10.607z" fill="#d6995c"/><path d="m223.5 150.916c0 8.284-6.716 15-15 15s-15-6.716-15-15 6.716-15 15-15 15 6.716 15 15zm80-15c-8.284 0-15 6.716-15 15s6.716 15 15 15 15-6.716 15-15-6.716-15-15-15z" fill="#61362b"/><path d="m226 143.416c0 4.142-3.358 7.5-7.5 7.5s-7.5-3.358-7.5-7.5 3.358-7.5 7.5-7.5 7.5 3.358 7.5 7.5zm87.5-7.5c-4.142 0-7.5 3.358-7.5 7.5s3.358 7.5 7.5 7.5 7.5-3.358 7.5-7.5-3.358-7.5-7.5-7.5z" fill="#fff5f5"/><path d="m256 253.416c-16.569 0-30-13.431-30-30 0-4.142 3.358-7.5 7.5-7.5h45c4.142 0 7.5 3.358 7.5 7.5 0 16.569-13.431 30-30 30z" fill="#fff5f5"/><path d="m263.5 252.471c-2.397.617-4.91.945-7.5.945-16.568 0-30-13.431-30-30 0-4.142 3.358-7.5 7.5-7.5h15c-4.142 0-7.5 3.358-7.5 7.5 0 13.979 9.561 25.725 22.5 29.055z" fill="#def4f8"/><path d="m153.5 159.5v18c0 .287.001.574.003.86.072 10.271-14.933 11.697-16.698 1.578-1.187-6.801-1.805-13.797-1.805-20.938v-18c0-61.636 45.94-112.529 105.532-120.059 2.339-.296 4.553 1.559 4.553 3.916v17.244c-52.611 13.139-91.585 60.717-91.585 117.399z" fill="#61362b"/><path d="m377 136.192v17.285c0 3.889-.2 7.733-.588 11.523h-6.912c-33.965 0-61.5-26.44-61.5-59.056 0-3.103.249-6.149.73-9.122h-9.23c-18.925 0-35.853-8.208-47.134-21.12 2.351 10.029-1.047 20.989-9.623 27.823-5.39 4.296-6.281 12.176-1.985 17.566 2.582 3.24 2.048 7.958-1.191 10.54s-7.958 2.049-10.54-1.191c-9.45-11.858-7.492-29.194 4.366-38.645 5.39-4.296 6.28-12.176 1.985-17.566-8.967-11.251-7.662-27.435 2.626-37.135.065-5.606.943-11.025 2.527-16.153 5.066-.621 10.228-.941 15.469-.941 66.827 0 121 52.021 121 116.192z" fill="#784132"/><path d="m164.393 141.502-8.924 8.924 8.924 8.924c6.97 6.97 6.97 18.271 0 25.241-6.97 6.97-18.271 6.97-25.241 0-6.97-6.97-6.97-18.271 0-25.241l8.924-8.924-8.924-8.924c-6.97-6.97-6.97-18.271 0-25.241s18.271-6.97 25.241 0c6.97 6.97 6.97 18.271 0 25.241zm207.152 8.925 8.924-8.924c6.97-6.97 6.97-18.271 0-25.241s-18.271-6.97-25.241 0c-6.97 6.97-6.97 18.271 0 25.241l8.924 8.924-8.924 8.924c-6.97 6.97-6.97 18.271 0 25.241 6.97 6.97 18.271 6.97 25.241 0 6.97-6.97 6.97-18.271 0-25.241z" fill="#fb5858"/><path d="m117.607 137.806c6.97-6.97 18.271-6.97 25.241 0l12.621 12.621-12.621 12.621c-6.97 6.97-18.271 6.97-25.241 0-6.97-6.971-6.97-18.272 0-25.242zm284.407 0c-6.97-6.97-18.271-6.97-25.241 0l-12.621 12.621 12.621 12.621c6.97 6.97 18.271 6.97 25.241 0 6.97-6.971 6.97-18.272 0-25.242z" fill="#fc7979"/></g></svg>