<svg height="512pt" viewBox="0 0 512 512" width="512pt" xmlns="http://www.w3.org/2000/svg"><path d="m512 256c0 141.386719-114.613281 256-256 256s-256-114.613281-256-256 114.613281-256 256-256 256 114.613281 256 256zm0 0" fill="#0084a6"/><path d="m398.410156 468.761719c-12.339844 8.277343-25.441406 15.519531-39.179687 21.566406-10.652344 4.703125-21.679688 8.703125-33.03125 11.921875-22.300781 6.351562-45.847657 9.75-70.199219 9.75-24.339844 0-47.890625-3.398438-70.199219-9.738281-7.242187-2.0625-14.359375-4.441407-21.332031-7.121094-.429688-.160156-.859375-.320313-1.289062-.492187-3.507813-1.359376-6.980469-2.808594-10.410157-4.320313-13.738281-6.058594-26.839843-13.289063-39.191406-21.578125 10.390625-14.371094 23.761719-26.429688 39.191406-35.320312 10.199219-5.871094 21.300781-10.339844 33.03125-13.148438 1.808594-.441406 3.640625-.839844 5.480469-1.191406 3.46875-.679688 7-1.199219 10.570312-1.570313 1.027344-.109375 2.046876-.210937 3.089844-.289062 3.378906-.28125 6.796875-.421875 10.257813-.421875h81.589843c4.519532 0 8.972657.242187 13.351563.703125 3.570313.367187 7.089844.898437 10.570313 1.558593 1.390624.269532 2.769531.558594 4.140624.871094.449219.117188.910157.207032 1.347657.328125 11.742187 2.820313 22.832031 7.289063 33.03125 13.160157 15.429687 8.898437 28.789062 20.960937 39.179687 35.332031zm0 0" fill="#f93d6e"/><path d="m215.199219 416.808594c-29.359375 0-49.257813 42.429687-50.730469 78.332031-.429688-.160156-.859375-.320313-1.289062-.492187-3.507813-1.359376-6.980469-2.808594-10.410157-4.320313-13.738281-6.058594-26.839843-13.289063-39.191406-21.578125 10.390625-14.371094 23.761719-26.429688 39.191406-35.320312 10.199219-5.871094 21.300781-10.339844 33.03125-13.148438 1.808594-.441406 3.640625-.839844 5.480469-1.191406 3.46875-.679688 7-1.199219 10.570312-1.570313 1.027344-.109375 2.046876-.210937 3.089844-.289062 3.378906-.28125 6.796875-.421875 10.257813-.421875zm0 0" fill="#e41753"/><path d="m320.710938 419.070312v4.339844c0 28.539063-18.320313 53.378906-45.589844 61.808594-6.171875 1.921875-12.609375 2.890625-19.132813 2.890625-35.679687 0-64.707031-29.03125-64.707031-64.699219v-4.320312c3.46875-.679688 7-1.199219 10.570312-1.570313 1.027344-.109375 2.046876-.210937 3.089844-.289062 3.378906-.28125 6.796875-.421875 10.257813-.421875h81.589843c4.519532 0 8.972657.242187 13.351563.703125 3.570313.367187 7.089844.898437 10.570313 1.558593zm0 0" fill="#f9c5ac"/><path d="m300.707031 368.539062v54.867188c0 20.089844-13.246093 37.066406-31.488281 42.707031-4.179688 1.296875-8.628906 1.996094-13.230469 1.996094-24.691406 0-44.703125-20.011719-44.703125-44.703125v-54.867188zm0 0" fill="#efb29a"/><path d="m300.707031 419.933594v3.472656c0 20.089844-13.246093 37.066406-31.488281 42.707031-16.460938-5.058593-28.839844-19.371093-31.125-36.882812 2.988281.183593 5.992188.273437 9.007812.273437 8.460938 0 16.75-.671875 24.828126-1.996094 9.953124-1.601562 19.570312-4.160156 28.777343-7.574218zm0 0" fill="#f9c5ac"/><path d="m132.539062 278.152344c0 20.496094-14.972656 37.492187-34.578124 40.648437-2.144532.34375-4.347657.527344-6.597657.527344-22.746093 0-41.171875-18.429687-41.171875-41.175781s18.425782-41.175782 41.171875-41.175782c2.25 0 4.453125.179688 6.597657.527344 19.605468 3.15625 34.578124 20.152344 34.578124 40.648438zm0 0" fill="#f9c5ac"/><path d="m132.539062 278.152344c0 20.496094-14.972656 37.492187-34.578124 40.648437-3.5625-12.953125-5.464844-26.582031-5.464844-40.648437s1.902344-27.695313 5.464844-40.644532c19.605468 3.152344 34.578124 20.148438 34.578124 40.644532zm0 0" fill="#efb29a"/><path d="m106.082031 278.152344c0 8.128906-6.589843 14.714844-14.71875 14.714844-8.125 0-14.714843-6.585938-14.714843-14.714844 0-8.125 6.589843-14.714844 14.714843-14.714844 8.128907 0 14.71875 6.589844 14.71875 14.714844zm0 0" fill="#efb29a"/><path d="m379.449219 278.152344c0 20.496094 14.972656 37.492187 34.578125 40.648437 2.144531.34375 4.347656.527344 6.597656.527344 22.746094 0 41.175781-18.429687 41.175781-41.175781s-18.429687-41.175782-41.175781-41.175782c-2.25 0-4.453125.179688-6.597656.527344-19.605469 3.15625-34.578125 20.152344-34.578125 40.648438zm0 0" fill="#f9c5ac"/><path d="m379.449219 278.152344c0 20.496094 14.972656 37.492187 34.578125 40.648437 3.5625-12.953125 5.464844-26.582031 5.464844-40.648437s-1.902344-27.695313-5.464844-40.644532c-19.605469 3.152344-34.578125 20.148438-34.578125 40.644532zm0 0" fill="#efb29a"/><path d="m435.339844 278.152344c0 8.128906-6.589844 14.714844-14.714844 14.714844-8.128906 0-14.71875-6.585938-14.71875-14.714844 0-8.125 6.589844-14.714844 14.71875-14.714844 8.125 0 14.714844 6.589844 14.714844 14.714844zm0 0" fill="#efb29a"/><path d="m410.695312 256.511719c0 76.984375-56.242187 140.847656-129.871093 152.703125-8.078125 1.328125-16.371094 2-24.828125 2-85.445313 0-154.703125-69.257813-154.703125-154.703125v-157.5h309.402343zm0 0" fill="#f9c5ac"/><path d="m283.242188 408.808594c-.800782.140625-1.609376.28125-2.417969.410156-8.082031 1.320312-16.371094 1.992188-24.832031 1.992188-85.4375 0-154.699219-69.25-154.699219-154.699219v-157.5h54.550781v157.5c0 76.136719 54.980469 139.410156 127.398438 152.296875zm0 0" fill="#efb29a"/><path d="m360.261719 296.496094c0 10.539062-8.542969 19.082031-19.082031 19.082031-10.539063 0-19.082032-8.542969-19.082032-19.082031 0-10.539063 8.542969-19.082032 19.082032-19.082032 10.539062 0 19.082031 8.542969 19.082031 19.082032zm0 0" fill="#efb29a"/><path d="m189.886719 296.496094c0 10.539062-8.542969 19.082031-19.082031 19.082031-10.539063 0-19.082032-8.542969-19.082032-19.082031 0-10.539063 8.542969-19.082032 19.082032-19.082032 10.539062 0 19.082031 8.542969 19.082031 19.082032zm0 0" fill="#efb29a"/><path d="m273.378906 297.921875h-34.757812c-4.140625 0-7.5-3.355469-7.5-7.496094s3.359375-7.496093 7.5-7.496093h34.757812c4.136719 0 7.496094 3.355468 7.496094 7.496093s-3.359375 7.496094-7.496094 7.496094zm0 0" fill="#efb29a"/><path d="m256 345.351562c-12.828125 0-25.65625-3.214843-37.351562-9.640624-3.296876-1.8125-4.5-5.957032-2.6875-9.257813 1.8125-3.296875 5.957031-4.5 9.253906-2.6875 19.277344 10.597656 42.292968 10.597656 61.566406 0 3.296875-1.8125 7.441406-.609375 9.253906 2.6875 1.816406 3.300781.613282 7.445313-2.6875 9.257813-11.691406 6.425781-24.519531 9.640624-37.347656 9.640624zm0 0" fill="#dd9f8a"/><path d="m343.992188 244.328125c0-17.808594-14.433594-32.242187-32.242188-32.242187s-32.242188 14.433593-32.242188 32.242187" fill="#efb29a"/><path d="m333.773438 258.054688c0 12.164062-9.859376 22.023437-22.023438 22.023437s-22.023438-9.859375-22.023438-22.023437c0-12.164063 9.859376-22.023438 22.023438-22.023438s22.023438 9.859375 22.023438 22.023438zm0 0" fill="#2f373b"/><path d="m330.363281 254.167969c0 5.210937-4.222656 9.4375-9.433593 9.4375-5.214844 0-9.4375-4.226563-9.4375-9.4375 0-5.210938 4.222656-9.4375 9.4375-9.4375 5.210937 0 9.433593 4.226562 9.433593 9.4375zm0 0" fill="#fff"/><path d="m232.480469 244.328125c0-17.808594-14.433594-32.242187-32.242188-32.242187-17.808593 0-32.242187 14.433593-32.242187 32.242187" fill="#efb29a"/><path d="m222.261719 258.054688c0 12.164062-9.859375 22.023437-22.023438 22.023437-12.160156 0-22.019531-9.859375-22.019531-22.023437 0-12.164063 9.859375-22.023438 22.019531-22.023438 12.164063 0 22.023438 9.859375 22.023438 22.023438zm0 0" fill="#2f373b"/><path d="m205.207031 279.511719c-1.601562.378906-3.261719.566406-4.96875.566406-12.160156 0-22.019531-9.859375-22.019531-22.027344 0-12.160156 9.859375-22.019531 22.019531-22.019531 1.707031 0 3.367188.199219 4.96875.570312-9.78125 2.25-17.058593 11-17.058593 21.449219 0 10.460938 7.277343 19.210938 17.058593 21.460938zm0 0" fill="#181e21"/><path d="m316.71875 279.511719c-1.601562.378906-3.261719.566406-4.972656.566406-12.160156 0-22.019532-9.859375-22.019532-22.027344 0-12.160156 9.859376-22.019531 22.019532-22.019531 1.710937 0 3.371094.199219 4.972656.570312-9.78125 2.25-17.0625 11-17.0625 21.449219 0 10.460938 7.28125 19.210938 17.0625 21.460938zm0 0" fill="#181e21"/><path d="m218.855469 254.167969c0 5.210937-4.226563 9.4375-9.4375 9.4375-5.210938 0-9.4375-4.226563-9.4375-9.4375 0-5.210938 4.226562-9.4375 9.4375-9.4375 5.210937 0 9.4375 4.226562 9.4375 9.4375zm0 0" fill="#fff"/><path d="m255.988281 99.011719c0 5.988281-1.628906 11.867187-4.539062 17.699219-24.140625 48.617187-136.050781 93.277343-118.910157 161.4375 17.621094 70.089843 53.152344 160.570312 37.410157 219.023437-8.257813-2.953125-16.320313-6.3125-24.160157-10.050781-23.5-11.222656-45.019531-25.921875-63.890624-43.429688v-302.691406c0-56.390625 56.851562-136.789062 169.632812-140.828125 1.480469-.0625 2.96875-.1015625 4.46875-.1328125.800781-.0078125-.011719 98.9726565-.011719 98.9726565zm0 0" fill="#ff931f"/><path d="m132.539062 278.148438c17.621094 70.089843 53.152344 160.570312 37.410157 219.023437-8.257813-2.953125-16.320313-6.3125-24.160157-10.050781 17.671876-33.691406 3.871094-98.402344-20.988281-176.53125-11.789062-37.035156-7.59375-66.613282 2.097657-91.808594 20.375-52.984375 67.316406-91.222656 123.089843-101.792969l1.460938-.277343c-24.140625 48.617187-136.050781 93.277343-118.910157 161.4375zm0 0" fill="#ffbb16"/><path d="m430.089844 141v302.699219c-25.167969 23.351562-55.050782 41.699219-88.050782 53.472656-15.738281-58.453125 19.789063-148.933594 37.410157-219.023437 19.191406-76.328126-123.460938-123.1875-123.460938-179.136719 0 0-7.761719-41.074219-7.816406-70.300781-.03125-16.148438 7.429687-28.679688 7.699219-28.6718755h.128906c1.5.03125 2.988281.0703125 4.460938.1328125 112.777343 4.039063 169.628906 84.4375 169.628906 140.828125zm0 0" fill="#ffbb16"/><path d="m426.589844 170.75c-113.425782-11.757812-227.761719-11.757812-341.1875 0-5.863282.605469-10.972656-3.96875-10.972656-9.863281 0-5.070313 3.820312-9.339844 8.863281-9.871094 114.820312-12.046875 230.585937-12.046875 345.40625 0 5.042969.53125 8.863281 4.800781 8.863281 9.871094 0 5.894531-5.109375 10.46875-10.972656 9.863281zm0 0" fill="#f93d6e"/><g fill="#42b7a1"><path d="m111.902344 81.046875c0 9.464844-7.675782 27.605469-17.140625 27.605469-9.464844 0-17.136719-18.140625-17.136719-27.605469s7.671875-17.136719 17.136719-17.136719c9.464843 0 17.140625 7.671875 17.140625 17.136719zm0 0"/><path d="m77.625 159.046875c0-9.464844 7.671875-27.601563 17.136719-27.601563 9.464843 0 17.140625 18.136719 17.140625 27.601563s-7.675782 17.140625-17.140625 17.140625c-9.464844 0-17.136719-7.675781-17.136719-17.140625zm0 0"/><path d="m69.558594 85.703125c8.195312 4.734375 20.066406 20.449219 15.335937 28.644531-4.734375 8.199219-24.277343 5.773438-32.476562 1.042969-8.195313-4.734375-11.003907-15.214844-6.273438-23.414063 4.734375-8.195312 15.214844-11.003906 23.414063-6.273437zm0 0"/><path d="m119.96875 154.390625c-8.195312-4.734375-20.070312-20.449219-15.335938-28.644531 4.730469-8.199219 24.277344-5.773438 32.472657-1.042969 8.199219 4.734375 11.007812 15.214844 6.273437 23.414063-4.730468 8.195312-15.214844 11.003906-23.410156 6.273437zm0 0"/><path d="m52.417969 124.707031c8.199219-4.734375 27.742187-7.15625 32.476562 1.039063 4.734375 8.195312-7.140625 23.910156-15.335937 28.644531-8.199219 4.730469-18.679688 1.921875-23.414063-6.273437-4.730469-8.199219-1.921875-18.679688 6.273438-23.410157zm0 0"/><path d="m137.105469 115.390625c-8.195313 4.730469-27.742188 7.15625-32.472657-1.042969-4.734374-8.195312 7.140626-23.910156 15.335938-28.644531 8.195312-4.730469 18.679688-1.921875 23.410156 6.273437 4.734375 8.199219 1.925782 18.679688-6.273437 23.414063zm0 0"/></g><path d="m116.871094 120.046875c0 12.210937-9.898438 22.109375-22.109375 22.109375-12.210938 0-22.109375-9.898438-22.109375-22.109375s9.898437-22.109375 22.109375-22.109375c12.210937 0 22.109375 9.898438 22.109375 22.109375zm0 0" fill="#f1eee9"/></svg>