<svg id="Capa_1" enable-background="new 0 0 512 512" height="512" viewBox="0 0 512 512" width="512" xmlns="http://www.w3.org/2000/svg"><g><path d="m128.579 226.611h-31.915c-17.6 0-31.868-14.268-31.868-31.868 0-17.6 14.268-31.868 31.868-31.868l41.867-10z" fill="#ffcdbe"/><path d="m373.469 152.876 41.867 10c17.6 0 31.868 14.268 31.868 31.868 0 17.6-14.268 31.868-31.868 31.868h-31.915z" fill="#ffcdbe"/><path d="m415.336 127.469c0-38.249-26.961-70.184-62.91-77.883l-72.626 113.29h135.536z" fill="#895140"/><path d="m352.426 49.586c-21.506-30.021-56.68-49.586-96.426-49.586l-10 162.876h43.8z" fill="#b56d3c"/><path d="m159.574 49.586 52.626 113.29h43.8v-162.876c-39.746 0-74.92 19.565-96.426 49.586z" fill="#c78f2c"/><path d="m159.574 49.586c-35.949 7.699-62.91 39.634-62.91 77.883v35.407h125.536z" fill="#b56d3c"/><path d="m436.453 357.167c26.077 8.644 43.68 33.025 43.68 60.497v94.336h-184.46l57.75-78.291 77.75-78.291z" fill="#332866"/><path d="m400.344 345.198 30.83 10.219-135.501 156.583h-39.673l68.217-90.387z" fill="#180a33"/><path d="m75.547 357.167c-26.077 8.644-43.68 33.025-43.68 60.497v94.336h184.459l-57.75-78.291-77.75-78.291z" fill="#574d8c"/><path d="m111.656 345.198-30.83 10.219 135.501 156.583h39.673l-68.218-90.387z" fill="#332866"/><path d="m334.622 323.411h-78.622l-10 37.128 88.218 61.074 66.127-76.415z" fill="#6680ff"/><path d="m256 323.411h-78.622l-65.722 21.787 66.126 76.415 78.218-61.074z" fill="#80aaff"/><path d="m256 512 78.218-90.387-78.218-71.074-10 71.074z" fill="#80aaff"/><path d="m256 350.539-78.218 71.074 78.218 90.387z" fill="#9cf"/><path d="m304.382 136.497c-14.575-9.854-31.479-14.781-48.382-14.781l-10 85.42 10 143.403c70.399 0 127.469-57.07 127.469-127.469v-60.195c-30.95.001-57.979-12.107-79.087-26.378z" fill="#ffdecf"/><path d="m207.618 136.497c-21.108 14.271-48.137 26.379-79.087 26.379v60.195c0 70.399 57.07 127.469 127.469 127.469v-228.824c-16.904 0-33.807 4.927-48.382 14.781z" fill="#ffeee5"/><path d="m295.834 192.137h31.867v30h-31.867z" fill="#180a33"/><path d="m184.299 192.137h31.867v30h-31.867z" fill="#332866"/></g></svg>