<svg id="Capa_1" enable-background="new 0 0 512 512" height="512" viewBox="0 0 512 512" width="512" xmlns="http://www.w3.org/2000/svg"><g><path d="m0 256c0-141.385 114.615-256 256-256s256 114.615 256 256c0 80.844-37.474 152.936-96 199.852-3.243 2.6-103.939-41.02-160-41.02s-156.757 43.619-160 41.02c-58.526-46.916-96-119.008-96-199.852z" fill="#60c8dd"/><path d="m434.915 256c0 98.812-80.103 178.915-178.915 178.915s-178.915-80.103-178.915-178.915 80.103-178.915 178.915-178.915 178.915 80.103 178.915 178.915z" fill="#7cd2e3"/><path d="m373.29 141.979c4.218 0 7.798 3.179 8.201 7.378.337 3.502.509 7.052.509 10.643v78.724c0 22.83-12.485 42.743-31 53.286v87.99h-30v-80.001c-.092 0-.184.001-.277.001h-76.532c-33.842 0-61.276-27.434-61.276-61.276v-78.724c0-6.138.503-12.158 1.469-18.021z" fill="#203e76"/><path d="m237.277 300h-46c-.092 0-.184 0-.277-.001v80.001h-30v-87.99c-18.515-10.543-31-30.457-31-53.286v-78.724c0-3.588.172-7.137.508-10.637.403-4.203 3.986-7.385 8.208-7.385h38.753c-.966 5.864-1.469 11.884-1.469 18.022v78.724c0 11.425 42.801 61.276 61.277 61.276z" fill="#19305c"/><path d="m354.042 407.145v78.497c0 4.208-2.579 8.002-6.508 9.507-13.344 5.11-27.225 9.136-41.534 11.969-.278.055-2.77-1.702-3.918-1.702h-91.996c-1.171 0-3.774 1.764-4.086 1.702-14.236-2.819-28.048-6.818-41.33-11.891-4.054-1.549-6.713-5.465-6.713-9.804v-77.959c0-5.803 4.704-10.507 10.507-10.507h175.39c5.627.001 10.188 4.562 10.188 10.188z" fill="#ffc14f"/><path d="m306 361.878v145.241c-4.95.98-9.952 1.817-15 2.508-.539.074-.856-1.002-1.396-.932-2.192.286-4.394.543-6.604.773-.592.062-1.407 1.269-2 1.326-3.315.322-6.649.58-10 .773-1.21.07-2.422-2.701-3.637-2.647-3.767.165-19.044.163-22.854-.005-1.172-.052-2.342 2.72-3.51 2.653-3.351-.194-6.685-.452-10-.773-1.119-.108-1.372-2.311-2.487-2.433-1.68-.185-3.356-.387-5.026-.604-.542-.071-1.946 1.943-2.487 1.869-5.048-.69-10.05-1.527-15-2.508v-145.241c0-10.197 8.266-18.462 18.462-18.462h63.076c10.197 0 18.463 8.266 18.463 18.462z" fill="#fff36c"/><path d="m171 218.416v10c0 13.807-11.193 25-25 25s-25-11.193-25-25v-10c0-13.807 11.193-25 25-25s25 11.193 25 25z" fill="#f2bb88"/><path d="m241 343.416h30v168.151c-4.963.287-9.965.433-15 .433s-10.037-.146-15-.433zm46.378 0h-6.378v167.378c3.353-.325 6.687-.715 10-1.168v-162.588c0-2-1.622-3.622-3.622-3.622zm-66.378 3.898v162.313c3.313.453 6.647.843 10 1.167v-167.378h-6.102c-2.153 0-3.898 1.745-3.898 3.898z" fill="#fffac1"/><path d="m136 213.416v20c0 8.178 3.927 15.439 9.998 20-13.806-.001-24.998-11.193-24.998-25v-10c0-13.806 11.192-24.999 24.998-25-6.071 4.561-9.998 11.822-9.998 20zm230-20v-20c0-60.751-49.249-110-110-110-60.751 0-110 49.249-110 110v40c0 50.351 33.83 92.801 80 105.859v64.141h60v-64.141c33.586-9.5 60.641-34.551 72.895-66.883 2.252.666 4.637 1.024 7.105 1.024 13.807 0 25-11.193 25-25v-10c0-13.807-11.193-25-25-25z" fill="#e3a76f"/><path d="m366 173.416v40c0 50.792-34.425 93.543-81.216 106.195-9.023 2.439-18.545 2.439-27.568 0-46.791-12.652-81.216-55.403-81.216-106.195v-40c0-55.663 41.345-101.669 95-108.985 53.655 7.316 95 53.322 95 108.985z" fill="#f2bb88"/><path d="m270.5 220.147c-3.875 3.875-9.024 6.009-14.5 6.009s-10.625-2.134-14.5-6.009c-2.929-2.93-2.929-7.678 0-10.607 2.929-2.928 7.678-2.928 10.606 0 1.042 1.042 2.424 1.616 3.893 1.616s2.851-.574 3.893-1.616c2.929-2.928 7.678-2.928 10.606 0 2.931 2.93 2.931 7.678.002 10.607z" fill="#d6995c"/><path d="m318.5 180.916c0 8.284-6.716 15-15 15s-15-6.716-15-15 6.716-15 15-15 15 6.716 15 15zm-110-15c-8.284 0-15 6.716-15 15s6.716 15 15 15 15-6.716 15-15-6.716-15-15-15z" fill="#61362b"/><path d="m226 173.416c0 4.142-3.358 7.5-7.5 7.5s-7.5-3.358-7.5-7.5 3.358-7.5 7.5-7.5 7.5 3.358 7.5 7.5zm87.5-7.5c-4.142 0-7.5 3.358-7.5 7.5s3.358 7.5 7.5 7.5 7.5-3.358 7.5-7.5-3.358-7.5-7.5-7.5z" fill="#fff5f5"/><path d="m286 253.416c0 16.569-13.431 30-30 30-16.569 0-30-13.431-30-30 0-4.142 3.358-7.5 7.5-7.5h45c4.142 0 7.5 3.358 7.5 7.5z" fill="#fff5f5"/><path d="m263.5 282.471c-2.397.617-4.91.945-7.5.945-16.568 0-30-13.431-30-30 0-4.142 3.358-7.5 7.5-7.5h15c-4.142 0-7.5 3.358-7.5 7.5 0 13.979 9.561 25.725 22.5 29.055z" fill="#def4f8"/><path d="m201 343.416h25l45 46.014-105.944 105.945c-8.995-3.419-17.748-7.331-26.225-11.703-4.791-2.471-7.831-7.38-7.831-12.77v-57.486c0-38.66 31.34-70 70-70z" fill="#c83c50"/><path d="m166 343.416h43.333c-38.66 0-70 31.34-70 70v70.515c-15.417-7.907-29.928-17.333-43.333-28.079v-42.436c0-38.66 31.34-70 70-70z" fill="#b03244"/><path d="m333.976 482.406-92.976-92.976 45-46.014h60c38.66 0 70 31.34 70 70v42.436c-15.699 12.585-32.912 23.357-51.323 32.002-10.339 4.854-22.624 2.629-30.701-5.448z" fill="#fb5858"/><path d="m366.201 487.131c-6.282 3-12.705 5.753-19.257 8.244l-105.944-105.945 45-46.014h27.5l-45 46.014z" fill="#f44545"/><path d="m381.551 150h-66.275c-28.456 0-52.382-19.397-59.277-45.69-6.895 26.293-30.82 45.69-59.276 45.69h-18.447c-3.232 0-5.706-2.874-5.238-6.072 6.424-43.879 38.754-79.343 80.962-90.365v-3.563h18c57.38 0 104.499 43.935 109.551 100z" fill="#203e76"/><path d="m178.498 150h-48.049c5.052-56.065 52.171-100 109.551-100h18v4.141c-43.079 12.185-75.366 49.956-79.502 95.859z" fill="#19305c"/><path d="m285.858 394.142c-7.811 7.811-20.474 7.811-28.284 0-.879-.879-1.659-1.819-2.34-2.808l-2.808 2.808c-7.81 7.811-20.474 7.811-28.284 0-7.811-7.811-7.811-20.474 0-28.284s20.474-7.811 28.284 0l2.808 2.808c.681-.988 1.461-1.929 2.34-2.808 7.81-7.811 20.474-7.811 28.284 0s7.81 20.474 0 28.284z" fill="#7c3f2c"/><path d="m352 50v40h-171.723v-40c0-27.614 22.386-50 50-50h71.723c27.614 0 50 22.386 50 50z" fill="#ae583e"/><path d="m245.716 0c-27.614 0-50 22.386-50 50v40h-35.716v-40c0-27.614 22.386-50 50-50z" fill="#954c35"/><path d="m189.224 100h-58.224c-5.523 0-10-4.477-10-10 0-5.523 4.477-10 10-10h58.224c5.523 0 10 4.477 10 10 0 5.523-4.477 10-10 10z" fill="#c0694e"/><path d="m381 100h-198.019c-5.523 0-10-4.477-10-10s4.477-10 10-10h198.019c5.523 0 10 4.477 10 10s-4.477 10-10 10z" fill="#c97e67"/></g></svg>