<svg id="Capa_1" enable-background="new 0 0 512 512" height="512" viewBox="0 0 512 512" width="512" xmlns="http://www.w3.org/2000/svg"><g><path d="m0 256.003c0-141.383 114.615-255.997 256-255.997s256 114.614 256 255.997c0 80.843-37.474 152.934-96 199.849-1.889 1.514-102.069-47.221-160-47.221s-158.111 48.735-160 47.221c-58.526-46.915-96-119.006-96-199.849z" fill="#4172cc"/><path d="m445.468 256.003c0 104.639-84.828 189.466-189.468 189.466s-189.468-84.827-189.468-189.466 84.828-189.466 189.468-189.466 189.468 84.827 189.468 189.466z" fill="#6990d7"/><path d="m162.911 219.514h-37.822v-81.545h37.822z" fill="#ffb52d"/><path d="m386.911 219.514h-37.822v-81.545h37.822z" fill="#ffc14f"/><path d="m168.66 363.441c-17.754 12.697-29.326 33.485-29.326 56.976v49.11c0 6.592-7.166 10.681-12.849 7.341-10.681-6.277-20.867-13.306-30.485-21.016v-35.435c0-38.659 31.34-69.999 70-69.999h1.187c.813 0 1.473.659 1.473 1.473z" fill="#a6e0ec"/><path d="m416 420.417v35.435c-43.827 35.133-99.459 56.148-160 56.148-47.457 0-91.897-12.913-130-35.417v-56.166c0-38.659 31.34-69.999 70-69.999h119l1.02.813c1.957 1.56 4.385 2.409 6.888 2.409h14.293c2.924 0 5.728-1.159 7.799-3.222h1c38.66 0 70 31.34 70 69.999z" fill="#c2eaf2"/><path d="m355.678 418.464v73.404c-3.541 1.499-7.123 2.919-10.743 4.261-2.062.764-4.257-.747-4.257-2.946v-75.033c0-4.219 3.483-7.624 7.731-7.496 4.105.123 7.269 3.704 7.269 7.81zm-192.087-7.81c-4.105.123-7.269 3.704-7.269 7.811v73.404c3.554 1.504 7.149 2.929 10.782 4.275 2.043.756 4.218-.74 4.218-2.918v-75.076c0-4.219-3.484-7.624-7.731-7.496zm82.409 101.154c3.318.127 6.651.192 10 .192s6.682-.064 10-.192v-131.807h-20z" fill="#a6e0ec"/><path d="m345 350.418v145.687c-9.734 3.61-19.748 6.644-30 9.062v-154.75h30zm-178 145.687c9.734 3.61 19.748 6.644 30 9.062v-154.75h-30z" fill="#c97e67"/><path d="m321.713 343.857-35.724 35.723c-2.106 2.106-5.52 2.106-7.626 0l-22.363-22.362-22.651 22.65c-1.947 1.947-5.104 1.947-7.052 0l-36.011-36.011c-3.905-3.905-3.905-10.237 0-14.142l65.714-65.712 65.713 65.712c3.905 3.905 3.905 10.237 0 14.142z" fill="#fff5f5"/><path d="m146 260.419c-13.808 0-25-11.193-25-25v-10c0-13.807 11.193-25 25-25 13.807 0 25 11.193 25 25v10c0 13.807-11.193 25-25 25z" fill="#ffcdbe"/><path d="m136 220.419v20c0 8.178 3.927 15.439 9.998 20-13.806-.001-24.998-11.193-24.998-25v-10c0-13.806 11.192-24.999 24.998-25-6.071 4.562-9.998 11.822-9.998 20zm230-19.999v-20c0-60.751-49.249-109.999-110-109.999-60.751 0-110 49.248-110 109.999v40c0 50.351 33.83 92.799 80 105.858v53.14l22.814 23.574c3.93 4.061 10.442 4.061 14.372 0l22.814-23.574v-53.14c33.586-9.499 60.641-34.55 72.895-66.883 2.404.711 4.959 1.071 7.605 1.019 13.71-.268 24.5-11.876 24.5-25.588v-9.407c0-13.806-11.193-24.999-25-24.999z" fill="#ffbeaa"/><path d="m366 180.42v40c0 50.792-34.425 93.542-81.216 106.194-9.023 2.44-18.545 2.44-27.568 0-46.791-12.652-81.216-55.403-81.216-106.195v-40c0-55.663 41.345-101.668 95-108.984 53.655 7.317 95 53.322 95 108.985z" fill="#ffcdbe"/><path d="m241.5 227.151c-2.929-2.93-2.929-7.678 0-10.607 2.929-2.928 7.678-2.928 10.606 0 1.042 1.042 2.424 1.616 3.893 1.616s2.851-.574 3.893-1.616c2.929-2.928 7.678-2.928 10.606 0 2.929 2.93 2.929 7.678 0 10.607-3.875 3.875-9.024 6.009-14.5 6.009s-10.623-2.134-14.498-6.009z" fill="#faa68e"/><path d="m223.5 187.92c0 8.284-6.716 15-15 15s-15-6.716-15-15 6.716-15 15-15 15 6.716 15 15zm80-15c-8.284 0-15 6.716-15 15s6.716 15 15 15 15-6.716 15-15-6.716-15-15-15z" fill="#126e66"/><path d="m226 180.42c0 4.142-3.358 7.5-7.5 7.5s-7.5-3.358-7.5-7.5 3.358-7.5 7.5-7.5 7.5 3.358 7.5 7.5zm87.5-7.5c-4.142 0-7.5 3.358-7.5 7.5s3.358 7.5 7.5 7.5 7.5-3.358 7.5-7.5-3.358-7.5-7.5-7.5z" fill="#fff5f5"/><path d="m256 290.419c-16.569 0-30-13.431-30-30 0-4.142 3.358-7.5 7.5-7.5h45c4.142 0 7.5 3.358 7.5 7.5 0 16.568-13.431 30-30 30z" fill="#fff5f5"/><path d="m263.5 289.473c-2.397.617-4.91.945-7.5.945-16.568 0-30-13.431-30-30 0-4.142 3.358-7.5 7.5-7.5h15c-4.142 0-7.5 3.358-7.5 7.5 0 13.98 9.561 25.725 22.5 29.055z" fill="#def4f8"/><path d="m381.288 130.834v73.999h-9.394c-19.365 0-35.064-15.699-35.064-35.063v-3.873h-57.016c-19.365 0-35.064-15.698-35.064-35.063z" fill="#ffc14f"/><path d="m146.655 100.16c8.596-35.14 24.832-67.282 46.848-94.565 5.528-6.85 15.685-7.501 22.073-1.446 12.322 11.68 25.868 22.083 40.424 30.996 14.556-8.913 28.101-19.316 40.424-30.996 6.388-6.055 16.546-5.404 22.073 1.446 22.663 28.084 39.2 61.316 47.585 97.666h-216.978c-1.625-.001-2.835-1.523-2.449-3.101z" fill="#c0694e"/><path d="m188.934 103.266h-39.83c-1.625 0-2.835-1.522-2.449-3.101 8.596-35.14 24.832-67.282 46.848-94.565 5.528-6.85 15.685-7.501 22.073-1.446 3.624 3.435 7.354 6.759 11.184 9.968-18.686 25.368-32.56 54.497-40.276 86.043-.386 1.578.825 3.101 2.45 3.101z" fill="#ae583e"/><path d="m365.286 100.005c3.416 13.901 5.636 28.273 6.544 43h-185.806c-13.11 0-23.171-11.741-21.036-24.676.039-.237.079-.474.118-.71 1.714-10.198 10.638-17.613 20.979-17.613h179.201z" fill="#93e2c6"/><path d="m186.544 100.011c-3.416 13.901-5.636 28.273-6.544 43h-39.83c.908-14.727 3.128-29.098 6.544-43z" fill="#24d3b5"/><path d="m352.571 69.819c10.968-21.065 28.595-36.947 50.189-47.14 4.034 23.536 1.131 47.084-9.837 68.149s-28.595 36.947-50.189 47.14c-4.033-23.535-1.131-47.083 9.837-68.149z" fill="#def4f8"/><path d="m359.749 93.393c5.905-11.341 13.395-20.934 21.539-28.234-1.31 10.859-4.874 22.495-10.779 33.837-5.905 11.341-13.395 20.934-21.539 28.234 1.311-10.86 4.874-22.496 10.779-33.837z" fill="#c2eaf2"/><path d="m401.049 150.504h-290.098c-13.78 0-24.951-11.171-24.951-24.951v-.059c0-2.756 2.234-4.99 4.99-4.99h330.02c2.756 0 4.99 2.234 4.99 4.99v.059c0 13.78-11.171 24.951-24.951 24.951z" fill="#c97e67"/><path d="m426 125.504c0 13.807-11.193 25-25 25h-221.358c-13.807 0-25-11.193-25-25 0-2.761 2.239-5 5-5h261.358c2.761 0 5 2.239 5 5z" fill="#d29380"/><path d="m331 460.001c0 16.568-33.579 30-75 30s-75-13.431-75-30c0-16.568 33.579-30 75-30s75 13.431 75 30z" fill="#c97e67"/><path d="m312 460.001c0 11.046-25.072 20-56 20s-56-8.954-56-20 25.072-20 56-20 56 8.954 56 20z" fill="#c0694e"/><path d="m286 460.001c0 4.604-13.431 8.336-30 8.336s-30-3.732-30-8.336 13.431-8.336 30-8.336 30 3.732 30 8.336z" fill="#ffc14f"/><path d="m202 415.001c0 2.761-2.239 5-5 5h-30c-2.761 0-5-2.238-5-5s2.239-5 5-5h30c2.761 0 5 2.239 5 5zm143-5h-30c-2.761 0-5 2.238-5 5s2.239 5 5 5h30c2.761 0 5-2.238 5-5s-2.239-5-5-5z" fill="#ffcd71"/></g></svg>