<svg height="512pt" viewBox="0 0 512 512" width="512pt" xmlns="http://www.w3.org/2000/svg"><path d="m512 256c0 141.386719-114.613281 256-256 256s-256-114.613281-256-256 114.613281-256 256-256 256 114.613281 256 256zm0 0" fill="#40b4d3"/><path d="m112.515625 446.738281c-28.3125-28.3125-28.3125-74.214843 0-102.527343 28.3125-28.316407 74.214844-28.316407 102.53125 0" fill="#ffbb16"/><path d="m399.484375 446.738281c28.3125-28.3125 28.3125-74.214843 0-102.527343-28.3125-28.316407-74.214844-28.316407-102.53125 0" fill="#ffbb16"/><path d="m398.410156 468.761719c-12.339844 8.277343-25.441406 15.519531-39.179687 21.566406-10.652344 4.703125-21.679688 8.703125-33.03125 11.921875-22.300781 6.351562-45.847657 9.75-70.199219 9.75-24.339844 0-47.890625-3.398438-70.199219-9.738281-7.242187-2.0625-14.359375-4.441407-21.332031-7.121094-.429688-.160156-.859375-.320313-1.289062-.492187-3.507813-1.359376-6.980469-2.808594-10.410157-4.320313-13.738281-6.058594-26.839843-13.289063-39.191406-21.578125 10.390625-14.371094 23.761719-26.429688 39.191406-35.320312 10.199219-5.871094 21.300781-10.339844 33.03125-13.148438 1.808594-.441406 3.640625-.839844 5.480469-1.191406 3.46875-.679688 7-1.199219 10.570312-1.570313 1.027344-.109375 2.046876-.210937 3.089844-.289062 3.378906-.28125 6.796875-.421875 10.257813-.421875h81.589843c4.519532 0 8.972657.242187 13.351563.703125 3.570313.367187 7.089844.898437 10.570313 1.558593 1.390624.269532 2.769531.558594 4.140624.871094.449219.117188.910157.207032 1.347657.328125 11.742187 2.820313 22.832031 7.289063 33.03125 13.160157 15.429687 8.898437 28.789062 20.960937 39.179687 35.332031zm0 0" fill="#f93d6e"/><path d="m215.199219 416.808594c-29.359375 0-49.257813 42.429687-50.730469 78.332031-.429688-.160156-.859375-.320313-1.289062-.492187-3.507813-1.359376-6.980469-2.808594-10.410157-4.320313-13.738281-6.058594-26.839843-13.289063-39.191406-21.578125 10.390625-14.371094 23.761719-26.429688 39.191406-35.320312 10.199219-5.871094 21.300781-10.339844 33.03125-13.148438 1.808594-.441406 3.640625-.839844 5.480469-1.191406 3.46875-.679688 7-1.199219 10.570312-1.570313 1.027344-.109375 2.046876-.210937 3.089844-.289062 3.378906-.28125 6.796875-.421875 10.257813-.421875zm0 0" fill="#e41753"/><path d="m320.710938 419.070312v4.339844c0 28.539063-18.320313 53.378906-45.589844 61.808594-6.171875 1.921875-12.609375 2.890625-19.132813 2.890625-35.679687 0-64.707031-29.03125-64.707031-64.699219v-4.320312c3.46875-.679688 7-1.199219 10.570312-1.570313 1.027344-.109375 2.046876-.210937 3.089844-.289062 3.378906-.28125 6.796875-.421875 10.257813-.421875h81.589843c4.519532 0 8.972657.242187 13.351563.703125 3.570313.367187 7.089844.898437 10.570313 1.558593zm0 0" fill="#f9c5ac"/><path d="m300.707031 368.539062v54.867188c0 20.089844-13.246093 37.066406-31.488281 42.707031-4.179688 1.296875-8.628906 1.996094-13.230469 1.996094-24.691406 0-44.703125-20.011719-44.703125-44.703125v-54.867188zm0 0" fill="#efb29a"/><path d="m300.707031 419.933594v3.472656c0 20.089844-13.246093 37.066406-31.488281 42.707031-16.460938-5.058593-28.839844-19.371093-31.125-36.882812 2.988281.183593 5.992188.273437 9.007812.273437 8.460938 0 16.75-.671875 24.828126-1.996094 9.953124-1.601562 19.570312-4.160156 28.777343-7.574218zm0 0" fill="#f9c5ac"/><path d="m132.539062 278.152344c0 20.496094-14.972656 37.492187-34.578124 40.648437-2.144532.34375-4.347657.527344-6.597657.527344-22.746093 0-41.171875-18.429687-41.171875-41.175781s18.425782-41.175782 41.171875-41.175782c2.25 0 4.453125.179688 6.597657.527344 19.605468 3.15625 34.578124 20.152344 34.578124 40.648438zm0 0" fill="#f9c5ac"/><path d="m132.539062 278.152344c0 20.496094-14.972656 37.492187-34.578124 40.648437-3.5625-12.953125-5.464844-26.582031-5.464844-40.648437s1.902344-27.695313 5.464844-40.644532c19.605468 3.152344 34.578124 20.148438 34.578124 40.644532zm0 0" fill="#efb29a"/><path d="m106.082031 278.152344c0 8.128906-6.589843 14.714844-14.71875 14.714844-8.125 0-14.714843-6.585938-14.714843-14.714844 0-8.125 6.589843-14.714844 14.714843-14.714844 8.128907 0 14.71875 6.589844 14.71875 14.714844zm0 0" fill="#efb29a"/><path d="m379.449219 278.152344c0 20.496094 14.972656 37.492187 34.578125 40.648437 2.144531.34375 4.347656.527344 6.597656.527344 22.746094 0 41.175781-18.429687 41.175781-41.175781s-18.429687-41.175782-41.175781-41.175782c-2.25 0-4.453125.179688-6.597656.527344-19.605469 3.15625-34.578125 20.152344-34.578125 40.648438zm0 0" fill="#f9c5ac"/><path d="m379.449219 278.152344c0 20.496094 14.972656 37.492187 34.578125 40.648437 3.5625-12.953125 5.464844-26.582031 5.464844-40.648437s-1.902344-27.695313-5.464844-40.644532c-19.605469 3.152344-34.578125 20.148438-34.578125 40.644532zm0 0" fill="#efb29a"/><path d="m435.339844 278.152344c0 8.128906-6.589844 14.714844-14.714844 14.714844-8.128906 0-14.71875-6.585938-14.71875-14.714844 0-8.125 6.589844-14.714844 14.71875-14.714844 8.125 0 14.714844 6.589844 14.714844 14.714844zm0 0" fill="#efb29a"/><path d="m410.695312 256.511719c0 76.984375-56.242187 140.847656-129.871093 152.703125-8.078125 1.328125-16.371094 2-24.828125 2-85.445313 0-154.703125-69.257813-154.703125-154.703125v-157.5h309.402343zm0 0" fill="#f9c5ac"/><g fill="#efb29a"><path d="m256 118.890625c0 26.058594 20.699219 125.414063 164.625 118.089844"/><path d="m283.242188 408.808594c-.800782.140625-1.609376.28125-2.417969.410156-8.082031 1.320312-16.371094 1.992188-24.832031 1.992188-85.4375 0-154.699219-69.25-154.699219-154.699219v-157.5h54.550781v157.5c0 76.136719 54.980469 139.410156 127.398438 152.296875zm0 0"/><path d="m343.992188 244.328125c0-17.808594-14.433594-32.242187-32.242188-32.242187s-32.242188 14.433593-32.242188 32.242187"/></g><path d="m333.773438 258.054688c0 12.164062-9.859376 22.023437-22.023438 22.023437s-22.023438-9.859375-22.023438-22.023437c0-12.164063 9.859376-22.023438 22.023438-22.023438s22.023438 9.859375 22.023438 22.023438zm0 0" fill="#2f373b"/><path d="m330.363281 254.167969c0 5.210937-4.222656 9.4375-9.433593 9.4375-5.214844 0-9.4375-4.226563-9.4375-9.4375 0-5.210938 4.222656-9.4375 9.4375-9.4375 5.210937 0 9.433593 4.226562 9.433593 9.4375zm0 0" fill="#fff"/><path d="m232.480469 244.328125c0-17.808594-14.433594-32.242187-32.242188-32.242187-17.808593 0-32.242187 14.433593-32.242187 32.242187" fill="#efb29a"/><path d="m222.261719 258.054688c0 12.164062-9.859375 22.023437-22.023438 22.023437-12.160156 0-22.019531-9.859375-22.019531-22.023437 0-12.164063 9.859375-22.023438 22.019531-22.023438 12.164063 0 22.023438 9.859375 22.023438 22.023438zm0 0" fill="#2f373b"/><path d="m205.207031 279.511719c-1.601562.378906-3.261719.566406-4.96875.566406-12.160156 0-22.019531-9.859375-22.019531-22.027344 0-12.160156 9.859375-22.019531 22.019531-22.019531 1.707031 0 3.367188.199219 4.96875.570312-9.78125 2.25-17.058593 11-17.058593 21.449219 0 10.460938 7.277343 19.210938 17.058593 21.460938zm0 0" fill="#181e21"/><path d="m316.71875 279.511719c-1.601562.378906-3.261719.566406-4.972656.566406-12.160156 0-22.019532-9.859375-22.019532-22.027344 0-12.160156 9.859376-22.019531 22.019532-22.019531 1.710937 0 3.371094.199219 4.972656.570312-9.78125 2.25-17.0625 11-17.0625 21.449219 0 10.460938 7.28125 19.210938 17.0625 21.460938zm0 0" fill="#181e21"/><path d="m218.855469 254.167969c0 5.210937-4.226563 9.4375-9.4375 9.4375-5.210938 0-9.4375-4.226563-9.4375-9.4375 0-5.210938 4.226562-9.4375 9.4375-9.4375 5.210937 0 9.4375 4.226562 9.4375 9.4375zm0 0" fill="#fff"/><path d="m360.261719 296.496094c0 10.539062-8.542969 19.082031-19.082031 19.082031-10.539063 0-19.082032-8.542969-19.082032-19.082031 0-10.539063 8.542969-19.082032 19.082032-19.082032 10.539062 0 19.082031 8.542969 19.082031 19.082032zm0 0" fill="#efb29a"/><path d="m189.886719 296.496094c0 10.539062-8.542969 19.082031-19.082031 19.082031-10.539063 0-19.082032-8.542969-19.082032-19.082031 0-10.539063 8.542969-19.082032 19.082032-19.082032 10.539062 0 19.082031 8.542969 19.082031 19.082032zm0 0" fill="#efb29a"/><path d="m273.378906 297.921875h-34.757812c-4.140625 0-7.5-3.355469-7.5-7.496094s3.359375-7.496093 7.5-7.496093h34.757812c4.136719 0 7.496094 3.355468 7.496094 7.496093s-3.359375 7.496094-7.496094 7.496094zm0 0" fill="#efb29a"/><path d="m256 345.351562c-12.828125 0-25.65625-3.214843-37.351562-9.640624-3.296876-1.8125-4.5-5.957032-2.6875-9.257813 1.8125-3.296875 5.957031-4.5 9.253906-2.6875 19.277344 10.597656 42.292968 10.597656 61.566406 0 3.296875-1.8125 7.441406-.609375 9.253906 2.6875 1.816406 3.300781.613282 7.445313-2.6875 9.257813-11.691406 6.425781-24.519531 9.640624-37.347656 9.640624zm0 0" fill="#dd9f8a"/><path d="m367.875 376.046875c-9.863281 0-19.199219-1.472656-27.238281-3.425781l4.71875-19.433594c58.492187 14.203125 75.527343-29.046875 76.222656-30.894531l18.777344 6.886719c-.238281.652343-5.972657 16.089843-21.265625 29.019531-16.027344 13.550781-34.386719 17.847656-51.214844 17.847656zm0 0" fill="#f1eee9"/><path d="m363.03125 360.949219c0 13.761719-11.160156 24.921875-24.921875 24.921875-13.765625 0-24.925781-11.160156-24.925781-24.921875 0-13.765625 11.160156-24.925781 24.925781-24.925781 13.761719 0 24.921875 11.160156 24.921875 24.925781zm0 0" fill="#2f373b"/><path d="m275.25 4.910156c-6.210938-.609375-12.621094-.929687-19.25-.929687-14.011719 0-27.058594 1.410156-39.210938 4-114.769531 24.371093-149.398437 152.988281-149.398437 181.230469 0 31.230468 33.910156 33.910156 33.910156 33.910156 20.558594 0 38.660157-3.210938 54.539063-8.5 74.671875-24.851563 100.160156-95.730469 100.160156-95.730469s37.488281 104.230469 154.699219 104.230469c0 0 21.859375-1.730469 30.472656-18.582032 2.117187-4.128906 3.4375-9.179687 3.4375-15.328124 0-29.8125-38.609375-171.519532-169.359375-184.300782zm0 0" fill="#ffbb16"/><path d="m441.171875 204.539062c-8.613281 16.851563-30.472656 18.582032-30.472656 18.582032-117.210938 0-154.699219-104.230469-154.699219-104.230469v-114.910156c6.628906 0 13.039062.320312 19.25.929687l5.03125 20.699219c0 38.21875 18.019531 159.21875 154.070312 177.878906 2.398438.332031 4.667969.683594 6.820313 1.050781zm0 0" fill="#ff931f"/><path d="m155.839844 214.621094c-15.878906 5.289062-33.980469 8.5-54.539063 8.5 0 0-33.910156-2.679688-33.910156-33.910156 0-28.242188 34.628906-156.859376 149.398437-181.230469l28.480469 6.648437c-66.160156 4.640625-138.589843 103-89.429687 199.992188zm0 0" fill="#ff931f"/><path d="m345.523438 384.746094c-2.339844.730468-4.828126 1.121094-7.410157 1.121094-13.769531 0-24.929687-11.160157-24.929687-24.917969 0-13.769531 11.160156-24.921875 24.929687-24.921875 2.582031 0 5.070313.390625 7.410157 1.121094-10.136719 3.160156-17.5 12.621093-17.5 23.800781 0 11.179687 7.363281 20.640625 17.5 23.796875zm0 0" fill="#181e21"/><path d="m369.085938 254.414062v.269532c.160156 15.175781 23.285156 15.175781 23.445312 0 0-.089844 0-.179688 0-.269532 0-8.941406-4.6875-16.773437-11.722656-21.226562-7.039063 4.453125-11.722656 12.285156-11.722656 21.226562zm0 0" fill="#fff"/><path d="m62.429688 259.664062c-4.980469-17.691406-7.507813-36.0625-7.507813-54.605468 0-110.875 90.203125-201.078125 201.078125-201.078125s201.078125 90.203125 201.078125 201.078125c0 18.269531-2.453125 36.378906-7.289063 53.824218l-19.273437-5.34375c4.355469-15.703124 6.5625-32.015624 6.5625-48.480468 0-99.847656-81.230469-181.078125-181.078125-181.078125s-181.078125 81.230469-181.078125 181.078125c0 16.710937 2.273437 33.257812 6.757813 49.183594zm0 0" fill="#f1eee9"/><path d="m44.457031 329.71875 11.019531-1.605469c8.828126-1.285156 14.941407-9.484375 13.65625-18.3125l-9.636718-66.136719c-1.285156-8.828124-9.484375-14.941406-18.3125-13.65625l-11.019532 1.605469c-8.828124 1.285157-14.945312 9.484375-13.65625 18.3125l9.632813 66.136719c1.289063 8.828125 9.488281 14.945312 18.316406 13.65625zm0 0" fill="#2f373b"/><path d="m97.988281 343.121094-26.617187 3.878906c-12.6875 1.847656-24.472656-6.941406-26.320313-19.628906l-13.648437-93.675782c-1.847656-12.691406 6.941406-24.476562 19.628906-26.324218l26.613281-3.878906c12.691407-1.847657 24.476563 6.941406 26.324219 19.628906l13.648438 93.679687c1.847656 12.6875-6.941407 24.472657-19.628907 26.320313zm0 0" fill="#6e5482"/><path d="m112.730469 283.28125 4.882812 33.519531c1.847657 12.6875-6.9375 24.472657-19.625 26.320313l-26.617187 3.878906c-12.6875 1.847656-24.472656-6.9375-26.320313-19.628906l-4.886719-33.519532c1.851563 12.6875 13.636719 21.476563 26.324219 19.628907l26.617188-3.878907c12.6875-1.847656 21.472656-13.632812 19.625-26.320312zm0 0" fill="#513866"/><path d="m467.542969 329.71875-11.019531-1.605469c-8.828126-1.285156-14.941407-9.484375-13.65625-18.3125l9.636718-66.136719c1.285156-8.828124 9.484375-14.941406 18.3125-13.65625l11.019532 1.605469c8.828124 1.285157 14.945312 9.484375 13.65625 18.3125l-9.632813 66.136719c-1.289063 8.828125-9.488281 14.945312-18.316406 13.65625zm0 0" fill="#2f373b"/><path d="m414.011719 343.121094 26.617187 3.878906c12.6875 1.847656 24.472656-6.941406 26.320313-19.628906l13.648437-93.675782c1.847656-12.691406-6.941406-24.476562-19.628906-26.324218l-26.613281-3.878906c-12.691407-1.847657-24.476563 6.941406-26.324219 19.628906l-13.644531 93.679687c-1.851563 12.6875 6.9375 24.472657 19.625 26.320313zm0 0" fill="#6e5482"/><path d="m399.269531 283.28125-4.882812 33.519531c-1.847657 12.6875 6.9375 24.472657 19.628906 26.320313l26.617187 3.878906c12.6875 1.847656 24.472657-6.9375 26.320313-19.628906l4.882813-33.519532c-1.847657 12.6875-13.632813 21.476563-26.320313 19.628907l-26.617187-3.878907c-12.691407-1.847656-21.476563-13.632812-19.628907-26.320312zm0 0" fill="#513866"/></svg>