<svg id="Capa_1" enable-background="new 0 0 512 512" height="512" viewBox="0 0 512 512" width="512" xmlns="http://www.w3.org/2000/svg"><g><path d="m436.453 357.167-101.831-33.756-56.755 54.034v36.829l41.867 97.726h160.398v-94.336c.001-27.472-17.603-51.853-43.679-60.497z" fill="#ece6f2"/><path d="m334.622 323.411h-56.755l10 90.863h84.977z" fill="#cfcfe6"/><path d="m75.547 357.167 101.831-33.756 56.755 54.034v36.829l-41.867 97.726h-160.399v-94.336c0-27.472 17.604-51.853 43.68-60.497z" fill="#fff5f5"/><path d="m177.378 323.411h56.755l-10 90.863h-84.977z" fill="#ece6f2"/><path d="m246 404.274 10 107.726h63.734l-31.867-97.726z" fill="#e50058"/><path d="m256 404.274v107.726h-63.734l31.867-97.726z" fill="#ff4a4a"/><path d="m246 323.411 10 90.863h31.867v-90.863z" fill="#c50048"/><path d="m224.133 323.411h31.867v90.863h-31.867z" fill="#e50058"/><path d="m415.336 159.336c0-66.121-40.277-122.832-97.634-146.945l-10 160.485 107.634-10z" fill="#ffda44"/><path d="m317.702 12.391c-18.978-7.978-39.824-12.391-61.702-12.391l-10 172.876 71.702-10z" fill="#ffb655"/><path d="m256 0c-87.999 0-159.336 71.337-159.336 159.336v3.54l159.336 10z" fill="#ffda44"/><path d="m128.579 226.611c-46.983 22.885-56.581 77.512-56.581 77.512 72.059 30.386 105.38 19.287 105.38 19.287h78.622v-96.8h-127.421z" fill="#ffda44"/><path d="m383.421 226.611h-127.421v96.8h78.574s33.32 11.099 105.38-19.287c-.001 0-9.551-54.628-56.533-77.513z" fill="#ffb655"/><path d="m373.421 226.611h41.915c17.6 0 31.868-14.268 31.868-31.868 0-17.6-14.268-31.868-31.868-31.868h-31.867z" fill="#ffcdbe"/><path d="m128.531 162.876h-31.867c-17.6 0-31.868 14.268-31.868 31.868 0 17.6 14.268 31.868 31.868 31.868h41.915z" fill="#ffdecf"/><path d="m383.469 162.876h-12.257c-26.959 0-51.081-20.319-53.509-50.289h-35.364c-9.351 0-18.459 2.617-26.339 7.469l-10 87.08 10 143.402c70.399 0 127.469-57.07 127.469-127.469z" fill="#ffdecf"/><path d="m246.714 127.399c-22.135 22.245-51.728 35.477-83.11 35.477h-35.074v60.195c0 70.399 57.07 127.469 127.469 127.469v-230.483c-3.339 2.056-6.463 4.507-9.285 7.342z" fill="#ffeee5"/><path d="m184.299 192.137h31.867v30h-31.867z" fill="#332866"/><path d="m295.834 192.137h31.867v30h-31.867z" fill="#180a33"/></g></svg>