<svg id="Capa_1" enable-background="new 0 0 512 512" height="512" viewBox="0 0 512 512" width="512" xmlns="http://www.w3.org/2000/svg"><g><g><path d="m55.031 407.139c-27.744-39.712-44.031-88.02-44.031-140.139 0-135.31 109.69-245 245-245s245 109.69 245 245c0 52.119-16.287 100.427-44.031 140.139z" fill="#3c5082"/></g><g><circle cx="256" cy="242" fill="#2d3c6b" r="200"/></g><g><path d="m348.593 64.834c-15.486-34.415-43.5-64.834-73.727-64.834-12.234 0-18.866 12-18.866 12s-6.635-12-18.869-12c-30.227 0-58.241 30.419-73.726 64.834-10.98 23.725-45.223 58.317-29.862 90.26 4.798 9.977 5.859 21.241 3.377 32.03-.906 3.938-1.189 7.928-.643 11.992 3.771 28.069 37.792 75.63 119.724 75.63s115.949-47.561 119.721-75.63c.546-4.064.263-8.054-.643-11.992-2.482-10.789-1.421-22.053 3.377-32.03 15.36-31.943-18.883-66.535-29.863-90.26z" fill="#ff596e"/></g><g><path d="m208.916 134.364c-16.471-16.343-44.632-90-8.163-120.028-15.299 12.121-28.413 30.637-37.349 50.497-10.98 23.725-45.223 58.317-29.862 90.26 4.798 9.977 5.859 21.241 3.377 32.03-.906 3.938-1.189 7.928-.643 11.992 2.946 21.928 24.353 55.751 72.64 69.502z" fill="#ff4155"/></g><g><path d="m456.949 407.139c-8.256-22.709-16.99-42.685-24.722-51.911-.904-1.078-1.795-2.019-2.668-2.79-6.623-5.848-19.39-11.382-34.352-16.323-3.249-1.073-6.604-2.117-10.02-3.131l-22.229 4.996-18.064-15.245c-22.378-4.959-40.43-7.98-41.508-8.158h-94.772c-1.078.179-19.13 3.199-41.508 8.158l-18.064 15.245-22.229-4.996c-3.416 1.014-6.771 2.058-10.02 3.131-14.961 4.941-27.729 10.475-34.352 16.323-.874.772-1.765 1.712-2.668 2.79-7.732 9.226-16.467 29.203-24.722 51.911-.001.009-.001.018-.002.026 22.564 32.289 52.712 58.885 87.856 77.212v-.001h17.178l28.991 18.366c9.982 2.829 20.226 5.033 30.683 6.585l36.243-15.689 36.242 15.688c10.457-1.552 20.701-3.756 30.683-6.585l28.991-18.366h17.178v.001c35.145-18.327 65.292-44.922 87.856-77.212 0-.007 0-.016-.001-.025z" fill="#38c674"/></g><g><path d="m147.031 337.527-20.214-4.543c-3.417 1.014-6.774 2.057-10.023 3.131-14.961 4.941-27.729 10.475-34.352 16.323-.874.772-1.765 1.712-2.668 2.79-7.732 9.226-16.467 29.203-24.722 51.911-.001.009-.001.018-.002.026 22.564 32.289 52.712 58.885 87.856 77.212v-.001h17.178l28.991 18.366c9.982 2.829 20.226 5.033 30.683 6.585l17.851-7.727c-47.41-31.405-81.846-91.847-90.578-164.073z" fill="#21b75d"/></g><g><path d="m240.843 394.146-21.087 115.181c11.827 1.758 23.928 2.673 36.244 2.673s24.417-.915 36.243-2.673l-21.087-115.181z" fill="#5c45bf"/></g><g><path d="m261.409 394.146h-20.565l-21.087 115.181c6.64.987 13.37 1.698 20.173 2.141z" fill="#4432ad"/></g><g><path d="m271.632 399.831h-31.265c-2.278 0-4.267-1.539-4.84-3.744l-12.527-48.256h66l-12.528 48.256c-.572 2.205-2.562 3.744-4.84 3.744z" fill="#7255ce"/></g><g><path d="m255.528 396.088-12.528-48.257h-20l12.528 48.256c.572 2.204 2.562 3.744 4.84 3.744h20c-2.278 0-4.268-1.539-4.84-3.743z" fill="#5c45bf"/></g><g><path d="m369.09 484.38c-14.59 7.6-30.04 13.8-46.18 18.37v-.01c17.03-58.74 24.37-118.83 21.98-180.01 12.81 2.84 27.03 6.31 40.31 10.25 1.02 51.2-4.36 101.76-16.11 151.4z" fill="#ffdd40"/></g><g><path d="m142.91 484.38c14.59 7.6 30.04 13.8 46.18 18.37v-.01c-17.03-58.74-24.37-118.83-21.98-180.01-12.81 2.84-27.03 6.31-40.31 10.25-1.02 51.2 4.36 101.76 16.11 151.4z" fill="#ffdd40"/></g><g><path d="m91.07 426.843v21.327c7.157 6.519 14.704 12.617 22.599 18.262l-12.035-41.103c-1.75-5.98-10.564-4.716-10.564 1.514z" fill="#16a34f"/></g><g><path d="m420.93 426.843v21.327c-7.157 6.519-14.704 12.617-22.599 18.262l12.035-41.103c1.75-5.98 10.564-4.716 10.564 1.514z" fill="#21b75d"/></g><g><path d="m331.058 159.567s10.385-25.285 28.897-19.415-.448 60.664-36.573 64.116z" fill="#f3d6ac"/></g><g><path d="m180.942 159.567s-10.385-25.285-28.897-19.415.448 60.664 36.573 64.116z" fill="#eabe8d"/></g><g><path d="m208.614 221.239v93.336s19.021 33.261 47.17 33.261c.073 0 .143-.005.216-.005 28.031-.103 47.386-33.256 47.386-33.256v-93.336z" fill="#f3d6ac"/></g><g><path d="m208.614 220.734v93.841c94.723 0 94.772-53.4 94.772-53.4v-40.44h-94.772z" fill="#eabe8d"/></g><g><path d="m303.386 299.609-47.386 48.222s18.328 33.146 30.188 33.146c7.034 0 17.106-22.384 24.137-40.597 5.342-13.84 2.694-29.488-6.939-40.771z" fill="#49d88b"/></g><g><path d="m208.614 299.609 47.386 48.222s-18.328 33.146-30.188 33.146c-7.034 0-17.106-22.384-24.137-40.597-5.342-13.84-2.694-29.488 6.939-40.771z" fill="#49d88b"/></g><g><path d="m255.784 82.484s-19.69 60.442-87.333 60.562c-.029 1.23-.049 2.464-.049 3.708 0 64.505 39.219 140.155 87.597 140.155s87.597-75.651 87.597-140.155c0-1.244-.02-2.478-.049-3.708-67.642-.12-87.763-60.562-87.763-60.562z" fill="#f8e6cc"/></g><g><path d="m208.403 146.754c0-4.214.187-8.339.513-12.39-11.036 5.219-24.395 8.653-40.465 8.682-.029 1.23-.049 2.464-.049 3.708 0 64.505 39.219 140.155 87.597 140.155 6.881 0 13.576-1.535 20-4.346-38.74-16.952-67.596-80.479-67.596-135.809z" fill="#f3d6ac"/></g><g><path d="m345.269 134.364h-9.758c-25.532 55.279-28.419 82.519-28.419 82.519s-18.9-30.522-51.092-30.522-51.092 30.522-51.092 30.522-2.887-27.24-28.419-82.519h-9.758c-15.874 113.232 33.971 170.211 89.269 170.211s105.143-56.979 89.269-170.211z" fill="#ff596e"/></g><g><g><path d="m235.384 240.87h41.233c4.111-3.622 7.258-8.309 9.01-13.631 1.584-4.811-2.069-9.754-7.134-9.754h-44.985c-5.065 0-8.718 4.943-7.134 9.754 1.752 5.322 4.899 10.009 9.01 13.631z" fill="#162544"/></g><g><path d="m276.616 240.87c-5.493 4.849-12.714 7.798-20.616 7.798s-15.124-2.948-20.616-7.798c5.5-4.849 12.714-7.798 20.616-7.798s15.116 2.949 20.616 7.798z" fill="#e80054"/></g></g><g><g><path d="m242.013 192.447 8.436-13.441c2.569-4.093 8.533-4.093 11.102 0l8.436 13.441c2.739 4.365-.398 10.038-5.551 10.038h-16.871c-5.154-.001-8.291-5.674-5.552-10.038z" fill="#eabe8d"/></g></g><g><path d="m310.999 162.085c.043-3.495-1.371-7.004-4.242-9.539-4.675-4.128-11.84-4.128-16.515 0-2.871 2.535-4.284 6.044-4.242 9.539.055 4.538 5.629 6.716 8.838 3.507 2.022-2.022 5.3-2.022 7.322 0 3.21 3.21 8.784 1.032 8.839-3.507z" fill="#162544"/></g><g><path d="m201.001 162.085c-.043-3.495 1.371-7.004 4.242-9.539 4.675-4.128 11.84-4.128 16.515 0 2.871 2.535 4.284 6.044 4.242 9.539-.055 4.538-5.629 6.716-8.838 3.507-2.022-2.022-5.3-2.022-7.322 0-3.21 3.21-8.784 1.032-8.839-3.507z" fill="#162544"/></g><g><path d="m223.5 138.968h-20c-4.142 0-7.5-3.358-7.5-7.5 0-4.142 3.358-7.5 7.5-7.5h20c4.142 0 7.5 3.358 7.5 7.5 0 4.142-3.358 7.5-7.5 7.5z" fill="#e80054"/></g><g><path d="m308.5 138.968h-20c-4.142 0-7.5-3.358-7.5-7.5 0-4.142 3.358-7.5 7.5-7.5h20c4.142 0 7.5 3.358 7.5 7.5 0 4.142-3.358 7.5-7.5 7.5z" fill="#e80054"/></g><g><path d="m170.759 413.066c.001.074.011.147.011.221 0 11.13-9.023 20.153-20.153 20.153-9.448 0-17.355-6.511-19.536-15.284 2.702 22.235 6.642 44.316 11.825 66.219 14.595 7.609 30.046 13.802 46.181 18.373-8.568-29.561-14.67-59.469-18.328-89.682z" fill="#ffc839"/></g><g><path d="m341.241 413.066c-.001.074-.011.147-.011.221 0 11.13 9.023 20.153 20.153 20.153 9.448 0 17.355-6.511 19.536-15.284-2.702 22.235-6.642 44.316-11.825 66.219-14.595 7.609-30.046 13.802-46.181 18.373 8.568-29.561 14.67-59.469 18.328-89.682z" fill="#ffc839"/></g><g><path d="m204.908 216.884s-2.887-27.24-28.419-82.519h-9.758c-15.874 113.231 33.971 170.21 89.269 170.21-49.255-13.659-60.532-70.596-51.092-87.691z" fill="#ff4155"/></g></g></svg>