<svg id="Capa_1" enable-background="new 0 0 512 512" height="512" viewBox="0 0 512 512" width="512" xmlns="http://www.w3.org/2000/svg"><g><path d="m0 256c0-141.385 114.615-256 256-256s256 114.615 256 256c0 80.844-37.474 152.936-96 199.852-.648.519-100.354-53.052-160-53.052s-159.353 53.571-160 53.052c-58.526-46.916-96-119.008-96-199.852z" fill="#20b7a1"/><path d="m466.83 235.83c0 116.438-94.392 210.83-210.83 210.83s-210.83-94.392-210.83-210.83 94.392-210.83 210.83-210.83 210.83 94.392 210.83 210.83z" fill="#24d3b5"/><path d="m214.731 127.5v255c0 4.142-3.358 7.5-7.5 7.5-4.142 0-7.5-3.358-7.5-7.5v-255c0-4.142 3.358-7.5 7.5-7.5 4.143 0 7.5 3.358 7.5 7.5zm90.038-7.5c-4.142 0-7.5 3.358-7.5 7.5v255c0 4.142 3.358 7.5 7.5 7.5 4.142 0 7.5-3.358 7.5-7.5v-255c0-4.142-3.358-7.5-7.5-7.5z" fill="#fff5f5"/><path d="m161 368.781c-13.35 12.747-21.667 30.719-21.667 50.635v50.273c0 6.52-7.085 10.561-12.708 7.261-10.732-6.298-20.965-13.355-30.625-21.099v-36.436c0-36.979 28.674-67.26 65-69.824z" fill="#ffc14f"/><path d="m416 419.416v36.436c-18.23 14.614-38.503 26.785-60.322 36.017-2.874 1.216-5.774-4.051-8.7-2.938-28.269 10.751-154.556 10.583-183.157-.46-2.519-.973-5.02 4.448-7.5 3.398-10.482-4.435-20.608-9.549-30.322-15.286v-57.167c0-33.027 22.873-60.712 53.642-68.078 5.248-1.257 10.943 4.173 16.576 4.173l149.783-.256c2.899 0 5.757-5.663 8.564-5.321 34.62 4.224 61.436 33.721 61.436 69.482z" fill="#ffcd71"/><path d="m355.678 349.416v127.807c0 9.044-5.675 17.139-14.2 20.158-5.889 2.085-11.876 3.961-17.954 5.619-1.367.373-3.978-1.287-5.354-.937-10.385 2.646-21.024 4.658-31.873 5.99-1.517.187-1.8 2.382-3.326 2.542-8.863.929-17.862 1.405-26.971 1.405s-18.107-.476-26.971-1.404c-1.437-.15-2.637-3.933-4.067-4.107-10.805-1.316-21.402-3.305-31.749-5.924-1.507-.382-3.241 2.844-4.738 2.435-5.948-1.622-11.811-3.454-17.578-5.486-8.755-3.085-14.576-11.407-14.576-20.69v-127.408h40.21l12.843 6.222h92.816l11.703-6.222z" fill="#fb5858"/><path d="m286 311.416v70h-60v-70z" fill="#ffbeaa"/><path d="m246.435 384.31h-35.218c-8.284 0-15-6.716-15-15v-21.416c0-8.284 6.716-15 15-15h35.218c8.284 0 15 6.716 15 15v21.416c0 8.284-6.716 15-15 15z" fill="#fb5858"/><path d="m300.783 384.31h-35.217c-8.284 0-15-6.716-15-15v-21.416c0-8.284 6.716-15 15-15h35.217c8.284 0 15 6.716 15 15v21.416c0 8.284-6.716 15-15 15z" fill="#f87b67"/><path d="m146 251.416c-13.807 0-25-11.193-25-25v-10c0-13.807 11.193-25 25-25 13.807 0 25 11.193 25 25v10c0 13.807-11.193 25-25 25z" fill="#ffcdbe"/><path d="m136 211.416v20c0 8.178 3.927 15.439 9.998 20-13.806-.001-24.998-11.194-24.998-25v-10c0-13.806 11.192-24.999 24.998-25-6.071 4.561-9.998 11.822-9.998 20zm230-20v-20c0-60.751-49.249-110-110-110-60.751 0-110 49.249-110 110v40c0 60.751 49.249 110 110 110 47.027 0 87.162-29.511 102.895-71.024 2.252.667 4.637 1.024 7.105 1.024 13.807 0 25-11.193 25-25v-10c0-13.807-11.193-25-25-25z" fill="#ffbeaa"/><path d="m366 171.416v40c0 50.792-34.425 93.543-81.216 106.195-9.023 2.44-18.545 2.44-27.568 0-46.791-12.652-81.216-55.403-81.216-106.195v-40c0-55.663 41.345-101.669 95-108.985 53.655 7.316 95 53.322 95 108.985z" fill="#ffcdbe"/><path d="m241.5 218.148c-2.929-2.93-2.929-7.678 0-10.607 2.929-2.928 7.678-2.928 10.606 0 1.042 1.042 2.424 1.616 3.893 1.616s2.851-.574 3.893-1.616c2.929-2.928 7.678-2.928 10.606 0 2.929 2.93 2.929 7.678 0 10.607-3.875 3.875-9.024 6.009-14.5 6.009s-10.623-2.134-14.498-6.009z" fill="#faa68e"/><path d="m256 281.416c-16.569 0-30-13.431-30-30 0-4.142 3.358-7.5 7.5-7.5h45c4.142 0 7.5 3.358 7.5 7.5 0 16.569-13.431 30-30 30z" fill="#fff5f5"/><path d="m263.5 280.471c-2.397.617-4.91.945-7.5.945-16.568 0-30-13.431-30-30 0-4.142 3.358-7.5 7.5-7.5h15c-4.142 0-7.5 3.358-7.5 7.5 0 13.979 9.561 25.725 22.5 29.055z" fill="#def4f8"/><path d="m236.07 180.609c1.877 3.692.406 8.208-3.285 10.085-3.693 1.878-8.207.406-10.085-3.285-3.125-6.144-10.664-8.6-16.808-5.477-3.692 1.877-8.207.405-10.085-3.287-1.877-3.692-.406-8.207 3.286-10.084 6.758-3.436 14.284-3.803 20.98-1.621 6.695 2.181 12.56 6.912 15.997 13.669zm76.837-12.048c-6.758-3.436-14.284-3.803-20.98-1.621-6.696 2.181-12.561 6.912-15.998 13.669-1.877 3.692-.406 8.208 3.285 10.085 3.693 1.878 8.207.406 10.085-3.285 3.125-6.144 10.664-8.6 16.808-5.477 3.692 1.877 8.207.405 10.085-3.287 1.879-3.691.407-8.207-3.285-10.084z" fill="#a65d4e"/><path d="m355.678 418.149v73.72c-4.923 2.083-9.925 4.017-15 5.795v-79.514c0-4.142 3.358-7.5 7.5-7.5s7.5 3.357 7.5 7.499zm-191.856-7.5c-4.142 0-7.5 3.358-7.5 7.5v73.72c4.923 2.083 9.925 4.017 15 5.795v-79.514c0-4.143-3.358-7.501-7.5-7.501z" fill="#c83c50"/><path d="m151 390c-4.142 0-7.5-3.358-7.5-7.5v-255c0-4.142 3.358-7.5 7.5-7.5 4.142 0 7.5 3.358 7.5 7.5v255c0 4.142-3.358 7.5-7.5 7.5zm217.5-7.5v-255c0-4.142-3.358-7.5-7.5-7.5-4.142 0-7.5 3.358-7.5 7.5v255c0 4.142 3.358 7.5 7.5 7.5 4.142 0 7.5-3.358 7.5-7.5zm-188.31 7.5c-4.142 0-7.5-3.358-7.5-7.5v-255c0-4.142 3.358-7.5 7.5-7.5 4.142 0 7.5 3.358 7.5 7.5v255c0 4.142-3.357 7.5-7.5 7.5zm159.12-7.5v-255c0-4.142-3.358-7.5-7.5-7.5-4.142 0-7.5 3.358-7.5 7.5v255c0 4.142 3.358 7.5 7.5 7.5 4.142 0 7.5-3.358 7.5-7.5z" fill="#fff5f5"/><path d="m159 250h-16c-1.105 0-2-.895-2-2v-26c0-1.105.895-2 2-2h16c1.105 0 2 .895 2 2v26c0 1.105-.895 2-2 2zm212-2v-26c0-1.105-.895-2-2-2h-16c-1.105 0-2 .895-2 2v26c0 1.105.895 2 2 2h16c1.105 0 2-.895 2-2zm-182.81 2h-16c-1.105 0-2-.895-2-2v-26c0-1.105.895-2 2-2h16c1.105 0 2 .895 2 2v26c0 1.105-.895 2-2 2zm153.62-2v-26c0-1.105-.895-2-2-2h-16c-1.105 0-2 .895-2 2v26c0 1.105.895 2 2 2h16c1.104 0 2-.895 2-2z" fill="#b03244"/><path d="m159 200h-16c-1.105 0-2-.895-2-2v-36c0-1.105.895-2 2-2h16c1.105 0 2 .895 2 2v36c0 1.105-.895 2-2 2zm2 118v-36c0-1.105-.895-2-2-2h-16c-1.105 0-2 .895-2 2v36c0 1.105.895 2 2 2h16c1.105 0 2-.895 2-2zm-10 42c-5.523 0-10 4.477-10 10s4.477 10 10 10 10-4.477 10-10-4.477-10-10-10zm220-162v-36c0-1.105-.895-2-2-2h-16c-1.105 0-2 .895-2 2v36c0 1.105.895 2 2 2h16c1.105 0 2-.895 2-2zm0 120v-36c0-1.105-.895-2-2-2h-16c-1.105 0-2 .895-2 2v36c0 1.105.895 2 2 2h16c1.105 0 2-.895 2-2zm-10 42c-5.523 0-10 4.477-10 10s4.477 10 10 10 10-4.477 10-10-4.477-10-10-10zm-172.81-160h-16c-1.105 0-2-.895-2-2v-36c0-1.105.895-2 2-2h16c1.105 0 2 .895 2 2v36c0 1.105-.895 2-2 2zm2 118v-36c0-1.105-.895-2-2-2h-16c-1.105 0-2 .895-2 2v36c0 1.105.895 2 2 2h16c1.105 0 2-.895 2-2zm-10 42c-5.523 0-10 4.477-10 10s4.477 10 10 10 10-4.477 10-10-4.477-10-10-10zm161.62-162v-36c0-1.105-.895-2-2-2h-16c-1.105 0-2 .895-2 2v36c0 1.105.895 2 2 2h16c1.104 0 2-.895 2-2zm0 120v-36c0-1.105-.895-2-2-2h-16c-1.105 0-2 .895-2 2v36c0 1.105.895 2 2 2h16c1.104 0 2-.895 2-2zm-10 42c-5.523 0-10 4.477-10 10s4.477 10 10 10 10-4.477 10-10-4.478-10-10-10z" fill="#f87b67"/><path d="m263.191 10 38.809 90h-92l38.809-90z" fill="#c83c50"/><path d="m122.432 62.799h281.859c5.683 0 9.408 5.946 6.927 11.06l-28.623 59.003c-1.287 2.654-3.978 4.339-6.927 4.339h-217.593c-9.391 0-17.956-5.365-22.055-13.814l-22.494-46.369c-3.189-6.574 1.599-14.219 8.906-14.219zm146.068-50.299c0 6.904-5.596 12.5-12.5 12.5s-12.5-5.596-12.5-12.5 5.596-12.5 12.5-12.5 12.5 5.596 12.5 12.5z" fill="#fb5858"/><path d="m229.699 505.354c0 1.811-.233 3.568-.671 5.242-13.878-1.453-27.426-4.015-40.553-7.596 1.168-10.312 9.921-18.325 20.546-18.325 11.42.001 20.678 9.259 20.678 20.679zm52.602-54.646c0 11.42 9.258 20.678 20.678 20.678s20.678-9.258 20.678-20.678-9.258-20.678-20.678-20.678-20.678 9.258-20.678 20.678zm20.678 33.968c-11.42 0-20.678 9.258-20.678 20.678 0 1.811.233 3.568.671 5.242 13.878-1.453 27.426-4.015 40.553-7.596-1.169-10.312-9.922-18.324-20.546-18.324zm-93.958-54.646c-11.42 0-20.678 9.258-20.678 20.678s9.258 20.678 20.678 20.678 20.678-9.258 20.678-20.678-9.258-20.678-20.678-20.678zm101.545-50.738v-25.216c0-2.574-2.086-4.66-4.66-4.66h-99.922c-2.752 0-4.983 2.231-4.983 4.983v24.892c0 28.396 23.02 51.416 51.416 51.416h6.734c28.395.001 51.415-23.019 51.415-51.415z" fill="#f87b67"/><path d="m257.627 377.572h-3.687c-15.55 0-28.156-12.606-28.156-28.156h60c-.001 15.55-12.607 28.156-28.157 28.156zm-1.627 10.875c-4.192 0-7.59 7.259-7.59 16.213s3.398 16.213 7.59 16.213 7.59-7.259 7.59-16.213-3.398-16.213-7.59-16.213zm-19.615-6.597c-3.709-1.954-10.099 2.883-14.274 10.804s-4.553 15.927-.844 17.882c3.709 1.954 10.099-2.883 14.274-10.804 4.175-7.922 4.553-15.928.844-17.882zm40.074 17.881c4.175 7.921 10.565 12.758 14.274 10.804s3.331-9.96-.844-17.882-10.565-12.758-14.274-10.804-3.331 9.961.844 17.882z" fill="#faa598"/><path d="m315.783 349.416v83.099c0 31.107-25.308 56.416-56.416 56.416h-6.733c-31.108 0-56.416-25.309-56.416-56.416v-83.099h10v83.099c0 25.594 20.822 46.416 46.416 46.416h6.733c25.594 0 46.416-20.822 46.416-46.416v-83.099z" fill="#b03244"/><path d="m158.756 137.201h-22.424c-2.949 0-5.64-1.685-6.927-4.339l-28.623-59.003c-2.48-5.113 1.244-11.06 6.927-11.06h15.306c.169.819.443 1.638.833 2.442z" fill="#c83c50"/><path d="m272.696 99.085c0 15.981-7.475 28.936-16.696 28.936s-16.696-12.955-16.696-28.936 7.475-28.936 16.696-28.936 16.696 12.955 16.696 28.936zm67.012 0c0 5.17-2.418 9.362-5.402 9.362-2.983 0-5.402-4.191-5.402-9.362s2.418-9.362 5.402-9.362 5.402 4.192 5.402 9.362zm-156.613 0c0 5.17-2.418 9.362-5.402 9.362s-5.402-4.191-5.402-9.362 2.418-9.362 5.402-9.362 5.402 4.192 5.402 9.362zm40.692 0c0 9.016-4.217 16.325-9.419 16.325s-9.419-7.309-9.419-16.325 4.217-16.325 9.419-16.325 9.419 7.309 9.419 16.325zm73.845-16.324c-5.202 0-9.419 7.309-9.419 16.325s4.217 16.325 9.419 16.325 9.419-7.309 9.419-16.325-4.217-16.325-9.419-16.325z" fill="#f87b67"/><path d="m264.702 99.085c0 10.265-3.896 18.587-8.702 18.587s-8.702-8.322-8.702-18.587 3.896-18.587 8.702-18.587 8.702 8.322 8.702 18.587z" fill="#ffc14f"/><path d="m264.36 93.911c-1.049 7.748-4.395 13.413-8.36 13.413s-7.311-5.665-8.36-13.413c1.049-7.748 4.395-13.413 8.36-13.413s7.311 5.665 8.36 13.413z" fill="#ffcd71"/></g></svg>