<svg id="Capa_1" enable-background="new 0 0 512 512" height="512" viewBox="0 0 512 512" width="512" xmlns="http://www.w3.org/2000/svg"><g><path d="m110.322 313.773-34.775 11.527c-26.077 8.644-43.68 33.025-43.68 60.497v126.203h138.179z" fill="#f7ecd9"/><path d="m177.378 291.544-67.056 22.229c-1.013 16.224-.903 36.761 2.351 59.88 7.086 50.347 26.658 97.289 57.373 138.348h85.954z" fill="#edd7b0"/><path d="m401.678 313.773 34.775 11.528c26.077 8.644 43.68 33.025 43.68 60.497v126.202h-138.179z" fill="#edd7b0"/><path d="m334.622 291.544 67.056 22.229c1.013 16.224.903 36.761-2.351 59.88-7.086 50.347-26.658 97.289-57.373 138.348h-85.954z" fill="#e1bb78"/><path d="m334.622 291.544s10.237 40.96-2.431 94.614l-86.191-57.486 10-37.128z" fill="#ece6f2"/><path d="m177.378 291.544s-10.237 40.96 2.431 94.614l76.191-57.486v-37.128z" fill="#fff5f5"/><path d="m332.19 386.158c-9.176 38.866-30.369 84.392-76.19 125.842l-10-110.228 10-83.1z" fill="#cfcfe6"/><path d="m179.81 386.158c9.176 38.866 30.369 84.392 76.19 125.842v-193.328z" fill="#ece6f2"/><path d="m138.531 191.204h-31.867c-17.6 0-31.868-14.268-31.868-31.868 0-17.6 14.268-31.868 31.868-31.868h31.867z" fill="#895140"/><path d="m373.469 191.204h31.867c17.6 0 31.868-14.268 31.868-31.868 0-17.6-14.268-31.868-31.868-31.868h-31.867z" fill="#5b362a"/><path d="m246 60.601 10 258.071c70.399 0 127.469-57.07 127.469-127.469v-80.602z" fill="#895140"/><path d="m128.531 110.601v80.602c0 70.399 57.07 127.469 127.469 127.469v-258.071z" fill="#b56d3c"/><path d="m184.299 144.336h31.867v30h-31.867z" fill="#332866"/><path d="m295.834 144.336h31.867v30h-31.867z" fill="#180a33"/><path d="m335.668 0h-23.901l-10 52.493 10 35.972c11.528 13.531 28.674 22.136 47.801 22.136h23.901v-62.8c0-26.4-21.401-47.801-47.801-47.801z" fill="#332866"/><path d="m256 0-10 55.301 10 55.301h7.967c19.127 0 36.273-8.606 47.801-22.136v-88.466z" fill="#180a33"/><path d="m128.531 0h127.469v110.601h-127.469z" fill="#332866"/></g></svg>