<svg id="Capa_1" enable-background="new 0 0 512 512" height="512" viewBox="0 0 512 512" width="512" xmlns="http://www.w3.org/2000/svg"><g><g><circle cx="256" cy="267" fill="#7255ce" r="245"/></g><g><circle cx="256" cy="242" fill="#5c45bf" r="200"/></g><g><path d="m333.48 46.073s-.921-27.711-14.708-34.073-28.523-12-62.772-12-48.985 5.638-62.772 12-14.708 34.073-14.708 34.073c-17.176 18.715-27.663 43.666-27.663 71.07v30.076h210.286v-30.076c0-27.404-10.488-52.356-27.663-71.07z" fill="#ffdd40"/></g><g><path d="m225.46 79.602c-27.624-9.696-37.396-67.237-8.841-75.912-9.523 2.198-16.575 5.165-23.391 8.31-13.787 6.362-14.708 34.073-14.708 34.073-17.176 18.715-27.663 43.666-27.663 71.07v30.076h74.603z" fill="#ffc839"/></g><g><path d="m456.949 407.139c-8.256-22.709-16.99-42.685-24.722-51.911-.904-1.078-1.795-2.019-2.668-2.79-6.623-5.848-19.39-11.382-34.352-16.323h-278.413c-14.961 4.941-27.729 10.475-34.352 16.323-.874.772-1.765 1.712-2.668 2.79-7.732 9.226-16.467 29.203-24.722 51.911-.001.009-.001.018-.002.026 16.034 22.945 35.907 43.002 58.672 59.273l142.278 18.094 142.279-18.094c22.764-16.271 42.637-36.328 58.671-59.273 0-.008 0-.017-.001-.026z" fill="#dae2fe"/></g><g><path d="m116.794 336.115c-14.961 4.941-27.729 10.475-34.352 16.323-.874.772-1.765 1.712-2.668 2.79-7.732 9.226-16.467 29.203-24.722 51.911-.001.009-.001.018-.002.026 16.034 22.945 35.907 43.002 58.672 59.273l96.407 12.26c-33.276-34.13-56.546-84.611-63.27-142.584h-30.065z" fill="#bec8f7"/></g><g><path d="m395.206 336.115c-37.929-12.525-89.967-21.232-91.82-21.54h-94.772c-1.853.307-53.892 9.014-91.82 21.54.004.013 27.153 89.732-3.116 130.304v.01.01c30.809 22.025 66.937 37.081 106.081 42.887l36.241-15.688 36.241 15.687c39.144-5.806 75.272-20.862 106.081-42.887 0-.003 0-.006 0-.01 0-.003 0-.007 0-.01-30.269-40.572-3.119-130.291-3.116-130.303z" fill="#3c5082"/></g><g><path d="m237.609 501.599c-49.539-32.815-84.935-97.324-91.617-173.865-9.951 2.525-19.99 5.34-29.198 8.381.004.013 27.153 89.732-3.116 130.304v.01.01c30.809 22.025 66.937 37.081 106.081 42.887z" fill="#2d3c6b"/></g><g><path d="m91.07 426.843v21.327c7.157 6.519 14.704 12.617 22.599 18.262l-12.035-41.103c-1.75-5.98-10.564-4.716-10.564 1.514z" fill="#acbbef"/></g><g><path d="m420.93 426.843v21.327c-7.157 6.519-14.704 12.617-22.599 18.262l12.035-41.103c1.75-5.98 10.564-4.716 10.564 1.514z" fill="#bec8f7"/></g><g><path d="m303.386 314.575h-94.772s-4.38 97.106 47.386 163.319c51.766-66.213 47.386-163.319 47.386-163.319z" fill="#dae2fe"/></g><g><path d="m208.614 221.239v93.336s19.021 33.261 47.17 33.261c.073 0 .143-.005.216-.005 28.031-.103 47.386-33.256 47.386-33.256v-93.336z" fill="#fd995b"/></g><g><path d="m331.058 159.567s10.385-25.285 28.897-19.415-.448 60.664-36.573 64.116z" fill="#fcad6d"/></g><g><path d="m180.942 159.567s-10.385-25.285-28.897-19.415.448 60.664 36.573 64.116z" fill="#fd995b"/></g><g><path d="m327.049 124.754c-3.509-10.287-9.219-24.496-16.225-32.717-3.978-3.853-8.145-7.046-12.399-9.103-8.195-3.963-15.758-4.069-22.16-2.497-13.314 3.269-27.216 3.268-40.53 0-6.402-1.572-13.966-1.466-22.16 2.497-4.254 2.057-8.421 5.25-12.399 9.103-7.006 8.221-12.716 22.43-16.225 32.717-2.762 8.097-8.72 14.703-16.484 18.295-.031 1.23-.063 2.46-.063 3.705 0 64.505 39.219 140.155 87.597 140.155s87.597-75.651 87.597-140.155c0-1.245-.032-2.475-.063-3.705-7.766-3.592-13.724-10.198-16.486-18.295z" fill="#f9ba8f"/></g><g><path d="m208.403 146.754c0-25.925 6.339-48.917 17.057-67.152-3.755.312-7.739 1.327-11.885 3.333-4.254 2.057-8.421 5.25-12.399 9.103-7.006 8.221-12.716 22.43-16.225 32.717-2.762 8.097-8.72 14.703-16.484 18.295-.031 1.23-.063 2.46-.063 3.705 0 64.505 39.219 140.155 87.597 140.155 6.881 0 13.576-1.535 20-4.346-38.742-16.953-67.598-80.48-67.598-135.81z" fill="#fcad6d"/></g><g><path d="m365.422 224.802c-4.769-22.194-17.728-36.806-17.753-36.834 1.24-17.823.573-37.402-2.4-58.604h-9.758l-28.419 82.519s-18.9-30.522-51.092-30.522-51.092 30.522-51.092 30.522l-28.419-82.519h-9.758c-2.972 21.202-3.64 40.781-2.4 58.604-.023.026-12.984 14.638-17.753 36.834-1.552 7.222 5.511 13.293 12.402 10.632l7.02-2.711s-8.156 14.197-8.023 32.301c.059 8.091 9.835 12.151 15.682 6.558l3.256-3.114s1.277 5.921 4.509 12.95c3.322 7.224 13.628 7.147 16.877-.11s17.04 25.118 57.699 25.118 57.699-25.118 57.699-25.118c3.248 7.257 13.554 7.334 16.876.11 3.232-7.028 4.509-12.95 4.509-12.95l3.256 3.114c5.847 5.593 15.623 1.534 15.682-6.558.133-18.104-8.023-32.301-8.023-32.301l7.02 2.711c6.891 2.661 13.954-3.41 12.403-10.632z" fill="#ffdd40"/></g><g><path d="m216.092 198.712c-7.272 6.873-11.183 13.172-11.183 13.172l-28.419-82.519h-9.758c-2.972 21.202-3.64 40.781-2.4 58.604-.023.026-12.984 14.638-17.753 36.834-1.552 7.221 5.511 13.293 12.402 10.632l7.02-2.711s-8.156 14.197-8.023 32.301c.059 8.091 9.835 12.151 15.682 6.558l3.256-3.114s1.277 5.921 4.509 12.95c3.322 7.224 13.628 7.147 16.877-.11s17.04 25.118 57.699 25.118c-46.618-26.618-49.044-86.236-39.909-107.715z" fill="#ffc839"/></g><g><g><path d="m235.384 240.87h41.233c4.111-3.622 7.258-8.309 9.01-13.631 1.584-4.811-2.069-9.754-7.134-9.754h-44.985c-5.065 0-8.718 4.943-7.134 9.754 1.752 5.322 4.899 10.009 9.01 13.631z" fill="#162544"/></g><g><path d="m276.616 240.87c-5.493 4.849-12.714 7.798-20.616 7.798s-15.124-2.948-20.616-7.798c5.5-4.849 12.714-7.798 20.616-7.798s15.116 2.949 20.616 7.798z" fill="#ff4155"/></g></g><g><g><path d="m242.013 192.447 8.436-13.441c2.569-4.093 8.533-4.093 11.102 0l8.436 13.441c2.739 4.365-.398 10.038-5.551 10.038h-16.871c-5.154-.001-8.291-5.674-5.552-10.038z" fill="#fd995b"/></g></g><g><path d="m310.999 162.085c.043-3.495-1.371-7.004-4.242-9.539-4.675-4.128-11.84-4.128-16.515 0-2.871 2.535-4.284 6.044-4.242 9.539.055 4.538 5.629 6.716 8.838 3.507 2.022-2.022 5.3-2.022 7.322 0 3.21 3.21 8.784 1.032 8.839-3.507z" fill="#162544"/></g><g><path d="m201.001 162.085c-.043-3.495 1.371-7.004 4.242-9.539 4.675-4.128 11.84-4.128 16.515 0 2.871 2.535 4.284 6.044 4.242 9.539-.055 4.538-5.629 6.716-8.838 3.507-2.022-2.022-5.3-2.022-7.322 0-3.21 3.21-8.784 1.032-8.839-3.507z" fill="#162544"/></g><g><path d="m223.5 138.968h-20c-4.142 0-7.5-3.358-7.5-7.5 0-4.142 3.358-7.5 7.5-7.5h20c4.142 0 7.5 3.358 7.5 7.5 0 4.142-3.358 7.5-7.5 7.5z" fill="#ff9100"/></g><g><path d="m308.5 138.968h-20c-4.142 0-7.5-3.358-7.5-7.5 0-4.142 3.358-7.5 7.5-7.5h20c4.142 0 7.5 3.358 7.5 7.5 0 4.142-3.358 7.5-7.5 7.5z" fill="#ff9100"/></g><g><path d="m240.843 394.146-21.087 115.181c11.827 1.758 23.928 2.673 36.244 2.673s24.417-.915 36.243-2.673l-21.087-115.181z" fill="#4fabf7"/></g><g><path d="m261.409 394.146h-20.565l-21.087 115.181c6.64.987 13.37 1.698 20.173 2.141z" fill="#2e8be6"/></g><g><path d="m271.632 399.831h-31.265c-2.278 0-4.267-1.539-4.84-3.744l-12.527-48.256h66l-12.528 48.256c-.572 2.205-2.562 3.744-4.84 3.744z" fill="#73c3f9"/></g><g><path d="m255.528 396.088-12.528-48.257h-20l12.528 48.256c.572 2.204 2.562 3.744 4.84 3.744h20c-2.278 0-4.268-1.539-4.84-3.743z" fill="#4fabf7"/></g><g><path d="m303.386 299.609-47.386 48.222s18.328 33.146 30.188 33.146c7.034 0 17.106-22.384 24.137-40.597 5.342-13.84 2.694-29.488-6.939-40.771z" fill="#e9efff"/></g><g><path d="m208.614 299.609 47.386 48.222s-18.328 33.146-30.188 33.146c-7.034 0-17.106-22.384-24.137-40.597-5.342-13.84-2.694-29.488 6.939-40.771z" fill="#e9efff"/></g></g></svg>