<svg id="Capa_1" enable-background="new 0 0 512 512" height="512" viewBox="0 0 512 512" width="512" xmlns="http://www.w3.org/2000/svg"><g><path d="m0 256c0-141.385 114.615-256 256-256s256 114.615 256 256c0 80.844-37.474 152.936-96 199.852-2.218 1.778-102.523-45.701-160-45.701s-157.782 47.478-160 45.701c-58.526-46.916-96-119.008-96-199.852z" fill="#fb5858"/><path d="m451.34 256c0 107.883-87.457 195.34-195.34 195.34-107.884 0-195.34-87.457-195.34-195.34 0-107.884 87.457-195.34 195.34-195.34s195.34 87.456 195.34 195.34z" fill="#fc7979"/><path d="m181.491 359.172c-24.807 10.766-42.158 35.479-42.158 64.244v46.054c0 6.617-7.194 10.723-12.897 7.369-10.664-6.27-20.833-13.29-30.436-20.988v-32.436c0-38.66 31.34-70 70-70h3.416c0 .001 20.608 2.054 12.075 5.757z" fill="#2e5aac"/><path d="m416 423.416v32.436c-43.827 35.133-99.459 56.148-160 56.148-47.457 0-91.897-12.913-130-35.417v-53.167c0-32.489 22.133-59.808 52.144-67.702 5.7-1.499 15.018 5.924 21.19 5.924l124.816-.511 18.435-7.712h3.415c38.66.001 70 31.341 70 70.001z" fill="#4172cc"/><path d="m355.678 469.596v22.272c-4.923 2.083-9.925 4.017-15 5.795v-28.067c0-4.142 3.358-7.5 7.5-7.5s7.5 3.358 7.5 7.5zm-191.856-7.5c-4.142 0-7.5 3.358-7.5 7.5v22.272c4.923 2.083 9.925 4.017 15 5.795v-28.068c0-4.141-3.358-7.499-7.5-7.499z" fill="#2e5aac"/><path d="m382 181v8c0 58.698-41.796 107.633-97.25 118.67-55.454-11.037-97.25-59.972-97.25-118.67v-8c0-17.757 3.825-34.621 10.696-49.812 33.917-74.987 139.191-74.987 173.108 0 6.871 15.191 10.696 32.055 10.696 49.812z" fill="#784132"/><path d="m279.75 308.555c-6.111.951-12.373 1.445-18.75 1.445h-10c-66.826 0-121-54.174-121-121v-8c0-16.719 3.391-32.646 9.523-47.131 1.183-2.795 3.949-4.591 6.984-4.591h42.575c-7.428 15.682-11.582 33.217-11.582 51.722v8c0 60.449 44.327 110.544 102.25 119.555zm-2.58-247.483v.803c.857-.152 1.717-.296 2.58-.43-.857-.134-1.717-.258-2.58-.373z" fill="#61362b"/><path d="m146 263.416c-13.807 0-25-11.193-25-25v-10c0-13.807 11.193-25 25-25 13.807 0 25 11.193 25 25v10c0 13.807-11.193 25-25 25z" fill="#ffcdbe"/><path d="m136 223.416v20c0 8.178 3.927 15.439 9.998 20-13.806-.001-24.998-11.194-24.998-25v-10c0-13.806 11.192-24.999 24.998-25-6.071 4.561-9.998 11.822-9.998 20zm230-20v-20c0-60.751-49.249-110-110-110-60.751 0-110 49.249-110 110v40c0 50.351 33.83 92.801 80 105.859v34.141c0 16.569 13.431 30 30 30s30-13.431 30-30v-34.141c33.586-9.499 60.641-34.551 72.895-66.883 2.252.667 4.637 1.024 7.105 1.024 13.807 0 25-11.193 25-25v-10c0-13.807-11.193-25-25-25z" fill="#ffbeaa"/><path d="m366 183.416v40c0 50.792-34.425 93.543-81.216 106.195-9.023 2.44-18.545 2.44-27.568 0-46.791-12.652-81.216-55.403-81.216-106.195v-40c0-55.663 41.345-101.669 95-108.985 53.655 7.316 95 53.322 95 108.985z" fill="#ffcdbe"/><path d="m223.5 190.916c0 8.284-6.716 15-15 15s-15-6.716-15-15 6.716-15 15-15 15 6.716 15 15zm80-15c-8.284 0-15 6.716-15 15s6.716 15 15 15 15-6.716 15-15-6.716-15-15-15z" fill="#61362b"/><path d="m226 183.416c0 4.142-3.358 7.5-7.5 7.5s-7.5-3.358-7.5-7.5 3.358-7.5 7.5-7.5 7.5 3.358 7.5 7.5zm87.5-7.5c-4.142 0-7.5 3.358-7.5 7.5s3.358 7.5 7.5 7.5 7.5-3.358 7.5-7.5-3.358-7.5-7.5-7.5z" fill="#fff5f5"/><path d="m372.608 134.179c-13.115 15.777-32.889 25.821-55.008 25.821h-123.2c-5.561 0-10.973-.635-16.169-1.836-25.687-5.938-35.354-37.563-17.884-57.308 22.168-25.058 54.566-40.856 90.653-40.856h10c50.227 0 93.305 30.603 111.608 74.179z" fill="#784132"/><path d="m321.697 76.302c-7.044 1.647-13.829 3.97-20.28 6.898-9.495-4.31-19.711-7.31-30.417-8.77-45.33 6.181-81.872 39.976-92.122 83.88-15.741-3.484-29.531-12.156-39.486-24.131 18.303-43.576 61.381-74.179 111.608-74.179h10c22.121 0 42.855 5.936 60.697 16.302z" fill="#61362b"/><path d="m372 10c0 33.276-2.749 66.496-8.22 99.32l-.387 2.324c-.803 4.822-4.976 8.356-9.864 8.356h-178.657c-4.888 0-9.06-3.534-9.864-8.356l-.387-2.324c-5.471-32.823-8.22-66.043-8.22-99.32 0-5.523 4.477-10 10-10h195.599c5.523 0 10 4.477 10 10z" fill="#4172cc"/><path d="m226.629 47.17c0 4.142-3.358 7.5-7.5 7.5h-15c-4.142 0-7.5-3.358-7.5-7.5 0-4.142 3.358-7.5 7.5-7.5h15c4.143 0 7.5 3.358 7.5 7.5zm-37.5 24.681h-18.361c-1.343-13.698-2.332-27.43-2.968-41.181h12.2c4.142 0 7.5-3.358 7.5-7.5 0-4.142-3.358-7.5-7.5-7.5h-12.753c-.144-5.221-.237-10.445-.279-15.67h-16.968c-5.523 0-10 4.477-10 10 0 33.276 2.749 66.496 8.22 99.32l.387 2.324c.803 4.822 4.975 8.356 9.864 8.356h18.491c-1.758-11.02-3.285-22.072-4.582-33.149h16.748c4.142 0 7.5-3.358 7.5-7.5s-3.356-7.5-7.499-7.5zm71.871 0h-16.667c-4.142 0-7.5 3.358-7.5 7.5s3.358 7.5 7.5 7.5h16.667c4.142 0 7.5-3.358 7.5-7.5s-3.358-7.5-7.5-7.5zm54.391-24.681c0-4.142-3.358-7.5-7.5-7.5h-28.761c-4.142 0-7.5 3.358-7.5 7.5s3.358 7.5 7.5 7.5h28.761c4.142 0 7.5-3.358 7.5-7.5zm3.665 41.021h-7.33c-4.142 0-7.5 3.358-7.5 7.5s3.358 7.5 7.5 7.5h7.33c4.142 0 7.5-3.358 7.5-7.5s-3.358-7.5-7.5-7.5z" fill="#2e5aac"/><path d="m271 425v86.567c-4.963.287-9.965.433-15 .433s-10.037-.146-15-.433v-86.567l-71.584-71.584h36.152c29.01 24.903 71.854 24.903 100.863 0h36.152z" fill="#203e76"/><path d="m306.432 353.416-50.432 50.432-50.432-50.432h14.432v-3.416c0-5.523 4.477-10 10-10h52c5.523 0 10 4.477 10 10v3.416z" fill="#def4f8"/><path d="m231 434.681v31.667c0 4.142-3.358 7.5-7.5 7.5s-7.5-3.358-7.5-7.5v-31.667c0-4.142 3.358-7.5 7.5-7.5s7.5 3.358 7.5 7.5zm-31.667-15.278c-4.142 0-7.5 3.358-7.5 7.5v31.667c0 4.142 3.358 7.5 7.5 7.5s7.5-3.358 7.5-7.5v-31.667c0-4.142-3.358-7.5-7.5-7.5zm-48.333-15.555c-4.142 0-7.5 3.358-7.5 7.5v31.667c0 4.142 3.358 7.5 7.5 7.5s7.5-3.358 7.5-7.5v-31.667c0-4.142-3.358-7.5-7.5-7.5zm24.167 7.777c-4.142 0-7.5 3.358-7.5 7.5v31.667c0 4.142 3.358 7.5 7.5 7.5s7.5-3.358 7.5-7.5v-31.667c0-4.142-3.358-7.5-7.5-7.5zm161.666 0c-4.142 0-7.5 3.358-7.5 7.5v31.667c0 4.142 3.358 7.5 7.5 7.5s7.5-3.358 7.5-7.5v-31.667c0-4.142-3.357-7.5-7.5-7.5zm-48.333 15.556c-4.142 0-7.5 3.358-7.5 7.5v31.667c0 4.142 3.358 7.5 7.5 7.5s7.5-3.358 7.5-7.5v-31.667c0-4.142-3.358-7.5-7.5-7.5zm72.5-23.333c-4.142 0-7.5 3.358-7.5 7.5v31.667c0 4.142 3.358 7.5 7.5 7.5s7.5-3.358 7.5-7.5v-31.667c0-4.142-3.358-7.5-7.5-7.5zm-48.333 15.555c-4.142 0-7.5 3.358-7.5 7.5v31.667c0 4.142 3.358 7.5 7.5 7.5s7.5-3.358 7.5-7.5v-31.667c0-4.142-3.358-7.5-7.5-7.5z" fill="#a6e0ec"/><path d="m158.5 411.348v16.111c0 4.142-3.358 7.5-7.5 7.5s-7.5-3.358-7.5-7.5v-16.111c0-4.142 3.358-7.5 7.5-7.5s7.5 3.358 7.5 7.5zm40.833 8.055c-4.142 0-7.5 3.358-7.5 7.5v16.111c0 4.142 3.358 7.5 7.5 7.5s7.5-3.358 7.5-7.5v-16.111c0-4.142-3.358-7.5-7.5-7.5zm-24.166-7.778c-4.142 0-7.5 3.358-7.5 7.5v16.111c0 4.142 3.358 7.5 7.5 7.5s7.5-3.358 7.5-7.5v-16.111c0-4.142-3.358-7.5-7.5-7.5zm48.333 15.556c-4.142 0-7.5 3.358-7.5 7.5v16.111c0 4.142 3.358 7.5 7.5 7.5s7.5-3.358 7.5-7.5v-16.111c0-4.142-3.358-7.5-7.5-7.5zm113.333-15.556c-4.142 0-7.5 3.358-7.5 7.5v16.111c0 4.142 3.358 7.5 7.5 7.5s7.5-3.358 7.5-7.5v-16.111c0-4.142-3.357-7.5-7.5-7.5zm24.167-7.777c-4.142 0-7.5 3.358-7.5 7.5v16.111c0 4.142 3.358 7.5 7.5 7.5s7.5-3.358 7.5-7.5v-16.111c0-4.142-3.358-7.5-7.5-7.5zm-72.5 23.333c-4.142 0-7.5 3.358-7.5 7.5v16.111c0 4.142 3.358 7.5 7.5 7.5s7.5-3.358 7.5-7.5v-16.111c0-4.142-3.358-7.5-7.5-7.5zm24.167-7.778c-4.142 0-7.5 3.358-7.5 7.5v16.111c0 4.142 3.358 7.5 7.5 7.5s7.5-3.358 7.5-7.5v-16.111c0-4.142-3.358-7.5-7.5-7.5z" fill="#c2eaf2"/><path d="m311 251.441v35c0 24.853-20.147 45-45 45h-2.5c-24.853 0-45-20.147-45-45v-35c0-11.046 8.954-20 20-20h52.5c11.046 0 20 8.954 20 20z" fill="#784132"/><path d="m272.667 330.95c-2.175.323-4.401.491-6.667.491h-20c-24.853 0-45-20.147-45-45v-35c0-11.046 8.954-20 20-20h33.333c-11.046 0-20 8.954-20 20v35c0 22.588 16.642 41.287 38.334 44.509z" fill="#61362b"/><path d="m241.5 230.148c-2.929-2.93-2.929-7.678 0-10.607 2.929-2.928 7.678-2.928 10.606 0 1.042 1.042 2.424 1.616 3.893 1.616s2.851-.574 3.893-1.616c2.929-2.928 7.678-2.928 10.606 0 2.929 2.93 2.929 7.678 0 10.607-3.875 3.875-9.024 6.009-14.5 6.009s-10.623-2.134-14.498-6.009z" fill="#faa68e"/><path d="m256 293.416c-16.569 0-26.83-13.431-26.83-30 0-4.142.188-7.5 4.33-7.5h45c4.142 0 7.5 3.358 7.5 7.5 0 16.569-13.431 30-30 30z" fill="#fff5f5"/><path d="m263.5 292.471c-2.397.617-4.91.945-7.5.945-16.568 0-30-13.431-30-30 0-4.142 3.358-7.5 7.5-7.5h15c-4.142 0-7.5 3.358-7.5 7.5 0 13.979 9.561 25.725 22.5 29.055z" fill="#def4f8"/></g></svg>