<svg id="Capa_1" enable-background="new 0 0 512 512" height="512" viewBox="0 0 512 512" width="512" xmlns="http://www.w3.org/2000/svg"><g><path d="m436.453 357.167-101.83-33.756-78.623 188.589h224.133v-94.336c0-27.472-17.604-51.853-43.68-60.497z" fill="#ffb655"/><path d="m334.622 323.411-42.668 78.361-35.954 110.228 144.203-94.294z" fill="#ffda44"/><path d="m75.547 357.167 101.83-33.756 78.623 188.589h-224.133v-94.336c0-27.472 17.604-51.853 43.68-60.497z" fill="#ffda44"/><path d="m177.378 323.411 42.668 78.361 35.954 110.228-144.203-94.294z" fill="#fff79f"/><path d="m256 512 78.622-188.589h-88.622z" fill="#6680ff"/><path d="m177.378 323.411 78.622 188.589v-188.589z" fill="#80aaff"/><path d="m319.734 63.734c0-35.199-28.534-63.734-63.734-63.734l-10 79.652h71.731c1.308-5.088 2.003-10.421 2.003-15.918z" fill="#332866"/><path d="m192.266 63.734c0 5.496.696 10.83 2.004 15.918h61.73v-79.652c-35.2 0-63.734 28.535-63.734 63.734z" fill="#574d8c"/><path d="m256 63.734-10 121.533 136.479-10c-7.842-62.877-61.477-111.533-126.479-111.533z" fill="#180a33"/><path d="m256 63.734c-65.002 0-118.637 48.656-126.479 111.533l126.479 10z" fill="#332866"/><path d="m139.517 239.005h-32.853c-17.6 0-31.868-14.268-31.868-31.868 0-17.6 14.268-31.868 31.868-31.868h32.853z" fill="#895140"/><path d="m372.483 239.005h32.853c17.6 0 31.868-14.268 31.868-31.868 0-17.6-14.268-31.868-31.868-31.868h-32.853z" fill="#5b362a"/><path d="m382.479 175.268-70.711-33.494s-24.308 17.563-55.768 17.563l-10 47.801 10 143.402c70.399 0 127.469-57.07 127.469-127.469v-31.867c0-5.398-.339-10.716-.99-15.936z" fill="#895140"/><path d="m200.232 141.773-70.711 33.494c-.651 5.221-.99 10.539-.99 15.936v31.867c0 70.399 57.07 127.469 127.469 127.469v-191.203c-31.46 0-55.768-17.563-55.768-17.563z" fill="#b56d3c"/><path d="m184.299 192.137h31.867v30h-31.867z" fill="#332866"/><path d="m295.834 192.137h31.867v30h-31.867z" fill="#180a33"/></g></svg>