<svg id="Capa_1" enable-background="new 0 0 512 512" height="512" viewBox="0 0 512 512" width="512" xmlns="http://www.w3.org/2000/svg"><g><g><circle cx="256" cy="267" fill="#73c3f9" r="245"/></g><g><circle cx="256" cy="242" fill="#4fabf7" r="200"/></g><g><path d="m456.949 407.139c-8.256-22.709-16.99-42.685-24.722-51.911-.904-1.078-1.794-2.019-2.668-2.79-6.623-5.848-19.39-11.382-34.352-16.323-37.928-12.525-89.968-21.232-91.82-21.54h-94.772c-1.853.307-53.892 9.014-91.82 21.54-14.961 4.941-27.729 10.475-34.352 16.323-.874.772-1.765 1.712-2.668 2.79-7.732 9.226-16.467 29.203-24.722 51.911-.001.009-.001.018-.002.026 32.701 46.795 81.325 81.638 138.014 96.668l-.003-.009 62.939-26.781 62.942 26.781.001.008c56.687-15.03 105.309-49.872 138.009-96.666-.003-.009-.003-.018-.004-.027z" fill="#3c5082"/></g><g><path d="m215.165 494.418c-64.574-57.836-80.564-130.035-84.521-162.552-4.742 1.359-9.394 2.777-13.85 4.249-14.961 4.941-27.729 10.475-34.352 16.323-.874.772-1.765 1.712-2.668 2.79-7.732 9.226-16.467 29.203-24.722 51.911-.001.009-.001.018-.002.026 32.706 46.802 81.349 81.619 138.051 96.641z" fill="#2d3c6b"/></g><g><path d="m376.363 400.049c-12.574-62.943-53.75-134.554-120.363-134.554s-107.789 71.611-120.363 134.554c-2.232 11.171 4.616 22.15 15.628 25.069l1.946.516c6.666 1.767 12.085 6.615 14.579 13.045l25.27 65.146c8.718 2.311 17.627 4.155 26.697 5.503l36.242-32.284 36.245 32.284c9.07-1.348 17.978-3.192 26.697-5.503l25.27-65.146c2.494-6.43 7.913-11.278 14.579-13.045l1.946-.516c11.011-2.919 17.859-13.898 15.627-25.069z" fill="#4b6496"/></g><g><path d="m208.614 314.575c0 67.815 6.157 144.094 11.143 194.752l36.242-32.284 36.245 32.284c4.986-50.658 11.143-126.937 11.143-194.752z" fill="#dae2fe"/></g><g><path d="m240.843 394.146-21.087 115.181c11.827 1.758 23.928 2.673 36.244 2.673s24.417-.915 36.243-2.673l-21.087-115.181z" fill="#ff4155"/></g><g><path d="m261.409 394.146h-20.565l-21.087 115.181c6.64.987 13.37 1.698 20.173 2.141z" fill="#e80054"/></g><g><path d="m271.632 399.831h-31.265c-2.278 0-4.267-1.539-4.84-3.744l-12.527-48.256h66l-12.528 48.256c-.572 2.205-2.562 3.744-4.84 3.744z" fill="#ff596e"/></g><g><path d="m255.528 396.088-12.528-48.257h-20l12.528 48.256c.572 2.204 2.562 3.744 4.84 3.744h20c-2.278 0-4.268-1.539-4.84-3.743z" fill="#ff4155"/></g><g><path d="m208.614 221.239v93.336s19.021 33.261 47.17 33.261c.073 0 .143-.005.216-.005 28.031-.103 47.386-33.256 47.386-33.256v-93.336z" fill="#eabe8d"/></g><g><path d="m91.07 426.843v21.327c7.157 6.519 14.704 12.617 22.599 18.262l-12.035-41.103c-1.75-5.98-10.564-4.716-10.564 1.514z" fill="#213159"/></g><g><path d="m420.93 426.843v21.327c-7.157 6.519-14.704 12.617-22.599 18.262l12.035-41.103c1.75-5.98 10.564-4.716 10.564 1.514z" fill="#2d3c6b"/></g><g><path d="m303.386 299.609-47.386 48.222s18.328 33.146 30.188 33.146c7.034 0 17.106-22.384 24.137-40.597 5.342-13.84 2.694-29.488-6.939-40.771z" fill="#e9efff"/></g><g><path d="m208.614 299.609 47.386 48.222s-18.328 33.146-30.188 33.146c-7.034 0-17.106-22.384-24.137-40.597-5.342-13.84-2.694-29.488 6.939-40.771z" fill="#e9efff"/></g><g><path d="m349.599 52.323s17.557-8.302 17.557-20.047c0-11.744-39.092-32.276-110.022-32.276-34.249 0-48.985 5.638-62.772 12s-14.708 34.073-14.708 34.073c-17.176 18.715-27.663 43.666-27.663 71.07v30.076h210.286v-30.076c0-11.099-.819-25.078-3.88-39.082 4.266-4.658 8.759-10.242 8.759-13.103 0-5.447-17.557-12.635-17.557-12.635z" fill="#2d3c6b"/></g><g><path d="m279.623 95.694c-27.029-14.71-77.176-69.545-48.623-94.291-16.896 2.062-27.004 6.151-36.638 10.597-13.787 6.362-14.708 34.073-14.708 34.073-17.176 18.715-27.663 43.666-27.663 71.07v30.076h196.063z" fill="#213159"/></g><g><path d="m331.058 159.567s10.385-25.285 28.897-19.415-.448 60.664-36.573 64.116z" fill="#f3d6ac"/></g><g><path d="m180.942 159.567s-10.385-25.285-28.897-19.415.448 60.664 36.573 64.116z" fill="#eabe8d"/></g><g><path d="m279.623 95.694 12.283 14.501c2.38 2.809.013 7.078-3.631 6.548-55.268-8.042-74.702-33.809-74.702-33.809-15.713 7.454-23.178 25.856-28.624 41.82-2.762 8.097-8.72 14.703-16.484 18.295l-.015-.007c-.029 1.231-.049 2.467-.049 3.713 0 64.505 39.219 140.155 87.597 140.155s87.597-75.651 87.597-140.155c0-1.244-.02-2.479-.049-3.71-21.033-24.057-43.596-38.596-63.923-47.351z" fill="#f8e6cc"/></g><g><path d="m208.403 146.754c0-21.401 4.332-40.792 11.868-57.171-4.647-3.937-6.696-6.649-6.696-6.649-15.713 7.454-23.178 25.856-28.624 41.82-2.762 8.097-8.72 14.703-16.484 18.295l-.015-.007c-.029 1.231-.049 2.468-.049 3.713 0 64.505 39.219 140.155 87.597 140.155 6.881 0 13.576-1.535 20-4.346-38.741-16.953-67.597-80.48-67.597-135.81z" fill="#f3d6ac"/></g><g><path d="m345.269 134.364h-9.758c-25.532 55.279-28.419 82.519-28.419 82.519s-18.9-30.522-51.092-30.522-51.092 30.522-51.092 30.522-2.887-27.24-28.419-82.519h-9.758c-15.874 113.232 33.971 170.211 89.269 170.211s105.143-56.979 89.269-170.211z" fill="#2d3c6b"/></g><g><path d="m223.5 138.968h-20c-4.142 0-7.5-3.358-7.5-7.5 0-4.142 3.358-7.5 7.5-7.5h20c4.142 0 7.5 3.358 7.5 7.5 0 4.142-3.358 7.5-7.5 7.5z" fill="#162544"/></g><g><path d="m308.5 138.968h-20c-4.142 0-7.5-3.358-7.5-7.5 0-4.142 3.358-7.5 7.5-7.5h20c4.142 0 7.5 3.358 7.5 7.5 0 4.142-3.358 7.5-7.5 7.5z" fill="#162544"/></g><g><g><path d="m242.013 192.447 8.436-13.441c2.569-4.093 8.533-4.093 11.102 0l8.436 13.441c2.739 4.365-.398 10.038-5.551 10.038h-16.871c-5.154-.001-8.291-5.674-5.552-10.038z" fill="#eabe8d"/></g></g><g><g><path d="m235.384 240.87h41.233c4.111-3.622 7.258-8.309 9.01-13.631 1.584-4.811-2.069-9.754-7.134-9.754h-44.985c-5.065 0-8.718 4.943-7.134 9.754 1.752 5.322 4.899 10.009 9.01 13.631z" fill="#162544"/></g><g><path d="m276.616 240.87c-5.493 4.849-12.714 7.798-20.616 7.798s-15.124-2.948-20.616-7.798c5.5-4.849 12.714-7.798 20.616-7.798s15.116 2.949 20.616 7.798z" fill="#ff4155"/></g></g><g><path d="m311.557 158.721c-.863-3.387-3.137-6.41-6.566-8.116-5.584-2.778-12.505-.923-15.952 4.274-2.117 3.192-2.574 6.947-1.628 10.312 1.228 4.369 7.176 5.031 9.445 1.1 1.43-2.476 4.596-3.325 7.072-1.895 3.93 2.269 8.75-1.277 7.629-5.675z" fill="#162544"/></g><g><path d="m200.443 158.721c.863-3.387 3.137-6.41 6.566-8.116 5.584-2.778 12.505-.923 15.952 4.274 2.117 3.192 2.574 6.947 1.628 10.312-1.228 4.369-7.176 5.031-9.445 1.1-1.43-2.476-4.596-3.325-7.072-1.895-3.93 2.269-8.75-1.277-7.629-5.675z" fill="#162544"/></g><g><path d="m204.908 216.884s-2.887-27.24-28.419-82.519h-9.758c-15.874 113.231 33.971 170.21 89.269 170.21-49.255-13.659-60.532-70.596-51.092-87.691z" fill="#213159"/></g></g></svg>