<svg id="Capa_1" enable-background="new 0 0 512 512" height="512" viewBox="0 0 512 512" width="512" xmlns="http://www.w3.org/2000/svg"><g><path d="m480.133 385.797c0-27.472-17.604-51.853-43.68-60.497l-33.944-11.252-124.641 3.618 10 194.334h192.265z" fill="#ece6f2"/><path d="m109.491 314.048-33.944 11.252c-26.077 8.644-43.68 33.025-43.68 60.497v126.203h192.266l10-194.334z" fill="#fff5f5"/><path d="m256 512h31.868v-102.3l-41.868-10z" fill="#198080"/><path d="m224.133 409.7v102.3h31.867v-112.3z" fill="#24b3b3"/><path d="m246 369.7 10 40h31.868v-30z" fill="#24b3b3"/><path d="m256 369.7-31.867 10v30h31.867z" fill="#2ee6a8"/><path d="m287.868 317.666-41.868-8.994 10 71.028h31.868z" fill="#198080"/><path d="m256 308.672-31.867 8.994v62.034h31.867z" fill="#24b3b3"/><path d="m332.191 386.158 70.318-72.11-67.887-22.504h-88.622l10 27.128z" fill="#cfcfe6"/><path d="m179.809 386.158-70.318-72.11 67.887-22.504h78.622v27.128z" fill="#ece6f2"/><path d="m138.531 191.204h-31.867c-17.6 0-31.868-14.268-31.868-31.868 0-17.6 14.268-31.868 31.868-31.868h31.867z" fill="#e1bb78"/><path d="m373.469 191.204h31.867c17.6 0 31.868-14.268 31.868-31.868 0-17.6-14.268-31.868-31.868-31.868h-31.867z" fill="#c78f2c"/><path d="m303.111 8.993h-57.111l10 309.679c70.399 0 127.469-57.07 127.469-127.469v-63.735c0-53.757-33.28-99.738-80.358-118.475z" fill="#e1bb78"/><path d="m208.889 8.993c-47.079 18.737-80.358 64.718-80.358 118.475v63.735c0 70.399 57.07 127.469 127.469 127.469v-309.679z" fill="#edd7b0"/><path d="m256 48.734c23.651 0 43.278-17.182 47.111-39.741-14.574-5.8-30.469-8.993-47.111-8.993l-10 24.367z" fill="#5b362a"/><path d="m184.299 144.336h31.867v30h-31.867z" fill="#332866"/><path d="m295.834 144.336h31.867v30h-31.867z" fill="#180a33"/><path d="m287.867 254.004h15.934v-30h-15.934c-9.301 0-16.867-7.567-16.867-16.868h-15l-10 18.614 10 15.71c8.369 7.776 19.569 12.544 31.867 12.544z" fill="#5b362a"/><g fill="#895140"><path d="m241 207.137c0 9.301-7.566 16.868-16.867 16.868h-15.934v30h15.934c12.298 0 23.498-4.768 31.867-12.544v-34.324z"/><path d="m256 0c-16.642 0-32.536 3.193-47.111 8.993 3.833 22.56 23.459 39.741 47.111 39.741z"/></g></g></svg>