<svg id="Capa_1" enable-background="new 0 0 512 512" height="512" viewBox="0 0 512 512" width="512" xmlns="http://www.w3.org/2000/svg"><g><path d="m0 256c0-141.253 114.401-255.786 255.604-256 141.032-.213 256.295 114.781 256.396 255.813.058 80.977-37.483 153.189-96.125 200.138-6.222 4.981-14.893 5.381-21.597 1.07-39.879-25.645-87.341-40.521-138.278-40.521-51.137 0-98.773 14.994-138.75 40.825-6.417 4.147-14.722 3.732-20.696-1.031-58.843-46.904-96.554-119.195-96.554-200.294z" fill="#ffc14f"/><path d="m462 256c0 113.771-92.229 206-206 206s-206-92.229-206-206 92.229-206 206-206 206 92.229 206 206z" fill="#ffcd71"/><path d="m251.326 196h-119.326v-94.957c0-28.19 22.853-51.043 51.043-51.043h17.241c28.19 0 51.043 22.853 51.043 51.043v94.957z" fill="#61362b"/><path d="m380 196h-119.326v-94.957c0-28.19 22.853-51.043 51.043-51.043h17.241c28.189 0 51.042 22.853 51.042 51.043z" fill="#784132"/><path d="m188.489 313.934v2.638c-28.48 8.872-49.156 35.443-49.156 66.844v86.281c0 6.516-7.081 10.555-12.702 7.257-10.735-6.299-20.97-13.358-30.632-21.103v-34.854l1.511-2.253v-10.468l-1.51-2.278v-22.582c0-3.264.223-6.476.656-9.621.084-.612 2.306-1.896 2.405-2.502.672-4.086 1.698-8.052 3.045-11.867.207-.588-1.707-.496-1.484-1.076 7.014-18.281 21.474-32.873 39.668-40.061.647-.255 1.841.884 2.497.647 3.476-1.254 7.08-2.241 10.787-2.935.882-.165 1.228-1.699 2.122-1.831 3.363-.496 6.803-.753 10.304-.753h21.971c.286-.001.518.231.518.517z" fill="#c48958"/><path d="m416 383.416v22.582l-3.213 3.002v9.319l3.213 2.679v34.854c-43.827 35.133-99.459 56.148-160 56.148-47.457 0-91.897-12.913-130-35.417v-93.167c0-35.974 27.136-65.609 62.055-69.554 2.607-.295 6.471 3.436 9.157 3.436l5.661-3.882h106.252l3.066 1.754h9.319l2.613-1.754h21.877c3.5 0 6.941.257 10.303.753.747.11 1.502 2.131 2.241 2.265 3.815.689 7.522 1.688 11.094 2.969.7.251 1.382-1.387 2.071-1.114 18.194 7.188 32.655 21.78 39.669 40.061.473 1.232-1.573 2.672-1.169 3.936.881 2.757 1.595 5.587 2.131 8.481.197 1.065 2.855 1.948 3.004 3.029.433 3.144.656 6.356.656 9.62z" fill="#d6995c"/><path d="m171.322 436.149v61.514c-5.075-1.778-10.077-3.711-15-5.795v-55.72c0-4.142 3.358-7.5 7.5-7.5s7.5 3.359 7.5 7.501zm176.856-7.5c-4.142 0-7.5 3.358-7.5 7.5v61.514c5.075-1.778 10.077-3.711 15-5.795v-55.72c0-4.141-3.357-7.499-7.5-7.499zm-151.178-23.649c-4.142 0-7.5 3.358-7.5 7.5s3.358 7.5 7.5 7.5 7.5-3.358 7.5-7.5-3.358-7.5-7.5-7.5zm118 0c-4.142 0-7.5 3.358-7.5 7.5s3.358 7.5 7.5 7.5 7.5-3.358 7.5-7.5-3.358-7.5-7.5-7.5z" fill="#c48958"/><path d="m146 223.416c-13.807 0-25-11.193-25-25v-10c0-13.807 11.193-25 25-25 13.807 0 25 11.193 25 25v10c0 13.807-11.193 25-25 25z" fill="#e3a76f"/><path d="m136 183.416v20c0 8.178 3.927 15.439 9.998 20-13.806-.001-24.998-11.194-24.998-25v-10c0-13.806 11.192-24.999 24.998-25-6.071 4.561-9.998 11.822-9.998 20zm230-20v-20c0-60.751-49.249-110-110-110-60.751 0-110 49.249-110 110v40c0 50.351 33.83 92.801 80 105.859v30.725c0 16.569 13.431 30 30 30s30-13.431 30-30v-30.725c33.586-9.499 60.641-34.551 72.895-66.883 2.252.667 4.637 1.024 7.105 1.024 13.807 0 25-11.193 25-25v-10c0-13.807-11.193-25-25-25z" fill="#d6995c"/><path d="m366 143.416v40c0 50.792-34.425 93.543-81.216 106.195-9.023 2.44-18.545 2.44-27.568 0-46.791-12.652-81.216-55.403-81.216-106.195v-40c0-55.663 41.345-101.669 95-108.985 53.655 7.316 95 53.322 95 108.985z" fill="#e3a76f"/><path d="m241.5 190.148c-2.929-2.93-2.929-7.678 0-10.607 2.929-2.928 7.678-2.928 10.606 0 1.042 1.042 2.424 1.616 3.893 1.616s2.851-.574 3.893-1.616c2.929-2.928 7.678-2.928 10.606 0 2.929 2.93 2.929 7.678 0 10.607-3.875 3.875-9.024 6.009-14.5 6.009s-10.623-2.134-14.498-6.009z" fill="#d6995c"/><path d="m274.75 223.416v22.5c0 10.355-8.395 18.75-18.75 18.75-10.355 0-18.75-8.395-18.75-18.75v-22.5c0-10.355 8.395-18.75 18.75-18.75 10.355 0 18.75 8.395 18.75 18.75z" fill="#fff5f5"/><path d="m263.375 263.16c-2.264.969-4.757 1.506-7.375 1.506-10.355 0-18.75-8.395-18.75-18.75v-22.5c0-10.355 8.395-18.75 18.75-18.75 2.618 0 5.111.537 7.375 1.506-6.689 2.865-11.375 9.507-11.375 17.244v22.5c0 7.737 4.686 14.379 11.375 17.244z" fill="#def4f8"/><path d="m223.5 150.916c0 8.284-6.716 15-15 15s-15-6.716-15-15 6.716-15 15-15 15 6.716 15 15zm80-15c-8.284 0-15 6.716-15 15s6.716 15 15 15 15-6.716 15-15-6.716-15-15-15z" fill="#61362b"/><path d="m226 143.416c0 4.142-3.358 7.5-7.5 7.5s-7.5-3.358-7.5-7.5 3.358-7.5 7.5-7.5 7.5 3.358 7.5 7.5zm87.5-7.5c-4.142 0-7.5 3.358-7.5 7.5s3.358 7.5 7.5 7.5 7.5-3.358 7.5-7.5-3.358-7.5-7.5-7.5z" fill="#fff5f5"/><path d="m298.25 314.5-30 40c-1.474 1.965-3.726 3-6.006 3-1.566 0-3.145-.488-4.494-1.5-.704-.528-1.289-1.157-1.75-1.851-.461.694-1.045 1.323-1.75 1.851-1.349 1.012-2.928 1.5-4.494 1.5-2.28 0-4.532-1.035-6.006-3l-30-40c-2.485-3.313-1.813-8.015 1.5-10.5 3.314-2.484 8.014-1.813 10.5 1.5l30 40c.087.116.17.235.25.354.08-.12.163-.238.25-.354l30-40c2.486-3.313 7.186-3.984 10.5-1.5 3.313 2.485 3.985 7.187 1.5 10.5z" fill="#ae583e"/><path d="m252.002 70h-102.085v-18.957c0-28.19 22.852-51.043 51.042-51.043 28.19 0 51.043 22.853 51.043 51.043z" fill="#61362b"/><path d="m362.083 51.042v18.958h-158.126v-18.958c0-28.189 22.853-51.042 51.043-51.042 10.348 0 19.977 3.08 28.021 8.372 8.043-5.292 17.672-8.372 28.02-8.372 28.19 0 51.042 22.853 51.042 51.042z" fill="#784132"/><path d="m386.315 79.3-10.125 10.125c-9.781 9.781-25.516 11.016-40.343 4.618-6.397-14.826-5.163-30.562 4.619-40.343l10.125-10.125c9.781-9.781 25.516-11.016 40.343-4.618 6.397 14.826 5.162 30.562-4.619 40.343zm-113.4-35.725-10.125 10.125c-9.781 9.781-11.016 25.516-4.618 40.343 14.826 6.397 30.562 5.163 40.343-4.618l10.125-10.125c9.781-9.781 11.016-25.516 4.618-40.343-14.827-6.397-30.562-5.163-40.343 4.618zm-86.912 0-10.125 10.125c-9.781 9.781-11.016 25.516-4.618 40.343 14.827 6.397 30.562 5.163 40.343-4.618l10.124-10.125c9.781-9.781 11.016-25.516 4.618-40.343-14.826-6.397-30.561-5.163-40.342 4.618z" fill="#20b7a1"/><path d="m171.534 53.7c9.781 9.781 11.016 25.516 4.619 40.343-14.827 6.397-30.562 5.163-40.343-4.618l-10.125-10.125c-9.781-9.781-11.016-25.516-4.618-40.343 14.826-6.397 30.562-5.163 40.343 4.618zm171.825 0-10.125-10.125c-9.781-9.781-25.516-11.016-40.343-4.618-6.397 14.826-5.163 30.562 4.619 40.343l10.125 10.125c9.781 9.781 25.516 11.016 40.343 4.618 6.397-14.826 5.162-30.562-4.619-40.343zm-96.037-10.125c-9.781-9.781-25.516-11.016-40.343-4.618-6.397 14.826-5.163 30.562 4.618 40.343l10.125 10.125c9.781 9.781 25.516 11.016 40.343 4.618 6.397-14.826 5.163-30.562-4.618-40.343z" fill="#24d3b5"/><path d="m171.534 53.7c8.617 8.617 10.601 21.854 6.577 35.021-10.502 1.353-20.46-1.281-27.411-8.233l-10.125-10.125c-8.617-8.617-10.6-21.854-6.577-35.021 10.502-1.353 20.46 1.282 27.411 8.232zm171.825 0-10.125-10.125c-6.951-6.951-16.909-9.585-27.411-8.232-4.024 13.167-2.04 26.404 6.577 35.021l10.125 10.125c6.951 6.951 16.909 9.586 27.411 8.233 4.023-13.167 2.04-26.405-6.577-35.022zm-96.037-10.125c-6.951-6.951-16.909-9.585-27.411-8.232-4.024 13.167-2.04 26.404 6.577 35.021l10.125 10.125c6.951 6.951 16.909 9.586 27.411 8.233 4.024-13.166 2.04-26.404-6.577-35.021z" fill="#93e2c6"/><path d="m383.194 99.151h-254.388c-4.142 0-7.5-3.358-7.5-7.5 0-4.142 3.358-7.5 7.5-7.5h254.388c4.142 0 7.5 3.358 7.5 7.5 0 4.142-3.358 7.5-7.5 7.5z" fill="#93e2c6"/><path d="m383.194 99.151h-201.792c-4.142 0-7.5-3.358-7.5-7.5 0-4.142 3.358-7.5 7.5-7.5h201.792c4.142 0 7.5 3.358 7.5 7.5 0 4.142-3.358 7.5-7.5 7.5z" fill="#adebdc"/><path d="m294.25 383.75c0 10.217-3.979 19.822-11.204 27.047-1.464 1.464-3.384 2.196-5.303 2.196-1.92 0-3.839-.732-5.304-2.197-2.929-2.929-2.929-7.678.001-10.606 4.391-4.391 6.81-10.229 6.81-16.439s-2.419-12.049-6.81-16.439c-4.392-4.392-10.23-6.811-16.44-6.811s-12.049 2.419-16.44 6.811c-4.391 4.391-6.81 10.229-6.81 16.439s2.418 12.049 6.81 16.439c2.929 2.929 2.929 7.678 0 10.606-2.929 2.93-7.678 2.929-10.606.001-7.224-7.225-11.203-16.83-11.203-27.047s3.979-19.822 11.203-27.047c7.225-7.225 16.83-11.203 27.047-11.203s19.822 3.979 27.047 11.204c7.223 7.224 11.202 16.829 11.202 27.046z" fill="#fffac1"/><path d="m299.54 173.029c28.005 0 50.789 22.784 50.789 50.789 0 4.143-3.357 7.5-7.5 7.5s-7.5-3.357-7.5-7.5c0-19.734-16.055-35.789-35.789-35.789-4.143 0-7.5-3.357-7.5-7.5s3.357-7.5 7.5-7.5zm-12.869 34.582c0 4.143 3.357 7.5 7.5 7.5 6.107 0 11.076 4.969 11.076 11.076 0 4.143 3.357 7.5 7.5 7.5s7.5-3.357 7.5-7.5c0-14.379-11.697-26.076-26.076-26.076-4.143 0-7.5 3.358-7.5 7.5zm-117.5 23.707c4.142 0 7.5-3.357 7.5-7.5 0-19.734 16.055-35.789 35.789-35.789 4.142 0 7.5-3.357 7.5-7.5s-3.358-7.5-7.5-7.5c-28.005 0-50.789 22.784-50.789 50.789 0 4.143 3.358 7.5 7.5 7.5zm86.329-100.318c4.143 0 7.5-3.357 7.5-7.5v-10c0-4.143-3.357-7.5-7.5-7.5-4.142 0-7.5 3.357-7.5 7.5v10c0 4.143 3.358 7.5 7.5 7.5zm-87.408 204.401c.041.001.082.001.124.001 4.085 0 7.43-3.278 7.497-7.379.006-.372.009-.747.009-1.121 0-4.143-3.358-7.5-7.5-7.5s-7.5 3.357-7.5 7.5c0 .294-.002.587-.007.879-.068 4.142 3.236 7.553 7.377 7.62zm-7.767 22.09c.974.423 1.987.623 2.985.623 2.896 0 5.655-1.688 6.882-4.513.318-.73.623-1.469.915-2.212 1.515-3.855-.382-8.209-4.238-9.724-3.856-1.512-8.209.383-9.723 4.237-.227.579-.464 1.151-.711 1.72-1.65 3.8.091 8.218 3.89 9.869zm31.428-131.303c0 4.143 3.358 7.5 7.5 7.5s7.5-3.357 7.5-7.5c0-6.107 4.969-11.076 11.076-11.076 4.142 0 7.5-3.357 7.5-7.5s-3.358-7.5-7.5-7.5c-14.378-.001-26.076 11.697-26.076 26.076zm190.743 148.371c-3.798-1.655-8.217.08-9.872 3.878-1.655 3.797.081 8.217 3.878 9.872.729.318 1.465.623 2.207.915.903.355 1.833.524 2.748.524 2.99 0 5.816-1.801 6.979-4.752 1.519-3.854-.374-8.209-4.228-9.728-.575-.227-1.146-.463-1.712-.709zm32.848-.764c-.738-5.367-2.084-10.539-3.966-15.446-20.544-3.072-36.796-19.454-39.669-40.061-4.89-1.932-10.049-3.329-15.406-4.119 1.237 32.129 26.992 58.079 59.041 59.626zm-70.214-32.129c-3.854 1.515-5.752 5.868-4.237 9.724.291.74.596 1.476.911 2.203 1.226 2.83 3.986 4.521 6.886 4.521.994 0 2.006-.199 2.977-.62 3.801-1.646 5.548-6.062 3.901-9.862-.247-.571-.485-1.146-.714-1.729-1.515-3.854-5.864-5.75-9.724-4.237zm-1.352-22.264c-4.143 0-7.5 3.357-7.5 7.5 0 .378.003.757.01 1.133.072 4.096 3.416 7.367 7.496 7.367.045 0 .09 0 .136-.001 4.141-.073 7.439-3.49 7.366-7.632-.005-.288-.008-.577-.008-.867 0-4.142-3.357-7.5-7.5-7.5zm22.047 43.573c-2.877-2.98-7.626-3.064-10.604-.187-2.98 2.877-3.063 7.625-.187 10.604.553.573 1.116 1.137 1.689 1.689 1.455 1.405 3.333 2.104 5.208 2.104 1.964 0 3.925-.767 5.396-2.291 2.877-2.979 2.794-7.728-.187-10.604-.445-.431-.883-.869-1.315-1.315zm36.53 15.864c-.046-.001-.091-.001-.136-.001-4.08 0-7.424 3.271-7.496 7.367-.073 4.142 3.226 7.559 7.366 7.632.376.007.755.01 1.133.01 4.143 0 7.5-3.357 7.5-7.5s-3.357-7.5-7.5-7.5c-.289 0-.578-.003-.867-.008zm-94.855-258.329c4.143 0 7.5-3.357 7.5-7.5s-3.357-7.5-7.5-7.5c-26.191 0-47.5 21.309-47.5 47.5 0 4.143 3.357 7.5 7.5 7.5s7.5-3.357 7.5-7.5c0-17.921 14.579-32.5 32.5-32.5zm-51.5 292.49c-4.142 0-7.5 3.357-7.5 7.5v75c0 4.143 3.358 7.5 7.5 7.5 4.143 0 7.5-3.357 7.5-7.5v-75c0-4.143-3.357-7.5-7.5-7.5zm-4-259.99c0-26.191-21.309-47.5-47.5-47.5-4.142 0-7.5 3.357-7.5 7.5s3.358 7.5 7.5 7.5c17.92 0 32.5 14.579 32.5 32.5 0 4.143 3.358 7.5 7.5 7.5s7.5-3.358 7.5-7.5zm62.5 311.99h-31c-4.143 0-7.5 3.357-7.5 7.5s3.357 7.5 7.5 7.5h31c4.143 0 7.5-3.357 7.5-7.5s-3.357-7.5-7.5-7.5zm9.625-151.5c0-.028-.001-.056-.001-.084h-14.998c0 .028-.001.056-.001.084 0 59.067 47.886 107.161 106.875 107.498v-15c-50.719-.337-91.875-41.702-91.875-92.498zm-167.348 49.285c-2.98-2.874-7.729-2.789-10.604.191-.431.447-.87.886-1.316 1.317-2.979 2.878-3.06 7.626-.181 10.604 1.472 1.522 3.431 2.288 5.394 2.288 1.876 0 3.755-.7 5.211-2.107.572-.553 1.136-1.116 1.688-1.688 2.875-2.981 2.789-7.729-.192-10.605zm157.723 75.215h-31c-4.143 0-7.5 3.357-7.5 7.5s3.357 7.5 7.5 7.5h31c4.143 0 7.5-3.357 7.5-7.5s-3.357-7.5-7.5-7.5zm-185.442-75.254c12.036-8.388 20.977-20.924 24.733-35.519.351-1.362-1.089-2.498-2.34-1.856l-13.323 9.266c-3.668 6.959-12.202 14.469-18.702 18.83l.117 4.474c.126 4.818 5.561 7.56 9.515 4.805zm99.442 75.254h-31c-4.142 0-7.5 3.357-7.5 7.5s3.358 7.5 7.5 7.5h31c4.142 0 7.5-3.357 7.5-7.5s-3.358-7.5-7.5-7.5zm-98.996-63.441c-.565.246-1.136.482-1.712.709-.502.198-.971.444-1.404.73-2.886 1.914-1.446 11.416-.388 12.219 1.297.984 2.895 1.531 4.542 1.531.914 0 1.844-.168 2.746-.523.743-.293 1.48-.598 2.21-.916 3.797-1.655 5.533-6.075 3.878-9.872s-6.072-5.534-9.872-3.878zm98.996 90.441h-31c-4.142 0-7.5 3.357-7.5 7.5s3.358 7.5 7.5 7.5h31c4.142 0 7.5-3.357 7.5-7.5s-3.358-7.5-7.5-7.5zm-25.626-151.584h-14.998s-.001 0-.001.001c.036 41.383-27.243 76.519-64.766 88.336-1.967.619-3.301 2.445-3.301 4.507v5.777c0 3.172 3.057 5.45 6.098 4.548 44.478-13.197 77.006-54.458 76.968-103.169z" fill="#4172cc"/><path d="m155.696 314.169c-.179 4.642-.869 9.155-2.017 13.484-11.491 8.735-20.2 20.939-24.565 35.053-9.291 6.49-20.432 10.508-32.458 11.088.738-5.367 2.084-10.539 3.966-15.446 20.544-3.072 36.795-19.454 39.668-40.061 4.89-1.931 10.049-3.328 15.406-4.118zm-32.134 70.825c.522 1.326 1.38 2.42 2.438 3.223v-4.801c0-2.505.132-4.98.389-7.417-2.886 1.913-4.147 5.643-2.827 8.995zm-13.652 8.843c4.141-.073 7.439-3.489 7.367-7.631-.073-4.142-3.449-7.453-7.631-7.367-.289.005-.578.008-.868.008-4.142 0-7.5 3.357-7.5 7.5s3.358 7.5 7.5 7.5c.377 0 .755-.003 1.132-.01zm-13.91 27.161c10.414-.06 20.481-1.608 30-4.441v-15.767c-9.403 3.309-19.496 5.138-30 5.208z" fill="#2e5aac"/></g></svg>