<svg height="511pt" viewBox="0 0 511 511.99955" width="511pt" xmlns="http://www.w3.org/2000/svg"><path d="m512.359375 256.070312c0 141.34375-114.585937 255.929688-255.929687 255.929688-141.347657 0-255.929688-114.585938-255.929688-255.929688 0-141.347656 114.582031-255.929687 255.929688-255.929687 141.34375 0 255.929687 114.582031 255.929687 255.929687zm0 0" fill="#f1eee9"/><path d="m398.800781 468.769531c-12.335937 8.28125-25.433593 15.519531-39.167969 21.566407-10.648437 4.699218-21.675781 8.695312-33.023437 11.917968-22.292969 6.347656-45.835937 9.746094-70.179687 9.746094-24.332032 0-47.878907-3.398438-70.179688-9.738281-7.238281-2.058594-14.359375-4.4375-21.324219-7.117188-.429687-.160156-.859375-.320312-1.289062-.488281-3.511719-1.363281-6.980469-2.8125-10.410157-4.320312-13.734374-6.058594-26.832031-13.285157-39.179687-21.574219 10.390625-14.367188 23.753906-26.421875 39.179687-35.308594 10.199219-5.871094 21.296876-10.339844 33.023438-13.148437 1.808594-.441407 3.636719-.839844 5.476562-1.191407 3.46875-.679687 7-1.199219 10.566407-1.566406 1.03125-.109375 2.050781-.210937 3.089843-.292969 3.378907-.277344 6.796876-.417968 10.257813-.417968h81.566406c4.519531 0 8.96875.238281 13.347657.699218 3.570312.371094 7.085937.898438 10.566406 1.558594 1.390625.269531 2.769531.5625 4.140625.871094.449219.121094.910156.210937 1.347656.328125 11.738281 2.820312 22.824219 7.289062 33.023437 13.160156 15.421876 8.894531 28.78125 20.953125 39.167969 35.316406zm0 0" fill="#f93d6e"/><path d="m215.640625 416.835938c-29.351563 0-49.246094 42.417968-50.714844 78.308593-.429687-.160156-.859375-.320312-1.289062-.488281-3.511719-1.363281-6.980469-2.8125-10.410157-4.320312-13.734374-6.058594-26.832031-13.285157-39.179687-21.574219 10.390625-14.367188 23.753906-26.421875 39.179687-35.308594 10.199219-5.871094 21.296876-10.339844 33.023438-13.148437 1.808594-.441407 3.636719-.839844 5.476562-1.191407 3.46875-.679687 7-1.199219 10.566407-1.566406 1.03125-.109375 2.050781-.210937 3.089843-.292969 3.378907-.277344 6.796876-.417968 10.257813-.417968zm0 0" fill="#e41753"/><path d="m256.417969 468.121094-52.980469 29.445312-16.117188-79.964844 32.921876-14.390624" fill="#40b4d3"/><path d="m256.417969 468.121094 52.976562 29.445312 16.117188-79.964844-32.917969-14.390624" fill="#40b4d3"/><path d="m301.121094 368.574219v54.855469c0 20.082031-13.238282 37.058593-31.476563 42.695312-4.175781 1.296875-8.625 1.996094-13.226562 1.996094-24.6875 0-44.691407-20.003906-44.691407-44.6875v-54.855469h89.394532zm0 0" fill="#efb29a"/><path d="m301.121094 419.957031v3.472657c0 20.082031-13.238282 37.058593-31.476563 42.695312-16.457031-5.058594-28.832031-19.367188-31.117187-36.871094 2.988281.179688 5.988281.273438 9.007812.273438 8.457032 0 16.742188-.671875 24.820313-1.996094 9.949219-1.601562 19.5625-4.160156 28.765625-7.574219zm0 0" fill="#f9c5ac"/><path d="m133.003906 278.21875c0 20.488281-14.96875 37.480469-34.570312 40.632812-2.140625.347657-4.34375.527344-6.59375.527344-22.738282 0-41.164063-18.421875-41.164063-41.164062 0-22.738282 18.425781-41.164063 41.164063-41.164063 2.25 0 4.453125.183594 6.59375.53125 19.601562 3.152344 34.570312 20.144531 34.570312 40.636719zm0 0" fill="#f9c5ac"/><path d="m133.003906 278.21875c0 20.488281-14.96875 37.480469-34.570312 40.632812-3.5625-12.945312-5.460938-26.570312-5.460938-40.632812 0-14.066406 1.898438-27.691406 5.460938-40.636719 19.601562 3.152344 34.570312 20.144531 34.570312 40.636719zm0 0" fill="#efb29a"/><path d="m106.550781 278.21875c0 8.125-6.585937 14.710938-14.710937 14.710938s-14.710938-6.585938-14.710938-14.710938c0-8.128906 6.585938-14.714844 14.710938-14.714844s14.710937 6.585938 14.710937 14.714844zm0 0" fill="#efb29a"/><path d="m379.84375 278.21875c0 20.488281 14.96875 37.480469 34.570312 40.632812 2.144532.347657 4.347657.527344 6.59375.527344 22.742188 0 41.164063-18.421875 41.164063-41.164062 0-22.738282-18.421875-41.164063-41.164063-41.164063-2.246093 0-4.449218.183594-6.59375.53125-19.601562 3.152344-34.570312 20.144531-34.570312 40.636719zm0 0" fill="#f9c5ac"/><path d="m379.84375 278.21875c0 20.488281 14.96875 37.480469 34.570312 40.632812 3.5625-12.945312 5.464844-26.570312 5.464844-40.632812 0-14.066406-1.902344-27.691406-5.464844-40.636719-19.601562 3.152344-34.570312 20.144531-34.570312 40.636719zm0 0" fill="#efb29a"/><path d="m435.71875 278.21875c0 8.125-6.585938 14.710938-14.710938 14.710938s-14.710937-6.585938-14.710937-14.710938c0-8.128906 6.585937-14.714844 14.710937-14.714844s14.710938 6.585938 14.710938 14.714844zm0 0" fill="#efb29a"/><path d="m411.082031 256.582031c0 76.960938-56.226562 140.808594-129.835937 152.660157-8.078125 1.328124-16.363282 2-24.824219 2-85.417969 0-154.65625-69.242188-154.65625-154.660157v-157.457031h309.316406zm0 0" fill="#f9c5ac"/><path d="m283.664062 408.839844c-.796874.136718-1.609374.277344-2.417968.40625-8.078125 1.320312-16.363282 1.992187-24.824219 1.992187-85.414063 0-154.65625-69.230469-154.65625-154.660156v-157.453125h54.535156v157.453125c0 76.121094 54.964844 139.375 127.363281 152.261719zm0 0" fill="#efb29a"/><path d="m256.425781 337.976562c-12.953125 0-25.902343-3.246093-37.707031-9.734374-3.332031-1.828126-4.546875-6.011719-2.714844-9.34375 1.832032-3.328126 6.015625-4.542969 9.34375-2.714844 19.460938 10.699218 42.695313 10.699218 62.152344 0 3.328125-1.828125 7.511719-.613282 9.34375 2.714844 1.832031 3.332031.617188 7.515624-2.714844 9.34375-11.804687 6.488281-24.753906 9.734374-37.703125 9.734374zm0 0" fill="#dd9f8a"/><path d="m273.96875 291.753906h-35.089844c-4.179687 0-7.566406-3.390625-7.566406-7.570312 0-4.179688 3.386719-7.566406 7.566406-7.566406h35.089844c4.179688 0 7.566406 3.386718 7.566406 7.566406 0 4.179687-3.386718 7.570312-7.566406 7.570312zm0 0" fill="#efb29a"/><path d="m281.761719 249.230469c0 17.160156 13.910156 31.074219 31.070312 31.074219 17.160157 0 31.074219-13.914063 31.074219-31.074219" fill="#efb29a"/><path d="m335.113281 249.230469c0 12.308593-9.972656 22.28125-22.28125 22.28125-12.304687 0-22.277343-9.972657-22.277343-22.28125 0-12.304688 9.972656-22.28125 22.277343-22.28125 12.308594 0 22.28125 9.976562 22.28125 22.28125zm0 0" fill="#2f373b"/><path d="m331.667969 245.300781c0 5.273438-4.277344 9.546875-9.546875 9.546875-5.273438 0-9.550782-4.273437-9.550782-9.546875 0-5.273437 4.277344-9.546875 9.550782-9.546875 5.269531 0 9.546875 4.273438 9.546875 9.546875zm0 0" fill="#fff"/><path d="m168.945312 249.230469c0 17.160156 13.910157 31.074219 31.070313 31.074219s31.070313-13.914063 31.070313-31.074219" fill="#efb29a"/><path d="m222.296875 249.230469c0 12.308593-9.976563 22.28125-22.28125 22.28125s-22.28125-9.972657-22.28125-22.28125c0-12.304688 9.976563-22.28125 22.28125-22.28125s22.28125 9.976562 22.28125 22.28125zm0 0" fill="#2f373b"/><path d="m205.226562 270.894531c-1.671874.410157-3.421874.621094-5.210937.621094-12.304687 0-22.28125-9.976563-22.28125-22.285156 0-12.304688 9.976563-22.28125 22.28125-22.28125 1.789063 0 3.539063.207031 5.210937.617187-9.796874 2.339844-17.066406 11.160156-17.066406 21.664063 0 10.507812 7.269532 19.324219 17.066406 21.664062zm0 0" fill="#181e21"/><path d="m318.046875 270.894531c-1.671875.410157-3.421875.621094-5.210937.621094-12.304688 0-22.28125-9.976563-22.28125-22.285156 0-12.304688 9.976562-22.28125 22.28125-22.28125 1.789062 0 3.539062.207031 5.210937.617187-9.800781 2.339844-17.066406 11.160156-17.066406 21.664063 0 10.507812 7.265625 19.324219 17.066406 21.664062zm0 0" fill="#181e21"/><path d="m218.847656 245.300781c0 5.273438-4.273437 9.546875-9.546875 9.546875-5.273437 0-9.546875-4.273437-9.546875-9.546875 0-5.273437 4.273438-9.546875 9.546875-9.546875 5.273438 0 9.546875 4.273438 9.546875 9.546875zm0 0" fill="#fff"/><path d="m426.082031 245.554688c-4.167969 46.207031-61.703125 44.875-61.703125 44.875 33.910156-16.953126 46.707032-144.609376 10.96875-162.5625-35.730468-17.957032-78.789062 16.953124-118.929687 16.953124-23.042969 0-47.054688-11.507812-70.089844-17.914062-17.074219-4.75-33.621094-6.6875-48.824219.960938-35.742187 17.953124-22.945312 145.609374 10.964844 162.5625 0 0-57.535156 1.332031-61.703125-44.875-4.160156-46.210938-56.652344-153.929688 16.15625-202.125 72.710937-48.148438 153.289063-43.300782 153.496094-43.289063.222656-.011719 80.800781-4.859375 153.507812 43.289063 72.8125 48.195312 20.316407 155.914062 16.15625 202.125zm0 0" fill="#2f373b"/><path d="m186.328125 126.90625c-17.074219-4.75-33.621094-6.6875-48.824219.960938-35.742187 17.953124-22.945312 145.609374 10.964844 162.5625 0 0-57.535156 1.332031-61.703125-44.875-4.160156-46.210938-56.652344-153.929688 16.15625-202.125 72.710937-48.148438 153.289063-43.300782 153.496094-43.289063-54.773438 0-114.898438 66.402344-70.089844 126.765625zm0 0" fill="#181e21"/><g fill="#f9c5ac"><path d="m318.351562 137.507812 7.3125-39.894531 7.980469 42.554688"/><path d="m333.644531 135.511719 7.3125-39.894531 7.980469 42.554687"/><path d="m190.023438 141.496094 7.316406-39.894532 7.976562 42.554688"/></g><path d="m129.519531 145.152344 7.3125-39.894532 7.980469 42.554688" fill="#efb29a"/></svg>