<svg id="Capa_1" enable-background="new 0 0 512 512" height="512" viewBox="0 0 512 512" width="512" xmlns="http://www.w3.org/2000/svg"><g><g><path d="m456.969 407.139c27.744-39.712 44.031-88.02 44.031-140.139 0-135.31-109.69-245-245-245s-245 109.69-245 245c0 52.119 16.287 100.427 44.031 140.139z" fill="#ff596e"/></g><g><circle cx="256" cy="242" fill="#ff4155" r="200"/></g><g><path d="m456.949 407.139c-8.256-22.709-16.99-42.685-24.722-51.911-.904-1.078-1.795-2.019-2.668-2.79-6.623-5.848-19.39-11.382-34.352-16.323-37.929-12.525-89.967-21.232-91.82-21.54h-94.772c-1.853.307-53.892 9.014-91.82 21.54-14.961 4.941-27.729 10.475-34.352 16.323-.874.772-1.765 1.712-2.668 2.79-7.732 9.226-16.467 29.203-24.722 51.911-.001.009-.001.018-.002.026 36.568 52.328 93.045 89.714 158.449 101.156l42.5-20.47 42.502 20.471c65.403-11.443 121.881-48.828 158.449-101.156-.001-.009-.001-.018-.002-.027z" fill="#dae2fe"/></g><g><path d="m420.93 426.843v21.327c-7.157 6.519-14.704 12.617-22.599 18.262l12.035-41.103c1.75-5.98 10.564-4.716 10.564 1.514z" fill="#acbbef"/></g><g><path d="m224.985 502.789c-72.804-59.054-90.19-136.817-94.341-170.923-4.742 1.359-9.394 2.777-13.85 4.249-14.961 4.941-27.729 10.475-34.352 16.323-.874.772-1.765 1.712-2.668 2.79-7.732 9.226-16.467 29.203-24.722 51.911-.001.009-.001.018-.002.026 36.572 52.335 93.064 89.705 158.477 101.143z" fill="#bec8f7"/></g><g><path d="m91.07 426.843v21.327c7.157 6.519 14.704 12.617 22.599 18.262l-12.035-41.103c-1.75-5.98-10.564-4.716-10.564 1.514z" fill="#acbbef"/></g><g><path d="m376.363 400.049c-12.574-62.943-53.75-134.554-120.363-134.554s-107.789 71.611-120.363 134.554c-2.232 11.171 4.616 22.15 15.628 25.069l1.946.516c6.666 1.767 12.085 6.615 14.579 13.045l25.27 65.146c13.835 3.667 28.147 6.161 42.827 7.358v-.001l20.113-23.331 20.114 23.33v.001c14.679-1.197 28.992-3.691 42.827-7.358l25.27-65.146c2.494-6.43 7.913-11.278 14.579-13.045l1.946-.516c11.011-2.918 17.859-13.897 15.627-25.068z" fill="#e9efff"/></g><g><path d="m303.386 314.575h-94.772l27.272 196.606c6.634.539 13.341.819 20.114.819s13.48-.28 20.114-.819z" fill="#7255ce"/></g><g><path d="m276.114 511.181 4.111-29.633c-26.458-6.208-53.849-38.937-60.138-84.271l15.8 113.904c6.633.539 13.34.819 20.113.819s13.48-.28 20.114-.819z" fill="#5c45bf"/></g><g><path d="m248.5 511.873c2.492.076 4.99.127 7.5.127s5.008-.051 7.5-.127v-197.298h-15z" fill="#4432ad"/></g><g><path d="m337.869 36.423c-19.783-22.322-47.62-36.423-81.869-36.423s-48.985 5.638-62.772 12-14.708 34.073-14.708 34.073c-17.176 18.715-27.663 43.666-27.663 71.07v30.076h210.286v-30.076c0-23.009-3.49-58.398-23.274-80.72z" fill="#2d3c6b"/></g><g><path d="m150.857 117.143v30.076h42.846l30.623-67.616c-35.013-.11-46.417-18.815-45.806-33.53-17.175 18.714-27.663 43.666-27.663 71.07z" fill="#213159"/></g><g><path d="m336.058 159.567s10.385-25.285 28.897-19.415-.448 60.664-36.573 64.116z" fill="#a05838"/></g><g><path d="m175.942 159.567s-10.385-25.285-28.897-19.415.448 60.664 36.573 64.116z" fill="#934a2e"/></g><g><path d="m333.953 133.384c-6.63-6.63-10.355-15.623-10.355-25 0-19.526-15.829-35.355-35.355-35.355h-64.484c-19.526 0-35.355 15.829-35.355 35.355 0 9.377-3.725 18.37-10.355 25l-9.594 9.594c-.03 1.252-.051 2.509-.051 3.776 0 64.505 39.219 140.155 87.597 140.155s87.597-75.651 87.597-140.155c0-1.267-.021-2.523-.051-3.776z" fill="#b76c4e"/></g><g><path d="m208.403 146.754c0-29.148 8.015-54.587 21.258-73.725h-5.903c-19.526 0-35.355 15.829-35.355 35.355 0 9.377-3.725 18.37-10.355 25l-9.594 9.594c-.03 1.252-.051 2.509-.051 3.776 0 64.505 39.219 140.155 87.597 140.155 6.881 0 13.576-1.535 20-4.346-38.741-16.952-67.597-80.479-67.597-135.809z" fill="#a05838"/></g><g><path d="m223.5 138.968h-20c-4.142 0-7.5-3.358-7.5-7.5 0-4.142 3.358-7.5 7.5-7.5h20c4.142 0 7.5 3.358 7.5 7.5 0 4.142-3.358 7.5-7.5 7.5z" fill="#162544"/></g><g><path d="m308.5 138.968h-20c-4.142 0-7.5-3.358-7.5-7.5 0-4.142 3.358-7.5 7.5-7.5h20c4.142 0 7.5 3.358 7.5 7.5 0 4.142-3.358 7.5-7.5 7.5z" fill="#162544"/></g><g><path d="m355.792 182.792c0-23.324 0-48.625 0-48.625h-17.516v6.413c0 60.102-29.407 85.388-29.407 85.388h-105.735s-29.407-25.287-29.407-85.388v-6.413h-17.519v48.625c0 45.56-25.105 60.356-18.949 99.421.683 4.333 6.173 5.838 9.029 2.509l9.9-11.539s-8.448 30.362 6.504 68.129c1.688 4.264 7.709 4.342 9.545.139l8.346-19.11s-.583 33.789 26.915 60.042c3.157 3.014 8.407.992 8.735-3.36l1.175-15.596s.006.01.018.028c18.051 28.046 59.098 28.046 77.149 0l.018-.028 1.175 15.596c.328 4.353 5.578 6.374 8.735 3.36 27.498-26.253 26.915-60.042 26.915-60.042l8.345 19.11c1.835 4.203 7.856 4.125 9.545-.139 14.952-37.766 6.504-68.129 6.504-68.129l9.9 11.539c2.856 3.329 8.346 1.824 9.029-2.509 6.157-39.066-18.949-53.861-18.949-99.421z" fill="#2d3c6b"/></g><g><path d="m228.237 296.056-2.678 6.591c-1.793 4.413-8.065 4.256-9.675-.227-6.803-18.943-9.812-50.497 5.268-76.452h-18.019s-29.407-25.287-29.407-85.388v-6.413h-17.519v48.625c0 45.56-25.106 60.356-18.949 99.421.683 4.333 6.173 5.838 9.029 2.509l9.9-11.539s-8.448 30.362 6.504 68.129c1.688 4.264 7.709 4.342 9.545.139l8.346-19.11s-.583 33.789 26.915 60.042c3.157 3.014 8.407.992 8.735-3.36l1.175-15.596s.006.01.018.028c18.051 28.046 59.098 28.046 77.149 0 .087-.247.173-.505.258-.773 2.618-8.222-2.323-16.871-10.644-19.155-47.587-13.061-55.951-47.471-55.951-47.471z" fill="#213159"/></g><g><g><path d="m183.704 210.743c13.798 7.974 31.448 3.249 39.416-10.552 6.063-10.501 19.49-14.099 29.991-8.036l.087.05c10.501 6.063 14.099 19.49 8.036 29.991l-3.031 5.25c-12.583 21.795-40.452 29.262-62.247 16.679-10.548-6.09-17.74-15.761-20.927-26.59-1.511-5.131 4.045-9.468 8.675-6.792z" fill="#162544"/></g><g><path d="m328.296 210.743c-13.798 7.974-31.448 3.249-39.416-10.552-6.063-10.501-19.49-14.099-29.991-8.036l-.087.05c-10.501 6.063-14.099 19.49-8.036 29.991l3.031 5.25c12.583 21.795 40.452 29.262 62.247 16.679 10.548-6.09 17.74-15.761 20.927-26.59 1.511-5.131-4.045-9.468-8.675-6.792z" fill="#213159"/></g></g><g><g><path d="m242.013 192.447 8.436-13.441c2.569-4.093 8.533-4.093 11.102 0l8.436 13.441c2.739 4.365-.398 10.038-5.551 10.038h-16.871c-5.154-.001-8.291-5.674-5.552-10.038z" fill="#934a2e"/></g></g><g><path d="m201.001 162.085c-.043-3.495 1.371-7.004 4.242-9.539 4.675-4.128 11.84-4.128 16.515 0 2.871 2.535 4.284 6.044 4.242 9.539-.055 4.538-5.629 6.716-8.838 3.507-2.022-2.022-5.3-2.022-7.322 0-3.21 3.21-8.784 1.032-8.839-3.507z" fill="#162544"/></g><g><path d="m310.999 162.085c.043-3.495-1.371-7.004-4.242-9.539-4.675-4.128-11.84-4.128-16.515 0-2.871 2.535-4.284 6.044-4.242 9.539.055 4.538 5.629 6.716 8.838 3.507 2.022-2.022 5.3-2.022 7.322 0 3.21 3.21 8.784 1.032 8.839-3.507z" fill="#162544"/></g></g></svg>