<svg height="512pt" viewBox="0 0 512 512" width="512pt" xmlns="http://www.w3.org/2000/svg"><path d="m512 256c0 73.601562-31.070312 139.960938-80.800781 186.660156-45.800781 42.988282-107.417969 69.339844-175.199219 69.339844s-129.398438-26.351562-175.199219-69.339844c-49.730469-46.699218-80.800781-113.058594-80.800781-186.660156 0-141.378906 114.621094-256 256-256s256 114.621094 256 256zm0 0" fill="#f93d6e"/><path d="m431.199219 442.660156c-45.800781 42.988282-107.417969 69.339844-175.199219 69.339844-15.53125 0-30.730469-1.378906-45.5-4.039062-49.679688-8.910157-94.390625-32.160157-129.699219-65.300782 20.390625-97.71875-4.980469-173.101562-10.351562-227.332031-.007813-.027344-.007813-.058594-.007813-.089844l73.25-8.148437 112.308594-12.488282 185.550781 20.636719h.007813c-5.347656 54.242188-30.757813 129.652344-10.359375 227.421875zm0 0" fill="#ffbb16"/><path d="m443.578125 187.589844c0 9.390625-.6875 18.628906-2.027344 27.648437-13.359375 90.492188-91.351562 159.933594-185.5625 159.933594-8.296875 0-16.476562-.542969-24.5-1.59375-82.917969-10.808594-148.816406-75.777344-161.039062-158.25-.007813-.027344-.007813-.058594-.007813-.089844-1.339844-9.019531-2.03125-18.257812-2.03125-27.648437 0-103.601563 83.980469-187.589844 187.578125-187.589844 103.613281 0 187.589844 83.988281 187.589844 187.589844zm0 0" fill="#ffbb16"/><path d="m231.488281 373.578125 27.320313 51.8125-48.308594 82.570313c-49.679688-8.910157-94.390625-32.160157-129.699219-65.300782 20.390625-97.71875-4.980469-173.101562-10.351562-227.332031-.007813-.027344-.007813-.058594-.007813-.089844-1.339844-9.019531-2.03125-18.257812-2.03125-27.648437 0-103.601563 83.980469-187.589844 187.578125-187.589844-29.097656 0-39.609375 47.488281 3.492188 61.589844l-122.378907 133.011718 6.589844 12.488282zm0 0" fill="#ff931f"/><path d="m398.410156 468.761719c-12.339844 8.277343-25.441406 15.519531-39.179687 21.566406-10.652344 4.703125-21.679688 8.703125-33.03125 11.921875-22.300781 6.351562-45.847657 9.75-70.199219 9.75-24.339844 0-47.890625-3.398438-70.199219-9.738281-7.242187-2.0625-14.359375-4.441407-21.332031-7.121094-.429688-.160156-.859375-.320313-1.289062-.492187-3.507813-1.359376-6.980469-2.808594-10.410157-4.320313-13.738281-6.058594-26.839843-13.289063-39.191406-21.578125 10.390625-14.371094 23.761719-26.429688 39.191406-35.320312 10.199219-5.871094 21.300781-10.339844 33.03125-13.148438 1.808594-.441406 3.640625-.839844 5.480469-1.191406 3.46875-.679688 7-1.199219 10.570312-1.570313 1.027344-.109375 2.046876-.210937 3.089844-.289062 3.378906-.28125 6.796875-.421875 10.257813-.421875h81.589843c4.519532 0 8.972657.242187 13.351563.703125 3.570313.367187 7.089844.898437 10.570313 1.558593 1.390624.269532 2.769531.558594 4.140624.871094.449219.117188.910157.207032 1.347657.328125 11.742187 2.820313 22.832031 7.289063 33.03125 13.160157 15.429687 8.898437 28.789062 20.960937 39.179687 35.332031zm0 0" fill="#40b4d3"/><path d="m215.199219 416.808594c-29.359375 0-49.257813 42.429687-50.730469 78.332031-.429688-.160156-.859375-.320313-1.289062-.492187-3.507813-1.359376-6.980469-2.808594-10.410157-4.320313-13.738281-6.058594-26.839843-13.289063-39.191406-21.578125 10.390625-14.371094 23.761719-26.429688 39.191406-35.320312 10.199219-5.871094 21.300781-10.339844 33.03125-13.148438 1.808594-.441406 3.640625-.839844 5.480469-1.191406 3.46875-.679688 7-1.199219 10.570312-1.570313 1.027344-.109375 2.046876-.210937 3.089844-.289062 3.378906-.28125 6.796875-.421875 10.257813-.421875zm0 0" fill="#0084a6"/><path d="m320.710938 419.070312v4.339844c0 28.539063-18.320313 53.378906-45.589844 61.808594-6.171875 1.921875-12.609375 2.890625-19.132813 2.890625-35.679687 0-64.707031-29.03125-64.707031-64.699219v-4.320312c3.46875-.679688 7-1.199219 10.570312-1.570313 1.027344-.109375 2.046876-.210937 3.089844-.289062 3.378906-.28125 6.796875-.421875 10.257813-.421875h81.589843c4.519532 0 8.972657.242187 13.351563.703125 3.570313.367187 7.089844.898437 10.570313 1.558593zm0 0" fill="#f9c5ac"/><path d="m300.707031 368.539062v54.867188c0 20.089844-13.246093 37.066406-31.488281 42.707031-4.179688 1.296875-8.628906 1.996094-13.230469 1.996094-24.691406 0-44.703125-20.011719-44.703125-44.703125v-54.867188zm0 0" fill="#efb29a"/><path d="m300.707031 419.933594v3.472656c0 20.089844-13.246093 37.066406-31.488281 42.707031-16.460938-5.058593-28.839844-19.371093-31.125-36.882812 2.988281.183593 5.992188.273437 9.007812.273437 8.460938 0 16.75-.671875 24.828126-1.996094 9.953124-1.601562 19.570312-4.160156 28.777343-7.574218zm0 0" fill="#f9c5ac"/><path d="m132.539062 278.152344c0 20.496094-14.972656 37.492187-34.578124 40.648437-2.144532.34375-4.347657.527344-6.597657.527344-22.746093 0-41.171875-18.429687-41.171875-41.175781s18.425782-41.175782 41.171875-41.175782c2.25 0 4.453125.179688 6.597657.527344 19.605468 3.15625 34.578124 20.152344 34.578124 40.648438zm0 0" fill="#f9c5ac"/><path d="m132.539062 278.152344c0 20.496094-14.972656 37.492187-34.578124 40.648437-3.5625-12.953125-5.464844-26.582031-5.464844-40.648437s1.902344-27.695313 5.464844-40.644532c19.605468 3.152344 34.578124 20.148438 34.578124 40.644532zm0 0" fill="#efb29a"/><path d="m106.082031 278.152344c0 8.128906-6.589843 14.714844-14.71875 14.714844-8.125 0-14.714843-6.585938-14.714843-14.714844 0-8.125 6.589843-14.714844 14.714843-14.714844 8.128907 0 14.71875 6.589844 14.71875 14.714844zm0 0" fill="#efb29a"/><path d="m379.449219 278.152344c0 20.496094 14.972656 37.492187 34.578125 40.648437 2.144531.34375 4.347656.527344 6.597656.527344 22.746094 0 41.175781-18.429687 41.175781-41.175781s-18.429687-41.175782-41.175781-41.175782c-2.25 0-4.453125.179688-6.597656.527344-19.605469 3.15625-34.578125 20.152344-34.578125 40.648438zm0 0" fill="#f9c5ac"/><path d="m379.449219 278.152344c0 20.496094 14.972656 37.492187 34.578125 40.648437 3.5625-12.953125 5.464844-26.582031 5.464844-40.648437s-1.902344-27.695313-5.464844-40.644532c-19.605469 3.152344-34.578125 20.148438-34.578125 40.644532zm0 0" fill="#efb29a"/><path d="m435.339844 278.152344c0 8.128906-6.589844 14.714844-14.714844 14.714844-8.128906 0-14.71875-6.585938-14.71875-14.714844 0-8.125 6.589844-14.714844 14.71875-14.714844 8.125 0 14.714844 6.589844 14.714844 14.714844zm0 0" fill="#efb29a"/><path d="m410.699219 199.660156v56.851563c0 76.988281-56.238281 140.847656-129.878907 152.707031-7.859374 1.292969-15.929687 1.960938-24.160156 1.992188-85.449218.359374-155.371094-70.640626-155.371094-156.089844v-55.460938c0-82.671875 67.011719-149.679687 149.679688-149.679687h10.050781c35.550781 0 68.199219 12.390625 93.878907 33.089843 34.03125 27.441407 55.800781 69.46875 55.800781 116.589844zm0 0" fill="#f9c5ac"/><path d="m283.242188 408.808594c-.800782.140625-1.609376.28125-2.417969.410156-8.082031 1.320312-16.371094 1.992188-24.832031 1.992188-85.4375 0-154.699219-69.25-154.699219-154.699219v-57.917969l54.550781-99.582031v157.5c0 76.136719 54.980469 139.410156 127.398438 152.296875zm0 0" fill="#efb29a"/><path d="m325.515625 95.757812s-39.902344 98.191407-227.554687 141.75l3.332031-75.234374 32.039062-65.660157 90.007813-32.367187zm0 0" fill="#ff931f"/><g fill="#efb29a"><path d="m360.261719 296.496094c0 10.539062-8.542969 19.082031-19.082031 19.082031-10.539063 0-19.082032-8.542969-19.082032-19.082031 0-10.539063 8.542969-19.082032 19.082032-19.082032 10.539062 0 19.082031 8.542969 19.082031 19.082032zm0 0"/><path d="m189.886719 296.496094c0 10.539062-8.542969 19.082031-19.082031 19.082031-10.539063 0-19.082032-8.542969-19.082032-19.082031 0-10.539063 8.542969-19.082032 19.082032-19.082032 10.539062 0 19.082031 8.542969 19.082031 19.082032zm0 0"/><path d="m273.378906 297.921875h-34.757812c-4.140625 0-7.5-3.355469-7.5-7.496094s3.359375-7.496093 7.5-7.496093h34.757812c4.136719 0 7.496094 3.355468 7.496094 7.496093s-3.359375 7.496094-7.496094 7.496094zm0 0"/></g><path d="m256 345.351562c-12.828125 0-25.65625-3.214843-37.351562-9.640624-3.296876-1.8125-4.5-5.957032-2.6875-9.257813 1.8125-3.296875 5.957031-4.5 9.253906-2.6875 19.277344 10.597656 42.292968 10.597656 61.566406 0 3.296875-1.8125 7.441406-.609375 9.253906 2.6875 1.816406 3.300781.613282 7.445313-2.6875 9.257813-11.691406 6.425781-24.519531 9.640624-37.347656 9.640624zm0 0" fill="#dd9f8a"/><path d="m343.992188 244.328125c0-17.808594-14.433594-32.242187-32.242188-32.242187s-32.242188 14.433593-32.242188 32.242187zm0 0" fill="#efb29a"/><path d="m333.773438 258.054688c0 12.164062-9.859376 22.023437-22.023438 22.023437s-22.023438-9.859375-22.023438-22.023437c0-12.164063 9.859376-22.023438 22.023438-22.023438s22.023438 9.859375 22.023438 22.023438zm0 0" fill="#2f373b"/><path d="m330.363281 254.167969c0 5.210937-4.222656 9.4375-9.433593 9.4375-5.214844 0-9.4375-4.226563-9.4375-9.4375 0-5.210938 4.222656-9.4375 9.4375-9.4375 5.210937 0 9.433593 4.226562 9.433593 9.4375zm0 0" fill="#fff"/><path d="m232.480469 244.328125c0-17.808594-14.433594-32.242187-32.242188-32.242187-17.808593 0-32.242187 14.433593-32.242187 32.242187zm0 0" fill="#efb29a"/><path d="m222.261719 258.054688c0 12.164062-9.859375 22.023437-22.023438 22.023437-12.160156 0-22.019531-9.859375-22.019531-22.023437 0-12.164063 9.859375-22.023438 22.019531-22.023438 12.164063 0 22.023438 9.859375 22.023438 22.023438zm0 0" fill="#2f373b"/><path d="m205.207031 279.511719c-1.601562.378906-3.261719.566406-4.96875.566406-12.160156 0-22.019531-9.859375-22.019531-22.027344 0-12.160156 9.859375-22.019531 22.019531-22.019531 1.707031 0 3.367188.199219 4.96875.570312-9.78125 2.25-17.058593 11-17.058593 21.449219 0 10.460938 7.277343 19.210938 17.058593 21.460938zm0 0" fill="#181e21"/><path d="m316.71875 279.511719c-1.601562.378906-3.261719.566406-4.972656.566406-12.160156 0-22.019532-9.859375-22.019532-22.027344 0-12.160156 9.859376-22.019531 22.019532-22.019531 1.710937 0 3.371094.199219 4.972656.570312-9.78125 2.25-17.0625 11-17.0625 21.449219 0 10.460938 7.28125 19.210938 17.0625 21.460938zm0 0" fill="#181e21"/><path d="m218.855469 254.167969c0 5.210937-4.226563 9.4375-9.4375 9.4375-5.210938 0-9.4375-4.226563-9.4375-9.4375 0-5.210938 4.226562-9.4375 9.4375-9.4375 5.210937 0 9.4375 4.226562 9.4375 9.4375zm0 0" fill="#fff"/><path d="m410.699219 184.660156 2.980469 29.546875-2.980469 21.273438c-65.359375-41.582031-85.183594-139.722657-85.183594-139.722657l29.382813-27.6875c34.03125 27.441407 55.800781 69.46875 55.800781 116.589844zm0 0" fill="#ffbb16"/><path d="m412.667969 187.273438c0 7.027343-.507813 13.949218-1.511719 20.710937-10.585938-72.089844-76.011719-127.582031-155.160156-127.582031-8.574219 0-16.972656.632812-25.144532 1.910156-20.039062 3.046875-38.800781 9.691406-55.515624 19.199219-39.628907 22.554687-67.855469 61.238281-74.515626 106.421875-.988281-6.75-1.496093-13.648438-1.496093-20.660156 0-53.9375 30.46875-101.148438 76.011719-127.054688 16.730468-9.519531 35.488281-16.164062 55.519531-19.210938 8.171875-1.277343 16.570312-1.910156 25.140625-1.910156 86.53125 0 156.671875 66.339844 156.671875 148.175782zm0 0" fill="#f1eee9"/><path d="m175.335938 60.21875v41.289062c-39.628907 22.558594-67.855469 61.242188-74.519532 106.421876-.988281-6.75-1.492187-13.644532-1.492187-20.65625 0-53.9375 30.46875-101.148438 76.011719-127.054688zm0 0" fill="#d7d3cd"/><path d="m422.421875 116.121094c0 20.570312-16.675781 37.246094-37.246094 37.246094-20.570312 0-37.242187-16.675782-37.242187-37.246094 0-20.570313 16.671875-37.242188 37.242187-37.242188 20.570313 0 37.246094 16.671875 37.246094 37.242188zm0 0" fill="#40b4d3"/><path d="m409.378906 116.121094c0 13.367187-10.835937 24.203125-24.203125 24.203125-13.367187 0-24.203125-10.835938-24.203125-24.203125 0-13.367188 10.835938-24.203125 24.203125-24.203125 13.367188 0 24.203125 10.835937 24.203125 24.203125zm0 0" fill="#f1eee9"/><path d="m395.816406 116.121094c0 5.878906-4.761718 10.640625-10.640625 10.640625-5.875 0-10.640625-4.761719-10.640625-10.640625 0-5.875 4.765625-10.640625 10.640625-10.640625 5.878907 0 10.640625 4.765625 10.640625 10.640625zm0 0" fill="#f93d6e"/></svg>