<svg id="Capa_1" enable-background="new 0 0 512 512" height="512" viewBox="0 0 512 512" width="512" xmlns="http://www.w3.org/2000/svg"><g><path d="m0 256c0-141.285 114.453-255.837 255.699-256 139.93-.161 254.687 113.09 256.284 253.011.939 82.278-36.942 155.745-96.466 203.227-3.178 2.535-7.652 2.612-10.961.251-41.889-29.899-93.168-47.489-148.556-47.489-55.225 0-106.365 17.487-148.186 47.225-3.532 2.511-8.303 2.438-11.686-.271-58.599-46.913-96.128-119.051-96.128-199.954z" fill="#60c8dd"/><path d="m457.569 256c0 111.324-90.246 201.569-201.569 201.569s-201.569-90.245-201.569-201.569 90.245-201.569 201.569-201.569 201.569 90.245 201.569 201.569z" fill="#7cd2e3"/><path d="m372.677 107.882c3.044 10.632 4.675 21.86 4.675 33.47v71.296c0 120.04-97.312 217.352-217.352 217.352-88.366 0-160-71.634-160-160h6c71.05 0 128.648-57.598 128.648-128.648 0-7.852.746-15.53 2.171-22.966 1.172-6.12 6.596-10.504 12.828-10.504z" fill="#784132"/><path d="m3.494 303.412c-2.289-10.776-3.494-21.954-3.494-33.412h6c71.05 0 128.648-57.598 128.648-128.648 0-7.852.746-15.53 2.171-22.966 1.172-6.12 6.596-10.504 12.828-10.504h16.318c-.898 6.969-1.363 14.073-1.363 21.286-.001 91.925-70.971 167.273-161.108 174.244z" fill="#61362b"/><path d="m209.333 313.416c-38.66 0-70 31.34-70 70v86.281c0 6.516-7.081 10.555-12.701 7.257-10.735-6.299-20.97-13.358-30.632-21.103v-72.436c0-38.66 31.34-70 70-70h43.333z" fill="#d6995c"/><path d="m416 383.416v72.436c-18.23 14.614-38.503 26.785-60.322 36.017-1.887.798-17.434.009-23.636.009h-150c-6.646 0-23.552.909-25.721-.009-10.482-4.435-20.608-9.549-30.322-15.286v-93.167c0-38.66 31.34-70 70-70h150c38.661 0 70.001 31.34 70.001 70z" fill="#e3a76f"/><path d="m355.678 417.579v59.499c0 9.131-5.728 17.308-14.336 20.351-26.693 9.437-55.418 14.571-85.342 14.571-30.276 0-59.325-5.256-86.284-14.905-8.032-2.875-13.395-10.486-13.395-19.017v-60.498c0-29.144 23.626-52.771 52.771-52.771 20.422 0 38.134 11.601 46.907 28.572 8.773-16.971 26.485-28.572 46.907-28.572 29.146 0 52.772 23.626 52.772 52.77z" fill="#4172cc"/><path d="m171.322 436.149v61.514c-5.075-1.778-10.077-3.711-15-5.795v-55.72c0-4.142 3.358-7.5 7.5-7.5s7.5 3.359 7.5 7.501zm176.856-7.5c-4.142 0-7.5 3.358-7.5 7.5v61.514c5.075-1.778 10.077-3.711 15-5.795v-55.72c0-4.141-3.357-7.499-7.5-7.499z" fill="#2e5aac"/><path d="m171 188.416v10c0 13.807-11.193 25-25 25s-25-11.193-25-25v-10c0-13.807 11.193-25 25-25s25 11.193 25 25z" fill="#f2bb88"/><path d="m136 183.416v20c0 8.178 3.927 15.439 9.998 20-13.806-.001-24.998-11.194-24.998-25v-10c0-13.806 11.192-24.999 24.998-25-6.071 4.561-9.998 11.822-9.998 20zm230-20v-20c0-60.751-49.249-110-110-110-60.751 0-110 49.249-110 110v40c0 50.351 33.83 92.801 80 105.859v30.725c0 16.569 13.431 30 30 30s30-13.431 30-30v-30.725c33.586-9.499 60.641-34.551 72.895-66.883 2.252.667 4.637 1.024 7.105 1.024 13.807 0 25-11.193 25-25v-10c0-13.807-11.193-25-25-25z" fill="#e3a76f"/><path d="m366 143.416v40c0 50.792-34.425 93.543-81.216 106.195-9.023 2.44-18.545 2.44-27.568 0-46.791-12.652-81.216-55.403-81.216-106.195v-40c0-55.663 41.345-101.669 95-108.985 53.655 7.316 95 53.322 95 108.985z" fill="#f2bb88"/><path d="m241.5 190.148c-2.929-2.93-2.929-7.678 0-10.607 2.929-2.928 7.678-2.928 10.606 0 1.042 1.042 2.424 1.616 3.893 1.616s2.851-.574 3.893-1.616c2.929-2.928 7.678-2.928 10.606 0 2.929 2.93 2.929 7.678 0 10.607-3.875 3.875-9.024 6.009-14.5 6.009s-10.623-2.134-14.498-6.009z" fill="#d6995c"/><path d="m256 253.416c-16.569 0-30-13.431-30-30 0-4.142 3.358-7.5 7.5-7.5h45c4.142 0 7.5 3.358 7.5 7.5 0 16.569-13.431 30-30 30z" fill="#fff5f5"/><path d="m263.5 252.471c-2.397.617-4.91.945-7.5.945-16.568 0-30-13.431-30-30 0-4.142 3.358-7.5 7.5-7.5h15c-4.142 0-7.5 3.358-7.5 7.5 0 13.979 9.561 25.725 22.5 29.055z" fill="#def4f8"/><path d="m223.5 150.916c0 8.284-6.716 15-15 15s-15-6.716-15-15 6.716-15 15-15 15 6.716 15 15zm80-15c-8.284 0-15 6.716-15 15s6.716 15 15 15 15-6.716 15-15-6.716-15-15-15z" fill="#61362b"/><path d="m226 143.416c0 4.142-3.358 7.5-7.5 7.5s-7.5-3.358-7.5-7.5 3.358-7.5 7.5-7.5 7.5 3.358 7.5 7.5zm87.5-7.5c-4.142 0-7.5 3.358-7.5 7.5s3.358 7.5 7.5 7.5 7.5-3.358 7.5-7.5-3.358-7.5-7.5-7.5z" fill="#fff5f5"/><path d="m250.813 20.109c-9.838 55.131-56.907 97.369-114.273 99.781 9.838-55.131 56.906-97.368 114.273-99.781z" fill="#61362b"/><path d="m222.952 77.258c-17.433-22.53-2.396-55.441 26.045-57.06 2.317-.131 4.652-.198 7.003-.198 59.736 0 109.39 43.162 119.479 100h-65.479c-35.42 0-66.929-16.741-87.048-42.742z" fill="#784132"/><path d="m231.939 325.407c0 10.965-8.889 19.853-19.853 19.853-10.965 0-19.853-8.889-19.853-19.853 0-10.965 8.889-19.854 19.853-19.854s19.853 8.889 19.853 19.854zm67.976-19.854c-10.965 0-19.853 8.889-19.853 19.854s8.889 19.853 19.853 19.853c10.965 0 19.853-8.889 19.853-19.853 0-10.965-8.888-19.854-19.853-19.854z" fill="#fcc1b8"/><path d="m319.768 325.407c0 7.903-4.618 14.727-11.303 17.922-6.685-3.195-11.303-10.019-11.303-17.922s4.618-14.728 11.303-17.923c6.685 3.195 11.303 10.019 11.303 17.923zm-99.132-17.923c-6.685 3.195-11.303 10.019-11.303 17.923 0 7.903 4.618 14.727 11.303 17.922 6.685-3.195 11.303-10.019 11.303-17.922 0-7.904-4.618-14.728-11.303-17.923z" fill="#fccfc9"/><path d="m319.6 350c0 8.408-5.227 15.595-12.609 18.49-7.382-2.895-12.609-10.082-12.609-18.49s5.227-15.595 12.609-18.49c7.382 2.895 12.609 10.082 12.609 18.49zm-100.438-18.49c-7.382 2.895-12.609 10.082-12.609 18.49s5.227 15.595 12.609 18.49c7.382-2.895 12.609-10.082 12.609-18.49s-5.227-15.595-12.609-18.49z" fill="#fb5858"/><path d="m207.064 350c0 8.311 5.107 15.429 12.353 18.388-2.314.945-4.846 1.466-7.5 1.466-10.965 0-19.853-8.889-19.853-19.854s8.889-19.854 19.853-19.854c2.654 0 5.186.521 7.5 1.466-7.246 2.959-12.353 10.077-12.353 18.388zm87.83 0c0-8.311 5.107-15.429 12.353-18.388-2.314-.945-4.846-1.466-7.5-1.466-10.965 0-19.853 8.889-19.853 19.854s8.889 19.854 19.853 19.854c2.654 0 5.186-.521 7.5-1.466-7.247-2.959-12.353-10.077-12.353-18.388z" fill="#c83c50"/><path d="m231.939 377.25c0 10.965-8.889 19.854-19.853 19.854-10.965 0-19.853-8.889-19.853-19.854s8.889-19.854 19.853-19.854c10.964.001 19.853 8.89 19.853 19.854zm67.976-19.853c-10.965 0-19.853 8.889-19.853 19.854s8.889 19.854 19.853 19.854c10.965 0 19.853-8.889 19.853-19.854s-8.888-19.854-19.853-19.854z" fill="#fcc1b8"/><path d="m319.768 377.25c0 8.781-5.701 16.23-13.603 18.849-7.903-2.619-13.603-10.068-13.603-18.849s5.701-16.23 13.603-18.849c7.902 2.619 13.603 10.068 13.603 18.849zm-101.433-18.849c-7.902 2.619-13.603 10.068-13.603 18.849s5.701 16.23 13.603 18.849c7.903-2.619 13.603-10.068 13.603-18.849.001-8.781-5.7-16.23-13.603-18.849z" fill="#fccfc9"/><path d="m319.6 403.976c0 8.874-5.821 16.387-13.853 18.93-8.032-2.543-13.853-10.057-13.853-18.93s5.821-16.387 13.853-18.93c8.032 2.544 13.853 10.057 13.853 18.93zm-101.683-18.93c-8.032 2.543-13.853 10.057-13.853 18.93 0 8.874 5.821 16.387 13.853 18.93 8.032-2.543 13.853-10.057 13.853-18.93.001-8.873-5.821-16.386-13.853-18.93z" fill="#fb5858"/><path d="m204.564 403.976c0 8.781 5.701 16.23 13.603 18.849-1.965.651-4.066 1.004-6.25 1.004-10.965 0-19.853-8.889-19.853-19.854s8.889-19.853 19.853-19.853c2.184 0 4.285.353 6.25 1.004-7.902 2.62-13.603 10.069-13.603 18.85zm87.83 0c0-8.781 5.701-16.23 13.603-18.849-1.965-.651-4.066-1.004-6.25-1.004-10.965 0-19.853 8.889-19.853 19.853 0 10.965 8.889 19.854 19.853 19.854 2.184 0 4.285-.353 6.25-1.004-7.903-2.619-13.603-10.069-13.603-18.85z" fill="#c83c50"/><path d="m382.047 138.351c6.97 6.97 6.97 18.271 0 25.241-6.97 6.97-18.271 6.97-25.241 0-6.97-6.97-6.97-18.271 0-25.241l8.924-8.924-8.924-8.924c-6.97-6.97-6.97-18.271 0-25.241 6.97-6.97 18.271-6.97 25.241 0s6.97 18.271 0 25.241l-8.924 8.924z" fill="#fcc1b8"/><path d="m403.592 142.047c-6.97 6.97-18.271 6.97-25.242 0l-8.924-8.924-8.924 8.924c-6.97 6.97-18.271 6.97-25.242 0-6.97-6.97-6.97-18.271 0-25.241 6.97-6.97 18.271-6.97 25.242 0l8.924 8.924 8.924-8.924c6.97-6.97 18.271-6.97 25.241 0 6.972 6.97 6.972 18.271.001 25.241z" fill="#fff5f5"/><path d="m381.326 129.427c0 6.572-5.327 11.899-11.899 11.899s-11.899-5.327-11.899-11.899 5.327-11.899 11.899-11.899 11.899 5.327 11.899 11.899z" fill="#c83c50"/><path d="m309.727 427.787c0 10.965-8.889 19.853-19.853 19.853-10.965 0-19.853-8.889-19.853-19.853s8.889-19.853 19.853-19.853 19.853 8.888 19.853 19.853zm-67.747 0c0 10.965-8.889 19.853-19.853 19.853s-19.853-8.889-19.853-19.853 8.889-19.853 19.853-19.853 19.853 8.888 19.853 19.853z" fill="#fcc1b8"/><path d="m309.727 427.787c0 8.826-5.76 16.308-13.726 18.89-7.966-2.582-13.726-10.063-13.726-18.89 0-8.826 5.76-16.307 13.726-18.89 7.966 2.583 13.726 10.064 13.726 18.89zm-67.747 0c0 8.92-5.883 16.467-13.981 18.97-8.098-2.504-13.981-10.05-13.981-18.97s5.883-16.467 13.981-18.97c8.098 2.504 13.981 10.05 13.981 18.97z" fill="#fccfc9"/><path d="m261.343 440.402c0 10.965-8.889 19.853-19.853 19.853-10.965 0-19.853-8.889-19.853-19.853 0-10.965 8.889-19.853 19.853-19.853 10.965-.001 19.853 8.888 19.853 19.853z" fill="#faa598"/><path d="m261.343 440.402c0 8.739-5.646 16.159-13.49 18.812-7.843-2.652-13.49-10.073-13.49-18.812s5.646-16.159 13.49-18.812c7.844 2.653 13.49 10.073 13.49 18.812z" fill="#fcc1b8"/><path d="m290.363 440.402c0 8.82-5.752 16.297-13.709 18.885-7.958-2.587-13.71-10.064-13.71-18.885s5.752-16.297 13.71-18.884c7.958 2.586 13.709 10.064 13.709 18.884z" fill="#fb5858"/><path d="m276.765 459.25c-1.967.652-4.07 1.006-6.255 1.006-10.965 0-19.853-8.889-19.853-19.854s8.889-19.854 19.853-19.854c2.186 0 4.289.354 6.255 1.006-7.9 2.62-13.598 10.068-13.598 18.847s5.699 16.228 13.598 18.849z" fill="#c83c50"/></g></svg>