<svg id="Capa_1" enable-background="new 0 0 512 512" height="512" viewBox="0 0 512 512" width="512" xmlns="http://www.w3.org/2000/svg"><g><path d="m436.453 325.3-69.723-23.113-88.863 50.269 10 159.543h192.266v-126.202c0-27.472-17.604-51.853-43.68-60.497z" fill="#ece6f2"/><path d="m377.352 401.641-10.622-99.453h-.001-78.862v60.27c31.822 49.686 89.485 39.183 89.485 39.183z" fill="#cfcfe6"/><path d="m256 512h31.867v-66.792l-41.867-10z" fill="#24b3b3"/><path d="m246 405.208 10 40h31.867v-30z" fill="#198080"/><path d="m75.547 325.3 69.723-23.113 88.863 50.269-10 159.543h-192.266v-126.202c0-27.472 17.604-51.853 43.68-60.497z" fill="#fff5f5"/><path d="m134.648 401.641 10.622-99.453h.001 78.862v60.27c-31.822 49.686-89.485 39.183-89.485 39.183z" fill="#ece6f2"/><path d="m256 512h-31.867v-66.792l31.867-10z" fill="#2ee6a8"/><path d="m256 405.208v40h-31.867v-30z" fill="#24b3b3"/><path d="m287.867 302.187h-41.867l10 113.021h31.867z" fill="#24b3b3"/><path d="m224.133 302.187h31.867v113.02h-31.867z" fill="#2ee6a8"/><path d="m373.469 191.204h31.867c17.6 0 31.868-14.268 31.868-31.868 0-17.6-14.268-31.868-31.868-31.868h-31.867z" fill="#c78f2c"/><path d="m138.531 191.204h-31.867c-17.6 0-31.868-14.268-31.868-31.868 0-17.6 14.268-31.868 31.868-31.868h31.867z" fill="#e1bb78"/><path d="m246 212.181 10 154.292c70.399 0 127.469-57.07 127.469-127.469v-27.276z" fill="#5b362a"/><path d="m128.531 211.728v27.276c0 70.399 57.07 127.469 127.469 127.469v-154.292z" fill="#895140"/><path d="m311.839 236.303c27.972 13.737 60.075.663 71.63-24.575v-84.259c0-11.815-1.621-23.25-4.63-34.107l-106.424-42.463-26.415 6.009 10 165.273c17.565 0 35.129 3.952 51.225 11.857z" fill="#e1bb78"/><path d="m144.475 65.71c-10.154 18.297-15.944 39.35-15.944 61.759v84.26c11.555 25.238 43.658 38.312 71.63 24.575l4.614-2.266c16.095-7.904 33.66-11.857 51.225-11.857v-165.273s-111.525 8.802-111.525 8.802z" fill="#edd7b0"/><path d="m378.839 93.362c-8.147-29.401-26.554-54.536-51.138-71.293l-55.286 38.83s36.258 46.707 106.424 32.463z" fill="#5b362a"/><path d="m327.701 22.069c-20.429-13.924-45.113-22.069-71.701-22.069l-10 33.459 10 33.459c24.042-7.386 49.031-21.027 71.701-44.849z" fill="#895140"/><path d="m256 0c-47.99 0-89.779 26.525-111.525 65.71 0 0 52.946 19.203 111.525 1.208z" fill="#b56d3c"/><path d="m184.299 144.336h31.867v30h-31.867z" fill="#332866"/><path d="m295.834 144.336h31.867v30h-31.867z" fill="#180a33"/></g></svg>