<svg id="Capa_1" enable-background="new 0 0 512 512" height="512" viewBox="0 0 512 512" width="512" xmlns="http://www.w3.org/2000/svg"><g><g><path d="m456.951 407.165c27.755-39.717 44.049-88.035 44.049-140.165 0-135.31-109.69-245-245-245s-245 109.69-245 245c0 52.13 16.294 100.448 44.049 140.165z" fill="#73c3f9"/></g><g><circle cx="256" cy="242" fill="#4fabf7" r="200"/></g><g><path d="m461.468 328.529c-7.097-60.844-101.459-130.556-101.459-180.806v-30.58c0-23.009-3.452-58.398-23.022-80.72s-47.107-36.423-80.987-36.423-48.457 5.638-62.095 12-14.549 34.073-14.549 34.073c-16.99 18.715-27.365 43.666-27.365 71.07v30.58c0 50.25-94.362 119.962-101.459 180.806-7.062 60.537 84.064 100.943 205.468 101.349 121.404-.406 212.53-40.812 205.468-101.349z" fill="#2d3c6b"/></g><g><path d="m339.906 182.909h-143.906v-90.553s2.064-69.143 60-92.356c-33.88 0-48.457 5.638-62.095 12s-14.549 34.073-14.549 34.073c-16.99 18.715-27.365 43.666-27.365 71.07v30.58c0 50.25-94.362 119.962-101.459 180.806-7.062 60.537 84.064 100.943 205.468 101.349 6.041-.02 12.004-.144 17.886-.36 135.561-134.093 66.02-246.609 66.02-246.609z" fill="#213159"/></g><g><path d="m102.383 457.831h307.235c18.06-14.558 34.021-31.615 47.333-50.665-.001-.009-.001-.017-.002-.026-8.256-22.709-16.99-42.685-24.722-51.911-.904-1.078-1.795-2.019-2.668-2.79-6.623-5.848-19.39-11.382-34.352-16.323-37.929-12.525-89.967-21.232-91.82-21.54h-94.772c-1.853.307-53.892 9.014-91.82 21.54-14.961 4.941-27.729 10.475-34.352 16.323-.874.772-1.765 1.712-2.668 2.79-7.732 9.226-16.467 29.203-24.722 51.911-.001.009-.001.018-.002.026 13.31 19.049 29.272 36.106 47.332 50.665z" fill="#f3d6ac"/></g><g><path d="m256.211 314.575h-47.597c-1.853.307-53.892 9.014-91.82 21.54-14.961 4.941-27.729 10.475-34.352 16.323-.874.772-1.765 1.712-2.668 2.79-7.732 9.226-16.467 29.203-24.722 51.911-.001.009-.001.018-.002.026 13.312 19.05 29.274 36.107 47.333 50.665h153.828z" fill="#eabe8d"/></g><g><path d="m391.147 471.33c6.374-4.223 12.555-8.713 18.491-13.499-4.027-11.7-11.689-21.884-21.736-29.06v42.559z" fill="#eabe8d"/></g><g><path d="m124.098 471.33v-42.559c-10.047 7.176-17.708 17.36-21.736 29.06 5.936 4.786 12.117 9.277 18.491 13.499z" fill="#d8a97c"/></g><g><path d="m379.202 415.644.017-.006c-.05-.05-.099-.098-.149-.148-1.882-2.145-3.921-4.152-6.097-6.012-35.607-34.723-69.588-61.613-69.588-94.903h-94.772c0 33.29-33.981 60.18-69.588 94.903-2.176 1.86-4.215 3.867-6.097 6.012-.05.05-.099.098-.149.148l.017.006c-11.756 13.487-17.434 32.166-13.151 51.388.604 2.713 1.146 4.246 1.165 4.298v.009c38.75 25.687 85.218 40.661 135.19 40.661 49.971 0 96.439-14.974 135.187-40.661l.001-.009c.019-.052.56-1.586 1.165-4.298 4.283-19.222-1.395-37.901-13.151-51.388z" fill="#e9efff"/></g><g><path d="m256.211 389.979c27.381 0 57.214-4.937 81.607-14.444-19.954-20.231-34.432-39.233-34.432-60.96h-94.772c0 33.29-33.981 60.18-69.588 94.903-2.176 1.86-4.215 3.867-6.097 6.012-.05.05-.099.098-.149.148l.017.006c-11.756 13.487-17.434 32.166-13.151 51.388.604 2.713 1.146 4.246 1.165 4.298v.009c21.662 14.36 45.738 25.369 71.488 32.288-24.099-58.406 3.526-82.71 26.266-116.602 12.568 1.956 25.354 2.954 37.646 2.954z" fill="#dae2fe"/></g><g><path d="m354.316 303.936c7.489-25.191-16.681-36.276-16.681-36.276 3.064-12.787-10.723-30.107-27.574-30.107h-107.699c-16.851 0-30.638 17.32-27.574 30.107 0 0-24.17 11.085-16.681 36.276 0 0-20.141 2.762-13.262 24.115 6.878 21.353 55.94 41.928 111.367 41.928s104.489-20.575 111.367-41.928c6.877-21.353-13.263-24.115-13.263-24.115z" fill="#e9efff"/></g><g><path d="m224.83 331c4.596-8.17 21.447-5.106 16.851-18.383s-60.766-17.872-66.894-44.957c0 0-24.17 11.085-16.681 36.276 0 0-20.141 2.762-13.262 24.115 6.878 21.353 55.94 41.928 111.367 41.928 7.755 0 15.384-.403 22.792-1.155-32.427-13.436-58.769-29.654-54.173-37.824z" fill="#dae2fe"/></g><g><path d="m337.635 267.66c-9.656 18.404-43.869 33.723-42.848 42.404s30.206 10.723 59.528-6.128c7.49-25.191-16.68-36.276-16.68-36.276z" fill="#dae2fe"/></g><g><path d="m180.942 160.072s-10.385-25.285-28.897-19.415.448 60.664 36.573 64.116z" fill="#eabe8d"/></g><g><path d="m196 92.356c-6.171 33.533-27.477 51.149-27.549 51.209-.029 1.226-.048 2.456-.048 3.695 0 64.505 39.219 140.155 87.597 140.155 39.611 0 73.076-50.717 83.906-104.506-92.184-9.194-143.906-90.553-143.906-90.553z" fill="#f8e6cc"/></g><g><path d="m208.403 147.259c0-12.042 1.369-23.451 3.908-34.046-10.742-12.096-16.311-20.857-16.311-20.857-6.171 33.533-27.477 51.149-27.549 51.209-.029 1.226-.048 2.456-.048 3.695 0 64.505 39.219 140.155 87.597 140.155 6.881 0 13.576-1.535 20-4.346-38.741-16.953-67.597-80.48-67.597-135.81z" fill="#f3d6ac"/></g><g><g><path d="m242.013 192.951 8.436-13.441c2.569-4.093 8.533-4.093 11.102 0l8.436 13.441c2.739 4.365-.398 10.038-5.551 10.038h-16.871c-5.154 0-8.291-5.673-5.552-10.038z" fill="#eabe8d"/></g></g><g><g><path d="m235.384 241.375h41.233c4.111-3.622 7.258-8.309 9.01-13.631 1.584-4.811-2.069-9.754-7.134-9.754h-44.985c-5.065 0-8.718 4.943-7.134 9.754 1.752 5.321 4.899 10.009 9.01 13.631z" fill="#162544"/></g><g><path d="m276.616 241.375c-5.493 4.849-12.714 7.798-20.616 7.798s-15.124-2.948-20.616-7.798c5.5-4.849 12.714-7.798 20.616-7.798s15.116 2.948 20.616 7.798z" fill="#ff4155"/></g></g><g><path d="m200.443 159.226c.863-3.387 3.137-6.41 6.566-8.116 5.584-2.778 12.505-.923 15.952 4.274 2.117 3.192 2.574 6.947 1.628 10.312-1.228 4.369-7.176 5.031-9.445 1.1-1.43-2.476-4.596-3.325-7.072-1.895-3.93 2.269-8.75-1.277-7.629-5.675z" fill="#162544"/></g><g><path d="m223.5 138.968h-20c-4.142 0-7.5-3.358-7.5-7.5 0-4.142 3.358-7.5 7.5-7.5h20c4.142 0 7.5 3.358 7.5 7.5 0 4.142-3.358 7.5-7.5 7.5z" fill="#162544"/></g></g></svg>