<svg id="Capa_1" enable-background="new 0 0 512 512" height="512" viewBox="0 0 512 512" width="512" xmlns="http://www.w3.org/2000/svg"><g><g><path d="m456.951 407.165c27.755-39.717 44.049-88.035 44.049-140.165 0-135.31-109.69-245-245-245s-245 109.69-245 245c0 52.13 16.294 100.448 44.049 140.165z" fill="#ff596e"/></g><g><circle cx="256" cy="242" fill="#ff4155" r="200"/></g><g><path d="m353.608 162.915h-192.948c0 38.808-38.808 73.896-38.808 132.033s30 95 30 95h210.565s30-36.863 30-95-38.809-93.225-38.809-132.033z" fill="#a05838"/></g><g><path d="m456.949 407.139c-8.256-22.709-16.99-42.685-24.722-51.911-.904-1.078-1.794-2.019-2.668-2.79-6.623-5.848-19.39-11.382-34.352-16.323-37.928-12.525-89.968-21.232-91.82-21.54h-94.772c-1.853.307-53.892 9.014-91.82 21.54-14.961 4.941-27.729 10.475-34.352 16.323-.874.772-1.765 1.712-2.668 2.79-7.732 9.226-16.467 29.203-24.722 51.911-.001.009-.001.018-.002.026 22.564 32.289 52.712 58.885 87.856 77.212v-.001h17.178l28.991 18.366c9.982 2.829 20.226 5.033 30.683 6.585l36.241-15.689 36.242 15.688c10.457-1.552 20.701-3.756 30.683-6.585l28.991-18.366h17.178v.001c35.145-18.327 65.292-44.922 87.856-77.212 0-.007 0-.016-.001-.025z" fill="#38c674"/></g><g><ellipse cx="256" cy="22" fill="#934a2e" rx="43.951" ry="22"/></g><g><path d="m256 22c-58.069 0-105.143 47.074-105.143 105.143v20.076h210.286v-20.076c0-58.069-47.074-105.143-105.143-105.143z" fill="#b76c4e"/></g><g><path d="m208.916 134.364c-15.966-22.403-24.512-70.683 6.303-104.161-37.814 15.927-64.362 53.332-64.362 96.939v20.076h71.293c-5.61-4.332-10.265-8.688-13.234-12.854z" fill="#a05838"/></g><g><path d="m256 433.614c124.66 0 176.227-78.386 176.227-78.386-.904-1.078-1.795-2.019-2.668-2.79-6.623-5.848-19.39-11.382-34.352-16.323-37.929-12.525-89.967-21.232-91.82-21.54h-94.772c-1.853.307-53.892 9.014-91.82 21.54-14.961 4.941-27.729 10.475-34.352 16.323-.874.772-1.765 1.712-2.668 2.79-.002 0 51.565 78.386 176.225 78.386z" fill="#fcad6d"/></g><g><path d="m276.616 369.362s10.767-11.809 23.703-11.809 55.191 11.809 55.191 11.809z" fill="#fd995b"/></g><g><path d="m235.384 369.362s-10.767-11.809-23.703-11.809-55.191 11.809-55.191 11.809z" fill="#fd995b"/></g><g><path d="m182.912 319.385c-18.834 3.813-44.718 9.662-66.118 16.729-14.961 4.941-27.729 10.475-34.352 16.323-.874.772-1.765 1.712-2.668 2.79-7.732 9.226-16.467 29.203-24.722 51.911-.001.009-.001.018-.002.026 13.312 19.05 29.274 36.107 47.333 50.665h60.55c-17.346-67.552 9.435-120.944 19.979-138.444z" fill="#fd995b"/></g><g><path d="m303.386 314.575s41.482 21.428 29.697 94.629h34.073s11.334-70.799-72.411-112.927z" fill="#e9efff"/></g><g><path d="m208.614 314.575s-41.482 21.428-29.697 94.629h-34.073s-11.334-70.799 72.411-112.927z" fill="#dae2fe"/></g><g><path d="m208.614 221.239v93.336s19.021 20.093 47.17 20.093c.073 0 .143-.005.216-.005 28.031-.103 47.386-20.088 47.386-20.088v-93.336z" fill="#fcad6d"/></g><g><path d="m208.614 220.734v93.841c94.723 0 94.772-53.4 94.772-53.4v-40.44h-94.772z" fill="#fd995b"/></g><g><path d="m180.942 159.567s-10.385-25.285-28.897-19.415.448 60.664 36.573 64.116z" fill="#fd995b"/></g><g><path d="m331.058 159.567s10.385-25.285 28.897-19.415-.448 60.664-36.573 64.116z" fill="#fcad6d"/></g><g><path d="m255.784 82.484s-19.69 60.442-87.333 60.562c-.029 1.23-.049 2.464-.049 3.708 0 64.505 39.219 140.155 87.597 140.155s87.597-75.651 87.597-140.155c0-1.244-.02-2.478-.049-3.708-67.642-.12-87.763-60.562-87.763-60.562z" fill="#f9ba8f"/></g><g><path d="m208.403 146.754c0-4.214.187-8.339.513-12.39-11.036 5.219-24.395 8.653-40.465 8.682-.029 1.23-.049 2.464-.049 3.708 0 64.505 39.219 140.155 87.597 140.155 6.881 0 13.576-1.535 20-4.346-38.74-16.952-67.596-80.479-67.596-135.809z" fill="#fcad6d"/></g><g><path d="m223.5 138.968h-20c-4.142 0-7.5-3.358-7.5-7.5 0-4.142 3.358-7.5 7.5-7.5h20c4.142 0 7.5 3.358 7.5 7.5 0 4.142-3.358 7.5-7.5 7.5z" fill="#934a2e"/></g><g><path d="m308.5 138.968h-20c-4.142 0-7.5-3.358-7.5-7.5 0-4.142 3.358-7.5 7.5-7.5h20c4.142 0 7.5 3.358 7.5 7.5 0 4.142-3.358 7.5-7.5 7.5z" fill="#934a2e"/></g><g><g><path d="m242.013 192.447 8.436-13.441c2.569-4.093 8.533-4.093 11.102 0l8.436 13.441c2.739 4.365-.398 10.038-5.551 10.038h-16.871c-5.154-.001-8.291-5.674-5.552-10.038z" fill="#fd995b"/></g></g><g><g><path d="m235.384 240.87h41.233c4.111-3.622 7.258-8.309 9.01-13.631 1.584-4.811-2.069-9.754-7.134-9.754h-44.985c-5.065 0-8.718 4.943-7.134 9.754 1.752 5.322 4.899 10.009 9.01 13.631z" fill="#162544"/></g><g><path d="m276.616 240.87c-5.493 4.849-12.714 7.798-20.616 7.798s-15.124-2.948-20.616-7.798c5.5-4.849 12.714-7.798 20.616-7.798s15.116 2.949 20.616 7.798z" fill="#ff4155"/></g></g><g><path d="m310.999 162.085c.043-3.495-1.371-7.004-4.242-9.539-4.675-4.128-11.84-4.128-16.515 0-2.871 2.535-4.284 6.044-4.242 9.539.055 4.538 5.629 6.716 8.838 3.507 2.022-2.022 5.3-2.022 7.322 0 3.21 3.21 8.784 1.032 8.839-3.507z" fill="#162544"/></g><g><path d="m201.001 162.085c-.043-3.495 1.371-7.004 4.242-9.539 4.675-4.128 11.84-4.128 16.515 0 2.871 2.535 4.284 6.044 4.242 9.539-.055 4.538-5.629 6.716-8.838 3.507-2.022-2.022-5.3-2.022-7.322 0-3.21 3.21-8.784 1.032-8.839-3.507z" fill="#162544"/></g><g><path d="m456.951 407.165c-44.286 63.374-117.771 104.835-200.951 104.835s-156.665-41.461-200.951-104.835c.001-.009.001-.017.002-.026 8.256-22.709 16.99-42.685 24.722-51.911 0 0 53.099 51.559 176.227 51.559s176.227-51.559 176.227-51.559c7.732 9.226 16.467 29.203 24.722 51.911.001.009.001.018.002.026z" fill="#3c5082"/></g><g><path d="m291.92 509.377c-63.449-13.789-109.442-78.629-114.318-110.419-67.632-14.422-97.829-43.73-97.829-43.73-7.732 9.226-16.467 29.203-24.722 51.911-.001.009-.001.018-.002.026 44.286 63.374 117.771 104.835 200.951 104.835 12.204 0 24.196-.899 35.92-2.623z" fill="#2d3c6b"/></g><g><path d="m120.812 471.33c-.075-.212-8.769-24.824 4.705-53.619 2.512-5.369-4.447-10.154-8.544-5.871-8.577 8.966-17.032 22.169-20.587 41.004 7.736 6.653 15.895 12.828 24.426 18.486z" fill="#213159"/></g><g><path d="m391.188 471.33c.075-.212 8.769-24.824-4.705-53.619-2.512-5.369 4.447-10.154 8.544-5.871 8.577 8.966 17.032 22.169 20.587 41.004-7.736 6.653-15.895 12.828-24.426 18.486z" fill="#2d3c6b"/></g></g></svg>