<svg height="512pt" viewBox="0 0 512 512" width="512pt" xmlns="http://www.w3.org/2000/svg"><path d="m512 256c0 76.320312-33.398438 144.851562-86.390625 191.75-7.917969 7.019531-16.28125 13.550781-25.039063 19.539062-.320312.230469-.640624.441407-.960937.660157-8.03125 5.449219-16.390625 10.460937-25.039063 14.980469-1.820312.96875-3.671874 1.898437-5.519531 2.808593-8.421875 4.160157-17.089843 7.863281-26 11.070313-27.171875 9.832031-56.492187 15.191406-87.050781 15.191406-30.570312 0-59.878906-5.359375-87.058594-15.199219-8.910156-3.210937-17.582031-6.910156-26-11.0625-1.851562-.910156-3.703125-1.847656-5.519531-2.808593-8.652344-4.53125-17.011719-9.53125-25.042969-14.988282-.320312-.210937-.640625-.429687-.957031-.652344-8.761719-6-17.121094-12.527343-25.042969-19.550781-52.980468-46.898437-86.378906-115.417969-86.378906-191.738281 0-141.378906 114.621094-256 256-256s256 114.621094 256 256zm0 0" fill="#40b4d3"/><path d="m122.535156 325.289062h278.035156v131.6875h-278.035156zm0 0" fill="#2f373b"/><path d="m398.410156 468.761719c-12.339844 8.277343-25.441406 15.519531-39.179687 21.566406-10.652344 4.703125-21.679688 8.703125-33.03125 11.921875-22.300781 6.351562-45.847657 9.75-70.199219 9.75-24.339844 0-47.890625-3.398438-70.199219-9.738281-7.242187-2.0625-14.359375-4.441407-21.332031-7.121094-.429688-.160156-.859375-.320313-1.289062-.492187-3.507813-1.359376-6.980469-2.808594-10.410157-4.320313-13.738281-6.058594-26.839843-13.289063-39.191406-21.578125 10.390625-14.371094 23.761719-26.429688 39.191406-35.320312 10.199219-5.871094 21.300781-10.339844 33.03125-13.148438 1.808594-.441406 3.640625-.839844 5.480469-1.191406 3.46875-.679688 7-1.199219 10.570312-1.570313 1.027344-.109375 2.046876-.210937 3.089844-.289062 3.378906-.28125 6.796875-.421875 10.257813-.421875h81.589843c4.519532 0 8.972657.242187 13.351563.703125 3.570313.367187 7.089844.898437 10.570313 1.558593 1.390624.269532 2.769531.558594 4.140624.871094.449219.117188.910157.207032 1.347657.328125 11.742187 2.820313 22.832031 7.289063 33.03125 13.160157 15.429687 8.898437 28.789062 20.960937 39.179687 35.332031zm0 0" fill="#ffbb16"/><path d="m215.199219 416.808594c-29.359375 0-49.257813 42.429687-50.730469 78.332031-.429688-.160156-.859375-.320313-1.289062-.492187-3.507813-1.359376-6.980469-2.808594-10.410157-4.320313-13.738281-6.058594-26.839843-13.289063-39.191406-21.578125 10.390625-14.371094 23.761719-26.429688 39.191406-35.320312 10.199219-5.871094 21.300781-10.339844 33.03125-13.148438 1.808594-.441406 3.640625-.839844 5.480469-1.191406 3.46875-.679688 7-1.199219 10.570312-1.570313 1.027344-.109375 2.046876-.210937 3.089844-.289062 3.378906-.28125 6.796875-.421875 10.257813-.421875zm0 0" fill="#ff931f"/><path d="m300.707031 368.539062v54.867188c0 20.089844-13.246093 37.066406-31.488281 42.707031-4.179688 1.296875-8.628906 1.996094-13.230469 1.996094-24.691406 0-44.703125-20.011719-44.703125-44.703125v-54.867188zm0 0" fill="#efb29a"/><path d="m300.707031 419.933594v3.472656c0 20.089844-13.246093 37.066406-31.488281 42.707031-16.460938-5.058593-28.839844-19.371093-31.125-36.882812 2.988281.183593 5.992188.273437 9.007812.273437 8.460938 0 16.75-.671875 24.828126-1.996094 9.953124-1.601562 19.570312-4.160156 28.777343-7.574218zm0 0" fill="#f9c5ac"/><path d="m132.539062 278.152344c0 20.496094-14.972656 37.492187-34.578124 40.648437-2.144532.34375-4.347657.527344-6.597657.527344-22.746093 0-41.171875-18.429687-41.171875-41.175781s18.425782-41.175782 41.171875-41.175782c2.25 0 4.453125.179688 6.597657.527344 19.605468 3.15625 34.578124 20.152344 34.578124 40.648438zm0 0" fill="#f9c5ac"/><path d="m132.539062 278.152344c0 20.496094-14.972656 37.492187-34.578124 40.648437-3.5625-12.953125-5.464844-26.582031-5.464844-40.648437s1.902344-27.695313 5.464844-40.644532c19.605468 3.152344 34.578124 20.148438 34.578124 40.644532zm0 0" fill="#efb29a"/><path d="m106.082031 278.152344c0 8.128906-6.589843 14.714844-14.71875 14.714844-8.125 0-14.714843-6.585938-14.714843-14.714844 0-8.125 6.589843-14.714844 14.714843-14.714844 8.128907 0 14.71875 6.589844 14.71875 14.714844zm0 0" fill="#efb29a"/><path d="m379.449219 278.152344c0 20.496094 14.972656 37.492187 34.578125 40.648437 2.144531.34375 4.347656.527344 6.597656.527344 22.746094 0 41.175781-18.429687 41.175781-41.175781s-18.429687-41.175782-41.175781-41.175782c-2.25 0-4.453125.179688-6.597656.527344-19.605469 3.15625-34.578125 20.152344-34.578125 40.648438zm0 0" fill="#f9c5ac"/><path d="m379.449219 278.152344c0 20.496094 14.972656 37.492187 34.578125 40.648437 3.5625-12.953125 5.464844-26.582031 5.464844-40.648437s-1.902344-27.695313-5.464844-40.644532c-19.605469 3.152344-34.578125 20.148438-34.578125 40.644532zm0 0" fill="#efb29a"/><path d="m435.339844 278.152344c0 8.128906-6.589844 14.714844-14.714844 14.714844-8.128906 0-14.71875-6.585938-14.71875-14.714844 0-8.125 6.589844-14.714844 14.71875-14.714844 8.125 0 14.714844 6.589844 14.714844 14.714844zm0 0" fill="#efb29a"/><path d="m410.695312 256.511719c0 76.984375-56.242187 140.847656-129.871093 152.703125-8.078125 1.328125-16.371094 2-24.828125 2-85.445313 0-154.703125-69.257813-154.703125-154.703125v-157.5h309.402343zm0 0" fill="#f9c5ac"/><path d="m283.242188 408.808594c-.800782.140625-1.609376.28125-2.417969.410156-8.082031 1.320312-16.371094 1.992188-24.832031 1.992188-85.4375 0-154.699219-69.25-154.699219-154.699219v-157.5h54.550781v157.5c0 76.136719 54.980469 139.410156 127.398438 152.296875zm0 0" fill="#efb29a"/><path d="m255.996094 337.929688c-12.957032 0-25.910156-3.246094-37.71875-9.738282-3.328125-1.828125-4.542969-6.011718-2.714844-9.34375 1.832031-3.332031 6.015625-4.546875 9.347656-2.714844 19.464844 10.699219 42.707032 10.699219 62.167969 0 3.332031-1.832031 7.515625-.617187 9.347656 2.714844 1.832031 3.332032.617188 7.515625-2.714843 9.34375-11.808594 6.492188-24.761719 9.738282-37.714844 9.738282zm0 0" fill="#dd9f8a"/><path d="m273.542969 291.695312h-35.097657c-4.179687 0-7.570312-3.390624-7.570312-7.570312 0-4.183594 3.390625-7.570312 7.570312-7.570312h35.097657c4.183593 0 7.570312 3.386718 7.570312 7.570312 0 4.179688-3.386719 7.570312-7.570312 7.570312zm0 0" fill="#efb29a"/><path d="m281.339844 249.160156c0 17.164063 13.914062 31.082032 31.082031 31.082032 17.164063 0 31.078125-13.917969 31.078125-31.082032" fill="#efb29a"/><path d="m334.707031 249.160156c0 12.308594-9.976562 22.289063-22.285156 22.289063-12.3125 0-22.289063-9.980469-22.289063-22.289063s9.976563-22.285156 22.289063-22.285156c12.308594 0 22.285156 9.976562 22.285156 22.285156zm0 0" fill="#2f373b"/><path d="m331.257812 245.226562c0 5.277344-4.277343 9.550782-9.550781 9.550782-5.273437 0-9.550781-4.273438-9.550781-9.550782 0-5.273437 4.277344-9.546874 9.550781-9.546874 5.273438 0 9.550781 4.273437 9.550781 9.546874zm0 0" fill="#fff"/><path d="m168.488281 249.160156c0 17.164063 13.917969 31.082032 31.082031 31.082032 17.164063 0 31.078126-13.917969 31.078126-31.082032" fill="#efb29a"/><path d="m221.855469 249.160156c0 12.308594-9.976563 22.289063-22.285157 22.289063-12.308593 0-22.289062-9.980469-22.289062-22.289063s9.980469-22.285156 22.289062-22.285156c12.308594 0 22.285157 9.976562 22.285157 22.285156zm0 0" fill="#2f373b"/><path d="m204.78125 270.832031c-1.667969.410157-3.417969.617188-5.210938.617188-12.308593 0-22.289062-9.976563-22.289062-22.289063 0-12.308594 9.980469-22.289062 22.289062-22.289062 1.792969 0 3.542969.210937 5.210938.621094-9.800781 2.339843-17.070312 11.160156-17.070312 21.667968 0 10.511719 7.269531 19.332032 17.070312 21.671875zm0 0" fill="#181e21"/><path d="m317.632812 270.832031c-1.671874.410157-3.421874.617188-5.210937.617188-12.308594 0-22.289063-9.976563-22.289063-22.289063 0-12.308594 9.980469-22.289062 22.289063-22.289062 1.789063 0 3.539063.210937 5.210937.621094-9.800781 2.339843-17.070312 11.160156-17.070312 21.667968 0 10.511719 7.269531 19.332032 17.070312 21.671875zm0 0" fill="#181e21"/><path d="m218.40625 245.226562c0 5.277344-4.273438 9.550782-9.546875 9.550782-5.277344 0-9.550781-4.273438-9.550781-9.550782 0-5.273437 4.273437-9.546874 9.550781-9.546874 5.273437 0 9.546875 4.273437 9.546875 9.546874zm0 0" fill="#fff"/><path d="m162.289062 162.589844c-7.390624 18.148437-15.597656 29.082031-22.847656 38.71875-14.519531 19.332031-27.0625 36.019531-27.0625 118v148.632812c-.320312-.210937-.640625-.429687-.957031-.652344-8.761719-6-17.121094-12.527343-25.042969-19.550781v-128.429687c0-90.660156 15.679688-111.527344 32.28125-133.617188 6.910156-9.191406 13.429688-17.882812 19.558594-32.902344l21.171875 8.621094zm0 0" fill="#bd5423"/><path d="m218.859375 162.589844c-7.390625 18.148437-15.609375 29.082031-22.847656 38.71875-14.53125 19.332031-27.070313 36.019531-27.070313 118v177.492187c-8.910156-3.210937-17.582031-6.910156-26-11.0625v-166.429687c0-68.429688 8.929688-97.097656 20.449219-116.539063 3.75-6.320312 7.757813-11.660156 11.828125-17.078125.5625-.742187 1.121094-1.492187 1.671875-2.230468 6.300781-8.410157 12.269531-16.871094 17.890625-30.671876zm0 0" fill="#bd5423"/><path d="m187.339844 162.589844c-3.371094 8.261718-6.910156 15.039062-10.449219 20.871094-4.230469 6.96875-8.460937 12.597656-12.402344 17.847656-.367187.492187-.726562.972656-1.097656 1.460937-14.0625 18.75-25.96875 36.628907-25.96875 116.539063v163.621094c-8.652344-4.53125-17.011719-9.53125-25.042969-14.988282-.320312-.210937-.640625-.429687-.957031-.652344v-147.980468c0-90.660156 15.679687-111.527344 32.277344-133.617188 5.472656-7.28125 10.699219-14.242187 15.691406-24.28125 1.300781-2.640625 2.597656-5.488281 3.871094-8.621094zm0 0" fill="#d9723e"/><path d="m425.609375 319.308594v128.441406c-7.917969 7.019531-16.28125 13.550781-25.039063 19.539062-.320312.230469-.640624.441407-.960937.660157v-148.640625c0-81.980469-12.539063-98.667969-27.058594-118-7.25-9.636719-15.460937-20.570313-22.851562-38.71875l2.902343-1.179688 21.167969-8.621094c6.128907 15.019532 12.652344 23.710938 19.558594 32.902344 16.601563 22.089844 32.28125 42.957032 32.28125 133.617188zm0 0" fill="#bd5423"/><path d="m369.050781 319.308594v166.429687c-8.421875 4.160157-17.089843 7.863281-26 11.070313v-177.5c0-81.980469-12.539062-98.667969-27.070312-118-7.25-9.636719-15.460938-20.570313-22.851563-38.71875l24.082032-9.800782c5.617187 13.789063 11.578124 22.242188 17.878906 30.652344.550781.75 1.121094 1.5 1.679687 2.25 4.070313 5.417969 8.082031 10.757813 11.832031 17.078125 11.519532 19.441407 20.449219 48.109375 20.449219 116.539063zm0 0" fill="#bd5423"/><path d="m400.570312 319.308594v147.980468c-.320312.230469-.640624.441407-.960937.660157-8.03125 5.449219-16.390625 10.460937-25.039063 14.980469v-163.621094c0-79.910156-11.921874-97.789063-25.96875-116.539063-.371093-.488281-.730468-.96875-1.101562-1.460937-3.949219-5.25-8.179688-10.886719-12.410156-17.867188-3.539063-5.820312-7.078125-12.601562-10.441406-20.851562l24.082031-9.800782c1.269531 3.132813 2.570312 5.980469 3.871093 8.621094 4.988282 10.039063 10.21875 17 15.6875 24.28125 16.601563 22.089844 32.28125 42.957032 32.28125 133.617188zm0 0" fill="#d9723e"/><path d="m434.015625 177.550781c-.570313 7.097657 8.734375 13.738281 7.335937 19.917969-3.511718 15.429688-9.492187 28.089844-17.191406 38.453125-5.738281 7.71875-17.398437 7.058594-22.28125-1.230469-14.507812-24.652344-51.898437-61.371094-145.878906-61.371094s-131.371094 36.71875-145.878906 61.371094c-4.882813 8.289063-16.542969 8.949219-22.28125 1.230469-7.699219-10.363281-13.679688-23.023437-17.191406-38.453125-1.398438-6.179688 2.863281-18.089844 2.292968-25.191406-7.257812-91.019532 67.1875-121.683594 125.398438-143.945313 33.910156-12.96875 71.410156-12.96875 105.320312 0 58.207032 22.261719 137.613282 58.199219 130.355469 149.21875zm0 0" fill="#42b7a1"/><path d="m256 6.25c-8.160156 0-16.308594 3.25-24.058594 9.730469-26.601562 22.257812-65.3125 70.550781-61.992187 161.570312.121093 3.238281.28125 6.378907.480469 9.417969-33.898438 12.941406-51.410157 32.601562-60.308594 47.722656-4.882813 8.289063-16.542969 8.949219-22.28125 1.230469-7.699219-10.363281-13.679688-23.023437-17.191406-38.453125-1.398438-6.179688 2.863281-18.089844 2.292968-25.191406-7.257812-91.019532 74.074219-128.78125 132.285156-151.039063 16.949219-6.480469 32.921876-14.988281 50.773438-14.988281zm0 0" fill="#289983"/><path d="m444.328125 177.550781c-.566406 7.097657-1.578125 13.738281-2.976563 19.917969-23.273437-31.449219-74.453124-70.207031-185.351562-70.207031-33.28125 0-61.179688 3.488281-84.558594 9.21875-54.542968 13.378906-84.5 38.980469-100.792968 60.988281-1.398438-6.179688 2.863281-18.089844 2.292968-25.191406-1.71875-21.550782 5.550782-35.4375 12.570313-52.417969 22.628906-54.738281 75.285156-81.632813 119.714843-98.621094 16.242188-6.210937 31.421876-7.730469 48.511719-7.980469 18.613281-.300781 30.570313 2.644532 48.242188 9.402344 44.429687 16.992188 110.980469 42.460938 133.609375 97.199219 7.019531 16.980469 10.460937 36.140625 8.738281 57.691406zm0 0" fill="#ffbb16"/><path d="m254.511719 6.289062c-7.660157.371094-15.292969 3.601563-22.570313 9.691407-22.269531 18.640625-53.042968 55.539062-60.5 120.5-54.542968 13.378906-84.5 38.980469-100.792968 60.988281-1.398438-6.179688-2.410157-12.820312-2.976563-19.917969-1.722656-21.550781 1.71875-40.710937 8.738281-57.691406 22.628906-54.738281 82.5-79.914063 126.929688-96.902344 16.238281-6.210937 33.308594-9.449219 50.398437-9.699219.25.007813.511719-6.957031.773438-6.96875zm0 0" fill="#ff931f"/><path d="m435.589844 119.859375c-29.890625-28.199219-83.628906-55.597656-179.589844-55.597656s-149.699219 27.398437-179.589844 55.597656c22.628906-54.738281 82.5-86.890625 126.929688-103.878906 33.910156-12.96875 71.410156-12.96875 105.320312 0 44.429688 16.988281 104.300782 49.140625 126.929688 103.878906zm0 0" fill="#f93d6e"/><path d="m76.410156 119.859375c22.28125-21.019531 57.824219-41.597656 114.226563-50.710937 12.457031-25.214844 28.316406-42.300782 41.304687-53.167969 7.277344-6.085938 14.910156-9.324219 22.574219-9.695313-.097656.003906-.199219-.007812-.296875-.011718-17.257812.207031-34.488281 3.4375-50.878906 9.707031-44.429688 16.988281-104.300782 49.140625-126.929688 103.878906zm0 0" fill="#e41753"/></svg>