<svg id="Capa_1" enable-background="new 0 0 512 512" height="512" viewBox="0 0 512 512" width="512" xmlns="http://www.w3.org/2000/svg"><g><path d="m0 256c0-141.385 114.615-256 256-256s256 114.615 256 256c0 80.844-37.474 152.936-96 199.852-2.04 1.636-102.278-46.519-160-46.519s-157.96 48.154-160 46.519c-58.526-46.916-96-119.008-96-199.852z" fill="#4172cc"/><path d="m462.83 256c0 114.229-92.601 206.83-206.83 206.83s-206.83-92.601-206.83-206.83 92.601-206.83 206.83-206.83 206.83 92.601 206.83 206.83z" fill="#6990d7"/><path d="m166 313.416h29.66s1.661 1.002-.142 1.363c-32.043 6.414-56.184 34.706-56.184 68.637v86.281c0 6.516-7.081 10.555-12.701 7.257-10.735-6.299-20.97-13.358-30.632-21.103v-72.435c-.001-38.66 31.339-70 69.999-70z" fill="#ffd993"/><path d="m416 383.416v72.435c-18.23 14.614-38.503 26.785-60.322 36.017-.922.39-2.645-2.057-3.572-1.677-3.034 1.242-6.097 2.427-9.189 3.554-1.01.368-1.224 3.562-2.239 3.918-26.505 9.287-55.002 14.337-84.678 14.337s-58.173-5.05-84.678-14.337c-1.693-.593-2.496-4.419-4.172-5.046-2.233-.836-4.452-1.702-6.655-2.598-1.101-.448-3.08 2.312-4.173 1.85-10.482-4.435-20.608-9.549-30.321-15.286v-93.166c0-38.66 31.34-70 70-70h5l8.532 6.605h89.128l12.34-6.605h35c38.659-.001 69.999 31.339 69.999 69.999z" fill="#ffe7c0"/><path d="m171.322 411.354v86.309c-5.075-1.778-10.077-3.711-15-5.795v-80.515c0-4.142 3.358-7.5 7.5-7.5s7.5 3.359 7.5 7.501zm176.856-7.5c-4.142 0-7.5 3.358-7.5 7.5v86.309c5.075-1.778 10.077-3.711 15-5.795v-80.515c0-4.141-3.357-7.499-7.5-7.499z" fill="#ffcd71"/><path d="m256 453.416c-30.376 0-55-24.624-55-55v-85h110v85c0 30.376-24.624 55-55 55z" fill="#fb5858"/><path d="m264.692 452.733c-2.831.45-5.735.683-8.692.683-30.376 0-55-24.624-55-55v-85h17.385v85c0 27.418 20.062 50.15 46.307 54.317z" fill="#c83c50"/><path d="m236.539 401.817-2.037 2.037 2.037 2.037c2.343 2.343 2.343 6.142 0 8.485-2.343 2.343-6.142 2.343-8.485 0l-2.037-2.037-2.037 2.037c-2.343 2.343-6.142 2.343-8.485 0s-2.343-6.142 0-8.485l2.037-2.037-2.037-2.037c-2.343-2.343-2.343-6.142 0-8.485s6.142-2.343 8.485 0l2.037 2.037 2.037-2.037c2.343-2.343 6.142-2.343 8.485 0 2.343 2.343 2.343 6.142 0 8.485zm59.966-8.485c-2.343-2.343-6.142-2.343-8.485 0l-2.037 2.037-2.037-2.037c-2.343-2.343-6.142-2.343-8.485 0-2.343 2.343-2.343 6.142 0 8.485l2.037 2.037-2.037 2.037c-2.343 2.343-2.343 6.142 0 8.485 2.343 2.343 6.142 2.343 8.485 0l2.037-2.037 2.037 2.037c2.343 2.343 6.142 2.343 8.485 0s2.343-6.142 0-8.485l-2.037-2.037 2.037-2.037c2.344-2.343 2.344-6.142 0-8.485zm-78.42-36.837c3.314 0 6-2.686 6-6s-2.686-6-6-6c-3.313 0-6 2.686-6 6s2.686 6 6 6zm75.83 0c3.313 0 6-2.686 6-6s-2.687-6-6-6c-3.314 0-6 2.686-6 6s2.686 6 6 6z" fill="#fd9a9a"/><path d="m221.021 366.18c-3.313 0-6 2.686-6 6s2.687 6 6 6c3.314 0 6-2.686 6-6s-2.686-6-6-6zm69.447 0c-3.314 0-6 2.686-6 6s2.686 6 6 6c3.313 0 6-2.686 6-6s-2.686-6-6-6zm-23.946 49.62c-2.343-2.343-6.142-2.343-8.485 0l-2.037 2.037-2.037-2.037c-2.343-2.343-6.142-2.343-8.485 0s-2.343 6.142 0 8.485l2.037 2.037-2.037 2.037c-2.343 2.343-2.343 6.142 0 8.485s6.142 2.343 8.485 0l2.037-2.037 2.037 2.037c2.343 2.343 6.142 2.343 8.485 0s2.343-6.142 0-8.485l-2.037-2.037 2.037-2.037c2.343-2.343 2.343-6.142 0-8.485zm-50.99-92.989c-3.313 0-6 2.686-6 6s2.687 6 6 6c3.314 0 6-2.686 6-6s-2.686-6-6-6zm80.936 0c-3.313 0-6 2.686-6 6s2.687 6 6 6c3.314 0 6-2.686 6-6s-2.686-6-6-6z" fill="#ffd993"/><path d="m396 118.957c0 49.853-38.399 90.736-87.234 94.687-48.835-3.951-87.234-44.834-87.234-94.687 0-49.852 38.399-90.736 87.234-94.687 48.835 3.952 87.234 44.835 87.234 94.687z" fill="#ffc14f"/><path d="m273.5 213.958h-62.5c-52.467 0-95-42.533-95-95 0-52.467 42.533-95 95-95h62.5c-52.467 0-95 42.533-95 95 0 52.467 42.533 95 95 95z" fill="#ffb52d"/><path d="m171 188.416v10c0 13.807-11.193 25-25 25s-25-11.193-25-25v-10c0-13.807 11.193-25 25-25s25 11.193 25 25z" fill="#ffcdbe"/><path d="m136 183.416v20c0 8.178 3.927 15.439 9.998 20-13.806-.001-24.998-11.194-24.998-25v-10c0-13.806 11.192-24.999 24.998-25-6.071 4.561-9.998 11.822-9.998 20zm230-20v-20c0-60.751-49.249-110-110-110-60.751 0-110 49.249-110 110v40c0 50.351 33.83 92.801 80 105.859v24.141l20.331 76.984c2.622 9.929 16.715 9.929 19.337 0l20.332-76.984v-24.141c33.586-9.499 60.641-34.551 72.895-66.883 2.252.667 4.637 1.024 7.105 1.024 13.807 0 25-11.193 25-25v-10c0-13.807-11.193-25-25-25z" fill="#ffbeaa"/><path d="m366 143.416v40c0 50.792-34.425 93.543-81.216 106.195-9.023 2.44-18.545 2.44-27.568 0-46.791-12.652-81.216-55.403-81.216-106.195v-40c0-55.663 41.345-101.669 95-108.985 53.655 7.316 95 53.322 95 108.985z" fill="#ffcdbe"/><path d="m270.5 190.147c-3.875 3.875-9.024 6.009-14.5 6.009s-10.625-2.134-14.5-6.009c-2.929-2.93-2.929-7.678 0-10.607 2.929-2.928 7.678-2.928 10.606 0 1.042 1.042 2.424 1.616 3.893 1.616s2.851-.574 3.893-1.616c2.929-2.928 7.678-2.928 10.606 0 2.931 2.93 2.931 7.678.002 10.607z" fill="#faa68e"/><path d="m223.5 150.916c0 8.284-6.716 15-15 15s-15-6.716-15-15 6.716-15 15-15 15 6.716 15 15zm80-15c-8.284 0-15 6.716-15 15s6.716 15 15 15 15-6.716 15-15-6.716-15-15-15z" fill="#274c91"/><path d="m226 143.416c0 4.142-3.358 7.5-7.5 7.5s-7.5-3.358-7.5-7.5 3.358-7.5 7.5-7.5 7.5 3.358 7.5 7.5zm87.5-7.5c-4.142 0-7.5 3.358-7.5 7.5s3.358 7.5 7.5 7.5 7.5-3.358 7.5-7.5-3.358-7.5-7.5-7.5z" fill="#fff5f5"/><path d="m256 253.416c-16.569 0-30-13.431-30-30 0-4.142 3.358-7.5 7.5-7.5h45c4.142 0 7.5 3.358 7.5 7.5 0 16.569-13.431 30-30 30z" fill="#fff5f5"/><path d="m263.5 252.471c-2.397.617-4.91.945-7.5.945-16.568 0-30-13.431-30-30 0-4.142 3.358-7.5 7.5-7.5h15c-4.142 0-7.5 3.358-7.5 7.5 0 13.979 9.561 25.725 22.5 29.055z" fill="#def4f8"/><path d="m372 76.979v46.979h-1.841c-29.48 0-57.753-10.865-78.598-30.206l-13.476-12.502v42.708h-67.085c-27.965 0-50.635-21.033-50.635-46.979 0-25.946 22.67-46.979 50.635-46.979h110.365c27.965 0 50.635 21.033 50.635 46.979z" fill="#ffc14f"/><path d="m223.135 123.958h-32.5c-27.965 0-50.635-21.033-50.635-46.979 0-25.946 22.67-46.979 50.635-46.979h32.5c-27.965 0-50.635 21.033-50.635 46.979 0 25.945 22.67 46.979 50.635 46.979z" fill="#ffb52d"/><path d="m372 30c0 16.569-13.431 30-30 30h-172c-16.569 0-30-13.431-30-30 0-16.569 13.431-30 30-30h172c16.569 0 30 13.431 30 30z" fill="#c83c50"/><path d="m195.915 60h-25.915c-16.569 0-30-13.431-30-30s13.431-30 30-30h25.915c-16.569 0-30 13.431-30 30s13.431 30 30 30z" fill="#b03244"/><path d="m390 65h-219.635c-5.523 0-10-4.477-10-10s4.477-10 10-10h219.635c5.523 0 10 4.477 10 10s-4.477 10-10 10z" fill="#fc7979"/><path d="m176.085 65h-36.085c-5.523 0-10-4.477-10-10s4.477-10 10-10h36.085c-5.523 0-10 4.477-10 10s4.477 10 10 10z" fill="#fb5858"/></g></svg>