<svg id="Capa_1" enable-background="new 0 0 512 512" height="512" viewBox="0 0 512 512" width="512" xmlns="http://www.w3.org/2000/svg"><g><path d="m415.336 111.511c0-61.586-49.925-111.511-111.511-111.511-17.108 0-33.313 3.857-47.801 10.742-.008-.004-.016-.007-.024-.011l-10 162.145 169.336-10z" fill="#ff7c48"/><path d="m208.223 0c-61.586 0-111.511 49.925-111.511 111.511v51.365l159.288 10v-162.145c-14.482-6.877-30.678-10.731-47.777-10.731z" fill="#ffb655"/><path d="m81.757 222.91s-26.887 45.244-6.21 134.257h180.453v-134.257z" fill="#ffb655"/><path d="m430.243 222.91h-174.243v134.257h180.453c20.676-89.012-6.21-134.257-6.21-134.257z" fill="#ff7c48"/><path d="m75.547 357.167c-26.077 8.644-43.68 33.025-43.68 60.497v94.336h98.374l-5.481-81.35-25.48-81.35z" fill="#574d8c"/><path d="m480.133 417.664c0-27.472-17.603-51.853-43.68-60.497l-23.733-7.867-25.481 81.35-5.481 81.35h98.374v-94.336z" fill="#332866"/><path d="m383.993 339.777-24.176 74.497-8.597 97.726h30.538l30.962-162.7z" fill="#180a33"/><path d="m99.28 349.3 30.962 162.7h30.538l-8.597-97.726-24.176-74.497z" fill="#332866"/><path d="m256 512h95.22l18.597-97.726-123.817-10z" fill="#ece6f2"/><path d="m142.183 414.274 18.597 97.726h95.22v-107.726z" fill="#fff5f5"/><path d="m369.817 414.274 14.176-74.497-49.371-16.366h-88.622l10 90.863z" fill="#ffcdbe"/><path d="m128.007 339.777 14.176 74.497h113.817v-90.863h-78.622z" fill="#ffdecf"/><path d="m373.421 226.611h41.915c17.6 0 31.868-14.268 31.868-31.868 0-17.6-14.268-31.868-31.868-31.868h-31.867z" fill="#ffcdbe"/><path d="m138.579 226.611h-41.915c-17.6 0-31.868-14.268-31.868-31.868 0-17.6 14.268-31.868 31.868-31.868h31.867z" fill="#ffdecf"/><path d="m383.444 162.876c-20.397 0-47.796-2.591-81.436-7.703-16.972-2.579-32.479-11.178-43.665-24.215-.806-.939-1.578-1.902-2.331-2.878-.004.005-.008.01-.012.014l-10 79.041 10 143.403c70.399 0 127.469-57.07 127.469-127.469v-60.195h-.025z" fill="#ffdecf"/><path d="m253.681 130.959c-11.187 13.037-26.693 21.636-43.665 24.215-33.64 5.111-61.04 7.703-81.437 7.703h-.048v60.195c0 70.399 57.07 127.469 127.469 127.469v-222.445c-.75.97-1.518 1.928-2.319 2.863z" fill="#ffeee5"/><path d="m295.834 192.137h31.867v30h-31.867z" fill="#180a33"/><path d="m184.299 192.137h31.867v30h-31.867z" fill="#332866"/></g></svg>