<svg id="Capa_1" enable-background="new 0 0 512 512" height="512" viewBox="0 0 512 512" width="512" xmlns="http://www.w3.org/2000/svg"><g><g><path d="m456.951 407.165c27.755-39.717 44.049-88.035 44.049-140.165 0-135.31-109.69-245-245-245s-245 109.69-245 245c0 52.13 16.294 100.448 44.049 140.165z" fill="#49d88b"/></g><g><circle cx="256" cy="242" fill="#38c674" r="200"/></g><g><path d="m371.024 80.539c-19.237-42.751-54.036-80.539-91.586-80.539-15.198 0-23.436 14.907-23.436 14.907s-8.243-14.907-23.44-14.907c-37.549 0-72.349 37.788-91.586 80.539-13.64 29.473-56.178 72.443-37.096 112.124 5.96 12.394 7.279 26.386 4.195 39.788-1.125 4.892-1.477 9.848-.798 14.896 4.685 34.868 46.946 93.951 148.725 93.951s144.036-59.082 148.721-93.951c.678-5.048.327-10.005-.798-14.896-3.083-13.402-1.765-27.395 4.195-39.788 19.082-39.681-23.456-82.652-37.096-112.124z" fill="#2d3c6b"/></g><g><path d="m196.304 88.696s-12.73-73.073 23.372-87.211c-32.497 7.337-61.687 41.244-78.7 79.054-13.64 29.473-56.178 72.443-37.096 112.124 5.96 12.394 7.279 26.386 4.195 39.788-1.125 4.892-1.477 9.848-.798 14.896 4.685 34.868 46.946 93.95 148.723 93.951v-54.388l-59.696-106.718z" fill="#213159"/></g><g><path d="m432.933 356.098h-353.866c-7.555 9.572-16.01 29.021-24.016 51.041-.001.009-.001.018-.002.026 13.312 19.05 29.274 36.107 47.333 50.665h307.235c18.06-14.558 34.021-31.615 47.333-50.665-.001-.009-.001-.017-.002-.026-8.004-22.019-16.46-41.469-24.015-51.041z" fill="#4fabf7"/></g><g><path d="m79.067 356.098c-7.555 9.572-16.01 29.021-24.016 51.041-.001.009-.001.018-.002.026 13.315 19.054 29.286 36.108 47.354 50.665h118.571c-25.606-25.413-42.969-58.271-49.575-101.732z" fill="#2e8be6"/></g><g><path d="m429.558 352.438c-6.623-5.848-19.39-11.382-34.352-16.323-37.929-12.525-89.967-21.232-91.82-21.54h-94.772c-1.853.307-53.892 9.014-91.82 21.54-14.961 4.941-27.729 10.475-34.352 16.323-.874.772-1.765 1.712-2.668 2.79-.235.28-.47.571-.707.871 44.596 46.551 107.378 75.54 176.933 75.54s132.337-28.99 176.933-75.54c-.237-.3-.472-.591-.707-.871-.903-1.079-1.794-2.019-2.668-2.79z" fill="#a05838"/></g><g><path d="m181.159 395.255c-7.588-20.983-11.96-45.066-12.65-72.83v-.001c-16.433 3.612-35.381 8.297-51.715 13.691-14.961 4.941-27.729 10.475-34.352 16.323-.874.772-1.765 1.712-2.668 2.79-.235.28-.47.571-.707.871 30.989 32.346 70.763 56.2 115.484 67.754-5.193-8.841-9.683-18.343-13.392-28.598z" fill="#934a2e"/></g><g><path d="m276.616 369.362s10.767-11.809 23.703-11.809 55.191 11.809 55.191 11.809z" fill="#934a2e"/></g><g><path d="m235.384 369.362s-10.767-11.809-23.703-11.809-55.191 11.809-55.191 11.809z" fill="#934a2e"/></g><g><path d="m391.147 471.33c6.374-4.223 12.555-8.713 18.491-13.499-4.027-11.7-11.689-21.884-21.736-29.06v42.559z" fill="#2e8be6"/></g><g><path d="m124.098 471.33v-42.559c-10.047 7.176-17.708 17.36-21.736 29.06 5.936 4.786 12.117 9.277 18.491 13.499z" fill="#1a7fd3"/></g><g><path d="m177.575 395.255c-37.77 0-66.143 34.911-57.928 71.776.604 2.713 1.146 4.246 1.165 4.298v.009c38.748 25.688 85.216 40.662 135.188 40.662 49.971 0 96.439-14.974 135.187-40.661l.001-.009c.019-.052.56-1.586 1.165-4.298 8.215-36.866-20.158-71.776-57.928-71.776h-156.85z" fill="#73c3f9"/></g><g><path d="m301.031 507.862c-56.84-22.966-99.707-56.85-119.872-112.606h-3.584c-37.77 0-66.143 34.911-57.928 71.776.604 2.713 1.146 4.246 1.165 4.298v.009c38.748 25.687 85.216 40.661 135.188 40.661 15.384 0 30.434-1.424 45.031-4.138z" fill="#4fabf7"/></g><g><path d="m208.614 221.239v93.336s19.021 20.093 47.17 20.093c.073 0 .143-.005.216-.005 28.031-.103 47.386-20.088 47.386-20.088v-93.336z" fill="#a05838"/></g><g><path d="m208.614 220.734v93.841c94.723 0 94.772-53.4 94.772-53.4v-40.44h-94.772z" fill="#934a2e"/></g><g><path d="m180.942 159.567s-10.385-25.285-28.897-19.415.448 60.664 36.573 64.116z" fill="#934a2e"/></g><g><path d="m331.058 159.567s10.385-25.285 28.897-19.415-.448 60.664-36.573 64.116z" fill="#a05838"/></g><g><path d="m343.549 143.073-.038-.009-27.855-54.367s-1.298 31.537-12.146 54.367h-10.872c-.71-4.248-2.616-13.346-6.82-20.829 0 0-1.644 12.113-8.877 20.829h-68.491c-10.848-22.83-12.146-54.367-12.146-54.367l-27.853 54.363c-.029 1.226-.048 2.456-.048 3.696 0 64.505 39.219 140.155 87.597 140.155s87.597-75.651 87.597-140.155c0-1.236-.019-2.462-.048-3.683z" fill="#b76c4e"/></g><g><path d="m208.403 146.754c0-1.24.031-2.465.06-3.691h-.013c-10.848-22.83-12.146-54.367-12.146-54.367l-27.853 54.363c-.029 1.226-.048 2.456-.048 3.696 0 64.505 39.219 140.155 87.597 140.155 6.881 0 13.576-1.535 20-4.346-38.741-16.953-67.597-80.48-67.597-135.81z" fill="#a05838"/></g><g><g><path d="m242.013 192.447 8.436-13.441c2.569-4.093 8.533-4.093 11.102 0l8.436 13.441c2.739 4.365-.398 10.038-5.551 10.038h-16.871c-5.154-.001-8.291-5.674-5.552-10.038z" fill="#934a2e"/></g></g><g><g><path d="m235.384 240.87h41.233c4.111-3.622 7.258-8.309 9.01-13.631 1.584-4.811-2.069-9.754-7.134-9.754h-44.985c-5.065 0-8.718 4.943-7.134 9.754 1.752 5.322 4.899 10.009 9.01 13.631z" fill="#162544"/></g><g><path d="m276.616 240.87c-5.493 4.849-12.714 7.798-20.616 7.798s-15.124-2.948-20.616-7.798c5.5-4.849 12.714-7.798 20.616-7.798s15.116 2.949 20.616 7.798z" fill="#ff4155"/></g></g><g><path d="m223.5 134.968h-20c-4.142 0-7.5-3.358-7.5-7.5 0-4.142 3.358-7.5 7.5-7.5h20c4.142 0 7.5 3.358 7.5 7.5 0 4.142-3.358 7.5-7.5 7.5z" fill="#162544"/></g><g><path d="m308.5 134.968h-20c-4.142 0-7.5-3.358-7.5-7.5 0-4.142 3.358-7.5 7.5-7.5h20c4.142 0 7.5 3.358 7.5 7.5 0 4.142-3.358 7.5-7.5 7.5z" fill="#162544"/></g><g><path d="m256 419.575c-19.652 0-35.261-18.001-46.392-53.504-7.896-25.185-10.579-49.928-10.689-50.969-.291-2.746 1.699-5.207 4.444-5.499 2.746-.292 5.208 1.698 5.5 4.444 2.825 26.57 16.801 95.528 47.136 95.528s44.309-68.958 47.134-95.528c.291-2.745 2.752-4.74 5.499-4.444 2.746.292 4.735 2.753 4.444 5.499-.109 1.041-2.791 25.784-10.687 50.969-11.129 35.502-26.737 53.504-46.389 53.504z" fill="#ffc839"/></g><g><path d="m256 358.298c-23.415 0-37.67-11.537-45.507-21.215-8.401-10.376-11.305-20.751-11.424-21.188-.729-2.664.839-5.414 3.503-6.143 2.658-.727 5.408.835 6.14 3.495.419 1.497 10.26 35.051 47.288 35.051 37.264 0 47.187-34.692 47.283-35.042.728-2.664 3.479-4.231 6.142-3.503 2.664.729 4.232 3.479 3.503 6.142-.119.437-3.021 10.812-11.423 21.188-7.835 9.678-22.091 21.215-45.505 21.215z" fill="#ffdd40"/></g><g><path d="m310.999 162.085c.043-3.495-1.371-7.004-4.242-9.539-4.675-4.128-11.84-4.128-16.515 0-2.871 2.535-4.284 6.044-4.242 9.539.055 4.538 5.629 6.716 8.838 3.507 2.022-2.022 5.3-2.022 7.322 0 3.21 3.21 8.784 1.032 8.839-3.507z" fill="#162544"/></g><g><path d="m201.001 162.085c-.043-3.495 1.371-7.004 4.242-9.539 4.675-4.128 11.84-4.128 16.515 0 2.871 2.535 4.284 6.044 4.242 9.539-.055 4.538-5.629 6.716-8.838 3.507-2.022-2.022-5.3-2.022-7.322 0-3.21 3.21-8.784 1.032-8.839-3.507z" fill="#162544"/></g></g></svg>