<svg id="Capa_1" enable-background="new 0 0 512 512" height="512" viewBox="0 0 512 512" width="512" xmlns="http://www.w3.org/2000/svg"><g><path d="m0 256c0-141.385 114.615-256 256-256s256 114.615 256 256c0 80.844-37.474 152.936-96 199.852-1.849 1.483-102.014-47.405-160-47.405s-158.151 48.887-160 47.405c-58.526-46.916-96-119.008-96-199.852z" fill="#ae583e"/><path d="m455.34 256c0 110.093-89.248 199.34-199.34 199.34s-199.34-89.247-199.34-199.34 89.247-199.34 199.34-199.34 199.34 89.247 199.34 199.34z" fill="#c0694e"/><path d="m166 313.416h35s2.733.167 0 .491c-34.732 4.12-61.667 33.669-61.667 69.509v86.281c0 6.516-7.081 10.555-12.701 7.257-10.735-6.299-20.97-13.358-30.632-21.103v-72.435c0-38.66 31.34-70 70-70z" fill="#ffd993"/><path d="m416 383.416v72.435c-43.827 35.134-99.459 56.149-160 56.149-47.457 0-91.897-12.913-130-35.417v-93.166c0-38.66 31.34-70 70-70h5l10.213 5.158h93.667l6.121-5.158h35c38.659-.001 69.999 31.339 69.999 69.999z" fill="#ffe7c0"/><path d="m171.322 454.057v43.607c-5.075-1.778-10.077-3.711-15-5.795v-37.812c0-4.142 3.358-7.5 7.5-7.5s7.5 3.358 7.5 7.5zm176.856-7.5c-4.142 0-7.5 3.358-7.5 7.5v43.607c5.075-1.778 10.077-3.711 15-5.795v-37.812c0-4.142-3.357-7.5-7.5-7.5z" fill="#ffcd71"/><path d="m256 453.416c-30.376 0-55-24.624-55-55v-85h110v85c0 30.376-24.624 55-55 55z" fill="#fb5858"/><path d="m264.692 452.733c-2.831.45-5.735.683-8.692.683-30.376 0-55-24.624-55-55v-85h17.385v85c0 27.418 20.062 50.15 46.307 54.317z" fill="#c83c50"/><path d="m261.521 200h-57.5c-48.613 0-88.021-39.408-88.021-88.021v-3.958c0-48.613 39.408-88.021 88.021-88.021h57.5c-48.613 0-88.021 39.408-88.021 88.021v3.958c0 48.613 39.408 88.021 88.021 88.021z" fill="#ffb52d"/><path d="m412 248.125c0 21.056-17.069 38.125-38.125 38.125h-45.75c-21.056 0-38.125-17.069-38.125-38.125 0-2.789.3-5.507.868-8.125h-10.868c-29.229 0-53.576-20.9-58.913-48.571-29.625-14.17-50.087-44.42-50.087-79.45v-3.958c0-48.613 39.408-88.021 88.021-88.021h48.958c48.613 0 88.021 39.408 88.021 88.021v3.958c0 8.299-1.149 16.329-3.295 23.94 11.865 10.962 19.295 26.654 19.295 44.081 0 14.687-5.277 28.142-14.039 38.571 8.568 6.991 14.039 17.633 14.039 29.554z" fill="#ffc14f"/><path d="m399 310c0 16.569-13.431 30-30 30h-6c11.046 0 20 8.954 20 20 0 11.046-8.954 20-20 20h-2.076c6.02 3.447 10.076 9.934 10.076 17.368v7.632c0 16.569-13.431 30-30 30-5.523 0-10-4.477-10-10v-27.632c0-7.434 4.056-13.92 10.076-17.368h-2.076c-11.046 0-20-8.954-20-20 0-11.046 8.954-20 20-20h-6c-16.569 0-30-13.431-30-30 0-16.569 13.431-30 30-30h36c16.569 0 30 13.431 30 30z" fill="#ffc14f"/><path d="m171 188.416v10c0 13.807-11.193 25-25 25s-25-11.193-25-25v-10c0-13.807 11.193-25 25-25s25 11.193 25 25z" fill="#ffcdbe"/><path d="m136 183.416v20c0 8.178 3.927 15.439 9.998 20-13.806-.001-24.998-11.194-24.998-25v-10c0-13.806 11.192-24.999 24.998-25-6.071 4.561-9.998 11.822-9.998 20zm230-20v-20c0-60.751-49.249-110-110-110-60.751 0-110 49.249-110 110v40c0 50.351 33.83 92.801 80 105.859v24.141l20.332 76.984c2.622 9.929 16.715 9.929 19.337 0l20.331-76.984v-24.141c33.586-9.499 60.641-34.551 72.895-66.883 2.252.667 4.637 1.024 7.105 1.024 13.807 0 25-11.193 25-25v-10c0-13.807-11.193-25-25-25z" fill="#ffbeaa"/><path d="m366 143.416v40c0 50.792-34.425 93.543-81.216 106.195-9.023 2.44-18.545 2.44-27.568 0-46.791-12.652-81.216-55.403-81.216-106.195v-40c0-55.663 41.345-101.669 95-108.985 53.655 7.316 95 53.322 95 108.985z" fill="#ffcdbe"/><path d="m241.5 190.147c-2.929-2.93-2.929-7.678 0-10.607 2.929-2.928 7.678-2.928 10.606 0 1.042 1.042 2.424 1.616 3.893 1.616s2.851-.574 3.893-1.616c2.929-2.928 7.678-2.928 10.606 0 2.929 2.93 2.929 7.678 0 10.607-3.875 3.875-9.024 6.009-14.5 6.009s-10.623-2.134-14.498-6.009zm44.803 27.601c-2.929-2.928-7.678-2.928-10.606 0-10.861 10.861-28.532 10.861-39.394 0-2.929-2.928-7.678-2.928-10.606 0-2.929 2.93-2.929 7.678 0 10.607 8.354 8.354 19.329 12.531 30.303 12.531s21.949-4.177 30.303-12.531c2.929-2.929 2.929-7.677 0-10.607z" fill="#faa68e"/><path d="m223.5 150.916c0 8.284-6.716 15-15 15s-15-6.716-15-15 6.716-15 15-15 15 6.716 15 15zm80-15c-8.284 0-15 6.716-15 15s6.716 15 15 15 15-6.716 15-15-6.716-15-15-15z" fill="#274c91"/><path d="m226 143.416c0 4.142-3.358 7.5-7.5 7.5s-7.5-3.358-7.5-7.5 3.358-7.5 7.5-7.5 7.5 3.358 7.5 7.5zm87.5-7.5c-4.142 0-7.5 3.358-7.5 7.5s3.358 7.5 7.5 7.5 7.5-3.358 7.5-7.5-3.358-7.5-7.5-7.5z" fill="#fff5f5"/><path d="m302.994 20c-.547 48.142-39.743 87-88.015 87h-53.653c.547-48.142 39.743-87 88.015-87z" fill="#ffc14f"/><path d="m375.886 393.275v48.332l-11.819-11.607-11.819 11.608v-48.332h23.638z" fill="#c83c50"/><path d="m375.574 401.005h-47.71c-2.761 0-5-2.239-5-5v-13.637c0-2.761 2.239-5 5-5h47.71c2.761 0 5 2.239 5 5v13.637c0 2.761-2.238 5-5 5z" fill="#fb5858"/><path d="m217.177 70.523c-38.764 14.55-67.314 50.223-71.177 92.945v-41.957c0-38.737 20.023-72.796 50.283-92.394 15.46-10.013 35.877 1.22 35.877 19.64 0 9.66-5.939 18.372-14.983 21.766z" fill="#c83c50"/><path d="m366 122.73v40.738c-5.068-56.05-52.63-99.968-110-99.968-15.422 0-30.134 3.174-43.504 8.903-15.01 6.433-31.727-4.34-31.727-20.67 0-7.145 3.401-13.839 9.108-18.138 18.717-14.1 42.08-22.361 67.384-22.077 60.458.677 108.739 50.751 108.739 111.212z" fill="#fb5858"/><path d="m266.522 35.61-2.037 2.037 2.037 2.037c2.343 2.343 2.343 6.142 0 8.485s-6.142 2.343-8.485 0l-2.037-2.036-2.037 2.037c-2.343 2.343-6.142 2.343-8.485 0s-2.343-6.142 0-8.485l2.037-2.037-2.037-2.037c-2.343-2.343-2.343-6.142 0-8.485s6.142-2.343 8.485 0l2.037 2.036 2.037-2.037c2.343-2.343 6.142-2.343 8.485 0s2.343 6.142 0 8.485zm-42.437 330.57c-3.313 0-6 2.686-6 6s2.687 6 6 6c3.314 0 6-2.686 6-6s-2.686-6-6-6zm63.83 0c-3.314 0-6 2.686-6 6s2.686 6 6 6c3.313 0 6-2.686 6-6s-2.686-6-6-6zm-21.393 49.62c-2.343-2.343-6.142-2.343-8.485 0l-2.037 2.037-2.037-2.037c-2.343-2.343-6.142-2.343-8.485 0s-2.343 6.142 0 8.485l2.037 2.037-2.037 2.037c-2.343 2.343-2.343 6.142 0 8.485s6.142 2.343 8.485 0l2.037-2.037 2.037 2.037c2.343 2.343 6.142 2.343 8.485 0s2.343-6.142 0-8.485l-2.037-2.037 2.037-2.037c2.343-2.343 2.343-6.142 0-8.485z" fill="#ffd993"/><path d="m236.539 401.817-2.037 2.037 2.037 2.037c2.343 2.343 2.343 6.142 0 8.485-2.343 2.343-6.142 2.343-8.485 0l-2.037-2.037-2.037 2.037c-2.343 2.343-6.142 2.343-8.485 0s-2.343-6.142 0-8.485l2.037-2.037-2.037-2.037c-2.343-2.343-2.343-6.142 0-8.485s6.142-2.343 8.485 0l2.037 2.037 2.037-2.037c2.343-2.343 6.142-2.343 8.485 0 2.343 2.343 2.343 6.142 0 8.485zm59.966-8.485c-2.343-2.343-6.142-2.343-8.485 0l-2.037 2.037-2.037-2.037c-2.343-2.343-6.142-2.343-8.485 0-2.343 2.343-2.343 6.142 0 8.485l2.037 2.037-2.037 2.037c-2.343 2.343-2.343 6.142 0 8.485 2.343 2.343 6.142 2.343 8.485 0l2.037-2.037 2.037 2.037c2.343 2.343 6.142 2.343 8.485 0s2.343-6.142 0-8.485l-2.037-2.037 2.037-2.037c2.344-2.343 2.344-6.142 0-8.485zm-78.42-34.59c3.314 0 6-2.686 6-6s-2.686-6-6-6c-3.313 0-6 2.686-6 6s2.686 6 6 6zm75.83 0c3.313 0 6-2.686 6-6s-2.687-6-6-6c-3.314 0-6 2.686-6 6s2.686 6 6 6zm-83.49-322.307c-3.983 0-7.212 3.229-7.212 7.212s3.229 7.212 7.212 7.212 7.212-3.229 7.212-7.212-3.229-7.212-7.212-7.212zm91.15 0c-3.983 0-7.212 3.229-7.212 7.212s3.229 7.212 7.212 7.212 7.212-3.229 7.212-7.212-3.229-7.212-7.212-7.212z" fill="#fd9a9a"/><path d="m191.22 65.383c0 3.314-2.686 6-6 6-3.313 0-6-2.686-6-6 0-3.313 2.687-6 6-6 3.314 0 6 2.686 6 6zm135.56-6c-3.314 0-6 2.687-6 6 0 3.314 2.686 6 6 6 3.313 0 6-2.686 6-6s-2.686-6-6-6z" fill="#fc7979"/></g></svg>