<svg height="512pt" viewBox="0 0 512 512" width="512pt" xmlns="http://www.w3.org/2000/svg"><path d="m512 256c0 66.03125-25 126.21875-66.039062 171.621094-8.070313 8.917968-16.761719 17.277344-26 24.988281-2.75 2.289063-5.539063 4.53125-8.382813 6.699219-43.117187 33.050781-97.058594 52.691406-155.578125 52.691406-59.46875 0-114.210938-20.289062-157.671875-54.300781-2.128906-1.667969-4.226563-3.371094-6.296875-5.097657-9.242188-7.722656-17.929688-16.070312-26-25-41.03125-45.402343-66.03125-105.582031-66.03125-171.601562 0-141.378906 114.621094-256 256-256s256 114.621094 256 256zm0 0" fill="#d9723e"/><path d="m411.578125 174.648438v284.660156c-43.117187 33.050781-97.058594 52.691406-155.578125 52.691406-59.46875 0-114.210938-20.289062-157.671875-54.300781v-283.050781zm0 0" fill="#2f373b"/><path d="m267.027344 162.589844c-3.371094 8.261718-6.910156 15.039062-10.449219 20.871094-4.230469 6.96875-8.460937 12.597656-12.402344 17.847656-.367187.492187-.730469.972656-1.097656 1.460937-14.0625 18.75-25.972656 36.628907-25.972656 116.539063v163.621094c-8.648438-4.53125-17.007813-9.53125-25.039063-14.988282-.320312-.210937-.640625-.429687-.960937-.652344v-147.980468c0-90.660156 15.679687-111.527344 32.28125-133.617188 5.46875-7.28125 10.699219-14.242187 15.691406-24.28125 1.300781-2.640625 2.597656-5.488281 3.867187-8.621094zm0 0" fill="#2f373b"/><path d="m244.964844 162.589844c3.367187 8.261718 6.90625 15.039062 10.449218 20.871094 4.230469 6.96875 8.457032 12.597656 12.398438 17.847656.371094.492187.730469.972656 1.101562 1.460937 14.058594 18.75 25.96875 36.628907 25.96875 116.539063v163.621094c8.648438-4.53125 17.011719-9.53125 25.039063-14.988282.320313-.210937.640625-.429687.960937-.652344v-147.980468c0-90.660156-15.679687-111.527344-32.28125-133.617188-5.46875-7.28125-10.699218-14.242187-15.6875-24.28125-1.300781-2.640625-2.601562-5.488281-3.871093-8.621094zm0 0" fill="#2f373b"/><path d="m398.410156 468.761719c-12.339844 8.277343-25.441406 15.519531-39.179687 21.566406-10.652344 4.703125-21.679688 8.703125-33.03125 11.921875-22.300781 6.351562-45.847657 9.75-70.199219 9.75-24.339844 0-47.890625-3.398438-70.199219-9.738281-7.242187-2.0625-14.359375-4.441407-21.332031-7.121094-.429688-.160156-.859375-.320313-1.289062-.492187-3.507813-1.359376-6.980469-2.808594-10.410157-4.320313-13.738281-6.058594-26.839843-13.289063-39.191406-21.578125 10.390625-14.371094 23.761719-26.429688 39.191406-35.320312 10.199219-5.871094 21.300781-10.339844 33.03125-13.148438 1.808594-.441406 3.640625-.839844 5.480469-1.191406 3.46875-.679688 7-1.199219 10.570312-1.570313 1.027344-.109375 2.046876-.210937 3.089844-.289062 3.378906-.28125 6.796875-.421875 10.257813-.421875h81.589843c4.519532 0 8.972657.242187 13.351563.703125 3.570313.367187 7.089844.898437 10.570313 1.558593 1.390624.269532 2.769531.558594 4.140624.871094.449219.117188.910157.207032 1.347657.328125 11.742187 2.820313 22.832031 7.289063 33.03125 13.160157 15.429687 8.898437 28.789062 20.960937 39.179687 35.332031zm0 0" fill="#f93d6e"/><path d="m215.199219 416.808594c-29.359375 0-49.257813 42.429687-50.730469 78.332031-.429688-.160156-.859375-.320313-1.289062-.492187-3.507813-1.359376-6.980469-2.808594-10.410157-4.320313-13.738281-6.058594-26.839843-13.289063-39.191406-21.578125 10.390625-14.371094 23.761719-26.429688 39.191406-35.320312 10.199219-5.871094 21.300781-10.339844 33.03125-13.148438 1.808594-.441406 3.640625-.839844 5.480469-1.191406 3.46875-.679688 7-1.199219 10.570312-1.570313 1.027344-.109375 2.046876-.210937 3.089844-.289062 3.378906-.28125 6.796875-.421875 10.257813-.421875zm0 0" fill="#e41753"/><path d="m320.710938 419.070312v4.339844c0 28.539063-18.320313 53.378906-45.589844 61.808594-6.171875 1.921875-12.609375 2.890625-19.132813 2.890625-35.679687 0-64.707031-29.03125-64.707031-64.699219v-4.320312c3.46875-.679688 7-1.199219 10.570312-1.570313 1.027344-.109375 2.046876-.210937 3.089844-.289062 3.378906-.28125 6.796875-.421875 10.257813-.421875h81.589843c4.519532 0 8.972657.242187 13.351563.703125 3.570313.367187 7.089844.898437 10.570313 1.558593zm0 0" fill="#f9c5ac"/><path d="m300.707031 368.539062v54.867188c0 20.089844-13.246093 37.066406-31.488281 42.707031-4.179688 1.296875-8.628906 1.996094-13.230469 1.996094-24.691406 0-44.703125-20.011719-44.703125-44.703125v-54.867188zm0 0" fill="#efb29a"/><path d="m300.707031 419.933594v3.472656c0 20.089844-13.246093 37.066406-31.488281 42.707031-16.460938-5.058593-28.839844-19.371093-31.125-36.882812 2.988281.183593 5.992188.273437 9.007812.273437 8.460938 0 16.75-.671875 24.828126-1.996094 9.953124-1.601562 19.570312-4.160156 28.777343-7.574218zm0 0" fill="#f9c5ac"/><path d="m132.539062 278.152344c0 20.496094-14.972656 37.492187-34.578124 40.648437-2.144532.34375-4.347657.527344-6.597657.527344-22.746093 0-41.171875-18.429687-41.171875-41.175781s18.425782-41.175782 41.171875-41.175782c2.25 0 4.453125.179688 6.597657.527344 19.605468 3.15625 34.578124 20.152344 34.578124 40.648438zm0 0" fill="#f9c5ac"/><path d="m132.539062 278.152344c0 20.496094-14.972656 37.492187-34.578124 40.648437-3.5625-12.953125-5.464844-26.582031-5.464844-40.648437s1.902344-27.695313 5.464844-40.644532c19.605468 3.152344 34.578124 20.148438 34.578124 40.644532zm0 0" fill="#efb29a"/><path d="m106.082031 278.152344c0 8.128906-6.589843 14.714844-14.71875 14.714844-8.125 0-14.714843-6.585938-14.714843-14.714844 0-8.125 6.589843-14.714844 14.714843-14.714844 8.128907 0 14.71875 6.589844 14.71875 14.714844zm0 0" fill="#efb29a"/><path d="m379.449219 278.152344c0 20.496094 14.972656 37.492187 34.578125 40.648437 2.144531.34375 4.347656.527344 6.597656.527344 22.746094 0 41.175781-18.429687 41.175781-41.175781s-18.429687-41.175782-41.175781-41.175782c-2.25 0-4.453125.179688-6.597656.527344-19.605469 3.15625-34.578125 20.152344-34.578125 40.648438zm0 0" fill="#f9c5ac"/><path d="m379.449219 278.152344c0 20.496094 14.972656 37.492187 34.578125 40.648437 3.5625-12.953125 5.464844-26.582031 5.464844-40.648437s-1.902344-27.695313-5.464844-40.644532c-19.605469 3.152344-34.578125 20.148438-34.578125 40.644532zm0 0" fill="#efb29a"/><path d="m435.339844 278.152344c0 8.128906-6.589844 14.714844-14.714844 14.714844-8.128906 0-14.71875-6.585938-14.71875-14.714844 0-8.125 6.589844-14.714844 14.71875-14.714844 8.125 0 14.714844 6.589844 14.714844 14.714844zm0 0" fill="#efb29a"/><path d="m410.695312 256.511719c0 76.984375-56.242187 140.847656-129.871093 152.703125-8.078125 1.328125-16.371094 2-24.828125 2-85.445313 0-154.703125-69.257813-154.703125-154.703125v-157.5h309.402343zm0 0" fill="#f9c5ac"/><g fill="#efb29a"><path d="m283.242188 408.808594c-.800782.140625-1.609376.28125-2.417969.410156-8.082031 1.320312-16.371094 1.992188-24.832031 1.992188-85.4375 0-154.699219-69.25-154.699219-154.699219v-157.5h54.550781v157.5c0 76.136719 54.980469 139.410156 127.398438 152.296875zm0 0"/><path d="m360.261719 296.496094c0 10.539062-8.542969 19.082031-19.082031 19.082031-10.539063 0-19.082032-8.542969-19.082032-19.082031 0-10.539063 8.542969-19.082032 19.082032-19.082032 10.539062 0 19.082031 8.542969 19.082031 19.082032zm0 0"/><path d="m189.886719 296.496094c0 10.539062-8.542969 19.082031-19.082031 19.082031-10.539063 0-19.082032-8.542969-19.082032-19.082031 0-10.539063 8.542969-19.082032 19.082032-19.082032 10.539062 0 19.082031 8.542969 19.082031 19.082032zm0 0"/><path d="m273.378906 297.921875h-34.757812c-4.140625 0-7.5-3.355469-7.5-7.496094s3.359375-7.496093 7.5-7.496093h34.757812c4.136719 0 7.496094 3.355468 7.496094 7.496093s-3.359375 7.496094-7.496094 7.496094zm0 0"/></g><path d="m256 345.351562c-12.828125 0-25.65625-3.214843-37.351562-9.640624-3.296876-1.8125-4.5-5.957032-2.6875-9.257813 1.8125-3.296875 5.957031-4.5 9.253906-2.6875 19.277344 10.597656 42.292968 10.597656 61.566406 0 3.296875-1.8125 7.441406-.609375 9.253906 2.6875 1.816406 3.300781.613282 7.445313-2.6875 9.257813-11.691406 6.425781-24.519531 9.640624-37.347656 9.640624zm0 0" fill="#dd9f8a"/><path d="m343.992188 244.328125c0-17.808594-14.433594-32.242187-32.242188-32.242187s-32.242188 14.433593-32.242188 32.242187" fill="#efb29a"/><path d="m333.773438 258.054688c0 12.164062-9.859376 22.023437-22.023438 22.023437s-22.023438-9.859375-22.023438-22.023437c0-12.164063 9.859376-22.023438 22.023438-22.023438s22.023438 9.859375 22.023438 22.023438zm0 0" fill="#2f373b"/><path d="m330.363281 254.167969c0 5.210937-4.222656 9.4375-9.433593 9.4375-5.214844 0-9.4375-4.226563-9.4375-9.4375 0-5.210938 4.222656-9.4375 9.4375-9.4375 5.210937 0 9.433593 4.226562 9.433593 9.4375zm0 0" fill="#fff"/><path d="m232.480469 244.328125c0-17.808594-14.433594-32.242187-32.242188-32.242187-17.808593 0-32.242187 14.433593-32.242187 32.242187" fill="#efb29a"/><path d="m222.261719 258.054688c0 12.164062-9.859375 22.023437-22.023438 22.023437-12.160156 0-22.019531-9.859375-22.019531-22.023437 0-12.164063 9.859375-22.023438 22.019531-22.023438 12.164063 0 22.023438 9.859375 22.023438 22.023438zm0 0" fill="#2f373b"/><path d="m205.207031 279.511719c-1.601562.378906-3.261719.566406-4.96875.566406-12.160156 0-22.019531-9.859375-22.019531-22.027344 0-12.160156 9.859375-22.019531 22.019531-22.019531 1.707031 0 3.367188.199219 4.96875.570312-9.78125 2.25-17.058593 11-17.058593 21.449219 0 10.460938 7.277343 19.210938 17.058593 21.460938zm0 0" fill="#181e21"/><path d="m316.71875 279.511719c-1.601562.378906-3.261719.566406-4.972656.566406-12.160156 0-22.019532-9.859375-22.019532-22.027344 0-12.160156 9.859376-22.019531 22.019532-22.019531 1.710937 0 3.371094.199219 4.972656.570312-9.78125 2.25-17.0625 11-17.0625 21.449219 0 10.460938 7.28125 19.210938 17.0625 21.460938zm0 0" fill="#181e21"/><path d="m218.855469 254.167969c0 5.210937-4.226563 9.4375-9.4375 9.4375-5.210938 0-9.4375-4.226563-9.4375-9.4375 0-5.210938 4.226562-9.4375 9.4375-9.4375 5.210937 0 9.4375 4.226562 9.4375 9.4375zm0 0" fill="#fff"/><path d="m162.289062 162.589844c-7.390624 18.148437-15.597656 29.082031-22.847656 38.71875-14.519531 19.332031-27.0625 36.019531-27.0625 118v148.632812c-.320312-.210937-.640625-.429687-.957031-.652344-8.761719-6-17.121094-12.527343-25.042969-19.550781v-128.429687c0-90.660156 15.679688-111.527344 32.28125-133.617188 6.910156-9.191406 13.429688-17.882812 19.558594-32.902344l21.171875 8.621094zm0 0" fill="#151a1c"/><path d="m218.859375 162.589844c-7.390625 18.148437-15.609375 29.082031-22.847656 38.71875-14.53125 19.332031-27.070313 36.019531-27.070313 118v177.492187c-8.910156-3.210937-17.582031-6.910156-26-11.0625v-166.429687c0-68.429688 8.929688-97.097656 20.449219-116.539063 3.75-6.320312 7.757813-11.660156 11.828125-17.078125.5625-.742187 1.121094-1.492187 1.671875-2.230468 6.300781-8.410157 12.269531-16.871094 17.890625-30.671876zm0 0" fill="#151a1c"/><path d="m187.339844 162.589844c-3.371094 8.261718-6.910156 15.039062-10.449219 20.871094-4.230469 6.96875-8.460937 12.597656-12.402344 17.847656-.367187.492187-.726562.972656-1.097656 1.460937-14.0625 18.75-25.96875 36.628907-25.96875 116.539063v163.621094c-8.652344-4.53125-17.011719-9.53125-25.042969-14.988282-.320312-.210937-.640625-.429687-.957031-.652344v-147.980468c0-90.660156 15.679687-111.527344 32.277344-133.617188 5.472656-7.28125 10.699219-14.242187 15.691406-24.28125 1.300781-2.640625 2.597656-5.488281 3.871094-8.621094zm0 0" fill="#2f373b"/><path d="m141.949219 162.589844c-3.371094 8.261718-6.910157 15.039062-10.449219 20.871094-4.230469 6.96875-8.460938 12.597656-12.398438 17.847656-.371093.492187-.730468.972656-1.101562 1.460937-14.058594 18.75-25.96875 36.628907-25.96875 116.539063v133.292968c-9.242188-7.722656-17.929688-16.070312-26-25v-108.292968c0-90.660156 15.679688-111.527344 32.277344-133.617188 5.472656-7.28125 10.703125-14.242187 15.691406-24.28125 1.300781-2.640625 2.601562-5.488281 3.871094-8.621094zm0 0" fill="#2f373b"/><path d="m445.960938 319.308594v108.3125c-8.070313 8.917968-16.761719 17.277344-26 24.988281v-133.300781c0-79.910156-11.921876-97.789063-25.972657-116.539063-.367187-.488281-.726562-.96875-1.097656-1.460937-3.949219-5.25-8.179687-10.886719-12.410156-17.867188-3.539063-5.820312-7.082031-12.601562-10.441407-20.851562l24.082032-9.800782c1.269531 3.132813 2.570312 5.980469 3.867187 8.621094 4.992188 10.039063 10.222657 17 15.691407 24.28125 16.601562 22.089844 32.28125 42.957032 32.28125 133.617188zm0 0" fill="#2f373b"/><path d="m425.609375 319.308594v128.441406c-7.917969 7.019531-16.28125 13.550781-25.039063 19.539062-.320312.230469-.640624.441407-.960937.660157v-148.640625c0-81.980469-12.539063-98.667969-27.058594-118-7.25-9.636719-15.460937-20.570313-22.851562-38.71875l2.902343-1.179688 21.167969-8.621094c6.128907 15.019532 12.652344 23.710938 19.558594 32.902344 16.601563 22.089844 32.28125 42.957032 32.28125 133.617188zm0 0" fill="#151a1c"/><path d="m369.050781 319.308594v166.429687c-8.421875 4.160157-17.089843 7.863281-26 11.070313v-177.5c0-81.980469-12.539062-98.667969-27.070312-118-7.25-9.636719-15.460938-20.570313-22.851563-38.71875l24.082032-9.800782c5.617187 13.789063 11.578124 22.242188 17.878906 30.652344.550781.75 1.121094 1.5 1.679687 2.25 4.070313 5.417969 8.082031 10.757813 11.832031 17.078125 11.519532 19.441407 20.449219 48.109375 20.449219 116.539063zm0 0" fill="#151a1c"/><path d="m400.570312 319.308594v147.980468c-.320312.230469-.640624.441407-.960937.660157-8.03125 5.449219-16.390625 10.460937-25.039063 14.980469v-163.621094c0-79.910156-11.921874-97.789063-25.96875-116.539063-.371093-.488281-.730468-.96875-1.101562-1.460937-3.949219-5.25-8.179688-10.886719-12.410156-17.867188-3.539063-5.820312-7.078125-12.601562-10.441406-20.851562l24.082031-9.800782c1.269531 3.132813 2.570312 5.980469 3.871093 8.621094 4.988282 10.039063 10.21875 17 15.6875 24.28125 16.601563 22.089844 32.28125 42.957032 32.28125 133.617188zm0 0" fill="#2f373b"/><path d="m411.828125 94.398438-132.9375 77.261718-114.519531-18.5-46.089844-7.441406-18.109375-51.320312 16.429687-77.160157c2.136719-10.046875 11.019532-17.238281 21.296876-17.238281h236.203124c10.277344 0 19.160157 7.191406 21.296876 17.238281zm0 0" fill="#f93d6e"/><path d="m196.089844 0s-16.800782.328125-16.800782 108.441406l-14.917968 44.71875-46.089844-7.441406-18.109375-51.320312 16.429687-77.160157c2.136719-10.046875 11.019532-17.238281 21.296876-17.238281zm0 0" fill="#e41753"/><path d="m482.398438 182.390625c-109.308594 33.628906-224.25 42.347656-336.488282 26.121094-39.21875-5.660157-78.121094-14.371094-116.332031-26.121094 12.121094-13.421875 23.78125-27.089844 34.992187-41.011719 12.417969-15.378906 24.289063-31.050781 35.601563-46.980468 26.136719 6.292968 52.558594 10.972656 79.117187 14.042968 77.53125 8.988282 156.25 4.296875 232.53125-14.042968 11.308594 15.929687 23.179688 31.601562 35.589844 46.980468 11.21875 13.921875 22.878906 27.589844 34.988282 41.011719zm0 0" fill="#42b7a1"/><path d="m179.289062 108.441406-33.378906 100.070313c-39.21875-5.660157-78.121094-14.371094-116.332031-26.121094 12.121094-13.421875 23.78125-27.089844 34.992187-41.011719 12.417969-15.378906 24.289063-31.050781 35.601563-46.980468 26.136719 6.292968 52.558594 10.972656 79.117187 14.042968zm0 0" fill="#289983"/><path d="m447.410156 141.378906c-125.570312 32.230469-257.261718 32.230469-382.839844 0 12.417969-15.378906 24.289063-31.050781 35.601563-46.980468 102.417969 24.632812 209.226563 24.632812 311.648437 0 11.308594 15.929687 23.179688 31.601562 35.589844 46.980468zm0 0" fill="#ffbb16"/><path d="m179.289062 108.441406c-26.558593-3.070312-52.980468-7.75-79.117187-14.042968-11.3125 15.929687-23.183594 31.601562-35.601563 46.980468 32.195313 8.265625 64.792969 14.394532 97.585938 18.417969zm0 0" fill="#ff931f"/></svg>