<svg id="Capa_1" enable-background="new 0 0 512 512" height="512" viewBox="0 0 512 512" width="512" xmlns="http://www.w3.org/2000/svg"><g><path d="m415.336 159.336c0-87.999-71.337-159.336-159.336-159.336l-10 172.876 169.336-10z" fill="#895140"/><path d="m256 0c-19.621 0-38.409 3.555-55.767 10.042l-10 162.834 65.768-10z" fill="#b56d3c"/><path d="m96.664 159.336v3.54l103.568 10v-162.834c-60.492 22.607-103.568 80.916-103.568 149.294z" fill="#c78f2c"/><path d="m480.133 417.664c0-27.472-17.603-51.853-43.68-60.497l-5.054-1.675-10 78.254 10 78.254h48.734z" fill="#80aaff"/><path d="m401.398 345.547-10 83.227 10 83.226h30v-156.508z" fill="#198080"/><path d="m334.622 323.411-88.622 17.128 10 171.461h145.398v-166.453z" fill="#80aaff"/><path d="m347.566 417.373-12.944-93.962h-88.622l10 27.128s18.103 66.834 91.566 66.834z" fill="#ece6f2"/><path d="m31.867 417.664c0-27.472 17.603-51.853 43.68-60.497l5.054-1.675 10 78.254-10 78.254h-48.734z" fill="#9cf"/><path d="m110.602 345.547 10 83.227-10 83.226h-30v-156.508z" fill="#24b3b3"/><path d="m177.378 323.411 78.622 17.128v171.461h-145.398v-166.453z" fill="#9cf"/><path d="m164.434 417.373 12.944-93.962h78.622v27.128s-18.103 66.834-91.566 66.834z" fill="#fff5f5"/><path d="m128.531 162.876h-31.867c-17.6 0-31.868 14.268-31.868 31.868 0 17.6 14.268 31.868 31.868 31.868h41.915z" fill="#ffdecf"/><path d="m383.469 162.876h31.867c17.6 0 31.868 14.268 31.868 31.868 0 17.6-14.268 31.868-31.868 31.868h-41.915z" fill="#ffcdbe"/><path d="m256 143.043-10 64.094 10 143.403c70.399 0 127.469-57.07 127.469-127.469v-60.195s-63.863.462-127.469-19.833z" fill="#ffdecf"/><path d="m200.232 118.408s-30.186 44.468-71.701 44.468v60.195c0 70.399 57.07 127.469 127.469 127.469v-207.497c-19.201-6.126-38.378-14.141-55.768-24.635z" fill="#ffeee5"/><path d="m184.299 192.137h31.867v30h-31.867z" fill="#332866"/><path d="m295.834 192.137h31.867v30h-31.867z" fill="#180a33"/></g></svg>