<svg id="Capa_1" enable-background="new 0 0 512 512" height="512" viewBox="0 0 512 512" width="512" xmlns="http://www.w3.org/2000/svg"><g><g><path d="m456.951 407.165c27.755-39.717 44.049-88.035 44.049-140.165 0-135.31-109.69-245-245-245s-245 109.69-245 245c0 52.13 16.294 100.448 44.049 140.165z" fill="#ffdd40"/></g><g><circle cx="256" cy="242" fill="#ffc839" r="200"/></g><g><path d="m383.213 362.234h-254.426l22.07-215.016h210.286z" fill="#e80054"/></g><g><path d="m434.22 357.82c-.671-.935-1.336-1.808-1.994-2.592-.904-1.078-1.795-2.019-2.668-2.79-6.623-5.848-19.39-11.382-34.352-16.323-37.929-12.525-89.968-21.232-91.82-21.54h-94.772c-1.853.307-53.892 9.014-91.82 21.54-14.961 4.941-27.729 10.475-34.352 16.323-.874.772-1.765 1.712-2.668 2.79-.656.783-1.321 1.655-1.991 2.589l-16.606 55.942v1.775c11.991 15.7 25.836 29.906 41.207 42.297h307.235c15.365-12.386 29.204-26.586 41.192-42.278z" fill="#f3d6ac"/></g><g><path d="m82.442 352.438c-.874.772-1.765 1.712-2.668 2.79-.656.783-1.321 1.655-1.991 2.589l-16.606 55.942v1.775c11.991 15.7 25.836 29.906 41.207 42.297h60.55c-9.228-61.491 3.511-111.784 34.32-141.232-17.761 3.303-52.846 10.397-80.459 19.516-14.963 4.94-27.73 10.475-34.353 16.323z" fill="#eabe8d"/></g><g><path d="m276.616 369.362s10.767-11.809 23.703-11.809 55.191 11.809 55.191 11.809z" fill="#eabe8d"/></g><g><path d="m235.384 369.362s-10.767-11.809-23.703-11.809-55.191 11.809-55.191 11.809z" fill="#eabe8d"/></g><g><path d="m303.386 314.575s41.482 21.428 29.697 94.629h34.073s11.334-70.799-72.411-112.927z" fill="#4432ad"/></g><g><path d="m208.614 221.239v93.336s19.021 20.093 47.17 20.093c.073 0 .143-.005.216-.005 28.031-.103 47.386-20.088 47.386-20.088v-93.336z" fill="#f3d6ac"/></g><g><path d="m208.614 314.575s-41.482 21.428-29.697 94.629h-34.073s-11.334-70.799 72.411-112.927z" fill="#2d2296"/></g><g><path d="m208.614 220.734v93.841c94.723 0 94.772-53.4 94.772-53.4v-40.44h-94.772z" fill="#eabe8d"/></g><g><path d="m337.869 36.423c-19.783-22.322-47.62-36.423-81.869-36.423s-48.985 5.638-62.772 12-14.708 34.073-14.708 34.073c-17.176 18.715-27.663 43.666-27.663 71.07v30.076h210.286v-30.076c0-23.009-3.49-58.398-23.274-80.72z" fill="#ff596e"/></g><g><path d="m150.857 117.143v30.076h42.846l30.623-67.616c-35.013-.11-46.417-18.815-45.806-33.53-17.175 18.714-27.663 43.666-27.663 71.07z" fill="#ff4155"/></g><g><path d="m180.942 159.567s-10.385-25.285-28.897-19.415.448 60.664 36.573 64.116z" fill="#eabe8d"/></g><g><path d="m331.058 159.567s10.385-25.285 28.897-19.415-.448 60.664-36.573 64.116z" fill="#f3d6ac"/></g><g><path d="m327.049 124.754c-3.509-10.287-9.219-24.496-16.225-32.717-3.978-3.853-8.145-7.046-12.399-9.103-8.195-3.963-15.758-4.069-22.16-2.497-13.314 3.269-27.216 3.268-40.53 0-6.402-1.572-13.966-1.466-22.16 2.497-4.254 2.057-8.421 5.25-12.399 9.103-7.006 8.221-12.716 22.43-16.225 32.717-2.762 8.097-8.72 14.703-16.484 18.295-.031 1.23-.063 2.46-.063 3.705 0 64.505 39.219 140.155 87.597 140.155s87.597-75.651 87.597-140.155c0-1.245-.032-2.475-.063-3.705-7.766-3.592-13.724-10.198-16.486-18.295z" fill="#f8e6cc"/></g><g><path d="m208.403 146.754c0-25.925 6.339-48.917 17.057-67.152-3.755.312-7.739 1.327-11.885 3.333-4.254 2.057-8.421 5.25-12.399 9.103-7.006 8.221-12.716 22.43-16.225 32.717-2.762 8.097-8.72 14.703-16.484 18.295-.031 1.23-.063 2.46-.063 3.705 0 64.505 39.219 140.155 87.597 140.155 6.881 0 13.576-1.535 20-4.346-38.742-16.953-67.598-80.48-67.598-135.81z" fill="#f3d6ac"/></g><g><path d="m223.5 138.968h-20c-4.142 0-7.5-3.358-7.5-7.5 0-4.142 3.358-7.5 7.5-7.5h20c4.142 0 7.5 3.358 7.5 7.5 0 4.142-3.358 7.5-7.5 7.5z" fill="#e80054"/></g><g><path d="m308.5 138.968h-20c-4.142 0-7.5-3.358-7.5-7.5 0-4.142 3.358-7.5 7.5-7.5h20c4.142 0 7.5 3.358 7.5 7.5 0 4.142-3.358 7.5-7.5 7.5z" fill="#e80054"/></g><g><g><path d="m242.013 192.447 8.436-13.441c2.569-4.093 8.533-4.093 11.102 0l8.436 13.441c2.739 4.365-.398 10.038-5.551 10.038h-16.871c-5.154-.001-8.291-5.674-5.552-10.038z" fill="#eabe8d"/></g></g><g><g><path d="m235.384 240.87h41.233c4.111-3.622 7.258-8.309 9.01-13.631 1.584-4.811-2.069-9.754-7.134-9.754h-44.985c-5.065 0-8.718 4.943-7.134 9.754 1.752 5.322 4.899 10.009 9.01 13.631z" fill="#162544"/></g><g><path d="m276.616 240.87c-5.493 4.849-12.714 7.798-20.616 7.798s-15.124-2.948-20.616-7.798c5.5-4.849 12.714-7.798 20.616-7.798s15.116 2.949 20.616 7.798z" fill="#ff4155"/></g></g><g><path d="m310.999 162.085c.043-3.495-1.371-7.004-4.242-9.539-4.675-4.128-11.84-4.128-16.515 0-2.871 2.535-4.284 6.044-4.242 9.539.055 4.538 5.629 6.716 8.838 3.507 2.022-2.022 5.3-2.022 7.322 0 3.21 3.21 8.784 1.032 8.839-3.507z" fill="#162544"/></g><g><path d="m201.001 162.085c-.043-3.495 1.371-7.004 4.242-9.539 4.675-4.128 11.84-4.128 16.515 0 2.871 2.535 4.284 6.044 4.242 9.539-.055 4.538-5.629 6.716-8.838 3.507-2.022-2.022-5.3-2.022-7.322 0-3.21 3.21-8.784 1.032-8.839-3.507z" fill="#162544"/></g><g><path d="m391.147 471.33c6.374-4.223 12.555-8.713 18.491-13.499-4.027-11.7-11.689-21.884-21.736-29.06v42.559z" fill="#eabe8d"/></g><g><path d="m124.098 471.33v-42.559c-10.047 7.176-17.708 17.36-21.736 29.06 5.936 4.786 12.117 9.277 18.491 13.499z" fill="#d8a97c"/></g><g><path d="m177.575 395.255c-37.77 0-66.143 34.911-57.928 71.776.604 2.713 1.146 4.246 1.165 4.298v.009c38.748 25.688 85.216 40.662 135.188 40.662 49.971 0 96.439-14.974 135.187-40.661l.001-.009c.019-.052.56-1.586 1.165-4.298 8.215-36.866-20.158-71.776-57.928-71.776h-156.85z" fill="#5c45bf"/></g><g><path d="m301.031 507.862c-56.84-22.966-99.707-56.85-119.872-112.606h-3.584c-37.77 0-66.143 34.911-57.928 71.776.604 2.713 1.146 4.246 1.165 4.298v.009c38.748 25.687 85.216 40.661 135.188 40.661 15.384 0 30.434-1.424 45.031-4.138z" fill="#4432ad"/></g><g><path d="m456.949 407.139c-7.554-20.78-15.509-39.265-22.73-49.326-116.38 40.544-240.058 40.544-356.438.001-7.221 10.061-15.176 28.546-22.73 49.325 0 .003 0 .006-.001.009.883 1.264 1.771 2.523 2.677 3.769.099.136.201.27.3.406.911 1.247 1.835 2.485 2.769 3.714.131.173.264.344.396.516 127.13 43.512 262.488 43.511 389.617-.002.132-.173.265-.344.397-.517.932-1.227 1.855-2.463 2.764-3.708.101-.138.204-.274.305-.412.905-1.245 1.792-2.504 2.675-3.767-.001-.002-.001-.005-.001-.008z" fill="#7255ce"/></g><g><path d="m206.588 446.128c-14.532-2.116-25.694-14.624-25.694-29.743 0-16.603 13.46-30.063 30.063-30.063.014 0 .027.001.041.001-44.918-3.802-89.578-13.314-133.213-28.514-7.222 10.06-15.178 28.548-22.733 49.33 0 .003 0 .006-.001.009.883 1.264 1.771 2.523 2.677 3.769.099.136.201.27.3.406.911 1.247 1.835 2.485 2.769 3.714.131.173.264.344.396.516 47.599 16.293 96.352 26.484 145.395 30.575z" fill="#5c45bf"/></g></g></svg>