<svg id="Capa_1" enable-background="new 0 0 512 512" height="512" viewBox="0 0 512 512" width="512" xmlns="http://www.w3.org/2000/svg"><g><path d="m480.133 385.797c0-27.472-17.603-51.853-43.68-60.497l-19.878-6.589-10 96.645 10 96.645h63.558z" fill="#ece6f2"/><path d="m386.575 308.766-10 100.934 10 102.3h30v-193.289z" fill="#332866"/><path d="m386.575 308.766-108.708-2.511 10 205.745h98.708z" fill="#ece6f2"/><path d="m256 512h31.867v-102.3l-41.867-10z" fill="#ffb655"/><path d="m246 369.7 10 40h31.867v-30z" fill="#ffda44"/><path d="m287.867 316.255-41.867-7.583 10 71.028h31.867z" fill="#ffb655"/><path d="m386.575 308.766-51.953-17.222h-78.622v27.128l76.191 67.486z" fill="#cfcfe6"/><path d="m31.867 385.797c0-27.472 17.603-51.853 43.68-60.497l19.878-6.589 10 96.645-10 96.645h-63.558z" fill="#fff5f5"/><path d="m125.425 308.766 10 100.934-10 102.3h-30v-193.289z" fill="#574d8c"/><path d="m125.425 308.766 108.708-2.511-10 205.745h-98.708z" fill="#fff5f5"/><path d="m256 512h-31.867v-102.3l31.867-10z" fill="#ffda44"/><path d="m256 369.7v40h-31.867v-30z" fill="#fff79f"/><path d="m224.133 316.255 31.867-7.583v71.028h-31.867z" fill="#ffda44"/><path d="m125.425 308.766 51.953-17.222h78.622v27.128l-76.191 67.486z" fill="#ece6f2"/><path d="m138.531 191.204h-31.867c-17.6 0-31.868-14.268-31.868-31.868 0-17.6 14.268-31.868 31.868-31.868h31.867z" fill="#895140"/><path d="m373.469 191.204h31.867c17.6 0 31.868-14.268 31.868-31.868 0-17.6-14.268-31.868-31.868-31.868h-31.867z" fill="#5b362a"/><path d="m299.273 28.486h-53.273l10 290.187c70.399 0 127.469-57.07 127.469-127.469v-63.735z" fill="#895140"/><path d="m212.727 28.486-84.196 98.983v63.735c0 70.399 57.07 127.469 127.469 127.469v-290.187z" fill="#b56d3c"/><path d="m212.727 68.388v-39.902h-37.037c-28.77 23.371-47.159 59.027-47.159 98.983 0 0 62.182-5.299 84.196-59.081z" fill="#cfcfe6"/><path d="m184.299 144.336h31.867v30h-31.867z" fill="#332866"/><path d="m295.834 144.336h31.867v30h-31.867z" fill="#180a33"/><path d="m336.31 28.486h-37.037v39.902c22.014 53.783 84.196 59.081 84.196 59.081 0-39.956-18.389-75.612-47.159-98.983z" fill="#b9bed9"/><path d="m256 0-10 39.834 10 39.834c35.554 0 66.215-20.952 80.31-51.182-21.921-17.808-49.866-28.486-80.31-28.486z" fill="#cfcfe6"/><path d="m256 0c-30.443 0-58.389 10.678-80.31 28.486 14.094 30.23 44.755 51.182 80.31 51.182z" fill="#ece6f2"/></g></svg>