<svg id="Capa_1" enable-background="new 0 0 512 512" height="512" viewBox="0 0 512 512" width="512" xmlns="http://www.w3.org/2000/svg"><g><path d="m0 256c0-141.256 114.407-255.791 255.614-256 140.906-.208 256.112 114.586 256.386 255.492.158 81.112-37.409 153.457-96.134 200.468-5.872 4.701-14.055 5.112-20.358 1.008-40.132-26.133-88.047-41.317-139.507-41.317-51.576 0-99.589 15.252-139.776 41.492-6.053 3.953-13.971 3.693-19.625-.812-58.87-46.904-96.6-119.211-96.6-200.331z" fill="#60c8dd"/><path d="m438.319 256c0 100.692-81.627 182.319-182.319 182.319s-182.319-81.627-182.319-182.319 81.627-182.319 182.319-182.319 182.319 81.627 182.319 182.319z" fill="#7cd2e3"/><path d="m166 303.876h40c-38.66 0-70 31.34-70 70v97.078c0 5.078-5.524 8.27-9.898 5.689-10.542-6.22-20.599-13.174-30.102-20.791v-81.976c0-5.398.611-10.653 1.768-15.701.199-.869 4.873-1.031 5.104-1.888.993-3.679 2.279-7.239 3.831-10.652.269-.591-3.913-1.879-3.628-2.461 11.374-23.27 35.278-39.298 62.925-39.298z" fill="#a65d4e"/><path d="m146 213.876c-13.807 0-25-11.193-25-25v-10c0-13.807 11.193-25 25-25 13.807 0 25 11.193 25 25v10c0 13.807-11.193 25-25 25z" fill="#c38778"/><path d="m121 188.876v-10c0-13.806 11.192-24.999 24.998-25-6.071 4.561-9.998 11.822-9.998 20v20c0 8.178 3.927 15.439 9.998 20-13.806-.001-24.998-11.194-24.998-25zm225 115h-60v-24.141c33.586-9.499 60.641-34.551 72.895-66.883 2.252.666 4.637 1.024 7.105 1.024 13.807 0 25-11.193 25-25v-10c0-13.807-11.193-25-25-25v-20c0-60.751-49.249-110-110-110-60.751 0-110 49.249-110 110v40c0 50.351 33.83 92.801 80 105.859v24.141h-30c-38.66 0-70 31.34-70 70v102.707c31.742 18.747 67.882 30.839 106.5 34.353.664.06 1.368-1.215 2.034-1.16 3.582.298 7.185.522 10.807.671.732.03 1.426 1.391 2.16 1.415 2.822.092 5.656.138 8.5.138s5.678-.046 8.5-.138c.451-.015.883-.83 1.333-.847 4.21-.159 8.395-.42 12.55-.781.366-.032.751.735 1.117.702 51.399-4.678 98.408-24.549 136.5-55.084v-81.976c0-5.398-.611-10.653-1.768-15.701-.225-.98-3.603-1.461-3.868-2.425-.907-3.296-2.049-6.494-3.407-9.576-.372-.845 2.373-2.172 1.969-2.998-11.376-23.272-35.28-39.3-62.927-39.3z" fill="#b46e5a"/><path d="m355.678 418.149v73.72c-4.923 2.083-9.925 4.016-15 5.795v-79.514c0-4.142 3.358-7.5 7.5-7.5s7.5 3.357 7.5 7.499zm-199.356 0v73.72c4.923 2.083 9.925 4.016 15 5.795v-79.514c0-4.142-3.358-7.5-7.5-7.5s-7.5 3.357-7.5 7.499zm49.678-13.149c-4.142 0-7.5 3.358-7.5 7.5s3.358 7.5 7.5 7.5 7.5-3.358 7.5-7.5-3.358-7.5-7.5-7.5zm100 0c-4.142 0-7.5 3.358-7.5 7.5s3.358 7.5 7.5 7.5 7.5-3.358 7.5-7.5-3.358-7.5-7.5-7.5z" fill="#a65d4e"/><path d="m366 133.876v40c0 50.792-34.425 93.543-81.216 106.195-9.023 2.44-18.545 2.44-27.568 0-46.791-12.652-81.216-55.403-81.216-106.195v-40c0-55.663 41.345-101.669 95-108.985 53.655 7.316 95 53.322 95 108.985z" fill="#c38778"/><path d="m241.501 180.607c-2.929-2.93-2.929-7.678 0-10.607 2.929-2.928 7.678-2.928 10.606 0 1.042 1.042 2.424 1.616 3.893 1.616s2.851-.574 3.893-1.616c2.929-2.928 7.678-2.928 10.606 0 2.929 2.93 2.929 7.678 0 10.607-3.875 3.875-9.024 6.009-14.5 6.009-5.474 0-10.623-2.134-14.498-6.009z" fill="#b46e5a"/><path d="m223.5 141.376c0 8.284-6.716 15-15 15s-15-6.716-15-15 6.716-15 15-15 15 6.716 15 15zm80-15c-8.284 0-15 6.716-15 15s6.716 15 15 15 15-6.716 15-15-6.716-15-15-15z" fill="#61362b"/><path d="m226 133.876c0 4.142-3.358 7.5-7.5 7.5s-7.5-3.358-7.5-7.5 3.358-7.5 7.5-7.5 7.5 3.358 7.5 7.5zm87.5-7.5c-4.142 0-7.5 3.358-7.5 7.5s3.358 7.5 7.5 7.5 7.5-3.358 7.5-7.5-3.358-7.5-7.5-7.5z" fill="#fff5f5"/><path d="m374.846 63.562-19.966 12.844c4.412 7.371 8.023 15.275 10.713 23.594h-172.806v-60.807c5.319-3.5 10.945-6.57 16.83-9.163l-5.564-10.408c-3.472-6.494-1.022-14.573 5.472-18.045 6.494-3.472 14.573-1.022 18.045 5.472l8.049 15.056c2.326-.415 4.676-.761 7.048-1.034v-7.738c0-7.363 5.969-13.333 13.333-13.333s13.333 5.969 13.333 13.333v7.738c6.741.777 13.305 2.136 19.64 4.026l-2.927-5.475c-3.472-6.494-1.022-14.573 5.472-18.045 6.494-3.472 14.573-1.022 18.045 5.472l15.787 29.53 10.503-27.935c2.592-6.893 10.28-10.379 17.173-7.788 6.893 2.592 10.38 10.28 7.788 17.173l-11.333 30.142 10.938-7.036c6.193-3.984 14.443-2.193 18.427 4 3.984 6.193 2.193 14.443-4 18.427z" fill="#784132"/><path d="m147.319 97.298c2.878-8.196 6.657-15.968 11.218-23.197l-16.383-10.539c-6.193-3.984-7.984-12.234-4-18.427 3.984-6.193 12.234-7.984 18.427-4l10.938 7.036-11.333-30.142c-2.592-6.893.895-14.581 7.788-17.173 6.893-2.591 14.581.896 17.173 7.788l11.516 30.63c.278-.183.557-.365.837-.546v58.57z" fill="#61362b"/><path d="m264.5 511.862v-91.186c0-42.733 34.767-77.5 77.5-77.5h66.926c2.31 4.726 4.103 9.75 5.306 15h-72.232c-34.463 0-62.5 28.038-62.5 62.5v90.26c-4.96.451-9.962.761-15 .926zm-94.5-168.687h-36.926c-3.028 0-11.012 1.833-12.14 4.644-.02.049-.039.098-.059.147-1.949 4.89 1.629 10.209 6.893 10.209h42.232c34.518 0 62.5 27.982 62.5 62.5v90.26c4.96.451 9.962.761 15 .926v-91.186c0-42.802-34.698-77.5-77.5-77.5zm46.787 99.325c0-4.142-3.358-7.5-7.5-7.5h-18.659c-4.142 0-7.5 3.358-7.5 7.5 0 4.142 3.358 7.5 7.5 7.5h18.659c4.142 0 7.5-3.358 7.5-7.5zm0 22.5c0-4.142-3.358-7.5-7.5-7.5h-18.659c-4.142 0-7.5 3.358-7.5 7.5 0 4.142 3.358 7.5 7.5 7.5h18.659c4.142 0 7.5-3.358 7.5-7.5zm0 22.5c0-4.142-3.358-7.5-7.5-7.5h-18.659c-4.142 0-7.5 3.358-7.5 7.5 0 4.142 3.358 7.5 7.5 7.5h18.659c4.142 0 7.5-3.358 7.5-7.5zm112.085-45c0-4.142-3.358-7.5-7.5-7.5h-18.659c-4.142 0-7.5 3.358-7.5 7.5 0 4.142 3.358 7.5 7.5 7.5h18.659c4.142 0 7.5-3.358 7.5-7.5zm0 22.5c0-4.142-3.358-7.5-7.5-7.5h-18.659c-4.142 0-7.5 3.358-7.5 7.5 0 4.142 3.358 7.5 7.5 7.5h18.659c4.142 0 7.5-3.358 7.5-7.5zm0 22.5c0-4.142-3.358-7.5-7.5-7.5h-18.659c-4.142 0-7.5 3.358-7.5 7.5 0 4.142 3.358 7.5 7.5 7.5h18.659c4.142 0 7.5-3.358 7.5-7.5zm-116.085-310c0-4.142-3.358-7.5-7.5-7.5h-31.787c-4.142 0-7.5 3.358-7.5 7.5 0 4.142 3.358 7.5 7.5 7.5h31.787c4.142 0 7.5-3.358 7.5-7.5zm43.213-51.5c-4.142 0-7.5 3.358-7.5 7.5v19c0 4.142 3.358 7.5 7.5 7.5 4.142 0 7.5-3.358 7.5-7.5v-19c0-4.142-3.358-7.5-7.5-7.5zm-66 76.5c0-4.142-3.358-7.5-7.5-7.5h-9c-4.142 0-7.5 3.358-7.5 7.5 0 4.142 3.358 7.5 7.5 7.5h9c4.142 0 7.5-3.358 7.5-7.5zm154 0c0-4.142-3.358-7.5-7.5-7.5h-9c-4.142 0-7.5 3.358-7.5 7.5 0 4.142 3.358 7.5 7.5 7.5h9c4.142 0 7.5-3.358 7.5-7.5zm2-25c0-4.142-3.358-7.5-7.5-7.5h-31.787c-4.142 0-7.5 3.358-7.5 7.5 0 4.142 3.358 7.5 7.5 7.5h31.787c4.142 0 7.5-3.358 7.5-7.5z" fill="#fff5f5"/><path d="m133.074 343.175c-2.31 4.726-4.103 9.75-5.306 15h-30c1.203-5.25 2.996-10.274 5.306-15z" fill="#ffe1aa"/><path d="m311 210v26.989c0 29.277-23.734 53.011-53.011 53.011h-3.979c-29.276 0-53.01-23.734-53.01-53.011v-26.989c0-11.046 8.954-20 20-20h70c11.046 0 20 8.954 20 20z" fill="#784132"/><path d="m270.183 288.591c-3.915.922-7.997 1.409-12.194 1.409h-3.979c-29.276 0-53.01-23.734-53.01-53.011v-26.989c0-11.046 8.954-20 20-20h28.366c-11.046 0-20 8.954-20 20v26.989c0 25.081 17.418 46.094 40.817 51.602z" fill="#61362b"/><path d="m256 243.876c-16.569 0-26.634-13.431-26.634-30 0-4.142-.008-7.5 4.134-7.5h45c4.142 0 7.5 3.358 7.5 7.5 0 16.569-13.431 30-30 30z" fill="#fff5f5"/><path d="m263.5 242.931c-2.397.617-4.91.945-7.5.945-16.568 0-30-13.431-30-30 0-4.142 3.358-7.5 7.5-7.5h15c-4.142 0-7.5 3.358-7.5 7.5 0 13.979 9.561 25.724 22.5 29.055z" fill="#def4f8"/><path d="m331.745 310.627c-17.014 25.256-45.33 40.334-75.745 40.334s-58.731-15.078-75.745-40.334c-2.314-3.436-1.406-8.096 2.029-10.411 3.435-2.313 8.097-1.406 10.41 2.03 14.223 21.111 37.889 33.715 63.306 33.715s49.083-12.604 63.306-33.715c2.314-3.435 6.975-4.343 10.41-2.03 3.435 2.315 4.344 6.976 2.029 10.411zm-75.745 12.463c15.397 0 29.731-7.632 38.344-20.417 2.314-3.435 1.406-8.096-2.029-10.411-3.436-2.314-8.097-1.405-10.41 2.03-5.821 8.64-15.505 13.797-25.904 13.797s-20.083-5.158-25.904-13.797c-2.314-3.435-6.975-4.344-10.41-2.03-3.436 2.314-4.344 6.976-2.029 10.411 8.611 12.785 22.945 20.417 38.342 20.417z" fill="#ffc14f"/><path d="m277.83 317.615c-6.613 3.545-14.087 5.96-21.83 5.96s-15.217-2.415-21.83-5.96v-18.429c5.778 5.657 13.579 8.431 21.83 8.431s16.052-2.774 21.83-8.431zm30.623-2.547c-11.368 9.882-24.9 16.443-39.01 19.705l6.308 14.034c15.121-2.828 28.482-9.551 39.153-19.387zm-111.358 14.352c10.373 9.836 24.245 16.814 39.153 19.387l6.308-14.034c-14.727-3.347-27.621-9.823-39.01-19.705z" fill="#ff9f22"/><path d="m366 117.277h-195c-2.761 0-5-2.239-5-5v-40c0-2.761 2.239-5 5-5h195c2.761 0 5 2.239 5 5v40c0 2.761-2.239 5-5 5z" fill="#fb5858"/><path d="m320 92.277c0 4.142-3.358 7.5-7.5 7.5h-130.037c-6.331 0-11.463 5.132-11.463 11.463v1.037c0 2.761 2.239 5 5 5h-30c-2.761 0-5-2.239-5-5v-40c0-2.761 2.239-5 5-5h30c-2.761 0-5 2.239-5 5v1.037c0 6.331 5.132 11.463 11.463 11.463h130.037c4.142 0 7.5 3.358 7.5 7.5z" fill="#c83c50"/></g></svg>