<svg id="Capa_1" enable-background="new 0 0 512 512" height="512" viewBox="0 0 512 512" width="512" xmlns="http://www.w3.org/2000/svg"><g><path d="m31.867 417.664c0-27.472 17.604-51.853 43.68-60.497l5.054-1.675 10 78.254-10 78.254h-48.734z" fill="#fff5f5"/><path d="m110.602 345.547 10 83.226-10 83.227h-30v-156.508z" fill="#24b3b3"/><path d="m480.133 417.664c0-27.472-17.604-51.853-43.68-60.497l-5.054-1.675-10 78.254 10 78.254h48.734z" fill="#ece6f2"/><path d="m401.398 345.547-10 83.226 10 83.227h30v-156.508z" fill="#198080"/><path d="m401.398 345.547-66.776-22.136-56.755 54.034v36.831l25.933 97.724h97.598z" fill="#24b3b3"/><path d="m334.622 323.411h-56.755l10 90.863h63.733s11.926-53.87-16.978-90.863z" fill="#ece6f2"/><path d="m246 404.274 10 107.726h47.8l-15.933-97.724z" fill="#180a33"/><path d="m110.602 345.547 66.776-22.136 56.755 54.034v36.831l-25.933 97.724h-97.598z" fill="#2ee6a8"/><path d="m177.378 323.411h56.755l-10 90.863h-63.733s-11.926-53.87 16.978-90.863z" fill="#fff5f5"/><path d="m256 404.274v107.726h-47.8l15.933-97.724z" fill="#332866"/><path d="m246 323.411 10 90.863h31.867v-90.863z" fill="#332866"/><path d="m224.133 323.411h31.867v90.863h-31.867z" fill="#574d8c"/><path d="m415.336 159.336c0-87.999-71.337-159.336-159.336-159.336l-10 172.876 169.336-10z" fill="#b56d3c"/><path d="m256 0c-87.999 0-159.336 71.337-159.336 159.336v3.54l159.336 10z" fill="#c78f2c"/><path d="m138.579 226.611h-41.915c-17.6 0-31.868-14.268-31.868-31.868 0-17.6 14.268-31.868 31.868-31.868h31.867z" fill="#ffdecf"/><path d="m383.469 162.876h31.867c17.6 0 31.868 14.268 31.868 31.868 0 17.6-14.268 31.868-31.868 31.868h-41.915z" fill="#ffcdbe"/><path d="m383.469 162.876h-16.271c-38.481 0-75.721-13.616-105.126-38.438-1.92-1.621-3.954-3.077-6.072-4.381l-10 87.079 10 143.403c70.399 0 127.469-57.07 127.469-127.469z" fill="#ffdecf"/><path d="m229.661 112.588c-17.64 0-33.989 9.251-43.072 24.372-9.659 16.08-27.043 25.916-45.801 25.916h-12.257v60.195c0 70.399 57.07 127.469 127.469 127.469v-230.483c-7.88-4.851-16.988-7.469-26.339-7.469z" fill="#ffeee5"/><path d="m184.299 192.137h31.867v30h-31.867z" fill="#332866"/><path d="m295.834 192.137h31.867v30h-31.867z" fill="#180a33"/></g></svg>