<svg id="Capa_1" enable-background="new 0 0 512 512" height="512" viewBox="0 0 512 512" width="512" xmlns="http://www.w3.org/2000/svg"><g><g><path d="m456.951 407.165c27.755-39.717 44.049-88.035 44.049-140.165 0-135.31-109.69-245-245-245s-245 109.69-245 245c0 52.13 16.294 100.448 44.049 140.165z" fill="#7255ce"/></g><g><circle cx="256" cy="242" fill="#5c45bf" r="200"/></g><g><path d="m172.972 60.171c-44.779 53.057-70.844 135.464-52.359 201.033s83.657 80.919 135.387 80.919v-281.952z" fill="#ffc839"/></g><g><path d="m391.387 261.204c18.485-65.569-7.58-147.976-52.359-201.033h-83.028v281.952c51.73 0 116.902-15.35 135.387-80.919z" fill="#ffdd40"/></g><g><path d="m315.132 121.062h-118.264c-31.892 37.787-50.455 96.478-37.29 143.176s59.58 57.63 96.422 57.63 83.257-10.932 96.422-57.63c13.165-46.699-5.398-105.389-37.29-143.176z" fill="#ffb332"/></g><g><path d="m456.949 407.139c-8.256-22.709-16.99-42.685-24.722-51.911-.904-1.078-1.794-2.019-2.668-2.79-6.623-5.848-19.39-11.382-34.352-16.323-37.928-12.525-89.968-21.232-91.82-21.54h-94.772c-1.055.175-18.381 3.074-40.105 7.849v.001l-13.87 14.426-18.352-6.563c-6.688 1.827-13.279 3.775-19.492 5.827-14.961 4.941-27.729 10.475-34.352 16.323-.874.772-1.765 1.712-2.668 2.79-7.732 9.226-16.467 29.203-24.722 51.911-.001.009-.001.018-.002.026 13.312 19.05 29.274 36.107 47.333 50.665h307.235c18.06-14.558 34.021-31.615 47.333-50.665-.003-.008-.003-.017-.004-.026z" fill="#fcad6d"/></g><g><path d="m181.159 395.255c-7.588-20.983-11.96-45.066-12.65-72.83l-13.87 14.426-18.352-6.563c-6.687 1.827-13.279 3.775-19.492 5.827-14.961 4.941-27.729 10.475-34.352 16.323-.874.772-1.765 1.712-2.668 2.79-7.732 9.226-16.467 29.203-24.722 51.911-.001.009-.001.018-.002.026 13.312 19.05 29.274 36.107 47.333 50.665h118.606c-17.283-17.15-30.826-37.676-39.831-62.575z" fill="#fd995b"/></g><g><path d="m276.616 369.362s10.767-11.809 23.703-11.809 55.191 11.809 55.191 11.809z" fill="#fd995b"/></g><g><path d="m391.147 471.33c6.374-4.223 12.555-8.713 18.491-13.499-4.027-11.7-11.689-21.884-21.736-29.06v42.559z" fill="#fd995b"/></g><g><path d="m124.098 471.33v-42.559c-10.047 7.176-17.708 17.36-21.736 29.06 5.936 4.786 12.117 9.277 18.491 13.499z" fill="#ef854b"/></g><g><path d="m208.614 221.239v93.336s19.021 20.093 47.17 20.093c.073 0 .143-.005.216-.005 28.031-.103 47.386-20.088 47.386-20.088v-93.336z" fill="#fcad6d"/></g><g><path d="m208.614 220.734v93.841c94.723 0 94.772-53.4 94.772-53.4v-40.44h-94.772z" fill="#fd995b"/></g><g><path d="m174.131 36.423c19.783-22.322 47.62-36.423 81.869-36.423s48.985 5.638 62.772 12 14.708 34.073 14.708 34.073c17.176 18.715 27.663 43.666 27.663 71.07v30.076h-210.286v-30.076c0-23.009 3.49-58.398 23.274-80.72z" fill="#ffdd40"/></g><g><path d="m208.726 136.799c-22.059-26.794-26.474-108.631 13.463-131.774-19.091 5.968-35.261 16.959-48.058 31.398-19.784 22.322-23.273 57.711-23.273 80.72v30.076h57.869v-10.42z" fill="#ffc839"/></g><g><path d="m180.942 159.567s-10.385-25.285-28.897-19.415.448 60.664 36.573 64.116z" fill="#fd995b"/></g><g><path d="m331.058 159.567s10.385-25.285 28.897-19.415-.448 60.664-36.573 64.116z" fill="#fcad6d"/></g><g><path d="m317.163 84.904c10.322 3.439 17.93 12.279 20.432 22.867 2.552 10.801 6.002 27.519 6.002 38.984 0 64.505-39.219 140.155-87.597 140.155s-87.597-75.65-87.597-140.155c0-1.674.033-2.084.085-3.733 81.411-.002 112.185-70.275 148.675-58.118z" fill="#f9ba8f"/></g><g><path d="m208.403 146.754c0-3.37.113-6.688.323-9.955-11.927 3.825-25.218 6.222-40.238 6.222-.052 1.649-.085 2.059-.085 3.733 0 64.505 39.219 140.155 87.597 140.155 6.881 0 13.576-1.535 20-4.346-38.741-16.952-67.597-80.479-67.597-135.809z" fill="#fcad6d"/></g><g><path d="m223.5 138.968h-20c-4.142 0-7.5-3.358-7.5-7.5 0-4.142 3.358-7.5 7.5-7.5h20c4.142 0 7.5 3.358 7.5 7.5 0 4.142-3.358 7.5-7.5 7.5z" fill="#ff9100"/></g><g><path d="m308.5 138.968h-20c-4.142 0-7.5-3.358-7.5-7.5 0-4.142 3.358-7.5 7.5-7.5h20c4.142 0 7.5 3.358 7.5 7.5 0 4.142-3.358 7.5-7.5 7.5z" fill="#ff9100"/></g><g><g><path d="m242.013 192.447 8.436-13.441c2.569-4.093 8.533-4.093 11.102 0l8.436 13.441c2.739 4.365-.398 10.038-5.551 10.038h-16.871c-5.154-.001-8.291-5.674-5.552-10.038z" fill="#fd995b"/></g></g><g><g><path d="m235.384 240.87h41.233c4.111-3.622 7.258-8.309 9.01-13.631 1.584-4.811-2.069-9.754-7.134-9.754h-44.985c-5.065 0-8.718 4.943-7.134 9.754 1.752 5.322 4.899 10.009 9.01 13.631z" fill="#162544"/></g><g><path d="m276.616 240.87c-5.493 4.849-12.714 7.798-20.616 7.798s-15.124-2.948-20.616-7.798c5.5-4.849 12.714-7.798 20.616-7.798s15.116 2.949 20.616 7.798z" fill="#ff4155"/></g></g><g><path d="m310.999 162.085c.043-3.495-1.371-7.004-4.242-9.539-4.675-4.128-11.84-4.128-16.515 0-2.871 2.535-4.284 6.044-4.242 9.539.055 4.538 5.629 6.716 8.838 3.507 2.022-2.022 5.3-2.022 7.322 0 3.21 3.21 8.784 1.032 8.839-3.507z" fill="#162544"/></g><g><path d="m201.001 162.085c-.043-3.495 1.371-7.004 4.242-9.539 4.675-4.128 11.84-4.128 16.515 0 2.871 2.535 4.284 6.044 4.242 9.539-.055 4.538-5.629 6.716-8.838 3.507-2.022-2.022-5.3-2.022-7.322 0-3.21 3.21-8.784 1.032-8.839-3.507z" fill="#162544"/></g><g><path d="m334.425 395.255s-129.68 0-165.916-72.83c-10.183 2.238-21.328 4.887-32.223 7.863-.113 37.786-6.718 74.222-12.761 99.722-5.083 11.116-6.792 23.941-3.878 37.022.604 2.713 1.146 4.246 1.165 4.298v.009c38.749 25.687 85.216 40.661 135.188 40.661 49.971 0 96.438-14.974 135.187-40.661l.001-.009c.019-.052.56-1.586 1.165-4.298 8.214-36.866-20.159-71.777-57.928-71.777z" fill="#ff596e"/></g><g><path d="m123.525 430.01c-5.083 11.116-6.792 23.941-3.878 37.022.604 2.713 1.146 4.246 1.165 4.298v.009c38.749 25.687 85.216 40.661 135.188 40.661-51.383-30.489-87.491-99.723-87.491-189.575-10.183 2.238-21.328 4.887-32.223 7.863-.113 37.786-6.718 74.222-12.761 99.722z" fill="#ff4155"/></g><g><circle cx="207.862" cy="314.575" fill="#bec8f7" r="12.5"/></g><g><circle cx="227.515" cy="327.866" fill="#dae2fe" r="15"/></g><g><circle cx="304.138" cy="314.575" fill="#bec8f7" r="12.5"/></g><g><circle cx="284.485" cy="327.866" fill="#dae2fe" r="15"/></g><g><circle cx="256" cy="334.663" fill="#e9efff" r="17.5"/></g></g></svg>