<svg id="Capa_1" enable-background="new 0 0 512 512" height="512" viewBox="0 0 512 512" width="512" xmlns="http://www.w3.org/2000/svg"><g><path d="m0 256c0-141.277 114.441-255.826 255.677-256 140.169-.173 255.038 113.456 256.312 253.619.744 81.84-36.919 154.912-96.057 202.286-3.981 3.189-9.585 3.459-13.771.543-41.442-28.871-91.825-45.8-146.162-45.8-54.351 0-104.746 16.938-146.194 45.822-4.166 2.903-9.744 2.633-13.707-.541-58.581-46.913-96.098-119.04-96.098-199.929z" fill="#20b7a1"/><path d="m461.128 256c0 113.289-91.839 205.128-205.128 205.128s-205.128-91.839-205.128-205.128 91.839-205.128 205.128-205.128 205.128 91.839 205.128 205.128z" fill="#24d3b5"/><path d="m382 150v60c0 11.046-8.954 20-20 20h-212c-11.046 0-20-8.954-20-20v-60c0-28.087 10.526-53.714 27.849-73.154 3.214-3.607 7.857-5.613 12.688-5.613h169.307c6.005 0 11.736 2.59 15.647 7.146 16.524 19.245 26.509 44.267 26.509 71.621z" fill="#784132"/><path d="m195.653 230h-45.653c-11.046 0-20-8.954-20-20v-60c0-28.087 10.526-53.714 27.849-73.154 3.214-3.607 7.857-5.613 12.688-5.613h45.653c-4.831 0-9.474 2.006-12.688 5.613-17.323 19.439-27.849 45.067-27.849 73.154v60c0 11.046 8.954 20 20 20z" fill="#61362b"/><path d="m166 333.416h43.333c-38.66 0-70 31.34-70 70v65.732c0 6.759-7.353 10.961-13.175 7.528-10.563-6.228-20.639-13.193-30.158-20.824v-52.436c0-38.66 31.34-70 70-70z" fill="#c2eaf2"/><path d="m416 403.416v52.436c-18.23 14.614-38.503 26.785-60.322 36.017-.132.056-.284.067-.451.039-8.538-1.421-17.159-2.27-25.544-.127l-19.963 5.101c-9.998 2.555-19.801 6.617-27.51 13.478-.254.226-.504.366-.742.39-8.377.826-16.873 1.25-25.468 1.25s-17.091-.424-25.468-1.251c-1.209-.119-2.39-.888-3.451-1.905-4.982-4.777-11.288-7.944-17.962-9.704l-28.605-7.543c-7.028-1.853-14.38-1.658-21.428.119-1.175.296-2.178.4-2.765.152-10.482-4.435-20.608-9.549-30.322-15.286v-73.167c0-38.66 31.34-70 70-70h117.851l18.562 4.551c6.987 1.713 14.4.675 20.565-3.033 1.002-.603 1.947-.959 2.701-.854 34.08 4.714 60.322 33.961 60.322 69.337z" fill="#def4f8"/><path d="m248.5 511.892v-167.16h15v167.159c-2.491.072-4.991.108-7.5.108-2.509.001-5.009-.036-7.5-.107z" fill="#c2eaf2"/><path d="m355.678 334.08v157.789c-23.189 9.812-48.124 16.304-74.21 18.88v-114.831c0-26.245 13.624-49.308 34.186-62.502h30.346c3.284 0 6.515.226 9.678.664zm-159.332-.664h-30.346c-3.284 0-6.515.226-9.678.664v157.789c23.189 9.812 48.124 16.304 74.21 18.88v-114.831c0-26.245-13.624-49.308-34.186-62.502z" fill="#c0694e"/><path d="m327.82 345.858-40.607 40.607c-1.953 1.953-5.118 1.953-7.071 0l-24.142-24.143-24.142 24.142c-1.953 1.953-5.118 1.953-7.071 0l-40.607-40.607c-1.953-1.953-1.953-5.118 0-7.071l40.607-40.607c1.953-1.953 5.118-1.953 7.071 0l20.607 20.607c1.953 1.953 5.118 1.953 7.071 0l20.607-20.607c1.953-1.953 5.118-1.953 7.071 0l40.607 40.607c1.951 1.953 1.951 5.119-.001 7.072z" fill="#fff5f5"/><path d="m355.678 438.277v53.592c-4.923 2.083-9.925 4.017-15 5.795v-59.387c0-4.142 3.358-7.5 7.5-7.5s7.5 3.358 7.5 7.5zm-191.856-7.5c-4.142 0-7.5 3.358-7.5 7.5v53.592c4.923 2.083 9.925 4.017 15 5.795v-59.387c0-4.142-3.358-7.5-7.5-7.5z" fill="#ae583e"/><path d="m146 243.416c-13.807 0-25-11.193-25-25v-10c0-13.807 11.193-25 25-25 13.807 0 25 11.193 25 25v10c0 13.807-11.193 25-25 25z" fill="#f2bb88"/><path d="m136 203.416v20c0 8.178 3.927 15.439 9.998 20-13.806-.001-24.998-11.194-24.998-25v-10c0-13.806 11.192-24.999 24.998-25-6.071 4.561-9.998 11.822-9.998 20zm230-20v-20c0-60.751-49.249-110-110-110-60.751 0-110 49.249-110 110v40c0 50.351 33.83 92.801 80 105.859v15.638c0 5.433 2.21 10.632 6.123 14.402l23.877 23.007 23.877-23.007c3.912-3.77 6.123-8.969 6.123-14.402v-15.638c33.586-9.499 60.641-34.551 72.895-66.883 2.252.667 4.637 1.024 7.105 1.024 13.807 0 25-11.193 25-25v-10c0-13.807-11.193-25-25-25z" fill="#e3a76f"/><path d="m366 163.416v40c0 50.792-34.425 93.543-81.216 106.195-9.023 2.44-18.545 2.44-27.568 0-46.791-12.652-81.216-55.403-81.216-106.195v-40c0-55.663 41.345-101.669 95-108.985 53.655 7.316 95 53.322 95 108.985z" fill="#f2bb88"/><path d="m292 220c0 11.046-8.954 20-20 20h-32c-11.046 0-20-8.954-20-20 0-5.523 4.477-10 10-10h52c5.523 0 10 4.477 10 10z" fill="#61362b"/><path d="m241.5 210.148c-2.929-2.93-2.929-7.678 0-10.607 2.929-2.928 7.678-2.928 10.606 0 1.042 1.042 2.424 1.616 3.893 1.616s2.851-.574 3.893-1.616c2.929-2.928 7.678-2.928 10.606 0 2.929 2.93 2.929 7.678 0 10.607-3.875 3.875-9.024 6.009-14.5 6.009s-10.623-2.134-14.498-6.009z" fill="#d6995c"/><path d="m223.5 170.916c0 8.284-6.716 15-15 15s-15-6.716-15-15 6.716-15 15-15 15 6.716 15 15zm80-15c-8.284 0-15 6.716-15 15s6.716 15 15 15 15-6.716 15-15-6.716-15-15-15z" fill="#61362b"/><path d="m226 163.416c0 4.142-3.358 7.5-7.5 7.5s-7.5-3.358-7.5-7.5 3.358-7.5 7.5-7.5 7.5 3.358 7.5 7.5zm87.5-7.5c-4.142 0-7.5 3.358-7.5 7.5s3.358 7.5 7.5 7.5 7.5-3.358 7.5-7.5-3.358-7.5-7.5-7.5z" fill="#fff5f5"/><path d="m256 273.416c-16.569 0-30-13.431-30-30 0-4.142 3.358-7.5 7.5-7.5h45c4.142 0 7.5 3.358 7.5 7.5 0 16.569-13.431 30-30 30z" fill="#fff5f5"/><path d="m263.5 272.471c-2.397.617-4.91.945-7.5.945-16.568 0-30-13.431-30-30 0-4.142 3.358-7.5 7.5-7.5h15c-4.142 0-7.5 3.358-7.5 7.5 0 13.979 9.561 25.725 22.5 29.055z" fill="#def4f8"/><path d="m355.608 78.515c-13.862 35.966-48.755 61.485-89.608 61.485h-20c-22.98 0-44.074-8.074-60.6-21.54-12.853-10.474 7.945-71.176 32.27-76.192 7.211-1.487 14.679-2.268 22.33-2.268h32c33.461 0 63.433 14.941 83.608 38.515z" fill="#784132"/><path d="m156.392 78.515c20.175-23.574 50.147-38.515 83.608-38.515h18.515c-7.5 6.991-14.021 15.017-19.337 23.851-23.783 11.204-42.902 30.677-53.648 54.714-12.915-10.487-23.053-24.262-29.138-40.05z" fill="#61362b"/><path d="m332.754 90h-153.508c-4.073 0-6.962-3.971-5.709-7.846l25.225-78c.802-2.476 3.108-4.154 5.71-4.154h103.056c2.602 0 4.908 1.678 5.709 4.154l25.225 78c1.254 3.875-1.636 7.846-5.708 7.846z" fill="#c83c50"/><path d="m203.809 90h-24.562c-4.073 0-6.962-3.971-5.709-7.846l25.225-78c.801-2.476 3.107-4.154 5.709-4.154h16.578z" fill="#b03244"/><path d="m299.153 67.17h-15v-67.17h15z" fill="#b03244"/><path d="m274.869 103.276c-2.919-2.919-3.533-7.428-1.5-11.021l18.284-32.322 18.284 32.322c2.033 3.594 1.419 8.102-1.5 11.021-9.27 9.269-24.299 9.269-33.568 0z" fill="#ffc14f"/><path d="m301.653 65.416c0 5.523-4.477 10-10 10s-10-4.477-10-10 4.477-10 10-10c5.522 0 10 4.477 10 10z" fill="#ffcd71"/></g></svg>