<svg height="512pt" viewBox="0 0 512 512" width="512pt" xmlns="http://www.w3.org/2000/svg"><path d="m512 256c0 141.386719-114.613281 256-256 256s-256-114.613281-256-256 114.613281-256 256-256 256 114.613281 256 256zm0 0" fill="#42b7a1"/><path d="m336.609375 311.007812h-162.660156v93.828126l81.804687 43.894531 80.855469-43.894531zm0 0" fill="#bd5423"/><path d="m398.410156 468.761719c-12.339844 8.277343-25.441406 15.519531-39.179687 21.566406-10.652344 4.703125-21.679688 8.703125-33.03125 11.921875-22.300781 6.351562-45.847657 9.75-70.199219 9.75-24.339844 0-47.890625-3.398438-70.199219-9.738281-7.242187-2.0625-14.359375-4.441407-21.332031-7.121094-.429688-.160156-.859375-.320313-1.289062-.492187-3.507813-1.359376-6.980469-2.808594-10.410157-4.320313-13.738281-6.058594-26.839843-13.289063-39.191406-21.578125 10.390625-14.371094 23.761719-26.429688 39.191406-35.320312 10.199219-5.871094 21.300781-10.339844 33.03125-13.148438 1.808594-.441406 3.640625-.839844 5.480469-1.191406 3.46875-.679688 7-1.199219 10.570312-1.570313 1.027344-.109375 2.046876-.210937 3.089844-.289062 3.378906-.28125 6.796875-.421875 10.257813-.421875h81.589843c4.519532 0 8.972657.242187 13.351563.703125 3.570313.367187 7.089844.898437 10.570313 1.558593 1.390624.269532 2.769531.558594 4.140624.871094.449219.117188.910157.207032 1.347657.328125 11.742187 2.820313 22.832031 7.289063 33.03125 13.160157 15.429687 8.898437 28.789062 20.960937 39.179687 35.332031zm0 0" fill="#f1eee9"/><path d="m215.199219 416.808594c-29.359375 0-49.257813 42.429687-50.730469 78.332031-.429688-.160156-.859375-.320313-1.289062-.492187-3.507813-1.359376-6.980469-2.808594-10.410157-4.320313-13.738281-6.058594-26.839843-13.289063-39.191406-21.578125 10.390625-14.371094 23.761719-26.429688 39.191406-35.320312 10.199219-5.871094 21.300781-10.339844 33.03125-13.148438 1.808594-.441406 3.640625-.839844 5.480469-1.191406 3.46875-.679688 7-1.199219 10.570312-1.570313 1.027344-.109375 2.046876-.210937 3.089844-.289062 3.378906-.28125 6.796875-.421875 10.257813-.421875zm0 0" fill="#d7d3cd"/><path d="m255.988281 437.875 30.230469 30.230469-30.230469 30.230469-30.230469-30.230469zm0 0" fill="#40b4d3"/><path d="m278.660156 511.011719c-7.460937.660156-15.019531.988281-22.660156.988281s-15.210938-.339844-22.679688-.988281l22.667969-22.671875zm0 0" fill="#40b4d3"/><path d="m255.988281 468.109375-52.996093 29.453125-16.121094-79.988281 32.929687-14.390625" fill="#d7d3cd"/><path d="m255.988281 468.109375 52.992188 29.453125 16.121093-79.988281-32.925781-14.390625" fill="#d7d3cd"/><path d="m300.707031 368.539062v54.867188c0 20.089844-13.246093 37.066406-31.488281 42.707031-4.179688 1.296875-8.628906 1.996094-13.230469 1.996094-24.691406 0-44.703125-20.011719-44.703125-44.703125v-54.867188zm0 0" fill="#efb29a"/><path d="m300.707031 419.933594v3.472656c0 20.089844-13.246093 37.066406-31.488281 42.707031-16.460938-5.058593-28.839844-19.371093-31.125-36.882812 2.988281.183593 5.992188.273437 9.007812.273437 8.460938 0 16.75-.671875 24.828126-1.996094 9.953124-1.601562 19.570312-4.160156 28.777343-7.574218zm0 0" fill="#f9c5ac"/><path d="m410.695312 256.511719c0 76.984375-56.242187 140.847656-129.871093 152.703125-8.078125 1.328125-16.371094 2-24.828125 2-85.445313 0-154.703125-69.257813-154.703125-154.703125v-157.5l141.046875-35.144531 168.355468 35.144531zm0 0" fill="#f9c5ac"/><g fill="#efb29a"><path d="m283.242188 408.808594c-.800782.140625-1.609376.28125-2.417969.410156-8.082031 1.320312-16.371094 1.992188-24.832031 1.992188-85.4375 0-154.699219-69.25-154.699219-154.699219v-157.5h54.550781v157.5c0 76.136719 54.980469 139.410156 127.398438 152.296875zm0 0"/><path d="m360.261719 296.496094c0 10.539062-8.542969 19.082031-19.082031 19.082031-10.539063 0-19.082032-8.542969-19.082032-19.082031 0-10.539063 8.542969-19.082032 19.082032-19.082032 10.539062 0 19.082031 8.542969 19.082031 19.082032zm0 0"/><path d="m189.886719 296.496094c0 10.539062-8.542969 19.082031-19.082031 19.082031-10.539063 0-19.082032-8.542969-19.082032-19.082031 0-10.539063 8.542969-19.082032 19.082032-19.082032 10.539062 0 19.082031 8.542969 19.082031 19.082032zm0 0"/><path d="m273.378906 297.921875h-34.757812c-4.140625 0-7.5-3.355469-7.5-7.496094s3.359375-7.496093 7.5-7.496093h34.757812c4.136719 0 7.496094 3.355468 7.496094 7.496093s-3.359375 7.496094-7.496094 7.496094zm0 0"/></g><path d="m256 345.351562c-12.828125 0-25.65625-3.214843-37.351562-9.640624-3.296876-1.8125-4.5-5.957032-2.6875-9.257813 1.8125-3.296875 5.957031-4.5 9.253906-2.6875 19.277344 10.597656 42.292968 10.597656 61.566406 0 3.296875-1.8125 7.441406-.609375 9.253906 2.6875 1.816406 3.300781.613282 7.445313-2.6875 9.257813-11.691406 6.425781-24.519531 9.640624-37.347656 9.640624zm0 0" fill="#dd9f8a"/><path d="m343.992188 244.328125c0-17.808594-14.433594-32.242187-32.242188-32.242187s-32.242188 14.433593-32.242188 32.242187" fill="#efb29a"/><path d="m333.773438 258.054688c0 12.164062-9.859376 22.023437-22.023438 22.023437s-22.023438-9.859375-22.023438-22.023437c0-12.164063 9.859376-22.023438 22.023438-22.023438s22.023438 9.859375 22.023438 22.023438zm0 0" fill="#2f373b"/><path d="m330.363281 254.167969c0 5.210937-4.222656 9.4375-9.433593 9.4375-5.214844 0-9.4375-4.226563-9.4375-9.4375 0-5.210938 4.222656-9.4375 9.4375-9.4375 5.210937 0 9.433593 4.226562 9.433593 9.4375zm0 0" fill="#fff"/><path d="m232.480469 244.328125c0-17.808594-14.433594-32.242187-32.242188-32.242187-17.808593 0-32.242187 14.433593-32.242187 32.242187" fill="#efb29a"/><path d="m222.261719 258.054688c0 12.164062-9.859375 22.023437-22.023438 22.023437-12.160156 0-22.019531-9.859375-22.019531-22.023437 0-12.164063 9.859375-22.023438 22.019531-22.023438 12.164063 0 22.023438 9.859375 22.023438 22.023438zm0 0" fill="#2f373b"/><path d="m205.207031 279.511719c-1.601562.378906-3.261719.566406-4.96875.566406-12.160156 0-22.019531-9.859375-22.019531-22.027344 0-12.160156 9.859375-22.019531 22.019531-22.019531 1.707031 0 3.367188.199219 4.96875.570312-9.78125 2.25-17.058593 11-17.058593 21.449219 0 10.460938 7.277343 19.210938 17.058593 21.460938zm0 0" fill="#181e21"/><path d="m316.71875 279.511719c-1.601562.378906-3.261719.566406-4.972656.566406-12.160156 0-22.019532-9.859375-22.019532-22.027344 0-12.160156 9.859376-22.019531 22.019532-22.019531 1.710937 0 3.371094.199219 4.972656.570312-9.78125 2.25-17.0625 11-17.0625 21.449219 0 10.460938 7.28125 19.210938 17.0625 21.460938zm0 0" fill="#181e21"/><path d="m218.855469 254.167969c0 5.210937-4.226563 9.4375-9.4375 9.4375-5.210938 0-9.4375-4.226563-9.4375-9.4375 0-5.210938 4.226562-9.4375 9.4375-9.4375 5.210937 0 9.4375 4.226562 9.4375 9.4375zm0 0" fill="#fff"/><path d="m471.78125 215.808594c0 27.851562-5.28125 54.492187-14.902344 78.929687-27.957031 71.121094-92.609375 123.820313-170.660156 134.761719 58.691406-38.558594 97.441406-104.988281 97.441406-180.46875 0-52.851562-32.878906-134.222656-34.191406-137.410156.5 2.277344 9.589844 43.820312 7.371094 71.21875-30.109375-15.917969-64.417969-24.960938-100.851563-24.960938-14.636719 0-28.929687 1.460938-42.75 4.242188-4.828125-31.632813 5.332031-73.449219 5.582031-74.511719-22.398437 22.421875-24.378906 60-23.769531 79-3.011719.878906-5.992187 1.839844-8.941406 2.859375-10.460937 3.550781-20.519531 7.902344-30.167969 12.960938.527344-16.339844 2.628906-37.328126 4.320313-52.21875 1.207031-10.609376 2.207031-18.121094 2.277343-18.660157-.609374 1.308594-20.640624 44.96875-29.757812 93.75-2.5 13.277344-4.171875 26.949219-4.429688 40.230469v.25c-.023437 1.078125-.03125 2.160156-.03125 3.25 0 75.480469 38.757813 141.910156 97.449219 180.46875-78.050781-10.941406-142.699219-63.640625-170.660156-134.761719-9.621094-24.4375-14.898437-51.078125-14.898437-78.929687 0-75.480469 38.757812-141.910156 97.449218-180.46875 33.980469-22.320313 74.640625-35.308594 118.328125-35.308594 17.640625 0 34.78125 2.117188 51.191407 6.117188 24.25 5.890624 46.890624 15.882812 67.148437 29.191406 58.691406 38.558594 97.453125 104.988281 97.453125 180.46875zm0 0" fill="#d9723e"/><path d="m160.261719 130.210938c1.207031-10.609376 2.207031-18.121094 2.277343-18.660157-.609374 1.308594-20.640624 44.96875-29.757812 93.75-2.703125 13.019531-4.210938 26.46875-4.429688 40.230469v.25c-.023437 1.078125-.03125 2.160156-.03125 3.25 0 75.480469 38.757813 141.910156 97.449219 180.46875-78.050781-10.941406-142.699219-63.640625-170.660156-134.761719-9.621094-24.4375-14.898437-51.078125-14.898437-78.929687 0-75.480469 38.757812-141.910156 97.449218-180.46875 33.980469-22.320313 74.640625-35.308594 118.328125-35.308594 17.640625 0 34.78125 2.117188 51.191407 6.117188-24.238282 5.890624-46.871094 15.871093-67.128907 29.191406-35.039062 23.019531-62.972656 55.980468-79.789062 94.871094zm0 0" fill="#bd5423"/></svg>