<svg id="Capa_1" enable-background="new 0 0 512 512" height="512" viewBox="0 0 512 512" width="512" xmlns="http://www.w3.org/2000/svg"><g><path d="m447.203 252.03c0-12.574-3.641-24.298-9.927-34.174l-6.006-50.715v-7.805c0-14.741-5.52-28.301-14.762-39.098 2.066-13.552-.612-27.804-8.72-40.57-8.107-12.766-20.346-22.001-34.288-27.15-5.664-12.675-15.823-23.801-29.865-31.171s-29.72-9.805-44.627-7.927c-11.877-8.402-26.793-13.42-43.008-13.42l-10 354.116h181.249c12.288-11.618 19.954-28.073 19.954-46.318 0-10.001-2.309-19.461-6.414-27.884 4.106-8.423 6.414-17.883 6.414-27.884z" fill="#ffb655"/><path d="m212.992 13.42c-14.907-1.878-30.585.557-44.627 7.927s-24.201 18.496-29.865 31.171c-13.942 5.149-26.181 14.384-34.288 27.15s-10.786 27.018-8.72 40.57c-9.242 10.797-14.762 24.357-14.762 39.098v7.805l-6.006 50.715c-6.286 9.876-9.927 21.6-9.927 34.174 0 10.001 2.309 19.461 6.414 27.884-4.105 8.423-6.414 17.883-6.414 27.884 0 18.245 7.667 34.7 19.954 46.318h171.249v-354.116c-16.215 0-31.131 5.018-43.008 13.42z" fill="#ffda44"/><path d="m436.453 357.167-101.806-33.748c.053.348-78.635 188.581-78.635 188.581h224.121v-94.336c0-27.472-17.604-51.852-43.68-60.497z" fill="#e50058"/><path d="m177.378 323.411-101.831 33.756c-26.077 8.644-43.68 33.025-43.68 60.497v94.336h224.144z" fill="#ff4a4a"/><path d="m334.647 323.419-.002-.001c-.032.319-88.641 98.909-88.645 98.907l10 89.667c.004.003.008.005.012.008 98.003-62.651 78.688-188.233 78.635-188.581z" fill="#ece6f2"/><path d="m177.378 323.411s-19.503 125.841 78.622 188.581v-89.667z" fill="#fff5f5"/><path d="m334.622 323.411h-88.622l10 108.914c.004.002.008.004.012.007 71.546-39.987 78.601-108.594 78.633-108.913z" fill="#ffcdbe"/><path d="m177.378 323.411s6.92 68.833 78.622 108.914v-108.914z" fill="#ffdecf"/><path d="m138.579 226.611h-41.915c-17.6 0-31.868-14.268-31.868-31.868 0-17.6 14.268-31.868 31.868-31.868h31.867z" fill="#ffdecf"/><path d="m373.421 226.611h41.915c17.6 0 31.868-14.268 31.868-31.868 0-17.6-14.268-31.868-31.868-31.868h-31.867z" fill="#ffcdbe"/><path d="m383.444 162.876c-20.399 0-47.798-2.592-81.437-7.703-16.971-2.578-32.478-11.178-43.665-24.214-.806-.939-1.578-1.902-2.331-2.878-.004.005-.008.01-.012.014l-10 79.041 10 143.403c70.399 0 127.469-57.07 127.469-127.469v-60.195h-.024z" fill="#ffdecf"/><path d="m253.681 130.959c-11.187 13.037-26.694 21.636-43.665 24.215-33.638 5.111-61.037 7.703-81.437 7.703h-.048v60.195c0 70.399 57.07 127.469 127.469 127.469v-222.445c-.75.97-1.517 1.928-2.319 2.863z" fill="#ffeee5"/><path d="m184.299 192.137h31.867v30h-31.867z" fill="#332866"/><path d="m295.834 192.137h31.867v30h-31.867z" fill="#180a33"/></g></svg>