<svg height="512pt" viewBox="0 0 512 512" width="512pt" xmlns="http://www.w3.org/2000/svg"><path d="m512 256c0 141.378906-114.621094 256-256 256s-256-114.621094-256-256c0-30.140625 5.210938-59.058594 14.78125-85.921875 0-.007813.007812-.019531.007812-.019531 33.679688-94.527344 121.359376-163.449219 225.910157-169.609375 5.0625-.300781 10.160156-.449219 15.300781-.449219 111.21875 0 205.890625 70.941406 241.199219 170.039062 9.582031 26.871094 14.800781 55.800782 14.800781 85.960938zm0 0" fill="#d9723e"/><path d="m499.960938 206.851562c0 134.726563-109.230469 243.957032-243.972657 243.957032-134.726562 0-243.957031-109.230469-243.957031-243.957032 0-12.5.9375-24.78125 2.75-36.773437 35.308594-99.117187 129.980469-170.078125 241.21875-170.078125 111.21875 0 205.890625 70.941406 241.199219 170.039062 1.820312 12 2.761719 24.300782 2.761719 36.8125zm0 0" fill="#2f373b"/><path d="m313.410156 444.019531c-18.410156 4.441407-37.640625 6.789063-57.410156 6.789063-134.730469 0-243.96875-109.21875-243.96875-243.957032 0-12.5.9375-24.78125 2.75-36.773437 0-.007813.007812-.019531.007812-.019531 33.679688-94.527344 121.359376-163.449219 225.910157-169.609375-68.410157 43.222656-113.839844 119.511719-113.839844 206.402343 0 114.957032 79.519531 211.347657 186.550781 237.167969zm0 0" fill="#181e21"/><path d="m194.960938 398.851562h122.070312v55.058594h-125.394531" fill="#d7d3cd"/><path d="m398.410156 468.761719c-10.539062 7.066406-21.640625 13.386719-33.21875 18.839843-1.972656.9375-3.960937 1.847657-5.960937 2.726563-4.242188 1.871094-8.53125 3.632813-12.890625 5.273437-6.589844 2.488282-13.308594 4.707032-20.140625 6.648438-13.757813 3.921875-28.007813 6.71875-42.621094 8.28125-9.058594.96875-18.257813 1.46875-27.578125 1.46875-9.328125 0-18.550781-.5-27.621094-1.480469-14.597656-1.558593-28.820312-4.347656-42.578125-8.257812-6.832031-1.941407-13.550781-4.171875-20.140625-6.671875-.398437-.148438-.789062-.300782-1.191406-.449219-.429688-.160156-.859375-.320313-1.289062-.492187-3.507813-1.359376-6.980469-2.808594-10.410157-4.320313-2-.878906-4-1.789063-5.96875-2.726563-11.582031-5.460937-22.671875-11.773437-33.222656-18.851562 10.390625-14.371094 23.761719-26.429688 39.191406-35.320312 9.371094-5.390626 19.492188-9.601563 30.171875-12.429688.949219-.25 1.898438-.488281 2.859375-.71875 1.808594-.441406 3.640625-.839844 5.480469-1.191406 2.148438-.417969 4.320312-.78125 6.507812-1.070313 1.339844-.199219 2.699219-.359375 4.0625-.5 1.027344-.109375 2.046876-.210937 3.089844-.289062 3.378906-.28125 6.796875-.421875 10.257813-.421875h81.589843c4.519532 0 8.972657.242187 13.351563.703125 1.359375.136719 2.710937.308593 4.058594.5 2.179687.289062 4.351562.648437 6.492187 1.058593h.019532c1.390624.269532 2.769531.558594 4.140624.871094.449219.117188.910157.207032 1.347657.328125.960937.230469 1.910156.46875 2.851562.71875 10.6875 2.839844 20.808594 7.050781 30.179688 12.441407 15.429687 8.898437 28.789062 20.960937 39.179687 35.332031zm0 0" fill="#f93d6e"/><path d="m283.589844 510.519531-.011719.011719c-9.058594.96875-18.257813 1.46875-27.578125 1.46875-9.328125 0-18.550781-.5-27.621094-1.480469 0 0-44.71875-50.820312-37.097656-91.429687 3.46875-.679688 7-1.199219 10.570312-1.570313 1.027344-.109375 2.046876-.210937 3.089844-.289062 3.378906-.28125 6.796875-.421875 10.257813-.421875h81.589843c4.519532 0 8.972657.242187 13.351563.703125 3.558594.367187 7.078125.898437 10.550781 1.558593v.019532c7.628906 40.609375-37.101562 91.429687-37.101562 91.429687zm0 0" fill="#f9c5ac"/><path d="m215.199219 416.808594c-29.359375 0-47.105469 36.882812-50.730469 78.332031-.429688-.160156-.859375-.320313-1.289062-.492187-3.507813-1.359376-6.980469-2.808594-10.410157-4.320313-13.738281-6.058594-26.839843-13.289063-39.191406-21.578125 10.390625-14.371094 23.761719-26.429688 39.191406-35.320312 10.199219-5.871094 21.300781-10.339844 33.03125-13.148438 1.808594-.441406 3.640625-.839844 5.480469-1.191406 3.46875-.679688 6.867188-.632813 10.4375-1.003906 1.03125-.109376 10.019531-1.277344 13.480469-1.277344zm0 0" fill="#e41753"/><path d="m215.171875 416.8125c-3.449219 0-6.859375.136719-10.230469.417969-1.042968.078125-2.0625.179687-3.089844.289062-3.570312.371094-7.101562.890625-10.570312 1.570313-.554688 2.9375-.820312 5.933594-.863281 8.957031 7.113281-6.960937 15.460937-11.226563 24.753906-11.234375zm0 0" fill="#efb29a"/><path d="m300.707031 368.539062v54.867188c0 20.089844-13.246093 37.066406-31.488281 42.707031-4.179688 1.296875-8.628906 1.996094-13.230469 1.996094-24.691406 0-44.703125-20.011719-44.703125-44.703125v-54.867188zm0 0" fill="#efb29a"/><path d="m300.707031 419.933594v3.472656c0 20.089844-13.246093 37.066406-31.488281 42.707031-16.460938-5.058593-28.839844-19.371093-31.125-36.882812 2.988281.183593 5.992188.273437 9.007812.273437 8.460938 0 16.75-.671875 24.828126-1.996094 9.953124-1.601562 19.570312-4.160156 28.777343-7.574218zm0 0" fill="#f9c5ac"/><path d="m132.539062 278.152344c0 20.496094-14.972656 37.492187-34.578124 40.648437-2.144532.34375-4.347657.527344-6.597657.527344-22.746093 0-41.171875-18.429687-41.171875-41.175781s18.425782-41.175782 41.171875-41.175782c2.25 0 4.453125.179688 6.597657.527344 19.605468 3.15625 34.578124 20.152344 34.578124 40.648438zm0 0" fill="#f9c5ac"/><path d="m132.539062 278.152344c0 20.496094-14.972656 37.492187-34.578124 40.648437-3.5625-12.953125-5.464844-26.582031-5.464844-40.648437s1.902344-27.695313 5.464844-40.644532c19.605468 3.152344 34.578124 20.148438 34.578124 40.644532zm0 0" fill="#efb29a"/><path d="m106.082031 278.152344c0 8.128906-6.589843 14.714844-14.71875 14.714844-8.125 0-14.714843-6.585938-14.714843-14.714844 0-8.125 6.589843-14.714844 14.714843-14.714844 8.128907 0 14.71875 6.589844 14.71875 14.714844zm0 0" fill="#efb29a"/><path d="m379.449219 278.152344c0 20.496094 14.972656 37.492187 34.578125 40.648437 2.144531.34375 4.347656.527344 6.597656.527344 22.746094 0 41.175781-18.429687 41.175781-41.175781s-18.429687-41.175782-41.175781-41.175782c-2.25 0-4.453125.179688-6.597656.527344-19.605469 3.15625-34.578125 20.152344-34.578125 40.648438zm0 0" fill="#f9c5ac"/><path d="m379.449219 278.152344c0 20.496094 14.972656 37.492187 34.578125 40.648437 3.5625-12.953125 5.464844-26.582031 5.464844-40.648437s-1.902344-27.695313-5.464844-40.644532c-19.605469 3.152344-34.578125 20.148438-34.578125 40.644532zm0 0" fill="#efb29a"/><path d="m435.339844 278.152344c0 8.128906-6.589844 14.714844-14.714844 14.714844-8.128906 0-14.71875-6.585938-14.71875-14.714844 0-8.125 6.589844-14.714844 14.71875-14.714844 8.125 0 14.714844 6.589844 14.714844 14.714844zm0 0" fill="#efb29a"/><path d="m410.699219 256.511719c0 76.199219-55.089844 139.539062-127.621094 152.316406-.75.140625-1.5.273437-2.257813.390625-7.859374 1.292969-15.929687 1.960938-24.160156 1.992188-85.449218.359374-155.371094-70.640626-155.371094-156.089844 0-5.589844.339844-11.089844 1-16.5l16.722657-.449219c13.769531-.367187 24.738281-11.636719 24.738281-25.410156v-.089844c0-50.011719 39.660156-91.542969 89.660156-92.621094.988282-.019531 1.980469-.03125 2.980469-.03125h37.820313c2.148437 0 4.277343.050781 6.410156.152344.527344.019531 1.058594.046875 1.589844.089844 48.398437 3.066406 86.027343 43.75 86.027343 92.4375 0 13.796875 11.007813 25.078125 24.804688 25.410156l16.476562.402344c.78125 5.886719 1.179688 11.898437 1.179688 18zm0 0" fill="#f9c5ac"/><path d="m283.078125 408.828125c-.75.140625-1.5.273437-2.257813.390625-7.859374 1.292969-15.929687 1.960938-24.160156 1.992188-85.449218.359374-155.371094-70.640626-155.371094-156.089844 0-5.589844.339844-11.089844 1-16.5l16.628907-.445313c13.820312-.371093 24.832031-11.679687 24.832031-25.503906 0-50.011719 39.660156-91.542969 89.660156-92.621094.988282-.019531 1.980469-.03125 2.980469-.03125h37.820313c2.148437 0 4.277343.050781 6.410156.152344.527344.019531 1.058594.046875 1.589844.089844-34.109376 2-64.8125 16.648437-87.480469 39.328125-24.449219 24.449218-39.570313 58.230468-39.570313 95.53125 0 76.089844 55.441406 140.71875 127.917969 153.707031zm0 0" fill="#efb29a"/><path d="m255.996094 337.929688c-12.957032 0-25.910156-3.246094-37.71875-9.738282-3.328125-1.828125-4.542969-6.011718-2.714844-9.34375 1.832031-3.332031 6.015625-4.546875 9.347656-2.714844 19.464844 10.699219 42.707032 10.699219 62.167969 0 3.332031-1.832031 7.515625-.617187 9.347656 2.714844 1.832031 3.332032.617188 7.515625-2.714843 9.34375-11.808594 6.492188-24.761719 9.738282-37.714844 9.738282zm0 0" fill="#dd9f8a"/><path d="m273.542969 291.695312h-35.097657c-4.179687 0-7.570312-3.390624-7.570312-7.570312 0-4.183594 3.390625-7.570312 7.570312-7.570312h35.097657c4.183593 0 7.570312 3.386718 7.570312 7.570312 0 4.179688-3.386719 7.570312-7.570312 7.570312zm0 0" fill="#efb29a"/><path d="m281.339844 249.160156c0 17.164063 13.914062 31.082032 31.082031 31.082032 17.164063 0 31.078125-13.917969 31.078125-31.082032" fill="#efb29a"/><path d="m334.707031 249.160156c0 12.308594-9.976562 22.289063-22.285156 22.289063-12.3125 0-22.289063-9.980469-22.289063-22.289063s9.976563-22.285156 22.289063-22.285156c12.308594 0 22.285156 9.976562 22.285156 22.285156zm0 0" fill="#2f373b"/><path d="m331.257812 245.226562c0 5.277344-4.277343 9.550782-9.550781 9.550782-5.273437 0-9.550781-4.273438-9.550781-9.550782 0-5.273437 4.277344-9.546874 9.550781-9.546874 5.273438 0 9.550781 4.273437 9.550781 9.546874zm0 0" fill="#fff"/><path d="m168.488281 249.160156c0 17.164063 13.917969 31.082032 31.082031 31.082032 17.164063 0 31.078126-13.917969 31.078126-31.082032" fill="#efb29a"/><path d="m221.855469 249.160156c0 12.308594-9.976563 22.289063-22.285157 22.289063-12.308593 0-22.289062-9.980469-22.289062-22.289063s9.980469-22.285156 22.289062-22.285156c12.308594 0 22.285157 9.976562 22.285157 22.285156zm0 0" fill="#2f373b"/><path d="m204.78125 270.832031c-1.667969.410157-3.417969.617188-5.210938.617188-12.308593 0-22.289062-9.976563-22.289062-22.289063 0-12.308594 9.980469-22.289062 22.289062-22.289062 1.792969 0 3.542969.210937 5.210938.621094-9.800781 2.339843-17.070312 11.160156-17.070312 21.667968 0 10.511719 7.269531 19.332032 17.070312 21.671875zm0 0" fill="#181e21"/><path d="m317.632812 270.832031c-1.671874.410157-3.421874.617188-5.210937.617188-12.308594 0-22.289063-9.976563-22.289063-22.289063 0-12.308594 9.980469-22.289062 22.289063-22.289062 1.789063 0 3.539063.210937 5.210937.621094-9.800781 2.339843-17.070312 11.160156-17.070312 21.667968 0 10.511719 7.269531 19.332032 17.070312 21.671875zm0 0" fill="#181e21"/><path d="m218.40625 245.226562c0 5.277344-4.273438 9.550782-9.546875 9.550782-5.277344 0-9.550781-4.273438-9.550781-9.550782 0-5.273437 4.273437-9.546874 9.550781-9.546874 5.273437 0 9.546875 4.273437 9.546875 9.546874zm0 0" fill="#fff"/><g fill="#f1eee9"><path d="m206.941406 479.980469-41.28125 15.609375c-.398437-.148438-.789062-.300782-1.191406-.449219-.429688-.160156-.859375-.320313-1.289062-.492187-3.507813-1.359376-6.980469-2.808594-10.410157-4.320313-2-.878906-4-1.789063-5.96875-2.726563l36.140625-66.601562 12.019532-22.148438 2.828124 19.167969zm0 0"/><path d="m365.191406 487.601562c-1.972656.9375-3.960937 1.847657-5.960937 2.726563-4.242188 1.871094-8.53125 3.632813-12.890625 5.273437l-41.289063-15.621093 9.148438-61.96875 2.832031-19.160157 12.019531 22.136719zm0 0"/></g></svg>