<svg id="Capa_1" enable-background="new 0 0 512 512" height="512" viewBox="0 0 512 512" width="512" xmlns="http://www.w3.org/2000/svg"><g><path d="m0 256c0-141.288 114.458-255.843 255.71-256 139.807-.155 254.508 112.902 256.27 252.698 1.04 82.517-36.967 156.2-96.708 203.736-2.706 2.153-6.516 2.238-9.317.21-42.145-30.508-93.95-48.493-149.955-48.493-56.03 0-107.856 18.001-150.011 48.534-2.767 2.004-6.531 1.919-9.205-.208-58.975-46.899-96.784-119.272-96.784-200.477z" fill="#ffc14f"/><path d="m457.569 256c0 111.324-90.246 201.569-201.569 201.569s-201.569-90.245-201.569-201.569 90.245-201.569 201.569-201.569 201.569 90.245 201.569 201.569z" fill="#ffcd71"/><path d="m407.5 379h-303v-220c0-71.797 58.203-130 130-130h43c71.797 0 130 58.203 130 130z" fill="#60c8dd"/><path d="m176 159v220h-71.5v-220c0-71.797 58.203-130 130-130h43c4.816 0 9.57.262 14.25.772-65.093 7.097-115.75 62.247-115.75 129.228z" fill="#2cb3cd"/><path d="m166 340h43.333c-38.66 0-70 31.34-70 70v59.538c0 6.587-7.16 10.673-12.839 7.336-10.685-6.278-20.874-13.31-30.494-21.022v-45.852c0-38.66 31.34-70 70-70z" fill="#274c91"/><path d="m416 410v45.852c-43.827 35.133-99.459 56.148-160 56.148-47.457 0-91.897-12.913-130-35.417v-66.583c0-38.66 31.34-70 70-70h150c38.66 0 70 31.34 70 70z" fill="#2e5aac"/><path d="m355.678 459.733v32.136c-4.923 2.083-9.925 4.017-15 5.794v-37.93c0-4.142 3.358-7.5 7.5-7.5s7.5 3.358 7.5 7.5zm-191.856-7.5c-4.142 0-7.5 3.358-7.5 7.5v32.136c4.923 2.083 9.925 4.017 15 5.794v-37.93c0-4.142-3.358-7.5-7.5-7.5z" fill="#274c91"/><path d="m366 170v40c0 60.751-49.249 110-110 110-60.751 0-110-49.249-110-110v-40c0-60.751 49.249-110 110-110 60.751 0 110 49.249 110 110z" fill="#e3a76f"/><path d="m366 170v40c0 50.792-34.425 93.543-81.216 106.195-9.023 2.44-18.545 2.44-27.568 0-46.791-12.652-81.216-55.403-81.216-106.195v-40c0-55.663 41.345-101.669 95-108.985 53.655 7.316 95 53.322 95 108.985z" fill="#f2bb88"/><path d="m223.5 177.5c0 8.284-6.716 15-15 15s-15-6.716-15-15 6.716-15 15-15 15 6.716 15 15zm80-15c-8.284 0-15 6.716-15 15s6.716 15 15 15 15-6.716 15-15-6.716-15-15-15z" fill="#4c2c21"/><path d="m226 170c0 4.142-3.358 7.5-7.5 7.5s-7.5-3.358-7.5-7.5 3.358-7.5 7.5-7.5 7.5 3.358 7.5 7.5zm87.5-7.5c-4.142 0-7.5 3.358-7.5 7.5s3.358 7.5 7.5 7.5 7.5-3.358 7.5-7.5-3.358-7.5-7.5-7.5z" fill="#fff5f5"/><path d="m256 280c-16.569 0-30-13.431-30-30 0-4.142 3.358-7.5 7.5-7.5h45c4.142 0 7.5 3.358 7.5 7.5 0 16.569-13.431 30-30 30z" fill="#fff5f5"/><path d="m361 130h-190.213-8.851c0-37.272 17.017-64.264 53.021-66.404 1.342-.08 4.655-3.596 6.043-3.596h70c38.66 0 70 31.34 70 70z" fill="#2e5aac"/><path d="m179.247 130h-28.247c0-38.66 31.34-70 70-70h.742c-20.953 17.85-36.169 42.234-42.495 70z" fill="#274c91"/><path d="m292.983 442.83c2.999 4.417 3.037 10.228.039 14.645-.017.025-.034.049-.05.074l-36.972 54.451-36.972-54.45c-47.587-70.082-73.028-152.84-73.028-237.55l30.058-6.395s52.715 134.662 92.969 193.945z" fill="#4172cc"/><path d="m381 150c0 11.046-8.954 20-20 20s-20-8.954-20-20 8.954-20 20-20 20 8.954 20 20zm-230-20c-11.046 0-20 8.954-20 20s8.954 20 20 20 20-8.954 20-20-8.954-20-20-20z" fill="#fff68e"/><path d="m381 150c0 8.782-5.66 16.242-13.532 18.931-7.871-2.689-13.532-10.148-13.532-18.931s5.661-16.242 13.532-18.931c7.872 2.689 13.532 10.149 13.532 18.931zm-223.532-18.931c-7.871 2.689-13.532 10.148-13.532 18.931s5.661 16.242 13.532 18.931c7.872-2.689 13.532-10.149 13.532-18.931s-5.66-16.242-13.532-18.931z" fill="#fffac1"/><path d="m186 137.5h-48.5c-4.142 0-7.5-3.358-7.5-7.5v-22.5c0-4.142 3.358-7.5 7.5-7.5h48.5c4.142 0 7.5 3.358 7.5 7.5v22.5c0 4.142-3.358 7.5-7.5 7.5z" fill="#4172cc"/><path d="m382 107.5v22.5c0 4.142-3.358 7.5-7.5 7.5h-111v36.55c0 14.192 10.025 26.298 23.911 29.229.08.017.159.034.239.051l78.35 16.67c0 84.71-25.441 167.468-73.028 237.55-7.846 11.555-24.873 11.555-32.719 0l-8.726-12.851c-46.476-68.446-74.311-148.455-75.469-231.094l48.292-10.275c.08-.017.159-.034.239-.051 13.886-2.931 23.911-15.038 23.911-29.229v-36.55h-70c-4.142 0-7.5-3.358-7.5-7.5v-22.5c0-4.142 3.358-7.5 7.5-7.5h196c4.142 0 7.5 3.358 7.5 7.5z" fill="#6990d7"/><path d="m233.185 445.394c-4.142 0-7.5-3.358-7.5-7.5s3.358-7.5 7.5-7.5c43.521 0 80.29-84.9 80.29-185.394 0-4.142 3.358-7.5 7.5-7.5s7.5 3.358 7.5 7.5c0 112.37-41.856 200.394-95.29 200.394zm23.545-85.457c12.044-26.464 18.678-96.095 18.678-133.27 0-4.142-3.358-7.5-7.5-7.5s-7.5 3.358-7.5 7.5c0 114.78-27.924 162.222-54.004 162.222-4.142 0-7.5 3.358-7.5 7.5s3.358 7.5 7.5 7.5c19.554 0 37.428-15.609 50.326-43.952zm-43.604-124.937c-4.142 0-7.5 3.358-7.5 7.5 0 45.277-9.82 81.74-23.252 103.921v24.477c7.297-7.29 13.915-17.274 19.574-29.711 12.044-26.464 18.678-61.512 18.678-98.687 0-4.142-3.358-7.5-7.5-7.5z" fill="#4172cc"/><path d="m376 178.333c0 8.284-6.716 15-15 15s-15-6.716-15-15 6.716-15 15-15 15 6.716 15 15zm-225-15c-8.284 0-15 6.716-15 15s6.716 15 15 15 15-6.716 15-15-6.716-15-15-15z" fill="#fff04a"/><path d="m166 178.333c0 6.233-3.802 11.578-9.213 13.843-5.411-2.265-9.213-7.61-9.213-13.843s3.802-11.578 9.213-13.843c5.411 2.266 9.213 7.61 9.213 13.843zm200.787-13.842c-5.411 2.265-9.213 7.61-9.213 13.843s3.802 11.578 9.213 13.843c5.411-2.265 9.213-7.61 9.213-13.843 0-6.234-3.802-11.578-9.213-13.843z" fill="#fff68e"/><path d="m166 201.667c0 8.284-6.716 15-15 15s-15-6.716-15-15 6.716-15 15-15 15 6.715 15 15zm195-15c-8.284 0-15 6.716-15 15s6.716 15 15 15 15-6.716 15-15c0-8.285-6.716-15-15-15z" fill="#fff68e"/><path d="m376 201.667c0 6.233-3.802 11.578-9.213 13.843-5.411-2.265-9.213-7.61-9.213-13.843s3.802-11.578 9.213-13.843c5.411 2.265 9.213 7.61 9.213 13.843zm-219.213-13.843c-5.411 2.265-9.213 7.61-9.213 13.843s3.802 11.578 9.213 13.843c5.411-2.265 9.213-7.61 9.213-13.843s-3.802-11.578-9.213-13.843z" fill="#fffac1"/><path d="m376 225c0 8.284-6.716 15-15 15s-15-6.716-15-15 6.716-15 15-15 15 6.716 15 15zm-225-15c-8.284 0-15 6.716-15 15s6.716 15 15 15 15-6.716 15-15-6.716-15-15-15z" fill="#fff68e"/><path d="m146 225c0 6.531 4.174 12.087 10 14.146-1.564.553-3.247.854-5 .854-8.284 0-15-6.716-15-15s6.716-15 15-15c1.753 0 3.436.301 5 .854-5.826 2.059-10 7.615-10 14.146zm210 0c0-6.531 4.174-12.087 10-14.146-1.564-.553-3.247-.854-5-.854-8.284 0-15 6.716-15 15s6.716 15 15 15c1.753 0 3.436-.301 5-.854-5.826-2.059-10-7.615-10-14.146z" fill="#fff04a"/><path d="m161 245c0 5.523-4.477 10-10 10s-10-4.477-10-10 4.477-10 10-10 10 4.477 10 10zm200-10c-5.523 0-10 4.477-10 10s4.477 10 10 10 10-4.477 10-10-4.477-10-10-10z" fill="#fffac1"/><path d="m161 118.75c0 5.523-4.477 10-10 10s-10-4.477-10-10 4.477-10 10-10 10 4.477 10 10z" fill="#60c8dd"/><path d="m251 118.75c0 5.523-4.477 10-10 10s-10-4.477-10-10 4.477-10 10-10 10 4.477 10 10zm-40-10c-5.523 0-10 4.477-10 10s4.477 10 10 10 10-4.477 10-10-4.477-10-10-10zm-30 0c-5.523 0-10 4.477-10 10s4.477 10 10 10 10-4.477 10-10-4.477-10-10-10zm90 0c-5.523 0-10 4.477-10 10s4.477 10 10 10 10-4.477 10-10-4.477-10-10-10zm60 0c-5.523 0-10 4.477-10 10s4.477 10 10 10 10-4.477 10-10-4.477-10-10-10zm30 0c-5.523 0-10 4.477-10 10s4.477 10 10 10 10-4.477 10-10-4.477-10-10-10zm-60 0c-5.523 0-10 4.477-10 10s4.477 10 10 10 10-4.477 10-10-4.477-10-10-10z" fill="#a6e0ec"/></g></svg>