<svg id="Capa_1" enable-background="new 0 0 512 512" height="512" viewBox="0 0 512 512" width="512" xmlns="http://www.w3.org/2000/svg"><g><g><path d="m456.969 407.139c27.744-39.712 44.031-88.02 44.031-140.139 0-135.31-109.69-245-245-245s-245 109.69-245 245c0 52.119 16.287 100.427 44.031 140.139z" fill="#7255ce"/></g><g><circle cx="256" cy="242" fill="#5c45bf" r="200"/></g><g><path d="m256 512c83.18 0 156.665-41.461 200.951-104.835-.001-.009-.001-.017-.002-.026-8.256-22.709-16.99-42.685-24.722-51.911-.904-1.078-1.794-2.019-2.668-2.79-6.623-5.848-19.39-11.382-34.352-16.323-37.928-12.525-89.968-21.232-91.82-21.54h-94.772c-1.853.307-53.892 9.014-91.82 21.54-14.961 4.941-27.729 10.475-34.352 16.323-.874.772-1.765 1.712-2.668 2.79-7.732 9.226-16.467 29.203-24.722 51.911-.001.009-.001.018-.002.026 44.284 63.374 117.769 104.835 200.949 104.835z" fill="#dae2fe"/></g><g><path d="m147.073 337.988c-.424-3.58-.763-7-1.034-10.266-9.967 2.528-20.023 5.347-29.245 8.393-14.961 4.941-27.729 10.475-34.352 16.323-.874.772-1.765 1.712-2.668 2.79-7.732 9.226-16.467 29.203-24.722 51.911-.001.009-.001.018-.002.026 44.285 63.374 117.77 104.835 200.95 104.835-56.665-26.802-98.999-92.949-108.927-174.012z" fill="#bec8f7"/></g><g><path d="m91.07 426.843v21.327c7.157 6.519 14.704 12.617 22.599 18.262l-12.035-41.103c-1.75-5.98-10.564-4.716-10.564 1.514z" fill="#acbbef"/></g><g><path d="m420.93 426.843v21.327c-7.157 6.519-14.704 12.617-22.599 18.262l12.035-41.103c1.75-5.98 10.564-4.716 10.564 1.514z" fill="#bec8f7"/></g><g><path d="m248.5 511.873c2.492.076 4.99.127 7.5.127s5.008-.051 7.5-.127v-197.298h-15z" fill="#acbbef"/></g><g><path d="m208.614 221.239v93.336s19.021 33.261 47.17 33.261c.073 0 .143-.005.216-.005 28.031-.103 47.386-33.256 47.386-33.256v-93.336z" fill="#fcad6d"/></g><g><path d="m208.614 220.734v93.841c94.723 0 94.772-53.4 94.772-53.4v-40.44h-94.772z" fill="#fd995b"/></g><g><path d="m303.386 299.609-47.386 48.222s18.328 33.146 30.188 33.146c7.034 0 17.106-22.384 24.137-40.597 5.342-13.84 2.694-29.488-6.939-40.771z" fill="#e9efff"/></g><g><path d="m208.614 299.609 47.386 48.222s-18.328 33.146-30.188 33.146c-7.034 0-17.106-22.384-24.137-40.597-5.342-13.84-2.694-29.488 6.939-40.771z" fill="#e9efff"/></g><g><path d="m318.485 355.832-1.354 3.315c-1.785 4.372-1.785 9.27 0 13.642l1.354 3.315c2.747 6.726 1.192 14.442-3.945 19.579-7.046 7.046-18.47 7.046-25.516 0l-29.715-29.715 29.715-29.715c7.046-7.046 18.47-7.046 25.516 0 5.136 5.136 6.691 12.853 3.945 19.579z" fill="#ff4155"/></g><g><path d="m193.515 355.832 1.354 3.315c1.785 4.372 1.785 9.27 0 13.642l-1.354 3.315c-2.747 6.726-1.191 14.442 3.945 19.579 7.046 7.046 18.47 7.046 25.516 0l29.715-29.715-29.715-29.715c-7.046-7.046-18.47-7.046-25.516 0-5.136 5.136-6.691 12.853-3.945 19.579z" fill="#ff4155"/></g><g><path d="m222.977 336.252c-5.449-5.449-13.509-6.665-20.145-3.686 1.945.873 3.774 2.089 5.371 3.686 16.411 16.411 16.411 43.019 0 59.431-1.597 1.597-3.426 2.813-5.371 3.686 6.636 2.978 14.696 1.762 20.145-3.686l29.715-29.716z" fill="#e80054"/></g><g><path d="m289.023 336.252c5.449-5.449 13.509-6.665 20.145-3.686-1.945.873-3.774 2.089-5.371 3.686-16.411 16.411-16.411 43.019 0 59.431 1.597 1.597 3.426 2.813 5.371 3.686-6.636 2.978-14.696 1.762-20.145-3.686l-29.715-29.716z" fill="#e80054"/></g><g><path d="m264.653 345.573c-1.588-.01-3.079.403-4.365 1.134-2.657 1.509-5.918 1.509-8.575 0-1.287-.731-2.777-1.144-4.365-1.134-4.834.032-8.682 4.083-8.682 8.916v22.956c0 4.834 3.849 8.885 8.682 8.916 1.588.01 3.079-.403 4.365-1.134 2.657-1.509 5.918-1.509 8.575 0 1.287.731 2.777 1.144 4.365 1.134 4.834-.032 8.682-4.083 8.682-8.916v-22.955c0-4.834-3.848-8.885-8.682-8.917z" fill="#ff596e"/></g><g><path d="m255.854 377.446v-22.956c0-4.353 3.122-8.07 7.273-8.789-1.017.172-1.975.516-2.839 1.007-2.657 1.509-5.918 1.509-8.576 0-1.287-.731-2.777-1.144-4.365-1.134-4.833.031-8.682 4.083-8.682 8.916v22.956c0 4.834 3.849 8.885 8.682 8.916 1.588.01 3.079-.403 4.365-1.134 2.657-1.509 5.918-1.509 8.576 0 .865.491 1.823.834 2.839 1.007-4.151-.719-7.273-4.436-7.273-8.789z" fill="#ff4155"/></g><g><path d="m347.913 146.754c0-30.682-9.22-59.013-25.962-79.774-17.161-21.281-40.583-33.001-65.951-33.001v112.776h91.913z" fill="#f9ba8f"/></g><g><path d="m190.049 66.98c-16.742 20.761-25.962 49.093-25.962 79.774h91.913v-112.775c-25.368 0-48.79 11.72-65.951 33.001z" fill="#fcad6d"/></g><g><path d="m331.058 159.567s10.385-25.285 28.897-19.415-.448 60.664-36.573 64.116z" fill="#fcad6d"/></g><g><path d="m180.942 159.567s-10.385-25.285-28.897-19.415.448 60.664 36.573 64.116z" fill="#fd995b"/></g><g><path d="m256.17 260.702c-17.812 0-30.503 15.742-29.985 36.18.076 2.994 3.359 4.802 5.952 3.303s7.708 20.421 24.033 20.421 24.033-20.421 24.033-20.421c2.592 1.499 5.876-.309 5.952-3.303.518-20.438-12.173-36.18-29.985-36.18z" fill="#21b75d"/></g><g><path d="m327.049 124.754c-3.509-10.287-9.219-24.496-16.225-32.717-3.978-3.853-8.145-7.046-12.399-9.103-8.195-3.963-15.758-4.069-22.16-2.497-13.314 3.269-27.216 3.268-40.53 0-6.402-1.572-13.966-1.466-22.16 2.497-4.254 2.057-8.421 5.25-12.399 9.103-7.006 8.221-12.716 22.43-16.225 32.717-2.762 8.097-8.72 14.703-16.484 18.295-.031 1.23-.063 2.46-.063 3.705 0 64.505 39.219 140.155 87.597 140.155s87.597-75.651 87.597-140.155c0-1.245-.032-2.475-.063-3.705-7.766-3.592-13.724-10.198-16.486-18.295z" fill="#f9ba8f"/></g><g><path d="m208.403 146.754c0-25.925 6.339-48.917 17.057-67.152-3.755.312-7.739 1.327-11.885 3.333-4.254 2.057-8.421 5.25-12.399 9.103-7.006 8.221-12.716 22.43-16.225 32.717-2.762 8.097-8.72 14.703-16.484 18.295-.031 1.23-.063 2.46-.063 3.705 0 64.505 39.219 140.155 87.597 140.155 6.881 0 13.576-1.535 20-4.346-38.742-16.953-67.598-80.48-67.598-135.81z" fill="#fcad6d"/></g><g><g><path d="m242.013 192.447 8.436-13.441c2.569-4.093 8.533-4.093 11.102 0l8.436 13.441c2.739 4.365-.398 10.038-5.551 10.038h-16.871c-5.154-.001-8.291-5.674-5.552-10.038z" fill="#fd995b"/></g></g><g><g><path d="m235.384 240.87h41.233c4.111-3.622 7.258-8.309 9.01-13.631 1.584-4.811-2.069-9.754-7.134-9.754h-44.985c-5.065 0-8.718 4.943-7.134 9.754 1.752 5.322 4.899 10.009 9.01 13.631z" fill="#162544"/></g><g><path d="m276.616 240.87c-5.493 4.849-12.714 7.798-20.616 7.798s-15.124-2.948-20.616-7.798c5.5-4.849 12.714-7.798 20.616-7.798s15.116 2.949 20.616 7.798z" fill="#ff4155"/></g></g><g><path d="m223.5 134.968h-20c-4.142 0-7.5-3.358-7.5-7.5 0-4.142 3.358-7.5 7.5-7.5h20c4.142 0 7.5 3.358 7.5 7.5 0 4.142-3.358 7.5-7.5 7.5z" fill="#21b75d"/></g><g><path d="m308.5 134.968h-20c-4.142 0-7.5-3.358-7.5-7.5 0-4.142 3.358-7.5 7.5-7.5h20c4.142 0 7.5 3.358 7.5 7.5 0 4.142-3.358 7.5-7.5 7.5z" fill="#21b75d"/></g><g><path d="m311.239 162.03c.043-3.495-1.371-7.004-4.242-9.539-4.675-4.128-11.84-4.128-16.515 0-2.871 2.535-4.284 6.044-4.242 9.539.055 4.538 5.629 6.716 8.838 3.507 2.022-2.022 5.3-2.022 7.322 0 3.21 3.209 8.784 1.031 8.839-3.507z" fill="#162544"/></g><g><path d="m200.761 162.03c-.043-3.495 1.371-7.004 4.242-9.539 4.675-4.128 11.84-4.128 16.515 0 2.871 2.535 4.284 6.044 4.242 9.539-.055 4.538-5.629 6.716-8.838 3.507-2.022-2.022-5.3-2.022-7.322 0-3.21 3.209-8.784 1.031-8.839-3.507z" fill="#162544"/></g><g><path d="m281.993 3.119-3.464 3.464c-4.158 4.158-10.9 4.158-15.058 0l-3.464-3.464c-1.997-1.997-4.706-3.119-7.53-3.119h-30c-6.262 0-11.16 5.374-10.604 11.611 2.011 22.56 9.326 73.234 35.486 109.004 4.29 5.866 12.992 5.866 17.282 0 26.16-35.769 33.475-86.444 35.486-109.004.556-6.237-4.343-11.611-10.604-11.611-2.824 0-5.533 1.122-7.53 3.119z" fill="#49d88b"/></g><g><path d="m241.873 11.611c-.556-6.237 4.343-11.611 10.604-11.611h-30c-6.262 0-11.161 5.374-10.604 11.611 2.011 22.56 9.326 73.234 35.486 109.004 4.29 5.866 12.992 5.866 17.282 0 2.261-3.091 4.371-6.299 6.359-9.585-21.016-34.739-27.29-78.809-29.127-99.419z" fill="#38c674"/></g><g><path d="m360.831 466.431h-55c-4.142 0-7.5-3.358-7.5-7.5 0-4.142 3.358-7.5 7.5-7.5h55c4.142 0 7.5 3.358 7.5 7.5 0 4.142-3.358 7.5-7.5 7.5z" fill="#acbbef"/></g></g></svg>