<svg id="Capa_1" enable-background="new 0 0 512 512" height="512" viewBox="0 0 512 512" width="512" xmlns="http://www.w3.org/2000/svg"><g><path d="m512 256c0 80.844-37.474 152.936-96 199.852-3.529 2.829-104.333-39.733-160-39.733-55.666 0-156.471 42.562-160 39.733-58.526-46.916-96-119.008-96-199.852 0-141.385 114.615-256 256-256s256 114.615 256 256z" fill="#20b7a1"/><path d="m461.553 222.156c0 113.524-92.029 205.553-205.553 205.553s-205.553-92.029-205.553-205.553 92.029-205.553 205.553-205.553 205.553 92.029 205.553 205.553z" fill="#24d3b5"/><path d="m191.583 339.416h17.75c-5.156 0-10.182.558-15.02 1.616-.917-.528-1.828-1.066-2.73-1.616zm-76.963 22.46c-11.557 12.484-18.62 29.187-18.62 47.54v46.436c9.559 7.663 19.679 14.654 30.289 20.902 5.766 3.395 13.044-.761 13.044-7.453v-59.884c0-8.783 1.618-17.188 4.571-24.933-10.297-6.676-20.086-14.243-29.284-22.608z" fill="#c83c50"/><path d="m416 409.416v46.436c-43.827 35.133-99.459 56.148-160 56.148-47.457 0-91.897-12.913-130-35.417v-67.167c0-10.348 2.245-20.17 6.275-29.009 35.544 26.389 78.052 41.736 123.725 41.736 54.411 0 104.331-21.781 143.335-58.065 10.393 12.214 16.665 28.044 16.665 45.338z" fill="#fb5858"/><path d="m171.322 440.536v57.127c-5.075-1.778-10.077-3.711-15-5.794v-51.333c0-4.143 3.358-7.5 7.5-7.5s7.5 3.358 7.5 7.5zm176.856-7.5c-4.142 0-7.5 3.357-7.5 7.5v57.127c5.075-1.778 10.077-3.711 15-5.794v-51.333c0-4.142-3.357-7.5-7.5-7.5z" fill="#c83c50"/><path d="m416.45 135.326c6.41 13.22 7.305 28.444 2.49 42.324-2.386 6.878-3.392 14.145-2.965 21.413.862 14.667-4.136 29.075-13.897 40.056-4.833 5.437-8.548 11.773-10.932 18.646-4.816 13.88-14.948 25.28-28.168 31.689-6.996 3.392-13.205 8.222-18.219 14.18-9.12 10.839-22.356 17.361-36.522 17.361h-.647c-7.262.427-14.369 2.28-20.915 5.454-13.113 6.358-28.199 7.291-41.989 2.606-7.003-2.379-29.729-8.662-32.353-11.614-32.278-36.305-51.885-84.125-51.885-136.525 0-72.674 37.715-136.539 94.639-173.091 5.536-3.554 12.314-4.575 18.708-3.028.164.04.315.074.45.103 5.108 1.09 10.357 1.455 15.591 1.074 14.403-1.05 28.414 4.241 39.185 13.861 5.459 4.875 11.829 8.62 18.742 11.019 13.843 4.803 25.3 14.985 31.692 28.169 3.156 6.509 7.556 12.337 12.951 17.154 10.945 9.772 17.738 23.539 18.587 38.188.422 7.277 2.276 14.401 5.457 20.961z" fill="#784132"/><path d="m235.526 326.672c-4.146-.709-8.369-.945-12.588-.697-14.667.863-29.076-4.136-40.057-13.897-5.437-4.833-11.773-8.548-18.646-10.932-13.881-4.816-25.28-14.948-31.689-28.168-3.174-6.546-7.606-12.403-13.043-17.236-10.981-9.761-17.635-23.484-18.498-38.151-.427-7.262-2.281-14.37-5.454-20.916-6.41-13.22-7.305-28.445-2.49-42.326 2.385-6.873 3.392-14.148 2.965-21.411-.863-14.667 4.136-29.076 13.897-40.057 4.833-5.437 8.548-11.773 10.932-18.646 4.816-13.88 14.948-25.28 28.168-31.689 6.546-3.174 12.403-7.606 17.236-13.043 9.761-10.981 23.484-17.635 38.151-18.498 7.262-.427 14.369-2.281 20.915-5.455 13.22-6.41 28.445-7.305 42.326-2.489 2.162.75 4.364 1.364 6.593 1.839 7.343 20.063-22.861 23.887-1.572 53.751 23.395 32.818-49.172 69.87-49.172 122.265 0 56.97-25.412 108.526 12.026 145.756z" fill="#61362b"/><path d="m171 214.416v10c0 13.807-11.193 25-25 25s-25-11.193-25-25v-10c0-13.807 11.193-25 25-25s25 11.193 25 25z" fill="#c38778"/><path d="m136 209.416v20c0 8.178 3.927 15.439 9.998 20-13.806-.001-24.998-11.193-24.998-25v-10c0-13.806 11.192-24.999 24.998-25-6.071 4.561-9.998 11.822-9.998 20zm230-20v-20c0-60.751-49.249-110-110-110-60.751 0-110 49.249-110 110v40c0 50.351 33.83 92.801 80 105.859v24.141h-61.186c-.578 0-.28.311-.147.456 22.664 24.667 55.193 40.128 91.333 40.128 36.185 0 68.75-15.5 91.418-40.221.104-.114.375-.363-.203-.363h-61.215v-24.141c33.586-9.5 60.641-34.551 72.895-66.883 2.252.666 4.637 1.024 7.105 1.024 13.807 0 25-11.193 25-25v-10c0-13.807-11.193-25-25-25z" fill="#b46e5a"/><path d="m366 169.416v40c0 50.792-34.425 93.543-81.216 106.195-9.023 2.439-18.545 2.439-27.568 0-46.791-12.652-81.216-55.403-81.216-106.195v-40c0-55.663 41.345-101.669 95-108.985 53.655 7.316 95 53.322 95 108.985z" fill="#c38778"/><path d="m241.5 216.148c-2.929-2.93-2.929-7.678 0-10.607 2.929-2.928 7.678-2.928 10.606 0 1.042 1.042 2.424 1.616 3.893 1.616s2.851-.574 3.893-1.616c2.929-2.928 7.678-2.928 10.606 0 2.929 2.93 2.929 7.678 0 10.607-3.875 3.875-9.024 6.009-14.5 6.009s-10.623-2.134-14.498-6.009z" fill="#915041"/><path d="m223.5 176.916c0 8.284-6.716 15-15 15s-15-6.716-15-15 6.716-15 15-15 15 6.716 15 15zm80-15c-8.284 0-15 6.716-15 15s6.716 15 15 15 15-6.716 15-15-6.716-15-15-15z" fill="#61362b"/><path d="m226 169.416c0 4.142-3.358 7.5-7.5 7.5s-7.5-3.358-7.5-7.5 3.358-7.5 7.5-7.5 7.5 3.358 7.5 7.5zm87.5-7.5c-4.142 0-7.5 3.358-7.5 7.5s3.358 7.5 7.5 7.5 7.5-3.358 7.5-7.5-3.358-7.5-7.5-7.5z" fill="#fff5f5"/><path d="m256 279.416c-16.569 0-30-13.431-30-30 0-4.142 3.358-7.5 7.5-7.5h45c4.142 0 7.5 3.358 7.5 7.5 0 16.569-13.431 30-30 30z" fill="#fff5f5"/><path d="m263.5 278.471c-2.397.617-4.91.945-7.5.945-16.568 0-30-13.431-30-30 0-4.142 3.358-7.5 7.5-7.5h15c-4.142 0-7.5 3.358-7.5 7.5 0 13.979 9.561 25.725 22.5 29.055z" fill="#def4f8"/><path d="m366.952 168.048-.952 22.028c-14.889-43.111-55.828-74.076-104-74.076h-12c-27.044 0-51.809 9.76-70.965 25.949-1.298 1.097-3.228-.148-2.793-1.791 11.135-42.089 46.782-74.676 90.412-81.469 1.993-.31 4.024-.344 6.018-.038.01.001.019.003.029.004 52.983 8.14 94.251 54.312 94.251 109.393z" fill="#fb5858"/><path d="m179.583 141.489c-15.231 12.704-26.974 29.448-33.584 48.586l-.952-22.027c0-60.751 50.2-110.666 110.952-110.666 5.693 0 11.294.438 16.769 1.283-75.768 17.867-93.048 82.711-93.185 82.824z" fill="#c83c50"/><path d="m350 95c0 24.853-20.147 45-45 45s-45-20.147-45-45 20.147-45 45-45 45 20.147 45 45z" fill="#fff68e"/><path d="m315.809 138.693c-3.463.854-7.083 1.307-10.809 1.307-24.853 0-45-20.147-45-45s20.147-45 45-45c3.726 0 7.346.453 10.809 1.307-19.632 4.84-34.192 22.566-34.192 43.693s14.559 38.853 34.192 43.693z" fill="#fff36c"/><path d="m330 95c0 13.807-11.193 25-25 25s-25-11.193-25-25 11.193-25 25-25 25 11.193 25 25z" fill="#ffcd71"/><path d="m320 95c0 8.284-6.716 15-15 15s-15-6.716-15-15 6.716-15 15-15 15 6.716 15 15z" fill="#ffa90b"/><path d="m226 392.715c0 16.236-16.214 27.405-31.427 21.731-37.367-13.935-70.302-40.252-95.593-75.03h65.806c12.783 13.873 28.69 24.823 46.605 31.733 8.863 3.419 14.609 12.065 14.609 21.566z" fill="#ffb52d"/><path d="m347.215 339.416h65.806c-38.441 52.86-94.542 86.174-157.021 86.174-24.921 0-48.828-5.3-71.004-15.027-8.477-3.719-13.996-12.051-13.996-21.308v-.2c0-17.048 17.682-28.096 33.165-20.961 15.772 7.268 33.33 11.322 51.835 11.322 36.077 0 68.556-15.407 91.215-40z" fill="#ffc14f"/><path d="m426.722 351.87c-41.437 54.062-102.555 88.248-170.722 88.248s-129.285-34.186-170.722-88.249c-3.902-5.091-.22-12.454 6.195-12.454h10.059c38.35 50.858 93.359 82.727 154.469 82.727s116.118-31.869 154.469-82.727h10.059c6.413.001 10.095 7.363 6.193 12.455z" fill="#fff68e"/><path d="m170.345 399.914c26.155 14.285 55.144 22.229 85.655 22.229s59.5-7.944 85.655-22.23c6.319-3.451 14.023 1.148 14.023 8.348 0 3.533-1.955 6.786-5.087 8.422-28.776 15.043-60.819 23.435-94.592 23.435s-65.816-8.392-94.592-23.435c-3.131-1.637-5.087-4.889-5.087-8.422.002-7.2 7.706-11.799 14.025-8.347z" fill="#fffac1"/></g></svg>