<svg height="512pt" viewBox="0 0 512 512" width="512pt" xmlns="http://www.w3.org/2000/svg"><path d="m512 256c0 79.898438-36.609375 151.25-93.960938 198.191406-25.609374 20.96875-55.347656 37.058594-87.828124 46.878906-23.492188 7.109376-48.402344 10.929688-74.210938 10.929688s-50.730469-3.820312-74.21875-10.929688c-10.351562-3.128906-20.421875-6.898437-30.171875-11.261718-20.847656-9.320313-40.21875-21.339844-57.660156-35.617188-35.929688-29.421875-63.710938-68.402344-79.449219-113.0625-9.390625-26.628906-14.5-55.289062-14.5-85.128906 0-141.378906 114.621094-256 256-256s256 114.621094 256 256zm0 0" fill="#f93d6e"/><path d="m450.253906 383.675781c-14.605468 0-25.617187-19.972656-25.617187-46.457031 0-26.488281 11.011719-46.457031 25.617187-46.457031 14.601563 0 25.617188 19.96875 25.617188 46.457031 0 26.484375-11.015625 46.457031-25.617188 46.457031zm0-82.914062c-7.371094 0-15.617187 15.589843-15.617187 36.457031 0 20.863281 8.246093 36.457031 15.617187 36.457031s15.617188-15.59375 15.617188-36.457031c0-20.867188-8.246094-36.457031-15.617188-36.457031zm0 0" fill="#ffbb16"/><path d="m450.253906 383.675781c-14.605468 0-25.617187-19.972656-25.617187-46.457031 0-26.488281 11.011719-46.457031 25.617187-46.457031 14.601563 0 25.617188 19.96875 25.617188 46.457031 0 26.484375-11.015625 46.457031-25.617188 46.457031zm0-82.914062c-7.371094 0-15.617187 15.589843-15.617187 36.457031 0 20.863281 8.246093 36.457031 15.617187 36.457031s15.617188-15.59375 15.617188-36.457031c0-20.867188-8.246094-36.457031-15.617188-36.457031zm0 0" fill="#ffbb16"/><path d="m61.734375 383.675781c-14.601563 0-25.617187-19.972656-25.617187-46.457031 0-26.488281 11.015624-46.457031 25.617187-46.457031 14.605469 0 25.621094 19.96875 25.621094 46.457031 0 26.484375-11.015625 46.457031-25.621094 46.457031zm0-82.914062c-7.371094 0-15.617187 15.589843-15.617187 36.457031 0 20.863281 8.246093 36.457031 15.617187 36.457031 7.375 0 15.621094-15.59375 15.621094-36.457031 0-20.867188-8.246094-36.457031-15.621094-36.457031zm0 0" fill="#ffbb16"/><path d="m129.1875 326.382812h239.523438v138.972657h-239.523438zm0 0" fill="#151a1c"/><path d="m398.410156 468.761719c-12.339844 8.277343-25.441406 15.519531-39.179687 21.566406-10.652344 4.703125-21.679688 8.703125-33.03125 11.921875-22.300781 6.351562-45.847657 9.75-70.199219 9.75-24.339844 0-47.890625-3.398438-70.199219-9.738281-7.242187-2.0625-14.359375-4.441407-21.332031-7.121094-.429688-.160156-.859375-.320313-1.289062-.492187-3.507813-1.359376-6.980469-2.808594-10.410157-4.320313-13.738281-6.058594-26.839843-13.289063-39.191406-21.578125 10.390625-14.371094 23.761719-26.429688 39.191406-35.320312 10.199219-5.871094 21.300781-10.339844 33.03125-13.148438 1.808594-.441406 3.640625-.839844 5.480469-1.191406 3.46875-.679688 7-1.199219 10.570312-1.570313 1.027344-.109375 2.046876-.210937 3.089844-.289062 3.378906-.28125 6.796875-.421875 10.257813-.421875h81.589843c4.519532 0 8.972657.242187 13.351563.703125 3.570313.367187 7.089844.898437 10.570313 1.558593 1.390624.269532 2.769531.558594 4.140624.871094.449219.117188.910157.207032 1.347657.328125 11.742187 2.820313 22.832031 7.289063 33.03125 13.160157 15.429687 8.898437 28.789062 20.960937 39.179687 35.332031zm0 0" fill="#ffbb16"/><path d="m215.199219 416.808594c-29.359375 0-49.257813 42.429687-50.730469 78.332031-.429688-.160156-.859375-.320313-1.289062-.492187-3.507813-1.359376-6.980469-2.808594-10.410157-4.320313-13.738281-6.058594-26.839843-13.289063-39.191406-21.578125 10.390625-14.371094 23.761719-26.429688 39.191406-35.320312 10.199219-5.871094 21.300781-10.339844 33.03125-13.148438 1.808594-.441406 3.640625-.839844 5.480469-1.191406 3.46875-.679688 7-1.199219 10.570312-1.570313 1.027344-.109375 2.046876-.210937 3.089844-.289062 3.378906-.28125 6.796875-.421875 10.257813-.421875zm0 0" fill="#ff931f"/><path d="m300.707031 368.539062v54.867188c0 20.089844-13.246093 37.066406-31.488281 42.707031-4.179688 1.296875-8.628906 1.996094-13.230469 1.996094-24.691406 0-44.703125-20.011719-44.703125-44.703125v-54.867188zm0 0" fill="#efb29a"/><path d="m300.707031 419.933594v3.472656c0 20.089844-13.246093 37.066406-31.488281 42.707031-16.460938-5.058593-28.839844-19.371093-31.125-36.882812 2.988281.183593 5.992188.273437 9.007812.273437 8.460938 0 16.75-.671875 24.828126-1.996094 9.953124-1.601562 19.570312-4.160156 28.777343-7.574218zm0 0" fill="#f9c5ac"/><path d="m132.539062 278.152344c0 20.496094-14.972656 37.492187-34.578124 40.648437-2.144532.34375-4.347657.527344-6.597657.527344-22.746093 0-41.171875-18.429687-41.171875-41.175781s18.425782-41.175782 41.171875-41.175782c2.25 0 4.453125.179688 6.597657.527344 19.605468 3.15625 34.578124 20.152344 34.578124 40.648438zm0 0" fill="#f9c5ac"/><path d="m132.539062 278.152344c0 20.496094-14.972656 37.492187-34.578124 40.648437-3.5625-12.953125-5.464844-26.582031-5.464844-40.648437s1.902344-27.695313 5.464844-40.644532c19.605468 3.152344 34.578124 20.148438 34.578124 40.644532zm0 0" fill="#efb29a"/><path d="m106.082031 278.152344c0 8.128906-6.589843 14.714844-14.71875 14.714844-8.125 0-14.714843-6.585938-14.714843-14.714844 0-8.125 6.589843-14.714844 14.714843-14.714844 8.128907 0 14.71875 6.589844 14.71875 14.714844zm0 0" fill="#efb29a"/><path d="m379.449219 278.152344c0 20.496094 14.972656 37.492187 34.578125 40.648437 2.144531.34375 4.347656.527344 6.597656.527344 22.746094 0 41.175781-18.429687 41.175781-41.175781s-18.429687-41.175782-41.175781-41.175782c-2.25 0-4.453125.179688-6.597656.527344-19.605469 3.15625-34.578125 20.152344-34.578125 40.648438zm0 0" fill="#f9c5ac"/><path d="m379.449219 278.152344c0 20.496094 14.972656 37.492187 34.578125 40.648437 3.5625-12.953125 5.464844-26.582031 5.464844-40.648437s-1.902344-27.695313-5.464844-40.644532c-19.605469 3.152344-34.578125 20.148438-34.578125 40.644532zm0 0" fill="#efb29a"/><path d="m435.339844 278.152344c0 8.128906-6.589844 14.714844-14.714844 14.714844-8.128906 0-14.71875-6.585938-14.71875-14.714844 0-8.125 6.589844-14.714844 14.71875-14.714844 8.125 0 14.714844 6.589844 14.714844 14.714844zm0 0" fill="#efb29a"/><path d="m410.695312 256.511719c0 76.984375-56.242187 140.847656-129.871093 152.703125-8.078125 1.328125-16.371094 2-24.828125 2-85.445313 0-154.703125-69.257813-154.703125-154.703125v-157.5h309.402343zm0 0" fill="#f9c5ac"/><g fill="#efb29a"><path d="m283.242188 408.808594c-.800782.140625-1.609376.28125-2.417969.410156-8.082031 1.320312-16.371094 1.992188-24.832031 1.992188-85.4375 0-154.699219-69.25-154.699219-154.699219v-157.5h54.550781v157.5c0 76.136719 54.980469 139.410156 127.398438 152.296875zm0 0"/><path d="m360.261719 296.496094c0 10.539062-8.542969 19.082031-19.082031 19.082031-10.539063 0-19.082032-8.542969-19.082032-19.082031 0-10.539063 8.542969-19.082032 19.082032-19.082032 10.539062 0 19.082031 8.542969 19.082031 19.082032zm0 0"/><path d="m189.886719 296.496094c0 10.539062-8.542969 19.082031-19.082031 19.082031-10.539063 0-19.082032-8.542969-19.082032-19.082031 0-10.539063 8.542969-19.082032 19.082032-19.082032 10.539062 0 19.082031 8.542969 19.082031 19.082032zm0 0"/><path d="m273.378906 297.921875h-34.757812c-4.140625 0-7.5-3.355469-7.5-7.496094s3.359375-7.496093 7.5-7.496093h34.757812c4.136719 0 7.496094 3.355468 7.496094 7.496093s-3.359375 7.496094-7.496094 7.496094zm0 0"/></g><path d="m256 345.351562c-12.828125 0-25.65625-3.214843-37.351562-9.640624-3.296876-1.8125-4.5-5.957032-2.6875-9.257813 1.8125-3.296875 5.957031-4.5 9.253906-2.6875 19.277344 10.597656 42.292968 10.597656 61.566406 0 3.296875-1.8125 7.441406-.609375 9.253906 2.6875 1.816406 3.300781.613282 7.445313-2.6875 9.257813-11.691406 6.425781-24.519531 9.640624-37.347656 9.640624zm0 0" fill="#f93d6e"/><path d="m343.992188 244.328125c0-17.808594-14.433594-32.242187-32.242188-32.242187s-32.242188 14.433593-32.242188 32.242187" fill="#efb29a"/><path d="m333.773438 258.054688c0 12.164062-9.859376 22.023437-22.023438 22.023437s-22.023438-9.859375-22.023438-22.023437c0-12.164063 9.859376-22.023438 22.023438-22.023438s22.023438 9.859375 22.023438 22.023438zm0 0" fill="#2f373b"/><path d="m330.363281 254.167969c0 5.210937-4.222656 9.4375-9.433593 9.4375-5.214844 0-9.4375-4.226563-9.4375-9.4375 0-5.210938 4.222656-9.4375 9.4375-9.4375 5.210937 0 9.433593 4.226562 9.433593 9.4375zm0 0" fill="#fff"/><path d="m232.480469 244.328125c0-17.808594-14.433594-32.242187-32.242188-32.242187-17.808593 0-32.242187 14.433593-32.242187 32.242187" fill="#efb29a"/><path d="m222.261719 258.054688c0 12.164062-9.859375 22.023437-22.023438 22.023437-12.160156 0-22.019531-9.859375-22.019531-22.023437 0-12.164063 9.859375-22.023438 22.019531-22.023438 12.164063 0 22.023438 9.859375 22.023438 22.023438zm0 0" fill="#2f373b"/><path d="m205.207031 279.511719c-1.601562.378906-3.261719.566406-4.96875.566406-12.160156 0-22.019531-9.859375-22.019531-22.027344 0-12.160156 9.859375-22.019531 22.019531-22.019531 1.707031 0 3.367188.199219 4.96875.570312-9.78125 2.25-17.058593 11-17.058593 21.449219 0 10.460938 7.277343 19.210938 17.058593 21.460938zm0 0" fill="#181e21"/><path d="m316.71875 279.511719c-1.601562.378906-3.261719.566406-4.972656.566406-12.160156 0-22.019532-9.859375-22.019532-22.027344 0-12.160156 9.859376-22.019531 22.019532-22.019531 1.710937 0 3.371094.199219 4.972656.570312-9.78125 2.25-17.0625 11-17.0625 21.449219 0 10.460938 7.28125 19.210938 17.0625 21.460938zm0 0" fill="#181e21"/><path d="m218.855469 254.167969c0 5.210937-4.226563 9.4375-9.4375 9.4375-5.210938 0-9.4375-4.226563-9.4375-9.4375 0-5.210938 4.226562-9.4375 9.4375-9.4375 5.210937 0 9.4375 4.226562 9.4375 9.4375zm0 0" fill="#fff"/><path d="m181.78125 501.070312c-10.351562-3.128906-20.421875-6.898437-30.171875-11.261718-20.847656-9.320313-40.21875-21.339844-57.660156-35.617188 5.671875-58.730468 5.832031-126.269531-11.390625-181.25-39.558594-126.300781 24.863281-191.929687 62.300781-205.371094l29.640625 89.378907s-18.320312 8.339843-32.410156 31.511719c-.03125.027343-.039063.070312-.058594.097656-8.78125 14.453125-15.890625 34.703125-15.890625 62.269531 0 51.222656 55.007813 154.703125 55.640625 250.242187zm0 0" fill="#151a1c"/><path d="m429.429688 272.941406c-17.21875 54.980469-17.058594 122.519532-11.390626 181.25-25.609374 20.96875-55.347656 37.058594-87.828124 46.878906.628906-95.539062 55.640624-199.019531 55.640624-250.242187 0-27.566406-7.113281-47.816406-15.902343-62.269531-.007813-.027344-.019531-.070313-.050781-.097656-14.089844-23.171876-32.410157-31.511719-32.410157-31.511719l29.640625-89.378907c37.441406 13.441407 101.859375 79.070313 62.300782 205.371094zm0 0" fill="#2f373b"/><path d="m377.441406 92.007812c0 25.820313-13.796875 49.167969-36.019531 65.871094-21.46875 16.171875-50.828125 26.121094-83.183594 26.121094-65.832031 0-119.203125-41.191406-119.203125-91.992188 0-37.433593 28.988282-69.65625 70.578125-84.015624 14.847657-5.128907 31.304688-7.9804692 48.625-7.9804692 65.835938 0 119.203125 41.1914062 119.203125 91.9960932zm0 0" fill="#151a1c"/><path d="m377.441406 92.007812c0 25.820313-13.796875 49.167969-36.019531 65.871094-14.847656 5.132813-31.304687 7.980469-48.625 7.980469-65.835937 0-119.203125-41.1875-119.203125-91.992187 0-25.835938 13.796875-49.183594 36.019531-65.875 14.847657-5.128907 31.304688-7.9804692 48.625-7.9804692 65.835938 0 119.203125 41.1914062 119.203125 91.9960932zm0 0" fill="#2f373b"/><path d="m450.25 290.761719c-4.125 0-7.957031 1.589843-11.339844 4.476562-2.5 2.128907-2.15625 6.101563.582032 7.910157 1.828124 1.210937 4.265624 1.128906 5.929687-.296876 1.585937-1.359374 3.230469-2.089843 4.828125-2.089843 3.21875 0 6.601562 2.96875 9.390625 8.058593l7.339844-7.339843c-4.421875-6.75-10.210938-10.71875-16.730469-10.71875zm0 0" fill="#ffbb16"/><path d="m45.007812 301.480469 7.339844 7.339843c2.789063-5.089843 6.167969-8.058593 9.386719-8.058593 1.601563 0 3.242187.730469 4.832031 2.089843 1.664063 1.425782 4.101563 1.507813 5.929688.296876 2.734375-1.808594 3.078125-5.78125.578125-7.910157-3.378907-2.886719-7.214844-4.476562-11.339844-4.476562-6.519531 0-12.308594 3.96875-16.726563 10.71875zm0 0" fill="#ffbb16"/></svg>