<svg id="Capa_1" enable-background="new 0 0 562 562" height="512" viewBox="0 0 562 562" width="512" xmlns="http://www.w3.org/2000/svg"><g><path d="" fill="#6680ff"/><g><path d="m194.969 59.735c-9.542-9.808-22.884-15.901-37.649-15.901-29.007 0-52.523 23.515-52.523 52.523 0 17.591 8.648 33.162 21.924 42.694h68.248z" fill="#574d8c"/><path d="m408.469 127.468c0-70.399-57.07-127.468-127.469-127.468l-10 117.823z" fill="#180a33"/><path d="m281 0c-70.399 0-127.469 57.07-127.469 127.469 0 0 60.906 24.682 127.469.354z" fill="#332866"/><path d="m461.453 325.3-101.831-33.756-78.622 220.456h224.133v-126.203c0-27.472-17.604-51.853-43.68-60.497z" fill="#6680ff"/><path d="m359.622 291.544-37.866 78.138-40.756 142.318 133.127-127.377z" fill="#80aaff"/><path d="m100.547 325.3 101.831-33.756 78.622 220.456h-224.133v-126.203c0-27.472 17.604-51.853 43.68-60.497z" fill="#80aaff"/><path d="m202.378 291.544 37.866 78.138 40.756 142.318-133.127-127.377z" fill="#9cf"/><path d="m281 512 78.622-220.456h-88.622z" fill="#e50058"/><path d="m202.378 291.544 78.622 220.456v-220.456z" fill="#ff4a4a"/><path d="m163.531 127.468h-31.867c-17.6 0-31.868 14.268-31.868 31.868 0 17.6 14.268 31.868 31.868 31.868h31.867z" fill="#ffdecf"/><path d="m398.469 127.468h31.867c17.6 0 31.868 14.268 31.868 31.868 0 17.6-14.268 31.868-31.868 31.868h-31.867z" fill="#ffcdbe"/><path d="m320.834 83.57c-9.365 10.321-23.576 18.214-39.834 24.252l-10 67.447 10 143.403c70.399 0 127.469-57.07 127.469-127.469v-63.735z" fill="#ffdecf"/><path d="m153.531 127.469v63.735c0 70.399 57.07 127.469 127.469 127.469v-210.85c-52.893 19.644-127.469 19.646-127.469 19.646z" fill="#ffeee5"/><path d="m209.299 160.27h31.867v30h-31.867z" fill="#332866"/><path d="m320.834 160.27h31.867v30h-31.867z" fill="#180a33"/></g></g></svg>