<svg height="512pt" viewBox="0 0 512 512" width="512pt" xmlns="http://www.w3.org/2000/svg"><path d="m512 256c0 62.648438-22.511719 120.039062-59.878906 164.539062-14.160156 16.859376-30.449219 31.871094-48.460938 44.601563-41.730468 29.519531-92.671875 46.859375-147.660156 46.859375-141.378906 0-256-114.621094-256-256s114.621094-256 256-256 256 114.621094 256 256zm0 0" fill="#42b7a1"/><path d="m398.410156 468.761719c-12.339844 8.277343-25.441406 15.519531-39.179687 21.566406-2.339844 1.03125-4.699219 2.03125-7.082031 2.992187-.296876.128907-.609376.25-.910157.371094-8.148437 3.269532-16.5 6.136719-25.039062 8.558594-22.300781 6.351562-45.847657 9.75-70.199219 9.75-24.339844 0-47.890625-3.398438-70.199219-9.738281-7.242187-2.0625-14.359375-4.441407-21.332031-7.121094-.429688-.160156-.859375-.320313-1.289062-.492187-3.507813-1.359376-6.980469-2.808594-10.410157-4.320313-13.738281-6.058594-26.839843-13.289063-39.191406-21.578125 10.390625-14.371094 23.761719-26.429688 39.191406-35.320312 4.460938-2.558594 9.101563-4.871094 13.878907-6.878907 3.191406-1.339843 6.441406-2.550781 9.761718-3.621093 3.078125-1.007813 6.210938-1.890626 9.390625-2.648438 1.808594-.441406 3.640625-.839844 5.480469-1.191406 3.46875-.679688 7-1.199219 10.570312-1.570313 1.027344-.109375 2.046876-.210937 3.089844-.289062 3.378906-.28125 6.796875-.421875 10.257813-.421875h81.589843c4.519532 0 8.972657.242187 13.351563.703125 3.570313.367187 7.089844.898437 10.570313 1.558593 1.390624.269532 2.769531.558594 4.140624.871094.449219.117188.910157.207032 1.347657.328125 3.179687.761719 6.3125 1.652344 9.378906 2.652344 3.320313 1.066406 6.582031 2.289063 9.773437 3.628906 2.308594.96875 4.570313 2 6.796876 3.097657 2.410156 1.191406 4.773437 2.453124 7.082031 3.78125 5.078125 2.929687 9.929687 6.199218 14.53125 9.800781 9.378906 7.289062 17.679687 15.890625 24.648437 25.53125zm0 0" fill="#f1eee9"/><path d="m215.199219 416.808594c-29.359375 0-49.257813 42.429687-50.730469 78.332031-.429688-.160156-.859375-.320313-1.289062-.492187-3.507813-1.359376-6.980469-2.808594-10.410157-4.320313-13.738281-6.058594-26.839843-13.289063-39.191406-21.578125 10.390625-14.371094 23.761719-26.429688 39.191406-35.320312 10.199219-5.871094 21.300781-10.339844 33.03125-13.148438 1.808594-.441406 3.640625-.839844 5.480469-1.191406 3.46875-.679688 7-1.199219 10.570312-1.570313 1.027344-.109375 2.046876-.210937 3.089844-.289062 3.378906-.28125 6.796875-.421875 10.257813-.421875zm0 0" fill="#d7d3cd"/><path d="m335.578125 422.921875c-1.828125 33.25-23.886719 61.699219-56.039063 71.628906-7.578124 2.359375-15.5 3.558594-23.550781 3.558594-42.429687 0-77.226562-33.320313-79.578125-75.179687-3.320312 1.070312-6.570312 2.28125-9.761718 3.621093 4.121093 45.660157 42.613281 81.558594 89.339843 81.558594 9.050781 0 17.980469-1.347656 26.511719-4.007813 35.191406-10.871093 59.628906-41.460937 62.851562-77.550781-3.191406-1.339843-6.453124-2.5625-9.773437-3.628906zm0 0" fill="#ffbb16"/><path d="m320.710938 419.070312v4.339844c0 28.539063-18.320313 53.378906-45.589844 61.808594-6.171875 1.921875-12.609375 2.890625-19.132813 2.890625-35.679687 0-64.707031-29.03125-64.707031-64.699219v-4.320312c3.46875-.679688 7-1.199219 10.570312-1.570313 1.027344-.109375 2.046876-.210937 3.089844-.289062 3.378906-.28125 6.796875-.421875 10.257813-.421875h81.589843c4.519532 0 8.972657.242187 13.351563.703125 3.570313.367187 7.089844.898437 10.570313 1.558593zm0 0" fill="#d9723e"/><path d="m204.941406 417.230469c-1.042968.078125-2.0625.179687-3.089844.289062-3.570312.371094-7.101562.890625-10.570312 1.570313v4.320312c0 1.246094.042969 2.480469.113281 3.707032 6.902344-6.417969 14.921875-10.308594 23.804688-10.308594-3.460938 0-6.878907.140625-10.257813.421875zm0 0" fill="#bd5423"/><path d="m300.707031 368.539062v54.867188c0 20.089844-13.246093 37.066406-31.488281 42.707031-4.179688 1.296875-8.628906 1.996094-13.230469 1.996094-24.691406 0-44.703125-20.011719-44.703125-44.703125v-54.867188zm0 0" fill="#bd5423"/><path d="m300.707031 419.933594.410157 3.265625c0 20.089843-12.6875 37.601562-30.933594 43.242187-16.460938-5.0625-29.804688-19.699218-32.089844-37.210937 2.984375.179687 5.988281.273437 9.007812.273437 8.457032 0 16.75-.671875 24.828126-1.996094 9.953124-1.601562 19.570312-4.160156 28.777343-7.574218zm0 0" fill="#d9723e"/><path d="m132.539062 278.152344c0 20.496094-14.972656 37.492187-34.578124 40.648437-2.144532.34375-4.347657.527344-6.597657.527344-22.746093 0-41.171875-18.429687-41.171875-41.175781s18.425782-41.175782 41.171875-41.175782c2.25 0 4.453125.179688 6.597657.527344 19.605468 3.15625 34.578124 20.152344 34.578124 40.648438zm0 0" fill="#d9723e"/><path d="m132.539062 278.152344c0 20.496094-14.972656 37.492187-34.578124 40.648437-3.5625-12.953125-5.464844-26.582031-5.464844-40.648437s1.902344-27.695313 5.464844-40.644532c19.605468 3.152344 34.578124 20.148438 34.578124 40.644532zm0 0" fill="#bd5423"/><path d="m106.082031 278.152344c0 8.128906-6.589843 14.714844-14.71875 14.714844-8.125 0-14.714843-6.585938-14.714843-14.714844 0-8.125 6.589843-14.714844 14.714843-14.714844 8.128907 0 14.71875 6.589844 14.71875 14.714844zm0 0" fill="#bd5423"/><path d="m379.449219 278.152344c0 20.496094 14.972656 37.492187 34.578125 40.648437 2.144531.34375 4.347656.527344 6.597656.527344 22.746094 0 41.175781-18.429687 41.175781-41.175781s-18.429687-41.175782-41.175781-41.175782c-2.25 0-4.453125.179688-6.597656.527344-19.605469 3.15625-34.578125 20.152344-34.578125 40.648438zm0 0" fill="#d9723e"/><path d="m379.449219 278.152344c0 20.496094 14.972656 37.492187 34.578125 40.648437 3.5625-12.953125 5.464844-26.582031 5.464844-40.648437s-1.902344-27.695313-5.464844-40.644532c-19.605469 3.152344-34.578125 20.148438-34.578125 40.644532zm0 0" fill="#bd5423"/><path d="m435.339844 278.152344c0 8.128906-6.589844 14.714844-14.714844 14.714844-8.128906 0-14.71875-6.585938-14.71875-14.714844 0-8.125 6.589844-14.714844 14.71875-14.714844 8.125 0 14.714844 6.589844 14.714844 14.714844zm0 0" fill="#bd5423"/><path d="m410.695312 256.511719c0 76.984375-56.242187 140.847656-129.871093 152.703125-8.078125 1.328125-16.371094 2-24.828125 2-85.445313 0-154.703125-69.257813-154.703125-154.703125v-157.5h309.402343zm0 0" fill="#d9723e"/><path d="m283.242188 408.808594c-.800782.140625-1.609376.28125-2.417969.410156-8.082031 1.320312-16.371094 1.992188-24.832031 1.992188-85.4375 0-154.699219-69.25-154.699219-154.699219v-157.5h54.550781v157.5c0 76.136719 54.980469 139.410156 127.398438 152.296875zm0 0" fill="#bd5423"/><path d="m380.496094 168.40625v92.523438l30.199218-22.742188v-61.429688zm0 0" fill="#2f373b"/><path d="m131.496094 168.40625v92.523438l-30.203125-22.742188v-61.429688" fill="#181e21"/><path d="m273.542969 291.695312h-35.097657c-4.179687 0-7.570312-3.390624-7.570312-7.570312 0-4.183594 3.390625-7.570312 7.570312-7.570312h35.097657c4.183593 0 7.570312 3.386718 7.570312 7.570312 0 4.179688-3.386719 7.570312-7.570312 7.570312zm0 0" fill="#bd5423"/><path d="m265.886719 365.558594h-19.78125c-2.355469 0-4.265625-1.910156-4.265625-4.269532 0-2.355468 1.90625-4.265624 4.265625-4.265624h19.78125c2.355469 0 4.265625 1.910156 4.265625 4.265624 0 2.359376-1.910156 4.269532-4.265625 4.269532zm0 0" fill="#bd5423"/><path d="m334.707031 249.160156c0 12.308594-9.976562 22.289063-22.285156 22.289063-12.3125 0-22.289063-9.980469-22.289063-22.289063s9.976563-22.285156 22.289063-22.285156c12.308594 0 22.285156 9.976562 22.285156 22.285156zm0 0" fill="#2f373b"/><path d="m331.257812 245.226562c0 5.277344-4.277343 9.550782-9.550781 9.550782-5.273437 0-9.550781-4.273438-9.550781-9.550782 0-5.273437 4.277344-9.546874 9.550781-9.546874 5.273438 0 9.550781 4.273437 9.550781 9.546874zm0 0" fill="#fff"/><path d="m221.855469 249.160156c0 12.308594-9.976563 22.289063-22.285157 22.289063-12.308593 0-22.289062-9.980469-22.289062-22.289063s9.980469-22.285156 22.289062-22.285156c12.308594 0 22.285157 9.976562 22.285157 22.285156zm0 0" fill="#2f373b"/><path d="m204.78125 270.832031c-1.667969.410157-3.417969.617188-5.210938.617188-12.308593 0-22.289062-9.976563-22.289062-22.289063 0-12.308594 9.980469-22.289062 22.289062-22.289062 1.792969 0 3.542969.210937 5.210938.621094-9.800781 2.339843-17.070312 11.160156-17.070312 21.667968 0 10.511719 7.269531 19.332032 17.070312 21.671875zm0 0" fill="#181e21"/><path d="m317.632812 270.832031c-1.671874.410157-3.421874.617188-5.210937.617188-12.308594 0-22.289063-9.976563-22.289063-22.289063 0-12.308594 9.980469-22.289062 22.289063-22.289062 1.789063 0 3.539063.210937 5.210937.621094-9.800781 2.339843-17.070312 11.160156-17.070312 21.667968 0 10.511719 7.269531 19.332032 17.070312 21.671875zm0 0" fill="#181e21"/><path d="m218.40625 245.226562c0 5.277344-4.273438 9.550782-9.546875 9.550782-5.277344 0-9.550781-4.273438-9.550781-9.550782 0-5.273437 4.273437-9.546874 9.550781-9.546874 5.273437 0 9.546875 4.273437 9.546875 9.546874zm0 0" fill="#fff"/><path d="m410.695312 92.949219v83.808593h-309.402343v-83.808593c0-51.328125 42.730469-92.949219 95.453125-92.949219h118.496094c52.722656 0 95.453124 41.621094 95.453124 92.949219zm0 0" fill="#f1eee9"/><path d="m246.714844 0c-52.730469 0-95.460938 41.621094-95.460938 92.949219v83.8125h-49.960937v-83.8125c0-51.328125 42.730469-92.949219 95.449219-92.949219zm0 0" fill="#d7d3cd"/><path d="m330.074219 86.375h-41.027344c-18.253906 0-33.054687 14.796875-33.054687 33.050781v29.800781h107.132812v-29.800781c0-18.253906-14.796875-33.050781-33.050781-33.050781zm0 0" fill="#151a1c"/><path d="m20.722656 135.3125h110.539063v41.445312h-110.539063c-11.445312 0-20.722656-9.277343-20.722656-20.722656 0-11.445312 9.277344-20.722656 20.722656-20.722656zm0 0" fill="#d7d3cd"/><path d="m398.410156 468.761719c-12.339844 8.277343-25.441406 15.519531-39.179687 21.566406-2.339844 1.03125-4.699219 2.03125-7.082031 2.992187v-63.671874c2.410156 1.191406 4.773437 2.453124 7.082031 3.78125 5.078125 2.929687 9.929687 6.199218 14.53125 9.800781 9.378906 7.289062 17.679687 15.890625 24.648437 25.53125zm0 0" fill="#d9723e"/><path d="m113.578125 468.761719c12.34375 8.277343 25.441406 15.519531 39.183594 21.566406 2.339843 1.03125 4.699219 2.03125 7.078125 2.992187v-63.671874c-2.410156 1.191406-4.769532 2.453124-7.078125 3.78125-5.082031 2.929687-9.933594 6.199218-14.53125 9.800781-9.378907 7.289062-17.679688 15.890625-24.652344 25.53125zm0 0" fill="#bd5423"/><path d="m300.210938 309.480469v.058593c0 5.789063-1.371094 11.261719-3.8125 16.109376-5.898438 11.722656-18.039063 19.761718-32.058594 19.761718h-16.589844c-14.019531 0-26.160156-8.039062-32.070312-19.761718-2.441407-4.847657-3.808594-10.320313-3.808594-16.109376v-.058593zm0 0" fill="#f1eee9"/><path d="m300.210938 309.480469v.058593c0 5.789063-1.371094 11.261719-3.8125 16.109376h-80.71875c-2.441407-4.847657-3.808594-10.320313-3.808594-16.109376v-.058593zm0 0" fill="#ffbb16"/></svg>