<svg id="Capa_1" enable-background="new 0 0 512 512" height="512" viewBox="0 0 512 512" width="512" xmlns="http://www.w3.org/2000/svg"><g><path d="m0 256c0-141.385 114.615-256 256-256s256 114.615 256 256c0 80.844-37.475 152.936-96 199.852-2.326 1.864-102.672-45.203-160-45.203s-157.674 47.067-160 45.203c-58.525-46.916-96-119.008-96-199.852z" fill="#fb5858"/><path d="m449.298 256c0 106.755-86.542 193.298-193.298 193.298s-193.298-86.543-193.298-193.298 86.543-193.298 193.298-193.298 193.298 86.543 193.298 193.298z" fill="#fc7979"/><path d="m163.952 330.118c-15.065 12.839-24.619 31.953-24.619 53.299v86.281c0 6.516-7.081 10.555-12.701 7.257-10.735-6.299-20.97-13.358-30.632-21.103v-72.435c0-36.105 27.335-65.826 62.439-69.596 2.484-.268 17.733 5.882 5.513 16.297z" fill="#a6e0ec"/><path d="m416 383.416v72.436c-18.23 14.614-38.503 26.785-60.322 36.017-1.441.61-197.158.93-199.357 0-10.482-4.435-20.608-9.549-30.322-15.286v-93.167c0-33.663 23.762-61.776 55.428-68.481 4.701-.995 14.746 9.342 19.743 9.342l140.851-1.66c2.809 0 9.559-9.035 12.282-8.714 34.746 4.107 61.697 33.662 61.697 69.513z" fill="#def4f8"/><path d="m156.322 315.416c0-1.105.895-2 2-2h15.322l23.612 7.201h121.766l19.335-7.201h15.322c1.105 0 2 .895 2 2v130.46c0 17.98-12.659 33.44-30.267 37.081-22.267 4.604-45.509 7.043-69.412 7.043s-47.145-2.439-69.411-7.043c-17.608-3.641-30.267-19.101-30.267-37.081z" fill="#4172cc"/><path d="m338.356 313.416-62.356 62.356v104.228h-40v-104.228l-62.356-62.356h35.69l10.071 4.478h73.191l9.988-4.478z" fill="#fff5f5"/><path d="m256 360-46.584-46.584h93.167z" fill="#c2eaf2"/><path d="m355.678 418.149v53.851c0 3.047-1.863 5.779-4.692 6.91-.05.02-.099.04-.149.06-4.867 1.942-10.159-1.67-10.159-6.911v-53.596c0-4.107 3.165-7.688 7.269-7.811 4.248-.127 7.731 3.278 7.731 7.497zm-191.626-7.497c-4.247-.127-7.731 3.278-7.731 7.497v53.851c0 3.047 1.863 5.779 4.692 6.91.05.02.099.04.149.06 4.867 1.942 10.159-1.67 10.159-6.911v-53.596c.001-4.106-3.164-7.688-7.269-7.811z" fill="#2e5aac"/><path d="m345.738 490.922c0 2.973-1.879 5.621-4.684 6.609-26.285 9.256-54.535 14.343-83.956 14.466-.365.002-.732.003-1.098.003s-.733-.001-1.099-.002c-29.414-.124-57.657-5.208-83.935-14.459-2.817-.992-4.704-3.651-4.704-6.638v-9.22l5.06-9.681h169.357c3.238 3.214 5.06 7.587 5.06 12.15v6.772z" fill="#60c8dd"/><path d="m355.678 472v19.869c-4.923 2.083-9.925 4.016-15 5.794v-25.663zm-199.356 19.869c4.923 2.083 9.925 4.017 15 5.795v-25.664h-15z" fill="#2cb3cd"/><path d="m129.654 104.116c5.903-20.593 34.982-20.593 40.885 0 3.031 10.573 4.654 21.741 4.654 33.289 0 27.73-9.362 53.274-25.096 73.644-15.735-20.369-25.097-45.913-25.097-73.643 0-11.548 1.623-22.716 4.654-33.29z" fill="#61362b"/><path d="m378.074 100.702c1.95 0 3.659 1.295 4.201 3.169 3.076 10.646 4.725 21.897 4.725 33.534 0 61.24-45.656 111.816-104.787 119.548-59.131-7.732-104.787-58.308-104.787-119.549 0-12.798 1.994-25.13 5.689-36.703h194.959z" fill="#784132"/><path d="m171 188.416v10c0 13.807-11.193 25-25 25s-25-11.193-25-25v-10c0-13.807 11.193-25 25-25s25 11.193 25 25z" fill="#f2d1a5"/><path d="m136 183.416v20c0 8.178 3.927 15.439 9.998 20-13.806-.001-24.998-11.194-24.998-25v-10c0-13.806 11.192-24.999 24.998-25-6.071 4.561-9.998 11.822-9.998 20zm230-20v-20c0-60.751-49.249-110-110-110-60.751 0-110 49.249-110 110v40c0 50.351 33.83 92.801 80 105.859v24.141c11.716 11.716 18.284 18.018 30 29.733 11.716-11.716 18.284-18.017 30-29.733v-24.141c33.586-9.499 60.641-34.551 72.895-66.883 2.252.667 4.637 1.024 7.105 1.024 13.807 0 25-11.193 25-25v-10c0-13.807-11.193-25-25-25z" fill="#f2bb88"/><path d="m366 143.416v40c0 50.792-34.425 93.543-81.216 106.195-9.023 2.44-18.545 2.44-27.568 0-46.791-12.652-81.216-55.403-81.216-106.195v-40c0-55.663 41.345-101.669 95-108.985 53.655 7.316 95 53.322 95 108.985z" fill="#f2d1a5"/><path d="m241.5 190.148c-2.929-2.93-2.929-7.678 0-10.607 2.929-2.928 7.678-2.928 10.606 0 1.042 1.042 2.424 1.616 3.893 1.616s2.851-.574 3.893-1.616c2.929-2.928 7.678-2.928 10.606 0 2.929 2.93 2.929 7.678 0 10.607-3.875 3.875-9.024 6.009-14.5 6.009s-10.623-2.134-14.498-6.009z" fill="#e3a76f"/><path d="m233.653 151.693c1.877 3.692.406 8.208-3.285 10.085-3.693 1.878-8.207.406-10.085-3.285-3.125-6.143-10.664-8.6-16.808-5.477-3.692 1.877-8.207.405-10.085-3.287-1.877-3.692-.406-8.207 3.286-10.084 6.758-3.436 14.284-3.803 20.98-1.621 6.695 2.181 12.56 6.912 15.997 13.669zm81.671-12.048c-6.758-3.436-14.284-3.803-20.98-1.621s-12.561 6.912-15.998 13.67c-1.877 3.692-.406 8.208 3.285 10.085 3.693 1.878 8.207.406 10.085-3.285 3.125-6.143 10.664-8.6 16.808-5.477 3.692 1.877 8.207.405 10.085-3.287 1.879-3.693.407-8.208-3.285-10.085z" fill="#a65d4e"/><path d="m256 253.416c-16.569 0-30-13.431-30-30 0-4.142 3.358-7.5 7.5-7.5h45c4.142 0 7.5 3.358 7.5 7.5 0 16.569-13.431 30-30 30z" fill="#fff5f5"/><path d="m263.5 252.471c-2.397.617-4.91.945-7.5.945-16.568 0-30-13.431-30-30 0-4.142 3.358-7.5 7.5-7.5h15c-4.142 0-7.5 3.358-7.5 7.5 0 13.979 9.561 25.725 22.5 29.055z" fill="#def4f8"/><path d="m277.531 105.483h-96.382c-11.192 0-19.016-10.985-15.461-21.598 13.308-39.738 100.739-67.053 100.739-67.053 55.54 0 102.308 37.552 116.301 88.651h-75.873l-29.325-40.185v40.185z" fill="#784132"/><path d="m182.719 105.483h-53.447c13.994-51.099 60.762-88.651 116.301-88.651h20.854c5.527 0 10.967.372 16.297 1.093-48.227 6.516-87.404 41.544-100.005 87.558z" fill="#61362b"/></g></svg>