<svg id="Capa_1" enable-background="new 0 0 512 512" height="512" viewBox="0 0 512 512" width="512" xmlns="http://www.w3.org/2000/svg"><g><g><path d="m456.969 407.139c27.744-39.712 44.031-88.02 44.031-140.139 0-135.31-109.69-245-245-245s-245 109.69-245 245c0 52.119 16.287 100.427 44.031 140.139z" fill="#ffdd40"/></g><g><circle cx="256" cy="242" fill="#ffc839" r="200"/></g><g><path d="m363.766 239.575c-3.064-26.489-12-42.277-12-92.357h-191.532c0 50.08-8.936 65.868-12 92.357s8.284 51 29.021 56.787l-2.362-23.036s5.979 41.249 81.106 41.249 81.106-41.249 81.106-41.249l-2.362 23.036c20.739-5.788 32.087-30.298 29.023-56.787z" fill="#5c45bf"/></g><g><path d="m456.949 407.139c-8.256-22.709-16.99-42.685-24.722-51.911-.904-1.078-1.794-2.019-2.668-2.79-6.623-5.848-19.39-11.382-34.352-16.323-37.928-12.525-89.968-21.232-91.82-21.54h-94.772c-1.853.307-53.892 9.014-91.82 21.54-14.961 4.941-27.729 10.475-34.352 16.323-.874.772-1.765 1.712-2.668 2.79-7.732 9.226-16.467 29.203-24.722 51.911-.001.009-.001.018-.002.026 32.699 46.792 81.319 81.634 138.004 96.665l.007-.007 62.938-15.972 62.94 15.973v.008c56.688-15.03 105.31-49.872 138.011-96.667-.001-.008-.001-.017-.002-.026z" fill="#4fabf7"/></g><g><path d="m420.93 426.843v21.327c-7.157 6.519-14.704 12.617-22.599 18.262l12.035-41.103c1.75-5.98 10.564-4.716 10.564 1.514z" fill="#2e8be6"/></g><g><path d="m218.514 497.364c-67.373-58.308-83.845-132.426-87.87-165.498-4.742 1.359-9.394 2.777-13.85 4.249-14.961 4.941-27.729 10.475-34.352 16.323-.874.772-1.765 1.712-2.668 2.79-7.732 9.226-16.467 29.203-24.722 51.911-.001.009-.001.018-.002.026 32.708 46.805 81.357 81.625 138.063 96.645z" fill="#2e8be6"/></g><g><path d="m91.07 426.843v21.327c7.157 6.519 14.704 12.617 22.599 18.262l-12.035-41.103c-1.75-5.98-10.564-4.716-10.564 1.514z" fill="#1a7fd3"/></g><g><path d="m376.363 400.049c-12.574-62.943-53.75-134.554-120.363-134.554s-107.789 71.611-120.363 134.554c-2.232 11.171 4.616 22.15 15.628 25.069l1.946.516c6.666 1.767 12.085 6.615 14.579 13.045l25.27 65.146c13.835 3.667 28.147 6.161 42.827 7.358v-.001l20.113-23.331 20.114 23.33v.001c14.679-1.197 28.992-3.691 42.827-7.358l25.27-65.146c2.494-6.43 7.913-11.278 14.579-13.045l1.946-.516c11.011-2.918 17.859-13.897 15.627-25.068z" fill="#3c5082"/></g><g><path d="m303.386 314.575h-94.772l27.272 196.606c6.634.539 13.341.819 20.114.819s13.48-.28 20.114-.819z" fill="#e9efff"/></g><g><path d="m276.114 511.181 4.111-29.633c-26.458-6.208-53.849-38.937-60.138-84.271l15.8 113.904c6.633.539 13.34.819 20.113.819s13.48-.28 20.114-.819z" fill="#dae2fe"/></g><g><path d="m208.614 221.239v93.336s19.021 20.093 47.17 20.093c.073 0 .143-.005.216-.005 28.031-.103 47.386-20.088 47.386-20.088v-93.336z" fill="#f3d6ac"/></g><g><path d="m208.614 220.734v93.841c94.723 0 94.772-53.4 94.772-53.4v-40.44h-94.772z" fill="#eabe8d"/></g><g><ellipse cx="256" cy="22" fill="#4432ad" rx="43.951" ry="22"/></g><g><path d="m256 37c-55.228 0-100 44.771-100 100v15.119h100z" fill="#acbbef"/></g><g><path d="m356 137c0-55.228-44.771-100-100-100v115.119h100z" fill="#bec8f7"/></g><g><g><path d="m256.714 22c-36.27 0-68.249 18.366-87.148 46.304-4.328 6.399-5.215 14.524-2.348 21.697l30.828 77.118h115.068l31.654-79.184c2.932-7.333 1.985-15.685-2.625-22.097-19.084-26.549-50.237-43.838-85.429-43.838z" fill="#7255ce"/></g><g><path d="m225.04 79.602c-20.814-9.524-24.142-41.567-9.108-49.39-18.908 7.966-35.003 21.295-46.366 38.092-4.328 6.398-5.216 14.524-2.348 21.697l30.828 77.118h26.994z" fill="#5c45bf"/></g></g><g><path d="m331.058 159.567s10.385-25.285 28.897-19.415-.448 60.664-36.573 64.116z" fill="#f3d6ac"/></g><g><path d="m180.942 159.567s-10.385-25.285-28.897-19.415.448 60.664 36.573 64.116z" fill="#eabe8d"/></g><g><path d="m327.049 124.754c-3.509-10.287-9.219-24.496-16.225-32.717-3.978-3.853-8.145-7.046-12.399-9.103-8.195-3.963-15.758-4.069-22.16-2.497-13.314 3.269-27.216 3.268-40.53 0-6.402-1.572-13.966-1.466-22.16 2.497-4.254 2.057-8.421 5.25-12.399 9.103-7.006 8.221-12.716 22.43-16.225 32.717-2.762 8.097-8.72 14.703-16.484 18.295-.031 1.23-.063 2.46-.063 3.705 0 64.505 39.219 140.155 87.597 140.155s87.597-75.651 87.597-140.155c0-1.245-.032-2.475-.063-3.705-7.766-3.592-13.724-10.198-16.486-18.295z" fill="#f8e6cc"/></g><g><path d="m208.403 146.754c0-25.925 6.339-48.917 17.057-67.152-3.755.312-7.739 1.327-11.885 3.333-4.254 2.057-8.421 5.25-12.399 9.103-7.006 8.221-12.716 22.43-16.225 32.717-2.762 8.097-8.72 14.703-16.484 18.295-.031 1.23-.063 2.46-.063 3.705 0 64.505 39.219 140.155 87.597 140.155 6.881 0 13.576-1.535 20-4.346-38.742-16.953-67.598-80.48-67.598-135.81z" fill="#f3d6ac"/></g><g><g><path d="m242.013 192.447 8.436-13.441c2.569-4.093 8.533-4.093 11.102 0l8.436 13.441c2.739 4.365-.398 10.038-5.551 10.038h-16.871c-5.154-.001-8.291-5.674-5.552-10.038z" fill="#eabe8d"/></g></g><g><g><path d="m235.384 240.87h41.233c4.111-3.622 7.258-8.309 9.01-13.631 1.584-4.811-2.069-9.754-7.134-9.754h-44.985c-5.065 0-8.718 4.943-7.134 9.754 1.752 5.322 4.899 10.009 9.01 13.631z" fill="#162544"/></g><g><path d="m276.616 240.87c-5.493 4.849-12.714 7.798-20.616 7.798s-15.124-2.948-20.616-7.798c5.5-4.849 12.714-7.798 20.616-7.798s15.116 2.949 20.616 7.798z" fill="#ff4155"/></g></g><g><path d="m311.557 158.721c-.863-3.387-3.137-6.41-6.566-8.116-5.584-2.778-12.505-.923-15.952 4.274-2.117 3.192-2.574 6.947-1.628 10.312 1.228 4.369 7.176 5.031 9.445 1.1 1.43-2.476 4.596-3.325 7.072-1.895 3.93 2.269 8.75-1.277 7.629-5.675z" fill="#162544"/></g><g><path d="m200.443 158.721c.863-3.387 3.137-6.41 6.566-8.116 5.584-2.778 12.505-.923 15.952 4.274 2.117 3.192 2.574 6.947 1.628 10.312-1.228 4.369-7.176 5.031-9.445 1.1-1.43-2.476-4.596-3.325-7.072-1.895-3.93 2.269-8.75-1.277-7.629-5.675z" fill="#162544"/></g><g><path d="m223.5 138.968h-20c-4.142 0-7.5-3.358-7.5-7.5 0-4.142 3.358-7.5 7.5-7.5h20c4.142 0 7.5 3.358 7.5 7.5 0 4.142-3.358 7.5-7.5 7.5z" fill="#4432ad"/></g><g><path d="m308.5 138.968h-20c-4.142 0-7.5-3.358-7.5-7.5 0-4.142 3.358-7.5 7.5-7.5h20c4.142 0 7.5 3.358 7.5 7.5 0 4.142-3.358 7.5-7.5 7.5z" fill="#4432ad"/></g></g></svg>