<svg id="Capa_1" enable-background="new 0 0 512 512" height="512" viewBox="0 0 512 512" width="512" xmlns="http://www.w3.org/2000/svg"><g><path d="m435.726 357.167-44.718-14.824-113.868 61.93 10 107.726h192.266v-94.336c0-27.471-17.603-51.852-43.68-60.496z" fill="#80aaff"/><path d="m120.992 342.344-44.718 14.824c-26.077 8.644-43.68 33.025-43.68 60.497v94.335h192.265l8.547-107.726z" fill="#9cf"/><path d="m313.143 418.734c27.566 5.008 54.757-10.462 64.538-36.716l14.78-39.674-57.113-18.932h-56.755l10 90.863z" fill="#6680ff"/><path d="m178.105 323.411-57.113 18.932 14.78 39.674c9.781 26.254 36.972 41.724 64.538 36.716l24.549-4.46 10-90.863h-56.754z" fill="#80aaff"/><path d="m256.726 512h31.868v-97.726l-41.868-10z" fill="#332866"/><path d="m224.859 414.274v97.726h31.867v-107.726z" fill="#574d8c"/><path d="m256.726 414.274h31.868v-30l-41.868-10z" fill="#ffda44"/><path d="m256.726 374.274-31.867 10v30h31.867z" fill="#fff79f"/><path d="m288.594 384.274v-60.863h-41.868l10 60.863z" fill="#180a33"/><path d="m224.859 323.411h31.867v60.863h-31.867z" fill="#332866"/><path d="m416.063 159.336c0-87.999-71.338-159.336-159.336-159.336l-10 172.876 169.336-10z" fill="#cfcfe6"/><path d="m256.726 0c-87.998 0-159.336 71.337-159.336 159.336v3.54l159.336 10z" fill="#ece6f2"/><path d="m139.306 226.611h-41.915c-17.6 0-31.868-14.268-31.868-31.868 0-17.6 14.268-31.868 31.868-31.868h31.867z" fill="#c78f2c"/><path d="m374.147 226.611h41.915c17.6 0 31.868-14.268 31.868-31.868 0-17.6-14.268-31.868-31.868-31.868h-31.867z" fill="#b56d3c"/><path d="m349.749 142.753c-15.139-16.495-38.01-23.605-59.891-18.859-9.539 2.069-20.682 3.53-33.132 3.53l-10 79.713 10 143.403c70.399 0 127.469-57.07 127.469-127.469v-60.195c-12.39 0-24.536-9.325-34.446-20.123z" fill="#c78f2c"/><path d="m223.595 123.894c-21.881-4.746-44.751 2.363-59.891 18.859-9.911 10.798-22.056 20.123-34.447 20.123v60.195c0 70.399 57.07 127.469 127.469 127.469v-223.116c-12.449 0-23.592-1.461-33.131-3.53z" fill="#e1bb78"/><path d="m185.025 192.137h31.867v30h-31.867z" fill="#332866"/><path d="m296.56 192.137h31.867v30h-31.867z" fill="#180a33"/><path d="m288.594 255.872c-9.301 0-16.867-7.566-16.867-16.867h-15l-10 16.996 10 17.328c8.369 7.776 19.569 12.544 31.867 12.544h23.9v-30h-23.9z" fill="#180a33"/><path d="m241.726 239.004c0 9.301-7.566 16.867-16.867 16.867h-23.9v30h23.9c12.298 0 23.498-4.768 31.867-12.543v-34.324z" fill="#332866"/></g></svg>