<svg id="Capa_1" enable-background="new 0 0 512 512" height="512" viewBox="0 0 512 512" width="512" xmlns="http://www.w3.org/2000/svg"><g><path d="m436.453 357.167-101.83-33.756c.001.003-14.889 188.589-14.889 188.589h160.398v-94.336c.001-27.472-17.603-51.853-43.679-60.497z" fill="#332866"/><path d="m75.547 357.167 101.83-33.756c-.001.003 14.889 188.589 14.889 188.589h-160.399v-94.336c0-27.472 17.604-51.853 43.68-60.497z" fill="#574d8c"/><path d="m353.895 438.618-107.895-108.079 10 181.461h63.734c19.741-24.69 29.868-49.835 34.161-73.382z" fill="#cfcfe6"/><path d="m158.105 438.618 97.895-108.079v181.461h-63.734c-19.741-24.69-29.868-49.835-34.161-73.382z" fill="#ece6f2"/><path d="m353.895 438.618c11.558-63.404-19.271-115.205-19.272-115.207h-88.622l10 27.128c-.001 0 30.18 78.176 97.894 88.079z" fill="#ece6f2"/><path d="m158.105 438.618c-11.558-63.404 19.271-115.205 19.272-115.207h78.622v27.128c.001 0-30.18 78.176-97.894 88.079z" fill="#fff5f5"/><path d="m415.336 159.336c0-87.999-71.337-159.336-159.336-159.336l-10 172.876 169.336-10z" fill="#ffb655"/><path d="m256 0c-87.999 0-159.336 71.337-159.336 159.336v3.54l159.336 10z" fill="#ffda44"/><path d="m81.757 222.91s-4.513 9.788-8.883 24.152c-7.724 25.387 7.343 52.08 33.088 58.51l71.416 17.839h78.622v-100.501z" fill="#ffda44"/><path d="m439.126 247.062c-4.37-14.364-8.883-24.152-8.883-24.152h-174.243v100.501h78.622l71.416-17.839c25.745-6.43 40.812-33.123 33.088-58.51z" fill="#ffb655"/><path d="m138.579 226.611h-41.915c-17.6 0-31.868-14.268-31.868-31.868 0-17.6 14.268-31.868 31.868-31.868h31.867z" fill="#ffdecf"/><path d="m373.421 226.611h41.915c17.6 0 31.868-14.268 31.868-31.868 0-17.6-14.268-31.868-31.868-31.868h-31.867z" fill="#ffcdbe"/><path d="m256.001 97.344s-.001.001-.001.001l-10 109.791 10 143.403c70.399 0 127.469-57.07 127.469-127.469v-60.195h.002c0 .001-81.509.001-127.47-65.531z" fill="#ffdecf"/><path d="m128.531 162.876v60.195c0 70.399 57.07 127.469 127.469 127.469v-253.194c-45.962 65.53-127.469 65.53-127.469 65.53z" fill="#ffeee5"/><path d="m184.299 192.137h31.867v30h-31.867z" fill="#332866"/><path d="m295.834 192.137h31.867v30h-31.867z" fill="#180a33"/></g></svg>