<svg id="Capa_1" enable-background="new 0 0 512 512" height="512" viewBox="0 0 512 512" width="512" xmlns="http://www.w3.org/2000/svg"><g><path d="m0 256c0-141.308 114.49-255.875 255.768-256 139.177-.123 253.584 111.944 256.186 251.097 1.549 82.842-36.261 156.917-95.985 204.779-1.479 1.185-3.575 1.18-5.083.032-43.004-32.726-96.676-52.154-154.886-52.154-58.239 0-111.936 19.447-154.951 52.203-1.47 1.119-3.513 1.125-4.956-.03-58.579-46.915-96.093-119.04-96.093-199.927z" fill="#20b7a1"/><path d="m445.589 256c0 104.707-84.882 189.589-189.589 189.589s-189.589-84.882-189.589-189.589 84.882-189.589 189.589-189.589 189.589 84.882 189.589 189.589z" fill="#24d3b5"/><path d="m209.333 313.416c-38.66 0-70 31.34-70 70v86.281c0 6.516-7.081 10.555-12.701 7.257-10.735-6.299-20.97-13.358-30.632-21.103v-72.436c0-38.66 31.34-70 70-70h43.333z" fill="#a6e0ec"/><path d="m416 383.416v72.436c-18.23 14.614-38.503 26.785-60.322 36.017-2.775 1.174-5.125-6.883-7.949-5.805-28.353 10.824-154.858 10.698-183.459-.345-2.519-.973-5.469 7.2-7.949 6.15-10.482-4.435-20.608-9.549-30.322-15.286v-93.167c0-33.668 23.769-61.784 55.441-68.484 4.696-.993 12.694 7.983 17.687 7.983h135.064l7.809-9.499h4c38.66 0 70 31.34 70 70z" fill="#def4f8"/><path d="m355.678 418.463v73.405c-4.521 1.913-9.108 3.7-13.757 5.356-.604.215-1.243-.237-1.243-.878v-78.197c0-4.219 3.483-7.624 7.731-7.497 4.105.124 7.269 3.705 7.269 7.811zm-192.087-7.811c-4.105.123-7.269 3.704-7.269 7.811v73.405c4.507 1.907 9.081 3.689 13.715 5.341.625.223 1.285-.245 1.285-.908v-78.153c0-4.218-3.484-7.623-7.731-7.496z" fill="#a6e0ec"/><path d="m342 472.462c0 1.637-1.032 3.106-2.58 3.639-26.148 9.008-54.213 13.899-83.42 13.899-29.151 0-57.163-4.872-83.268-13.847-1.639-.564-2.732-2.119-2.732-3.852v-158.885h3.644l82.356 46.584 82.356-46.584h3.644z" fill="#c83c50"/><path d="m276 375.772v104.228h-40v-104.228l-62.356-62.356h35.689l46.667 15.797 46.584-15.797h35.772z" fill="#fa9084"/><path d="m342 497.196c-26.879 9.585-55.83 14.804-86 14.804s-59.121-5.219-86-14.804v-25.196h172z" fill="#962a3a"/><path d="m290.715 487.469c-2.919 2.919-7.428 3.533-11.021 1.5l-23.694-13.403-23.694 13.403c-3.594 2.033-8.102 1.419-11.021-1.5-9.27-9.27-9.27-24.298 0-33.568 2.919-2.919 7.428-3.533 11.021-1.5l23.694 13.403 23.694-13.404c3.594-2.033 8.102-1.419 11.021 1.5 9.27 9.271 9.27 24.299 0 33.569z" fill="#fb5858"/><path d="m302.584 313.416-46.584 46.584-46.584-46.584z" fill="#fff5f5"/><path d="m445.589 232.011c0 5.523-4.477 10-10 10-3.701 0-6.933-2.011-8.662-5h-136.338c-2.761 0-5-2.239-5-5s2.239-5 5-5h136.338c1.729-2.989 4.96-5 8.662-5 5.523 0 10 4.477 10 10zm-224.178-5h-136.338c-1.729-2.989-4.96-5-8.662-5-5.523 0-10 4.477-10 10s4.477 10 10 10c3.701 0 6.933-2.011 8.662-5h136.338c2.761 0 5-2.239 5-5s-2.239-5-5-5z" fill="#fffac1"/><path d="m214.82 254.021h-82.282c-11.935 0-22.1-9.281-22.524-21.208-.445-12.522 9.574-22.813 21.997-22.813h17.284c-15.251-20.194-24.295-45.338-24.295-72.594 0-9.273 1.047-18.302 3.029-26.974 1.012-4.428 4.987-7.548 9.53-7.548h69.052c-3.263 10.937-5.015 22.525-5.015 34.522 0-.001 23.042 119.197 13.224 116.615z" fill="#61362b"/><path d="m402 232.011c0 12.156-9.854 22.01-22.01 22.01h-82.811c-5.803 1.526-11.776 2.631-17.886 3.279-6.11-.648-12.083-1.753-17.886-3.279h-58.191c-11.903 0-22.004-9.263-22.453-21.157-.392-10.374 6.398-19.225 15.794-21.979-15.659-20.343-24.971-45.824-24.971-73.48 0-11.997 1.752-23.585 5.015-34.522h198.329c4.258 0 7.969 2.927 8.934 7.074 2.053 8.817 3.138 18.006 3.138 27.449 0 27.256-9.044 52.4-24.295 72.594h17.284c12.154 0 22.009 9.855 22.009 22.011z" fill="#784132"/><path d="m146 223.416c-13.807 0-25-11.193-25-25v-10c0-13.807 11.193-25 25-25 13.807 0 25 11.193 25 25v10c0 13.807-11.193 25-25 25z" fill="#f2bb88"/><path d="m136 183.416v20c0 8.178 3.927 15.439 9.998 20-13.806-.001-24.998-11.194-24.998-25v-10c0-13.806 11.192-24.999 24.998-25-6.071 4.561-9.998 11.822-9.998 20zm230-20v-20c0-60.751-49.249-110-110-110-60.751 0-110 49.249-110 110v40c0 50.351 33.83 92.8 80 105.859v24.141c11.716 11.716 18.284 18.018 30 29.733 11.716-11.716 18.284-18.017 30-29.733v-24.141c33.586-9.499 60.641-34.551 72.895-66.883 2.252.667 4.637 1.024 7.105 1.024 13.807 0 25-11.193 25-25v-10c0-13.807-11.193-25-25-25z" fill="#e3a76f"/><path d="m366 143.416v40c0 50.792-34.425 93.543-81.216 106.195-9.023 2.44-18.545 2.44-27.568 0-46.791-12.652-81.216-55.403-81.216-106.195v-40c0-55.663 41.345-101.669 95-108.985 53.655 7.316 95 53.322 95 108.985z" fill="#f2bb88"/><path d="m270.5 190.147c-3.875 3.875-9.024 6.009-14.5 6.009s-10.625-2.134-14.5-6.009c-2.929-2.93-2.929-7.678 0-10.607 2.929-2.928 7.678-2.928 10.606 0 1.042 1.042 2.424 1.616 3.893 1.616s2.851-.574 3.893-1.616c2.929-2.928 7.678-2.928 10.606 0 2.931 2.93 2.931 7.678.002 10.607z" fill="#e3a76f"/><path d="m233.653 151.693c1.877 3.692.406 8.207-3.285 10.085-3.693 1.878-8.207.406-10.085-3.285-3.125-6.143-10.664-8.6-16.808-5.477-3.692 1.877-8.207.405-10.085-3.287-1.877-3.692-.406-8.207 3.286-10.084 6.758-3.436 14.284-3.803 20.98-1.621s12.56 6.912 15.997 13.669zm81.671-12.048c-6.758-3.436-14.284-3.803-20.98-1.621s-12.561 6.912-15.998 13.67c-1.877 3.692-.406 8.207 3.285 10.085 3.693 1.878 8.207.406 10.085-3.285 3.125-6.143 10.664-8.6 16.808-5.477 3.692 1.877 8.207.405 10.085-3.287 1.879-3.693.407-8.208-3.285-10.085z" fill="#a65d4e"/><path d="m256 253.416c-16.569 0-30-13.431-30-30 0-4.142 3.358-7.5 7.5-7.5h45c4.142 0 7.5 3.358 7.5 7.5 0 16.569-13.431 30-30 30z" fill="#fff5f5"/><path d="m263.5 252.471c-2.397.617-4.91.945-7.5.945-16.568 0-30-13.431-30-30 0-4.142 3.358-7.5 7.5-7.5h15c-4.142 0-7.5 3.358-7.5 7.5 0 13.979 9.561 25.725 22.5 29.055z" fill="#def4f8"/><path d="m180.225 110.631c-21.564 0-6.573-23.426 4.349-42.019 13.409-22.827 53.227-41.235 77.553-48.441 9.025-2.674 18.706-2.494 20.105-2.311 50.237 6.578 90.743 44.081 101.783 92.772h-203.79z" fill="#784132"/><path d="m180.969 110.631h-52.985c12.177-53.705 60.201-93.798 117.589-93.798h20.854c5.465 0 10.844.364 16.116 1.068-50.093 6.691-90.557 44.139-101.574 92.73z" fill="#61362b"/></g></svg>