<svg id="Capa_1" enable-background="new 0 0 512 512" height="512" viewBox="0 0 512 512" width="512" xmlns="http://www.w3.org/2000/svg"><g><g><path d="m456.951 407.165c27.755-39.717 44.049-88.035 44.049-140.165 0-135.31-109.69-245-245-245s-245 109.69-245 245c0 52.13 16.294 100.448 44.049 140.165z" fill="#49d88b"/></g><g><circle cx="256" cy="242" fill="#38c674" r="200"/></g><g><path d="m333.48 46.073s-.921-27.711-14.708-34.073-28.523-12-62.772-12-48.985 5.638-62.772 12-14.708 34.073-14.708 34.073c-17.176 18.715-27.663 43.666-27.663 71.07v30.076h210.286v-30.076c0-27.404-10.488-52.356-27.663-71.07z" fill="#ffdd40"/></g><g><path d="m225.46 88.696c-33.737-15.087-37.396-76.331-8.841-85.005-9.523 2.198-16.575 5.165-23.391 8.31-13.787 6.362-14.708 34.073-14.708 34.073-17.176 18.715-27.663 43.666-27.663 71.07v30.076h74.603z" fill="#ffc839"/></g><g><path d="m456.949 407.139c-8.256-22.709-16.99-42.685-24.722-51.911-.904-1.078-1.795-2.019-2.668-2.79-6.623-5.848-19.39-11.382-34.352-16.323-37.929-12.525-89.967-21.232-91.82-21.54h-94.772c-1.853.307-53.892 9.014-91.82 21.54-14.961 4.941-27.729 10.475-34.352 16.323-.874.772-1.765 1.712-2.668 2.79-7.732 9.226-16.467 29.203-24.722 51.911-.001.009-.001.018-.002.026 36.568 52.328 93.045 89.714 158.449 101.156l42.5-20.47 42.502 20.471c65.403-11.443 121.881-48.828 158.449-101.156-.001-.009-.001-.018-.002-.027z" fill="#3c5082"/></g><g><path d="m224.985 502.789c-72.804-59.054-90.19-136.817-94.341-170.923-4.742 1.359-9.394 2.777-13.85 4.249-14.961 4.941-27.729 10.475-34.352 16.323-.874.772-1.765 1.712-2.668 2.79-7.732 9.226-16.467 29.203-24.722 51.911-.001.009-.001.018-.002.026 36.572 52.335 93.064 89.705 158.477 101.143z" fill="#2d3c6b"/></g><g><path d="m91.07 426.843v21.327c7.157 6.519 14.704 12.617 22.599 18.262l-12.035-41.103c-1.75-5.98-10.564-4.716-10.564 1.514z" fill="#213159"/></g><g><path d="m420.93 426.843v21.327c-7.157 6.519-14.704 12.617-22.599 18.262l12.035-41.103c1.75-5.98 10.564-4.716 10.564 1.514z" fill="#2d3c6b"/></g><g><path d="m349.296 379.57c5.805-7.806 5.152-18.657-1.547-25.71l-35.902-37.796c-4.95-.903-8.035-1.419-8.461-1.489h-94.772c-.426.071-3.51.586-8.461 1.489l-35.902 37.796c-6.7 7.053-7.353 17.904-1.547 25.71l26.774 36c2.603 3.5 2.637 8.282.085 11.819l-8.73 12.099c-5.035 6.977-5.043 16.393-.02 23.379l32.684 45.455c7.356 1.287 14.829 2.236 22.395 2.852l20.108-23.323 20.107 23.323c7.566-.616 15.039-1.565 22.395-2.852l32.684-45.455c5.023-6.986 5.015-16.401-.02-23.379l-8.73-12.099c-2.552-3.537-2.518-8.32.085-11.819z" fill="#4b6496"/></g><g><path d="m303.386 314.575h-94.772l27.272 196.606c6.634.539 13.341.819 20.114.819s13.48-.28 20.114-.819z" fill="#213159"/></g><g><path d="m276.114 511.181 4.111-29.633c-26.458-6.208-53.849-38.937-60.138-84.271l15.8 113.904c6.633.539 13.34.819 20.113.819s13.48-.28 20.114-.819z" fill="#162544"/></g><g><path d="m354.316 303.936c7.489-25.191-16.681-36.276-16.681-36.276 3.064-12.787-10.723-30.107-27.574-30.107h-107.699c-16.851 0-30.638 17.32-27.574 30.107 0 0-24.17 11.085-16.681 36.276 0 0-20.141 2.762-13.262 24.115 6.878 21.353 55.94 41.928 111.367 41.928s104.489-20.575 111.367-41.928c6.877-21.353-13.263-24.115-13.263-24.115z" fill="#e9efff"/></g><g><path d="m224.83 331c4.596-8.17 21.447-5.106 16.851-18.383s-60.766-17.872-66.894-44.957c0 0-24.17 11.085-16.681 36.276 0 0-20.141 2.762-13.262 24.115 6.878 21.353 55.94 41.928 111.367 41.928 7.755 0 15.384-.403 22.792-1.155-32.427-13.436-58.769-29.654-54.173-37.824z" fill="#dae2fe"/></g><g><path d="m337.635 267.66c-9.656 18.404-43.869 33.723-42.848 42.404s30.206 10.723 59.528-6.128c7.49-25.191-16.68-36.276-16.68-36.276z" fill="#dae2fe"/></g><g><path d="m180.942 159.567s-10.385-25.285-28.897-19.415.448 60.664 36.573 64.116z" fill="#934a2e"/></g><g><path d="m331.058 159.567s10.385-25.285 28.897-19.415-.448 60.664-36.573 64.116z" fill="#a05838"/></g><g><path d="m343.549 143.073-.038-.009-22.281-43.488c-3.422-6.679-10.295-10.88-17.8-10.88h-94.901c-7.505 0-14.378 4.201-17.8 10.88l-22.278 43.483c-.029 1.226-.048 2.456-.048 3.696 0 64.505 39.219 140.155 87.597 140.155s87.597-75.651 87.597-140.155c0-1.235-.019-2.461-.048-3.682z" fill="#b76c4e"/></g><g><path d="m256 286.91c7.744 0 15.251-1.946 22.402-5.467-37.528-18.469-65.203-80.505-65.203-134.688 0-21.789 4.49-41.495 12.281-58.059h-16.951c-7.505 0-14.378 4.201-17.8 10.88l-22.278 43.483c-.029 1.226-.048 2.456-.048 3.696 0 64.504 39.218 140.155 87.597 140.155z" fill="#a05838"/></g><g><g><path d="m242.013 192.447 8.436-13.441c2.569-4.093 8.533-4.093 11.102 0l8.436 13.441c2.739 4.365-.398 10.038-5.551 10.038h-16.871c-5.154-.001-8.291-5.674-5.552-10.038z" fill="#934a2e"/></g></g><g><g><path d="m235.384 240.87h41.233c4.111-3.622 7.258-8.309 9.01-13.631 1.584-4.811-2.069-9.754-7.134-9.754h-44.985c-5.065 0-8.718 4.943-7.134 9.754 1.752 5.322 4.899 10.009 9.01 13.631z" fill="#162544"/></g><g><path d="m276.616 240.87c-5.493 4.849-12.714 7.798-20.616 7.798s-15.124-2.948-20.616-7.798c5.5-4.849 12.714-7.798 20.616-7.798s15.116 2.949 20.616 7.798z" fill="#ff4155"/></g></g><g><path d="m223.5 134.968h-20c-4.142 0-7.5-3.358-7.5-7.5 0-4.142 3.358-7.5 7.5-7.5h20c4.142 0 7.5 3.358 7.5 7.5 0 4.142-3.358 7.5-7.5 7.5z" fill="#ffb332"/></g><g><path d="m308.5 134.968h-20c-4.142 0-7.5-3.358-7.5-7.5 0-4.142 3.358-7.5 7.5-7.5h20c4.142 0 7.5 3.358 7.5 7.5 0 4.142-3.358 7.5-7.5 7.5z" fill="#ffb332"/></g><g><path d="m311.239 162.03c.043-3.495-1.371-7.004-4.242-9.539-4.675-4.128-11.84-4.128-16.515 0-2.871 2.535-4.284 6.044-4.242 9.539.055 4.538 5.629 6.716 8.838 3.507 2.022-2.022 5.3-2.022 7.322 0 3.21 3.209 8.784 1.031 8.839-3.507z" fill="#162544"/></g><g><path d="m200.761 162.03c-.043-3.495 1.371-7.004 4.242-9.539 4.675-4.128 11.84-4.128 16.515 0 2.871 2.535 4.284 6.044 4.242 9.539-.055 4.538-5.629 6.716-8.838 3.507-2.022-2.022-5.3-2.022-7.322 0-3.21 3.209-8.784 1.031-8.839-3.507z" fill="#162544"/></g></g></svg>