<svg id="Capa_1" enable-background="new 0 0 512 512" height="512" viewBox="0 0 512 512" width="512" xmlns="http://www.w3.org/2000/svg"><g><path d="m480.133 417.664c0-27.472-17.604-51.853-43.68-60.497l-54.851-18.183-10 75.289 10 97.726h98.531z" fill="#332866"/><path d="m351.602 329.04-10 85.234 10 97.726h30v-173.015z" fill="#180a33"/><path d="m277.867 404.274 10 107.726h63.735v-97.726z" fill="#cfcfe6"/><path d="m351.602 414.274v-85.234l-16.98-5.629-56.755-10 10 100.863z" fill="#ece6f2"/><path d="m75.547 357.167c-26.077 8.644-43.68 33.025-43.68 60.497v94.336h98.531l10-97.726-10-75.289z" fill="#574d8c"/><path d="m130.398 338.985v173.015h30l10-97.726-10-85.234z" fill="#332866"/><path d="m160.398 414.274v97.726h63.735l10-107.726z" fill="#ece6f2"/><path d="m234.133 313.411-56.755 10-16.98 5.629v85.234h63.735z" fill="#fff5f5"/><path d="m287.867 512v-97.726l-41.867-10 10 107.726z" fill="#e50058"/><path d="m224.133 512h31.867v-107.726l-31.867 10z" fill="#ff4a4a"/><path d="m256 414.274h31.867v-30l-41.867-10z" fill="#c50048"/><path d="m224.133 384.274v30h31.867v-40z" fill="#e50058"/><path d="m287.867 384.274v-60.863h-41.867l10 60.863z" fill="#e50058"/><path d="m224.133 323.411h31.867v60.863h-31.867z" fill="#ff4a4a"/><path d="m96.664 159.336v3.54l112.989 10-56.56-135.177c-34.512 29.227-56.429 72.869-56.429 121.637z" fill="#895140"/><path d="m415.336 159.336c0-48.768-21.917-92.41-56.429-121.637l-56.56 135.177 112.989-10z" fill="#5b362a"/><path d="m358.907 37.699c-27.763-23.512-63.676-37.699-102.907-37.699l-10 162.876h66.347z" fill="#895140"/><path d="m256 0c-39.231 0-75.143 14.187-102.907 37.699l46.56 125.177h56.347z" fill="#b56d3c"/><path d="m128.531 162.876h-31.867c-17.6 0-31.868 14.268-31.868 31.868 0 17.6 14.268 31.868 31.868 31.868h41.915z" fill="#ffdecf"/><path d="m373.421 226.611h41.915c17.6 0 31.868-14.268 31.868-31.868 0-17.6-14.268-31.868-31.868-31.868h-31.867z" fill="#ffcdbe"/><path d="m325.99 126.198s-27.319 17.159-69.99 17.159l-10 63.779 10 143.403c70.399 0 127.469-57.07 127.469-127.469v-60.195c-29.432.001-57.479-36.677-57.479-36.677z" fill="#ffdecf"/><path d="m186.01 126.198s-28.048 36.678-57.479 36.678v60.195c0 70.399 57.07 127.469 127.469 127.469v-207.182c-42.67 0-69.99-17.16-69.99-17.16z" fill="#ffeee5"/><path d="m184.299 192.137h31.867v30h-31.867z" fill="#332866"/><path d="m295.834 192.137h31.867v30h-31.867z" fill="#180a33"/></g></svg>