<svg height="512pt" viewBox="0 0 512 512" width="512pt" xmlns="http://www.w3.org/2000/svg"><path d="m512 256c0 141.386719-114.613281 256-256 256s-256-114.613281-256-256 114.613281-256 256-256 256 114.613281 256 256zm0 0" fill="#ff931f"/><path d="m259.011719 443.472656-87.15625-9.976562-44.53125-35.914063v-223.464843h262.011719v197.527343l-49.203126 61.851563" fill="#181e21"/><path d="m398.410156 468.761719c-12.339844 8.277343-25.441406 15.519531-39.179687 21.566406-10.652344 4.703125-21.679688 8.703125-33.03125 11.921875-22.300781 6.351562-45.847657 9.75-70.199219 9.75-24.339844 0-47.890625-3.398438-70.199219-9.738281-7.242187-2.0625-14.359375-4.441407-21.332031-7.121094-.429688-.160156-.859375-.320313-1.289062-.492187-3.507813-1.359376-6.980469-2.808594-10.410157-4.320313-13.738281-6.058594-26.839843-13.289063-39.191406-21.578125 10.390625-14.371094 23.761719-26.429688 39.191406-35.320312 10.199219-5.871094 21.300781-10.339844 33.03125-13.148438 1.808594-.441406 3.640625-.839844 5.480469-1.191406 3.46875-.679688 7-1.199219 10.570312-1.570313 1.027344-.109375 2.046876-.210937 3.089844-.289062 3.378906-.28125 6.796875-.421875 10.257813-.421875h81.589843c4.519532 0 8.972657.242187 13.351563.703125 3.570313.367187 7.089844.898437 10.570313 1.558593 1.390624.269532 2.769531.558594 4.140624.871094.449219.117188.910157.207032 1.347657.328125 11.742187 2.820313 22.832031 7.289063 33.03125 13.160157 15.429687 8.898437 28.789062 20.960937 39.179687 35.332031zm0 0" fill="#40b4d3"/><path d="m215.199219 416.808594c-29.359375 0-49.257813 42.429687-50.730469 78.332031-.429688-.160156-.859375-.320313-1.289062-.492187-3.507813-1.359376-6.980469-2.808594-10.410157-4.320313-13.738281-6.058594-26.839843-13.289063-39.191406-21.578125 10.390625-14.371094 23.761719-26.429688 39.191406-35.320312 10.199219-5.871094 21.300781-10.339844 33.03125-13.148438 1.808594-.441406 3.640625-.839844 5.480469-1.191406 3.46875-.679688 7-1.199219 10.570312-1.570313 1.027344-.109375 2.046876-.210937 3.089844-.289062 3.378906-.28125 6.796875-.421875 10.257813-.421875zm0 0" fill="#0084a6"/><path d="m320.710938 419.070312v4.339844c0 28.539063-18.320313 53.378906-45.589844 61.808594-6.171875 1.921875-12.609375 2.890625-19.132813 2.890625-35.679687 0-64.707031-29.03125-64.707031-64.699219v-4.320312c3.46875-.679688 7-1.199219 10.570312-1.570313 1.027344-.109375 2.046876-.210937 3.089844-.289062 3.378906-.28125 6.796875-.421875 10.257813-.421875h81.589843c4.519532 0 8.972657.242187 13.351563.703125 3.570313.367187 7.089844.898437 10.570313 1.558593zm0 0" fill="#f9c5ac"/><path d="m300.707031 368.539062v54.867188c0 20.089844-13.246093 37.066406-31.488281 42.707031-4.179688 1.296875-8.628906 1.996094-13.230469 1.996094-24.691406 0-44.703125-20.011719-44.703125-44.703125v-54.867188zm0 0" fill="#efb29a"/><path d="m300.707031 419.933594v3.472656c0 20.089844-13.246093 37.066406-31.488281 42.707031-16.460938-5.058593-28.839844-19.371093-31.125-36.882812 2.988281.183593 5.992188.273437 9.007812.273437 8.460938 0 16.75-.671875 24.828126-1.996094 9.953124-1.601562 19.570312-4.160156 28.777343-7.574218zm0 0" fill="#f9c5ac"/><path d="m410.695312 256.511719c0 76.984375-56.242187 140.847656-129.871093 152.703125-7.867188 1.292968-15.933594 1.960937-24.160157 1.996094-85.453124.359374-155.371093-70.640626-155.371093-156.09375v-103.421876c0-29.097656 23.585937-52.683593 52.683593-52.683593h139.054688c64.984375 0 117.664062 52.679687 117.664062 117.664062zm0 0" fill="#f9c5ac"/><g fill="#efb29a"><path d="m283.242188 408.808594c-.800782.140625-1.609376.28125-2.417969.410156-7.8125 1.277344-15.820313 1.945312-23.988281 1.988281-85.546876.453125-155.542969-70.539062-155.542969-156.089843v-101.558594c0-30.125 24.421875-54.546875 54.550781-54.546875v157.5c0 76.136719 54.980469 139.410156 127.398438 152.296875zm0 0"/><path d="m360.261719 296.496094c0 10.539062-8.542969 19.082031-19.082031 19.082031-10.539063 0-19.082032-8.542969-19.082032-19.082031 0-10.539063 8.542969-19.082032 19.082032-19.082032 10.539062 0 19.082031 8.542969 19.082031 19.082032zm0 0"/><path d="m189.886719 296.496094c0 10.539062-8.542969 19.082031-19.082031 19.082031-10.539063 0-19.082032-8.542969-19.082032-19.082031 0-10.539063 8.542969-19.082032 19.082032-19.082032 10.539062 0 19.082031 8.542969 19.082031 19.082032zm0 0"/><path d="m273.378906 297.921875h-34.757812c-4.140625 0-7.5-3.355469-7.5-7.496094s3.359375-7.496093 7.5-7.496093h34.757812c4.136719 0 7.496094 3.355468 7.496094 7.496093s-3.359375 7.496094-7.496094 7.496094zm0 0"/></g><path d="m256 345.351562c-12.828125 0-25.65625-3.214843-37.351562-9.640624-3.296876-1.8125-4.5-5.957032-2.6875-9.257813 1.8125-3.296875 5.957031-4.5 9.253906-2.6875 19.277344 10.597656 42.292968 10.597656 61.566406 0 3.296875-1.8125 7.441406-.609375 9.253906 2.6875 1.816406 3.300781.613282 7.445313-2.6875 9.257813-11.691406 6.425781-24.519531 9.640624-37.347656 9.640624zm0 0" fill="#dd9f8a"/><path d="m392.359375 138.867188s82.542969 112.46875 20.09375 294.628906h-72.320313s76.53125-190.699219-5.386718-245.988282c-81.914063-55.292968-17.066406-26.359374-17.066406-26.359374" fill="#2f373b"/><path d="m106.34375 169.039062s-59.683594 91.871094-6.808594 264.457032h72.320313s-76.53125-190.699219 5.382812-245.988282c81.917969-55.292968 17.070313-26.359374 17.070313-26.359374" fill="#181e21"/><path d="m343.992188 244.328125c0-17.808594-14.433594-32.242187-32.242188-32.242187s-32.242188 14.433593-32.242188 32.242187" fill="#efb29a"/><path d="m333.773438 258.054688c0 12.164062-9.859376 22.023437-22.023438 22.023437s-22.023438-9.859375-22.023438-22.023437c0-12.164063 9.859376-22.023438 22.023438-22.023438s22.023438 9.859375 22.023438 22.023438zm0 0" fill="#2f373b"/><path d="m330.363281 254.167969c0 5.210937-4.222656 9.4375-9.433593 9.4375-5.214844 0-9.4375-4.226563-9.4375-9.4375 0-5.210938 4.222656-9.4375 9.4375-9.4375 5.210937 0 9.433593 4.226562 9.433593 9.4375zm0 0" fill="#fff"/><path d="m232.480469 244.328125c0-17.808594-14.433594-32.242187-32.242188-32.242187-17.808593 0-32.242187 14.433593-32.242187 32.242187" fill="#efb29a"/><path d="m222.261719 258.054688c0 12.164062-9.859375 22.023437-22.023438 22.023437-12.160156 0-22.019531-9.859375-22.019531-22.023437 0-12.164063 9.859375-22.023438 22.019531-22.023438 12.164063 0 22.023438 9.859375 22.023438 22.023438zm0 0" fill="#2f373b"/><path d="m205.207031 279.511719c-1.601562.378906-3.261719.566406-4.96875.566406-12.160156 0-22.019531-9.859375-22.019531-22.027344 0-12.160156 9.859375-22.019531 22.019531-22.019531 1.707031 0 3.367188.199219 4.96875.570312-9.78125 2.25-17.058593 11-17.058593 21.449219 0 10.460938 7.277343 19.210938 17.058593 21.460938zm0 0" fill="#181e21"/><path d="m316.71875 279.511719c-1.601562.378906-3.261719.566406-4.972656.566406-12.160156 0-22.019532-9.859375-22.019532-22.027344 0-12.160156 9.859376-22.019531 22.019532-22.019531 1.710937 0 3.371094.199219 4.972656.570312-9.78125 2.25-17.0625 11-17.0625 21.449219 0 10.460938 7.28125 19.210938 17.0625 21.460938zm0 0" fill="#181e21"/><path d="m218.855469 254.167969c0 5.210937-4.226563 9.4375-9.4375 9.4375-5.210938 0-9.4375-4.226563-9.4375-9.4375 0-5.210938 4.226562-9.4375 9.4375-9.4375 5.210937 0 9.4375 4.226562 9.4375 9.4375zm0 0" fill="#fff"/><path d="m380.46875 103.789062-240.796875 62.730469-37.960937 9.890625-19.832032 5.160156c-10.058594-38.609374 13.769532-92.242187 49.53125-113.242187 17.960938-10.546875 26.417969-24.957031 34.039063-38.019531 7.449219-12.757813 19.710937-20.96875 33.128906-23.679688h.011719c11.621094-2.359375 24.109375-.589844 35.128906 5.902344 13.03125 7.667969 27.429688 16.128906 48.261719 16.570312 26.929687.578126 56.179687 15.617188 76.128906 36.679688 10.769531 11.359375 18.832031 24.46875 22.359375 38.007812zm0 0" fill="#f93d6e"/><path d="m198.578125 6.628906c-31.378906 9.871094-8.519531 57.03125-33.128906 74.710938-23.960938 17.199218-44.078125 64.789062-25.777344 85.179687l-57.792969 15.050781c-10.058594-38.609374 13.769532-92.242187 49.53125-113.242187 17.960938-10.546875 26.417969-24.957031 34.039063-38.019531 7.449219-12.757813 19.710937-20.96875 33.128906-23.679688zm0 0" fill="#e41753"/><path d="m380.46875 103.789062-240.796875 62.730469-37.960937 9.890625-7.039063-27.019531c-2.023437-7.75 2.617187-15.671875 10.378906-17.691406l253.058594-65.917969c10.769531 11.359375 18.832031 24.46875 22.359375 38.007812zm0 0" fill="#e41753"/><path d="m372.707031 87.945312-291.796875 76.007813c-7.75 2.019531-12.398437 9.941406-10.378906 17.695313l13.808594 53.019531c2.019531 7.753906 9.941406 12.398437 17.695312 10.382812l291.792969-76.011719c7.753906-2.019531 12.402344-9.941406 10.382813-17.695312l-13.808594-53.019531c-2.019532-7.753907-9.941406-12.398438-17.695313-10.378907zm0 0" fill="#f93d6e"/><path d="m169.585938 227.445312-67.550782 17.601563c-7.75 2.019531-15.679687-2.628906-17.699218-10.378906l-13.808594-53.019531c-2.019532-7.75 2.628906-15.679688 10.390625-17.703126l65.597656-17.089843c-2.589844 3.613281-3.609375 8.300781-2.398437 12.929687l14.769531 56.683594c1.429687 5.488281 5.621093 9.507812 10.699219 10.976562zm0 0" fill="#e41753"/></svg>