<svg id="Capa_1" enable-background="new 0 0 512 512" height="512" viewBox="0 0 512 512" width="512" xmlns="http://www.w3.org/2000/svg"><g><path d="m0 256c0-141.297 114.473-255.858 255.737-256 139.515-.14 254.08 112.458 256.232 251.957 1.275 82.633-36.609 156.469-96.298 204.157-2.161 1.726-5.213 1.819-7.435.172-42.55-31.522-95.215-50.164-152.235-50.164-56.974 0-109.601 18.612-152.133 50.088-2.283 1.69-5.418 1.599-7.637-.175-58.658-46.91-96.231-119.085-96.231-200.035z" fill="#fb5858"/><path d="m466.66 256c0 116.344-94.315 210.66-210.66 210.66s-210.66-94.316-210.66-210.66 94.316-210.66 210.66-210.66 210.66 94.316 210.66 210.66z" fill="#fc7979"/><path d="m404.987 107.042c8.935 4.78 15.013 14.201 15.013 25.043v11.617h-21.617c-15.676 0-28.383-12.708-28.383-28.383v-16.553c0-15.675 12.708-28.383 28.383-28.383h21.617v11.617c0 10.841-6.079 20.262-15.013 25.042z" fill="#274c91"/><path d="m402 400h-269.787c-33.137 0-60-26.863-60-60 0-24.423 14.592-45.437 35.533-54.801-3.551-7.662-5.533-16.199-5.533-25.199 0-21.245 11.042-39.911 27.7-50.573-4.903-8.695-7.7-18.734-7.7-29.427 0-23.14 13.1-43.221 32.288-53.231-4.024-8.059-6.288-17.149-6.288-26.769 0-33.137 26.863-60 60-60h117.787c33.137 0 60 26.863 60 60 0 9.62-2.264 18.711-6.288 26.769 19.188 10.01 32.288 30.091 32.288 53.231 0 10.693-2.797 20.733-7.7 29.427 16.658 10.662 27.7 29.328 27.7 50.573 0 9-1.982 17.537-5.533 25.199 20.941 9.364 35.533 30.378 35.533 54.801 0 33.137-26.863 60-60 60z" fill="#915041"/><path d="m172.5 400h-61.556c-33.117 0-60.7-26.433-60.943-59.55-.181-24.614 14.462-45.83 35.531-55.251-3.55-7.662-5.532-16.199-5.532-25.199 0-21.245 11.042-39.911 27.7-50.573-4.903-8.695-7.7-18.734-7.7-29.427 0-23.14 13.1-43.221 32.288-53.231-4.028-8.067-6.293-17.169-6.288-26.801.017-33.262 27.582-59.968 60.844-59.968h61.656c-33.137 0-60 26.863-60 60 0 9.62 2.264 18.711 6.288 26.769-19.188 10.01-32.288 30.091-32.288 53.231 0 10.693 2.797 20.733 7.7 29.427-16.658 10.661-27.7 29.327-27.7 50.573 0 3.214.253 6.37.74 9.447 1.451 9.173-1.873 18.421-9.021 24.35-13.269 11.006-21.719 27.618-21.719 46.203 0 33.137 26.863 60 60 60z" fill="#784132"/><path d="m166 333.416h43.333c-38.66 0-70 31.34-70 70v65.925c0 6.674-7.257 10.818-13.009 7.433-10.623-6.253-20.755-13.251-30.325-20.922v-52.436c.001-38.66 31.341-70 70.001-70z" fill="#4172cc"/><path d="m416 403.416v52.436c-18.23 14.614-38.503 26.785-60.322 36.017-2.459 1.041-5.002-2.494-7.5-1.529-17.943 6.934-36.864 11.904-56.498 14.647-3.405.476-6.766 5.422-10.213 5.762-8.376.827-16.872 1.251-25.467 1.251s-17.091-.424-25.468-1.251c-3.371-.333-6.583-7.457-9.914-7.919-18.862-2.618-37.068-7.292-54.382-13.788-3.291-1.234-6.69 4.191-9.914 2.826-10.482-4.435-20.608-9.549-30.322-15.286v-73.167c0-38.66 31.34-70 70-70h112.574l18.019 3.426c9.22 1.753 18.665.652 27.497-2.523.581-.209 1.121-.304 1.588-.239 34.08 4.714 60.322 33.961 60.322 69.337z" fill="#6990d7"/><path d="m355.678 334.08v142.454c0 9.461-5.933 17.946-14.86 21.08-18.87 6.624-38.752 11.1-59.351 13.135v-114.831c0-26.245 13.624-49.308 34.186-62.502h30.347c3.284 0 6.515.226 9.678.664zm-159.332-.664h-30.346c-3.284 0-6.515.226-9.678.664v143.087c0 9.082 5.702 17.208 14.263 20.237 19.048 6.74 39.131 11.289 59.947 13.345v-114.831c0-26.245-13.624-49.308-34.186-62.502z" fill="#274c91"/><path d="m280.142 391.82-24.142-24.142-24.142 24.142c-1.953 1.953-5.118 1.953-7.071 0l-40.607-40.607c-1.953-1.953-1.953-5.118 0-7.071l44.142-44.142 27.678 27.678 27.678-27.678 44.142 44.142c1.953 1.953 1.953 5.118 0 7.071l-40.607 40.607c-1.952 1.953-5.118 1.953-7.071 0z" fill="#fff5f5"/><path d="m355.678 438.277v53.592c-4.923 2.083-9.925 4.017-15 5.795v-59.387c0-4.142 3.358-7.5 7.5-7.5s7.5 3.358 7.5 7.5zm-191.856-7.5c-4.142 0-7.5 3.358-7.5 7.5v53.592c4.923 2.083 9.925 4.017 15 5.795v-59.387c0-4.142-3.358-7.5-7.5-7.5z" fill="#203e76"/><path d="m146 243.416c-13.807 0-25-11.193-25-25v-10c0-13.807 11.193-25 25-25 13.807 0 25 11.193 25 25v10c0 13.807-11.193 25-25 25z" fill="#ffcdbe"/><path d="m136 203.416v20c0 8.178 3.927 15.439 9.998 20-13.806-.001-24.998-11.194-24.998-25v-10c0-13.806 11.192-24.999 24.998-25-6.071 4.561-9.998 11.822-9.998 20zm230-20v-20c0-60.751-49.249-110-110-110-60.751 0-110 49.249-110 110v40c0 50.351 33.83 92.8 80 105.859v16.622c0 4.847 1.76 9.529 4.953 13.175l25.047 28.606 25.047-28.605c3.193-3.646 4.953-8.328 4.953-13.175v-16.622c33.586-9.499 60.641-34.551 72.895-66.883 2.252.667 4.637 1.024 7.105 1.024 13.807 0 25-11.193 25-25v-10c0-13.808-11.193-25.001-25-25.001z" fill="#ffbeaa"/><path d="m366 163.416v40c0 50.792-34.425 93.543-81.216 106.195-9.023 2.44-18.545 2.44-27.568 0-46.791-12.652-81.216-55.403-81.216-106.195v-40c0-55.663 41.345-101.669 95-108.985 53.655 7.316 95 53.322 95 108.985z" fill="#ffcdbe"/><path d="m241.5 210.147c-2.929-2.93-2.929-7.678 0-10.607 2.929-2.928 7.678-2.928 10.606 0 1.042 1.042 2.424 1.616 3.893 1.616s2.851-.574 3.893-1.616c2.929-2.928 7.678-2.928 10.606 0 2.929 2.93 2.929 7.678 0 10.607-3.875 3.875-9.024 6.009-14.5 6.009s-10.623-2.134-14.498-6.009zm44.803 27.601c-2.929-2.928-7.678-2.928-10.606 0-10.861 10.861-28.532 10.861-39.394 0-2.929-2.928-7.678-2.928-10.606 0-2.929 2.93-2.929 7.678 0 10.607 8.354 8.354 19.329 12.531 30.303 12.531s21.949-4.177 30.303-12.531c2.929-2.929 2.929-7.677 0-10.607z" fill="#faa68e"/><path d="m223.5 170.916c0 8.284-6.716 15-15 15s-15-6.716-15-15 6.716-15 15-15 15 6.716 15 15zm80-15c-8.284 0-15 6.716-15 15s6.716 15 15 15 15-6.716 15-15-6.716-15-15-15z" fill="#203e76"/><path d="m412 180c0 3.407-.284 6.748-.83 10h-45.28c-26.924 0-49.706-17.734-57.303-42.158-3.329-10.703-13.448-17.842-24.658-17.842h-33.026c-33.386 0-61.282-27.318-60.899-60.702.122-10.665 3.028-20.662 8.023-29.298h127.973c27.958 0 51.449 19.122 58.11 45-1.37 5.322-3.452 10.357-6.137 15h8.027c0 9.62-2.264 18.711-6.288 26.769 19.188 10.01 32.288 30.091 32.288 53.231z" fill="#915041"/><path d="m226 163.416c0 4.142-3.358 7.5-7.5 7.5s-7.5-3.358-7.5-7.5 3.358-7.5 7.5-7.5 7.5 3.358 7.5 7.5zm87.5-7.5c-4.142 0-7.5 3.358-7.5 7.5s3.358 7.5 7.5 7.5 7.5-3.358 7.5-7.5-3.358-7.5-7.5-7.5z" fill="#fff5f5"/><path d="m387.936 94.777v5.606c0 1.381-1.119 2.5-2.5 2.5h-258.872c-1.381 0-2.5-1.119-2.5-2.5v-5.606c0-52.344 42.433-94.777 94.776-94.777h74.319c52.344 0 94.777 42.433 94.777 94.777z" fill="#2e5aac"/><path d="m385.436 102.883h-191.127c-1.381 0-2.5-1.119-2.5-2.5v-5.606c0-52.344 42.432-94.777 94.776-94.777h6.574c52.344 0 94.776 42.433 94.776 94.777v5.606c.001 1.381-1.118 2.5-2.499 2.5z" fill="#4172cc"/><path d="m197.65 110.383h-73.405c-4.142 0-7.5-3.358-7.5-7.5 0-4.142 3.358-7.5 7.5-7.5h73.405c4.142 0 7.5 3.358 7.5 7.5 0 4.142-3.358 7.5-7.5 7.5z" fill="#6990d7"/><path d="m387.755 110.383h-198.51c-4.142 0-7.5-3.358-7.5-7.5 0-4.142 3.358-7.5 7.5-7.5h198.511c4.142 0 7.5 3.358 7.5 7.5-.001 4.142-3.359 7.5-7.501 7.5z" fill="#91aee2"/></g></svg>