<svg height="512pt" viewBox="0 0 512 512" width="512pt" xmlns="http://www.w3.org/2000/svg"><path d="m512 256c0 141.386719-114.613281 256-256 256s-256-114.613281-256-256 114.613281-256 256-256 256 114.613281 256 256zm0 0" fill="#f93d6e"/><path d="m91.363281 278.152344 29.710938 134.726562 34.914062 63.847656h200.011719l41.082031-78.476562 8.824219-120.097656" fill="#181e21"/><path d="m398.410156 468.761719c-12.339844 8.277343-25.441406 15.519531-39.179687 21.566406-10.652344 4.703125-21.679688 8.703125-33.03125 11.921875-22.300781 6.351562-45.847657 9.75-70.199219 9.75-24.339844 0-47.890625-3.398438-70.199219-9.738281-7.242187-2.0625-14.359375-4.441407-21.332031-7.121094-.429688-.160156-.859375-.320313-1.289062-.492187-3.507813-1.359376-6.980469-2.808594-10.410157-4.320313-13.738281-6.058594-26.839843-13.289063-39.191406-21.578125 10.390625-14.371094 23.761719-26.429688 39.191406-35.320312 10.199219-5.871094 21.300781-10.339844 33.03125-13.148438 1.808594-.441406 3.640625-.839844 5.480469-1.191406 3.46875-.679688 7-1.199219 10.570312-1.570313 1.027344-.109375 2.046876-.210937 3.089844-.289062 3.378906-.28125 6.796875-.421875 10.257813-.421875h81.589843c4.519532 0 8.972657.242187 13.351563.703125 3.570313.367187 7.089844.898437 10.570313 1.558593 1.390624.269532 2.769531.558594 4.140624.871094.449219.117188.910157.207032 1.347657.328125 11.742187 2.820313 22.832031 7.289063 33.03125 13.160157 15.429687 8.898437 28.789062 20.960937 39.179687 35.332031zm0 0" fill="#2f373b"/><path d="m215.199219 416.808594c-29.359375 0-49.257813 42.429687-50.730469 78.332031-.429688-.160156-.859375-.320313-1.289062-.492187-3.507813-1.359376-6.980469-2.808594-10.410157-4.320313-13.738281-6.058594-26.839843-13.289063-39.191406-21.578125 10.390625-14.371094 23.761719-26.429688 39.191406-35.320312 10.199219-5.871094 21.300781-10.339844 33.03125-13.148438 1.808594-.441406 3.640625-.839844 5.480469-1.191406 3.46875-.679688 7-1.199219 10.570312-1.570313 1.027344-.109375 2.046876-.210937 3.089844-.289062 3.378906-.28125 6.796875-.421875 10.257813-.421875zm0 0" fill="#181e21"/><path d="m300.707031 368.539062v54.867188c0 20.089844-13.246093 37.066406-31.488281 42.707031-4.179688 1.296875-8.628906 1.996094-13.230469 1.996094-24.691406 0-44.703125-20.011719-44.703125-44.703125v-54.867188zm0 0" fill="#d7d3cd"/><path d="m300.707031 419.933594v3.472656c0 20.089844-13.246093 37.066406-31.488281 42.707031-16.460938-5.058593-28.839844-19.371093-31.125-36.882812 2.988281.183593 5.992188.273437 9.007812.273437 8.460938 0 16.75-.671875 24.828126-1.996094 9.953124-1.601562 19.570312-4.160156 28.777343-7.574218zm0 0" fill="#f1eee9"/><path d="m132.539062 278.152344c0 20.496094-14.972656 37.492187-34.578124 40.648437-2.144532.34375-4.347657.527344-6.597657.527344-22.746093 0-41.171875-18.429687-41.171875-41.175781s18.425782-41.175782 41.171875-41.175782c2.25 0 4.453125.179688 6.597657.527344 19.605468 3.15625 34.578124 20.152344 34.578124 40.648438zm0 0" fill="#f1eee9"/><path d="m132.539062 278.152344c0 20.496094-14.972656 37.492187-34.578124 40.648437-3.5625-12.953125-5.464844-26.582031-5.464844-40.648437s1.902344-27.695313 5.464844-40.644532c19.605468 3.152344 34.578124 20.148438 34.578124 40.644532zm0 0" fill="#d7d3cd"/><path d="m106.082031 278.152344c0 8.128906-6.589843 14.714844-14.71875 14.714844-8.125 0-14.714843-6.585938-14.714843-14.714844 0-8.125 6.589843-14.714844 14.714843-14.714844 8.128907 0 14.71875 6.589844 14.71875 14.714844zm0 0" fill="#d7d3cd"/><path d="m379.449219 278.152344c0 20.496094 14.972656 37.492187 34.578125 40.648437 2.144531.34375 4.347656.527344 6.597656.527344 22.746094 0 41.175781-18.429687 41.175781-41.175781s-18.429687-41.175782-41.175781-41.175782c-2.25 0-4.453125.179688-6.597656.527344-19.605469 3.15625-34.578125 20.152344-34.578125 40.648438zm0 0" fill="#f1eee9"/><path d="m379.449219 278.152344c0 20.496094 14.972656 37.492187 34.578125 40.648437 3.5625-12.953125 5.464844-26.582031 5.464844-40.648437s-1.902344-27.695313-5.464844-40.644532c-19.605469 3.152344-34.578125 20.148438-34.578125 40.644532zm0 0" fill="#d7d3cd"/><path d="m435.339844 278.152344c0 8.128906-6.589844 14.714844-14.714844 14.714844-8.128906 0-14.71875-6.585938-14.71875-14.714844 0-8.125 6.589844-14.714844 14.71875-14.714844 8.125 0 14.714844 6.589844 14.714844 14.714844zm0 0" fill="#d7d3cd"/><path d="m410.695312 256.511719c0 76.984375-56.242187 140.847656-129.871093 152.703125-7.867188 1.292968-15.933594 1.960937-24.160157 1.996094-85.453124.359374-155.371093-70.640626-155.371093-156.09375v-110.449219c0-25.214844 20.441406-45.65625 45.65625-45.65625h218.089843c25.214844 0 45.65625 20.441406 45.65625 45.65625zm0 0" fill="#f1eee9"/><path d="m283.242188 408.808594c-.800782.140625-1.609376.28125-2.417969.410156-7.8125 1.277344-15.820313 1.945312-23.988281 1.988281-85.546876.453125-155.542969-70.539062-155.542969-156.089843v-127.097657c0-16.023437 12.988281-29.007812 29.011719-29.007812h25.539062v157.5c0 76.136719 54.980469 139.410156 127.398438 152.296875zm0 0" fill="#d7d3cd"/><path d="m255.996094 315.277344c12.953125 0 25.90625 3.246094 37.714844 9.738281 3.332031 1.832031 4.546874 6.015625 2.714843 9.347656-1.832031 3.328125-6.015625 4.542969-9.347656 2.714844-19.464844-10.703125-42.707031-10.699219-62.167969 0-3.328125 1.828125-7.515625.613281-9.347656-2.714844-1.828125-3.332031-.613281-7.515625 2.714844-9.347656 11.808594-6.492187 24.761718-9.738281 37.71875-9.738281zm0 0" fill="#9aabb2"/><path d="m273.542969 291.695312h-35.097657c-4.179687 0-7.570312-3.390624-7.570312-7.570312 0-4.183594 3.390625-7.570312 7.570312-7.570312h35.097657c4.183593 0 7.570312 3.386718 7.570312 7.570312 0 4.179688-3.386719 7.570312-7.570312 7.570312zm0 0" fill="#d7d3cd"/><path d="m281.339844 249.160156c0 17.164063 13.914062 31.082032 31.082031 31.082032 17.164063 0 31.078125-13.917969 31.078125-31.082032" fill="#9aabb2"/><path d="m334.707031 249.160156c0 12.308594-9.976562 22.289063-22.285156 22.289063-12.3125 0-22.289063-9.980469-22.289063-22.289063s9.976563-22.285156 22.289063-22.285156c12.308594 0 22.285156 9.976562 22.285156 22.285156zm0 0" fill="#2f373b"/><path d="m331.257812 245.226562c0 5.277344-4.277343 9.550782-9.550781 9.550782-5.273437 0-9.550781-4.273438-9.550781-9.550782 0-5.273437 4.277344-9.546874 9.550781-9.546874 5.273438 0 9.550781 4.273437 9.550781 9.546874zm0 0" fill="#fff"/><path d="m168.488281 249.160156c0 17.164063 13.917969 31.082032 31.082031 31.082032 17.164063 0 31.078126-13.917969 31.078126-31.082032" fill="#9aabb2"/><path d="m221.855469 249.160156c0 12.308594-9.976563 22.289063-22.285157 22.289063-12.308593 0-22.289062-9.980469-22.289062-22.289063s9.980469-22.285156 22.289062-22.285156c12.308594 0 22.285157 9.976562 22.285157 22.285156zm0 0" fill="#2f373b"/><path d="m204.78125 270.832031c-1.667969.410157-3.417969.617188-5.210938.617188-12.308593 0-22.289062-9.976563-22.289062-22.289063 0-12.308594 9.980469-22.289062 22.289062-22.289062 1.792969 0 3.542969.210937 5.210938.621094-9.800781 2.339843-17.070312 11.160156-17.070312 21.667968 0 10.511719 7.269531 19.332032 17.070312 21.671875zm0 0" fill="#181e21"/><path d="m317.632812 270.832031c-1.671874.410157-3.421874.617188-5.210937.617188-12.308594 0-22.289063-9.976563-22.289063-22.289063 0-12.308594 9.980469-22.289062 22.289063-22.289062 1.789063 0 3.539063.210937 5.210937.621094-9.800781 2.339843-17.070312 11.160156-17.070312 21.667968 0 10.511719 7.269531 19.332032 17.070312 21.671875zm0 0" fill="#181e21"/><path d="m218.40625 245.226562c0 5.277344-4.273438 9.550782-9.546875 9.550782-5.277344 0-9.550781-4.273438-9.550781-9.550782 0-5.273437 4.273437-9.546874 9.550781-9.546874 5.273437 0 9.546875 4.273437 9.546875 9.546874zm0 0" fill="#fff"/><path d="m384.929688 218.339844c11.96875 109.738281-43.890626 162.621094-43.890626 162.621094 43.441407-107.632813 3.8125-207.449219 3-209.472657 22.261719 91.101563-17.640624 161.582031-17.640624 161.582031 23.679687-111.289062-40.476563-190.550781-70.398438-228.742187-29.929688 38.191406-94.089844 117.453125-70.410156 228.742187 0 0-31.410156-55.480468-22.941406-131.621093 1.070312-9.667969 2.792968-19.6875 5.300781-29.960938-.597657 1.492188-22.238281 55.992188-16.269531 127.601563.339843 4.082031.769531 8.21875 1.300781 12.410156 2.789062 22.109375 8.328125 45.601562 17.96875 69.460938 0 0-55.859375-52.882813-43.890625-162.621094 0 0-37.910156 117.710937 28.921875 258.378906-1.351563-1.359375-96.78125-97.839844-75.808594-249.398438 21.117187-152.628906 30.417969-222 175.828125-222 145.398438 0 154.699219 69.371094 175.820312 222 20.96875 151.558594-74.460937 248.039063-75.808593 249.398438 66.828125-140.667969 28.917969-258.378906 28.917969-258.378906zm0 0" fill="#2f373b"/><g fill="#181e21"><path d="m162.648438 201.449219c1.070312-9.667969 2.792968-19.6875 5.300781-29.960938zm0 0"/><path d="m167.960938 171.460938-.011719.027343c-.597657 1.492188-22.238281 55.992188-16.269531 127.601563l-.679688 7.710937 1.980469 4.699219c2.789062 22.109375 8.328125 45.601562 17.96875 69.460938 0 0-55.859375-52.882813-43.890625-162.621094 0 0-37.910156 117.710937 28.921875 258.378906-1.351563-1.359375-96.78125-97.839844-75.808594-249.398438 21.117187-152.628906 30.417969-222 175.828125-222-48.648438 6.789063-74.070312 115.917969-88.039062 166.140626zm0 0"/></g></svg>