<svg id="Capa_1" enable-background="new 0 0 512 512" height="512" viewBox="0 0 512 512" width="512" xmlns="http://www.w3.org/2000/svg"><g><g><path d="m456.951 407.165c27.755-39.717 44.049-88.035 44.049-140.165 0-135.31-109.69-245-245-245s-245 109.69-245 245c0 52.13 16.294 100.448 44.049 140.165z" fill="#73c3f9"/></g><g><circle cx="256" cy="242" fill="#4fabf7" r="200"/></g><g><path d="m436 180c0-5.808-1.683-11.218-4.582-15.781-2.735-4.304-3.421-9.512-1.893-14.378 1.62-5.158 1.845-10.818.342-16.429-1.503-5.61-4.529-10.4-8.51-14.057-3.756-3.45-5.766-8.303-5.55-13.398.229-5.401-1.018-10.927-3.922-15.958-2.904-5.03-7.066-8.873-11.859-11.375-4.521-2.36-7.718-6.528-8.828-11.505-1.176-5.277-3.811-10.292-7.919-14.399-4.107-4.107-9.122-6.742-14.399-7.919-4.977-1.11-9.145-4.308-11.505-8.828-2.502-4.793-6.345-8.954-11.375-11.859-5.03-2.904-10.556-4.151-15.957-3.922-5.095.216-9.948-1.794-13.398-5.55-3.657-3.982-8.447-7.007-14.057-8.51s-11.271-1.278-16.429.342c-4.865 1.528-10.074.842-14.378-1.893-4.563-2.898-9.973-4.581-15.781-4.581s-11.218 1.683-15.781 4.582c-4.304 2.735-9.512 3.421-14.378 1.893-5.158-1.62-10.819-1.845-16.429-.342s-10.4 4.529-14.057 8.51c-3.45 3.756-8.303 5.766-13.398 5.55-5.401-.229-10.927 1.018-15.958 3.922-5.03 2.904-8.873 7.066-11.375 11.859-2.36 4.521-6.528 7.719-11.505 8.828-5.277 1.176-10.292 3.812-14.399 7.919s-6.742 9.122-7.919 14.399c-1.11 4.977-4.308 9.145-8.828 11.505-4.792 2.502-8.954 6.345-11.859 11.375-2.904 5.03-4.151 10.556-3.922 15.958.216 5.095-1.794 9.948-5.55 13.398-3.982 3.657-7.007 8.447-8.51 14.057-1.503 5.611-1.278 11.271.342 16.429 1.528 4.865.842 10.073-1.893 14.378-2.898 4.562-4.581 9.972-4.581 15.78s1.683 11.218 4.582 15.781c2.735 4.304 3.42 9.512 1.893 14.378-1.62 5.158-1.845 10.818-.342 16.429 1.503 5.61 4.529 10.4 8.51 14.057 3.756 3.45 5.766 8.303 5.55 13.398-.229 5.401 1.018 10.927 3.922 15.958 2.904 5.03 7.066 8.873 11.859 11.375 4.521 2.36 7.718 6.528 8.828 11.505 1.176 5.277 3.811 10.292 7.919 14.399 4.107 4.107 9.122 6.742 14.399 7.919 4.977 1.11 9.145 4.308 11.505 8.828 2.502 4.792 6.345 8.954 11.375 11.859 5.03 2.904 10.556 4.151 15.957 3.922 5.095-.216 9.948 1.794 13.398 5.55 3.657 3.982 8.447 7.007 14.057 8.51s11.271 1.278 16.429-.342c4.865-1.528 10.073-.842 14.378 1.893 4.563 2.898 9.973 4.581 15.781 4.581s11.218-1.683 15.781-4.582c4.304-2.735 9.512-3.421 14.378-1.893 5.158 1.62 10.819 1.845 16.429.342s10.4-4.529 14.057-8.51c3.45-3.756 8.303-5.766 13.398-5.55 5.401.229 10.927-1.018 15.957-3.922s8.873-7.066 11.375-11.859c2.36-4.521 6.528-7.719 11.505-8.828 5.277-1.176 10.292-3.811 14.399-7.919 4.107-4.107 6.742-9.122 7.919-14.399 1.11-4.977 4.308-9.145 8.828-11.505 4.792-2.502 8.954-6.345 11.859-11.375 2.904-5.03 4.152-10.556 3.922-15.958-.216-5.095 1.794-9.948 5.55-13.398 3.982-3.657 7.007-8.447 8.51-14.057s1.278-11.271-.342-16.429c-1.528-4.865-.842-10.074 1.893-14.378 2.899-4.562 4.582-9.972 4.582-15.78z" fill="#ffdd40"/></g><g><path d="m313.766 345.315c-3.45-3.756-8.303-5.766-13.398-5.55-5.401.229-10.927-1.018-15.957-3.922s-8.873-7.066-11.375-11.859c-2.36-4.521-6.528-7.718-11.505-8.828-5.277-1.176-10.292-3.811-14.399-7.919-4.107-4.107-6.742-9.122-7.919-14.399-1.11-4.977-4.308-9.145-8.828-11.505-4.792-2.502-8.954-6.345-11.859-11.375-2.904-5.03-4.151-10.556-3.922-15.958.216-5.095-1.794-9.948-5.55-13.398-3.982-3.657-7.007-8.447-8.51-14.057-1.503-5.611-1.278-11.271.342-16.429 1.528-4.865.842-10.074-1.893-14.378-2.899-4.563-4.582-9.972-4.582-15.781 0-5.808 1.683-11.218 4.582-15.781 2.735-4.304 3.421-9.512 1.893-14.378-1.62-5.158-1.845-10.819-.342-16.429s4.529-10.4 8.51-14.057c3.756-3.45 5.766-8.303 5.55-13.398-.229-5.401 1.018-10.927 3.922-15.958 2.904-5.03 7.066-8.873 11.859-11.375 4.521-2.36 7.719-6.528 8.828-11.505 1.176-5.277 3.811-10.292 7.919-14.399 4.107-4.107 9.122-6.742 14.399-7.919 4.977-1.11 9.145-4.308 11.505-8.828 2.502-4.793 6.345-8.955 11.375-11.859s10.556-4.151 15.958-3.922c5.095.216 9.948-1.794 13.398-5.55.455-.495.927-.975 1.417-1.44-3.437-3.25-7.703-5.719-12.595-7.029-5.61-1.503-11.271-1.278-16.429.342-4.865 1.528-10.074.842-14.378-1.893-4.564-2.896-9.974-4.579-15.782-4.579s-11.218 1.683-15.781 4.582c-4.304 2.735-9.512 3.421-14.378 1.893-5.158-1.62-10.819-1.845-16.429-.342s-10.4 4.529-14.057 8.51c-3.45 3.756-8.303 5.766-13.398 5.55-5.401-.229-10.927 1.018-15.957 3.922s-8.873 7.066-11.375 11.859c-2.36 4.521-6.528 7.719-11.505 8.828-5.277 1.176-10.292 3.812-14.399 7.919s-6.742 9.122-7.919 14.399c-1.11 4.977-4.308 9.145-8.828 11.505-4.792 2.502-8.954 6.345-11.859 11.375-2.904 5.03-4.151 10.556-3.922 15.958.216 5.095-1.794 9.948-5.55 13.398-3.982 3.657-7.007 8.447-8.51 14.057s-1.278 11.271.342 16.429c1.528 4.865.842 10.073-1.893 14.378-2.899 4.562-4.582 9.972-4.582 15.78s1.683 11.218 4.582 15.781c2.735 4.304 3.421 9.512 1.893 14.378-1.62 5.158-1.845 10.819-.342 16.429s4.529 10.4 8.51 14.057c3.756 3.45 5.766 8.303 5.55 13.398-.229 5.401 1.018 10.927 3.922 15.958 2.904 5.03 7.066 8.873 11.859 11.375 4.521 2.36 7.718 6.528 8.828 11.505 1.176 5.277 3.812 10.292 7.919 14.399s9.122 6.742 14.399 7.919c4.977 1.11 9.145 4.307 11.505 8.828 2.502 4.793 6.345 8.954 11.375 11.859 5.03 2.904 10.556 4.151 15.957 3.922 5.095-.216 9.948 1.794 13.398 5.55 3.657 3.982 8.447 7.007 14.057 8.51s11.271 1.278 16.429-.342c4.865-1.528 10.073-.842 14.378 1.893 4.563 2.898 9.973 4.581 15.781 4.581s11.218-1.683 15.781-4.582c4.304-2.735 9.512-3.421 14.378-1.893 5.158 1.619 10.818 1.845 16.429.342 4.913-1.316 9.196-3.8 12.641-7.071-.506-.478-.995-.971-1.463-1.481z" fill="#ffc839"/></g><g><path d="m120.813 471.339h222.678v-148.914l.002-.001c-21.726-4.775-39.052-7.674-40.107-7.849h-94.772c-1.853.307-53.892 9.014-91.82 21.54-14.961 4.941-27.729 10.475-34.352 16.323-.874.772-1.765 1.712-2.668 2.79-7.732 9.226-16.467 29.203-24.722 51.911-.001.009-.001.018-.002.026 17.679 25.301 40.017 47.103 65.763 64.174z" fill="#a05838"/></g><g><path d="m120.813 471.339h91.199c-26.814-36.329-43.503-87.851-43.503-148.914l-.001-.001c-16.432 3.612-35.38 8.297-51.714 13.69-14.961 4.941-27.729 10.475-34.352 16.323-.874.772-1.765 1.712-2.668 2.79-7.732 9.226-16.467 29.203-24.722 51.911-.001.009-.001.018-.002.026 17.679 25.302 40.017 47.104 65.763 64.175z" fill="#934a2e"/></g><g><path d="m235.384 369.362s-10.767-11.809-23.703-11.809-55.191 11.809-55.191 11.809z" fill="#934a2e"/></g><g><path d="m124.098 471.33v-42.559c-10.047 7.176-17.708 17.36-21.736 29.06 5.936 4.786 12.117 9.277 18.491 13.499z" fill="#823821"/></g><g><path d="m208.614 221.239v93.336s19.021 20.093 47.17 20.093c.073 0 .143-.005.216-.005 28.031-.103 47.386-20.088 47.386-20.088v-93.336z" fill="#a05838"/></g><g><path d="m208.614 220.734v93.841c94.723 0 94.772-53.4 94.772-53.4v-40.44h-94.772z" fill="#934a2e"/></g><g><path d="m456.951 407.165c-.001-.009-.001-.018-.002-.026-8.256-22.709-16.99-42.685-24.722-51.911-.904-1.078-1.795-2.019-2.668-2.79-6.623-5.848-19.39-11.382-34.352-16.323-16.334-5.394-35.282-10.079-51.714-13.691l-.001.001c-36.236 72.83-165.916 72.83-165.916 72.83-37.77 0-66.143 34.911-57.928 71.776.604 2.713 1.166 4.308 1.166 4.308 38.744 25.691 85.214 40.661 135.186 40.661 83.18 0 156.665-41.461 200.951-104.835z" fill="#7255ce"/></g><g><path d="m177.213 395.266c-37.587.224-65.754 35.019-57.566 71.766.604 2.713 1.166 4.308 1.166 4.308 38.745 25.69 85.215 40.66 135.187 40.66-36.408-21.604-65.128-62.675-78.787-116.734z" fill="#5c45bf"/></g><g><path d="m391.188 471.33c.075-.212 8.769-24.824-4.705-53.619-2.512-5.369 4.447-10.154 8.544-5.871 8.577 8.966 17.032 22.169 20.587 41.004-7.736 6.653-15.895 12.828-24.426 18.486z" fill="#5c45bf"/></g><g><path d="m331.058 159.567s10.385-25.285 28.897-19.415-.448 60.664-36.573 64.116z" fill="#a05838"/></g><g><path d="m180.942 159.567s-10.385-25.285-28.897-19.415.448 60.664 36.573 64.116z" fill="#934a2e"/></g><g><path d="m343.549 143.073-.038-.009-22.281-43.488c-3.422-6.679-10.295-10.88-17.8-10.88h-94.901c-7.505 0-14.378 4.201-17.8 10.88l-22.278 43.483c-.029 1.226-.048 2.456-.048 3.696 0 64.505 39.219 140.155 87.597 140.155s87.597-75.651 87.597-140.155c0-1.235-.019-2.461-.048-3.682z" fill="#b76c4e"/></g><g><path d="m256 286.91c7.744 0 15.251-1.946 22.402-5.467-37.528-18.469-65.203-80.505-65.203-134.688 0-21.789 4.49-41.495 12.281-58.059h-16.951c-7.505 0-14.378 4.201-17.8 10.88l-22.278 43.483c-.029 1.226-.048 2.456-.048 3.696 0 64.504 39.218 140.155 87.597 140.155z" fill="#a05838"/></g><g><path d="m310.999 162.085c.043-3.495-1.371-7.004-4.242-9.539-4.675-4.128-11.84-4.128-16.515 0-2.871 2.535-4.284 6.044-4.242 9.539.055 4.538 5.629 6.716 8.838 3.507 2.022-2.022 5.3-2.022 7.322 0 3.21 3.21 8.784 1.032 8.839-3.507z" fill="#162544"/></g><g><path d="m201.001 162.085c-.043-3.495 1.371-7.004 4.242-9.539 4.675-4.128 11.84-4.128 16.515 0 2.871 2.535 4.284 6.044 4.242 9.539-.055 4.538-5.629 6.716-8.838 3.507-2.022-2.022-5.3-2.022-7.322 0-3.21 3.21-8.784 1.032-8.839-3.507z" fill="#162544"/></g><g><path d="m223.5 138.968h-20c-4.142 0-7.5-3.358-7.5-7.5 0-4.142 3.358-7.5 7.5-7.5h20c4.142 0 7.5 3.358 7.5 7.5 0 4.142-3.358 7.5-7.5 7.5z" fill="#ffb332"/></g><g><path d="m308.5 138.968h-20c-4.142 0-7.5-3.358-7.5-7.5 0-4.142 3.358-7.5 7.5-7.5h20c4.142 0 7.5 3.358 7.5 7.5 0 4.142-3.358 7.5-7.5 7.5z" fill="#ffb332"/></g><g><g><path d="m242.013 192.447 8.436-13.441c2.569-4.093 8.533-4.093 11.102 0l8.436 13.441c2.739 4.365-.398 10.038-5.551 10.038h-16.871c-5.154-.001-8.291-5.674-5.552-10.038z" fill="#934a2e"/></g></g><g><g><path d="m235.384 240.87h41.233c4.111-3.622 7.258-8.309 9.01-13.631 1.584-4.811-2.069-9.754-7.134-9.754h-44.985c-5.065 0-8.718 4.943-7.134 9.754 1.752 5.322 4.899 10.009 9.01 13.631z" fill="#162544"/></g><g><path d="m276.616 240.87c-5.493 4.849-12.714 7.798-20.616 7.798s-15.124-2.948-20.616-7.798c5.5-4.849 12.714-7.798 20.616-7.798s15.116 2.949 20.616 7.798z" fill="#ff4155"/></g></g><g><path d="m256 358.298c-23.415 0-37.67-11.537-45.507-21.215-8.401-10.377-11.305-20.751-11.424-21.188-.729-2.664.839-5.414 3.503-6.143 2.658-.729 5.408.836 6.14 3.494.419 1.496 10.26 35.051 47.288 35.051 37.264 0 47.187-34.691 47.283-35.042.729-2.663 3.479-4.233 6.142-3.503 2.664.729 4.232 3.479 3.503 6.142-.12.437-3.022 10.812-11.423 21.188-7.835 9.679-22.09 21.216-45.505 21.216z" fill="#e9efff"/></g></g></svg>