<svg id="Capa_1" enable-background="new 0 0 512 512" height="512" viewBox="0 0 512 512" width="512" xmlns="http://www.w3.org/2000/svg"><g><path d="m0 256c0-141.305 114.485-255.87 255.76-256 139.274-.128 253.725 112.091 256.199 251.343 1.472 82.827-36.401 156.869-96.171 204.679-1.627 1.301-3.93 1.295-5.592.039-42.887-32.409-96.297-51.63-154.196-51.63-57.915 0-111.338 19.232-154.231 51.657-1.641 1.24-3.914 1.247-5.521-.038-58.668-46.911-96.248-119.092-96.248-200.05z" fill="#ffb52d"/><path d="m455.511 256c0 110.187-89.324 199.511-199.511 199.511s-199.511-89.324-199.511-199.511 89.324-199.511 199.511-199.511 199.511 89.324 199.511 199.511z" fill="#ffc14f"/><path d="m209.333 313.416c-38.66 0-70 31.34-70 70v86.281c0 6.516-7.081 10.555-12.701 7.257-10.735-6.299-20.97-13.358-30.632-21.103v-72.436c0-38.66 31.34-70 70-70h43.333z" fill="#203e76"/><path d="m180.426 315.155v162.044c0 11.735-11.936 19.741-22.769 15.23-10.958-4.563-21.531-9.866-31.656-15.846v-93.167c-.001-33.307 23.261-61.18 54.425-68.261zm165.574-1.739h-14.426v164.501c0 11.359 11.531 19.151 22.031 14.817 22.608-9.331 43.588-21.807 62.394-36.883v-72.436c.001-38.659-31.339-69.999-69.999-69.999z" fill="#274c91"/><path d="m171.322 436.149v61.514c-5.075-1.778-10.077-3.711-15-5.795v-55.72c0-4.142 3.358-7.5 7.5-7.5s7.5 3.359 7.5 7.501zm176.856-7.5c-4.142 0-7.5 3.358-7.5 7.5v61.514c5.075-1.778 10.077-3.711 15-5.795v-55.72c0-4.141-3.357-7.499-7.5-7.499z" fill="#203e76"/><path d="m131.592 105.893c-6.849.774-11.791 6.975-11.017 13.824 1.703 15.068-9.172 28.711-24.239 30.414-4.116.465-7.83-2.495-8.295-6.611s2.494-7.83 6.611-8.295c6.849-.774 11.791-6.975 11.018-13.824-1.702-15.068 9.171-28.711 24.239-30.414 6.849-.774 11.792-6.975 11.018-13.824-.465-4.116 2.494-7.83 6.611-8.295s7.83 2.495 8.295 6.611c1.7 15.068-9.173 28.712-24.241 30.414z" fill="#61362b"/><path d="m423.958 143.521c-.465 4.116-4.178 7.076-8.295 6.611-15.067-1.702-25.941-15.346-24.239-30.414.774-6.849-4.169-13.051-11.017-13.824-15.067-1.702-25.941-15.346-24.239-30.414.465-4.116 4.178-7.076 8.295-6.611s7.076 4.179 6.611 8.295c-.774 6.849 4.168 13.051 11.018 13.824 15.067 1.702 25.941 15.346 24.239 30.414-.774 6.849 4.169 13.05 11.018 13.824 4.115.465 7.074 4.179 6.609 8.295z" fill="#784132"/><path d="m171.322 497.663v-15.928c0-37.485-6.962-74.644-20.531-109.586l-22.675-58.391c-1.018-2.622.916-5.448 3.729-5.448h66.538v189.777c0 3.786-3.575 6.582-7.238 5.625-6.72-1.755-13.331-3.775-19.823-6.049zm142.295-189.353v189.94c0 3.704 3.497 6.437 7.081 5.503 6.773-1.764 13.438-3.798 19.981-6.09v-15.928c0-37.485 6.962-74.644 20.531-109.586l22.675-58.391c1.018-2.622-.916-5.448-3.729-5.448z" fill="#4172cc"/><path d="m321 313.416v190.258c-20.756 5.433-42.54 8.326-65 8.326s-44.244-2.893-65-8.325v-190.083c1.652-.116 3.319-.176 5-.176z" fill="#bacbec"/><path d="m336.099 303.683-76.564 76.564c-1.953 1.953-5.118 1.953-7.071 0l-76.564-76.564c-2.671-2.671-1.529-7.225 2.085-8.321l76.564-23.202c.946-.286 1.955-.286 2.9 0l76.564 23.202c3.616 1.096 4.757 5.65 2.086 8.321z" fill="#fff5f5"/><path d="m382 143.416v56.584h-194.5v-56.584c0-56.439 42.505-102.95 97.25-109.269 54.745 6.319 97.25 52.83 97.25 109.269z" fill="#784132"/><path d="m180 143.416v56.584h-50v-56.584c0-60.751 49.249-110 110-110h32c3.03 0 6.032.123 9 .363-56.542 4.579-101 51.916-101 109.637z" fill="#61362b"/><path d="m171 188.416v10c0 13.807-11.193 25-25 25s-25-11.193-25-25v-10c0-13.807 11.193-25 25-25s25 11.193 25 25z" fill="#ffcdbe"/><path d="m136 183.416v20c0 8.178 3.927 15.439 9.998 20-13.806-.001-24.998-11.194-24.998-25v-10c0-13.806 11.192-24.999 24.998-25-6.071 4.561-9.998 11.822-9.998 20zm230-20v-20c0-60.751-49.249-110-110-110-60.751 0-110 49.249-110 110v40c0 50.351 33.83 92.8 80 105.859v34.141c0 16.569 13.431 30 30 30s30-13.431 30-30v-34.141c33.586-9.499 60.641-34.551 72.895-66.883 2.252.667 4.637 1.024 7.105 1.024 13.807 0 25-11.193 25-25v-10c0-13.807-11.193-25-25-25z" fill="#ffbeaa"/><path d="m366 143.416v40c0 50.792-34.425 93.543-81.216 106.195-9.023 2.44-18.545 2.44-27.568 0-46.791-12.652-81.216-55.403-81.216-106.195v-40c0-55.663 41.345-101.669 95-108.985 53.655 7.316 95 53.322 95 108.985z" fill="#ffcdbe"/><path d="m262 33.416h-6c.27 0 .539.001.808.003-.269-.002-.539-.003-.808-.003s-.539.001-.808.003c.269-.002.539-.003.808-.003h-6c-60.751 0-104 49.249-104 110v46.584c0 60.751 43.249 110 104 110h12c60.751 0 110-49.249 110-110v-46.584c0-60.751-49.249-110-110-110zm-4.422.012c-.139-.002-.278-.004-.417-.005.139.001.278.003.417.005zm-2.739-.005c-.139.001-.278.003-.417.005.139-.002.278-.004.417-.005zm107.161 130.577c0 43.257-25.911 80.461-63.058 96.941 1.328-3.39 2.058-7.08 2.058-10.941v-30c0-16.569-13.431-30-30-30-5.464 0-10.587 1.461-15 4.014-4.413-2.553-9.536-4.014-15-4.014-16.569 0-30 13.431-30 30v30c0 3.861.73 7.551 2.058 10.941-37.147-16.48-63.058-53.684-63.058-96.941v-24.584c0-18.437 4.707-35.774 12.985-50.876 19.843 19.46 47.027 31.46 77.015 31.46h32c29.988 0 57.172-12 77.015-31.46 8.278 15.102 12.985 32.439 12.985 50.876z" fill="#784132"/><path d="m279.644 298.592c-5.744.926-11.638 1.408-17.644 1.408h-12c-60.751 0-110-49.249-110-110v-46.584c0-60.751 49.249-110 110-110h10.296c-36.083 12.486-64.457 38.43-77.111 70.794-7.337-4.434-14.114-9.701-20.2-15.669-8.278 15.101-12.985 32.438-12.985 50.875v24.584c0 39.616 21.733 74.155 53.926 92.348 17.478 19.76 42.016 34.459 70.288 41.176 1.796.426 3.607.782 5.43 1.068z" fill="#61362b"/><path d="m352 30v40h-158.5v-40c0-16.569 13.431-30 30-30h98.5c16.569 0 30 13.431 30 30z" fill="#2e5aac"/><path d="m199 30v40h-39v-40c0-16.569 13.431-30 30-30h39c-16.569 0-30 13.431-30 30z" fill="#274c91"/><path d="m201 80h-115c-5.523 0-10-4.477-10-10 0-5.523 4.477-10 10-10h115c5.523 0 10 4.477 10 10 0 5.523-4.477 10-10 10z" fill="#4172cc"/><path d="m426 80h-230c-5.523 0-10-4.477-10-10s4.477-10 10-10h230c5.523 0 10 4.477 10 10s-4.477 10-10 10z" fill="#6990d7"/><path d="m223.5 150.916c0 8.284-6.716 15-15 15s-15-6.716-15-15 6.716-15 15-15 15 6.716 15 15zm80-15c-8.284 0-15 6.716-15 15s6.716 15 15 15 15-6.716 15-15-6.716-15-15-15z" fill="#203e76"/><path d="m226 143.416c0 4.142-3.358 7.5-7.5 7.5s-7.5-3.358-7.5-7.5 3.358-7.5 7.5-7.5 7.5 3.358 7.5 7.5zm87.5-7.5c-4.142 0-7.5 3.358-7.5 7.5s3.358 7.5 7.5 7.5 7.5-3.358 7.5-7.5-3.358-7.5-7.5-7.5z" fill="#fff5f5"/><path d="m241.5 190.148c-2.929-2.93-2.929-7.678 0-10.607 2.929-2.928 7.678-2.928 10.606 0 1.042 1.042 2.424 1.616 3.893 1.616s2.851-.574 3.893-1.616c2.929-2.928 7.678-2.928 10.606 0 2.929 2.93 2.929 7.678 0 10.607-3.875 3.875-9.024 6.009-14.5 6.009s-10.623-2.134-14.498-6.009z" fill="#faa68e"/><path d="m256 253.416c-16.569 0-30-13.431-30-30 0-4.142 3.358-7.5 7.5-7.5h45c4.142 0 7.5 3.358 7.5 7.5 0 16.569-13.431 30-30 30z" fill="#fff5f5"/><path d="m263.5 252.471c-2.397.617-4.91.945-7.5.945-16.568 0-30-13.431-30-30 0-4.142 3.358-7.5 7.5-7.5h15c-4.142 0-7.5 3.358-7.5 7.5 0 13.979 9.561 25.725 22.5 29.055z" fill="#def4f8"/></g></svg>