<svg id="Capa_1" enable-background="new 0 0 512 512" height="512" viewBox="0 0 512 512" width="512" xmlns="http://www.w3.org/2000/svg"><g><g><path d="m55.049 407.165c-27.755-39.717-44.049-88.035-44.049-140.165 0-135.31 109.69-245 245-245s245 109.69 245 245c0 52.13-16.294 100.448-44.049 140.165z" fill="#7255ce"/></g><g><circle cx="256" cy="242" fill="#5c45bf" r="200"/></g><g><path d="m111.728 259.159c-8.529 0-14.025-8.833-10.485-16.592 11.072-24.268 11.538-57.146 11.556-98.995-.026-1.192-.043-2.386-.043-3.586 0-65.817 39.225-119.173 87.612-119.173v149.705c0 48.956-39.685 88.641-88.64 88.641z" fill="#2e8be6"/></g><g><path d="m400.272 259.159c8.529 0 14.025-8.833 10.485-16.592-11.072-24.268-11.538-57.146-11.556-98.995.026-1.192.043-2.386.043-3.586 0-65.817-39.225-119.173-87.612-119.173v149.705c0 48.956 39.685 88.641 88.64 88.641z" fill="#2e8be6"/></g><g><path d="m363.766 239.575c-3.064-26.489-12-42.277-12-92.357h-191.532c0 50.08-8.936 65.868-12 92.357s8.284 51 29.021 56.787l-2.362-23.036s5.979 41.249 81.106 41.249 81.106-41.249 81.106-41.249l-2.362 23.036c20.739-5.788 32.087-30.298 29.023-56.787z" fill="#4fabf7"/></g><g><path d="m456.949 407.139c-8.256-22.709-16.99-42.685-24.722-51.911-.904-1.078-1.794-2.019-2.668-2.79-6.623-5.848-19.39-11.382-34.352-16.323-37.928-12.525-89.968-21.232-91.82-21.54h-94.772c-1.853.307-53.892 9.014-91.82 21.54-14.961 4.941-27.729 10.475-34.352 16.323-.874.772-1.765 1.712-2.668 2.79-7.732 9.226-16.467 29.203-24.722 51.911-.001.009-.001.018-.002.026 13.309 19.046 29.259 36.108 47.313 50.665h307.276c18.054-14.557 34.004-31.62 47.313-50.665-.003-.008-.003-.017-.004-.026z" fill="#fcad6d"/></g><g><path d="m153.475 325.883c-12.328 2.972-25.156 6.425-36.681 10.231-14.961 4.941-27.729 10.475-34.352 16.323-.874.772-1.765 1.712-2.668 2.79-7.732 9.226-16.467 29.203-24.722 51.911-.001.009-.001.018-.002.026 13.309 19.046 29.259 36.108 47.313 50.665h65.324c-19.958-53.677-17.514-105.522-14.212-131.946z" fill="#fd995b"/></g><g><path d="m391.147 471.33c6.374-4.223 12.555-8.713 18.491-13.499-4.027-11.7-11.689-21.884-21.736-29.06v42.559z" fill="#fd995b"/></g><g><path d="m124.098 471.33v-42.559c-10.047 7.176-17.708 17.36-21.736 29.06 5.936 4.786 12.117 9.277 18.491 13.499z" fill="#ef854b"/></g><g><path d="m276.616 369.362s10.767-11.809 23.703-11.809 55.191 11.809 55.191 11.809z" fill="#fd995b"/></g><g><path d="m235.384 369.362s-10.767-11.809-23.703-11.809-55.191 11.809-55.191 11.809z" fill="#fd995b"/></g><g><path d="m256 512c54.064 0 111.383-74.334 111.383-74.334v-.001c-73.754 14.023-149.012 14.023-222.766.001 0 0 57.319 74.334 111.383 74.334z" fill="#ff9100"/></g><g><path d="m337.869 36.423c-19.783-22.322-47.62-36.423-81.869-36.423s-48.985 5.638-62.772 12-14.708 34.073-14.708 34.073c-17.176 18.715-27.663 43.666-27.663 71.07v30.076h210.286v-30.076c0-23.009-3.49-58.398-23.274-80.72z" fill="#73c3f9"/></g><g><path d="m150.857 117.143v30.076h58.059v-12.854c-20.765-14.593-33.704-59.279-30.396-88.292-17.176 18.714-27.663 43.666-27.663 71.07z" fill="#4fabf7"/></g><g><path d="m293.468 314.575 9.918-20v-73.336h-94.772v73.336l9.918 20z" fill="#fcad6d"/></g><g><path d="m303.386 220.734h-94.772v73.841l9.815 19.791c84.899-3.56 84.957-53.192 84.957-53.192z" fill="#fd995b"/></g><g><path d="m180.942 159.567s-10.385-25.285-28.897-19.415.448 60.664 36.573 64.116z" fill="#fd995b"/></g><g><path d="m331.058 159.567s10.385-25.285 28.897-19.415-.448 60.664-36.573 64.116z" fill="#fcad6d"/></g><g><path d="m255.784 82.484s-19.69 60.442-87.333 60.562c-.029 1.23-.049 2.464-.049 3.708 0 64.505 39.219 140.155 87.597 140.155s87.597-75.651 87.597-140.155c0-1.244-.02-2.478-.049-3.708-67.642-.12-87.763-60.562-87.763-60.562z" fill="#f9ba8f"/></g><g><path d="m208.403 146.754c0-4.214.187-8.339.513-12.39-11.036 5.219-24.395 8.653-40.465 8.682-.029 1.23-.049 2.464-.049 3.708 0 64.505 39.219 140.155 87.597 140.155 6.881 0 13.576-1.535 20-4.346-38.74-16.952-67.596-80.479-67.596-135.809z" fill="#fcad6d"/></g><g><path d="m223.5 138.968h-20c-4.142 0-7.5-3.358-7.5-7.5 0-4.142 3.358-7.5 7.5-7.5h20c4.142 0 7.5 3.358 7.5 7.5 0 4.142-3.358 7.5-7.5 7.5z" fill="#2e8be6"/></g><g><path d="m308.5 138.968h-20c-4.142 0-7.5-3.358-7.5-7.5 0-4.142 3.358-7.5 7.5-7.5h20c4.142 0 7.5 3.358 7.5 7.5 0 4.142-3.358 7.5-7.5 7.5z" fill="#2e8be6"/></g><g><g><path d="m242.013 192.447 8.436-13.441c2.569-4.093 8.533-4.093 11.102 0l8.436 13.441c2.739 4.365-.398 10.038-5.551 10.038h-16.871c-5.154-.001-8.291-5.674-5.552-10.038z" fill="#fd995b"/></g></g><g><g><path d="m235.384 240.87h41.233c4.111-3.622 7.258-8.309 9.01-13.631 1.584-4.811-2.069-9.754-7.134-9.754h-44.985c-5.065 0-8.718 4.943-7.134 9.754 1.752 5.322 4.899 10.009 9.01 13.631z" fill="#162544"/></g><g><path d="m276.616 240.87c-5.493 4.849-12.714 7.798-20.616 7.798s-15.124-2.948-20.616-7.798c5.5-4.849 12.714-7.798 20.616-7.798s15.116 2.949 20.616 7.798z" fill="#ff4155"/></g></g><g><path d="m310.999 162.085c.043-3.495-1.371-7.004-4.242-9.539-4.675-4.128-11.84-4.128-16.515 0-2.871 2.535-4.284 6.044-4.242 9.539.055 4.538 5.629 6.716 8.838 3.507 2.022-2.022 5.3-2.022 7.322 0 3.21 3.21 8.784 1.032 8.839-3.507z" fill="#162544"/></g><g><path d="m201.001 162.085c-.043-3.495 1.371-7.004 4.242-9.539 4.675-4.128 11.84-4.128 16.515 0 2.871 2.535 4.284 6.044 4.242 9.539-.055 4.538-5.629 6.716-8.838 3.507-2.022-2.022-5.3-2.022-7.322 0-3.21 3.21-8.784 1.032-8.839-3.507z" fill="#162544"/></g><g><path d="m123.525 430.01c-5.083 11.116-6.792 23.941-3.878 37.022.604 2.713 1.146 4.246 1.165 4.298v.009c38.749 25.687 85.216 40.661 135.188 40.661-51.383-30.489-87.491-99.723-87.491-189.575-10.183 2.238-21.328 4.887-32.223 7.863-.113 37.786-6.718 74.222-12.761 99.722z" fill="#ffdd40"/></g><g><path d="m388.475 430.01c5.083 11.116 6.792 23.941 3.878 37.022-.604 2.713-1.146 4.246-1.165 4.298v.009c-38.749 25.687-85.216 40.661-135.188 40.661 51.383-30.489 87.491-99.723 87.491-189.575 10.183 2.238 21.328 4.887 32.223 7.863.113 37.786 6.718 74.222 12.761 99.722z" fill="#ffdd40"/></g><g><path d="m256 308.663c-.073 0-.143.005-.216.005-28.149 0-47.17-14.093-47.17-14.093v20s19.021 20.093 47.17 20.093c.073 0 .143-.005.216-.005 28.031-.103 47.386-20.088 47.386-20.088v-20s-19.355 13.985-47.386 14.088z" fill="#3c5082"/></g><g><path d="m256 308.663c-.073 0-.143.005-.216.005-28.149 0-47.17-14.093-47.17-14.093v20c19.593 0 35.125-2.289 47.455-5.913-.023 0-.046.001-.069.001z" fill="#2d3c6b"/></g><g><circle cx="256" cy="340.663" fill="#e9efff" r="17.5"/></g></g></svg>