<svg id="Capa_1" enable-background="new 0 0 512 512" height="512" viewBox="0 0 512 512" width="512" xmlns="http://www.w3.org/2000/svg"><g><path d="m431.246 175.245c0-12.289-1.271-24.281-3.678-35.857l-181.568-10 10 226.052h175.246z" fill="#e50058"/><path d="m84.432 139.389c-2.407 11.575-3.678 23.567-3.678 35.857v180.196h175.246v-226.053z" fill="#ff4a4a"/><path d="m480.133 417.664c0-27.472-17.603-51.853-43.68-60.497l-49.878-16.534-108.707 7.488 10 163.878h192.266v-94.335z" fill="#ece6f2"/><path d="m256 512h31.867v-70.434l-41.867-10z" fill="#198080"/><path d="m246 401.566 10 40h31.867v-30z" fill="#24b3b3"/><path d="m31.867 417.664c0-27.472 17.603-51.853 43.68-60.497l49.878-16.534 108.707 7.488-10 163.878h-192.265z" fill="#fff5f5"/><path d="m256 512h-31.867v-70.434l31.867-10z" fill="#24b3b3"/><path d="m256 401.566v40h-31.867v-30z" fill="#2ee6a8"/><path d="m287.867 348.122-41.867-15.61 10 79.054h31.867z" fill="#198080"/><path d="m224.133 348.122 31.867-15.61v79.054h-31.867z" fill="#24b3b3"/><path d="m386.575 340.634-63.039-20.896h-77.536l10 22.774 76.191 75.513z" fill="#cfcfe6"/><path d="m125.425 340.634 63.039-20.896h67.536v22.774l-76.191 75.513z" fill="#ece6f2"/><path d="m246 129.389 10 213.123c61.586 0 111.511-49.925 111.511-111.511v-55.756c0-12.544-2.071-24.604-5.89-35.857z" fill="#e1bb78"/><path d="m150.379 139.389c-3.819 11.253-5.89 23.313-5.89 35.857v55.756c0 61.586 49.925 111.511 111.511 111.511v-213.124z" fill="#edd7b0"/><path d="m287.843 188.123h31.867v30h-31.867z" fill="#180a33"/><path d="m192.29 188.123h31.867v30h-31.867z" fill="#332866"/><path d="m417.656 107.522-171.656-10 10 41.867h171.568c-2.296-11.042-5.644-21.695-9.912-31.867z" fill="#332866"/><path d="m94.344 107.522c-4.268 10.172-7.616 20.826-9.912 31.867h171.568v-41.867z" fill="#574d8c"/><path d="m400.201 75.654-154.201-10 10 41.867h161.656c-4.727-11.266-10.587-21.94-17.455-31.867z" fill="#180a33"/><path d="m111.799 75.654c-6.868 9.926-12.728 20.601-17.456 31.867h161.657v-41.867z" fill="#332866"/><path d="m256 0-10 37.827 10 37.827h144.201c-31.627-45.706-84.412-75.654-144.201-75.654z" fill="#e50058"/><path d="m256 0c-59.789 0-112.574 29.948-144.201 75.654h144.201z" fill="#ff4a4a"/></g></svg>