<svg id="Capa_1" enable-background="new 0 0 512 512" height="512" viewBox="0 0 512 512" width="512" xmlns="http://www.w3.org/2000/svg"><g><path d="m0 256c0-141.284 114.452-255.837 255.698-256 139.941-.162 254.704 113.108 256.285 253.04.929 82.192-36.881 155.59-96.306 203.07-3.301 2.638-7.953 2.713-11.396.263-41.838-29.78-93.014-47.293-148.281-47.293-55.287 0-106.48 17.526-148.328 47.326-3.415 2.431-8.029 2.356-11.304-.26-58.736-46.909-96.368-119.133-96.368-200.146z" fill="#20b7a1"/><path d="m256 54.809c111.503 0 201.894 90.391 201.894 201.894s-90.391 201.893-201.894 201.893-201.894-90.391-201.894-201.894 90.391-201.893 201.894-201.893z" fill="#24d3b5"/><path d="m354.043 393.383v92.291c0 4.188-2.567 7.965-6.478 9.464-13.353 5.116-27.244 9.146-41.564 11.981-.879.174-33.819-3.864-50-3.864s-49.121 4.038-50 3.864c-14.32-2.835-28.211-6.865-41.564-11.981-3.911-1.499-6.478-5.275-6.478-9.464v-92.292h196.084z" fill="#ff9f22"/><path d="m306 357.412v149.707c-4.95.98-9.952 1.818-15 2.508-.477.065-.822-1.03-1.3-.967-2.456.322-4.922.609-7.4.86-.389.04-.911 1.237-1.3 1.275-3.315.321-6.649.579-10 .773-.894.052-1.629-1.837-2.525-1.795-4.081.193-8.187.291-12.315.291-4.236 0-8.448-.103-12.634-.306-.79-.038-1.738 1.856-2.525 1.81-3.351-.194-6.685-.452-10-.773-.835-.081-1.429-1.344-2.261-1.433-1.832-.196-3.658-.411-5.478-.645-.675-.087-1.588 1.002-2.261.91-5.048-.69-10.05-1.528-15-2.508v-149.707z" fill="#fff68e"/><path d="m241 357.412h30v154.156c-4.963.287-9.965.432-15 .432s-10.037-.146-15-.432zm40 0v153.383c3.353-.325 6.686-.715 10-1.168v-152.215zm-60 152.215c3.314.453 6.647.843 10 1.168v-153.383h-10z" fill="#ffcd71"/><path d="m366 173.416v40c0 50.351-33.83 92.8-80 105.859v64.141h-60v-64.141c-46.17-13.059-80-55.508-80-105.859v-40c0-60.751 49.249-110 110-110 60.751 0 110 49.249 110 110z" fill="#e3a76f"/><path d="m366 173.416v40c0 50.792-34.425 93.543-81.216 106.195-9.023 2.44-18.545 2.44-27.568 0-46.791-12.652-81.216-55.403-81.216-106.195v-40c0-55.663 41.345-101.669 95-108.985 53.655 7.316 95 53.322 95 108.985z" fill="#f2bb88"/><path d="m318.5 180.916c0 8.284-6.716 15-15 15s-15-6.716-15-15 6.716-15 15-15 15 6.716 15 15zm-110-15c-8.284 0-15 6.716-15 15s6.716 15 15 15 15-6.716 15-15-6.716-15-15-15z" fill="#61362b"/><path d="m226 173.416c0 4.142-3.358 7.5-7.5 7.5s-7.5-3.358-7.5-7.5 3.358-7.5 7.5-7.5 7.5 3.358 7.5 7.5zm87.5-7.5c-4.142 0-7.5 3.358-7.5 7.5s3.358 7.5 7.5 7.5 7.5-3.358 7.5-7.5-3.358-7.5-7.5-7.5z" fill="#fff5f5"/><path d="m241.5 220.147c-2.929-2.93-2.929-7.678 0-10.607 2.929-2.928 7.678-2.928 10.606 0 1.042 1.042 2.424 1.616 3.893 1.616s2.851-.574 3.893-1.616c2.929-2.928 7.678-2.928 10.606 0 2.929 2.93 2.929 7.678 0 10.607-3.875 3.875-9.024 6.009-14.5 6.009s-10.623-2.134-14.498-6.009zm44.803 27.601c-2.929-2.928-7.678-2.928-10.606 0-10.861 10.861-28.532 10.861-39.394 0-2.929-2.928-7.678-2.928-10.606 0-2.929 2.93-2.929 7.678 0 10.607 8.354 8.354 19.329 12.531 30.303 12.531s21.949-4.177 30.303-12.531c2.929-2.929 2.929-7.677 0-10.607z" fill="#d6995c"/><path d="m128.238 250h15v60h-15zm240.524 0v60h15v-60z" fill="#b03244"/><path d="m118.954 327.86c-2.919-2.919-3.533-7.428-1.5-11.021l18.284-32.322 18.284 32.322c2.033 3.594 1.419 8.102-1.5 11.021-9.27 9.269-24.299 9.269-33.568 0zm274.092 0c2.919-2.919 3.533-7.428 1.5-11.021l-18.284-32.322-18.284 32.322c-2.033 3.594-1.419 8.102 1.5 11.021 9.27 9.269 24.299 9.269 33.568 0z" fill="#fb5858"/><path d="m145.738 290c0 5.523-4.477 10-10 10s-10-4.477-10-10 4.477-10 10-10 10 4.477 10 10zm230.524-10c-5.523 0-10 4.477-10 10s4.477 10 10 10 10-4.477 10-10-4.477-10-10-10z" fill="#fc7979"/><path d="m390 150v100c0 5.523-4.477 10-10 10-16.568 0-30-13.431-30-30v-65c0-8.284-6.716-15-15-15h-160c-8.284 0-15 6.716-15 15v65c0 16.569-13.431 30-30 30-5.523 0-10-4.477-10-10v-100c0-2.29 16.833-4.565 16.96-6.823 2.188-39.039 23.037-73.093 53.771-93.387 8.672-28.807 24.338-46.194 55.971-46.194l24.298-3.596c14.843 0 28.607 4.62 39.932 12.5 1.17.814-.58 1.618.536 2.5 3.435 2.714 6.609 5.743 9.48 9.044.963 1.107 4.785 2.289 5.678 3.456 2.96 3.869 5.526 8.055 7.638 12.5.353.744-2.613 2.376-2.285 3.133 1.285 2.973 2.37 6.053 3.238 9.223 6.446 4.492 12.431 9.6 17.869 15.239 1.037 1.076 5.361 1.29 6.358 2.404 2.851 3.185 5.534 6.523 8.035 10 .572.795-1.244 2.446-.691 3.255 3.161 4.629 6.007 9.491 8.506 14.555.496 1.005 3.357 1.169 3.826 2.19 2.93 6.385 5.317 13.071 7.1 20 .237.922-1.29 1.782-1.075 2.712.73 3.146 1.336 6.34 1.813 9.576.115.783 1.978 1.635 2.078 2.423.636 5.007.964 10.11.964 15.29z" fill="#fb5858"/><path d="m199.957 343.416h26.043l45 46.014-23.318 23.318-7.32 1.286-10.787 10.787-.675 6.709-12.977 12.977-5.22.365-4.681 4.341-.198 5.393-40.768 40.768c-12.171-4.626-23.897-10.155-35.098-16.503v-65.456c-.001-38.659 31.34-69.999 69.999-69.999z" fill="#c83c50"/><path d="m181.679 346.746 66.003 66.002-18.783 18.783-70.081-70.081c6.532-6.288 14.282-11.319 22.861-14.704z" fill="#fb5858"/><path d="m187.682 472.748-18.783 18.783-34.538-34.538v-37.565z" fill="#962a3a"/><path d="m411.894 415.255 4.106 3.376v37.22c-20.64 16.546-43.899 29.96-69.056 39.523l-3.844-3.844.41-4.446-15.16-15.16-4.033.823-18.142-18.142-1.346-4.353-4.894-4.894-3.858-.852-12.977-12.977-.654-8.41-9.446-9.446-8.682-.925-15.066-15.066c-4.573-4.573-4.614-11.973-.092-16.596l36.84-37.67h47.65l8.967 3.33c5.824 0 11.483.711 16.893 2.052 1.648.408 6.656-2.454 8.256-1.932 6.238 2.039 12.09 4.93 17.418 8.536.697.472.612 1.761 1.291 2.257 2.537 1.853 4.944 3.873 7.206 6.043.584.56 1.931.325 2.495.904 6.091 6.261 11.021 13.658 14.441 21.843.77 1.843-2.643 5.566-2.03 7.485 2.148 6.723 3.307 13.887 3.307 21.321z" fill="#fb5858"/><path d="m283.101 431.531-18.783-18.783 69.332-69.332h12.35c7.599 0 14.915 1.211 21.765 3.45z" fill="#c83c50"/><path d="m343.101 491.531-18.783-18.783 86.299-86.298c3.468 8.3 5.383 17.409 5.383 26.966v5.215z" fill="#b03244"/><path d="m186.803 46.762c.012-.033.023-.066.035-.099 1.411-3.991 5.183-6.662 9.416-6.662h138.008c1.739 3.661 3.171 7.498 4.259 11.475 7.676 5.349 14.698 11.572 20.921 18.525h-170.924c-9.724 0-13.711-12.513-5.766-18.119.136-.096.272-.191.408-.286 1.694-1.186 2.957-2.884 3.643-4.834z" fill="#962a3a"/><path d="m153.118 84.766c.074-.115.149-.229.224-.344 1.817-2.78 4.946-4.422 8.268-4.422h205.869c4.492 6.244 8.399 12.938 11.64 20h-217.607c-7.821 0-12.651-8.673-8.394-15.234z" fill="#c83c50"/><path d="m215.922 444.508-10.098 10.098-63.651-63.651c-1.816-1.816-2.43-4.543-1.482-6.93.76-1.914 1.603-3.787 2.523-5.614 1.09-2.164 3.967-2.646 5.68-.933zm180.254-79.901-90 90-10.098-10.098 89.106-89.105c3.974 2.688 7.657 5.775 10.992 9.203zm-7.105-229.607h-234.335c-4.69 0-8.214-4.297-7.285-8.894.01-.05.02-.1.03-.149.705-3.465 3.75-5.957 7.285-5.957h231.453c1.257 4.886 2.216 9.893 2.852 15zm-165.182-107.5h102.736c-4.419-5.775-9.717-10.841-15.694-15h-82.385c-1.635 0-3.218.547-4.524 1.53-1.364 1.027-2.69 2.102-3.974 3.223-4.063 3.551-1.556 10.247 3.841 10.247z" fill="#fc7979"/><path d="m166 345.043 10.497.021 1.852-1.648h30.983c-9.186 0-17.959 1.77-25.997 4.986-.973.39-3.82-.515-4.771-.083-6.425 2.914-12.332 6.771-17.544 11.393-.796.706.308 2.745-.455 3.486-4.423 4.296-8.281 9.172-11.45 14.504-.53.892-3.2.436-3.691 1.353-1.499 2.798-2.813 5.711-3.925 8.72-.299.809 1.574 2.987 1.304 3.811-2.252 6.869-3.471 14.207-3.471 21.829v70.515c-15.417-7.907-29.928-17.333-43.333-28.079v-37.22l3.638-2.61c0-7.622 1.218-14.96 3.471-21.829.572-1.744-2.428-6.062-1.726-7.742 3.42-8.185 8.35-15.582 14.441-21.843 2.501-2.571 6.818 2.174 9.687.011.956-.721.312-8.543 1.306-9.215 5.329-3.606 11.181-6.497 17.418-8.536 1.314-.429 4.27.827 5.616.475 5.677-1.487 10.008-2.299 16.15-2.299z" fill="#b03244"/><path d="m183.336 348.403c-8.552 3.423-16.271 8.484-22.769 14.796l-16.332-16.332c6.851-2.239 14.167-3.45 21.765-3.45h12.35z" fill="#c83c50"/><path d="m160.064 163.609c-.042.458-.064.922-.064 1.391v65c0 16.569-13.431 30-30 30-5.523 0-10-4.477-10-10v-100c0-5.08.316-10.086.928-15 .106-.853 2.831-1.798 2.955-2.645.481-3.282 1.095-6.52 1.836-9.71.213-.917-2.173-1.736-1.939-2.645 1.783-6.929 4.17-13.615 7.101-20 .346-.754 3.262-1.185 3.623-1.931 2.587-5.341 5.559-10.461 8.879-15.324.557-.816-1.438-1.944-.862-2.745 2.501-3.477 5.184-6.815 8.035-10 1.539-1.719 7.114-3.394 8.748-5.022 5.682-5.659 11.927-10.752 18.645-15.188.724-2.404 1.573-4.753 2.54-7.04.392-.927-3.183-1.844-2.753-2.75 2.111-4.445 4.677-8.631 7.638-12.5.632-.826 5.57-.862 6.238-1.659 3.342-3.988 7.12-7.597 11.26-10.756.814-.621-2.646-2-1.805-2.585 11.326-7.88 25.09-12.5 39.933-12.5h30c1.691 0 3.368.061 5.03.179-12.916.918-24.864 5.34-34.897 12.321-1.09.759-6.876.917-7.92 1.734-3.774 2.956-7.236 6.292-10.33 9.949-.742.877 3.255 2.403 2.556 3.317-2.96 3.869-5.526 8.056-7.638 12.5-.496 1.044-12.087 1.282-12.532 2.354-.894 2.153-1.684 4.36-2.362 6.615-7.385 4.876-14.199 10.547-20.32 16.89-1.049 1.087 9.042 3.015 8.034 4.141-12.597 14.075-21.921 31.14-26.776 50-.212.825-3.969 1.697-4.164 2.528-.766 3.265-1.399 6.582-1.892 9.944-.125.854 3.311 1.668 3.204 2.528-.613 4.914-.928 9.92-.928 15v13.609z" fill="#c83c50"/><path d="m139.333 424.399v37.565l-43.333-43.333v-5.215c0-9.557 1.916-18.667 5.383-26.966zm78.468-384.399c-1.492 3.142-2.758 6.412-3.775 9.79-8.65 5.712-16.517 12.514-23.406 20.21h-40.064c6.888-7.696 14.755-14.498 23.406-20.21 1.017-3.378 2.282-6.648 3.775-9.79z" fill="#842939"/><path d="m149.117 377.703c-2.583 4.347-4.71 8.997-6.312 13.884l-26.98-26.98c.833-.856 1.688-1.691 2.563-2.504 2.63-2.441 5.447-4.683 8.429-6.7l22.077 22.077zm-25.336-257.703h40.064c-1.258 4.886-2.215 9.893-2.852 15h-40.064c.637-5.107 1.595-10.114 2.852-15zm77.287-107.5c-5.977 4.158-11.274 9.225-15.693 15h40.064c4.419-5.775 9.717-10.841 15.694-15z" fill="#fb5858"/><path d="m182.586 80c-4.492 6.244-8.398 12.938-11.64 20h-40.064c3.241-7.062 7.148-13.756 11.64-20z" fill="#b03244"/></g></svg>