<svg id="Capa_1" enable-background="new 0 0 512 512" height="512" viewBox="0 0 512 512" width="512" xmlns="http://www.w3.org/2000/svg"><g><path d="m0 256c0-141.291 114.463-255.848 255.718-256 139.724-.15 254.385 112.776 256.258 252.487 1.104 82.359-36.689 155.934-96.175 203.524-2.791 2.233-6.73 2.316-9.622.218-42.185-30.607-94.074-48.655-150.179-48.655-56.212 0-108.193 18.117-150.421 48.832-2.747 1.998-6.49 1.912-9.145-.206-58.774-46.908-96.434-119.156-96.434-200.2z" fill="#44bfd7"/><path d="m457 256c0 111.009-89.991 201-201 201s-201-89.991-201-201 89.991-201 201-201 201 89.991 201 201z" fill="#7cd2e3"/><path d="m387 144.256v53.978c0 6.498-5.268 11.766-11.766 11.766h-187.468c-6.498 0-11.766-5.268-11.766-11.766v-53.978c0-61.486 46.023-112.222 105.5-119.639 59.477 7.417 105.5 58.153 105.5 119.639z" fill="#784132"/><path d="m187.766 210h-51c-6.498 0-11.766-5.268-11.766-11.766v-53.978c0-66.591 53.982-120.573 120.573-120.573h20.854c5.105 0 10.135.318 15.073.934-59.477 7.417-105.5 58.153-105.5 119.639v53.978c0 6.498 5.268 11.766 11.766 11.766z" fill="#61362b"/><path d="m171 195.267v10c0 13.807-11.193 25-25 25s-25-11.193-25-25v-10c0-13.807 11.193-25 25-25s25 11.193 25 25z" fill="#f2bb88"/><path d="m391 195.267v10c0 13.807-11.193 25-25 25-2.468 0-4.853-.358-7.105-1.024-12.254 32.332-39.309 57.384-72.895 66.883v23.874c-11.716 11.716-18.284 18.284-30 30-11.716-11.716-18.284-18.284-30-30v-23.874c-46.17-13.059-80-55.508-80-105.859v-40c0-60.751 49.249-110 110-110 60.751 0 110 49.249 110 110v20c13.807 0 25 11.193 25 25zm-245.002-25c-13.806.001-24.998 11.194-24.998 25v10c0 13.806 11.192 24.999 24.998 25-6.071-4.561-9.998-11.822-9.998-20v-20c0-8.178 3.927-15.439 9.998-20z" fill="#e3a76f"/><path d="m366 150.267v40c0 50.792-34.425 93.543-81.216 106.195-9.023 2.44-18.545 2.44-27.568 0-46.791-12.652-81.216-55.403-81.216-106.195v-40c0-55.663 41.345-101.669 95-108.985 53.655 7.315 95 53.322 95 108.985z" fill="#f2bb88"/><path d="m241.5 196.998c-2.929-2.93-2.929-7.678 0-10.607 2.929-2.928 7.678-2.928 10.606 0 1.042 1.042 2.424 1.616 3.893 1.616s2.851-.574 3.893-1.616c2.929-2.928 7.678-2.928 10.606 0 2.929 2.93 2.929 7.678 0 10.607-3.875 3.875-9.024 6.009-14.5 6.009s-10.623-2.134-14.498-6.009z" fill="#e3a76f"/><path d="m256 260.267c-16.569 0-30-13.431-30-30 0-4.142 3.358-7.5 7.5-7.5h45c4.142 0 7.5 3.358 7.5 7.5 0 16.568-13.431 30-30 30z" fill="#fff5f5"/><path d="m263.5 259.322c-2.397.617-4.91.945-7.5.945-16.568 0-30-13.431-30-30 0-4.142 3.358-7.5 7.5-7.5h15c-4.142 0-7.5 3.358-7.5 7.5 0 13.979 9.561 25.724 22.5 29.055z" fill="#def4f8"/><path d="m233.653 158.544c1.877 3.692.406 8.208-3.285 10.085-3.693 1.878-8.207.406-10.085-3.285-3.125-6.143-10.664-8.6-16.808-5.477-3.692 1.877-8.207.405-10.085-3.287-1.877-3.692-.406-8.207 3.286-10.084 6.758-3.436 14.284-3.803 20.98-1.621 6.695 2.181 12.56 6.911 15.997 13.669zm81.671-12.048c-6.758-3.436-14.284-3.803-20.98-1.621s-12.561 6.912-15.998 13.67c-1.877 3.692-.406 8.208 3.285 10.085 3.693 1.878 8.207.406 10.085-3.285 3.125-6.143 10.664-8.6 16.808-5.477 3.692 1.877 8.207.405 10.085-3.287 1.879-3.693.407-8.208-3.285-10.085z" fill="#a65d4e"/><path d="m386.295 131.146h-69.36c-23.734 0-45.247-9.511-60.935-24.93-15.688 15.419-37.201 24.93-60.935 24.93h-18.182c-29.511 0-46.43-33.413-29.166-57.347 16.225-22.495 40.016-39.171 67.644-46.299h81.277c47.87 12.351 84.221 53.364 89.657 103.646z" fill="#784132"/><path d="m267.361 27.5c-47.87 12.351-84.22 53.364-89.657 103.646h-52c5.437-50.283 41.787-91.295 89.657-103.646z" fill="#61362b"/><path d="m166 331.416h43.333c-38.66 0-70 31.34-70 70v67.875c0 6.696-7.282 10.855-13.052 7.458-10.607-6.247-20.725-13.236-30.281-20.897v-54.436c0-38.66 31.34-70 70-70z" fill="#c83c50"/><path d="m416 401.416v54.436c-43.827 35.133-99.459 56.148-160 56.148-47.457 0-91.897-12.913-130-35.417v-75.167c0-38.66 31.34-70 70-70h4v-6.416c0-8.284 6.716-15 15-15h30c8.284 0 15 6.716 15 15v6.416h6.362v-6.416c0-8.284 6.716-15 15-15h13.638c8.284 0 15 6.716 15 15v6.416h36c38.66 0 70 31.34 70 70z" fill="#fb5858"/><path d="m143.059 366.783c-11.046 0-20 8.954-20 20s8.954 20 20 20 20-8.954 20-20-8.955-20-20-20zm0 30c-3.603 0-6.761-1.906-8.521-4.765 2.765-.09 4.979-2.359 4.979-5.146 0-2.822-2.271-5.114-5.084-5.148 1.737-2.956 4.95-4.941 8.627-4.941s6.89 1.985 8.627 4.941c-2.814.035-5.084 2.326-5.084 5.148 0 2.787 2.214 5.056 4.979 5.146-1.762 2.859-4.92 4.765-8.523 4.765zm71.202-30c-11.046 0-20 8.954-20 20s8.954 20 20 20 20-8.954 20-20-8.955-20-20-20zm0 30c-3.603 0-6.761-1.906-8.521-4.765 2.765-.09 4.979-2.359 4.979-5.146 0-2.822-2.271-5.114-5.084-5.148 1.737-2.956 4.95-4.941 8.627-4.941s6.89 1.985 8.627 4.941c-2.814.035-5.084 2.326-5.084 5.148 0 2.787 2.214 5.056 4.979 5.146-1.762 2.859-4.92 4.765-8.523 4.765zm-26.779 23.873c-11.046 0-20 8.954-20 20s8.954 20 20 20 20-8.954 20-20-8.954-20-20-20zm0 30c-3.603 0-6.761-1.906-8.521-4.765 2.765-.09 4.979-2.359 4.979-5.146 0-2.822-2.271-5.114-5.084-5.148 1.737-2.956 4.95-4.941 8.627-4.941s6.89 1.985 8.627 4.941c-2.814.035-5.084 2.326-5.084 5.148 0 2.787 2.214 5.056 4.979 5.146-1.762 2.859-4.92 4.765-8.523 4.765zm115.231-83.873c-11.046 0-20 8.954-20 20s8.954 20 20 20 20-8.954 20-20-8.955-20-20-20zm0 30c-3.603 0-6.761-1.906-8.521-4.765 2.765-.09 4.979-2.359 4.979-5.146 0-2.822-2.271-5.114-5.084-5.148 1.737-2.956 4.95-4.941 8.627-4.941s6.89 1.985 8.627 4.941c-2.814.035-5.084 2.326-5.084 5.148 0 2.787 2.214 5.056 4.979 5.146-1.762 2.859-4.92 4.765-8.523 4.765zm71.202-30c-11.046 0-20 8.954-20 20s8.954 20 20 20 20-8.954 20-20-8.955-20-20-20zm0 30c-3.603 0-6.761-1.906-8.521-4.765 2.765-.09 4.979-2.359 4.979-5.146 0-2.822-2.271-5.114-5.084-5.148 1.737-2.956 4.95-4.941 8.627-4.941s6.89 1.985 8.627 4.941c-2.814.035-5.084 2.326-5.084 5.148 0 2.787 2.214 5.056 4.979 5.146-1.762 2.859-4.92 4.765-8.523 4.765zm-29.356 23.873c-11.046 0-20 8.954-20 20s8.954 20 20 20 20-8.954 20-20-8.954-20-20-20zm0 30c-3.603 0-6.761-1.906-8.521-4.765 2.765-.09 4.979-2.359 4.979-5.146 0-2.822-2.271-5.114-5.084-5.148 1.737-2.956 4.95-4.941 8.627-4.941s6.89 1.985 8.627 4.941c-2.814.035-5.084 2.326-5.084 5.148 0 2.787 2.214 5.056 4.979 5.146-1.762 2.859-4.92 4.765-8.523 4.765z" fill="#fc7979"/><path d="m171.322 436.149v61.514c-5.075-1.778-10.077-3.711-15-5.795v-55.72c0-4.142 3.358-7.5 7.5-7.5s7.5 3.359 7.5 7.501zm176.856-7.5c-4.142 0-7.5 3.358-7.5 7.5v61.514c5.075-1.778 10.077-3.711 15-5.795v-55.72c0-4.141-3.357-7.499-7.5-7.499z" fill="#c83c50"/><path d="m285 310c-8.284 0-15 6.716-15 15v186.624c-4.635.25-9.303.376-14 .376-2.005 0-4.006-.023-6-.069v-186.931c0-8.284 6.716-15 15-15z" fill="#fc7979"/><path d="m199.564 355c0-8.284 6.716-15 15-15 5.552 0 10.399 3.017 12.993 7.5h56.886c2.594-4.483 7.441-7.5 12.993-7.5 8.284 0 15 6.716 15 15s-6.716 15-15 15c-5.552 0-10.399-3.017-12.993-7.5h-56.886c-2.594 4.483-7.441 7.5-12.993 7.5-8.284 0-15-6.716-15-15zm97.872 46.578c-5.552 0-10.399 3.017-12.993 7.5h-56.886c-2.594-4.483-7.441-7.5-12.993-7.5-8.284 0-15 6.716-15 15s6.716 15 15 15c5.552 0 10.399-3.017 12.993-7.5h56.886c2.594 4.483 7.441 7.5 12.993 7.5 8.284 0 15-6.716 15-15s-6.716-15-15-15zm0 61.578c-5.552 0-10.399 3.016-12.993 7.5h-56.886c-2.594-4.484-7.441-7.5-12.993-7.5-8.284 0-15 6.716-15 15s6.716 15 15 15c5.552 0 10.399-3.017 12.993-7.5h56.886c2.594 4.483 7.441 7.5 12.993 7.5 8.284 0 15-6.716 15-15s-6.716-15-15-15z" fill="#b03244"/><path d="m372 90h-232c0-49.706 40.294-90 90-90h52c49.706 0 90 40.294 90 90z" fill="#c83c50"/><path d="m190 90h-50c0-49.706 40.294-90 90-90h17.581c-27.092 0-57.581 48.982-57.581 90z" fill="#b03244"/><path d="m302 90h-92c0-49.706 15.979-90 35.69-90h20.621c19.71 0 35.689 40.294 35.689 90z" fill="#fb5858"/><path d="m185 87.5c0 4.142-3.358 7.5-7.5 7.5h-50c-4.142 0-7.5-3.358-7.5-7.5s3.358-7.5 7.5-7.5h50c4.142 0 7.5 3.358 7.5 7.5z" fill="#fb5858"/><path d="m392 87.5c0 4.142-3.358 7.5-7.5 7.5h-211c-4.142 0-7.5-3.358-7.5-7.5s3.358-7.5 7.5-7.5h211c4.142 0 7.5 3.358 7.5 7.5z" fill="#fc7979"/></g></svg>