<svg id="Capa_1" enable-background="new 0 0 512 512" height="512" viewBox="0 0 512 512" width="512" xmlns="http://www.w3.org/2000/svg"><g><g><path d="m55.031 407.139c-27.744-39.712-44.031-88.02-44.031-140.139 0-135.31 109.69-245 245-245s245 109.69 245 245c0 52.119-16.287 100.427-44.031 140.139z" fill="#49d88b"/></g><g><circle cx="256" cy="242" fill="#38c674" r="200"/></g><g><g><path d="m456.949 407.139c-8.256-22.709-16.99-42.685-24.722-51.911-.904-1.078-1.795-2.019-2.668-2.79-6.623-5.848-19.39-11.382-34.352-16.323-37.929-12.525-89.967-21.232-91.82-21.54h-45.541v143.256h151.772c18.06-14.558 34.021-31.615 47.333-50.665-.001-.009-.001-.018-.002-.027z" fill="#fcad6d"/></g><g><path d="m208.614 314.575c-1.853.307-53.892 9.014-91.82 21.54-14.961 4.941-27.729 10.475-34.352 16.323-.874.772-1.765 1.712-2.668 2.79-7.732 9.226-16.467 29.203-24.722 51.911-.001.009-.001.018-.002.026 13.312 19.05 29.274 36.107 47.333 50.665h155.463v-143.255z" fill="#fd995b"/></g></g><g><path d="m391.147 471.33c6.374-4.223 12.555-8.713 18.491-13.499-4.027-11.7-11.689-21.884-21.736-29.06v42.559z" fill="#fd995b"/></g><g><path d="m124.098 471.33v-42.559c-10.047 7.176-17.708 17.36-21.736 29.06 5.936 4.786 12.117 9.277 18.491 13.499z" fill="#ef854b"/></g><g><path d="m379.202 415.644.017-.006c-.05-.05-.099-.098-.149-.148-1.882-2.145-3.921-4.152-6.097-6.012-35.607-34.723-69.588-61.613-69.588-94.903h-94.772c0 33.29-33.981 60.18-69.588 94.903-2.176 1.86-4.215 3.867-6.097 6.012-.05.05-.099.098-.149.148l.017.006c-11.756 13.487-17.434 32.166-13.151 51.388.604 2.713 1.146 4.246 1.165 4.298v.009c38.75 25.687 85.218 40.661 135.19 40.661 49.971 0 96.439-14.974 135.187-40.661l.001-.009c.019-.052.56-1.586 1.165-4.298 4.283-19.222-1.395-37.901-13.151-51.388z" fill="#213159"/></g><g><path d="m140.547 226.163c3.282-28.378 10.31-25.293 10.31-78.944v-30.076c0-23.009 3.49-58.398 23.273-80.72 19.785-22.322 47.621-36.423 81.87-36.423s48.985 5.638 62.772 12 14.708 34.073 14.708 34.073c17.176 18.715 27.663 43.666 27.663 71.07v30.076c0 53.652 7.028 50.566 10.31 78.944s-8.875 54.637-31.091 60.837l2.53-24.679s-6.405 44.191-86.892 44.191-86.892-44.191-86.892-44.191l2.53 24.679c-22.215-6.2-34.373-32.459-31.091-60.837z" fill="#ff596e"/></g><g><path d="m217.006 6.792c-16.848 6.247-31.253 16.517-42.875 29.631-19.784 22.322-23.273 57.711-23.273 80.72v30.076c0 53.652-7.028 50.566-10.31 78.944s8.875 54.637 31.091 60.837l-2.53-24.679s3.747 25.829 41.478 37.994v-125.832c-27.181-37.794-36.456-138.06 6.419-167.691z" fill="#ff4155"/></g><g><path d="m376.363 400.049c-12.574-62.943-53.75-134.554-120.363-134.554s-107.789 71.611-120.363 134.554c-2.232 11.171 4.616 22.15 15.628 25.069l1.946.516c6.666 1.767 12.085 6.615 14.579 13.045l25.27 65.146c13.835 3.667 28.147 6.161 42.827 7.358v-.001l20.113-23.331 20.114 23.33v.001c14.679-1.197 28.992-3.691 42.827-7.358l25.27-65.146c2.494-6.43 7.913-11.278 14.579-13.045l1.946-.516c11.011-2.918 17.859-13.897 15.627-25.068z" fill="#3c5082"/></g><g><path d="m303.386 314.575h-94.772l27.272 196.606c6.634.539 13.341.819 20.114.819s13.48-.28 20.114-.819z" fill="#e9efff"/></g><g><path d="m276.114 511.181 4.111-29.633c-26.458-6.208-53.849-38.937-60.138-84.271l15.8 113.904c6.633.539 13.34.819 20.113.819s13.48-.28 20.114-.819z" fill="#dae2fe"/></g><g><path d="m208.614 221.239v93.336s19.021 20.093 47.17 20.093c.073 0 .143-.005.216-.005 28.031-.103 47.386-20.088 47.386-20.088v-93.336z" fill="#fcad6d"/></g><g><path d="m208.614 220.734v93.841c94.723 0 94.772-53.4 94.772-53.4v-40.44h-94.772z" fill="#fd995b"/></g><g><path d="m331.058 160.072s10.385-25.285 28.897-19.415-.448 60.664-36.573 64.116z" fill="#fcad6d"/></g><g><path d="m316 92.356c6.171 33.533 27.477 51.149 27.549 51.209.029 1.226.048 2.456.048 3.695 0 64.505-39.219 140.155-87.597 140.155-39.611 0-73.076-50.717-83.906-104.506 92.184-9.194 143.906-90.553 143.906-90.553z" fill="#f9ba8f"/></g><g><path d="m276 283.069c-32.483-14.215-58.012-61.172-65.414-108.586-11.909 4.071-24.747 7.055-38.492 8.426 10.83 53.789 44.295 104.506 83.906 104.506 6.881 0 13.576-1.535 20-4.346z" fill="#fcad6d"/></g><g><path d="m308.5 138.968h-20c-4.142 0-7.5-3.358-7.5-7.5 0-4.142 3.358-7.5 7.5-7.5h20c4.142 0 7.5 3.358 7.5 7.5 0 4.142-3.358 7.5-7.5 7.5z" fill="#e80054"/></g><g><g><path d="m242.013 192.447 8.436-13.441c2.569-4.093 8.533-4.093 11.102 0l8.436 13.441c2.739 4.365-.398 10.038-5.551 10.038h-16.871c-5.154-.001-8.291-5.674-5.552-10.038z" fill="#fd995b"/></g></g><g><g><path d="m235.384 240.87h41.233c4.111-3.622 7.258-8.309 9.01-13.631 1.584-4.811-2.069-9.754-7.134-9.754h-44.985c-5.065 0-8.718 4.943-7.134 9.754 1.752 5.322 4.899 10.009 9.01 13.631z" fill="#162544"/></g><g><path d="m276.616 240.87c-5.493 4.849-12.714 7.798-20.616 7.798s-15.124-2.948-20.616-7.798c5.5-4.849 12.714-7.798 20.616-7.798s15.116 2.949 20.616 7.798z" fill="#ff4155"/></g></g><g><path d="m311.557 158.721c-.863-3.387-3.137-6.41-6.566-8.116-5.584-2.778-12.505-.923-15.952 4.274-2.117 3.192-2.574 6.947-1.628 10.312 1.228 4.369 7.176 5.031 9.445 1.1 1.43-2.476 4.596-3.325 7.072-1.895 3.93 2.269 8.75-1.277 7.629-5.675z" fill="#162544"/></g></g></svg>