<svg id="Capa_1" enable-background="new 0 0 512 512" height="512" viewBox="0 0 512 512" width="512" xmlns="http://www.w3.org/2000/svg"><g><path d="m480.133 387.664c0-27.472-17.603-51.853-43.68-60.497l-6.159-2.042h-184.294l10 186.875h224.133z" fill="#c78f2c"/><path d="m81.706 325.126-6.159 2.042c-26.077 8.644-43.68 33.025-43.68 60.497v124.335h224.133v-186.874z" fill="#e1bb78"/><path d="m256 0-10 154.389 10 327.611c96.785 0 175.245-78.46 175.245-175.245v-131.51c.001-96.785-78.459-175.245-175.245-175.245z" fill="#e1bb78"/><path d="m256 0c-96.785 0-175.246 78.46-175.246 175.245v131.509c0 96.786 78.461 175.246 175.246 175.246z" fill="#edd7b0"/><path d="m246 231.001 10 175.245c61.586 0 111.511-49.925 111.511-111.511v-63.734z" fill="#5b362a"/><path d="m144.489 231.001v63.734c0 61.586 49.925 111.511 111.511 111.511v-175.245z" fill="#895140"/><path d="m365.555 154.389-119.555-10 10 198.124c61.586 0 111.511-49.925 111.511-111.511v-55.756c0-7.13-.677-14.1-1.956-20.857z" fill="#895140"/><path d="m146.445 154.389c-1.279 6.757-1.956 13.728-1.956 20.857v55.756c0 61.586 49.925 111.511 111.511 111.511v-198.124z" fill="#b56d3c"/><path d="m256 154.389h109.555c-2.007-10.607-5.51-20.685-10.292-30l-109.264-10z" fill="#ece6f2"/><path d="m256 114.389-99.264 10c-4.782 9.315-8.284 19.393-10.292 30h109.556z" fill="#fff5f5"/><path d="m355.264 124.389c-18.488-36.014-55.998-60.655-99.264-60.655l-10 30.327 10 30.327h99.264z" fill="#cfcfe6"/><path d="m256 63.734c-43.266 0-80.775 24.641-99.264 60.654h99.264z" fill="#ece6f2"/><path d="m287.843 188.123h31.867v30h-31.867z" fill="#180a33"/><path d="m192.29 188.123h31.867v30h-31.867z" fill="#332866"/></g></svg>