<svg height="512pt" viewBox="0 0 512 512" width="512pt" xmlns="http://www.w3.org/2000/svg"><path d="m512 256c0 141.386719-114.613281 256-256 256s-256-114.613281-256-256 114.613281-256 256-256 256 114.613281 256 256zm0 0" fill="#42b7a1"/><path d="m398.410156 468.761719c-12.339844 8.277343-25.441406 15.519531-39.179687 21.566406-10.652344 4.703125-21.679688 8.703125-33.03125 11.921875-22.300781 6.351562-45.847657 9.75-70.199219 9.75-24.339844 0-47.890625-3.398438-70.199219-9.738281-7.242187-2.0625-14.359375-4.441407-21.332031-7.121094-.429688-.160156-.859375-.320313-1.289062-.492187-3.507813-1.359376-6.980469-2.808594-10.410157-4.320313-13.738281-6.058594-26.839843-13.289063-39.191406-21.578125 10.390625-14.371094 23.761719-26.429688 39.191406-35.320312 10.199219-5.871094 21.300781-10.339844 33.03125-13.148438 1.808594-.441406 3.640625-.839844 5.480469-1.191406 3.46875-.679688 7-1.199219 10.570312-1.570313 1.027344-.109375 2.046876-.210937 3.089844-.289062 3.378906-.28125 6.796875-.421875 10.257813-.421875h81.589843c4.519532 0 8.972657.242187 13.351563.703125 3.570313.367187 7.089844.898437 10.570313 1.558593 1.390624.269532 2.769531.558594 4.140624.871094.449219.117188.910157.207032 1.347657.328125 11.742187 2.820313 22.832031 7.289063 33.03125 13.160157 15.429687 8.898437 28.789062 20.960937 39.179687 35.332031zm0 0" fill="#ffbb16"/><g fill="#ff931f"><path d="m215.199219 416.808594c-29.359375 0-49.257813 42.429687-50.730469 78.332031-.429688-.160156-.859375-.320313-1.289062-.492187-3.507813-1.359376-6.980469-2.808594-10.410157-4.320313-13.738281-6.058594-26.839843-13.289063-39.191406-21.578125 10.390625-14.371094 23.761719-26.429688 39.191406-35.320312 10.199219-5.871094 21.300781-10.339844 33.03125-13.148438 1.808594-.441406 3.640625-.839844 5.480469-1.191406 3.46875-.679688 7-1.199219 10.570312-1.570313 1.027344-.109375 2.046876-.210937 3.089844-.289062 3.378906-.28125 6.796875-.421875 10.257813-.421875zm0 0"/><path d="m255.988281 468.109375-52.996093 29.453125-16.121094-79.988281 32.929687-14.390625"/><path d="m255.988281 468.109375 52.992188 29.453125 16.121093-79.988281-32.925781-14.390625"/></g><path d="m204.941406 417.230469c-1.042968.078125-2.0625.179687-3.089844.289062-3.570312.371094-7.101562.890625-10.570312 1.570313v4.320312c0 1.246094.042969 2.480469.113281 3.707032 6.902344-6.417969 14.921875-10.308594 23.804688-10.308594-3.460938 0-6.878907.140625-10.257813.421875zm0 0" fill="#efb29a"/><path d="m300.707031 368.539062v54.867188c0 20.089844-13.246093 37.066406-31.488281 42.707031-4.179688 1.296875-8.628906 1.996094-13.230469 1.996094-24.691406 0-44.703125-20.011719-44.703125-44.703125v-54.867188zm0 0" fill="#efb29a"/><path d="m300.707031 419.933594v3.472656c0 20.089844-13.246093 37.066406-31.488281 42.707031-16.460938-5.058593-28.839844-19.371093-31.125-36.882812 2.988281.183593 5.992188.273437 9.007812.273437 8.460938 0 16.75-.671875 24.828126-1.996094 9.953124-1.601562 19.570312-4.160156 28.777343-7.574218zm0 0" fill="#f9c5ac"/><path d="m132.539062 278.152344c0 20.496094-14.972656 37.492187-34.578124 40.648437-2.144532.34375-4.347657.527344-6.597657.527344-22.746093 0-41.171875-18.429687-41.171875-41.175781s18.425782-41.175782 41.171875-41.175782c2.25 0 4.453125.179688 6.597657.527344 19.605468 3.15625 34.578124 20.152344 34.578124 40.648438zm0 0" fill="#f9c5ac"/><path d="m132.539062 278.152344c0 20.496094-14.972656 37.492187-34.578124 40.648437-3.5625-12.953125-5.464844-26.582031-5.464844-40.648437s1.902344-27.695313 5.464844-40.644532c19.605468 3.152344 34.578124 20.148438 34.578124 40.644532zm0 0" fill="#efb29a"/><path d="m106.082031 278.152344c0 8.128906-6.589843 14.714844-14.71875 14.714844-8.125 0-14.714843-6.585938-14.714843-14.714844 0-8.125 6.589843-14.714844 14.714843-14.714844 8.128907 0 14.71875 6.589844 14.71875 14.714844zm0 0" fill="#efb29a"/><path d="m379.449219 278.152344c0 20.496094 14.972656 37.492187 34.578125 40.648437 2.144531.34375 4.347656.527344 6.597656.527344 22.746094 0 41.175781-18.429687 41.175781-41.175781s-18.429687-41.175782-41.175781-41.175782c-2.25 0-4.453125.179688-6.597656.527344-19.605469 3.15625-34.578125 20.152344-34.578125 40.648438zm0 0" fill="#f9c5ac"/><path d="m379.449219 278.152344c0 20.496094 14.972656 37.492187 34.578125 40.648437 3.5625-12.953125 5.464844-26.582031 5.464844-40.648437s-1.902344-27.695313-5.464844-40.644532c-19.605469 3.152344-34.578125 20.148438-34.578125 40.644532zm0 0" fill="#efb29a"/><path d="m435.339844 278.152344c0 8.128906-6.589844 14.714844-14.714844 14.714844-8.128906 0-14.71875-6.585938-14.71875-14.714844 0-8.125 6.589844-14.714844 14.71875-14.714844 8.125 0 14.714844 6.589844 14.714844 14.714844zm0 0" fill="#efb29a"/><path d="m410.695312 256.511719c0 76.984375-56.242187 140.847656-129.871093 152.703125-8.078125 1.328125-16.371094 2-24.828125 2-85.445313 0-154.703125-69.257813-154.703125-154.703125v-117.644531h309.402343zm0 0" fill="#f9c5ac"/><path d="m283.242188 408.808594c-.800782.140625-1.609376.28125-2.417969.410156-8.082031 1.320312-16.371094 1.992188-24.832031 1.992188-85.4375 0-154.699219-69.25-154.699219-154.699219v-117.644531h54.550781v117.644531c0 76.136719 54.980469 139.410156 127.398438 152.296875zm0 0" fill="#efb29a"/><path d="m410.699219 245.28125v102.679688c0 30.980468-20.121094 58.359374-49.679688 67.617187l-90.507812 28.34375c-9.453125 2.957031-19.582031 2.957031-29.03125 0l-90.511719-28.34375c-29.558594-9.257813-49.679688-36.636719-49.679688-67.617187v-102.679688c15.992188 0 29.480469 11.730469 31.890626 27.527344 4.949218 32.339844 18.199218 53.179687 30.421874 61.792968 10.507813 7.410157 20.25 5.777344 23.277344-5.351562 7.480469-27.441406 30.429688-30.429688 69.109375-30.429688 38.691407 0 61.640625 2.988282 69.121094 30.429688 6.5625 24.070312 44.5 3.71875 53.699219-56.441406 1.210937-7.898438 5.179687-14.777344 10.851562-19.6875 5.679688-4.910156 13.039063-7.839844 21.039063-7.839844zm0 0" fill="#2f373b"/><path d="m304.769531 339.671875v18.398437c0 10.25-8.308593 18.558594-18.570312 18.558594h-11.359375v-2.910156c0-6.347656-5.148438-11.5-11.5-11.5h-14.25c-6.351563 0-11.5 5.152344-11.5 11.5v2.910156h-11.359375c-10.25 0-18.558594-8.308594-18.558594-18.558594v-18.398437c0-10.261719 8.308594-18.570313 18.558594-18.570313h59.96875c10.261719 0 18.570312 8.308594 18.570312 18.570313zm0 0" fill="#f9c5ac"/><path d="m255.996094 353.6875c-12.957032 0-25.910156-3.246094-37.71875-9.738281-3.328125-1.828125-4.542969-6.011719-2.714844-9.34375 1.832031-3.332031 6.015625-4.546875 9.347656-2.714844 19.464844 10.699219 42.707032 10.699219 62.167969 0 3.332031-1.832031 7.515625-.617187 9.347656 2.714844s.617188 7.515625-2.714843 9.34375c-11.808594 6.492187-24.761719 9.738281-37.714844 9.738281zm0 0" fill="#dd9f8a"/><path d="m273.542969 291.695312h-35.097657c-4.179687 0-7.570312-3.390624-7.570312-7.570312 0-4.183594 3.390625-7.570312 7.570312-7.570312h35.097657c4.183593 0 7.570312 3.386718 7.570312 7.570312 0 4.179688-3.386719 7.570312-7.570312 7.570312zm0 0" fill="#efb29a"/><path d="m281.339844 249.160156c0 17.164063 13.914062 31.082032 31.082031 31.082032 17.164063 0 31.078125-13.917969 31.078125-31.082032" fill="#efb29a"/><path d="m334.707031 249.160156c0 12.308594-9.976562 22.289063-22.285156 22.289063-12.3125 0-22.289063-9.980469-22.289063-22.289063s9.976563-22.285156 22.289063-22.285156c12.308594 0 22.285156 9.976562 22.285156 22.285156zm0 0" fill="#2f373b"/><path d="m331.257812 245.226562c0 5.277344-4.277343 9.550782-9.550781 9.550782-5.273437 0-9.550781-4.273438-9.550781-9.550782 0-5.273437 4.277344-9.546874 9.550781-9.546874 5.273438 0 9.550781 4.273437 9.550781 9.546874zm0 0" fill="#fff"/><path d="m168.488281 249.160156c0 17.164063 13.917969 31.082032 31.082031 31.082032 17.164063 0 31.078126-13.917969 31.078126-31.082032" fill="#efb29a"/><path d="m221.855469 249.160156c0 12.308594-9.976563 22.289063-22.285157 22.289063-12.308593 0-22.289062-9.980469-22.289062-22.289063s9.980469-22.285156 22.289062-22.285156c12.308594 0 22.285157 9.976562 22.285157 22.285156zm0 0" fill="#2f373b"/><path d="m204.78125 270.832031c-1.667969.410157-3.417969.617188-5.210938.617188-12.308593 0-22.289062-9.976563-22.289062-22.289063 0-12.308594 9.980469-22.289062 22.289062-22.289062 1.792969 0 3.542969.210937 5.210938.621094-9.800781 2.339843-17.070312 11.160156-17.070312 21.667968 0 10.511719 7.269531 19.332032 17.070312 21.671875zm0 0" fill="#181e21"/><path d="m317.632812 270.832031c-1.671874.410157-3.421874.617188-5.210937.617188-12.308594 0-22.289063-9.976563-22.289063-22.289063 0-12.308594 9.980469-22.289062 22.289063-22.289062 1.789063 0 3.539063.210937 5.210937.621094-9.800781 2.339843-17.070312 11.160156-17.070312 21.667968 0 10.511719 7.269531 19.332032 17.070312 21.671875zm0 0" fill="#181e21"/><path d="m218.40625 245.226562c0 5.277344-4.273438 9.550782-9.546875 9.550782-5.277344 0-9.550781-4.273438-9.550781-9.550782 0-5.273437 4.273437-9.546874 9.550781-9.546874 5.273437 0 9.546875 4.273437 9.546875 9.546874zm0 0" fill="#fff"/><path d="m366.902344 12.804688-218.855469 55.378906c-3.21875.8125-6.488281-1.136719-7.300781-4.355469-.816406-3.214844 1.132812-6.484375 4.351562-7.300781l218.855469-55.378906c3.21875-.8125 6.488281 1.136718 7.300781 4.355468.816406 3.21875-1.132812 6.488282-4.351562 7.300782zm0 0" fill="#ff931f"/><path d="m145.097656 12.804688 218.855469 55.378906c3.21875.8125 6.488281-1.136719 7.300781-4.355469.816406-3.21875-1.132812-6.488281-4.351562-7.300781l-218.855469-55.378906c-3.21875-.8125-6.488281 1.136718-7.300781 4.355468-.816406 3.21875 1.132812 6.488282 4.351562 7.300782zm0 0" fill="#ff931f"/><path d="m299.816406 44.496094c0 24.203125-19.621094 43.824218-43.820312 43.824218-24.203125 0-43.824219-19.621093-43.824219-43.824218 0-24.199219 19.621094-43.820313 43.824219-43.820313 24.199218 0 43.820312 19.621094 43.820312 43.820313zm0 0" fill="#181e21"/><path d="m316.199219 28.023438c53.6875 5.539062 94.496093 50.777343 94.496093 104.75v65.066406l-29.886718-20.285156c0-14.578126-14.511719-24.707032-28.195313-19.675782-62.371093 22.933594-130.863281 22.933594-193.234375 0-13.683594-5.03125-28.195312 5.097656-28.195312 19.675782l-29.890625 20.285156v-65.066406c0-53.972657 40.808593-99.210938 94.5-104.75 40.027343-4.128907 80.375-4.128907 120.40625 0zm0 0" fill="#2f373b"/><path d="m283.082031 25.554688c-11.058593.507812-22.109375 1.339843-33.128906 2.46875-53.691406 5.539062-94.5 50.78125-94.5 104.75v24.070312c-12.390625-2.03125-24.269531 7.519531-24.269531 20.710938l-29.890625 20.28125v-65.0625c0-53.96875 40.808593-99.210938 94.5-104.75 20.011719-2.058594 40.109375-3.097657 60.210937-3.097657 9.027344 0 18.058594.207031 27.078125.628907zm0 0" fill="#181e21"/><path d="m241.480469 443.921875-90.511719-28.34375c-29.558594-9.257813-49.679688-36.636719-49.679688-67.617187v-102.679688c15.992188 0 29.480469 11.730469 31.890626 27.527344 4.949218 32.339844 18.199218 53.179687 30.421874 61.792968-5.152343 23.078126 19.128907 82.507813 77.878907 109.320313zm0 0" fill="#181e21"/><path d="m435.234375 304.472656c0 3.304688-2.679687 5.984375-5.984375 5.984375-3.308594 0-5.988281-2.679687-5.988281-5.984375 0-3.304687 2.679687-5.988281 5.988281-5.988281 3.304688 0 5.984375 2.683594 5.984375 5.988281zm0 0" fill="#fff"/><path d="m88.726562 304.472656c0 3.304688-2.679687 5.984375-5.984374 5.984375-3.308594 0-5.988282-2.679687-5.988282-5.984375 0-3.304687 2.679688-5.988281 5.988282-5.988281 3.304687 0 5.984374 2.683594 5.984374 5.988281zm0 0" fill="#fff"/><path d="m410.695312 206.597656-38.089843-15.191406 38.089843 38.09375zm0 0" fill="#2f373b"/><path d="m101.292969 206.597656 38.089843-15.191406-38.089843 38.09375zm0 0" fill="#2f373b"/></svg>