<svg id="Capa_1" enable-background="new 0 0 512 512" height="512" viewBox="0 0 512 512" width="512" xmlns="http://www.w3.org/2000/svg"><g><g><path d="m55.031 407.139c-27.744-39.712-44.031-88.02-44.031-140.139 0-135.31 109.69-245 245-245s245 109.69 245 245c0 52.119-16.287 100.427-44.031 140.139z" fill="#3c5082"/></g><g><circle cx="256" cy="242" fill="#2d3c6b" r="200"/></g><g><path d="m120.812 471.339v-.009h.006l38.67-54.118-23.202-86.924c-6.687 1.827-13.279 3.775-19.492 5.827-14.961 4.941-27.729 10.475-34.352 16.323-.874.772-1.765 1.712-2.668 2.79-7.732 9.226-16.467 29.203-24.722 51.911-.001.009-.001.018-.002.026 17.679 25.3 40.016 47.102 65.762 64.174z" fill="#eabe8d"/></g><g><path d="m456.949 407.139c-8.256-22.709-16.99-42.685-24.722-51.911-.904-1.078-1.794-2.019-2.668-2.79-6.623-5.848-19.39-11.382-34.352-16.323-6.213-2.052-12.805-4-19.492-5.827l-23.202 86.924 38.67 54.118h.006v.008c25.746-17.071 48.083-38.874 65.763-64.173-.002-.008-.002-.017-.003-.026z" fill="#f3d6ac"/></g><g><path d="m391.147 471.33c6.374-4.223 12.555-8.713 18.491-13.499-4.027-11.7-11.689-21.884-21.736-29.06v42.559z" fill="#eabe8d"/></g><g><path d="m124.098 471.33v-42.559c-10.047 7.176-17.708 17.36-21.736 29.06 5.936 4.786 12.117 9.277 18.491 13.499z" fill="#d8a97c"/></g><g><path d="m388.475 430.01c-6.043-25.5-12.648-61.936-12.761-99.722-10.895-2.976-22.04-5.625-32.223-7.863h-174.982c-10.183 2.238-21.328 4.887-32.223 7.863-.113 37.786-6.718 74.222-12.761 99.722-5.083 11.116-6.792 23.941-3.878 37.022.604 2.713 1.146 4.246 1.165 4.298v.009c38.749 25.687 85.216 40.661 135.188 40.661s96.439-14.974 135.188-40.661v-.009c.019-.052.56-1.586 1.165-4.298 2.914-13.081 1.205-25.906-3.878-37.022z" fill="#e9efff"/></g><g><path d="m343.491 322.425v-.001c-21.725-4.775-39.05-7.674-40.105-7.849h-94.772c-1.055.175-18.38 3.074-40.105 7.849v.001c0 89.852 36.108 159.086 87.491 189.575 51.383-30.489 87.491-99.723 87.491-189.575z" fill="#5c45bf"/></g><g><path d="m263.5 314.575h-15v192.591c2.465 1.696 4.958 3.326 7.5 4.834 2.542-1.508 5.035-3.139 7.5-4.834z" fill="#4432ad"/></g><g><path d="m208.614 221.239v93.336s19.021 33.261 47.17 33.261c.073 0 .143-.005.216-.005 28.031-.103 47.386-33.256 47.386-33.256v-93.336z" fill="#f3d6ac"/></g><g><path d="m208.614 220.734v93.841c94.723 0 94.772-53.4 94.772-53.4v-40.44h-94.772z" fill="#eabe8d"/></g><g><path d="m303.386 299.609-47.386 48.222s18.328 33.146 30.188 33.146c7.034 0 17.106-22.384 24.137-40.597 5.342-13.84 2.694-29.488-6.939-40.771z" fill="#7255ce"/></g><g><path d="m208.614 299.609 47.386 48.222s-18.328 33.146-30.188 33.146c-7.034 0-17.106-22.384-24.137-40.597-5.342-13.84-2.694-29.488 6.939-40.771z" fill="#7255ce"/></g><g><path d="m318.485 355.832-1.354 3.315c-1.785 4.372-1.785 9.27 0 13.642l1.354 3.315c2.747 6.726 1.192 14.442-3.945 19.579-7.046 7.046-18.47 7.046-25.516 0l-29.715-29.715 29.715-29.715c7.046-7.046 18.47-7.046 25.516 0 5.136 5.136 6.691 12.853 3.945 19.579z" fill="#ffc839"/></g><g><path d="m193.515 355.832 1.354 3.315c1.785 4.372 1.785 9.27 0 13.642l-1.354 3.315c-2.747 6.726-1.191 14.442 3.945 19.579 7.046 7.046 18.47 7.046 25.516 0l29.715-29.715-29.715-29.715c-7.046-7.046-18.47-7.046-25.516 0-5.136 5.136-6.691 12.853-3.945 19.579z" fill="#ffc839"/></g><g><path d="m222.977 336.252c-5.449-5.449-13.509-6.665-20.145-3.686 1.945.873 3.774 2.089 5.371 3.686 16.411 16.411 16.411 43.019 0 59.431-1.597 1.597-3.426 2.813-5.371 3.686 6.636 2.978 14.696 1.762 20.145-3.686l29.715-29.716z" fill="#ffb332"/></g><g><path d="m289.023 336.252c5.449-5.449 13.509-6.665 20.145-3.686-1.945.873-3.774 2.089-5.371 3.686-16.411 16.411-16.411 43.019 0 59.431 1.597 1.597 3.426 2.813 5.371 3.686-6.636 2.978-14.696 1.762-20.145-3.686l-29.715-29.716z" fill="#ffb332"/></g><g><path d="m264.653 345.573c-1.588-.01-3.079.403-4.365 1.134-2.657 1.509-5.918 1.509-8.575 0-1.287-.731-2.777-1.144-4.365-1.134-4.834.032-8.682 4.083-8.682 8.916v22.956c0 4.834 3.849 8.885 8.682 8.916 1.588.01 3.079-.403 4.365-1.134 2.657-1.509 5.918-1.509 8.575 0 1.287.731 2.777 1.144 4.365 1.134 4.834-.032 8.682-4.083 8.682-8.916v-22.955c0-4.834-3.848-8.885-8.682-8.917z" fill="#ffdd40"/></g><g><path d="m255.854 377.446v-22.956c0-4.353 3.122-8.07 7.273-8.789-1.017.172-1.975.516-2.839 1.007-2.657 1.509-5.918 1.509-8.576 0-1.287-.731-2.777-1.144-4.365-1.134-4.833.031-8.682 4.083-8.682 8.916v22.956c0 4.834 3.849 8.885 8.682 8.916 1.588.01 3.079-.403 4.365-1.134 2.657-1.509 5.918-1.509 8.576 0 .865.491 1.823.834 2.839 1.007-4.151-.719-7.273-4.436-7.273-8.789z" fill="#ffc839"/></g><g><path d="m256 37c-55.229 0-100 44.771-100 100v15.119h100z" fill="#acbbef"/></g><g><path d="m213.575 82.935c-.417-.447-.825-.903-1.224-1.366-18.071-20.959-12.769-53.3 10.556-68.193 12.739-8.135 29.966-13.376 53.093-13.376 67.002 0 138.777 69.137 114.68 190.039-.898 4.508-6.867 5.555-9.213 1.602l-9.319-15.705v11.334c0 4.455-5.386 6.685-8.536 3.536l-53.475-53.475h-96.564v-54.396z" fill="#38c674"/></g><g><path d="m248.296 2.965c-9.98 2.333-18.37 5.929-25.389 10.41-23.325 14.893-28.627 47.234-10.556 68.193.399.463.807.919 1.224 1.366v54.395h95v-17.734l-28.951-23.902c-52.337-25.338-56.714-82.274-31.328-92.728z" fill="#21b75d"/></g><g><path d="m180.942 159.567s-10.385-25.285-28.897-19.415.448 60.664 36.573 64.116z" fill="#eabe8d"/></g><g><path d="m331.058 159.567s10.385-25.285 28.897-19.415-.448 60.664-36.573 64.116z" fill="#f3d6ac"/></g><g><path d="m279.623 95.694 12.283 14.501c2.38 2.809.013 7.078-3.631 6.548-55.268-8.042-74.702-33.809-74.702-33.809-15.713 7.454-23.178 25.856-28.624 41.82-2.762 8.097-8.72 14.703-16.484 18.295l-.015-.007c-.029 1.231-.049 2.467-.049 3.713 0 64.505 39.219 140.155 87.597 140.155s87.597-75.651 87.597-140.155c0-1.244-.02-2.479-.049-3.71-21.033-24.057-43.596-38.596-63.923-47.351z" fill="#f8e6cc"/></g><g><path d="m208.403 146.754c0-21.401 4.332-40.792 11.868-57.171-4.647-3.937-6.696-6.649-6.696-6.649-15.713 7.454-23.178 25.856-28.624 41.82-2.762 8.097-8.72 14.703-16.484 18.295l-.015-.007c-.029 1.231-.049 2.468-.049 3.713 0 64.505 39.219 140.155 87.597 140.155 6.881 0 13.576-1.535 20-4.346-38.741-16.953-67.597-80.48-67.597-135.81z" fill="#f3d6ac"/></g><g><g><path d="m235.384 240.87h41.233c4.111-3.622 7.258-8.309 9.01-13.631 1.584-4.811-2.069-9.754-7.134-9.754h-44.985c-5.065 0-8.718 4.943-7.134 9.754 1.752 5.322 4.899 10.009 9.01 13.631z" fill="#162544"/></g><g><path d="m276.616 240.87c-5.493 4.849-12.714 7.798-20.616 7.798s-15.124-2.948-20.616-7.798c5.5-4.849 12.714-7.798 20.616-7.798s15.116 2.949 20.616 7.798z" fill="#ff4155"/></g></g><g><g><path d="m242.013 192.447 8.436-13.441c2.569-4.093 8.533-4.093 11.102 0l8.436 13.441c2.739 4.365-.398 10.038-5.551 10.038h-16.871c-5.154-.001-8.291-5.674-5.552-10.038z" fill="#eabe8d"/></g></g><g><path d="m311.557 158.721c-.863-3.387-3.137-6.41-6.566-8.116-5.584-2.778-12.505-.923-15.952 4.274-2.117 3.192-2.574 6.947-1.628 10.312 1.228 4.369 7.176 5.031 9.445 1.1 1.43-2.476 4.596-3.325 7.072-1.895 3.93 2.269 8.75-1.277 7.629-5.675z" fill="#162544"/></g><g><path d="m200.443 158.721c.863-3.387 3.137-6.41 6.566-8.116 5.584-2.778 12.505-.923 15.952 4.274 2.117 3.192 2.574 6.947 1.628 10.312-1.228 4.369-7.176 5.031-9.445 1.1-1.43-2.476-4.596-3.325-7.072-1.895-3.93 2.269-8.75-1.277-7.629-5.675z" fill="#162544"/></g><g><path d="m223.5 138.968h-20c-4.142 0-7.5-3.358-7.5-7.5 0-4.142 3.358-7.5 7.5-7.5h20c4.142 0 7.5 3.358 7.5 7.5 0 4.142-3.358 7.5-7.5 7.5z" fill="#21b75d"/></g><g><path d="m308.5 138.968h-20c-4.142 0-7.5-3.358-7.5-7.5 0-4.142 3.358-7.5 7.5-7.5h20c4.142 0 7.5 3.358 7.5 7.5 0 4.142-3.358 7.5-7.5 7.5z" fill="#21b75d"/></g></g></svg>