<svg id="Capa_1" enable-background="new 0 0 512 512" height="512" viewBox="0 0 512 512" width="512" xmlns="http://www.w3.org/2000/svg"><g><path d="m0 256c0-141.262 114.416-255.8 255.631-256 140.718-.199 255.837 114.297 256.367 255.014.308 81.824-37.773 154.765-97.26 201.842-4.76 3.767-11.416 4.051-16.459.674-40.69-27.253-89.628-43.147-142.279-43.147-52.622 0-101.536 15.877-142.212 43.103-5.085 3.404-11.795 3.118-16.592-.681-59.21-46.89-97.196-119.411-97.196-200.805z" fill="#4172cc"/><path d="m481.733 256c0 124.669-101.064 225.733-225.733 225.733s-225.733-101.064-225.733-225.733 101.064-225.733 225.733-225.733 225.733 101.064 225.733 225.733z" fill="#6990d7"/><path d="m209.333 331.416c-38.66 0-70 31.34-70 70v67.833c0 6.714-7.303 10.886-13.088 7.478-10.594-6.241-20.7-13.224-30.245-20.876v-54.435c0-38.66 31.34-70 70-70z" fill="#c0694e"/><path d="m416 401.416v54.435c-38.955 31.227-87.236 51.301-140 55.379-1.155.089-2.518-.391-3.981-1.245-9.835-5.74-22.202-5.74-32.037 0-1.463.854-2.826 1.335-3.981 1.245-39.935-3.086-77.301-15.335-110-34.648v-75.166c0-38.66 31.34-70 70-70h150c38.659 0 69.999 31.34 69.999 70z" fill="#c97e67"/><path d="m355.678 430.072v61.797c-4.923 2.083-9.925 4.016-15 5.795v-67.591c0-4.142 3.358-7.5 7.5-7.5s7.5 3.357 7.5 7.499zm-191.856-7.5c-4.142 0-7.5 3.358-7.5 7.5v61.797c4.923 2.083 9.925 4.016 15 5.795v-67.591c0-4.143-3.358-7.501-7.5-7.501z" fill="#c0694e"/><path d="m276 350v161.23c-6.6.51-13.27.77-20 .77s-13.4-.26-20-.77v-161.23z" fill="#ffc14f"/><path d="m258.828 478.686 8.485 8.485c1.562 1.562 1.562 4.095 0 5.657l-8.485 8.485c-1.562 1.562-4.095 1.562-5.657 0l-8.485-8.485c-1.562-1.562-1.562-4.095 0-5.657l8.485-8.485c1.563-1.562 4.095-1.562 5.657 0zm-14.142-30 8.485 8.485c1.562 1.562 4.095 1.562 5.657 0l8.485-8.485c1.562-1.562 1.562-4.095 0-5.657l-8.485-8.485c-1.562-1.562-4.095-1.562-5.657 0l-8.485 8.485c-1.562 1.563-1.562 4.095 0 5.657zm22.628-47.372-8.485-8.485c-1.562-1.562-4.095-1.562-5.657 0l-8.485 8.485c-1.562 1.562-1.562 4.095 0 5.657l8.485 8.485c1.562 1.562 4.095 1.562 5.657 0l8.485-8.485c1.562-1.563 1.562-4.095 0-5.657z" fill="#ff9f22"/><path d="m250 470h-10c-22.091 0-40-17.909-40-40v-80h10c22.091 0 40 17.909 40 40zm30 0h-10v-80c0-22.091 17.909-40 40-40h10v80c0 22.091-17.909 40-40 40z" fill="#a6e0ec"/><path d="m250 469.119v.881h-10c-22.091 0-40-17.909-40-40v-80h10c2.875 0 5.68.304 8.383.881v79.119c0 19.216 13.55 35.267 31.617 39.119zm60-119.119c-22.091 0-40 17.909-40 40v80h10c2.875 0 5.68-.304 8.383-.881v-79.119c0-19.216 13.55-35.267 31.617-39.119v-.881z" fill="#7cd2e3"/><path d="m375.221 322.585c-7.295 3.537-13.822 8.477-19.209 14.536-10.878 12.238-26.172 19.653-42.518 20.615-8.094.476-16.014 2.542-23.309 6.079-14.733 7.143-31.701 8.142-47.17 2.775-7.66-2.657-15.768-3.78-23.861-3.304-16.346.962-32.404-4.61-44.642-15.488-6.06-5.386-13.121-9.526-20.78-12.184-15.469-5.367-28.173-16.659-35.317-31.392-3.537-7.295-8.476-13.822-14.536-19.209-12.238-10.878-19.653-26.172-20.615-42.518-.476-8.094-2.542-16.014-6.079-23.309-7.143-14.733-8.142-31.701-2.775-47.17 2.657-7.66 3.78-15.768 3.304-23.861-.962-16.346 4.61-32.404 15.488-44.642 5.386-6.06 9.526-13.121 12.184-20.78 5.367-15.469 16.659-28.173 31.392-35.317 7.295-3.537 13.822-8.476 19.209-14.536 10.878-12.238 26.172-19.653 42.518-20.615 8.094-.476 16.014-2.542 23.309-6.079 14.733-7.143 31.701-8.142 47.17-2.775 7.66 2.657 15.768 3.78 23.861 3.304 16.346-.962 32.404 4.61 44.642 15.488 6.06 5.386 13.121 9.526 20.78 12.184 15.469 5.367 28.173 16.659 35.317 31.392 3.537 7.295 8.476 13.822 14.536 19.209 12.238 10.878 19.653 26.172 20.615 42.518.476 8.094 2.542 16.014 6.079 23.309 7.143 14.733 8.142 31.701 2.775 47.17-2.657 7.66-3.78 15.768-3.304 23.861.962 16.346-4.61 32.404-15.488 44.642-5.386 6.06-9.526 13.121-12.184 20.78-5.366 15.47-16.658 28.173-31.392 35.317z" fill="#a6e0ec"/><path d="m356.533 301.018c-6.152 2.983-11.656 7.148-16.198 12.257-9.173 10.32-22.07 16.573-35.853 17.383-6.825.401-13.504 2.143-19.655 5.126-12.424 6.024-26.732 6.865-39.776 2.34-6.459-2.241-13.296-3.188-20.121-2.786-13.783.811-27.324-3.887-37.644-13.06-5.11-4.542-11.064-8.033-17.523-10.274-13.044-4.526-23.757-14.048-29.78-26.471-2.983-6.152-7.148-11.656-12.257-16.198-10.32-9.173-16.573-22.07-17.383-35.853-.401-6.825-2.143-13.504-5.126-19.655-6.024-12.424-6.865-26.732-2.34-39.776 2.241-6.459 3.188-13.296 2.786-20.121-.811-13.783 3.887-27.324 13.06-37.644 4.542-5.11 8.033-11.064 10.274-17.523 4.526-13.044 14.048-23.757 26.471-29.78 6.152-2.983 11.656-7.148 16.198-12.257 9.173-10.32 22.07-16.573 35.853-17.383 6.825-.401 13.504-2.143 19.655-5.126 12.424-6.024 26.732-6.865 39.776-2.34 6.459 2.241 13.296 3.188 20.121 2.786 13.783-.811 27.324 3.887 37.644 13.06 5.11 4.542 11.064 8.033 17.523 10.274 13.044 4.526 23.757 14.048 29.78 26.471 2.983 6.152 7.148 11.656 12.257 16.198 10.32 9.173 16.573 22.07 17.383 35.853.401 6.825 2.143 13.504 5.126 19.655 6.024 12.424 6.865 26.732 2.34 39.776-2.241 6.459-3.188 13.296-2.786 20.121.811 13.783-3.887 27.324-13.06 37.644-4.542 5.11-8.033 11.064-10.274 17.523-4.526 13.044-14.048 23.756-26.471 29.78z" fill="#c2eaf2"/><path d="m366 161.416v40c0 60.751-49.249 110-110 110-60.751 0-110-49.249-110-110v-40c0-60.751 49.249-110 110-110 60.751 0 110 49.249 110 110z" fill="#e3a76f"/><path d="m366 161.416v40c0 50.792-34.425 93.543-81.216 106.195-9.023 2.44-18.545 2.44-27.568 0-46.791-12.652-81.216-55.403-81.216-106.195v-40c0-55.663 41.345-101.669 95-108.985 53.655 7.316 95 53.322 95 108.985z" fill="#f2bb88"/><path d="m241.5 208.148c-2.929-2.93-2.929-7.678 0-10.607 2.929-2.928 7.678-2.928 10.606 0 1.042 1.042 2.424 1.616 3.893 1.616s2.851-.574 3.893-1.616c2.929-2.928 7.678-2.928 10.606 0 2.929 2.93 2.929 7.678 0 10.607-3.875 3.875-9.024 6.009-14.5 6.009s-10.623-2.134-14.498-6.009z" fill="#c38778"/><path d="m256 271.416c-16.569 0-30-13.431-30-30 0-4.142 3.358-7.5 7.5-7.5h45c4.142 0 7.5 3.358 7.5 7.5 0 16.569-13.431 30-30 30z" fill="#fff5f5"/><path d="m263.5 270.471c-2.397.617-4.91.945-7.5.945-16.568 0-30-13.431-30-30 0-4.142 3.358-7.5 7.5-7.5h15c-4.142 0-7.5 3.358-7.5 7.5 0 13.979 9.561 25.725 22.5 29.055z" fill="#def4f8"/><path d="m316.446 177.803c-2.93 2.93-7.677 2.929-10.607.001-4.874-4.873-12.804-4.873-17.678 0-2.929 2.929-7.678 2.928-10.607-.001s-2.928-7.678 0-10.606c5.361-5.36 12.403-8.041 19.445-8.041s14.084 2.681 19.445 8.041c2.93 2.928 2.931 7.677.002 10.606zm-101.446-18.647c-7.042 0-14.084 2.681-19.445 8.041-2.929 2.929-2.929 7.678 0 10.606 2.929 2.929 7.678 2.93 10.607.001 4.874-4.873 12.804-4.873 17.678 0 2.93 2.928 7.677 2.929 10.607-.001 2.929-2.929 2.928-7.678 0-10.606-5.363-5.361-12.405-8.041-19.447-8.041z" fill="#a65d4e"/><path d="m201 205c0 8.284-6.716 15-15 15s-15-6.716-15-15 6.716-15 15-15 15 6.716 15 15zm125-15c-8.284 0-15 6.716-15 15s6.716 15 15 15 15-6.716 15-15-6.716-15-15-15z" fill="#fa9084"/><path d="m363.916 140h-13.015c-34.26 0-65.58-19.357-80.902-50v50h-92.915c-7.191 0-12.485-6.681-10.912-13.698 10.166-45.362 40.256-74.717 88.928-74.717 4.88 0 9.721-.758 14.494-.155 47.468 6.003 88.192 41.03 94.322 88.57z" fill="#274c91"/><path d="m178.084 140h-30c6.874-52.83 53.594-89.483 107.017-89.483 5.045 0 10.048.332 14.977.976-46.922 6.138-85.774 40.699-91.994 88.507z" fill="#203e76"/></g></svg>