<svg id="Capa_1" enable-background="new 0 0 512 512" height="512" viewBox="0 0 512 512" width="512" xmlns="http://www.w3.org/2000/svg"><g><path d="m397.87 63.734c-22.272-38.12-63.619-63.734-110.955-63.734h-30.915l-10 109.157z" fill="#ece6f2"/><path d="m256 99.157-10 63.719h169.336v-34.455c0-23.589-6.367-45.689-17.466-64.686-42.779-.001-94.909 16.154-141.87 35.422z" fill="#cfcfe6"/><path d="m256 0h-30.915c-70.925 0-128.421 57.496-128.421 128.421v34.455h159.336z" fill="#fff5f5"/><path d="m480.133 417.664c0-27.472-17.603-51.853-43.68-60.497l-63.915-21.187 9.064 176.02h98.531z" fill="#180a33"/><path d="m381.602 391.387c0-18.826-3.107-37.585-9.064-55.407l-37.915-12.569 16.979 188.589h30z" fill="#332866"/><path d="m31.867 417.664c0-27.472 17.603-51.853 43.68-60.497l63.915-21.187-9.064 176.02h-98.531z" fill="#332866"/><path d="m130.398 391.387c0-18.826 3.107-37.585 9.064-55.407l37.915-12.569-16.979 188.589h-30z" fill="#574d8c"/><path d="m277.867 404.274 10 107.726h63.735v-118.971z" fill="#80aaff"/><path d="m234.133 404.274-10 107.726h-63.735v-118.971z" fill="#9cf"/><path d="m351.602 391.387c0-23.708-5.831-47.052-16.98-67.976h-56.755l10 90.863 63.734-21.245v-1.642z" fill="#6680ff"/><path d="m160.398 391.387c0-23.708 5.831-47.052 16.98-67.976h56.755l-10 90.863-63.734-21.245v-1.642z" fill="#80aaff"/><path d="m256 512h31.867v-97.726l-41.867-10z" fill="#5b362a"/><path d="m246 374.274 10 40h31.867v-30z" fill="#ffda44"/><path d="m256 512h-31.867v-97.726l31.867-10z" fill="#895140"/><path d="m256 374.274v40h-31.867v-30z" fill="#fff79f"/><path d="m287.867 323.411h-41.867l10 60.863h31.867z" fill="#5b362a"/><path d="m224.133 323.411h31.867v60.863h-31.867z" fill="#895140"/><path d="m128.531 162.876h-31.867c-17.6 0-31.868 14.268-31.868 31.868 0 17.6 14.268 31.868 31.868 31.868h41.915z" fill="#e1bb78"/><path d="m383.469 162.876h31.867c17.6 0 31.868 14.268 31.868 31.868 0 17.6-14.268 31.868-31.868 31.868h-41.915z" fill="#c78f2c"/><path d="m256 99.157-10 95.843 10 155.539c70.399 0 127.469-57.07 127.469-127.469v-60.195c0 .001-58.094-35.255-127.469-63.718z" fill="#e1bb78"/><path d="m128.531 162.876v60.195c0 70.399 57.07 127.469 127.469 127.469v-251.383c-69.375 28.463-127.469 63.719-127.469 63.719z" fill="#edd7b0"/><path d="m271 242.545h-15l-10 13.455 10 20.869c8.369 7.776 19.569 12.544 31.867 12.544h15.934v-30h-15.934c-9.301-.001-16.867-7.567-16.867-16.868z" fill="#895140"/><path d="m184.299 179.744h31.867v30h-31.867z" fill="#332866"/><path d="m295.834 179.744h31.867v30h-31.867z" fill="#180a33"/><path d="m241 242.545c0 9.301-7.566 16.867-16.867 16.867h-15.934v30h15.934c12.298 0 23.498-4.768 31.867-12.544v-34.324h-15z" fill="#b56d3c"/></g></svg>