<svg height="511pt" viewBox="0 0 511 511.99948" width="511pt" xmlns="http://www.w3.org/2000/svg"><path d="m512.394531 256.054688c0 141.355468-114.59375 255.945312-255.949219 255.945312-141.355468 0-255.945312-114.589844-255.945312-255.945312 0-141.355469 114.589844-255.949219 255.945312-255.949219 141.355469 0 255.949219 114.59375 255.949219 255.949219zm0 0" fill="#d9723e"/><path d="m398.828125 468.769531c-12.339844 8.277344-25.4375 15.515625-39.171875 21.566407-10.648438 4.695312-21.675781 8.695312-33.023438 11.914062-22.296874 6.351562-45.839843 9.75-70.1875 9.75-24.335937 0-47.878906-3.398438-70.183593-9.738281-7.238281-2.058594-14.359375-4.4375-21.328125-7.117188-.429688-.160156-.859375-.320312-1.289063-.492187-3.507812-1.359375-6.976562-2.808594-10.40625-4.316406-13.738281-6.0625-26.835937-13.289063-39.183593-21.578126 10.390624-14.367187 23.757812-26.421874 39.183593-35.3125 10.199219-5.867187 21.296875-10.335937 33.023438-13.148437 1.808593-.4375 3.636719-.839844 5.476562-1.1875 3.472657-.679687 7-1.199219 10.570313-1.570313 1.027344-.109374 2.046875-.210937 3.089844-.289062 3.378906-.28125 6.796874-.421875 10.257812-.421875h81.570312c4.519532 0 8.96875.242187 13.347657.699219 3.570312.371094 7.089843.902344 10.570312 1.5625 1.386719.269531 2.769531.558594 4.136719.867187.449219.121094.910156.210938 1.351562.332031 11.734376 2.820313 22.824219 7.289063 33.023438 13.15625 15.425781 8.898438 28.78125 20.957032 39.171875 35.324219zm0 0" fill="#f93d6e"/><path d="m215.65625 416.828125c-29.355469 0-49.25 42.421875-50.722656 78.316406-.429688-.160156-.859375-.320312-1.289063-.492187-3.507812-1.359375-6.976562-2.808594-10.40625-4.316406-13.738281-6.0625-26.835937-13.289063-39.183593-21.578126 10.390624-14.367187 23.757812-26.421874 39.183593-35.3125 10.199219-5.867187 21.296875-10.335937 33.023438-13.148437 1.808593-.4375 3.636719-.839844 5.476562-1.1875 3.472657-.679687 7-1.199219 10.570313-1.570313 1.027344-.109374 2.046875-.210937 3.089844-.289062 3.378906-.28125 6.796874-.421875 10.257812-.421875zm0 0" fill="#e41753"/><path d="m321.144531 419.089844v4.339844c0 28.53125-18.316406 53.367187-45.582031 61.796874-6.167969 1.917969-12.609375 2.886719-19.125 2.886719-35.671875 0-64.699219-29.023437-64.699219-64.683593v-4.320313c3.472657-.679687 7-1.199219 10.570313-1.570313 1.027344-.109374 2.046875-.210937 3.089844-.289062 3.378906-.28125 6.796874-.421875 10.257812-.421875h81.570312c4.519532 0 8.96875.242187 13.347657.699219 3.570312.371094 7.089843.902344 10.570312 1.5625zm0 0" fill="#f9c5ac"/><path d="m301.144531 368.566406v54.859375c0 20.082031-13.242187 37.058594-31.484375 42.695313-4.175781 1.296875-8.625 1.996094-13.226562 1.996094-24.6875 0-44.695313-20.007813-44.695313-44.691407v-54.859375zm0 0" fill="#efb29a"/><path d="m301.144531 419.949219v3.476562c0 20.082031-13.242187 37.058594-31.484375 42.699219-16.457031-5.0625-28.832031-19.371094-31.117187-36.878906 2.988281.183594 5.988281.273437 9.007812.273437 8.457031 0 16.746094-.667969 24.820313-1.996093 9.953125-1.601563 19.566406-4.160157 28.773437-7.574219zm0 0" fill="#f9c5ac"/><path d="m133.011719 278.203125c0 20.492187-14.96875 37.480469-34.570313 40.636719-2.144531.347656-4.347656.527344-6.597656.527344-22.738281 0-41.164062-18.425782-41.164062-41.167969 0-22.738281 18.425781-41.164063 41.164062-41.164063 2.25 0 4.453125.179688 6.597656.527344 19.601563 3.15625 34.570313 20.144531 34.570313 40.640625zm0 0" fill="#f9c5ac"/><path d="m133.011719 278.203125c0 20.492187-14.96875 37.480469-34.570313 40.636719-3.5625-12.949219-5.464844-26.574219-5.464844-40.636719 0-14.066406 1.902344-27.691406 5.464844-40.640625 19.601563 3.15625 34.570313 20.144531 34.570313 40.640625zm0 0" fill="#efb29a"/><path d="m106.558594 278.203125c0 8.125-6.585938 14.710937-14.710938 14.710937s-14.714844-6.585937-14.714844-14.710937c0-8.128906 6.589844-14.714844 14.714844-14.714844s14.710938 6.585938 14.710938 14.714844zm0 0" fill="#efb29a"/><path d="m379.871094 278.203125c0 20.492187 14.96875 37.480469 34.570312 40.636719 2.144532.347656 4.347656.527344 6.59375.527344 22.742188 0 41.167969-18.425782 41.167969-41.167969 0-22.738281-18.425781-41.164063-41.167969-41.164063-2.246094 0-4.449218.179688-6.59375.527344-19.601562 3.15625-34.570312 20.144531-34.570312 40.640625zm0 0" fill="#f9c5ac"/><path d="m379.871094 278.203125c0 20.492187 14.96875 37.480469 34.570312 40.636719 3.5625-12.949219 5.464844-26.574219 5.464844-40.636719 0-14.066406-1.902344-27.691406-5.464844-40.640625-19.601562 3.15625-34.570312 20.144531-34.570312 40.640625zm0 0" fill="#efb29a"/><path d="m435.75 278.203125c0 8.125-6.589844 14.710937-14.714844 14.710937s-14.710937-6.585937-14.710937-14.710937c0-8.128906 6.585937-14.714844 14.710937-14.714844s14.714844 6.585938 14.714844 14.714844zm0 0" fill="#efb29a"/><path d="m411.113281 99.097656v157.464844c0 45.859375-19.957031 87.0625-51.667969 115.386719-21.507812 19.214843-48.429687 32.503906-78.183593 37.292969-8.070313 1.320312-16.367188 1.988281-24.824219 1.988281-85.421875 0-154.667969-69.234375-154.667969-154.667969v-51.957031l124.8125-105.507813zm0 0" fill="#f9c5ac"/><g fill="#efb29a"><path d="m411.113281 225.738281v30.824219c0 45.859375-19.957031 87.0625-51.667969 115.386719.507813-2.109375 1.058594-4.28125 1.640626-6.507813 42.847656-163.828125-81.753907-193.582031-110.136719-188.222656l32.070312-78.121094 16.269531-39.613281 26.644532 39.613281zm0 0"/><path d="m283.683594 408.832031c-.800782.140625-1.609375.277344-2.417969.410157-8.078125 1.320312-16.367187 1.988281-24.824219 1.988281-85.421875 0-154.667968-69.234375-154.667968-154.667969v-51.957031l54.539062-105.507813v157.464844c0 76.125 54.96875 139.382812 127.371094 152.269531zm0 0"/><path d="m273.816406 297.96875h-34.75c-4.136718 0-7.492187-3.355469-7.492187-7.496094s3.355469-7.496094 7.492187-7.496094h34.75c4.140625 0 7.496094 3.355469 7.496094 7.496094 0 4.136719-3.359375 7.496094-7.496094 7.496094zm0 0"/></g><path d="m410.417969 228.089844c-.007813-3.839844-.019531-8.292969-.027344-12.042969-.003906-2.613281-1.542969-5-3.953125-6.011719-16.304688-6.859375-48.101562-12.027344-68.457031-12.027344-22.359375 0-38.8125 4.917969-50.308594 15.03125-3.101563 2.734376-5.785156 5.804688-8.039063 9.199219-1.316406 1.980469-3.96875 2.558594-6.023437 1.367188-4.210937-2.441407-8.984375-3.726563-13.847656-3.726563h-6.636719c-4.863281 0-9.640625 1.285156-13.847656 3.726563-2.054688 1.191406-4.707032.609375-6.023438-1.367188-2.253906-3.394531-4.9375-6.464843-8.042968-9.199219-11.492188-10.113281-27.949219-15.03125-50.304688-15.03125-20.355469 0-52.152344 5.167969-68.457031 12.027344-2.410157 1.011719-3.949219 3.398438-3.953125 6.011719-.007813 3.75-.023438 8.203125-.027344 12.042969 0 1.472656.449219 2.886718 1.195312 4.160156 4.265626 7.289062 2.621094 18.109375 2.621094 28.996094 0 17.1875 7.480469 33.300781 21.066406 45.375 12.964844 11.519531 29.851563 17.867187 47.554688 17.867187 17.871094 0 34.910156-7.707031 47.976562-21.703125 12.28125-13.152344 19.328126-30.320312 19.328126-47.097656 0-1.171875-.023438-2.324219-.070313-3.464844-.335937-8.039062 6.007813-14.84375 14.050781-14.878906h.25.25c8.046875.035156 14.390625 6.839844 14.054688 14.882812-.046875 1.136719-.070313 2.289063-.070313 3.460938 0 16.777344 7.046875 33.945312 19.328125 47.097656 13.070313 13.996094 30.105469 21.703125 47.976563 21.703125 17.699219 0 34.589843-6.347656 47.554687-17.867187 13.585938-12.074219 21.066406-28.1875 21.066406-45.375 0-10.890625-1.648437-21.714844 2.628907-29.003906.738281-1.269532 1.1875-2.683594 1.1875-4.152344zm0 0" fill="#f1eee9"/><path d="m232.730469 254.964844c0 25.054687-18.855469 50.65625-44.238281 57.597656-4.332032 1.199219-8.839844 1.828125-13.5 1.828125-31.882813 0-59.226563-23.792969-59.226563-53.148437 0-29.355469 16.875-53.140626 59.226563-53.140626 6.089843 0 11.617187.351563 16.617187 1.070313 5.28125.742187 9.976563 1.871094 14.136719 3.371094.371094.128906.742187.269531 1.109375.410156 15.027343 5.746094 22.695312 16.457031 25.066406 31.121094.019531.101562.03125.210937.050781.3125.519532 3.328125.757813 6.855469.757813 10.578125zm0 0" fill="#f9c5ac"/><path d="m398.066406 261.242188c0 19.125-11.417968 35.933593-28.152344 45.519531-5.101562 2.921875-10.679687 5.167969-16.589843 6.621093-4.96875 1.21875-10.136719 1.859376-15.445313 1.859376-32.402344 0-58.667968-30.566407-58.667968-60.378907 0-3.679687.242187-7.179687.742187-10.476562 2.109375-14 8.894531-24.507813 22.023437-30.703125.359376-.171875.730469-.339844 1.109376-.511719.011718-.011719.019531-.011719.03125-.011719 7.566406-3.347656 17.144531-5.328125 29.042968-5.785156 1.851563-.082031 3.757813-.121094 5.71875-.121094 7.019532 0 13.347656.640625 19.035156 1.839844 29.136719 6.199219 41.152344 27.191406 41.152344 52.148438zm0 0" fill="#f9c5ac"/><path d="m344.417969 244.386719h-64.464844c2.109375-14 8.894531-24.507813 22.023437-30.703125.96875-.242188 2.140626-.523438 2.148438-.523438 2.570312-.667968 5.28125-1.019531 8.058594-1.019531 17.808594 0 32.234375 14.4375 32.234375 32.246094zm0 0" fill="#efb29a"/><path d="m334.203125 258.105469c0 12.160156-9.859375 22.019531-22.019531 22.019531s-22.015625-9.859375-22.015625-22.019531c0-12.160157 9.855469-22.015625 22.015625-22.015625s22.019531 9.855468 22.019531 22.015625zm0 0" fill="#2f373b"/><path d="m330.796875 254.21875c0 5.210938-4.226563 9.4375-9.4375 9.4375s-9.433594-4.226562-9.433594-9.4375 4.222657-9.433594 9.433594-9.433594 9.4375 4.222656 9.4375 9.433594zm0 0" fill="#fff"/><path d="m231.972656 244.386719h-63.507812c0-17.808594 14.425781-32.246094 32.234375-32.246094 1.71875 0 3.40625.140625 5.046875.402344.371094.128906.742187.269531 1.109375.410156 15.027343 5.746094 22.695312 16.457031 25.066406 31.121094.019531.101562.03125.210937.050781.3125zm0 0" fill="#efb29a"/><path d="m222.714844 258.105469c0 12.160156-9.855469 22.019531-22.015625 22.019531-12.160157 0-22.019531-9.859375-22.019531-22.019531 0-12.160157 9.859374-22.015625 22.019531-22.015625 12.160156 0 22.015625 9.855468 22.015625 22.015625zm0 0" fill="#2f373b"/><path d="m205.664062 279.558594c-1.601562.378906-3.257812.570312-4.96875.570312-12.15625 0-22.015624-9.859375-22.015624-22.027344 0-12.15625 9.859374-22.015624 22.015624-22.015624 1.710938 0 3.367188.199218 4.96875.570312-9.777343 2.25-17.058593 11-17.058593 21.445312 0 10.457032 7.28125 19.207032 17.058593 21.457032zm0 0" fill="#181e21"/><path d="m317.152344 279.558594c-1.601563.378906-3.261719.570312-4.972656.570312-12.15625 0-22.011719-9.859375-22.011719-22.027344 0-12.15625 9.855469-22.015624 22.011719-22.015624 1.710937 0 3.371093.199218 4.972656.570312-9.78125 2.25-17.058594 11-17.058594 21.445312 0 10.457032 7.277344 19.207032 17.058594 21.457032zm0 0" fill="#181e21"/><path d="m219.308594 254.21875c0 5.210938-4.222656 9.4375-9.433594 9.4375s-9.4375-4.226562-9.4375-9.4375 4.226562-9.433594 9.4375-9.433594 9.433594 4.222656 9.433594 9.433594zm0 0" fill="#fff"/><path d="m256.445312 345.386719c-12.824218 0-25.648437-3.214844-37.339843-9.640625-3.296875-1.8125-4.5-5.957032-2.6875-9.253906 1.8125-3.296876 5.957031-4.5 9.25-2.6875 19.273437 10.59375 42.285156 10.59375 61.554687 0 3.296875-1.8125 7.441406-.609376 9.253906 2.6875 1.8125 3.296874.609376 7.441406-2.6875 9.253906-11.691406 6.425781-24.519531 9.640625-37.34375 9.640625zm0 0" fill="#dd9f8a"/><path d="m101.773438 204.601562c0-17.332031 2.957031-33.988281 8.417968-49.460937 7.796875-22.171875 20.675782-41.945313 37.25-57.882813l33.101563 60.015626c0 .003906 9.546875 47.328124-78.769531 47.328124zm0 0" fill="#efb29a"/><path d="m398.066406 261.242188c0 19.125-11.417968 35.933593-28.152344 45.519531 1.058594-47.980469-15.96875-79.453125-37.753906-99.386719 1.851563-.082031 3.757813-.121094 5.71875-.121094 7.019532 0 13.347656.640625 19.035156 1.839844 29.136719 6.199219 41.152344 27.191406 41.152344 52.148438zm0 0" fill="#efb29a"/><path d="m361.085938 365.441406c-.011719.007813-.023438.019532-.023438.019532 31.574219-54.890626 18.988281-119.324219-10.394531-159.46875-.011719-.007813-.03125-.039063-.050781-.058594-1.160157-1.621094-2.371094-3.191406-3.601563-4.710938-.039063-.039062-.078125-.097656-.117187-.128906-8.328126-10.316406-17.808594-18.753906-27.90625-24.613281-.019532-.03125-.050782-.039063-.070313-.0625-16.957031-9.816407-35.589844-12.40625-53.367187-4.558594-4.578126 2.019531-9.5 3.832031-14.648438 5.371094-38.441406 11.507812-89.320312 8.039062-105.296875-30.566407-37.023437-75.121093 38.421875-151.035156 129.042969-146.46875 45.25 2.289063 94.289062 24.65625 135 77.203126 121.214844 156.550781-45.886719 285.972656-48.566406 288.042968zm0 0" fill="#40b4d3"/><path d="m360.6875 294.042969c0 10.535156-8.542969 19.074219-19.078125 19.074219s-19.078125-8.539063-19.078125-19.074219c0-10.539063 8.542969-19.078125 19.078125-19.078125s19.078125 8.539062 19.078125 19.078125zm0 0" fill="#efb29a"/><path d="m190.347656 294.042969c0 10.535156-8.542968 19.074219-19.078125 19.074219-10.535156 0-19.078125-8.539063-19.078125-19.074219 0-10.539063 8.542969-19.078125 19.078125-19.078125 10.535157 0 19.078125 8.539062 19.078125 19.078125zm0 0" fill="#efb29a"/><path d="m445.578125 331.871094c0-7.507813-6.085937-23.753906-13.59375-23.753906-7.503906 0-13.589844 16.246093-13.589844 23.753906 0 7.507812 6.085938 13.59375 13.589844 13.59375 7.507813 0 13.59375-6.085938 13.59375-13.59375zm0 0" fill="#ffbb16"/><path d="m94.488281 331.871094c0-7.507813-6.085937-23.753906-13.59375-23.753906-7.503906 0-13.589843 16.246093-13.589843 23.753906 0 7.507812 6.085937 13.59375 13.589843 13.59375 7.507813-.003906 13.59375-6.085938 13.59375-13.59375zm0 0" fill="#ffbb16"/><path d="m387.058594 234.027344c-31.957032-101.597656-108.558594-91.511719-144.101563-91.511719-17.480469 0-32.898437-19.625-38.546875-30.328125-25.195312-47.738281 15.914063-111.988281 70.242188-111.988281-90.625-4.574219-166.066406 71.34375-129.039063 146.46875 15.976563 38.597656 66.84375 42.066406 105.292969 30.566406.015625-.007813.027344-.011719.042969-.019531 5.132812-1.535156 10.039062-3.339844 14.605469-5.351563 17.773437-7.851562 36.410156-5.261719 53.367187 4.558594.019531.019531.050781.027344.070313.058594 10.097656 5.859375 19.574218 14.296875 27.902343 24.613281.042969.03125.082031.089844.121094.132812 1.230469 1.519532 2.441406 3.089844 3.601563 4.707032.019531.019531.039062.050781.046874.0625 29.386719 40.140625 41.972657 104.578125 10.398438 159.464844 0 0 .011719-.011719.019531-.019532 1.050781-1.070312 53.15625-45.007812 25.976563-131.414062zm0 0" fill="#0084a6"/></svg>