<svg id="Capa_1" enable-background="new 0 0 512 512" height="512" viewBox="0 0 512 512" width="512" xmlns="http://www.w3.org/2000/svg"><g><g><path d="m456.969 407.139c27.744-39.712 44.031-88.02 44.031-140.139 0-135.31-109.69-245-245-245s-245 109.69-245 245c0 52.119 16.287 100.427 44.031 140.139z" fill="#ffdd40"/></g><g><circle cx="256" cy="242" fill="#ffc839" r="200"/></g><g><path d="m456.949 407.139c-8.256-22.709-16.99-42.685-24.722-51.911-.904-1.078-1.795-2.019-2.668-2.79-6.623-5.848-19.39-11.382-34.352-16.323-6.213-2.052-12.805-4-19.492-5.827l-17.097 8.627-15.126-16.49v-.001c-21.725-4.775-39.05-7.674-40.105-7.849h-94.772c-1.055.175-18.38 3.074-40.105 7.849v.001l-15.126 16.49-17.097-8.627c-6.687 1.827-13.279 3.775-19.492 5.827-14.961 4.941-27.729 10.475-34.352 16.323-.874.772-1.765 1.712-2.668 2.79-7.732 9.226-16.467 29.203-24.722 51.911-.001.009-.001.018-.002.026 17.68 25.3 40.017 47.102 65.763 64.173v-.009l23.805-33.664s57.319 74.334 111.383 74.334 111.383-74.334 111.383-74.334v-.001l23.805 33.664.004.006c25.744-17.071 48.08-38.872 65.759-64.171-.003-.006-.003-.015-.004-.024z" fill="#fcad6d"/></g><g><path d="m152.206 338.321-15.92-8.033c-6.687 1.827-13.279 3.775-19.492 5.827-14.961 4.941-27.729 10.475-34.352 16.323-.874.772-1.765 1.712-2.668 2.79-7.732 9.226-16.467 29.203-24.722 51.911-.001.009-.001.018-.002.026 17.68 25.3 40.017 47.102 65.763 64.173v-.009l23.805-33.664s10.415 13.502 26.548 28.997c-20.582-49.267-21.385-98.084-18.96-128.341z" fill="#fd995b"/></g><g><path d="m256 512c10.975 0 22.084-3.063 32.82-7.946-27.161-14.321-32.124-41.822-32.82-54.859-.697 13.051-5.533 40.596-32.716 54.905 10.704 4.855 21.777 7.9 32.716 7.9z" fill="#fd995b"/></g><g><path d="m276.616 369.362s10.767-11.809 23.703-11.809 55.191 11.809 55.191 11.809z" fill="#fd995b"/></g><g><path d="m235.384 369.362s-10.767-11.809-23.703-11.809-55.191 11.809-55.191 11.809z" fill="#fd995b"/></g><g><path d="m257.301 23.132s-96.419-20.934-141.948 68.378c-2.895 5.679 3.181 11.732 8.83 8.778 7.547-3.947 16.671 1.107 17.328 9.599l.219 2.829c.504 6.515 9.223 8.341 12.273 2.561 14.456-27.395 45.707-71.785 103.298-92.145z" fill="#e9efff"/></g><g><path d="m396.013 287.722c-11.862-25.873-12.361-60.955-12.38-105.631.01-.481.02-20.731.027-54.398.016-70.515-57.144-127.693-127.66-127.693-24.274 0-43.951 9.85-43.951 22s19.677 22 43.951 22v132.482c0 71.12 57.654 128.775 128.775 128.775 9.021 0 14.998-9.335 11.238-17.535z" fill="#4432ad"/></g><g><path d="m391.147 471.33c6.374-4.223 12.555-8.713 18.491-13.499-4.027-11.7-11.689-21.884-21.736-29.06v42.559z" fill="#fd995b"/></g><g><path d="m124.098 471.33v-42.559c-10.047 7.176-17.708 17.36-21.736 29.06 5.936 4.786 12.117 9.277 18.491 13.499z" fill="#ef854b"/></g><g><path d="m388.475 430.01c5.083 11.116 6.792 23.941 3.878 37.022-.604 2.713-1.146 4.246-1.165 4.298v.009c-38.749 25.687-85.216 40.661-135.188 40.661 51.383-30.489 87.491-99.723 87.491-189.575 10.183 2.238 21.328 4.887 32.223 7.863.113 37.786 6.718 74.222 12.761 99.722z" fill="#ff4155"/></g><g><path d="m123.525 430.01c-5.083 11.116-6.792 23.941-3.878 37.022.604 2.713 1.146 4.246 1.165 4.298v.009c38.749 25.687 85.216 40.661 135.188 40.661-51.383-30.489-87.491-99.723-87.491-189.575-10.183 2.238-21.328 4.887-32.223 7.863-.113 37.786-6.718 74.222-12.761 99.722z" fill="#ff4155"/></g><g><path d="m208.614 221.239v93.336s19.021 20.093 47.17 20.093c.073 0 .143-.005.216-.005 28.031-.103 47.386-20.088 47.386-20.088v-93.336z" fill="#fcad6d"/></g><g><path d="m208.614 220.734v93.841c94.723 0 94.772-53.4 94.772-53.4v-40.44h-94.772z" fill="#fd995b"/></g><g><path d="m256 419.575c-19.652 0-35.261-18.001-46.392-53.504-7.896-25.186-10.579-49.928-10.688-50.969-.291-2.746 1.698-5.207 4.444-5.499 2.754-.285 5.208 1.699 5.499 4.444 2.825 26.57 16.802 95.527 47.137 95.527s44.309-68.957 47.134-95.527c.291-2.745 2.743-4.734 5.499-4.444 2.746.291 4.735 2.753 4.445 5.498-.11 1.041-2.792 25.784-10.688 50.97-11.13 35.503-26.738 53.504-46.39 53.504z" fill="#dae2fe"/></g><g><path d="m256 358.298c-23.414 0-37.67-11.537-45.507-21.215-8.401-10.377-11.305-20.751-11.424-21.188-.729-2.664.839-5.414 3.502-6.143 2.664-.73 5.405.834 6.14 3.489.399 1.432 10.222 35.056 47.289 35.056 37.264 0 47.187-34.691 47.283-35.042.728-2.663 3.477-4.235 6.142-3.503 2.664.729 4.232 3.479 3.503 6.142-.119.437-3.021 10.812-11.423 21.188-7.835 9.679-22.091 21.216-45.505 21.216z" fill="#e9efff"/></g><g><path d="m256 22c-58.069 0-105.143 47.074-105.143 105.143v20.076h210.286v-20.076c0-58.069-47.074-105.143-105.143-105.143z" fill="#7255ce"/></g><g><path d="m208.916 134.364c-15.966-22.403-24.512-70.683 6.303-104.161-37.814 15.927-64.362 53.332-64.362 96.939v20.076h71.293c-5.61-4.332-10.265-8.688-13.234-12.854z" fill="#5c45bf"/></g><g><path d="m331.058 159.567s10.385-25.285 28.897-19.415-.448 60.664-36.573 64.116z" fill="#fcad6d"/></g><g><path d="m180.942 159.567s-10.385-25.285-28.897-19.415.448 60.664 36.573 64.116z" fill="#fd995b"/></g><g><path d="m327.049 124.754c-3.509-10.287-9.219-24.496-16.225-32.717-3.978-3.853-8.145-7.046-12.399-9.103-8.195-3.963-15.758-4.069-22.16-2.497-13.314 3.269-27.216 3.268-40.53 0-6.402-1.572-13.966-1.466-22.16 2.497-4.254 2.057-8.421 5.25-12.399 9.103-7.006 8.221-12.716 22.43-16.225 32.717-2.762 8.097-8.72 14.703-16.484 18.295-.031 1.23-.063 2.46-.063 3.705 0 64.505 39.219 140.155 87.597 140.155s87.597-75.651 87.597-140.155c0-1.245-.032-2.475-.063-3.705-7.766-3.592-13.724-10.198-16.486-18.295z" fill="#f9ba8f"/></g><g><path d="m208.403 146.754c0-25.925 6.339-48.917 17.057-67.152-3.755.312-7.739 1.327-11.885 3.333-4.254 2.057-8.421 5.25-12.399 9.103-7.006 8.221-12.716 22.43-16.225 32.717-2.762 8.097-8.72 14.703-16.484 18.295-.031 1.23-.063 2.46-.063 3.705 0 64.505 39.219 140.155 87.597 140.155 6.881 0 13.576-1.535 20-4.346-38.742-16.953-67.598-80.48-67.598-135.81z" fill="#fcad6d"/></g><g><g><path d="m242.013 192.447 8.436-13.441c2.569-4.093 8.533-4.093 11.102 0l8.436 13.441c2.739 4.365-.398 10.038-5.551 10.038h-16.871c-5.154-.001-8.291-5.674-5.552-10.038z" fill="#fd995b"/></g></g><g><g><path d="m235.384 240.87h41.233c4.111-3.622 7.258-8.309 9.01-13.631 1.584-4.811-2.069-9.754-7.134-9.754h-44.985c-5.065 0-8.718 4.943-7.134 9.754 1.752 5.322 4.899 10.009 9.01 13.631z" fill="#162544"/></g><g><path d="m276.616 240.87c-5.493 4.849-12.714 7.798-20.616 7.798s-15.124-2.948-20.616-7.798c5.5-4.849 12.714-7.798 20.616-7.798s15.116 2.949 20.616 7.798z" fill="#ff4155"/></g></g><g><path d="m223.5 138.968h-20c-4.142 0-7.5-3.358-7.5-7.5 0-4.142 3.358-7.5 7.5-7.5h20c4.142 0 7.5 3.358 7.5 7.5 0 4.142-3.358 7.5-7.5 7.5z" fill="#162544"/></g><g><path d="m308.5 138.968h-20c-4.142 0-7.5-3.358-7.5-7.5 0-4.142 3.358-7.5 7.5-7.5h20c4.142 0 7.5 3.358 7.5 7.5 0 4.142-3.358 7.5-7.5 7.5z" fill="#162544"/></g><g><path d="m311.239 162.03c.043-3.495-1.371-7.004-4.242-9.539-4.675-4.128-11.84-4.128-16.515 0-2.871 2.535-4.284 6.044-4.242 9.539.055 4.538 5.629 6.716 8.838 3.507 2.022-2.022 5.3-2.022 7.322 0 3.21 3.209 8.784 1.031 8.839-3.507z" fill="#162544"/></g><g><path d="m200.761 162.03c-.043-3.495 1.371-7.004 4.242-9.539 4.675-4.128 11.84-4.128 16.515 0 2.871 2.535 4.284 6.044 4.242 9.539-.055 4.538-5.629 6.716-8.838 3.507-2.022-2.022-5.3-2.022-7.322 0-3.21 3.209-8.784 1.031-8.839-3.507z" fill="#162544"/></g></g></svg>