<svg id="Capa_1" enable-background="new 0 0 512 512" height="512" viewBox="0 0 512 512" width="512" xmlns="http://www.w3.org/2000/svg"><g><path d="m480.133 369.864c0-27.472-17.604-51.853-43.68-60.497l-69.724-23.113h-33.173l48.146 225.746h98.431z" fill="#332866"/><path d="m303.131 286.254 48.146 225.746h30.425l-38.146-225.746z" fill="#180a33"/><path d="m246 330.539 10 181.461h95.277l-13.028-77.101z" fill="#ece6f2"/><path d="m338.249 434.899-25.117-148.645h-67.131l10 64.286c-.001-.001 25.621 65.922 82.248 84.359z" fill="#cfcfe6"/><path d="m31.867 369.864c0-27.472 17.604-51.853 43.68-60.497l69.724-23.113h33.173l-48.146 225.746h-98.431z" fill="#574d8c"/><path d="m208.869 286.254-48.146 225.746h-30.425l38.146-225.746z" fill="#332866"/><path d="m256 330.539v181.461h-95.277l13.028-77.101z" fill="#fff5f5"/><path d="m173.751 434.899 25.117-148.645h57.131v64.286c.001-.001-25.621 65.922-82.248 84.359z" fill="#ece6f2"/><path d="m246 220.722 10 129.818c70.399 0 127.469-57.07 127.469-127.469v-2.349z" fill="#5b362a"/><path d="m128.531 220.722v2.349c0 70.399 57.07 127.469 127.469 127.469v-129.818z" fill="#895140"/><path d="m373.469 191.204h31.867c17.6 0 31.868-14.268 31.868-31.868 0-17.6-14.268-31.868-31.868-31.868h-31.867z" fill="#b56d3c"/><path d="m138.531 191.204h-31.867c-17.6 0-31.868-14.268-31.868-31.868 0-17.6 14.268-31.868 31.868-31.868h31.867z" fill="#c78f2c"/><path d="m383.469 220.722v-93.253c0-5.719-.383-11.348-1.113-16.867l-136.356-10 10 170.27c49.595-.001 94.563-19.125 127.469-50.15z" fill="#c78f2c"/><path d="m129.644 110.602c-.73 5.519-1.113 11.148-1.113 16.867v93.253c32.906 31.025 77.874 50.15 127.469 50.15v-170.27z" fill="#e1bb78"/><path d="m374.575 80.602-128.575-10 10 40h126.356c-1.382-10.453-4.025-20.507-7.781-30z" fill="#cfcfe6"/><path d="m137.425 80.602c-3.756 9.494-6.399 19.548-7.781 30h126.356v-40z" fill="#ece6f2"/><path d="m184.299 144.336h31.867v30h-31.867z" fill="#332866"/><path d="m295.834 144.336h31.867v30h-31.867z" fill="#180a33"/><path d="m374.575 80.602c-18.675-47.209-64.724-80.602-118.575-80.602l-10 40.301 10 40.301z" fill="#ece6f2"/><path d="m256 0c-53.851 0-99.9 33.393-118.575 80.602h118.575z" fill="#fff5f5"/></g></svg>