<svg height="512pt" viewBox="0 0 512 512" width="512pt" xmlns="http://www.w3.org/2000/svg"><path d="m512 256c0 77.589844-34.519531 147.121094-89.039062 194.058594-20.539063 17.691406-43.921876 32.171875-69.359376 42.671875-30.082031 12.417969-63.042968 19.269531-97.601562 19.269531s-67.519531-6.851562-97.601562-19.269531c-25.4375-10.5-48.820313-24.980469-69.359376-42.671875-54.519531-46.9375-89.039062-116.46875-89.039062-194.058594 0-140 112.398438-253.738281 251.871094-255.9414062.179687-.0078126.347656-.0078126.519531-.0078126.398437-.0117187.800781-.0195312 1.1875-.03125.8125-.0078124 1.621094-.0195312 2.421875-.0195312s1.609375.0117188 2.421875.0195312c.386719.0117188.789063.0195313 1.1875.03125.171875 0 .339844 0 .519531.0078126 139.472656 2.2031252 251.871094 115.9414062 251.871094 255.9414062zm0 0" fill="#40b4d3"/><path d="m398.410156 468.761719c-12.339844 8.277343-25.441406 15.519531-39.179687 21.566406-10.652344 4.703125-21.679688 8.703125-33.03125 11.921875-22.300781 6.351562-45.847657 9.75-70.199219 9.75-24.339844 0-47.890625-3.398438-70.199219-9.738281-7.242187-2.0625-14.359375-4.441407-21.332031-7.121094-.429688-.160156-.859375-.320313-1.289062-.492187-3.507813-1.359376-6.980469-2.808594-10.410157-4.320313-13.738281-6.058594-26.839843-13.289063-39.191406-21.578125 10.390625-14.371094 23.761719-26.429688 39.191406-35.320312 10.199219-5.871094 21.300781-10.339844 33.03125-13.148438 1.808594-.441406 3.640625-.839844 5.480469-1.191406 3.46875-.679688 7-1.199219 10.570312-1.570313 1.027344-.109375 2.046876-.210937 3.089844-.289062 3.378906-.28125 6.796875-.421875 10.257813-.421875h81.589843c4.519532 0 8.972657.242187 13.351563.703125 3.570313.367187 7.089844.898437 10.570313 1.558593 1.390624.269532 2.769531.558594 4.140624.871094.449219.117188.910157.207032 1.347657.328125 11.742187 2.820313 22.832031 7.289063 33.03125 13.160157 15.429687 8.898437 28.789062 20.960937 39.179687 35.332031zm0 0" fill="#2f373b"/><path d="m215.199219 416.808594c-29.359375 0-49.257813 42.429687-50.730469 78.332031-.429688-.160156-.859375-.320313-1.289062-.492187-3.507813-1.359376-6.980469-2.808594-10.410157-4.320313-13.738281-6.058594-26.839843-13.289063-39.191406-21.578125 10.390625-14.371094 23.761719-26.429688 39.191406-35.320312 10.199219-5.871094 21.300781-10.339844 33.03125-13.148438 1.808594-.441406 3.640625-.839844 5.480469-1.191406 3.46875-.679688 7-1.199219 10.570312-1.570313 1.027344-.109375 2.046876-.210937 3.089844-.289062 3.378906-.28125 6.796875-.421875 10.257813-.421875zm0 0" fill="#181e21"/><path d="m300.707031 368.539062v54.867188c0 20.089844-13.246093 37.066406-31.488281 42.707031-4.179688 1.296875-8.628906 1.996094-13.230469 1.996094-24.691406 0-44.703125-20.011719-44.703125-44.703125v-54.867188zm0 0" fill="#efb29a"/><path d="m300.707031 419.933594v3.472656c0 20.089844-13.246093 37.066406-31.488281 42.707031-16.460938-5.058593-28.839844-19.371093-31.125-36.882812 2.988281.183593 5.992188.273437 9.007812.273437 8.460938 0 16.75-.671875 24.828126-1.996094 9.953124-1.601562 19.570312-4.160156 28.777343-7.574218zm0 0" fill="#f9c5ac"/><path d="m132.539062 278.152344c0 20.496094-14.972656 37.492187-34.578124 40.648437-2.144532.34375-4.347657.527344-6.597657.527344-22.746093 0-41.171875-18.429687-41.171875-41.175781s18.425782-41.175782 41.171875-41.175782c2.25 0 4.453125.179688 6.597657.527344 19.605468 3.15625 34.578124 20.152344 34.578124 40.648438zm0 0" fill="#f9c5ac"/><path d="m132.539062 278.152344c0 20.496094-14.972656 37.492187-34.578124 40.648437-3.5625-12.953125-5.464844-26.582031-5.464844-40.648437s1.902344-27.695313 5.464844-40.644532c19.605468 3.152344 34.578124 20.148438 34.578124 40.644532zm0 0" fill="#efb29a"/><path d="m106.082031 278.152344c0 8.128906-6.589843 14.714844-14.71875 14.714844-8.125 0-14.714843-6.585938-14.714843-14.714844 0-8.125 6.589843-14.714844 14.714843-14.714844 8.128907 0 14.71875 6.589844 14.71875 14.714844zm0 0" fill="#efb29a"/><path d="m379.449219 278.152344c0 20.496094 14.972656 37.492187 34.578125 40.648437 2.144531.34375 4.347656.527344 6.597656.527344 22.746094 0 41.175781-18.429687 41.175781-41.175781s-18.429687-41.175782-41.175781-41.175782c-2.25 0-4.453125.179688-6.597656.527344-19.605469 3.15625-34.578125 20.152344-34.578125 40.648438zm0 0" fill="#f9c5ac"/><path d="m379.449219 278.152344c0 20.496094 14.972656 37.492187 34.578125 40.648437 3.5625-12.953125 5.464844-26.582031 5.464844-40.648437s-1.902344-27.695313-5.464844-40.644532c-19.605469 3.152344-34.578125 20.148438-34.578125 40.644532zm0 0" fill="#efb29a"/><path d="m435.339844 278.152344c0 8.128906-6.589844 14.714844-14.714844 14.714844-8.128906 0-14.71875-6.585938-14.71875-14.714844 0-8.125 6.589844-14.714844 14.71875-14.714844 8.125 0 14.714844 6.589844 14.714844 14.714844zm0 0" fill="#efb29a"/><path d="m410.695312 256.511719c0 76.984375-56.242187 140.847656-129.871093 152.703125-8.078125 1.328125-16.371094 2-24.828125 2-85.445313 0-154.703125-69.257813-154.703125-154.703125v-157.5h309.402343zm0 0" fill="#f9c5ac"/><path d="m283.242188 408.808594c-.800782.140625-1.609376.28125-2.417969.410156-8.082031 1.320312-16.371094 1.992188-24.832031 1.992188-85.4375 0-154.699219-69.25-154.699219-154.699219v-157.5h54.550781v157.5c0 76.136719 54.980469 139.410156 127.398438 152.296875zm0 0" fill="#efb29a"/><path d="m255.996094 337.929688c-12.957032 0-25.910156-3.246094-37.71875-9.738282-3.328125-1.828125-4.542969-6.011718-2.714844-9.34375 1.832031-3.332031 6.015625-4.546875 9.347656-2.714844 19.464844 10.699219 42.707032 10.699219 62.167969 0 3.332031-1.832031 7.515625-.617187 9.347656 2.714844 1.832031 3.332032.617188 7.515625-2.714843 9.34375-11.808594 6.492188-24.761719 9.738282-37.714844 9.738282zm0 0" fill="#dd9f8a"/><path d="m273.542969 291.695312h-35.097657c-4.179687 0-7.570312-3.390624-7.570312-7.570312 0-4.183594 3.390625-7.570312 7.570312-7.570312h35.097657c4.183593 0 7.570312 3.386718 7.570312 7.570312 0 4.179688-3.386719 7.570312-7.570312 7.570312zm0 0" fill="#efb29a"/><path d="m281.339844 249.160156c0 17.164063 13.914062 31.082032 31.082031 31.082032 17.164063 0 31.078125-13.917969 31.078125-31.082032" fill="#efb29a"/><path d="m334.707031 249.160156c0 12.308594-9.976562 22.289063-22.285156 22.289063-12.3125 0-22.289063-9.980469-22.289063-22.289063s9.976563-22.285156 22.289063-22.285156c12.308594 0 22.285156 9.976562 22.285156 22.285156zm0 0" fill="#2f373b"/><path d="m331.257812 245.226562c0 5.277344-4.277343 9.550782-9.550781 9.550782-5.273437 0-9.550781-4.273438-9.550781-9.550782 0-5.273437 4.277344-9.546874 9.550781-9.546874 5.273438 0 9.550781 4.273437 9.550781 9.546874zm0 0" fill="#fff"/><path d="m168.488281 249.160156c0 17.164063 13.917969 31.082032 31.082031 31.082032 17.164063 0 31.078126-13.917969 31.078126-31.082032" fill="#efb29a"/><path d="m221.855469 249.160156c0 12.308594-9.976563 22.289063-22.285157 22.289063-12.308593 0-22.289062-9.980469-22.289062-22.289063s9.980469-22.285156 22.289062-22.285156c12.308594 0 22.285157 9.976562 22.285157 22.285156zm0 0" fill="#2f373b"/><path d="m204.78125 270.832031c-1.667969.410157-3.417969.617188-5.210938.617188-12.308593 0-22.289062-9.976563-22.289062-22.289063 0-12.308594 9.980469-22.289062 22.289062-22.289062 1.792969 0 3.542969.210937 5.210938.621094-9.800781 2.339843-17.070312 11.160156-17.070312 21.667968 0 10.511719 7.269531 19.332032 17.070312 21.671875zm0 0" fill="#181e21"/><path d="m317.632812 270.832031c-1.671874.410157-3.421874.617188-5.210937.617188-12.308594 0-22.289063-9.976563-22.289063-22.289063 0-12.308594 9.980469-22.289062 22.289063-22.289062 1.789063 0 3.539063.210937 5.210937.621094-9.800781 2.339843-17.070312 11.160156-17.070312 21.667968 0 10.511719 7.269531 19.332032 17.070312 21.671875zm0 0" fill="#181e21"/><path d="m218.40625 245.226562c0 5.277344-4.273438 9.550782-9.546875 9.550782-5.277344 0-9.550781-4.273438-9.550781-9.550782 0-5.273437 4.273437-9.546874 9.550781-9.546874 5.273437 0 9.546875 4.273437 9.546875 9.546874zm0 0" fill="#fff"/><path d="m431.558594 360.398438c-13.328125 30-12.796875 63.171874-8.597656 89.660156-20.539063 17.691406-43.921876 32.171875-69.359376 42.671875-8.140624-31.402344-20.179687-95.160157-.851562-145.289063 26.710938-69.292968 9.480469-104.261718-10.96875-124.710937-20.460938-20.449219-85.769531-10.609375-85.769531-45.742188h-.023438c0 35.132813-65.308593 25.292969-85.769531 45.742188-20.449219 20.449219-37.679688 55.417969-10.96875 124.710937 19.328125 50.128906 7.289062 113.886719-.851562 145.289063-11.476563-4.742188-22.539063-10.28125-33.109376-16.582031-12.847656-7.636719-24.980468-16.378907-36.25-26.089844 4.199219-26.488282 4.730469-59.660156-8.597656-89.660156-27.941406-62.847657 9.96875-135.667969 20.847656-170.707032 10.882813-35.050781-7.117187-81.722656-7.117187-81.722656 6.019531-65.808594 93.21875-106.238281 157.699219-107.9101562h.109375c.53125-.0273438 1.070312-.0390626 1.597656-.0390626.8125-.0078124 1.621094-.0195312 2.421875-.0195312s1.609375.0117188 2.421875.0195312c.386719.0117188.789063.0195313 1.1875.03125.171875 0 .339844 0 .519531.0078126 64.480469 1.6718752 151.679688 42.1015622 157.699219 107.9101562 0 0-18 46.671875-7.117187 81.722656 10.878906 35.039063 48.789062 107.859375 20.847656 170.707032zm0 0" fill="#d9723e"/><path d="m193.5 108.339844c12.640625 37.910156-.558594 71.109375-.558594 71.109375s-72.601562 27.320312-77.921875 83.851562c-5.21875 55.429688 47.121094 124.289063 10.269531 212.847657-12.847656-7.636719-24.980468-16.378907-36.25-26.089844 4.199219-26.488282 4.730469-59.660156-8.597656-89.660156-27.941406-62.847657 9.96875-135.667969 20.847656-170.707032 10.882813-35.050781-7.117187-81.722656-7.117187-81.722656 6.019531-65.808594 93.21875-106.238281 157.699219-107.9101562h.109375c-39.390625 1.8320312-70.941407 70.8710942-58.480469 108.2812502zm0 0" fill="#bd5423"/><path d="m433.148438 130.789062c-3.058594 14.800782-6.128907 29.601563-9.1875 44.402344-2.121094 10.25-12.039063 16.886719-22.339844 15.007813-52.230469-9.558594-105.171875-13.929688-158.042969-13.121094-7.148437.113281-14.296875.3125-21.449219.613281-34.597656 1.449219-69.117187 5.117188-103.359375 11.019532-2.800781.480468-5.597656.980468-8.398437 1.488281-3.570313.652343-7.082032.28125-10.25-.910157-5.980469-2.238281-10.699219-7.398437-12.089844-14.097656-3.0625-14.800781-6.132812-29.601562-9.191406-44.402344-2.191406-10.558593 4.730468-20.867187 15.332031-22.820312 20.316406-3.738281 40.726563-6.769531 61.207031-9.097656 7.109375-.800782 14.242188-1.519532 21.371094-2.152344 26.238281-2.339844 52.558594-3.519531 78.878906-3.527344 7.3125-.011718 14.609375.078125 21.910156.257813 46.972657 1.128906 93.871094 5.980469 140.269532 14.519531 10.613281 1.953125 17.53125 12.261719 15.339844 22.820312zm0 0" fill="#2f373b"/><path d="m151.207031 183.804688c-13.648437 1.78125-27.269531 3.917968-40.839843 6.398437-10.300782 1.882813-20.210938-4.757813-22.339844-15.007813-3.058594-14.800781-6.128906-29.601562-9.191406-44.402343-2.1875-10.558594 4.730468-20.867188 15.339843-22.820313 16.832031-3.097656 33.722657-5.707031 50.660157-7.828125-5.46875 4.441407-8.640626 11.507813-7.769532 19.050781 1.921875 16.667969 3.851563 33.339844 5.769532 50.007813.699218 6.039063 3.859374 11.199219 8.371093 14.601563zm0 0" fill="#181e21"/><g fill="#f93d6e"><path d="m410.652344 128.957031c0 6.058594-4.914063 10.972657-10.976563 10.972657-6.058593 0-10.972656-4.914063-10.972656-10.972657 0-6.0625 4.914063-10.976562 10.972656-10.976562 6.0625 0 10.976563 4.914062 10.976563 10.976562zm0 0"/><path d="m377.671875 160.21875c0 6.058594-4.910156 10.972656-10.972656 10.972656s-10.972657-4.914062-10.972657-10.972656c0-6.0625 4.910157-10.976562 10.972657-10.976562s10.972656 4.914062 10.972656 10.976562zm0 0"/><path d="m341.214844 119.054688c0 6.058593-4.914063 10.972656-10.976563 10.972656-6.058593 0-10.972656-4.914063-10.972656-10.972656 0-6.0625 4.914063-10.976563 10.972656-10.976563 6.0625 0 10.976563 4.914063 10.976563 10.976563zm0 0"/><path d="m305.902344 148.90625c0 6.0625-4.914063 10.976562-10.976563 10.976562-6.058593 0-10.972656-4.914062-10.972656-10.976562 0-6.058594 4.914063-10.972656 10.972656-10.972656 6.0625 0 10.976563 4.914062 10.976563 10.972656zm0 0"/><path d="m277.550781 93.960938c0 6.058593-4.910156 10.980468-10.972656 10.980468-6.058594 0-10.976563-4.921875-10.976563-10.980468 0-.261719.007813-.519532.027344-.769532 7.3125-.011718 14.609375.078125 21.910156.257813.011719.171875.011719.339843.011719.511719zm0 0"/><path d="m243.761719 175.089844c0 .679687-.0625 1.351562-.183594 1.988281-7.148437.113281-14.296875.3125-21.449219.613281-.207031-.832031-.320312-1.703125-.320312-2.601562 0-6.058594 4.910156-10.980469 10.972656-10.980469 6.058594 0 10.980469 4.921875 10.980469 10.980469zm0 0"/><path d="m239.972656 130.339844c0 6.058594-4.914062 10.972656-10.976562 10.972656-6.058594 0-10.972656-4.914062-10.972656-10.972656 0-6.0625 4.914062-10.976563 10.972656-10.976563 6.0625 0 10.976562 4.914063 10.976562 10.976563zm0 0"/><path d="m177.261719 100.039062c0 6.0625-4.910157 10.972657-10.972657 10.972657-6.058593 0-10.980468-4.910157-10.980468-10.972657 0-.398437.019531-.789062.070312-1.167968 7.109375-.800782 14.242188-1.519532 21.371094-2.152344.328125 1.050781.511719 2.160156.511719 3.320312zm0 0"/><path d="m169.230469 146.46875c0 6.0625-4.914063 10.972656-10.972657 10.972656-6.0625 0-10.976562-4.910156-10.976562-10.972656 0-6.058594 4.914062-10.972656 10.976562-10.972656 6.058594 0 10.972657 4.914062 10.972657 10.972656zm0 0"/><path d="m120.238281 183.230469c0 2-.527343 3.871093-1.46875 5.480469-2.800781.480468-5.597656.980468-8.398437 1.488281-3.570313.652343-7.082032.28125-10.25-.910157-1.160156-1.730468-1.832032-3.820312-1.832032-6.058593 0-6.058594 4.921876-10.96875 10.980469-10.96875 6.058594 0 10.96875 4.910156 10.96875 10.96875zm0 0"/><path d="m117.519531 131.234375c0 6.0625-4.910156 10.976563-10.972656 10.976563s-10.972656-4.914063-10.972656-10.976563c0-6.058594 4.910156-10.972656 10.972656-10.972656s10.972656 4.914062 10.972656 10.972656zm0 0"/></g></svg>