<svg id="Capa_1" enable-background="new 0 0 512 512" height="512" viewBox="0 0 512 512" width="512" xmlns="http://www.w3.org/2000/svg"><g><path d="m0 256c0-141.285 114.453-255.837 255.699-256 139.93-.161 254.687 113.09 256.284 253.011.937 82.121-36.798 155.466-96.127 202.956-3.374 2.701-8.132 2.775-11.654.27-41.824-29.746-92.97-47.237-148.202-47.237-55.298 0-106.501 17.533-148.353 47.343-3.431 2.444-8.069 2.369-11.359-.261-58.691-46.91-96.288-119.105-96.288-200.082z" fill="#fcc1b8"/><path d="m455.17 256c0 109.999-89.172 199.17-199.17 199.17-109.999 0-199.17-89.172-199.17-199.17s89.171-199.17 199.17-199.17 199.17 89.171 199.17 199.17z" fill="#fccfc9"/><path d="m228.944 270h-92.178c-6.498 0-11.766-5.268-11.766-11.766v-123.978c0-4.586.256-9.112.755-13.564.881-7.87 7.458-13.862 15.378-13.862h79.179c-2.049 8.811-3.133 17.992-3.133 27.426v123.978c-.001 6.498 5.267 11.766 11.765 11.766z" fill="#61362b"/><path d="m387 185.439v72.795c0 6.498-5.268 11.766-11.766 11.766h-202.468c-6.498 0-11.766-5.268-11.766-11.766v-90.908h207.886c10.004 0 18.114 8.109 18.114 18.113z" fill="#784132"/><path d="m171 185.267v10c0 13.807-11.193 25-25 25s-25-11.193-25-25v-10c0-13.807 11.193-25 25-25s25 11.193 25 25z" fill="#f2bb88"/><path d="m391 185.267v10c0 13.807-11.193 25-25 25-2.468 0-4.853-.358-7.105-1.024-12.254 32.332-39.309 57.384-72.895 66.883v23.874c-11.716 11.716-18.284 18.284-30 30-11.716-11.716-18.284-18.284-30-30v-23.874c-46.17-13.059-80-55.508-80-105.859v-40c0-60.751 49.249-110 110-110 60.751 0 110 49.249 110 110v20c13.807 0 25 11.193 25 25zm-245.002-25c-13.806.001-24.998 11.194-24.998 25v10c0 13.806 11.192 24.999 24.998 25-6.071-4.561-9.998-11.822-9.998-20v-20c0-8.178 3.927-15.439 9.998-20z" fill="#e3a76f"/><path d="m366 140.267v40c0 50.792-34.425 93.543-81.216 106.195-9.023 2.44-18.545 2.44-27.568 0-46.791-12.652-81.216-55.403-81.216-106.195v-40c0-55.663 41.345-101.669 95-108.985 53.655 7.315 95 53.322 95 108.985z" fill="#f2bb88"/><path d="m270.5 186.998c-3.875 3.875-9.024 6.009-14.5 6.009s-10.625-2.134-14.5-6.009c-2.929-2.93-2.929-7.678 0-10.607 2.929-2.928 7.678-2.928 10.606 0 1.042 1.042 2.424 1.616 3.893 1.616s2.851-.574 3.893-1.616c2.929-2.928 7.678-2.928 10.606 0 2.931 2.93 2.931 7.678.002 10.607z" fill="#e3a76f"/><path d="m286 220.267c0 16.569-13.431 30-30 30s-30-13.431-30-30c0-4.142 3.358-7.5 7.5-7.5h45c4.142 0 7.5 3.358 7.5 7.5z" fill="#fff5f5"/><path d="m263.5 249.322c-2.397.617-4.91.945-7.5.945-16.568 0-30-13.431-30-30 0-4.142 3.358-7.5 7.5-7.5h15c-4.142 0-7.5 3.358-7.5 7.5 0 13.979 9.561 25.724 22.5 29.055z" fill="#def4f8"/><path d="m233.653 148.544c1.877 3.692.406 8.208-3.286 10.085-3.693 1.878-8.207.406-10.085-3.285-3.125-6.143-10.664-8.6-16.808-5.477-3.692 1.877-8.207.405-10.085-3.287-1.877-3.692-.406-8.207 3.286-10.084 6.758-3.436 14.284-3.803 20.98-1.621s12.561 6.911 15.998 13.669zm81.671-12.048c-6.758-3.436-14.284-3.803-20.98-1.621s-12.561 6.912-15.998 13.67c-1.877 3.692-.406 8.208 3.286 10.085 3.693 1.878 8.207.406 10.085-3.285 3.125-6.143 10.664-8.6 16.808-5.477 3.692 1.877 8.207.405 10.085-3.287 1.878-3.693.406-8.208-3.286-10.085z" fill="#a65d4e"/><path d="m387 134.256v37.441c-27.101-6.359-49.316-25.433-60.047-50.55h-10.018c-23.734 0-45.247-9.511-60.935-24.93-15.688 15.419-37.2 24.93-60.935 24.93h-17.757c-4.674 0-8.298-4.083-7.761-8.726 5.818-50.271 19.408-63.036 60.453-86.038l25.294-8.819c8.513-2.968 17.599-4.046 26.542-2.905.051.007.102.013.153.02.004 0 .007.001.011.001 59.234 7.639 105 58.263 105 119.576z" fill="#784132"/><path d="m281.978 14.677c-54.965 7.078-98.338 51.167-104.317 106.469h-51.956c6.533-60.424 57.708-107.463 119.869-107.463h20.854c5.269 0 10.459.339 15.55.994z" fill="#61362b"/><path d="m209.333 321.416c-38.66 0-70 31.34-70 70v7.334h-39.83c-1.935 0-3.503-1.568-3.503-3.503v-3.831c0-38.66 31.34-70 70-70z" fill="#c83c50"/><path d="m416 391.416v3.959c0 1.864-1.511 3.375-3.375 3.375-28.559 0-51.71 23.151-51.71 51.71v19.725c0 12.18-7.685 23.02-19.162 27.099-22.622 8.041-46.709 12.99-71.753 14.34-.603.033-1.524-.569-2.423-1.315-2.094-1.736-4.759-2.633-7.479-2.584h-.017c-2.635.058-5.187.992-7.199 2.694-.98.829-2.057 1.53-2.882 1.511-28.043-.645-54.971-5.799-80.088-14.766-10.347-3.694-17.246-13.508-17.246-24.495v-73.92h-26.666v-7.334c0-38.66 31.34-70 70-70h4v-6.415c0-8.284 6.716-15 15-15h30c8.284 0 15 6.716 15 15v6.416h6v-6.416c0-8.284 6.716-15 15-15h14c8.284 0 15 6.716 15 15v6.416h36c7.741 0 15.189 1.257 22.151 3.577.282.094.576.347.853.66 1.441 1.631 3.288 2.853 5.271 3.75l.178.08c1.776.801 3.682 1.262 5.625 1.403.707.051 1.399.172 1.819.423 20.427 12.225 34.103 34.569 34.103 60.107z" fill="#fb5858"/><path d="m320.33 410c4.143 0 7.5 3.358 7.5 7.5 0 15.164-12.337 27.5-27.5 27.5-4.143 0-7.5-3.358-7.5-7.5s3.357-7.5 7.5-7.5c6.893 0 12.5-5.607 12.5-12.5 0-4.142 3.357-7.5 7.5-7.5zm55.904-66.187c2.278-3.92 4.173-8.088 5.633-12.454-4.302-2.571-8.902-4.694-13.737-6.304-4.212 14.047-14.161 25.639-27.113 32.042.856-7.991-1.772-16.288-7.883-22.4-2.93-2.928-7.679-2.929-10.606 0-2.93 2.929-2.93 7.678-.001 10.607 4.63 4.629 4.861 12.016.696 16.922-1.773.182-3.572.275-5.392.275-24.617 0-46.199 13.247-57.991 32.986-9.218-19.479-29.066-32.986-52.009-32.986-6.489 0-15-5.608-15-12.5 0-4.142-3.358-7.5-7.501-7.5-2.071 0-3.946.84-5.303 2.197s-2.197 3.232-2.197 5.304c0 8.508 3.884 16.126 9.972 21.174-4.631 4.924-7.472 11.549-7.472 18.826 0 4.142 3.357 7.5 7.5 7.5s7.5-3.358 7.5-7.5c0-6.893 5.607-12.5 12.5-12.5 23.435 0 42.5 19.065 42.5 42.5 0 .866.147 1.698.417 2.472-.276 2.472-.417 4.984-.417 7.528 0 37.22 30.28 67.5 67.5 67.5 4.143 0 7.5-3.358 7.5-7.5s-3.357-7.5-7.5-7.5c-28.948 0-52.5-23.551-52.5-52.5s23.552-52.5 52.5-52.5c18.832 0 35.887-7.752 48.142-20.232.594.151 1.216.232 1.858.232 6.893 0 12.5 5.607 12.5 12.5 0 4.142 3.357 7.5 7.5 7.5s7.5-3.358 7.5-7.5c0-12.236-8.03-22.629-19.096-26.189zm-126.67 114.343c-15.163 0-27.5 12.336-27.5 27.5 0 4.142 3.357 7.5 7.5 7.5s7.5-3.358 7.5-7.5c0-6.893 5.607-12.5 12.5-12.5 4.143 0 7.5-3.358 7.5-7.5s-3.358-7.5-7.5-7.5zm-36.146-25.234c-6.893 0-12.5-5.607-12.5-12.5 0-4.143-3.358-7.5-7.5-7.5s-7.5 3.357-7.5 7.5c0 15.163 12.336 27.5 27.5 27.5 4.142 0 7.5-3.357 7.5-7.5s-3.358-7.5-7.5-7.5zm-61.307-72.947c-6.305 2.785-13.7-.079-16.485-6.384-1.674-3.789-6.102-5.504-9.891-3.831s-5.504 6.101-3.831 9.891c6.126 13.87 22.395 20.172 36.266 14.045 3.789-1.674 5.504-6.101 3.831-9.891-1.673-3.788-6.101-5.503-9.89-3.83z" fill="#fc7979"/><path d="m355.678 426.149v65.72c-4.923 2.083-9.925 4.017-15 5.795v-71.514c0-4.142 3.358-7.5 7.5-7.5s7.5 3.357 7.5 7.499zm-191.856-7.5c-4.142 0-7.5 3.358-7.5 7.5v65.72c4.923 2.083 9.925 4.017 15 5.795v-71.514c0-4.143-3.358-7.501-7.5-7.501z" fill="#c83c50"/><path d="m285 300c-8.284 0-15 6.716-15 15v196.624c-4.635.25-9.303.376-14 .376-2.005 0-4.006-.023-6-.069v-196.931c0-8.284 6.716-15 15-15z" fill="#ffc14f"/><path d="m139.333 394.915v82.783c0 2.056-9.566 1.11-13.333-1.115-10.505-6.204-20.528-13.138-30-20.731v-60.937z" fill="#e3a76f"/><path d="m416 394.915v60.937c-18.23 14.614-38.503 26.784-60.322 36.016v-96.953zm-290 81.668c9.714 5.737 19.839 10.85 30.322 15.286v-96.953h-30.322z" fill="#f2bb88"/><path d="m220 352.5c0-4.142 3.358-7.5 7.5-7.5h57c4.142 0 7.5 3.358 7.5 7.5s-3.358 7.5-7.5 7.5h-57c-4.142 0-7.5-3.358-7.5-7.5zm64.5 97.5h-57c-4.142 0-7.5 3.358-7.5 7.5s3.358 7.5 7.5 7.5h57c4.142 0 7.5-3.358 7.5-7.5s-3.358-7.5-7.5-7.5zm0-51.25h-57c-4.142 0-7.5 3.358-7.5 7.5s3.358 7.5 7.5 7.5h57c4.142 0 7.5-3.358 7.5-7.5s-3.358-7.5-7.5-7.5z" fill="#ffcd71"/><path d="m292 457.5c0 4.142-3.358 7.5-7.5 7.5h-39c-4.142 0-7.5-3.358-7.5-7.5s3.358-7.5 7.5-7.5h39c4.142 0 7.5 3.358 7.5 7.5zm-46.5-97.5h39c4.142 0 7.5-3.358 7.5-7.5s-3.358-7.5-7.5-7.5h-39c-4.142 0-7.5 3.358-7.5 7.5s3.358 7.5 7.5 7.5zm39 38.75h-39c-4.142 0-7.5 3.358-7.5 7.5s3.358 7.5 7.5 7.5h39c4.142 0 7.5-3.358 7.5-7.5s-3.358-7.5-7.5-7.5z" fill="#fff68e"/></g></svg>