<svg id="Capa_1" enable-background="new 0 0 512 512" height="512" viewBox="0 0 512 512" width="512" xmlns="http://www.w3.org/2000/svg"><g><path d="m0 256c0-121.802 85.064-223.737 199.026-249.637 18.322-4.164 18.263 7.403 37.846 7.403 3.557 0 26.224-13.693 29.745-13.55 136.462 5.567 245.383 117.956 245.383 255.784 0 81.045-37.661 153.294-96.437 200.201-2.357 1.881-5.683 1.97-8.113.185-42.412-31.171-94.781-49.584-151.45-49.584-56.546 0-108.809 18.333-151.171 49.38-2.597 1.903-6.148 1.816-8.662-.196-58.621-46.914-96.167-119.065-96.167-199.986z" fill="#4172cc"/><path d="m446.319 256c0 105.11-85.209 190.319-190.319 190.319s-190.319-85.209-190.319-190.319 85.209-190.319 190.319-190.319 190.319 85.209 190.319 190.319z" fill="#6990d7"/><path d="m166 343.416h7.5s12.869 2.932 3.102 8.108c-22.168 11.748-37.268 35.056-37.268 61.892v55.975c0 6.651-7.233 10.781-12.965 7.408-10.639-6.26-20.786-13.266-30.368-20.948v-42.436c-.001-38.659 31.339-69.999 69.999-69.999z" fill="#dd7d00"/><path d="m416 413.416v42.436c-18.23 14.614-38.503 26.785-60.322 36.017-.56.237-1.414-.463-1.976-.23-3.641 1.51-7.324 2.938-11.048 4.283-.755.273-1.218 1.477-1.976 1.743-26.505 9.285-55.002 14.335-84.678 14.335s-58.173-5.05-84.678-14.337c-.898-.315-1.684-2.935-2.577-3.259-2.985-1.084-5.944-2.221-8.876-3.411-1.15-.467-2.406 1.359-3.548.876-10.482-4.435-20.608-9.549-30.322-15.286v-63.167c0-31.606 20.947-58.32 49.716-67.016 3.415-1.032 9.05 1.972 13.577 5.011 5.275 3.541 11.509 5.376 17.862 5.376h105.14c10.373 0 20.118-4.972 26.206-13.371h7.5c38.66 0 70 31.34 70 70z" fill="#ff9f22"/><path d="m355.678 449.032v42.837c-4.923 2.083-9.925 4.017-15 5.795v-48.631c0-4.142 3.358-7.5 7.5-7.5s7.5 3.357 7.5 7.499zm-191.856-7.5c-4.142 0-7.5 3.358-7.5 7.5v42.837c4.923 2.083 9.925 4.017 15 5.795v-48.631c0-4.143-3.358-7.501-7.5-7.501z" fill="#dd7d00"/><path d="m338.5 343.416c0 40.927-32.103 74.355-72.501 76.477 0 .036.001.071.001.107v60c0 5.523-4.477 10-10 10s-10-4.477-10-10v-60c0-.036.001-.072.001-.107-40.398-2.122-72.501-35.55-72.501-76.477zm-51 89.084c-4.142 0-7.5 3.358-7.5 7.5s3.358 7.5 7.5 7.5 7.5-3.358 7.5-7.5-3.358-7.5-7.5-7.5zm0 27.5c-4.142 0-7.5 3.358-7.5 7.5s3.358 7.5 7.5 7.5 7.5-3.358 7.5-7.5-3.358-7.5-7.5-7.5z" fill="#ffc14f"/><path d="m171 220h-1c-27.614 0-50-22.386-50-50s22.386-50 50-50h1c27.614 0 50 22.386 50 50s-22.386 50-50 50z" fill="#a6e0ec"/><path d="m391 170c0 27.614-22.386 50-50 50h-16c-27.614 0-50-22.386-50-50s22.386-50 50-50h16c27.614 0 50 22.386 50 50z" fill="#c2eaf2"/><path d="m171 218.416v10c0 13.807-11.193 25-25 25s-25-11.193-25-25v-10c0-13.807 11.193-25 25-25s25 11.193 25 25z" fill="#f2bb88"/><path d="m136 213.416v20c0 8.178 3.927 15.439 9.998 20-13.806-.001-24.998-11.194-24.998-25v-10c0-13.806 11.192-24.999 24.998-25-6.071 4.561-9.998 11.822-9.998 20zm230-20v-20c0-60.751-49.249-110-110-110-60.751 0-110 49.249-110 110v40c0 60.751 49.249 110 110 110 47.027 0 87.162-29.511 102.895-71.024 2.252.666 4.637 1.024 7.105 1.024 13.807 0 25-11.193 25-25v-10c0-13.807-11.193-25-25-25z" fill="#e3a76f"/><path d="m366 173.416v40c0 50.792-34.425 93.543-81.216 106.195-9.023 2.44-18.545 2.44-27.568 0-25.765-6.967-47.781-23.06-62.364-44.596-2.79-4.12 1.73-10.522-.49-15.015s-11.18-7.076-12.779-11.89c-3.622-10.907-5.583-22.571-5.583-34.694v-40c0-55.663 41.345-101.669 95-108.985 53.655 7.316 95 53.322 95 108.985z" fill="#f2bb88"/><path d="m262 400h-12c-33.137 0-60-26.863-60-60v-70c0-16.569 13.431-30 30-30h72c16.569 0 30 13.431 30 30v70c0 33.137-26.863 60-60 60z" fill="#a6e0ec"/><path d="m250 240h42c16.569 0 30 13.431 30 30v70c0 30.078-22.133 54.987-51 59.329-28.867-4.342-51-29.251-51-59.329v-70c0-16.569 13.431-30 30-30z" fill="#c2eaf2"/><path d="m160 230v-10h87.4c8.284 0 15 6.716 15 15v10c0 8.284-6.716 15-15 15h-57.4c-16.569 0-30-13.431-30-30z" fill="#a6e0ec"/><path d="m322 260h-57.4c-8.284 0-15-6.716-15-15v-10c0-8.284 6.716-15 15-15h87.4v10c0 16.569-13.431 30-30 30z" fill="#def4f8"/><path d="m181 125c0 19.33-15.67 35-35 35s-35-15.67-35-35 15.67-35 35-35 35 15.67 35 35z" fill="#c2eaf2"/><path d="m401 125c0 19.33-15.67 35-35 35s-35-15.67-35-35 15.67-35 35-35 35 15.67 35 35z" fill="#def4f8"/><path d="m283.803 258.355c-8.354 8.354-19.329 12.531-30.303 12.531s-21.949-4.177-30.303-12.531c-2.929-2.93-2.929-7.678 0-10.607 2.929-2.928 7.678-2.928 10.606 0 10.861 10.861 28.532 10.861 39.394 0 2.929-2.928 7.678-2.928 10.606 0 2.929 2.93 2.929 7.678 0 10.607z" fill="#7cd2e3"/><path d="m234.446 171.353c2.929 2.929 2.928 7.678 0 10.606-5.362 5.36-12.404 8.041-19.446 8.041s-14.084-2.681-19.445-8.041c-2.929-2.929-2.929-7.678 0-10.606 2.93-2.93 7.677-2.929 10.607-.001 4.874 4.873 12.804 4.873 17.678 0 2.928-2.929 7.677-2.928 10.606.001zm82 0c-2.929-2.929-7.678-2.93-10.607-.001-4.874 4.873-12.804 4.873-17.678 0-2.93-2.928-7.677-2.929-10.607.001-2.929 2.929-2.928 7.678 0 10.606 5.362 5.36 12.404 8.041 19.446 8.041s14.084-2.681 19.445-8.041c2.929-2.929 2.93-7.678.001-10.606zm-59.053 38.187c-1.042 1.042-2.424 1.616-3.893 1.616s-2.851-.574-3.893-1.616c-2.929-2.928-7.678-2.928-10.606 0-2.929 2.93-2.929 7.678 0 10.607 3.875 3.875 9.024 6.009 14.5 6.009s10.625-2.134 14.5-6.009c2.929-2.93 2.929-7.678 0-10.607-2.93-2.928-7.679-2.928-10.608 0z" fill="#c48958"/><path d="m263.5 160c0 4.142-3.358 7.5-7.5 7.5s-7.5-3.358-7.5-7.5 3.358-7.5 7.5-7.5 7.5 3.358 7.5 7.5z" fill="#fb5858"/><path d="m260 60v20c0 33.137-26.863 60-60 60h-24c-33.137 0-74.319-26.863-74.319-60 0-44.183 45.69-80 89.872-80h8.447c33.137 0 60 26.863 60 60z" fill="#ffb52d"/><path d="m126.06 80c0 33.137 26.863 60 60 60h-29.655c-33.137 0-60-26.863-60-60 0-25.105 11.564-47.508 29.655-62.176.073-.059.187-.086.331-.089 3.215-.052 6.403-.59 9.157-2.251l4.221-2.546c2.396-1.445 3.944-3.793 5.104-6.339.052-.115.121-.198.211-.236 8.118-3.458 16.925-5.612 26.157-6.2 1.708-.109 14.888 1.911 7.26 4.71-22.29 8.18-39.929 25.997-47.867 48.402 28.838 21.892 62.458 37.811 99.019 45.911.691-2.904 1.628 16.061 1.628 16.061 0 4.799-.563 9.466-1.628 13.939-38.51-8.533-73.758-25.74-103.591-49.464-.001.093-.002.186-.002.278z" fill="#ff9f22"/><path d="m260 80c0 4.799-.563 9.466-1.628 13.939-44.492-9.858-84.629-31.293-117.092-60.983-1.708-1.562-1.823-4.233-.261-5.94 3.517-3.844 7.398-7.413 11.567-10.661 1.348-1.05 3.225-1.058 4.575-.01 29.32 22.759 63.72 39.286 101.21 47.593.692-2.903 1.629 16.062 1.629 16.062zm-81.5-75.126c23.371 14.608 49.269 25.55 76.889 32.02-9.049-21.667-30.441-36.894-55.389-36.894l-14.165 1.16c-2 .164-3.961.722-5.69 1.74-1.355.798-2.216 1.616-1.645 1.974z" fill="#ffc14f"/><path d="m145.082 6.365c3.99 3.507 8.091 6.891 12.296 10.148-6.11 4.692-11.523 10.246-16.058 16.48-5.296-4.841-10.387-9.902-15.26-15.169 5.737-4.651 12.132-8.524 19.022-11.459zm54.918-6.365h-23.596c-1.735 0-3.457.055-5.165.164 2.392 1.61 4.812 3.18 7.26 4.71 7.627-2.798 21.719-4.874 21.501-4.874z" fill="#ffb52d"/><path d="m403.851 77.468s6.144 3.465 6.133 3.93c-.743 32.491-27.314 58.602-59.984 58.602h-90c-33.137 0-60-26.863-60-60v-6.721l3.894-2.704-.851-8.596c0-4.279 1.299-9.497 2.151-13.523.229-1.084-3.406-3.094-3.118-4.156 2.138-7.907 5.852-15.167 10.783-21.421 1.234-1.565 5.936-.132 7.317-1.566 5.594-5.807 12.348-10.49 19.889-13.675 1.413-.597-.538-4.076.928-4.565 5.972-1.993 12.364-3.073 19.007-3.073h70c12.843 0 24.979 3.026 35.734 8.405.29.145.491.416.624.766 1.884 4.95 4.656 9.513 8.786 12.827l2.443 1.96c3.334 2.675 7.26 4.517 11.45 5.363 1.868.377 3.638.945 4.289 1.786 5.117 6.618 9.22 14.06 12.075 22.094.499 1.403-4.822 6.361-4.401 7.799 2.094 7.148 2.851 8.643 2.851 16.468z" fill="#ffc14f"/><path d="m314 43.635c-35.922 0-70.116-7.399-101.141-20.756 7.17-9.093 16.914-16.061 28.134-19.806 23.135 6.872 47.64 10.562 73.007 10.562 17.723 0 35.025-1.801 51.734-5.23 10.826 5.414 20.252 13.21 27.592 22.703-24.976 8.131-51.638 12.527-79.326 12.527zm91.401 9.566c-28.387 10.853-59.199 16.799-91.401 16.799-40.135 0-78.114-9.237-111.925-25.7-1.353 5.004-2.075 10.268-2.075 15.7v13.279c34.33 17.102 73.042 26.721 114 26.721 33.943 0 66.342-6.606 95.984-18.602.01-.465.016-.931.016-1.398 0-9.4-1.622-18.421-4.599-26.799z" fill="#fff36c"/><path d="m216 167.043c0 4.142-3.358 7.5-7.5 7.5h-15c-4.142 0-7.5-3.358-7.5-7.5s3.358-7.5 7.5-7.5h15c4.142 0 7.5 3.357 7.5 7.5zm102.5-7.5h-15c-4.142 0-7.5 3.358-7.5 7.5s3.358 7.5 7.5 7.5h15c4.142 0 7.5-3.358 7.5-7.5s-3.358-7.5-7.5-7.5z" fill="#def4f8"/></g></svg>