<svg id="Capa_1" enable-background="new 0 0 512 512" height="512" viewBox="0 0 512 512" width="512" xmlns="http://www.w3.org/2000/svg"><g><path d="m415.336 159.336c0-87.999-71.337-159.336-159.336-159.336l-10 172.876 169.336-10z" fill="#180a33"/><path d="m256 0c-87.999 0-159.336 71.337-159.336 159.336v3.54l159.336 10z" fill="#332866"/><path d="m81.757 222.91s-26.887 45.244-6.21 134.257h180.453v-134.257z" fill="#332866"/><path d="m430.243 222.91h-174.243v134.257h180.453c20.676-89.012-6.21-134.257-6.21-134.257z" fill="#180a33"/><path d="m436.453 357.167-34.198-11.336-156.255-5.291 10 171.46h224.133v-94.336c0-27.472-17.604-51.852-43.68-60.497z" fill="#ffb655"/><path d="m109.745 345.831-34.198 11.336c-26.077 8.644-43.68 33.025-43.68 60.497v94.336h224.133v-171.461z" fill="#ffda44"/><path d="m402.254 345.831-67.632-22.42h-88.622l10 27.129 83.368 82.379z" fill="#ece6f2"/><path d="m256 350.539v-27.128h-78.622l-67.633 22.42 62.887 87.088z" fill="#fff5f5"/><path d="m128.531 162.876h-31.867c-17.6 0-31.868 14.268-31.868 31.868 0 17.6 14.268 31.868 31.868 31.868h41.915z" fill="#895140"/><path d="m383.469 162.876h31.867c17.6 0 31.868 14.268 31.868 31.868 0 17.6-14.268 31.868-31.868 31.868h-41.915z" fill="#5b362a"/><path d="m256 146.943-10 60.194 10 143.403c70.399 0 127.469-57.07 127.469-127.469v-60.195c-63.734 0-63.735-15.933-127.469-15.933z" fill="#895140"/><path d="m128.531 162.876v60.195c0 70.399 57.07 127.469 127.469 127.469v-203.597c-63.734 0-63.734 15.933-127.469 15.933z" fill="#b56d3c"/><path d="m184.299 192.137h31.867v30h-31.867z" fill="#332866"/><path d="m295.834 192.137h31.867v30h-31.867z" fill="#180a33"/></g></svg>