<svg height="512pt" viewBox="0 0 512 512.00053" width="512pt" xmlns="http://www.w3.org/2000/svg"><path d="m511.667969 256.164062c0 80.53125-37.214844 152.375-95.375 199.273438-34.351563 27.683594-75.992188 46.679688-121.59375 53.625-12.671875 1.9375-25.652344 2.9375-38.863281 2.9375-22.976563 0-45.230469-3.027344-66.417969-8.714844-8.535157-2.289062-16.898438-5.003906-25.054688-8.132812-32.097656-12.28125-61.089843-30.859375-85.472656-54.207032-48.621094-46.570312-78.890625-112.144531-78.890625-184.78125 0-103.0625 60.949219-191.894531 148.773438-232.40625 32.570312-15.042968 68.835937-23.425781 107.0625-23.425781 141.289062 0 255.832031 114.546875 255.832031 255.832031zm0 0" fill="#42b7a1"/><path d="m416.292969 455.4375c-34.351563 27.679688-75.992188 46.679688-121.59375 53.625-63.628907-2.25-130.335938-13.910156-130.335938-13.910156l-21.433593-241.324219 274.171874 49.996094c-22.847656 38.933593 2.765626 105.722656-.808593 151.613281zm0 0" fill="#181e21"/><path d="m398.152344 468.789062c-12.332032 8.273438-25.421875 15.507813-39.152344 21.554688-10.644531 4.699219-21.667969 8.695312-33.011719 11.914062-22.285156 6.34375-45.820312 9.742188-70.152343 9.742188-24.324219 0-47.859376-3.398438-70.15625-9.734375-7.234376-2.058594-14.351563-4.4375-21.316407-7.113281-.429687-.160156-.859375-.320313-1.289062-.492188-3.507813-1.359375-6.976563-2.804687-10.402344-4.316406-13.730469-6.054688-26.824219-13.28125-39.164063-21.566406 10.382813-14.359375 23.742188-26.410156 39.164063-35.296875 10.191406-5.867188 21.285156-10.332031 33.007813-13.140625 1.808593-.441406 3.636718-.839844 5.476562-1.1875 3.46875-.679688 6.996094-1.199219 10.5625-1.570313 1.03125-.109375 2.050781-.210937 3.089844-.289062 3.378906-.28125 6.792968-.421875 10.253906-.421875h81.535156c4.519532 0 8.964844.242187 13.34375.699218 3.566406.371094 7.082032.902344 10.5625 1.558594 1.386719.273438 2.765625.5625 4.136719.871094.449219.121094.910156.210938 1.347656.328125 11.734375 2.820313 22.816407 7.285156 33.011719 13.152344 15.417969 8.894531 28.769531 20.949219 39.152344 35.308593zm0 0" fill="#40b4d3"/><path d="m215.0625 416.871094c-29.34375 0-49.230469 42.402344-50.699219 78.28125-.429687-.160156-.859375-.320313-1.289062-.492188-3.507813-1.359375-6.976563-2.804687-10.402344-4.316406-13.730469-6.054688-26.824219-13.28125-39.164063-21.566406 10.382813-14.359375 23.742188-26.410156 39.164063-35.296875 10.191406-5.867188 21.285156-10.332031 33.007813-13.140625 1.808593-.441406 3.636718-.839844 5.476562-1.1875 3.46875-.679688 6.996094-1.199219 10.5625-1.570313 1.03125-.109375 2.050781-.210937 3.089844-.289062 3.378906-.28125 6.792968-.421875 10.253906-.421875zm0 0" fill="#0084a6"/><path d="m320.503906 419.128906v4.339844c0 28.519531-18.308594 53.34375-45.5625 61.769531-6.164062 1.917969-12.601562 2.886719-19.117187 2.886719-35.65625 0-64.667969-29.011719-64.667969-64.65625v-4.316406c3.46875-.679688 6.996094-1.199219 10.5625-1.570313 1.03125-.109375 2.050781-.210937 3.089844-.289062 3.378906-.28125 6.792968-.421875 10.253906-.421875h81.535156c4.519532 0 8.964844.242187 13.34375.699218 3.566406.371094 7.082032.902344 10.5625 1.558594zm0 0" fill="#f9c5ac"/><path d="m300.511719 368.628906v54.835938c0 20.074218-13.234375 37.042968-31.46875 42.679687-4.171875 1.292969-8.621094 1.996094-13.222657 1.996094-24.671874 0-44.671874-20-44.671874-44.675781v-54.832032h89.363281zm0 0" fill="#efb29a"/><path d="m300.511719 419.992188v3.472656c0 20.074218-13.234375 37.042968-31.46875 42.679687-16.449219-5.058593-28.816407-19.359375-31.101563-36.859375 2.984375.183594 5.984375.273438 9 .273438 8.453125 0 16.742188-.671875 24.8125-1.996094 9.945313-1.601562 19.558594-4.160156 28.757813-7.570312zm0 0" fill="#f9c5ac"/><path d="m132.453125 278.304688c0 20.484374-14.960937 37.46875-34.554687 40.621093-2.140626.34375-4.34375.527344-6.59375.527344-22.730469 0-41.148438-18.417969-41.148438-41.148437 0-22.730469 18.417969-41.148438 41.148438-41.148438 2.25 0 4.453124.179688 6.59375.527344 19.59375 3.152344 34.554687 20.136718 34.554687 40.621094zm0 0" fill="#f9c5ac"/><path d="m132.453125 278.304688c0 20.484374-14.960937 37.46875-34.554687 40.621093-3.558594-12.941406-5.460938-26.5625-5.460938-40.621093 0-14.058594 1.902344-27.679688 5.460938-40.621094 19.59375 3.152344 34.554687 20.136718 34.554687 40.621094zm0 0" fill="#efb29a"/><path d="m106.015625 278.304688c0 8.121093-6.585937 14.707031-14.707031 14.707031-8.125 0-14.707032-6.585938-14.707032-14.707031 0-8.121094 6.582032-14.707032 14.707032-14.707032 8.121094 0 14.707031 6.585938 14.707031 14.707032zm0 0" fill="#efb29a"/><path d="m379.207031 278.304688c0 20.484374 14.960938 37.46875 34.554688 40.621093 2.140625.34375 4.34375.527344 6.589843.527344 22.734376 0 41.148438-18.417969 41.148438-41.148437 0-22.730469-18.414062-41.148438-41.148438-41.148438-2.246093 0-4.449218.179688-6.589843.527344-19.59375 3.152344-34.554688 20.136718-34.554688 40.621094zm0 0" fill="#f9c5ac"/><path d="m379.207031 278.304688c0 20.484374 14.960938 37.46875 34.554688 40.621093 3.558593-12.941406 5.460937-26.5625 5.460937-40.621093 0-14.058594-1.902344-27.679688-5.460937-40.621094-19.59375 3.152344-34.554688 20.136718-34.554688 40.621094zm0 0" fill="#efb29a"/><path d="m435.058594 278.304688c0 8.121093-6.582032 14.707031-14.707032 14.707031-8.121093 0-14.707031-6.585938-14.707031-14.707031 0-8.121094 6.585938-14.707032 14.707031-14.707032 8.125 0 14.707032 6.585938 14.707032 14.707032zm0 0" fill="#efb29a"/><path d="m410.429688 256.675781c0 76.9375-56.203126 140.757813-129.789063 152.605469-8.070313 1.328125-16.355469 1.996094-24.8125 1.996094-85.386719 0-154.597656-69.210938-154.597656-154.601563v-157.394531h309.203125v157.394531zm0 0" fill="#f9c5ac"/><g fill="#efb29a"><path d="m283.0625 408.878906c-.800781.136719-1.609375.277344-2.417969.40625-8.078125 1.320313-16.359375 1.992188-24.816406 1.992188-85.382813 0-154.597656-69.207032-154.597656-154.601563v-157.398437h54.511719v157.398437c0 76.089844 54.945312 139.320313 127.320312 152.203125zm0 0"/><path d="m360.03125 296.636719c0 10.53125-8.539062 19.070312-19.070312 19.070312s-19.070313-8.539062-19.070313-19.070312 8.539063-19.070313 19.070313-19.070313 19.070312 8.539063 19.070312 19.070313zm0 0"/><path d="m189.765625 296.636719c0 10.53125-8.539063 19.070312-19.070313 19.070312s-19.070312-8.539062-19.070312-19.070312 8.539062-19.070313 19.070312-19.070313 19.070313 8.539063 19.070313 19.070313zm0 0"/><path d="m273.199219 298.0625h-34.734375c-4.136719 0-7.492188-3.355469-7.492188-7.492188 0-4.136718 3.355469-7.492187 7.492188-7.492187h34.734375c4.140625 0 7.492187 3.355469 7.492187 7.492187 0 4.136719-3.351562 7.492188-7.492187 7.492188zm0 0"/></g><path d="m255.835938 345.460938c-12.820313 0-25.640626-3.214844-37.324219-9.636719-3.296875-1.8125-4.5-5.953125-2.6875-9.25s5.953125-4.5 9.246093-2.6875c19.265626 10.589843 42.265626 10.589843 61.527344 0 3.292969-1.8125 7.4375-.609375 9.25 2.6875s.609375 7.4375-2.6875 9.25c-11.6875 6.421875-24.507812 9.636719-37.324218 9.636719zm0 0" fill="#2f373b"/><path d="m343.769531 244.5c0-17.796875-14.425781-32.222656-32.21875-32.222656-17.796875 0-32.222656 14.425781-32.222656 32.222656" fill="#efb29a"/><path d="m333.558594 258.21875c0 12.15625-9.855469 22.007812-22.007813 22.007812-12.15625 0-22.011719-9.851562-22.011719-22.007812s9.855469-22.007812 22.011719-22.007812c12.152344 0 22.007813 9.851562 22.007813 22.007812zm0 0" fill="#2f373b"/><path d="m330.152344 254.335938c0 5.207031-4.222656 9.429687-9.429688 9.429687-5.210937 0-9.433594-4.222656-9.433594-9.429687 0-5.210938 4.222657-9.433594 9.433594-9.433594 5.207032 0 9.429688 4.222656 9.429688 9.433594zm0 0" fill="#fff"/><path d="m232.332031 244.5c0-17.796875-14.425781-32.222656-32.222656-32.222656s-32.222656 14.425781-32.222656 32.222656" fill="#efb29a"/><path d="m222.121094 258.21875c0 12.15625-9.855469 22.007812-22.011719 22.007812-12.152344 0-22.007813-9.851562-22.007813-22.007812s9.855469-22.007812 22.007813-22.007812c12.15625 0 22.011719 9.851562 22.011719 22.007812zm0 0" fill="#2f373b"/><path d="m205.074219 279.660156c-1.597657.378906-3.257813.570313-4.964844.570313-12.152344 0-22.007813-9.855469-22.007813-22.015625 0-12.152344 9.855469-22.007813 22.007813-22.007813 1.707031 0 3.367187.203125 4.964844.570313-9.773438 2.25-17.046875 10.992187-17.046875 21.4375 0 10.453125 7.273437 19.199218 17.046875 21.445312zm0 0" fill="#181e21"/><path d="m316.511719 279.660156c-1.597657.378906-3.257813.570313-4.964844.570313-12.152344 0-22.007813-9.855469-22.007813-22.015625 0-12.152344 9.855469-22.007813 22.007813-22.007813 1.707031 0 3.367187.203125 4.964844.570313-9.773438 2.25-17.046875 10.992187-17.046875 21.4375 0 10.453125 7.273437 19.199218 17.046875 21.445312zm0 0" fill="#181e21"/><path d="m218.714844 254.335938c0 5.207031-4.222656 9.429687-9.433594 9.429687-5.207031 0-9.429688-4.222656-9.429688-9.429687 0-5.210938 4.222657-9.433594 9.429688-9.433594 5.210938 0 9.433594 4.222656 9.433594 9.433594zm0 0" fill="#fff"/><path d="m420.347656 237.160156-9.914062 1.207032c-85.09375-27.113282-107.988282-139.089844-107.988282-139.089844 0 60.832031-116.945312 96.609375-131.746093 197.363281-11.980469 81.488281 43.980469 140.097656 18.71875 206.644531-25.671875-6.875-49.757813-17.65625-71.574219-31.667968-13.96875-8.953126-27.023438-19.238282-38.953125-30.671876 6.105469-27.710937 10.320313-66.125.296875-103.3125-15.058594-55.863281-39.710938-246.582031 69.585938-313.875 26.875-16.5625 61.851562-25.644531 107.0625-23.425781 7.265624.617188 14.238281 1.417969 20.945312 2.378907h.011719c.738281.097656 1.476562.207031 2.207031.320312.148438.019531.289062.039062.441406.066406 213.699219 32.339844 140.90625 234.0625 140.90625 234.0625zm0 0" fill="#2f373b"/><path d="m276.78125 2.707031c-51.136719-5.773437-109.269531 89.773438-134.851562 180.335938-28.421876 100.613281-2.648438 226.761719-24.085938 288.574219-13.96875-8.957032-27.023438-19.238282-38.953125-30.671876 6.105469-27.710937 10.320313-66.128906.296875-103.3125-15.058594-55.863281-39.710938-246.582031 69.585938-313.878906 26.875-16.558594 61.851562-25.640625 107.0625-23.421875 7.265624.617188 14.238281 1.417969 20.945312 2.375zm0 0" fill="#181e21"/><path d="m300.511719 430.292969c-20.445313 33.363281-68.917969 33.363281-89.363281 0 0-2.773438 0-15.839844 0-18.613281 20.445312 33.363281 68.917968 33.363281 89.363281 0zm0 0" fill="#2f373b"/></svg>