<svg id="Capa_1" enable-background="new 0 0 512 512" height="512" viewBox="0 0 512 512" width="512" xmlns="http://www.w3.org/2000/svg"><g><g><path d="m456.969 407.139c27.744-39.712 44.031-88.02 44.031-140.139 0-135.31-109.69-245-245-245s-245 109.69-245 245c0 52.119 16.287 100.427 44.031 140.139z" fill="#49d88b"/></g><g><circle cx="256" cy="242" fill="#38c674" r="200"/></g><g><path d="m456.949 407.139c-8.256-22.709-16.99-42.685-24.722-51.911-.904-1.078-1.794-2.019-2.668-2.79-6.623-5.848-19.39-11.382-34.352-16.323-3.248-1.073-6.601-2.116-10.016-3.13l-29.765 12.589-10.534-22.841c-22.377-4.959-40.428-7.979-41.505-8.158h-94.772c-1.077.179-19.129 3.199-41.505 8.158l-10.534 22.841-29.765-12.589c-3.415 1.014-6.768 2.058-10.016 3.13-14.961 4.941-27.729 10.475-34.352 16.323-.874.772-1.765 1.712-2.668 2.79-7.732 9.226-16.467 29.203-24.722 51.911-.001.009-.001.018-.002.026 22.564 32.289 52.712 58.885 87.857 77.212v-.002l19.668-4.439 26.505 22.806c21.269 6.029 43.716 9.258 66.919 9.258s45.65-3.229 66.92-9.258l26.505-22.806 19.668 4.439v.002c35.145-18.327 65.293-44.922 87.857-77.212 0-.008 0-.017-.001-.026z" fill="#3c5082"/></g><g><path d="m147.56 341.761-20.748-8.775c-3.415 1.014-6.77 2.056-10.019 3.129-14.961 4.941-27.729 10.475-34.352 16.323-.874.772-1.765 1.712-2.668 2.79-7.732 9.226-16.467 29.203-24.722 51.911-.001.009-.001.018-.002.026 22.564 32.289 52.712 58.885 87.857 77.212v-.002l19.668-4.439 26.505 22.806c21.271 6.029 43.718 9.258 66.921 9.258-55.783-26.385-97.678-90.901-108.44-170.239z" fill="#2d3c6b"/></g><g><path d="m369.09 484.38c-14.59 7.6-30.04 13.8-46.18 18.37v-.01c17.03-58.74 24.37-118.83 21.98-180.01 12.81 2.84 27.03 6.31 40.31 10.25 1.02 51.2-4.36 101.76-16.11 151.4z" fill="#ffdd40"/></g><g><path d="m142.91 484.38c14.59 7.6 30.04 13.8 46.18 18.37v-.01c-17.03-58.74-24.37-118.83-21.98-180.01-12.81 2.84-27.03 6.31-40.31 10.25-1.02 51.2 4.36 101.76 16.11 151.4z" fill="#ffdd40"/></g><g><path d="m170.759 413.066c.001.074.011.147.011.221 0 11.13-9.023 20.153-20.153 20.153-9.448 0-17.355-6.511-19.536-15.284 2.702 22.235 6.642 44.316 11.825 66.219 14.595 7.609 30.046 13.802 46.181 18.373-8.568-29.561-14.67-59.469-18.328-89.682z" fill="#ffc839"/></g><g><path d="m341.241 413.066c-.001.074-.011.147-.011.221 0 11.13 9.023 20.153 20.153 20.153 9.448 0 17.355-6.511 19.536-15.284-2.702 22.235-6.642 44.316-11.825 66.219-14.595 7.609-30.046 13.802-46.181 18.373 8.568-29.561 14.67-59.469 18.328-89.682z" fill="#ffc839"/></g><g><path d="m91.07 426.843v21.327c7.157 6.519 14.704 12.617 22.599 18.262l-12.035-41.103c-1.75-5.98-10.564-4.716-10.564 1.514z" fill="#213159"/></g><g><path d="m420.93 426.843v21.327c-7.157 6.519-14.704 12.617-22.599 18.262l12.035-41.103c1.75-5.98 10.564-4.716 10.564 1.514z" fill="#2d3c6b"/></g><g><path d="m248.5 511.873c2.492.076 4.99.127 7.5.127s5.008-.051 7.5-.127v-197.298h-15z" fill="#213159"/></g><g><path d="m208.614 221.239v93.336s19.021 33.261 47.17 33.261c.073 0 .143-.005.216-.005 28.031-.103 47.386-33.256 47.386-33.256v-93.336z" fill="#fcad6d"/></g><g><path d="m208.614 220.734v93.841c94.723 0 94.772-53.4 94.772-53.4v-40.44h-94.772z" fill="#fd995b"/></g><g><path d="m303.386 299.609-47.386 48.222s18.328 33.146 30.188 33.146c7.034 0 17.106-22.384 24.137-40.597 5.342-13.84 2.694-29.488-6.939-40.771z" fill="#4b6496"/></g><g><path d="m208.614 299.609 47.386 48.222s-18.328 33.146-30.188 33.146c-7.034 0-17.106-22.384-24.137-40.597-5.342-13.84-2.694-29.488 6.939-40.771z" fill="#4b6496"/></g><g><path d="m318.485 355.832-1.354 3.315c-1.785 4.372-1.785 9.27 0 13.642l1.354 3.315c2.747 6.726 1.192 14.442-3.945 19.579-7.046 7.046-18.47 7.046-25.516 0l-29.715-29.715 29.715-29.715c7.046-7.046 18.47-7.046 25.516 0 5.136 5.136 6.691 12.853 3.945 19.579z" fill="#4fabf7"/></g><g><path d="m193.515 355.832 1.354 3.315c1.785 4.372 1.785 9.27 0 13.642l-1.354 3.315c-2.747 6.726-1.191 14.442 3.945 19.579 7.046 7.046 18.47 7.046 25.516 0l29.715-29.715-29.715-29.715c-7.046-7.046-18.47-7.046-25.516 0-5.136 5.136-6.691 12.853-3.945 19.579z" fill="#4fabf7"/></g><g><path d="m222.977 336.252c-5.449-5.449-13.509-6.665-20.145-3.686 1.945.873 3.774 2.089 5.371 3.686 16.411 16.411 16.411 43.019 0 59.431-1.597 1.597-3.426 2.813-5.371 3.686 6.636 2.978 14.696 1.762 20.145-3.686l29.715-29.716z" fill="#2e8be6"/></g><g><path d="m289.023 336.252c5.449-5.449 13.509-6.665 20.145-3.686-1.945.873-3.774 2.089-5.371 3.686-16.411 16.411-16.411 43.019 0 59.431 1.597 1.597 3.426 2.813 5.371 3.686-6.636 2.978-14.696 1.762-20.145-3.686l-29.715-29.716z" fill="#2e8be6"/></g><g><path d="m264.653 345.573c-1.588-.01-3.079.403-4.365 1.134-2.657 1.509-5.918 1.509-8.575 0-1.287-.731-2.777-1.144-4.365-1.134-4.834.032-8.682 4.083-8.682 8.916v22.956c0 4.834 3.849 8.885 8.682 8.916 1.588.01 3.079-.403 4.365-1.134 2.657-1.509 5.918-1.509 8.575 0 1.287.731 2.777 1.144 4.365 1.134 4.834-.032 8.682-4.083 8.682-8.916v-22.955c0-4.834-3.848-8.885-8.682-8.917z" fill="#73c3f9"/></g><g><path d="m255.854 377.446v-22.956c0-4.353 3.122-8.07 7.273-8.789-1.017.172-1.975.516-2.839 1.007-2.657 1.509-5.918 1.509-8.576 0-1.287-.731-2.777-1.144-4.365-1.134-4.833.031-8.682 4.083-8.682 8.916v22.956c0 4.834 3.849 8.885 8.682 8.916 1.588.01 3.079-.403 4.365-1.134 2.657-1.509 5.918-1.509 8.576 0 .865.491 1.823.834 2.839 1.007-4.151-.719-7.273-4.436-7.273-8.789z" fill="#4fabf7"/></g><g><path d="m331.058 159.567s10.385-25.285 28.897-19.415-.448 60.664-36.573 64.116z" fill="#fcad6d"/></g><g><path d="m180.942 159.567s-10.385-25.285-28.897-19.415.448 60.664 36.573 64.116z" fill="#fd995b"/></g><g><path d="m343.597 146.754c0 64.505-39.219 140.155-87.597 140.155s-87.597-75.651-87.597-140.155 39.218-110.884 87.597-110.884 87.597 46.38 87.597 110.884z" fill="#f9ba8f"/></g><g><path d="m208.403 146.754c0-55.33 28.856-97.321 67.597-108.148-6.424-1.795-13.119-2.737-20-2.737-48.379 0-87.597 46.38-87.597 110.885s39.219 140.155 87.597 140.155c6.881 0 13.576-1.535 20-4.346-38.741-16.952-67.597-80.479-67.597-135.809z" fill="#fcad6d"/></g><g><g><path d="m242.013 192.447 8.436-13.441c2.569-4.093 8.533-4.093 11.102 0l8.436 13.441c2.739 4.365-.398 10.038-5.551 10.038h-16.871c-5.154-.001-8.291-5.674-5.552-10.038z" fill="#fd995b"/></g></g><g><g><path d="m235.384 240.87h41.233c4.111-3.622 7.258-8.309 9.01-13.631 1.584-4.811-2.069-9.754-7.134-9.754h-44.985c-5.065 0-8.718 4.943-7.134 9.754 1.752 5.322 4.899 10.009 9.01 13.631z" fill="#162544"/></g><g><path d="m276.616 240.87c-5.493 4.849-12.714 7.798-20.616 7.798s-15.124-2.948-20.616-7.798c5.5-4.849 12.714-7.798 20.616-7.798s15.116 2.949 20.616 7.798z" fill="#ff4155"/></g></g><g><path d="m311.239 162.03c.043-3.495-1.371-7.004-4.242-9.539-4.675-4.128-11.84-4.128-16.515 0-2.871 2.535-4.284 6.044-4.242 9.539.055 4.538 5.629 6.716 8.838 3.507 2.022-2.022 5.3-2.022 7.322 0 3.21 3.209 8.784 1.031 8.839-3.507z" fill="#162544"/></g><g><path d="m200.761 162.03c-.043-3.495 1.371-7.004 4.242-9.539 4.675-4.128 11.84-4.128 16.515 0 2.871 2.535 4.284 6.044 4.242 9.539-.055 4.538-5.629 6.716-8.838 3.507-2.022-2.022-5.3-2.022-7.322 0-3.21 3.209-8.784 1.031-8.839-3.507z" fill="#162544"/></g><g><path d="m256 0c-110.525 0-106.518 79.512-105.57 130.098.102 5.447 4.55 9.806 9.998 9.806h191.144c5.448 0 9.896-4.359 9.998-9.806.948-50.586 4.955-130.098-105.57-130.098z" fill="#dae2fe"/></g><g><path d="m225.998 90.861c-37.604-19.865-30.107-79.164-3.87-87.835-75.751 14.964-72.536 82.328-71.698 127.072.102 5.447 4.55 9.806 9.998 9.806h65.57z" fill="#bec8f7"/></g><g><path d="m350.113 139.904s-22.092-52.436-94.113-52.436-94.113 52.436-94.113 52.436 7.007 16.926 27.313 16.926 22.26-14.681 66.801-14.681 46.495 14.681 66.801 14.681c20.304 0 27.311-16.926 27.311-16.926z" fill="#e9efff"/></g><g><path d="m225.998 90.861c-48.337 11.609-64.111 49.043-64.111 49.043s7.007 16.926 27.313 16.926c8.044 0 13.209-2.305 19.282-5.087-15.328-26.917-10.206-53.253 17.516-60.882z" fill="#dae2fe"/></g></g></svg>