<svg height="512pt" viewBox="-1 0 512 512.00001" width="512pt" xmlns="http://www.w3.org/2000/svg"><path d="m510.554688 256.722656c0 140.984375-114.292969 255.277344-255.277344 255.277344s-255.277344-114.292969-255.277344-255.277344 114.292969-255.277344 255.277344-255.277344 255.277344 114.292969 255.277344 255.277344zm0 0" fill="#d9723e"/><path d="m91.105469 293.488281s19.410156 103.15625-2.472657 141.953125c0 0 27.003907-11.046875 34.816407-48.746094 0 0 13.429687 41.285157-8.953125 63.667969 0 0 21.128906-14.539062 33.824218-42.777343v56.707031l106.949219-52.796875" fill="#ff931f"/><path d="m419.433594 293.488281s-19.410156 103.15625 2.476562 141.953125c0 0-27.003906-11.046875-34.820312-48.746094 0 0-13.429688 41.285157 8.953125 63.667969 0 0-21.125-14.539062-33.820313-42.777343v56.707031l-106.953125-52.796875" fill="#ff931f"/><path d="m397.285156 468.882812c-12.304687 8.257813-25.367187 15.476563-39.070312 21.507813-10.621094 4.6875-21.617188 8.675781-32.9375 11.886719-22.234375 6.332031-45.71875 9.722656-70 9.722656-24.273438 0-47.753906-3.390625-70.003906-9.710938-7.21875-2.054687-14.316407-4.429687-21.269532-7.101562-.425781-.160156-.855468-.320312-1.285156-.488281-3.5-1.355469-6.960938-2.800781-10.378906-4.308594-13.703125-6.042969-26.765625-13.25-39.082032-21.519531 10.363282-14.328125 23.695313-26.355469 39.082032-35.21875 10.171875-5.855469 21.238281-10.3125 32.933594-13.113282 1.808593-.4375 3.632812-.835937 5.464843-1.1875 3.460938-.675781 6.980469-1.195312 10.542969-1.566406 1.027344-.109375 2.042969-.207031 3.078125-.289062 3.371094-.277344 6.78125-.417969 10.234375-.417969h81.359375c4.507813 0 8.945313.238281 13.3125.699219 3.558594.367187 7.070313.898437 10.539063 1.554687 1.386718.269531 2.761718.558594 4.128906.867188.449218.121093.90625.210937 1.34375.328125 11.707031 2.8125 22.765625 7.269531 32.9375 13.125 4.070312 2.34375 7.996094 4.914062 11.757812 7.6875 10.46875 7.707031 19.695313 17.003906 27.3125 27.542968zm0 0" fill="#f93d6e"/><path d="m214.59375 417.078125c-29.277344 0-49.121094 42.3125-50.589844 78.109375-.425781-.160156-.855468-.320312-1.285156-.488281-3.5-1.355469-6.960938-2.800781-10.378906-4.308594-13.703125-6.042969-26.765625-13.25-39.082032-21.519531 10.363282-14.328125 23.695313-26.355469 39.082032-35.21875 10.171875-5.855469 21.238281-10.3125 32.933594-13.113282 1.808593-.4375 3.632812-.835937 5.464843-1.1875 3.460938-.675781 6.980469-1.195312 10.542969-1.566406 1.027344-.109375 2.042969-.207031 3.078125-.289062 3.371094-.277344 6.78125-.417969 10.234375-.417969zm0 0" fill="#e41753"/><path d="m369.972656 441.339844c-4.398437 27.839844-21.808594 61.6875-77.898437 61.6875-84.402344 0-101.335938-43.796875-101.335938-79.367188v-4.308594c3.460938-.675781 6.980469-1.195312 10.542969-1.566406 1.027344-.109375 2.042969-.207031 3.078125-.289062 3.371094-.277344 6.78125-.417969 10.234375-.417969h81.359375c4.507813 0 8.945313.238281 13.3125.699219 3.558594.367187 7.070313.898437 10.539063 1.554687 1.386718.269531 2.761718.558594 4.128906.867188.449218.121093.90625.210937 1.34375.328125 11.707031 2.8125 22.765625 7.269531 32.9375 13.125 4.070312 2.34375 7.996094 4.914062 11.757812 7.6875zm0 0" fill="#f9c5ac"/><path d="m204.359375 417.496094c-1.035156.082031-2.050781.179687-3.078125.289062-3.5625.371094-7.082031.890625-10.542969 1.566406v4.308594c0 1.242188.046875 2.472656.113281 3.695313 6.886719-6.398438 14.878907-10.277344 23.742188-10.277344-3.453125 0-6.863281.140625-10.234375.417969zm0 0" fill="#efb29a"/><path d="m299.855469 368.941406v54.714844c0 20.03125-13.207031 36.964844-31.398438 42.585938-4.164062 1.292968-8.601562 1.992187-13.191406 1.992187-24.621094 0-44.578125-19.953125-44.578125-44.578125v-54.710938h89.167969zm0 0" fill="#efb29a"/><path d="m299.855469 420.191406v3.464844c0 20.03125-13.207031 36.964844-31.398438 42.585938-16.414062-5.042969-28.757812-19.316407-31.035156-36.777344 2.976563.179687 5.972656.273437 8.980469.273437 8.4375 0 16.703125-.671875 24.757812-1.992187 9.925782-1.597656 19.515625-4.148438 28.695313-7.554688zm0 0" fill="#f9c5ac"/><path d="m132.164062 278.8125c0 20.441406-14.929687 37.386719-34.480468 40.53125-2.136719.347656-4.332032.527344-6.578125.527344-22.679688 0-41.058594-18.375-41.058594-41.058594s18.378906-41.058594 41.058594-41.058594c2.246093 0 4.441406.179688 6.578125.527344 19.550781 3.144531 34.480468 20.09375 34.480468 40.53125zm0 0" fill="#f9c5ac"/><path d="m132.164062 278.8125c0 20.441406-14.929687 37.386719-34.480468 40.53125-3.550782-12.914062-5.449219-26.503906-5.449219-40.53125s1.898437-27.617188 5.449219-40.53125c19.550781 3.144531 34.480468 20.09375 34.480468 40.53125zm0 0" fill="#efb29a"/><path d="m105.78125 278.8125c0 8.105469-6.570312 14.675781-14.675781 14.675781-8.101563 0-14.671875-6.570312-14.671875-14.675781s6.570312-14.671875 14.671875-14.671875c8.105469 0 14.675781 6.566406 14.675781 14.671875zm0 0" fill="#efb29a"/><path d="m378.378906 278.8125c0 20.441406 14.929688 37.386719 34.480469 40.53125 2.136719.347656 4.335937.527344 6.578125.527344 22.679688 0 41.058594-18.375 41.058594-41.058594s-18.378906-41.058594-41.058594-41.058594c-2.242188 0-4.441406.179688-6.578125.527344-19.550781 3.144531-34.480469 20.09375-34.480469 40.53125zm0 0" fill="#f9c5ac"/><path d="m378.378906 278.8125c0 20.441406 14.929688 37.386719 34.480469 40.53125 3.550781-12.914062 5.449219-26.503906 5.449219-40.53125s-1.898438-27.617188-5.449219-40.53125c-19.550781 3.144531-34.480469 20.09375-34.480469 40.53125zm0 0" fill="#efb29a"/><path d="m434.109375 278.8125c0 8.105469-6.570313 14.675781-14.671875 14.675781-8.105469 0-14.675781-6.570312-14.675781-14.675781s6.570312-14.671875 14.675781-14.671875c8.101562 0 14.671875 6.566406 14.671875 14.671875zm0 0" fill="#efb29a"/><path d="m409.539062 195.253906v61.976563c0 76.773437-56.078124 140.453125-129.511718 152.28125-8.046875 1.316406-16.324219 1.984375-24.761719 1.984375-85.195313 0-154.261719-69.054688-154.261719-154.265625v-55.34375l153.980469-46.816407zm0 0" fill="#f9c5ac"/><path d="m409.539062 246.035156v11.195313c0 76.773437-56.078124 140.453125-129.511718 152.28125-8.046875 1.316406-16.324219 1.984375-24.761719 1.984375-85.195313 0-154.261719-69.054688-154.261719-154.265625v-11.195313c15.945313 0 29.398438 11.695313 31.800782 27.449219 4.933593 32.25 18.148437 53.03125 30.332031 61.617187 10.480469 7.386719 20.195312 5.761719 23.214843-5.335937 7.460938-27.363281 30.34375-30.34375 68.914063-30.34375 38.582031 0 61.46875 2.980469 68.925781 30.34375 6.542969 24.003906 44.375 3.710937 53.546875-56.28125 1.207031-7.875 5.167969-14.738281 10.820313-19.632813 5.664062-4.898437 13.003906-7.816406 20.980468-7.816406zm0 0" fill="#efb29a"/><path d="m282.441406 409.101562c-.796875.140626-1.605468.277344-2.410156.410157-8.058594 1.316406-16.324219 1.984375-24.761719 1.984375-85.199219 0-154.261719-69.054688-154.261719-154.265625v-102.160157l54.394532-54.894531v157.054688c0 75.925781 54.824218 139.015625 127.039062 151.871093zm0 0" fill="#efb29a"/><path d="m255.273438 338.421875c-12.917969 0-25.835938-3.238281-37.609376-9.710937-3.324218-1.824219-4.535156-5.996094-2.707031-9.320313 1.824219-3.320313 5.996094-4.53125 9.316407-2.707031 19.410156 10.671875 42.585937 10.671875 61.996093 0 3.320313-1.824219 7.492188-.613282 9.320313 2.707031 1.824218 3.324219.613281 7.496094-2.707032 9.320313-11.777343 6.476562-24.691406 9.710937-37.609374 9.710937zm0 0" fill="#dd9f8a"/><path d="m272.773438 292.316406h-35c-4.171876 0-7.550782-3.378906-7.550782-7.550781 0-4.167969 3.378906-7.546875 7.550782-7.546875h35c4.167968 0 7.546874 3.378906 7.546874 7.546875 0 4.171875-3.378906 7.550781-7.546874 7.550781zm0 0" fill="#efb29a"/><path d="m101.007812 254.71875c0 54.382812 22.441407 151.875 22.441407 151.875s-5.96875-154.195312 7.957031-168.121094l7.960938 149.992188s10.996093-170.480469 39.933593-199.417969l-53.863281-19.21875" fill="#ffbb16"/><path d="m409.535156 254.71875c0 54.382812-22.441406 151.875-22.441406 151.875s5.96875-154.195312-7.957031-168.121094l-7.960938 149.992188s-10.996093-170.480469-39.933593-199.417969l53.863281-19.21875" fill="#ffbb16"/><path d="m409.539062 155.101562v82.367188c0 5.402344-6.769531 7.777344-10.191406 3.589844-74.136718-90.695313-214.011718-90.695313-288.152344 0-3.421874 4.1875-10.191406 1.8125-10.191406-3.589844v-82.398438c0-1.105468.011719-2.214843.039063-3.320312 1.726562-82.40625 67.777343-150.113281 150.566406-151.7109375 1.445313-.0273437 2.878906-.0390625 4.324219-.0390625 83.964844.300781 151.800781 68.195312 153.566406 151.75.03125 1.117188.039062 2.234375.039062 3.351562zm0 0" fill="#2f373b"/><path d="m409.5 151.75c-40.753906-36.019531-95.816406-56.332031-154.222656-56.332031-58.414063 0-113.480469 20.3125-154.234375 56.332031-.027344 1.105469-.039063 2.214844-.039063 3.320312v24.542969c37.882813-40.835937 94.054688-64.25 154.273438-64.25 60.210937 0 116.378906 23.414063 154.261718 64.25v-24.511719c0-1.117187-.007812-2.234374-.039062-3.351562zm0 0" fill="#181e21"/><path d="m290.871094 4.136719c-68.058594 16.214843-118.238282 78.160156-118.238282 150.933593v37.085938c-22.964843 11.296875-44.015624 27.589844-61.433593 48.902344-3.421875 4.1875-10.191407 1.8125-10.191407-3.589844v-82.398438c0-83.902343 66.710938-153.414062 150.601563-155.0312495 1.4375-.0273437 2.882813-.0390625 4.328125-.0390625 12.027344.0390625 23.714844 1.476562 34.933594 4.136719zm0 0" fill="#181e21"/><path d="m437.808594 307.113281c0 4.394531-3.5625 7.957031-7.957032 7.957031-4.398437 0-7.960937-3.5625-7.960937-7.957031s3.5625-7.957031 7.960937-7.957031c4.394532 0 7.957032 3.5625 7.957032 7.957031zm0 0" fill="#2f373b"/><path d="m255.273438 225.414062c4.804687 0 10.144531.625 11.777343 11.910157 1.160157 7.210937 3.414063 14.097656 5.589844 19.894531 8.144531 21.703125 15.015625 32.871094 24.511719 39.832031 11.363281 8.335938 30.691406 8.324219 42.257812 8.324219s30.890625.011719 42.257813-8.324219c9.496093-6.960937 16.367187-18.128906 24.507812-39.832031 4.472657-11.675781 13.101563-35.480469 14.652344-51.167969.234375-2.367187.355469-5.945312.417969-9.304687.089844-4.914063-3.871094-8.941406-8.785156-8.941406h-71.824219c-50.441407 0-74.394531 8.445312-85.367188 8.445312-10.96875 0-34.925781-8.445312-85.363281-8.445312h-71.824219c-4.914062 0-8.878906 4.027343-8.785156 8.941406.0625 3.359375.183594 6.9375.417969 9.304687 1.546875 15.6875 10.179687 39.492188 14.648437 51.167969 8.144531 21.703125 15.015625 32.867188 24.511719 39.832031 11.367188 8.335938 30.691406 8.324219 42.257812 8.324219 11.566407 0 30.894532.011719 42.257813-8.324219 9.496094-6.960937 16.367187-18.128906 24.507813-39.832031 2.179687-5.800781 4.433593-12.683594 5.59375-19.894531 1.632812-11.285157 6.972656-11.910157 11.78125-11.910157zm0 0" fill="#f1eee9"/><path d="m223.3125 251.753906c-14.945312 39.816406-23.582031 38.046875-52.175781 38.046875-4.238281 0-8.046875.046875-11.496094-.027343-19.800781-.359376-27.960937-4.109376-40.695313-38.019532-18.246093-48.628906 12.875-48.367187 52.191407-48.367187 9.757812 0 19.023437-.015625 27.128906.703125 24.585937 2.183594 38.769531 11.105468 25.046875 47.664062zm0 0" fill="#0084a6"/><path d="m391.589844 251.753906c-14.945313 39.816406-23.578125 38.046875-52.175782 38.046875-3.734374 0-7.125.03125-10.230468 0-20.71875-.242187-28.96875-3.433593-41.957032-38.046875-18.25-48.628906 12.875-48.367187 52.1875-48.367187 10.273438 0 19.988282-.015625 28.394532.816406 23.808594 2.386719 37.261718 11.625 23.78125 47.550781zm0 0" fill="#0084a6"/><g fill="#40b4d3"><path d="m391.589844 251.753906c-14.945313 39.816406-23.578125 38.046875-52.175782 38.046875-3.734374 0-7.125.03125-10.230468 0 27.417968-31.253906 36.253906-63.152343 38.625-85.597656 23.808594 2.386719 37.261718 11.625 23.78125 47.550781zm0 0"/><path d="m223.3125 251.753906c-14.945312 39.816406-23.582031 38.046875-52.175781 38.046875-4.238281 0-8.046875.046875-11.496094-.027343 27.460937-31.308594 36.269531-63.238282 38.625-85.683594 24.585937 2.183594 38.769531 11.105468 25.046875 47.664062zm0 0"/></g></svg>