<svg id="Capa_1" enable-background="new 0 0 512 512" height="512" viewBox="0 0 512 512" width="512" xmlns="http://www.w3.org/2000/svg"><g><path d="m0 256c0-141.2 114.315-255.7 255.445-255.999 140.953-.299 255.007 112.206 256.54 253.151.892 82.019-36.792 155.271-96.029 202.736-.777.623-1.88.621-2.666.009-43.4-33.843-97.99-54.005-157.289-54.005-59.317 0-113.921 20.174-157.327 54.035-.763.595-1.835.596-2.59-.009-58.574-46.914-96.084-119.036-96.084-199.918z" fill="#fb5858"/><path d="m453.485 256c0 109.068-88.417 197.485-197.485 197.485s-197.485-88.417-197.485-197.485 88.417-197.485 197.485-197.485 197.485 88.417 197.485 197.485z" fill="#fc7979"/><path d="m196.57 373.32c-32.565 6-57.237 34.538-57.237 68.839v27.466c0 6.548-7.117 10.608-12.764 7.293-10.712-6.29-20.927-13.336-30.57-21.066v-13.693c0-38.66 31.34-70 70-70h29.409z" fill="#44bfd7"/><path d="m416 442.159v13.693c-43.827 35.133-99.459 56.148-160 56.148-47.457 0-91.897-12.913-130-35.417v-34.424c0-38.377 30.884-69.542 69.154-69.995.282-.003 7.138 4.283 7.421 4.283l103.75.601 10.522-4.889h29.153c38.66 0 70 31.34 70 70z" fill="#7cd2e3"/><path d="m355.678 430.072v61.797c-4.923 2.083-9.925 4.016-15 5.795v-67.591c0-4.142 3.358-7.5 7.5-7.5s7.5 3.357 7.5 7.499zm-191.856-7.5c-4.142 0-7.5 3.358-7.5 7.5v61.797c4.923 2.083 9.925 4.016 15 5.795v-67.591c0-4.143-3.358-7.501-7.5-7.501z" fill="#44bfd7"/><path d="m256 433.005-60.846-60.846h121.693z" fill="#c2eaf2"/><path d="m381.271 176.505c2.402 0 4.439 1.782 4.744 4.165.65 5.068.985 10.234.985 15.479 0 62.29-47.234 113.547-107.839 119.908-60.605-6.361-107.839-57.618-107.839-119.908 0-6.689.545-13.251 1.593-19.643h208.356z" fill="#784132"/><path d="m289.787 314.46c-7.557 1.484-15.368 2.262-23.36 2.262h-20.854c-66.591-.001-120.573-53.983-120.573-120.574 0-5.63.386-11.169 1.133-16.593.24-1.742 1.712-3.05 3.471-3.05h64.562c-1.047 6.393-1.592 12.954-1.592 19.643-.001 58.599 41.802 107.434 97.213 118.312z" fill="#61362b"/><path d="m146 282.159c-13.807 0-25-11.193-25-25v-10c0-13.807 11.193-25 25-25 13.807 0 25 11.193 25 25v10c0 13.807-11.193 25-25 25z" fill="#f2bb88"/><path d="m136 242.159v20c0 8.178 3.927 15.439 9.998 20-13.806-.001-24.998-11.194-24.998-25v-10c0-13.806 11.192-24.999 24.998-25-6.071 4.561-9.998 11.822-9.998 20zm230-20v-20c0-60.751-49.249-110-110-110-60.751 0-110 49.249-110 110v40c0 50.351 33.83 92.801 80 105.859v24.141c11.716 11.716 18.284 18.017 30 29.733 11.716-11.716 18.284-18.017 30-29.733v-24.141c33.586-9.499 60.641-34.551 72.895-66.883 2.252.666 4.637 1.024 7.105 1.024 13.807 0 25-11.193 25-25v-10c0-13.807-11.193-25-25-25z" fill="#e3a76f"/><path d="m366 202.159v40c0 50.792-34.425 93.543-81.216 106.195-9.023 2.44-18.545 2.44-27.568 0-46.791-12.652-81.216-55.403-81.216-106.195v-40c0-55.663 41.345-101.669 95-108.985 53.655 7.315 95 53.322 95 108.985z" fill="#f2bb88"/><path d="m270.5 248.89c-3.875 3.875-9.024 6.009-14.5 6.009s-10.625-2.134-14.5-6.009c-2.929-2.93-2.929-7.678 0-10.607 2.929-2.928 7.678-2.928 10.606 0 1.042 1.042 2.424 1.616 3.893 1.616s2.851-.574 3.893-1.616c2.929-2.928 7.678-2.928 10.606 0 2.931 2.93 2.931 7.678.002 10.607z" fill="#e3a76f"/><path d="m256 312.159c-16.569 0-30-13.431-30-30 0-4.142 3.358-7.5 7.5-7.5h45c4.142 0 7.5 3.358 7.5 7.5 0 16.568-13.431 30-30 30z" fill="#fff5f5"/><path d="m263.5 311.214c-2.397.617-4.91.945-7.5.945-16.568 0-30-13.431-30-30 0-4.142 3.358-7.5 7.5-7.5h15c-4.142 0-7.5 3.358-7.5 7.5 0 13.979 9.561 25.724 22.5 29.055z" fill="#def4f8"/><path d="m177.554 181.512c-29.365 0-46.412-33.459-28.934-57.057 21.966-29.656 57.214-48.88 96.953-48.88h20.854c61.636 0 112.471 46.249 119.694 105.937z" fill="#784132"/><path d="m177.935 181.512h-52.055c7.223-59.688 58.057-105.937 119.694-105.937h20.854c5.262 0 10.446.337 15.531.991-54.47 7.004-97.418 50.354-104.024 104.946z" fill="#61362b"/><path d="m233.653 209.099c1.877 3.692.406 8.207-3.285 10.085-3.693 1.878-8.207.406-10.085-3.285-3.125-6.143-10.664-8.6-16.808-5.477-3.692 1.877-8.207.405-10.085-3.287-1.877-3.692-.406-8.207 3.286-10.084 6.758-3.436 14.284-3.803 20.98-1.621 6.695 2.181 12.56 6.911 15.997 13.669zm81.671-12.049c-6.758-3.436-14.284-3.803-20.98-1.621s-12.561 6.912-15.998 13.67c-1.877 3.692-.406 8.207 3.285 10.085 3.693 1.878 8.207.406 10.085-3.285 3.125-6.143 10.664-8.6 16.808-5.477 3.692 1.877 8.207.405 10.085-3.287 1.879-3.692.407-8.207-3.285-10.085z" fill="#a65d4e"/><path d="m70.979 132.462c-4.46-.926-5.434-6.867-1.518-9.193l183.986-109.28c1.574-.935 3.533-.935 5.107 0l183.986 109.28c3.916 2.326 2.941 8.267-1.518 9.193-57.356 11.915-119.756 18.454-185.022 18.454s-127.666-6.539-185.021-18.454z" fill="#fffac1"/><path d="m186.847 148.437c-40.06-2.032-81.62-7.725-116.808-15.035-4.46-.926-5.126-7.807-1.21-10.133l184.155-109.743c1.507-.895 3.829-.47 5.366.349z" fill="#fff79f"/><path d="m253.606 63.02h-22.915c-4.142 0-7.5-3.358-7.5-7.5 0-4.142 3.358-7.5 7.5-7.5h22.915c4.142 0 7.5 3.358 7.5 7.5 0 4.142-3.357 7.5-7.5 7.5zm7.5 54.48c0-4.142-3.358-7.5-7.5-7.5h-22.915c-4.142 0-7.5 3.358-7.5 7.5 0 4.142 3.358 7.5 7.5 7.5h22.915c4.143 0 7.5-3.358 7.5-7.5zm111.383 0c0-4.142-3.358-7.5-7.5-7.5h-12.088c-4.142 0-7.5 3.358-7.5 7.5 0 4.142 3.358 7.5 7.5 7.5h12.088c4.143 0 7.5-3.358 7.5-7.5zm-187.945-18.894c0-4.142-3.358-7.5-7.5-7.5h-12.088c-4.142 0-7.5 3.358-7.5 7.5 0 4.142 3.358 7.5 7.5 7.5h12.088c4.142 0 7.5-3.357 7.5-7.5zm-35.714 19.808c0-4.142-3.358-7.5-7.5-7.5h-9.554c-4.142 0-7.5 3.358-7.5 7.5 0 4.142 3.358 7.5 7.5 7.5h9.554c4.142 0 7.5-3.358 7.5-7.5zm171.042-36.312c0-4.142-3.358-7.5-7.5-7.5h-22.915c-4.142 0-7.5 3.358-7.5 7.5 0 4.142 3.358 7.5 7.5 7.5h22.915c4.142 0 7.5-3.358 7.5-7.5z" fill="#ffd993"/></g></svg>