<svg id="Capa_1" enable-background="new 0 0 512 512" height="512" viewBox="0 0 512 512" width="512" xmlns="http://www.w3.org/2000/svg"><g><g><path d="m456.969 407.139c27.744-39.712 44.031-88.02 44.031-140.139 0-135.31-109.69-245-245-245s-245 109.69-245 245c0 52.119 16.287 100.427 44.031 140.139z" fill="#ffdd40"/></g><g><circle cx="256" cy="242" fill="#ffc839" r="200"/></g><g><path d="m456.949 407.139c-8.256-22.709-16.99-42.685-24.722-51.911-.904-1.078-1.795-2.019-2.668-2.79-6.623-5.848-19.39-11.382-34.352-16.323-37.929-12.525-89.967-21.232-91.82-21.54h-94.772c-1.853.307-53.892 9.014-91.82 21.54-14.961 4.941-27.729 10.475-34.352 16.323-.874.772-1.765 1.712-2.668 2.79-7.732 9.226-16.467 29.203-24.722 51.911-.001.009-.001.018-.002.026 36.568 52.328 93.045 89.714 158.449 101.156l42.5-20.47 42.502 20.471c65.403-11.443 121.881-48.828 158.449-101.156-.001-.009-.001-.018-.002-.027z" fill="#e9efff"/></g><g><path d="m224.985 502.789c-72.804-59.054-90.19-136.817-94.341-170.923-4.742 1.359-9.394 2.777-13.85 4.249-14.961 4.941-27.729 10.475-34.352 16.323-.874.772-1.765 1.712-2.668 2.79-7.732 9.226-16.467 29.203-24.722 51.911-.001.009-.001.018-.002.026 36.572 52.335 93.064 89.705 158.477 101.143z" fill="#dae2fe"/></g><g><path d="m349.296 379.57c5.805-7.806 5.152-18.657-1.547-25.71l-35.902-37.796c-4.95-.903-8.035-1.419-8.461-1.489h-94.772c-.426.071-3.51.586-8.461 1.489l-35.902 37.796c-6.7 7.053-7.353 17.904-1.547 25.71l26.774 36c2.603 3.5 2.637 8.282.085 11.819l-8.73 12.099c-5.035 6.977-5.043 16.393-.02 23.379l32.684 45.455c7.356 1.287 14.829 2.236 22.395 2.852l20.108-23.323 20.107 23.323c7.566-.616 15.039-1.565 22.395-2.852l32.684-45.455c5.023-6.986 5.015-16.401-.02-23.379l-8.73-12.099c-2.552-3.537-2.518-8.32.085-11.819z" fill="#3c5082"/></g><g><path d="m303.386 314.575h-94.772l27.272 196.606c6.634.539 13.341.819 20.114.819s13.48-.28 20.114-.819z" fill="#4fabf7"/></g><g><path d="m248.5 511.873c2.492.076 4.99.127 7.5.127s5.008-.051 7.5-.127v-197.298h-15z" fill="#2e8be6"/></g><g><path d="m420.93 426.843v21.327c-7.157 6.519-14.704 12.617-22.599 18.262l12.035-41.103c1.75-5.98 10.564-4.716 10.564 1.514z" fill="#dae2fe"/></g><g><path d="m91.07 426.843v21.327c7.157 6.519 14.704 12.617 22.599 18.262l-12.035-41.103c-1.75-5.98-10.564-4.716-10.564 1.514z" fill="#bec8f7"/></g><g><path d="m208.614 221.239v93.336s19.021 33.261 47.17 33.261c.073 0 .143-.005.216-.005 28.031-.103 47.386-33.256 47.386-33.256v-93.336z" fill="#a05838"/></g><g><path d="m208.614 220.734v93.841c94.723 0 94.772-53.4 94.772-53.4v-40.44h-94.772z" fill="#934a2e"/></g><g><path d="m256 22c-58.069 0-105.143 47.074-105.143 105.143v20.076h210.286v-20.076c0-58.069-47.074-105.143-105.143-105.143z" fill="#ff4155"/></g><g><path d="m180.942 159.567s-10.385-25.285-28.897-19.415.448 60.664 36.573 64.116z" fill="#934a2e"/></g><g><path d="m331.058 159.567s10.385-25.285 28.897-19.415-.448 60.664-36.573 64.116z" fill="#a05838"/></g><g><path d="m256.17 260.702c-17.812 0-30.503 15.742-29.985 36.18.076 2.994 3.359 4.802 5.952 3.303s7.708 20.421 24.033 20.421 24.033-20.421 24.033-20.421c2.592 1.499 5.876-.309 5.952-3.303.518-20.438-12.173-36.18-29.985-36.18z" fill="#ff4155"/></g><g><path d="m327.049 124.754c-3.509-10.287-9.219-24.496-16.225-32.717-3.978-3.853-8.145-7.046-12.399-9.103-8.195-3.963-15.758-4.069-22.16-2.497-13.314 3.269-27.216 3.268-40.53 0-6.402-1.572-13.966-1.466-22.16 2.497-4.254 2.057-8.421 5.25-12.399 9.103-7.006 8.221-12.716 22.43-16.225 32.717-2.762 8.097-8.72 14.703-16.484 18.295-.031 1.23-.063 2.46-.063 3.705 0 64.505 39.219 140.155 87.597 140.155s87.597-75.651 87.597-140.155c0-1.245-.032-2.475-.063-3.705-7.766-3.592-13.724-10.198-16.486-18.295z" fill="#b76c4e"/></g><g><path d="m208.403 146.754c0-25.925 6.339-48.917 17.057-67.152-3.755.312-7.739 1.327-11.885 3.333-4.254 2.057-8.421 5.25-12.399 9.103-7.006 8.221-12.716 22.43-16.225 32.717-2.762 8.097-8.72 14.703-16.484 18.295-.031 1.23-.063 2.46-.063 3.705 0 64.505 39.219 140.155 87.597 140.155 6.881 0 13.576-1.535 20-4.346-38.742-16.953-67.598-80.48-67.598-135.81z" fill="#a05838"/></g><g><path d="m181.267 78.923c19.26 7.223 37.453 14.045 74.733 14.045s55.473-6.822 74.733-14.045c6.461-2.423 12.993-4.871 20.191-7.098l-10.539-41.529c-4.522-17.819-20.561-30.296-38.945-30.296-6.585 0-13.069 1.619-18.882 4.713l-6.045 3.218c-6.315 3.362-13.359 5.12-20.513 5.12s-14.198-1.758-20.513-5.12l-6.045-3.218c-5.812-3.094-12.296-4.713-18.881-4.713-18.384 0-34.423 12.477-38.945 30.297l-10.539 41.529c7.197 2.226 13.729 4.674 20.19 7.097z" fill="#dae2fe"/></g><g><path d="m209.305 76.051c-10.418-9.502-23.624-59.604-8.305-74.894-14.177 3.471-25.67 14.499-29.385 29.139l-10.539 41.529c7.198 2.227 13.729 4.675 20.191 7.098 8.908 3.341 17.592 6.594 28.038 9.128z" fill="#bec8f7"/></g><g><path d="m256 80.968c-37.28 0-55.473-6.822-74.733-14.045-5.402-2.026-10.853-4.069-16.701-5.986-5.51-1.806-11.403 1.418-12.829 7.038l-7.709 30.376 9.386 2.637c8.82 2.478 16.711 5.436 24.342 8.297 19.248 7.218 39.151 14.682 78.244 14.682s58.997-7.464 78.244-14.682c7.631-2.861 15.522-5.82 24.342-8.297l9.386-2.637-7.709-30.376c-1.426-5.62-7.319-8.844-12.829-7.038-5.849 1.917-11.299 3.96-16.701 5.986-19.26 7.223-37.453 14.045-74.733 14.045z" fill="#4b6496"/></g><g><path d="m209.305 76.051c-10.446-2.534-19.13-5.787-28.038-9.128-5.402-2.026-10.853-4.069-16.701-5.986-5.51-1.806-11.403 1.418-12.829 7.038l-7.709 30.376 9.386 2.637c8.82 2.478 16.711 5.436 24.342 8.297 9.087 3.408 18.323 6.869 29.652 9.575v-11.238c-6.924-1.814-12.032-8.114-12.032-15.607.001-8.159 6.065-14.887 13.929-15.964z" fill="#3c5082"/></g><g><path d="m387.809 101.749c0-9.486-8.687-16.564-17.993-14.722-15.587 3.086-27.446 7.532-39.083 11.896-19.26 7.223-37.453 14.045-74.733 14.045s-55.473-6.822-74.733-14.045c-11.637-4.364-23.496-8.81-39.083-11.896-9.306-1.843-17.993 5.235-17.993 14.722 0 7.148 5.039 13.33 12.051 14.718 13.458 2.663 23.813 6.542 34.49 10.546 20.917 7.844 42.547 15.955 85.267 15.955s64.35-8.111 85.267-15.955c10.678-4.004 21.032-7.883 34.49-10.546 7.014-1.388 12.053-7.57 12.053-14.718z" fill="#e9efff"/></g><g><path d="m124.191 101.749c0 7.149 5.039 13.33 12.051 14.718 13.458 2.663 23.813 6.542 34.49 10.546 9.641 3.615 19.439 7.286 31.377 10.194-5.244-2.453-8.885-7.761-8.885-13.933 0-8.5 6.89-15.39 15.39-15.39.006 0 .012.001.018.001-10.147-2.509-18.65-5.694-27.366-8.962-11.637-4.364-23.496-8.81-39.083-11.896-9.304-1.842-17.992 5.235-17.992 14.722z" fill="#dae2fe"/></g><g><path d="m303.386 299.609-47.386 48.222s18.328 33.146 30.188 33.146c7.034 0 17.106-22.384 24.137-40.597 5.342-13.84 2.694-29.488-6.939-40.771z" fill="#73c3f9"/></g><g><path d="m208.614 299.609 47.386 48.222s-18.328 33.146-30.188 33.146c-7.034 0-17.106-22.384-24.137-40.597-5.342-13.84-2.694-29.488 6.939-40.771z" fill="#73c3f9"/></g><g><g><path d="m242.013 192.447 8.436-13.441c2.569-4.093 8.533-4.093 11.102 0l8.436 13.441c2.739 4.365-.398 10.038-5.551 10.038h-16.871c-5.154-.001-8.291-5.674-5.552-10.038z" fill="#934a2e"/></g></g><g><g><path d="m235.384 240.87h41.233c4.111-3.622 7.258-8.309 9.01-13.631 1.584-4.811-2.069-9.754-7.134-9.754h-44.985c-5.065 0-8.718 4.943-7.134 9.754 1.752 5.322 4.899 10.009 9.01 13.631z" fill="#162544"/></g><g><path d="m276.616 240.87c-5.493 4.849-12.714 7.798-20.616 7.798s-15.124-2.948-20.616-7.798c5.5-4.849 12.714-7.798 20.616-7.798s15.116 2.949 20.616 7.798z" fill="#ff4155"/></g></g><g><path d="m311.239 162.03c.043-3.495-1.371-7.004-4.242-9.539-4.675-4.128-11.84-4.128-16.515 0-2.871 2.535-4.284 6.044-4.242 9.539.055 4.538 5.629 6.716 8.838 3.507 2.022-2.022 5.3-2.022 7.322 0 3.21 3.209 8.784 1.031 8.839-3.507z" fill="#162544"/></g><g><path d="m200.761 162.03c-.043-3.495 1.371-7.004 4.242-9.539 4.675-4.128 11.84-4.128 16.515 0 2.871 2.535 4.284 6.044 4.242 9.539-.055 4.538-5.629 6.716-8.838 3.507-2.022-2.022-5.3-2.022-7.322 0-3.21 3.209-8.784 1.031-8.839-3.507z" fill="#162544"/></g></g></svg>