<svg id="Capa_1" enable-background="new 0 0 512 512" height="512" viewBox="0 0 512 512" width="512" xmlns="http://www.w3.org/2000/svg"><g><path d="m415.336 159.336c0-51.06-24.02-96.506-61.374-125.666l-45.294 80.716v58.49l106.668-10z" fill="#b56d3c"/><path d="m158.038 33.67c-37.353 29.16-61.374 74.606-61.374 125.666v3.54l106.668 10v-58.49z" fill="#c78f2c"/><path d="m256 0-10 162.876h72.668v-48.49c28.852-32.377 35.294-80.716 35.294-80.716-27.023-21.096-61.023-33.67-97.962-33.67z" fill="#c78f2c"/><path d="m256 0c-36.939 0-70.939 12.574-97.962 33.67s6.442 48.339 35.294 80.716v48.49h62.668z" fill="#e1bb78"/><path d="m480.133 417.664c0-27.472-17.603-51.853-43.68-60.497l-69.207-22.942-68.489 177.775h181.375v-94.336z" fill="#332866"/><path d="m367.245 334.226-32.623-10.814c.001.002-78.622 188.588-78.622 188.588h42.757c69.928-74.981 72.575-144.494 68.488-177.774z" fill="#1f0a33"/><path d="m31.867 417.664c0-27.472 17.603-51.853 43.68-60.497l69.207-22.942 68.489 177.775h-181.376z" fill="#574d8c"/><path d="m144.755 334.226 32.623-10.814c-.001.002 78.622 188.588 78.622 188.588h-42.757c-69.928-74.981-72.575-144.494-68.488-177.774z" fill="#332866"/><path d="m256 350.564-10 75.706 10 85.73c29.532-26.715 48.821-52.783 61.27-76.604z" fill="#cfcfe6"/><path d="m256 350.564v161.436c-29.532-26.715-48.821-52.783-61.27-76.604z" fill="#ece6f2"/><path d="m334.622 323.411h-88.622l10 27.153c.004 1.034.479 67.272 61.27 84.833 33.532-64.161 17.352-111.984 17.352-111.986z" fill="#ece6f2"/><path d="m177.378 323.411h78.622v27.153c-.004 1.034-.479 67.272-61.27 84.833-33.532-64.161-17.352-111.984-17.352-111.986z" fill="#fff5f5"/><path d="m138.579 226.611h-41.915c-17.6 0-31.868-14.268-31.868-31.868 0-17.6 14.268-31.868 31.868-31.868h31.867z" fill="#ffdecf"/><path d="m373.421 226.611h41.915c17.6 0 31.868-14.268 31.868-31.868 0-17.6-14.268-31.868-31.868-31.868h-31.867z" fill="#ffcdbe"/><path d="m318.668 114.386c-14.528 16.303-34.738 28.559-62.668 28.559l-10 64.192 10 143.403c70.399 0 127.469-57.07 127.469-127.469l.008-60.187c0-.001-45.045-.001-64.809-48.498z" fill="#ffdecf"/><path d="m193.332 114.386c-19.764 48.498-64.809 48.498-64.809 48.498l.008 60.187c0 70.399 57.07 127.469 127.469 127.469v-207.595c-27.93 0-48.14-12.256-62.668-28.559z" fill="#ffeee5"/><path d="m184.299 192.137h31.867v30h-31.867z" fill="#332866"/><path d="m295.834 192.137h31.867v30h-31.867z" fill="#180a33"/></g></svg>