<svg id="Capa_1" enable-background="new 0 0 512 512" height="512" viewBox="0 0 512 512" width="512" xmlns="http://www.w3.org/2000/svg"><g><path d="m0 256c0-141.385 114.615-256 256-256s256 114.615 256 256c0 80.844-37.474 152.936-96 199.852-2.987 2.395-103.586-42.178-160-42.178s-157.013 44.572-160 42.178c-58.526-46.916-96-119.008-96-199.852z" fill="#ffc14f"/><path d="m451.936 256c0 108.213-87.724 195.936-195.936 195.936s-195.936-87.723-195.936-195.936 87.723-195.936 195.936-195.936 195.936 87.723 195.936 195.936z" fill="#ffcd71"/><path d="m332.234 323.344h-139.968c-27.614 0-50-22.386-50-50v-103.514c0-67.622 53.17-122.824 119.984-126.082 66.814 3.258 119.984 58.46 119.984 126.082v103.514c0 27.614-22.386 50-50 50z" fill="#203e76"/><path d="m226 323.344h-46.234c-27.614 0-50-22.386-50-50v-103.514c0-8.523.845-16.849 2.456-24.899.821-4.102 4.452-7.037 8.635-7.037h39.219c-2.659 10.2-4.075 20.903-4.075 31.936v103.514c-.001 27.614 22.385 50 49.999 50z" fill="#19305c"/><path d="m166 340s16.521 4.038 5.641 11.004c-19.429 12.439-32.308 34.214-32.308 58.996v59.708c0 6.511-7.076 10.547-12.692 7.252-10.738-6.3-20.977-13.361-30.641-21.108v-45.852c0-38.66 31.34-70 70-70z" fill="#c2eaf2"/><path d="m416 410v45.852c-18.23 14.614-38.503 26.785-60.321 36.017-2.48 1.049-5.202-2.974-7.721-2.001-20.291 7.834-41.83 13.158-64.237 15.591-2.636.286-5.062 5.566-7.72 5.772-6.6.51-13.27.77-20 .77s-13.4-.26-20-.77c-3.097-.239-8.445-7.456-11.511-7.805-22.506-2.56-36.844-8.076-57.191-16.085-1.999-.787-9.003 5.363-10.977 4.528-10.482-4.435-20.608-9.549-30.321-15.286v-66.583c0-30.905 20.028-57.132 47.813-66.411 6.972-2.328 17.39.772 25.145.772l140.202-.564 6.839-3.797c38.66 0 70 31.34 70 70z" fill="#def4f8"/><path d="m256 391.34-46.665-46.665c-1.726-1.726-.503-4.676 1.937-4.676h89.534c2.411 0 3.619 2.915 1.914 4.62z" fill="#c2eaf2"/><path d="m227.161 375.449c5.827 13.042 8.839 27.167 8.839 41.452v94.329c-4.927-.381-9.816-.901-14.661-1.557-1.354-.183-1.773-3.247-3.121-3.452-2.69-.408-5.365-.858-8.027-1.349-.976-.18-2.881 2.505-3.853 2.314-17.367-3.414-34.103-8.584-50.017-15.318v-151.204c3.164-.438 6.395-.664 9.678-.664h45.324zm118.839-35.449h-45.324l-15.837 35.449c-5.827 13.042-8.839 27.167-8.839 41.452v94.329c4.927-.381 9.816-.901 14.661-1.557 1.089-.147 3.315-4.895 4.4-5.057 2.76-.41 5.506-.864 8.237-1.361 1.17-.213 1.199 4.16 2.363 3.931 17.367-3.414 34.103-8.584 50.017-15.318v-151.204c-3.163-.437-6.394-.664-9.678-.664z" fill="#fb5858"/><path d="m210.066 371.876c7.48 16.743 11.272 34.53 11.272 52.867v84.929c-5.048-.683-10.05-1.513-15-2.487v-82.442c0-16.215-3.354-31.943-9.968-46.748l-16.973-37.995h16.429zm106.109-31.876-14.241 31.876c-7.479 16.742-11.272 34.528-11.272 52.867v84.929c5.048-.683 10.05-1.513 15-2.486v-82.443c0-16.216 3.354-31.944 9.968-46.748l16.973-37.995z" fill="#f87b67"/><path d="m355.678 437.5v54.369c-4.923 2.083-9.925 4.017-15 5.794v-60.163c0-4.142 3.358-7.5 7.5-7.5s7.5 3.358 7.5 7.5zm-191.856-7.5c-4.142 0-7.5 3.358-7.5 7.5v54.369c4.923 2.083 9.925 4.017 15 5.794v-60.163c0-4.142-3.358-7.5-7.5-7.5z" fill="#c83c50"/><path d="m146 243.47c-13.807 0-25-11.193-25-25v-10c0-13.807 11.193-25 25-25 13.807 0 25 11.193 25 25v10c0 13.807-11.193 25-25 25z" fill="#f2d1a5"/><path d="m136 203.47v20c0 8.178 3.927 15.439 9.998 20-13.806-.001-24.998-11.193-24.998-25v-10c0-13.806 11.192-24.999 24.998-25-6.071 4.561-9.998 11.822-9.998 20zm230-20v-20c0-60.751-49.249-110-110-110-60.751 0-110 49.249-110 110v40c0 50.351 33.83 92.801 80 105.859v30.671l30 30 30-30v-30.671c33.586-9.5 60.641-34.551 72.895-66.883 2.252.666 4.637 1.024 7.105 1.024 13.807 0 25-11.193 25-25v-10c0-13.807-11.193-25-25-25z" fill="#f2bb88"/><path d="m366 163.47v40c0 50.792-34.425 93.543-81.216 106.195-9.023 2.44-18.545 2.44-27.568 0-46.791-12.652-81.216-55.403-81.216-106.195v-40c0-55.663 41.345-101.669 95-108.985 53.655 7.315 95 53.322 95 108.985z" fill="#f2d1a5"/><path d="m241.5 210.201c-2.929-2.93-2.929-7.678 0-10.607 2.929-2.928 7.678-2.928 10.606 0 1.042 1.042 2.424 1.616 3.893 1.616s2.851-.574 3.893-1.616c2.929-2.928 7.678-2.928 10.606 0 2.929 2.93 2.929 7.678 0 10.607-3.875 3.875-9.024 6.009-14.5 6.009s-10.623-2.134-14.498-6.009z" fill="#d6995c"/><path d="m223.5 170.97c0 8.284-6.716 15-15 15s-15-6.716-15-15 6.716-15 15-15 15 6.716 15 15zm80-15c-8.284 0-15 6.716-15 15s6.716 15 15 15 15-6.716 15-15-6.716-15-15-15z" fill="#61362b"/><path d="m226 163.47c0 4.142-3.358 7.5-7.5 7.5s-7.5-3.358-7.5-7.5 3.358-7.5 7.5-7.5 7.5 3.358 7.5 7.5zm87.5-7.5c-4.142 0-7.5 3.358-7.5 7.5s3.358 7.5 7.5 7.5 7.5-3.358 7.5-7.5-3.358-7.5-7.5-7.5z" fill="#fff5f5"/><path d="m256 273.47c-16.569 0-30-13.431-30-30 0-4.142 3.358-7.5 7.5-7.5h45c4.142 0 7.5 3.358 7.5 7.5 0 16.568-13.431 30-30 30z" fill="#fff5f5"/><path d="m263.5 272.525c-2.397.617-4.91.945-7.5.945-16.568 0-30-13.431-30-30 0-4.142 3.358-7.5 7.5-7.5h15c-4.142 0-7.5 3.358-7.5 7.5 0 13.979 9.561 25.724 22.5 29.055z" fill="#def4f8"/><path d="m379.879 145.44c-7.245 1.293-14.704 1.967-22.321 1.967-61.373 0-112.517-43.799-123.879-101.845 7.245-1.292 14.704-1.967 22.321-1.967 61.374.001 112.517 43.8 123.879 101.845z" fill="#203e76"/><path d="m154.442 147.408c-7.617 0-15.076-.674-22.321-1.967 11.362-58.046 62.505-101.845 123.879-101.845 7.617 0 15.076.675 22.321 1.967-11.363 58.046-62.506 101.845-123.879 101.845z" fill="#19305c"/><path d="m206 330.936c0 8.724-5.586 16.144-13.376 18.877 2.132 3.18 3.376 7.006 3.376 11.123 0 7.272-3.881 13.637-9.684 17.138 2.923 3.477 4.684 7.964 4.684 12.862 0 11.046-8.954 20-20 20s-20-8.954-20-20c0-4.898 1.761-9.385 4.684-12.862-5.803-3.501-9.684-9.866-9.684-17.138 0-4.117 1.244-7.943 3.376-11.123-7.79-2.733-13.376-10.153-13.376-18.877 0-11.045 8.954-20 20-20h30c11.046 0 20 8.955 20 20z" fill="#19305c"/><path d="m376 330.937c0 8.724-5.586 16.144-13.376 18.877 2.132 3.18 3.376 7.006 3.376 11.123 0 7.271-3.881 13.637-9.684 17.138 2.923 3.477 4.684 7.964 4.684 12.862 0 11.045-8.954 20-20 20s-20-8.955-20-20c0-4.898 1.761-9.385 4.684-12.862-5.803-3.501-9.684-9.866-9.684-17.138 0-4.117 1.244-7.943 3.376-11.123-7.79-2.734-13.376-10.153-13.376-18.877 0-11.046 8.954-20 20-20h30c11.046 0 20 8.954 20 20z" fill="#203e76"/><path d="m361.726 108.708h-194.756c-5.58 0-9.825-5.028-8.878-10.527 3.936-22.855 13.615-44.558 28.059-64.463 1.695-2.336 4.41-3.719 7.296-3.719h141.801c2.886 0 5.601 1.383 7.296 3.719 9.681 13.341 17.221 27.489 22.327 42.251.319.924-1.646 2.299-1.345 3.228.914 2.827 1.74 5.676 2.474 8.545.313 1.222 2.884 1.998 3.164 3.228.544 2.391 1.024 4.795 1.44 7.212.947 5.499-3.298 10.526-8.878 10.526z" fill="#c83c50"/><path d="m171.208 108.708h-20.934c-5.58 0-9.825-5.028-8.878-10.527.416-2.417.897-4.821 1.44-7.212.237-1.044 2.766-2.261 3.163-3.204 1.223-2.896.805-5.223 1.83-8.362.256-.785-.982-2.623-.711-3.405 5.106-14.773 12.65-28.931 22.337-42.281 1.695-2.336 4.41-3.719 7.296-3.719h20.066c-13.132 23.137-21.969 48.189-25.685 74.494-.204 1.452-.166 2.876.076 4.216z" fill="#b03244"/><path d="m369.163 90.97h-196.433c-5.002 0-8.547-4.838-7.098-9.625.015-.05.03-.1.045-.149.946-3.113 3.845-5.225 7.098-5.225h192.095c1.708 4.933 3.142 9.935 4.293 14.999z" fill="#f87b67"/><path d="m177.283 75.97c-1.442 4.945-2.701 9.946-3.769 15h-30.678c1.151-5.063 2.586-10.066 4.292-15z" fill="#fb5858"/></g></svg>