<svg id="Capa_1" enable-background="new 0 0 512 512" height="512" viewBox="0 0 512 512" width="512" xmlns="http://www.w3.org/2000/svg"><g><path d="m75.547 325.3c-26.077 8.644-43.68 33.025-43.68 60.497v126.203h48.734l10-99.16-10-89.215z" fill="#80aaff"/><path d="m80.602 323.625v188.375h30l10-99.16-10-99.16z" fill="#332866"/><path d="m480.133 385.797c0-27.472-17.603-51.853-43.68-60.497l-5.054-1.676-10 93.868 10 94.508h48.734z" fill="#6680ff"/><path d="m401.398 313.68-10 99.16 10 99.16h30v-188.375z" fill="#180a33"/><path d="m401.398 313.68-66.776-22.136c0 .005-88.622 110.538-88.622 110.538l10 109.918h145.398z" fill="#332866"/><path d="m177.378 291.544-66.776 22.136v198.32h145.398v-109.918z" fill="#574d8c"/><path d="m334.622 291.544h-88.622l10 120.538c70.45-38.199 78.621-120.533 78.622-120.538z" fill="#6680ff"/><path d="m256 412.082v-120.538h-78.622s8.17 82.338 78.622 120.538z" fill="#80aaff"/><path d="m373.469 191.204h31.867c17.6 0 31.868-14.268 31.868-31.868 0-17.6-14.268-31.868-31.868-31.868h-31.867z" fill="#5b362a"/><path d="m138.531 191.204h-31.867c-17.6 0-31.868-14.268-31.868-31.868 0-17.6 14.268-31.868 31.868-31.868h31.867z" fill="#895140"/><path d="m246 100.602 10 218.071c70.399 0 127.469-57.07 127.469-127.469v-80.602z" fill="#895140"/><path d="m200.232 78.465-71.701 32.136v80.602c0 70.399 57.07 127.469 127.469 127.469v-208.07z" fill="#b56d3c"/><path d="m184.299 144.336h31.867v30h-31.867z" fill="#332866"/><path d="m295.834 144.336h31.867v30h-31.867z" fill="#180a33"/><path d="m383.469 0h-127.469l-10 55.301 10 55.301h127.469z" fill="#180a33"/><path d="m200.232 0-10 55.301 10 33.165c11.528 13.531 28.674 22.136 47.801 22.136h7.967v-110.602z" fill="#332866"/><path d="m128.531 0v110.602h23.901c19.127 0 36.273-8.605 47.801-22.136v-88.466z" fill="#180a33"/></g></svg>