<svg id="Capa_1" enable-background="new 0 0 512 512" height="512" viewBox="0 0 512 512" width="512" xmlns="http://www.w3.org/2000/svg"><g><g><path d="m456.969 407.139c27.744-39.712 44.031-88.02 44.031-140.139 0-135.31-109.69-245-245-245s-245 109.69-245 245c0 52.119 16.287 100.427 44.031 140.139z" fill="#ff596e"/></g><g><circle cx="256" cy="242" fill="#ff4155" r="200"/></g><g><path d="m363.766 239.575c-3.064-26.489-12-42.277-12-92.357h-191.532c0 50.08-8.936 65.868-12 92.357s8.284 51 29.021 56.787l-2.362-23.036s5.979 41.249 81.106 41.249 81.106-41.249 81.106-41.249l-2.362 23.036c20.739-5.788 32.087-30.298 29.023-56.787z" fill="#ffdd40"/></g><g><path d="m186 0h140c11.046 0 20 8.954 20 20v79.968h-180v-79.968c0-11.046 8.954-20 20-20z" fill="#3c5082"/></g><g><path d="m246 0h-60c-11.046 0-20 8.954-20 20v79.968h60v-79.968c0-11.046 8.954-20 20-20z" fill="#2d3c6b"/></g><g><path d="m151.563 114.968c-.461 3.995-.706 8.056-.706 12.175v20.076h210.286v-20.076c0-4.119-.245-8.179-.706-12.175z" fill="#fff"/><path d="m361.643 147.719h-211.286v-20.576c0-4.04.238-8.155.709-12.232l.051-.442h209.766l.052.442c.47 4.074.708 8.189.708 12.232zm-210.286-1h209.285v-19.576c0-3.858-.219-7.783-.651-11.675h-207.981c-.433 3.895-.652 7.819-.652 11.675v19.576z"/></g><g><path d="m456.949 407.139c-8.256-22.709-16.99-42.685-24.722-51.911-.904-1.078-1.795-2.019-2.668-2.79-6.623-5.848-19.39-11.382-34.352-16.323-3.249-1.073-6.604-2.117-10.02-3.131l-22.229 4.996-18.064-15.246c-22.378-4.959-40.43-7.98-41.508-8.158h-94.772c-1.078.179-19.13 3.199-41.508 8.158l-18.064 15.246-22.229-4.996c-3.416 1.014-6.771 2.058-10.02 3.131-14.961 4.941-27.729 10.475-34.352 16.323-.874.772-1.765 1.712-2.668 2.79-7.732 9.226-16.467 29.203-24.722 51.911-.001.009-.001.018-.002.026 22.564 32.289 52.712 58.885 87.857 77.212v-.002l17.178-6.482 28.996 24.849c21.27 6.029 43.717 9.258 66.92 9.258s45.65-3.229 66.92-9.258l28.996-24.849 17.178 6.482v.002c35.145-18.327 65.293-44.922 87.857-77.212-.001-.008-.001-.017-.002-.026z" fill="#4b6496"/></g><g><path d="m149.043 337.979-22.229-4.996c-3.416 1.014-6.771 2.058-10.02 3.131-14.961 4.941-27.729 10.475-34.352 16.323-.874.772-1.765 1.712-2.668 2.79-7.732 9.226-16.467 29.203-24.722 51.911-.001.009-.001.018-.002.026 22.564 32.289 52.712 58.885 87.857 77.212v-.002l17.178-6.482 28.996 24.849c21.269 6.03 43.716 9.259 66.919 9.259-55.783-26.385-96.196-94.683-106.957-174.021z" fill="#3c5082"/></g><g><path d="m303.386 314.575h-94.772s-4.38 97.106 47.386 163.319c51.766-66.213 47.386-163.319 47.386-163.319z" fill="#dae2fe"/></g><g><path d="m256 477.894c2.647-3.385 5.139-6.855 7.5-10.384v-152.935h-15v152.934c2.361 3.53 4.853 6.999 7.5 10.385z" fill="#bec8f7"/></g><g><path d="m369.09 484.38c-14.59 7.6-30.04 13.8-46.18 18.37v-.01c17.03-58.74 24.37-118.83 21.98-180.01 12.81 2.84 27.03 6.31 40.31 10.25 1.02 51.2-4.36 101.76-16.11 151.4z" fill="#73c3f9"/></g><g><path d="m142.91 484.38c14.59 7.6 30.04 13.8 46.18 18.37v-.01c-17.03-58.74-24.37-118.83-21.98-180.01-12.81 2.84-27.03 6.31-40.31 10.25-1.02 51.2 4.36 101.76 16.11 151.4z" fill="#73c3f9"/></g><g><path d="m91.07 426.843v21.327c7.157 6.519 14.704 12.617 22.599 18.262l-12.035-41.103c-1.75-5.98-10.564-4.716-10.564 1.514z" fill="#2d3c6b"/></g><g><path d="m420.93 426.843v21.327c-7.157 6.519-14.704 12.617-22.599 18.262l12.035-41.103c1.75-5.98 10.564-4.716 10.564 1.514z" fill="#3c5082"/></g><g><path d="m331.058 159.567s10.385-25.285 28.897-19.415-.448 60.664-36.573 64.116z" fill="#fcad6d"/></g><g><path d="m180.942 159.567s-10.385-25.285-28.897-19.415.448 60.664 36.573 64.116z" fill="#fd995b"/></g><g><path d="m208.614 221.239v93.336s19.021 33.261 47.17 33.261c.073 0 .143-.005.216-.005 28.031-.103 47.386-33.256 47.386-33.256v-93.336z" fill="#fcad6d"/></g><g><path d="m208.614 220.734v93.841c94.723 0 94.772-53.4 94.772-53.4v-40.44h-94.772z" fill="#fd995b"/></g><g><path d="m303.386 299.609-47.386 48.222s18.328 33.146 30.188 33.146c7.034 0 17.106-22.384 24.137-40.597 5.342-13.84 2.694-29.488-6.939-40.771z" fill="#e9efff"/></g><g><path d="m208.614 299.609 47.386 48.222s-18.328 33.146-30.188 33.146c-7.034 0-17.106-22.384-24.137-40.597-5.342-13.84-2.694-29.488 6.939-40.771z" fill="#e9efff"/></g><g><path d="m276.375 114.968h-40.951c-13.52 14.342-34.829 28.021-66.973 28.078-.029 1.23-.049 2.464-.049 3.708 0 64.505 39.219 140.155 87.597 140.155s87.597-75.651 87.597-140.155c0-1.244-.02-2.478-.049-3.708-32.143-.057-53.55-13.736-67.172-28.078z" fill="#f9ba8f"/></g><g><path d="m208.403 146.754c0-4.214.187-8.339.513-12.39-11.036 5.219-24.395 8.653-40.465 8.682-.029 1.23-.049 2.464-.049 3.708 0 64.505 39.219 140.155 87.597 140.155 6.881 0 13.576-1.535 20-4.346-38.74-16.952-67.596-80.479-67.596-135.809z" fill="#fcad6d"/></g><g><g><path d="m235.384 240.87h41.233c4.111-3.622 7.258-8.309 9.01-13.631 1.584-4.811-2.069-9.754-7.134-9.754h-44.985c-5.065 0-8.718 4.943-7.134 9.754 1.752 5.322 4.899 10.009 9.01 13.631z" fill="#162544"/></g><g><path d="m276.616 240.87c-5.493 4.849-12.714 7.798-20.616 7.798s-15.124-2.948-20.616-7.798c5.5-4.849 12.714-7.798 20.616-7.798s15.116 2.949 20.616 7.798z" fill="#ff4155"/></g></g><g><g><path d="m242.013 192.447 8.436-13.441c2.569-4.093 8.533-4.093 11.102 0l8.436 13.441c2.739 4.365-.398 10.038-5.551 10.038h-16.871c-5.154-.001-8.291-5.674-5.552-10.038z" fill="#fd995b"/></g></g><g><path d="m310.999 162.085c.043-3.495-1.371-7.004-4.242-9.539-4.675-4.128-11.84-4.128-16.515 0-2.871 2.535-4.284 6.044-4.242 9.539.055 4.538 5.629 6.716 8.838 3.507 2.022-2.022 5.3-2.022 7.322 0 3.21 3.21 8.784 1.032 8.839-3.507z" fill="#162544"/></g><g><path d="m201.001 162.085c-.043-3.495 1.371-7.004 4.242-9.539 4.675-4.128 11.84-4.128 16.515 0 2.871 2.535 4.284 6.044 4.242 9.539-.055 4.538-5.629 6.716-8.838 3.507-2.022-2.022-5.3-2.022-7.322 0-3.21 3.21-8.784 1.032-8.839-3.507z" fill="#162544"/></g><g><path d="m170.759 413.066c.001.074.011.147.011.221 0 11.13-9.023 20.153-20.153 20.153-9.448 0-17.355-6.511-19.536-15.284 2.702 22.235 6.642 44.316 11.825 66.219 14.595 7.609 30.046 13.802 46.181 18.373-8.568-29.561-14.67-59.469-18.328-89.682z" fill="#4fabf7"/></g><g><path d="m341.241 413.066c-.001.074-.011.147-.011.221 0 11.13 9.023 20.153 20.153 20.153 9.448 0 17.355-6.511 19.536-15.284-2.702 22.235-6.642 44.316-11.825 66.219-14.595 7.609-30.046 13.802-46.181 18.373 8.568-29.561 14.67-59.469 18.328-89.682z" fill="#4fabf7"/></g><g><path d="m161 92.968h190c5.523 0 10 4.477 10 10v30h-210v-30c0-5.523 4.477-10 10-10z" fill="#73c3f9"/></g><g><path d="m221 92.968h-60c-5.523 0-10 4.477-10 10v30h60v-30c0-5.523 4.477-10 10-10z" fill="#4fabf7"/></g><g><path d="m141 122.968h230c8.284 0 15 6.716 15 15 0 8.284-6.716 15-15 15h-230c-8.284 0-15-6.716-15-15 0-8.284 6.716-15 15-15z" fill="#4b6496"/></g><g><path d="m186 137.968c0-8.284 6.716-15 15-15h-60c-8.284 0-15 6.716-15 15s6.716 15 15 15h60c-8.284 0-15-6.716-15-15z" fill="#3c5082"/></g><g><path d="m318.485 355.832-1.354 3.315c-1.785 4.372-1.785 9.27 0 13.642l1.354 3.315c2.747 6.726 1.192 14.442-3.945 19.579-7.046 7.046-18.47 7.046-25.516 0l-29.715-29.715 29.715-29.715c7.046-7.046 18.47-7.046 25.516 0 5.136 5.136 6.691 12.853 3.945 19.579z" fill="#ff4155"/></g><g><path d="m193.515 355.832 1.354 3.315c1.785 4.372 1.785 9.27 0 13.642l-1.354 3.315c-2.747 6.726-1.191 14.442 3.945 19.579 7.046 7.046 18.47 7.046 25.516 0l29.715-29.715-29.715-29.715c-7.046-7.046-18.47-7.046-25.516 0-5.136 5.136-6.691 12.853-3.945 19.579z" fill="#ff4155"/></g><g><path d="m222.977 336.252c-5.449-5.449-13.509-6.665-20.145-3.686 1.945.873 3.774 2.089 5.371 3.686 16.411 16.411 16.411 43.019 0 59.431-1.597 1.597-3.426 2.813-5.371 3.686 6.636 2.978 14.696 1.762 20.145-3.686l29.715-29.716z" fill="#e80054"/></g><g><path d="m289.023 336.252c5.449-5.449 13.509-6.665 20.145-3.686-1.945.873-3.774 2.089-5.371 3.686-16.411 16.411-16.411 43.019 0 59.431 1.597 1.597 3.426 2.813 5.371 3.686-6.636 2.978-14.696 1.762-20.145-3.686l-29.715-29.716z" fill="#e80054"/></g><g><path d="m264.653 345.573c-1.588-.01-3.079.403-4.365 1.134-2.657 1.509-5.918 1.509-8.575 0-1.287-.731-2.777-1.144-4.365-1.134-4.834.032-8.682 4.083-8.682 8.916v22.956c0 4.834 3.849 8.885 8.682 8.916 1.588.01 3.079-.403 4.365-1.134 2.657-1.509 5.918-1.509 8.575 0 1.287.731 2.777 1.144 4.365 1.134 4.834-.032 8.682-4.083 8.682-8.916v-22.955c0-4.834-3.848-8.885-8.682-8.917z" fill="#ff596e"/></g><g><path d="m255.854 377.446v-22.956c0-4.353 3.122-8.07 7.273-8.789-1.017.172-1.975.516-2.839 1.007-2.657 1.509-5.918 1.509-8.576 0-1.287-.731-2.777-1.144-4.365-1.134-4.833.031-8.682 4.083-8.682 8.916v22.956c0 4.834 3.849 8.885 8.682 8.916 1.588.01 3.079-.403 4.365-1.134 2.657-1.509 5.918-1.509 8.576 0 .865.491 1.823.834 2.839 1.007-4.151-.719-7.273-4.436-7.273-8.789z" fill="#ff4155"/></g></g></svg>