<svg id="Capa_1" enable-background="new 0 0 512 512" height="512" viewBox="0 0 512 512" width="512" xmlns="http://www.w3.org/2000/svg"><g><path d="m256 0-10 60.69 10 60.69 139.349-25.779c-21.312-54.996-74.574-95.601-139.349-95.601z" fill="#ece6f2"/><path d="m256 0c-97.122 0-168.385 91.272-144.83 185.494l12.768 51.073 132.062-115.187z" fill="#fff5f5"/><path d="m395.349 95.601c-56.579 0-102.493 10.505-139.349 25.779l132.061 115.188 12.768-51.073c7.846-31.382 5.162-62.43-5.48-89.894z" fill="#cfcfe6"/><path d="m436.453 373.101-90.542-30.014-68.043 103.054 10 65.859h192.266v-78.402c-.001-27.472-17.605-51.853-43.681-60.497z" fill="#ece6f2"/><path d="m345.911 343.087h-68.044l10 103.054 83.809-30.815z" fill="#cfcfe6"/><path d="m256 512h31.867v-65.859l-41.867-10z" fill="#198080"/><path d="m246 406.141 10 40h31.867v-30z" fill="#ffda44"/><path d="m75.547 373.101 90.542-30.014 68.043 103.054-10 65.859h-192.265v-78.402c0-27.472 17.604-51.853 43.68-60.497z" fill="#fff5f5"/><path d="m166.089 343.087h68.044l-10 103.054-83.809-30.815z" fill="#ece6f2"/><path d="m256 512h-31.867v-65.859l31.867-10z" fill="#24b3b3"/><path d="m256 406.141v40h-31.867v-30z" fill="#fff79f"/><path d="m287.867 343.087h-41.867l10 73.054h31.867z" fill="#198080"/><path d="m224.133 343.087h31.867v73.054h-31.867z" fill="#24b3b3"/><path d="m256 121.38-10 101.69 10 159.336c56.186 0 105.161-38.239 118.788-92.747l13.273-53.092c0 .001-33.905-74.508-132.061-115.187z" fill="#c78f2c"/><path d="m123.939 236.568 13.273 53.092c13.627 54.508 62.603 92.747 118.788 92.747v-261.027c-98.156 40.679-132.061 115.188-132.061 115.188z" fill="#e1bb78"/><path d="m287.867 287.738c-9.301 0-16.867-7.566-16.867-16.867h-15l-10 16.37 10 17.953c8.369 7.776 19.569 12.543 31.867 12.543h31.867v-30h-31.867z" fill="#5b362a"/><path d="m241 270.871c0 9.301-7.566 16.867-16.867 16.867h-31.867v30h31.867c12.298 0 23.498-4.768 31.867-12.543v-34.324z" fill="#895140"/><path d="m192.266 208.07h31.867v30h-31.867z" fill="#332866"/><path d="m287.867 208.07h31.867v30h-31.867z" fill="#180a33"/></g></svg>