<svg id="Capa_1" enable-background="new 0 0 512 512" height="512" viewBox="0 0 512 512" width="512" xmlns="http://www.w3.org/2000/svg"><g><path d="m0 256c0-141.274 114.435-255.82 255.667-256 140.293-.178 255.219 113.647 256.324 253.936.645 81.794-37.074 154.804-96.238 202.113-4.213 3.368-10.134 3.633-14.574.57-41.254-28.456-91.271-45.119-145.179-45.119-53.918 0-103.944 16.669-145.203 45.135-4.426 3.054-10.329 2.789-14.529-.569-58.679-46.91-96.268-119.098-96.268-200.066z" fill="#20b7a1"/><path d="m457.723 256c0 111.409-90.315 201.723-201.723 201.723s-201.723-90.314-201.723-201.723 90.314-201.723 201.723-201.723 201.723 90.314 201.723 201.723z" fill="#24d3b5"/><path d="m166 313.416h43.333c-38.66 0-70 31.34-70 70v86.281c0 6.516-7.081 10.555-12.701 7.257-10.735-6.299-20.97-13.358-30.632-21.103v-72.435c0-38.66 31.34-70 70-70z" fill="#c83c50"/><path d="m416 383.416v72.435c-15.701 12.586-32.917 23.361-51.331 32.006-1.843.865-4.696-3.68-6.563-2.858-12.93 5.696-26.42 10.353-40.365 13.866-2.529.637-4.075 6.626-6.633 7.187-6.286 1.379-12.659 2.527-19.108 3.435-1.993.28-4.652-3.646-6.66-3.412-9.84 1.149-50.16 1.149-60 0-2.007-.234-3.348 3.692-5.34 3.412-6.413-.903-12.749-2.043-19-3.411-2.527-.553-2.608-5.599-5.106-6.226-13.721-3.445-27.003-7.998-39.744-13.557-2.144-.935-6.706 2.556-8.818 1.564-7.305-3.43-14.422-7.195-21.331-11.275v-93.166c0-38.66 31.34-70 70-70h121l19.231 3.026c4.806.756 9.612-.377 13.928-2.621.307-.16.593-.246.841-.229 36.325 2.564 64.999 32.845 64.999 69.824z" fill="#fb5858"/><path d="m364.669 420.339v67.518c-4.917 2.308-9.919 4.465-15 6.464v-73.982c0-4.142 3.358-7.5 7.5-7.5s7.5 3.358 7.5 7.5zm-209.838-7.5c-4.142 0-7.5 3.358-7.5 7.5v67.518c4.917 2.308 9.919 4.465 15 6.464v-73.982c0-4.142-3.358-7.5-7.5-7.5z" fill="#b03244"/><path d="m220 313.416h72v196.072c-11.762 1.655-23.781 2.512-36 2.512s-24.238-.856-36-2.512zm-59 .176v180.201c12.852 5.139 26.219 9.266 40 12.284v-192.661h-35c-1.681 0-3.348.06-5 .176zm185-.176h-35v192.661c13.781-3.017 27.148-7.145 40-12.284v-180.201c-1.652-.116-3.319-.176-5-.176z" fill="#c83c50"/><path d="m251.62 442.36-78.368-142.395c-1.669-3.033.175-6.804 3.593-7.348l78.368-12.491c.521-.083 1.053-.083 1.574 0l78.368 12.491c3.419.545 5.263 4.315 3.593 7.348l-78.368 142.395c-1.9 3.452-6.86 3.452-8.76 0z" fill="#fa9084"/><path d="m268.386 427.813-8.006 14.546c-1.9 3.452-6.861 3.452-8.761 0l-78.368-142.395c-1.669-3.033.175-6.804 3.593-7.349l31.348-4.996z" fill="#f87b67"/><path d="m190 470c0 5.523-4.477 10-10 10s-10-4.477-10-10 4.477-10 10-10 10 4.477 10 10zm-10-40c-5.523 0-10 4.477-10 10s4.477 10 10 10 10-4.477 10-10-4.477-10-10-10zm66 20c0-5.523-4.477-10-10-10s-10 4.477-10 10 4.477 10 10 10 10-4.477 10-10zm30-10c-5.523 0-10 4.477-10 10s4.477 10 10 10 10-4.477 10-10-4.477-10-10-10zm-96-40c-5.523 0-10 4.477-10 10s4.477 10 10 10 10-4.477 10-10-4.477-10-10-10zm0-30c-5.523 0-10 4.477-10 10s4.477 10 10 10 10-4.477 10-10-4.477-10-10-10zm0-30c-5.523 0-10 4.477-10 10s4.477 10 10 10 10-4.477 10-10-4.477-10-10-10zm151 120c-5.523 0-10 4.477-10 10s4.477 10 10 10 10-4.477 10-10-4.477-10-10-10zm0-30c-5.523 0-10 4.477-10 10s4.477 10 10 10 10-4.477 10-10-4.477-10-10-10zm0-30c-5.523 0-10 4.477-10 10s4.477 10 10 10 10-4.477 10-10-4.477-10-10-10zm0-30c-5.523 0-10 4.477-10 10s4.477 10 10 10 10-4.477 10-10-4.477-10-10-10zm0-10c5.523 0 10-4.477 10-10s-4.477-10-10-10-10 4.477-10 10 4.477 10 10 10zm-75 105c-11.046 0-20 8.954-20 20s8.954 20 20 20 20-8.954 20-20-8.954-20-20-20z" fill="#fc7979"/><path d="m185.657 468.586c.781.781.781 2.047 0 2.828l-4.243 4.243c-.781.781-2.047.781-2.828 0l-4.243-4.243c-.781-.781-.781-2.047 0-2.828l4.243-4.243c.781-.781 2.047-.781 2.828 0zm-4.243-34.243c-.781-.781-2.047-.781-2.828 0l-4.243 4.243c-.781.781-.781 2.047 0 2.828l4.243 4.243c.781.781 2.047.781 2.828 0l4.243-4.243c.781-.781.781-2.047 0-2.828zm56 10c-.781-.781-2.047-.781-2.828 0l-4.243 4.243c-.781.781-.781 2.047 0 2.828l4.243 4.243c.781.781 2.047.781 2.828 0l4.243-4.243c.781-.781.781-2.047 0-2.828zm40 0c-.781-.781-2.047-.781-2.828 0l-4.243 4.243c-.781.781-.781 2.047 0 2.828l4.243 4.243c.781.781 2.047.781 2.828 0l4.243-4.243c.781-.781.781-2.047 0-2.828zm-96-40c-.781-.781-2.047-.781-2.828 0l-4.243 4.243c-.781.781-.781 2.047 0 2.828l4.243 4.243c.781.781 2.047.781 2.828 0l4.243-4.243c.781-.781.781-2.047 0-2.828zm0-30c-.781-.781-2.047-.781-2.828 0l-4.243 4.243c-.781.781-.781 2.047 0 2.828l4.243 4.243c.781.781 2.047.781 2.828 0l4.243-4.243c.781-.781.781-2.047 0-2.828zm0-30c-.781-.781-2.047-.781-2.828 0l-4.243 4.243c-.781.781-.781 2.047 0 2.828l4.243 4.243c.781.781 2.047.781 2.828 0l4.243-4.243c.781-.781.781-2.047 0-2.828zm151 120c-.781-.781-2.047-.781-2.828 0l-4.243 4.243c-.781.781-.781 2.047 0 2.828l4.243 4.243c.781.781 2.047.781 2.828 0l4.243-4.243c.781-.781.781-2.047 0-2.828zm0-30c-.781-.781-2.047-.781-2.828 0l-4.243 4.243c-.781.781-.781 2.047 0 2.828l4.243 4.243c.781.781 2.047.781 2.828 0l4.243-4.243c.781-.781.781-2.047 0-2.828zm0-30c-.781-.781-2.047-.781-2.828 0l-4.243 4.243c-.781.781-.781 2.047 0 2.828l4.243 4.243c.781.781 2.047.781 2.828 0l4.243-4.243c.781-.781.781-2.047 0-2.828zm0-30c-.781-.781-2.047-.781-2.828 0l-4.243 4.243c-.781.781-.781 2.047 0 2.828l4.243 4.243c.781.781 2.047.781 2.828 0l4.243-4.243c.781-.781.781-2.047 0-2.828zm-2.828-18.686c.781.781 2.047.781 2.828 0l4.243-4.243c.781-.781.781-2.047 0-2.828l-4.243-4.243c-.781-.781-2.047-.781-2.828 0l-4.243 4.243c-.781.781-.781 2.047 0 2.828zm-72.172 116.615c-.781-.781-2.047-.781-2.828 0l-11.314 11.314c-.781.781-.781 2.047 0 2.828l11.314 11.314c.781.781 2.047.781 2.828 0l11.314-11.314c.781-.781.781-2.047 0-2.828z" fill="#faa598"/><path d="m348.957 253.416h-107.957c-22.091 0-40-17.908-40-40v-103.416c0-49.706 40.294-90 90-90h7.958c49.706 0 90 40.294 90 90v103.416c-.001 22.092-17.909 40-40.001 40z" fill="#784132"/><path d="m218.043 253.416h-55c-22.091 0-40-17.908-40-40v-103.416c0-49.706 40.294-90 90-90h55c-49.706 0-90 40.294-90 90v103.416c0 22.092 17.908 40 40 40z" fill="#61362b"/><path d="m171 188.416v10c0 13.807-11.193 25-25 25s-25-11.193-25-25v-10c0-13.807 11.193-25 25-25s25 11.193 25 25z" fill="#f2bb88"/><path d="m136 183.416v20c0 8.178 3.927 15.439 9.998 20-13.806-.001-24.998-11.194-24.998-25v-10c0-13.806 11.192-24.999 24.998-25-6.071 4.561-9.998 11.822-9.998 20zm230-20v-20c0-60.751-49.249-110-110-110-60.751 0-110 49.249-110 110v40c0 50.351 33.83 92.8 80 105.859v39.843c0 2.833.602 5.633 1.765 8.216l24.588 54.571c1.416 3.142 5.878 3.142 7.294 0l24.588-54.571c1.164-2.583 1.765-5.383 1.765-8.216v-39.843c33.586-9.499 60.641-34.551 72.895-66.883 2.252.667 4.637 1.024 7.105 1.024 13.807 0 25-11.193 25-25v-10c0-13.807-11.193-25-25-25z" fill="#e3a76f"/><path d="m366 143.416v40c0 50.792-34.425 93.543-81.216 106.195-9.023 2.44-18.545 2.44-27.568 0-46.791-12.652-81.216-55.403-81.216-106.195v-40c0-55.663 41.345-101.669 95-108.985 53.655 7.316 95 53.322 95 108.985z" fill="#f2bb88"/><path d="m270.5 190.147c-3.875 3.875-9.024 6.009-14.5 6.009s-10.625-2.134-14.5-6.009c-2.929-2.93-2.929-7.678 0-10.607 2.929-2.928 7.678-2.928 10.606 0 1.042 1.042 2.424 1.616 3.893 1.616s2.851-.574 3.893-1.616c2.929-2.928 7.678-2.928 10.606 0 2.931 2.93 2.931 7.678.002 10.607z" fill="#d6995c"/><path d="m223.5 150.916c0 8.284-6.716 15-15 15s-15-6.716-15-15 6.716-15 15-15 15 6.716 15 15zm80-15c-8.284 0-15 6.716-15 15s6.716 15 15 15 15-6.716 15-15-6.716-15-15-15z" fill="#203e76"/><path d="m226 143.416c0 4.142-3.358 7.5-7.5 7.5s-7.5-3.358-7.5-7.5 3.358-7.5 7.5-7.5 7.5 3.358 7.5 7.5zm87.5-7.5c-4.142 0-7.5 3.358-7.5 7.5s3.358 7.5 7.5 7.5 7.5-3.358 7.5-7.5-3.358-7.5-7.5-7.5z" fill="#fff5f5"/><path d="m256 253.416c-16.569 0-30-13.431-30-30 0-4.142 3.358-7.5 7.5-7.5h45c4.142 0 7.5 3.358 7.5 7.5 0 16.569-13.431 30-30 30z" fill="#fff5f5"/><path d="m263.5 252.471c-2.397.617-4.91.945-7.5.945-16.568 0-30-13.431-30-30 0-4.142 3.358-7.5 7.5-7.5h15c-4.142 0-7.5 3.358-7.5 7.5 0 13.979 9.561 25.725 22.5 29.055z" fill="#def4f8"/><path d="m396.787 50c0 27.614-22.386 50-50 50-12.173 0-23.329-4.351-32-11.581-8.671 7.23-19.827 11.581-32 11.581-12.646 0-24.195-4.695-33-12.437-3.96 3.481-8.474 6.347-13.394 8.446-.602.257-1.384.494-2.308.711-16.632 3.91-32.495-9.003-32.495-26.088v-41.264c0-17.085 15.864-29.998 32.495-26.088.924.217 1.706.454 2.308.711 4.92 2.099 9.434 4.965 13.394 8.446 8.805-7.742 20.354-12.437 33-12.437 12.173 0 23.329 4.351 32 11.581 8.671-7.23 19.828-11.581 32-11.581 27.614 0 50 22.386 50 50z" fill="#784132"/><path d="m236.393 96.009c-6.02 2.569-12.647 3.991-19.606 3.991-27.614 0-50-22.386-50-50s22.386-50 50-50c6.959 0 13.586 1.422 19.606 3.991-17.868 7.625-30.393 25.354-30.393 46.009s12.525 38.384 30.393 46.009z" fill="#61362b"/><path d="m153.633 220.742c0 9.994-8.131 18.125-18.125 18.125s-18.125-8.131-18.125-18.125 8.131-18.125 18.125-18.125c2.762 0 5 2.239 5 5s-2.238 5-5 5c-4.48 0-8.125 3.645-8.125 8.125s3.645 8.125 8.125 8.125 8.125-3.645 8.125-8.125c0-2.761 2.238-5 5-5s5 2.239 5 5z" fill="#fffac1"/></g></svg>