<svg height="512pt" viewBox="0 0 512 512" width="512pt" xmlns="http://www.w3.org/2000/svg"><path d="m512 256c0 60.78125-21.191406 116.621094-56.578125 160.53125-26.871094 33.339844-61.933594 59.796875-102.132813 76.328125-30 12.339844-62.847656 19.140625-97.289062 19.140625-141.378906 0-256-114.621094-256-256 0-67.558594 26.171875-129.011719 68.941406-174.761719 24.308594-26.007812 53.980469-46.949219 87.257813-61.046875 30.671875-13 64.402343-20.191406 99.800781-20.191406 41.988281 0 81.621094 10.109375 116.578125 28.03125 82.773437 42.410156 139.421875 128.578125 139.421875 227.96875zm0 0" fill="#6e5482"/><path d="m85.996094 306.214844c23.457031 42.027344 67.035156 88.007812 37.914062 169.105468l267.027344-19.566406 18.570312-169.085937" fill="#151a1c"/><path d="m398.410156 468.761719c-12.339844 8.277343-25.441406 15.519531-39.179687 21.566406-10.652344 4.703125-21.679688 8.703125-33.03125 11.921875-22.300781 6.351562-45.847657 9.75-70.199219 9.75-24.339844 0-47.890625-3.398438-70.199219-9.738281-7.242187-2.0625-14.359375-4.441407-21.332031-7.121094-.429688-.160156-.859375-.320313-1.289062-.492187-3.507813-1.359376-6.980469-2.808594-10.410157-4.320313-13.738281-6.058594-26.839843-13.289063-39.191406-21.578125 10.390625-14.371094 23.761719-26.429688 39.191406-35.320312 10.199219-5.871094 21.300781-10.339844 33.03125-13.148438 1.808594-.441406 3.640625-.839844 5.480469-1.191406 3.46875-.679688 7-1.199219 10.570312-1.570313 1.027344-.109375 2.046876-.210937 3.089844-.289062 3.378906-.28125 6.796875-.421875 10.257813-.421875h81.589843c4.519532 0 8.972657.242187 13.351563.703125 3.570313.367187 7.089844.898437 10.570313 1.558593 1.390624.269532 2.769531.558594 4.140624.871094.449219.117188.910157.207032 1.347657.328125 11.742187 2.820313 22.832031 7.289063 33.03125 13.160157 15.429687 8.898437 28.789062 20.960937 39.179687 35.332031zm0 0" fill="#ffbb16"/><path d="m215.199219 416.808594c-29.359375 0-49.257813 42.429687-50.730469 78.332031-.429688-.160156-.859375-.320313-1.289062-.492187-3.507813-1.359376-6.980469-2.808594-10.410157-4.320313-13.738281-6.058594-26.839843-13.289063-39.191406-21.578125 10.390625-14.371094 23.761719-26.429688 39.191406-35.320312 10.199219-5.871094 21.300781-10.339844 33.03125-13.148438 1.808594-.441406 3.640625-.839844 5.480469-1.191406 3.46875-.679688 7-1.199219 10.570312-1.570313 1.027344-.109375 2.046876-.210937 3.089844-.289062 3.378906-.28125 6.796875-.421875 10.257813-.421875zm0 0" fill="#ff931f"/><path d="m320.710938 419.070312v4.339844c0 28.539063-18.320313 53.378906-45.589844 61.808594-6.171875 1.921875-12.609375 2.890625-19.132813 2.890625-35.679687 0-64.707031-29.03125-64.707031-64.699219v-4.320312c3.46875-.679688 7-1.199219 10.570312-1.570313 1.027344-.109375 2.046876-.210937 3.089844-.289062 3.378906-.28125 6.796875-.421875 10.257813-.421875h81.589843c4.519532 0 8.972657.242187 13.351563.703125 3.570313.367187 7.089844.898437 10.570313 1.558593zm0 0" fill="#f9c5ac"/><path d="m300.707031 368.539062v54.867188c0 20.089844-13.246093 37.066406-31.488281 42.707031-4.179688 1.296875-8.628906 1.996094-13.230469 1.996094-24.691406 0-44.703125-20.011719-44.703125-44.703125v-54.867188zm0 0" fill="#efb29a"/><path d="m300.707031 419.933594v3.472656c0 20.089844-13.246093 37.066406-31.488281 42.707031-16.460938-5.058593-28.839844-19.371093-31.125-36.882812 2.988281.183593 5.992188.273437 9.007812.273437 8.460938 0 16.75-.671875 24.828126-1.996094 9.953124-1.601562 19.570312-4.160156 28.777343-7.574218zm0 0" fill="#f9c5ac"/><path d="m132.539062 278.152344c0 20.496094-14.972656 37.492187-34.578124 40.648437-2.144532.34375-4.347657.527344-6.597657.527344-22.746093 0-41.171875-18.429687-41.171875-41.175781s18.425782-41.175782 41.171875-41.175782c2.25 0 4.453125.179688 6.597657.527344 19.605468 3.15625 34.578124 20.152344 34.578124 40.648438zm0 0" fill="#f9c5ac"/><path d="m132.539062 278.152344c0 20.496094-14.972656 37.492187-34.578124 40.648437-3.5625-12.953125-5.464844-26.582031-5.464844-40.648437s1.902344-27.695313 5.464844-40.644532c19.605468 3.152344 34.578124 20.148438 34.578124 40.644532zm0 0" fill="#efb29a"/><path d="m106.082031 278.152344c0 8.128906-6.589843 14.714844-14.71875 14.714844-8.125 0-14.714843-6.585938-14.714843-14.714844 0-8.125 6.589843-14.714844 14.714843-14.714844 8.128907 0 14.71875 6.589844 14.71875 14.714844zm0 0" fill="#efb29a"/><path d="m379.449219 278.152344c0 20.496094 14.972656 37.492187 34.578125 40.648437 2.144531.34375 4.347656.527344 6.597656.527344 22.746094 0 41.175781-18.429687 41.175781-41.175781s-18.429687-41.175782-41.175781-41.175782c-2.25 0-4.453125.179688-6.597656.527344-19.605469 3.15625-34.578125 20.152344-34.578125 40.648438zm0 0" fill="#f9c5ac"/><path d="m379.449219 278.152344c0 20.496094 14.972656 37.492187 34.578125 40.648437 3.5625-12.953125 5.464844-26.582031 5.464844-40.648437s-1.902344-27.695313-5.464844-40.644532c-19.605469 3.152344-34.578125 20.148438-34.578125 40.644532zm0 0" fill="#efb29a"/><path d="m435.339844 278.152344c0 8.128906-6.589844 14.714844-14.714844 14.714844-8.128906 0-14.71875-6.585938-14.71875-14.714844 0-8.125 6.589844-14.714844 14.71875-14.714844 8.125 0 14.714844 6.589844 14.714844 14.714844zm0 0" fill="#efb29a"/><path d="m410.695312 256.511719c0 76.984375-56.242187 140.847656-129.871093 152.703125-8.078125 1.328125-16.371094 2-24.828125 2-85.445313 0-154.703125-69.257813-154.703125-154.703125v-87.476563h309.402343zm0 0" fill="#f9c5ac"/><g fill="#efb29a"><path d="m283.242188 408.808594c-.800782.140625-1.609376.28125-2.417969.410156-8.082031 1.320312-16.371094 1.992188-24.832031 1.992188-85.4375 0-154.699219-69.25-154.699219-154.699219v-87.480469h54.550781v87.480469c0 76.136719 54.980469 139.410156 127.398438 152.296875zm0 0"/><path d="m360.261719 296.496094c0 10.539062-8.542969 19.082031-19.082031 19.082031-10.539063 0-19.082032-8.542969-19.082032-19.082031 0-10.539063 8.542969-19.082032 19.082032-19.082032 10.539062 0 19.082031 8.542969 19.082031 19.082032zm0 0"/><path d="m189.886719 296.496094c0 10.539062-8.542969 19.082031-19.082031 19.082031-10.539063 0-19.082032-8.542969-19.082032-19.082031 0-10.539063 8.542969-19.082032 19.082032-19.082032 10.539062 0 19.082031 8.542969 19.082031 19.082032zm0 0"/><path d="m273.378906 297.921875h-34.757812c-4.140625 0-7.5-3.355469-7.5-7.496094s3.359375-7.496093 7.5-7.496093h34.757812c4.136719 0 7.496094 3.355468 7.496094 7.496093s-3.359375 7.496094-7.496094 7.496094zm0 0"/></g><path d="m256 345.351562c-12.828125 0-25.65625-3.214843-37.351562-9.640624-3.296876-1.8125-4.5-5.957032-2.6875-9.257813 1.8125-3.296875 5.957031-4.5 9.253906-2.6875 19.277344 10.597656 42.292968 10.597656 61.566406 0 3.296875-1.8125 7.441406-.609375 9.253906 2.6875 1.816406 3.300781.613282 7.445313-2.6875 9.257813-11.691406 6.425781-24.519531 9.640624-37.347656 9.640624zm0 0" fill="#dd9f8a"/><path d="m343.992188 244.328125c0-17.808594-14.433594-32.242187-32.242188-32.242187s-32.242188 14.433593-32.242188 32.242187" fill="#efb29a"/><path d="m333.773438 258.054688c0 12.164062-9.859376 22.023437-22.023438 22.023437s-22.023438-9.859375-22.023438-22.023437c0-12.164063 9.859376-22.023438 22.023438-22.023438s22.023438 9.859375 22.023438 22.023438zm0 0" fill="#2f373b"/><path d="m330.363281 254.167969c0 5.210937-4.222656 9.4375-9.433593 9.4375-5.214844 0-9.4375-4.226563-9.4375-9.4375 0-5.210938 4.222656-9.4375 9.4375-9.4375 5.210937 0 9.433593 4.226562 9.433593 9.4375zm0 0" fill="#fff"/><path d="m232.480469 244.328125c0-17.808594-14.433594-32.242187-32.242188-32.242187-17.808593 0-32.242187 14.433593-32.242187 32.242187" fill="#efb29a"/><path d="m222.261719 258.054688c0 12.164062-9.859375 22.023437-22.023438 22.023437-12.160156 0-22.019531-9.859375-22.019531-22.023437 0-12.164063 9.859375-22.023438 22.019531-22.023438 12.164063 0 22.023438 9.859375 22.023438 22.023438zm0 0" fill="#2f373b"/><path d="m205.207031 279.511719c-1.601562.378906-3.261719.566406-4.96875.566406-12.160156 0-22.019531-9.859375-22.019531-22.027344 0-12.160156 9.859375-22.019531 22.019531-22.019531 1.707031 0 3.367188.199219 4.96875.570312-9.78125 2.25-17.058593 11-17.058593 21.449219 0 10.460938 7.277343 19.210938 17.058593 21.460938zm0 0" fill="#181e21"/><path d="m316.71875 279.511719c-1.601562.378906-3.261719.566406-4.972656.566406-12.160156 0-22.019532-9.859375-22.019532-22.027344 0-12.160156 9.859376-22.019531 22.019532-22.019531 1.710937 0 3.371094.199219 4.972656.570312-9.78125 2.25-17.0625 11-17.0625 21.449219 0 10.460938 7.28125 19.210938 17.0625 21.460938zm0 0" fill="#181e21"/><path d="m218.855469 254.167969c0 5.210937-4.226563 9.4375-9.4375 9.4375-5.210938 0-9.4375-4.226563-9.4375-9.4375 0-5.210938 4.226562-9.4375 9.4375-9.4375 5.210937 0 9.4375 4.226562 9.4375 9.4375zm0 0" fill="#fff"/><path d="m399.640625 142.128906-310.671875 64.75-18.359375-88.089844c-2.648437-12.699218-3.121094-25.339843-1.667969-37.550781 24.308594-26.007812 53.980469-46.949219 87.257813-61.046875 30.671875-13 64.402343-20.191406 99.800781-20.191406 41.988281 0 81.621094 10.109375 116.578125 28.03125 3.84375 8.117188 6.792969 16.828125 8.703125 26.007812zm0 0" fill="#0084a6"/><path d="m384.191406 68c-1.152344-.210938-2.292968-.320312-3.453125-.351562-81.296875-2.277344-162.128906 10.210937-238.617187 36.640624l-.082032-.390624c-6.230468-29.878907-.410156-59.457032 14.160157-83.707032 30.671875-13 64.402343-20.191406 99.800781-20.191406 41.988281 0 81.621094 10.109375 116.578125 28.03125 3.84375 8.117188 6.792969 16.828125 8.703125 26.007812zm0 0" fill="#40b4d3"/><path d="m149.082031 238.585938s-8.835937 25.765624-27.714843 35.714843c-8.382813 4.414063-18.808594 2.015625-24.496094-5.566406-5.5625-7.40625-10.664063-18.648437-5.507813-31.757813" fill="#151a1c"/><path d="m455.421875 416.53125c-26.871094 33.339844-61.933594 59.796875-102.132813 76.328125 15.550782-31.5 26.261719-71.609375 23.101563-106.140625-1.429687-15.738281-5.75-30.320312-13.800781-42.390625-4.808594-7.21875-6.601563-17.117187-6.941406-28.429687-1.25-41.75 17.152343-102.726563-24.570313-118.859376l78.433594-13.96875s11.199219 8.929688 23.109375 30.929688c.007812.019531.019531.039062.027344.058594 11.632812 21.511718 23.929687 55.480468 27.132812 105.75 1.730469 27.25.796875 59.28125-4.359375 96.722656zm0 0" fill="#4c413c"/><path d="m420.621094 292.871094c-25.769532 0-16-44.320313-35.550782-44.320313-19.539062 0 8.621094 67.347657-29.410156 67.347657h-.011718c-1.25-41.75 17.152343-102.726563-24.570313-118.859376l78.433594-13.96875s11.199219 8.929688 23.109375 30.929688c.007812.019531.019531.039062.027344.058594 10.972656 24.480468 13.730468 78.8125-12.027344 78.8125zm0 0" fill="#2f373b"/><path d="m413.019531 115.113281c4.09375 19.660157 8.191407 39.316407 12.289063 58.976563 2.507812 12.03125-5.574219 21.109375-18.0625 20.765625-105.183594-2.941407-209.605469 18.820312-304.859375 63.539062-11.3125 5.296875-22.347657.210938-24.855469-11.824219-4.09375-19.660156-8.191406-39.316406-12.289062-58.976562-2.503907-12.023438 4.464843-26.429688 15.773437-31.734375 95.253906-44.71875 199.675781-66.480469 304.863281-63.539063 12.488282.339844 24.632813 10.773438 27.140625 22.792969zm0 0" fill="#0084a6"/><path d="m413.019531 115.113281c4.09375 19.660157 8.191407 39.316407 12.289063 58.976563 2.507812 12.03125-5.574219 21.109375-18.0625 20.765625-75.546875-2.113281-150.699219 8.519531-222.347656 31.246093-11.84375 3.75-23.347657-2.589843-25.855469-14.625-4.097657-19.660156-8.195313-39.316406-12.289063-58.976562-2.507812-12.019531 4.929688-25.183594 16.777344-28.933594 71.644531-22.726562 146.796875-33.359375 222.347656-31.246094 12.488282.339844 24.632813 10.773438 27.140625 22.792969zm0 0" fill="#40b4d3"/><path d="m455.421875 416.53125c-26.871094 33.339844-61.933594 59.796875-102.132813 76.328125 15.550782-31.5 26.261719-71.609375 23.101563-106.140625 5.429687-20.089844 13.121094-40.488281 22.371094-43.359375 17.707031-5.5 7.839843 63.652344 32.25 68.410156 24.410156 4.761719 4.75-91.960937 28.757812-91.960937h.011719c1.730469 27.25.796875 59.28125-4.359375 96.722656zm0 0" fill="#2f373b"/></svg>