<svg id="Capa_1" enable-background="new 0 0 512 512" height="512" viewBox="0 0 512 512" width="512" xmlns="http://www.w3.org/2000/svg"><g><g><path d="m456.969 407.139c27.744-39.712 44.031-88.02 44.031-140.139 0-135.31-109.69-245-245-245s-245 109.69-245 245c0 52.119 16.287 100.427 44.031 140.139z" fill="#73c3f9"/></g><g><circle cx="256" cy="242" fill="#4fabf7" r="200"/></g><g><path d="m456.949 407.139c-8.256-22.709-16.99-42.685-24.722-51.911-.904-1.078-1.795-2.019-2.668-2.79-6.623-5.848-19.39-11.382-34.352-16.323h-278.413c-14.961 4.941-27.729 10.475-34.352 16.323-.874.772-1.765 1.712-2.668 2.79-7.732 9.226-16.467 29.203-24.722 51.911-.001.009-.001.018-.002.026 16.027 22.935 35.88 42.998 58.632 59.266h284.637c22.752-16.268 42.605-36.331 58.632-59.266-.001-.008-.001-.017-.002-.026z" fill="#dae2fe"/></g><g><path d="m141.55 336.115h-24.757c-14.961 4.941-27.729 10.475-34.352 16.323-.874.772-1.765 1.712-2.668 2.79-7.732 9.226-16.467 29.203-24.722 51.911-.001.009-.001.018-.002.026 16.027 22.935 35.88 42.998 58.632 59.266h87.391c-37.369-36.628-54.767-85.508-59.522-130.316z" fill="#bec8f7"/></g><g><path d="m91.07 426.843v21.327c7.157 6.519 14.704 12.617 22.599 18.262l-12.035-41.103c-1.75-5.98-10.564-4.716-10.564 1.514z" fill="#acbbef"/></g><g><path d="m420.93 426.843v21.327c-7.157 6.519-14.704 12.617-22.599 18.262l12.035-41.103c1.75-5.98 10.564-4.716 10.564 1.514z" fill="#bec8f7"/></g><g><path d="m395.206 336.115c-37.929-12.525-89.967-21.232-91.82-21.54h-94.772c-1.853.307-53.892 9.014-91.82 21.54.004.013-3.116 130.304-3.116 130.304v.01c23.672 16.927 50.486 29.733 79.396 37.391l62.926-15.969 62.926 15.969c28.91-7.658 55.724-20.464 79.396-37.391 0-.003 0-.007 0-.01 0-.001-3.119-130.292-3.116-130.304z" fill="#3c5082"/></g><g><path d="m193.074 503.82 42.63-10.818c-64.294-38.138-90.256-105.355-94.802-163.952-8.258 2.175-16.469 4.543-24.108 7.065.004.013-3.116 130.304-3.116 130.304v.01c23.672 16.927 50.486 29.733 79.396 37.391z" fill="#2d3c6b"/></g><g><path d="m376.363 400.049c-12.574-62.943-53.75-134.554-120.363-134.554s-107.789 71.611-120.363 134.554c-2.232 11.171 4.616 22.15 15.628 25.069l1.946.516c6.666 1.767 12.085 6.615 14.579 13.045l25.27 65.146c13.835 3.667 28.147 6.161 42.827 7.358v-.001l20.113-23.331 20.114 23.33v.001c14.679-1.197 28.992-3.691 42.827-7.358l25.27-65.146c2.494-6.43 7.913-11.278 14.579-13.045l1.946-.516c11.011-2.918 17.859-13.897 15.627-25.068z" fill="#4b6496"/></g><g><path d="m150.857 127.143v20.076h105.141v-125.219c-58.068.001-105.141 47.074-105.141 105.143z" fill="#a05838"/></g><g><path d="m361.143 127.143c0-58.069-47.074-105.143-105.143-105.143h-.002v125.218h105.144v-20.075z" fill="#b76c4e"/></g><g><path d="m303.386 314.575h-94.772l27.272 196.606c6.634.539 13.341.819 20.114.819s13.48-.28 20.114-.819z" fill="#dae2fe"/></g><g><path d="m248.5 511.873c2.492.076 4.99.127 7.5.127s5.008-.051 7.5-.127v-197.298h-15z" fill="#acbbef"/></g><g><path d="m208.614 221.239v93.336s19.021 33.261 47.17 33.261c.073 0 .143-.005.216-.005 28.031-.103 47.386-33.256 47.386-33.256v-93.336z" fill="#eabe8d"/></g><g><path d="m303.386 299.609-47.386 48.222s18.328 33.146 30.188 33.146c7.034 0 17.106-22.384 24.137-40.597 5.342-13.84 2.694-29.488-6.939-40.771z" fill="#e9efff"/></g><g><path d="m208.614 299.609 47.386 48.222s-18.328 33.146-30.188 33.146c-7.034 0-17.106-22.384-24.137-40.597-5.342-13.84-2.694-29.488 6.939-40.771z" fill="#e9efff"/></g><g><path d="m331.058 159.567s10.385-25.285 28.897-19.415-.448 60.664-36.573 64.116z" fill="#f3d6ac"/></g><g><path d="m180.942 159.567s-10.385-25.285-28.897-19.415.448 60.664 36.573 64.116z" fill="#eabe8d"/></g><g><path d="m343.597 146.754c0 64.505-39.219 140.155-87.597 140.155s-87.597-75.651-87.597-140.155 39.218-110.884 87.597-110.884 87.597 46.38 87.597 110.884z" fill="#f8e6cc"/></g><g><path d="m208.403 146.754c0-55.33 28.856-97.321 67.597-108.148-6.424-1.795-13.119-2.737-20-2.737-48.379 0-87.597 46.38-87.597 110.885s39.219 140.155 87.597 140.155c6.881 0 13.576-1.535 20-4.346-38.741-16.952-67.597-80.479-67.597-135.809z" fill="#f3d6ac"/></g><g><path d="m345.269 134.364v-20c-25.532 55.279-38.177 102.519-38.177 102.519s-18.9-30.522-51.092-30.522-51.092 30.522-51.092 30.522-12.645-47.24-38.177-102.519v20c-15.874 113.232 33.971 170.211 89.269 170.211s105.143-56.979 89.269-170.211z" fill="#b76c4e"/></g><g><path d="m204.908 216.884s-12.645-47.24-38.177-102.519v20c-15.874 113.231 33.971 170.21 89.269 170.21-49.17-7.361-60.617-71.277-51.092-87.691z" fill="#a05838"/></g><g><path d="m223.5 138.968h-20c-4.142 0-7.5-3.358-7.5-7.5 0-4.142 3.358-7.5 7.5-7.5h20c4.142 0 7.5 3.358 7.5 7.5 0 4.142-3.358 7.5-7.5 7.5z" fill="#934a2e"/></g><g><path d="m308.5 138.968h-20c-4.142 0-7.5-3.358-7.5-7.5 0-4.142 3.358-7.5 7.5-7.5h20c4.142 0 7.5 3.358 7.5 7.5 0 4.142-3.358 7.5-7.5 7.5z" fill="#934a2e"/></g><g><g><path d="m242.013 192.447 8.436-13.441c2.569-4.093 8.533-4.093 11.102 0l8.436 13.441c2.739 4.365-.398 10.038-5.551 10.038h-16.871c-5.154-.001-8.291-5.674-5.552-10.038z" fill="#eabe8d"/></g></g><g><g><path d="m235.384 240.87h41.233c4.111-3.622 7.258-8.309 9.01-13.631 1.584-4.811-2.069-9.754-7.134-9.754h-44.985c-5.065 0-8.718 4.943-7.134 9.754 1.752 5.322 4.899 10.009 9.01 13.631z" fill="#162544"/></g><g><path d="m276.616 240.87c-5.493 4.849-12.714 7.798-20.616 7.798s-15.124-2.948-20.616-7.798c5.5-4.849 12.714-7.798 20.616-7.798s15.116 2.949 20.616 7.798z" fill="#ff4155"/></g></g><g><path d="m311.239 162.03c.043-3.495-1.371-7.004-4.242-9.539-4.675-4.128-11.84-4.128-16.515 0-2.871 2.535-4.284 6.044-4.242 9.539.055 4.538 5.629 6.716 8.838 3.507 2.022-2.022 5.3-2.022 7.322 0 3.21 3.209 8.784 1.031 8.839-3.507z" fill="#162544"/></g><g><path d="m200.761 162.03c-.043-3.495 1.371-7.004 4.242-9.539 4.675-4.128 11.84-4.128 16.515 0 2.871 2.535 4.284 6.044 4.242 9.539-.055 4.538-5.629 6.716-8.838 3.507-2.022-2.022-5.3-2.022-7.322 0-3.21 3.209-8.784 1.031-8.839-3.507z" fill="#162544"/></g><g><path d="m355.54 97.997-28.167-79.161c-4.018-11.294-14.707-18.836-26.693-18.836-3.191 0-6.359.539-9.371 1.595l-18.871 6.614c-5.283 1.851-10.84 2.797-16.438 2.797-5.598 0-11.155-.946-16.438-2.797l-18.871-6.614c-3.011-1.056-6.179-1.595-9.37-1.595-11.986 0-22.676 7.542-26.694 18.835l-28.167 79.162z" fill="#3c5082"/></g><g><path d="m233.71 6.157-13.018-4.563c-3.012-1.055-6.18-1.594-9.371-1.594-11.986 0-22.676 7.542-26.694 18.835l-28.167 79.162h40l28.167-79.161c1.821-5.119 5.022-9.455 9.083-12.679z" fill="#2d3c6b"/></g><g><path d="m369.299 124.804-2.029-.335c-74.351-12.286-150.223-12.18-224.539.313-4.056.682-8.117-1.19-10.233-4.717l-18.672-31.119c-3.698-6.164.12-14.1 7.244-15.056 88.876-11.932 178.942-12.013 267.839-.241l1.999.265c7.134.945 10.964 8.888 7.262 15.058l-18.667 31.111c-2.11 3.518-6.156 5.39-10.204 4.721z" fill="#4b6496"/></g><g><path d="m210.789 116.83s-21.023-23.47-4.072-50.749c-28.619 1.391-57.194 3.99-85.646 7.81-7.124.956-10.943 8.892-7.244 15.056l18.672 31.119c2.116 3.527 6.176 5.399 10.233 4.717 22.571-3.795 45.287-6.439 68.059-7.948z" fill="#3c5082"/></g></g></svg>