<svg id="Capa_1" enable-background="new 0 0 512 512" height="512" viewBox="0 0 512 512" width="512" xmlns="http://www.w3.org/2000/svg"><g><path d="m17.05 348.056c-11.485-29.791-17.558-62.27-17.017-96.234 2.224-139.475 116.912-252.055 256.404-251.822 141.184.236 255.563 114.761 255.563 256 0 49.002-13.768 94.788-37.646 133.702-2.324 3.787-6.473 6.071-10.916 6.071h-376.587c-30.877-.001-58.694-18.907-69.801-47.717z" fill="#60c8dd"/><path d="m465.574 234.666c0 109.67-88.905 198.574-198.574 198.574s-198.574-88.904-198.574-198.574 88.904-198.574 198.574-198.574 198.574 88.904 198.574 198.574z" fill="#7cd2e3"/><path d="m422 275v29.383c0 14.148-11.469 25.617-25.617 25.617h-123.687v-180h24.304c13.249 0 26.017 2.062 38 5.881v-46.073h31.763c5.609 0 10.431 3.946 11.581 9.436 1.74 8.312 2.656 16.927 2.656 25.756v35h-2.756c26.782 22.926 43.756 56.981 43.756 95z" fill="#fb5858"/><path d="m260 357.57c22.892-28.975 58.343-47.57 98.136-47.57 52.937 0 98.188 32.907 116.414 79.381-15.566 25.451-35.454 47.973-58.642 66.543-1.885 1.509-4.24 2.309-6.654 2.309h-79.184c-30.846-27.149-55.105-61.605-70.07-100.663zm-28.191-207.57v310h-124.346c-4.043 0-7.974-1.361-11.133-3.884-35.325-28.223-63.013-65.603-79.467-108.546 7.837-9.919 17.145-18.621 27.596-25.778 7.636-27.781 24.619-51.692 47.356-68.139 5.042-29.302 20.285-55.115 41.941-73.653h-2.756v-35c0-8.625.874-17.045 2.537-25.178 1.193-5.832 6.337-10.013 12.29-10.013h79.196c-3.269 11.162-5.023 22.972-5.023 35.191v5z" fill="#784132"/><path d="m30.146 376.629c-5.006-9.354-9.449-19.055-13.282-29.059 7.837-9.919 17.145-18.621 27.596-25.778 7.636-27.781 24.619-51.692 47.356-68.139 5.042-29.302 20.285-55.115 41.941-73.653h-2.757v-35c0-8.625.874-17.045 2.537-25.178 1.193-5.832 6.337-10.013 12.29-10.013h25.324c-.245 3.675-.37 7.383-.37 11.12v46.139h3.634c-28.548 24.437-48.643 58.466-55.289 97.094-29.973 21.682-52.361 53.203-62.428 89.825-9.637 6.6-18.538 14.196-26.552 22.642z" fill="#61362b"/><path d="m209.333 313.416c-38.66 0-70 31.34-70 70v86.281c0 6.516-7.081 10.555-12.701 7.257-10.735-6.299-20.97-13.358-30.632-21.103v-72.435c0-38.66 31.34-70 70-70z" fill="#c83c50"/><path d="m171 188.416v10c0 13.807-11.193 25-25 25s-25-11.193-25-25v-10c0-13.807 11.193-25 25-25s25 11.193 25 25z" fill="#f2bb88"/><path d="m136 183.416v20c0 8.178 3.927 15.439 9.998 20-13.806-.001-24.998-11.194-24.998-25v-10c0-13.806 11.192-24.999 24.998-25-6.071 4.561-9.998 11.822-9.998 20zm230-20v-20c0-60.751-49.249-110-110-110-60.751 0-110 49.249-110 110v40c0 50.351 33.83 92.8 80 105.859v24.141c-3.654 0-6.617 2.962-6.617 6.617v92.906h95.504v-99.523h-28.887v-24.141c33.586-9.499 60.641-34.551 72.895-66.883 2.403.711 4.956 1.071 7.601 1.019 13.712-.266 24.504-11.876 24.504-25.59v-9.405c0-13.807-11.193-25-25-25z" fill="#e3a76f"/><path d="m366 143.416v40c0 50.792-34.425 93.543-81.216 106.195-9.023 2.44-18.545 2.44-27.568 0-46.791-12.652-81.216-55.403-81.216-106.195v-40c0-55.663 41.345-101.669 95-108.985 53.655 7.316 95 53.322 95 108.985z" fill="#f2bb88"/><path d="m270.5 190.148c-3.875 3.875-9.024 6.009-14.5 6.009s-10.625-2.134-14.5-6.009c-2.929-2.93-2.929-7.678 0-10.607 2.929-2.928 7.678-2.928 10.606 0 1.042 1.042 2.424 1.616 3.893 1.616s2.851-.574 3.893-1.616c2.929-2.928 7.678-2.928 10.606 0 2.931 2.929 2.931 7.677.002 10.607z" fill="#d6995c"/><path d="m223.5 150.916c0 8.284-6.716 15-15 15s-15-6.716-15-15 6.716-15 15-15 15 6.716 15 15zm80-15c-8.284 0-15 6.716-15 15s6.716 15 15 15 15-6.716 15-15-6.716-15-15-15z" fill="#4c2c21"/><path d="m226 143.416c0 4.142-3.358 7.5-7.5 7.5s-7.5-3.358-7.5-7.5 3.358-7.5 7.5-7.5 7.5 3.358 7.5 7.5zm87.5-7.5c-4.142 0-7.5 3.358-7.5 7.5s3.358 7.5 7.5 7.5 7.5-3.358 7.5-7.5-3.358-7.5-7.5-7.5z" fill="#fff5f5"/><path d="m286 223.416c0 16.569-13.431 30-30 30-16.569 0-30-13.431-30-30 0-4.142 3.358-7.5 7.5-7.5h45c4.142 0 7.5 3.358 7.5 7.5z" fill="#fff5f5"/><path d="m263.5 252.471c-2.397.617-4.91.945-7.5.945-16.568 0-30-13.431-30-30 0-4.142 3.358-7.5 7.5-7.5h15c-4.142 0-7.5 3.358-7.5 7.5 0 13.979 9.561 25.725 22.5 29.055z" fill="#def4f8"/><path d="m378.499 120h-225.839c11.581-57.056 42.866-100 103.34-100s110.917 42.944 122.499 100z" fill="#fb5858"/><path d="m277.78 21.886c-50.515 8.864-90.617 48.058-100.778 98.114h-43.501c11.582-57.056 62.28-100.255 122.754-100.255 7.419 0 14.745.606 21.525 2.141zm38.72 13.705c-6.394-3.867-13.841-7.442-21.751-9.468-42.344 13.793-74.758 49.582-83.749 93.877h43.501c7.378-36.349 30.53-66.971 61.999-84.409zm16.687 11.081c-22.867 17.976-39.309 43.756-45.312 73.328h43.501c3.871-19.07 12.084-36.564 23.561-51.405-5.49-8.255-12.894-15.467-21.75-21.923z" fill="#c83c50"/><path d="m288.5 445.776v15.459c0 28.763-24.2 51.793-52.905 49.96-.168-.011-.324-.022-.467-.033-39.607-3.196-76.667-15.407-109.128-34.579v-93.166c0-38.66 31.34-70 70-70h1.113l1.269.992c1.09.852 2.433 1.315 3.816 1.315 1.568 0 3.077-.595 4.224-1.664l.69-.644h9.004c2.99 0 5.414 2.424 5.414 5.414v4.22c39.942 23.94 66.97 69.927 66.97 122.726z" fill="#fb5858"/><path d="m416 383.416v72.435c-43.827 35.134-99.459 56.149-160 56.149-7.027 0-13.988-.283-20.872-.839v-67.745c0-68.079 52.331-123.935 118.962-129.537 34.849 4.01 61.91 33.613 61.91 69.537z" fill="#fa9084"/><path d="m256 439.064c-32.471 0-58.887-23.551-58.887-52.5v-73.148h10v73.148c0 23.435 21.931 42.5 48.887 42.5s48.887-19.065 48.887-42.5v-73.148h10v73.148c0 28.949-26.416 52.5-58.887 52.5zm40.152-74.077h-10c0 15.708-13.526 28.488-30.152 28.488s-30.152-12.78-30.152-28.488l.152-51.571h-10.152v51.571c0 21.223 18.013 38.488 40.152 38.488s40.152-17.266 40.152-38.488z" fill="#b03244"/><path d="m422 302.319v25.851c0 34.148-27.682 61.83-61.83 61.83h-54.018c-5.523 0-10-4.477-10-10v-77.681z" fill="#fb5858"/><path d="m286 289.275c7.294-2.063 14.279-4.859 20.872-8.304v109.029h-10.872c-5.523 0-10-4.477-10-10zm45.104-25.489v126.214h23.896v-152.801c-4.757 8.472-12.611 15.867-20 22.761-1.257 1.173-2.696 2.705-3.896 3.826zm59.896-71.182v5.218c0 8.884-4.529 16.885-11.447 21.491v167.588c7.748-2.556 14.819-6.602 20.872-11.799v-170.324c-2.893-4.253-6.043-8.318-9.425-12.174z" fill="#c83c50"/><path d="m241.283 424.88c0 7.901-6.405 14.306-14.306 14.306s-14.306-6.405-14.306-14.306 6.405-14.306 14.306-14.306 14.306 6.405 14.306 14.306z" fill="#ffc14f"/><path d="m277.447 432.021c0 11.845-9.602 21.447-21.447 21.447s-21.447-9.602-21.447-21.447 9.602-21.447 21.447-21.447 21.447 9.603 21.447 21.447z" fill="#fff68e"/><path d="m275.91 440.007c-3.167 7.89-10.888 13.461-19.91 13.461-11.845 0-21.447-9.602-21.447-21.447 0-9.022 5.571-16.743 13.461-19.91-.991 2.468-1.537 5.164-1.537 7.986 0 11.845 9.602 21.447 21.447 21.447 2.823 0 5.518-.546 7.986-1.537z" fill="#fff36c"/><path d="m299.328 424.88c0 7.901-6.405 14.306-14.306 14.306s-14.306-6.405-14.306-14.306 6.405-14.306 14.306-14.306c7.902 0 14.306 6.405 14.306 14.306z" fill="#ffc14f"/><path d="m140 300c-2.761 0-5-2.239-5-5v-40c0-2.761 2.239-5 5-5 2.761 0 5 2.239 5 5v40c0 2.761-2.239 5-5 5zm-15-15v-40c0-2.761-2.239-5-5-5-2.761 0-5 2.239-5 5v40c0 2.761 2.239 5 5 5 2.761 0 5-2.239 5-5zm40 0v-40c0-2.761-2.239-5-5-5-2.761 0-5 2.239-5 5v40c0 2.761 2.239 5 5 5 2.761 0 5-2.239 5-5zm200 10v-40c0-2.761-2.239-5-5-5-2.761 0-5 2.239-5 5v40c0 2.761 2.239 5 5 5 2.761 0 5-2.239 5-5zm-20-10v-40c0-2.761-2.239-5-5-5-2.761 0-5 2.239-5 5v40c0 2.761 2.239 5 5 5 2.761 0 5-2.239 5-5zm40 0v-40c0-2.761-2.239-5-5-5-2.761 0-5 2.239-5 5v40c0 2.761 2.239 5 5 5 2.761 0 5-2.239 5-5z" fill="#ff9f22"/><path d="m170 230c0 16.569-13.431 30-30 30s-30-13.431-30-30 13.431-30 30-30 30 13.431 30 30zm190-30c-16.569 0-30 13.431-30 30s13.431 30 30 30 30-13.431 30-30-13.431-30-30-30z" fill="#fff36c"/><path d="m170 230c0 14.865-10.812 27.205-25 29.585-14.188-2.38-25-14.72-25-29.585s10.812-27.205 25-29.585c14.188 2.38 25 14.72 25 29.585zm195-29.585c-14.188 2.38-25 14.72-25 29.585s10.812 27.205 25 29.585c14.188-2.38 25-14.72 25-29.585s-10.812-27.205-25-29.585z" fill="#fff68e"/><path d="m160 230c0 11.046-8.954 20-20 20s-20-8.954-20-20 8.954-20 20-20 20 8.954 20 20zm200-20c-11.046 0-20 8.954-20 20s8.954 20 20 20 20-8.954 20-20-8.954-20-20-20z" fill="#ffcd71"/><path d="m150 230c0 5.523-4.477 10-10 10s-10-4.477-10-10 4.477-10 10-10 10 4.477 10 10zm210-10c-5.523 0-10 4.477-10 10s4.477 10 10 10 10-4.477 10-10-4.477-10-10-10z" fill="#ff9f22"/><path d="m175.213 124.713h-42.457c-4.142 0-7.5-3.358-7.5-7.5 0-4.142 3.358-7.5 7.5-7.5h42.457c4.142 0 7.5 3.358 7.5 7.5 0 4.142-3.358 7.5-7.5 7.5z" fill="#fc7979"/><path d="m377.5 124.713h-204.404c-4.142 0-7.5-3.358-7.5-7.5 0-4.142 3.358-7.5 7.5-7.5h204.404c4.142 0 7.5 3.358 7.5 7.5 0 4.142-3.358 7.5-7.5 7.5z" fill="#fa9084"/><path d="m171.322 418.149v79.514c-5.075-1.778-10.077-3.711-15-5.795v-73.72c0-4.142 3.358-7.5 7.5-7.5s7.5 3.359 7.5 7.501z" fill="#c83c50"/><path d="m348.178 410.649c-4.142 0-7.5 3.358-7.5 7.5v79.514c5.075-1.778 10.077-3.711 15-5.795v-73.72c0-4.141-3.357-7.499-7.5-7.499z" fill="#fc7979"/></g></svg>