<svg id="Capa_1" enable-background="new 0 0 512 512" height="512" viewBox="0 0 512 512" width="512" xmlns="http://www.w3.org/2000/svg"><g><path d="m415.336 159.336c0-87.999-71.337-159.336-159.336-159.336l-10 172.876 169.336-10z" fill="#ff7c48"/><path d="m256 0c-21.878 0-42.724 4.413-61.702 12.391l-10 160.485 71.702-10z" fill="#ffb655"/><path d="m96.664 159.336v3.54l97.634 10v-160.485c-57.357 24.113-97.634 80.824-97.634 146.945z" fill="#ff7c48"/><path d="m480.133 417.664c0-27.472-17.604-51.853-43.68-60.497l-21.116-7-10 49.106 10 112.727h64.797v-94.336z" fill="#332866"/><path d="m351.601 329.04-10 70.233 10 112.727h63.735v-161.833z" fill="#180a33"/><path d="m277.867 389.273 10 122.727h63.734v-112.727z" fill="#6680ff"/><path d="m351.601 329.04-16.979-5.629-56.755-10 10 85.862h63.734z" fill="#80aaff"/><path d="m31.867 417.664c0-27.472 17.604-51.853 43.68-60.497l21.116-7 10 49.106-9.999 112.727h-64.797z" fill="#574d8c"/><path d="m160.399 329.04 10 70.233-10 112.727h-63.735v-161.833z" fill="#332866"/><path d="m234.133 389.273-10 122.727h-63.734v-112.727z" fill="#80aaff"/><path d="m160.399 329.04 16.979-5.629 56.755-10-10 85.862h-63.734z" fill="#9cf"/><path d="m256 512h31.867v-82.727l-41.867-10z" fill="#c50048"/><path d="m256 512h-31.867v-82.727l31.867-10z" fill="#e50058"/><path d="m246 389.273 10 40h31.867v-30z" fill="#e50058"/><path d="m256 389.273v40h-31.867v-30z" fill="#ff4a4a"/><path d="m287.867 323.411-41.867-10 10 85.862h31.867z" fill="#c50048"/><path d="m224.133 323.411 31.867-10v85.862h-31.867z" fill="#e50058"/><path d="m373.421 226.611h41.915c17.6 0 31.868-14.268 31.868-31.868 0-17.6-14.268-31.868-31.868-31.868h-31.867z" fill="#ffcdbe"/><path d="m128.531 162.876h-31.867c-17.6 0-31.868 14.268-31.868 31.868 0 17.6 14.268 31.868 31.868 31.868h41.915z" fill="#ffdecf"/><path d="m348.395 162.876c-31.382 0-60.974-13.233-83.11-35.477-2.821-2.835-5.945-5.286-9.286-7.342l-10 87.08 10 143.403c70.399 0 127.469-57.07 127.469-127.469v-60.195z" fill="#ffdecf"/><path d="m229.661 112.588h-35.364c-2.428 29.969-26.55 50.289-53.509 50.289h-12.257v60.195c0 70.399 57.07 127.469 127.469 127.469v-230.484c-7.88-4.852-16.988-7.469-26.339-7.469z" fill="#ffeee5"/><path d="m184.299 192.137h31.867v30h-31.867z" fill="#332866"/><path d="m295.834 192.137h31.867v30h-31.867z" fill="#180a33"/></g></svg>