<svg height="512pt" viewBox="0 0 512 512" width="512pt" xmlns="http://www.w3.org/2000/svg"><path d="m512 256c0 141.386719-114.613281 256-256 256s-256-114.613281-256-256 114.613281-256 256-256 256 114.613281 256 256zm0 0" fill="#0084a6"/><path d="m398.410156 468.761719c-12.339844 8.277343-25.441406 15.519531-39.179687 21.566406-10.652344 4.703125-21.679688 8.703125-33.03125 11.921875-22.300781 6.351562-45.847657 9.75-70.199219 9.75-24.339844 0-47.890625-3.398438-70.199219-9.738281-7.242187-2.0625-14.359375-4.441407-21.332031-7.121094-.429688-.160156-.859375-.320313-1.289062-.492187-3.507813-1.359376-6.980469-2.808594-10.410157-4.320313-13.738281-6.058594-26.839843-13.289063-39.191406-21.578125 10.390625-14.371094 23.761719-26.429688 39.191406-35.320312 10.199219-5.871094 21.300781-10.339844 33.03125-13.148438 1.808594-.441406 3.640625-.839844 5.480469-1.191406 3.46875-.679688 7-1.199219 10.570312-1.570313 1.027344-.109375 2.046876-.210937 3.089844-.289062 3.378906-.28125 6.796875-.421875 10.257813-.421875h81.589843c4.519532 0 8.972657.242187 13.351563.703125 3.570313.367187 7.089844.898437 10.570313 1.558593 1.390624.269532 2.769531.558594 4.140624.871094.449219.117188.910157.207032 1.347657.328125 11.742187 2.820313 22.832031 7.289063 33.03125 13.160157 15.429687 8.898437 28.789062 20.960937 39.179687 35.332031zm0 0" fill="#2f373b"/><path d="m215.199219 416.808594c-29.359375 0-49.257813 42.429687-50.730469 78.332031-.429688-.160156-.859375-.320313-1.289062-.492187-3.507813-1.359376-6.980469-2.808594-10.410157-4.320313-13.738281-6.058594-26.839843-13.289063-39.191406-21.578125 10.390625-14.371094 23.761719-26.429688 39.191406-35.320312 10.199219-5.871094 21.300781-10.339844 33.03125-13.148438 1.808594-.441406 3.640625-.839844 5.480469-1.191406 3.46875-.679688 7-1.199219 10.570312-1.570313 1.027344-.109375 2.046876-.210937 3.089844-.289062 3.378906-.28125 6.796875-.421875 10.257813-.421875zm0 0" fill="#181e21"/><path d="m132.539062 278.152344c0 20.496094-14.972656 37.492187-34.578124 40.648437-2.144532.34375-4.347657.527344-6.597657.527344-22.746093 0-41.171875-18.429687-41.171875-41.175781s18.425782-41.175782 41.171875-41.175782c2.25 0 4.453125.179688 6.597657.527344 19.605468 3.15625 34.578124 20.152344 34.578124 40.648438zm0 0" fill="#f9c5ac"/><path d="m132.539062 278.152344c0 20.496094-14.972656 37.492187-34.578124 40.648437-3.5625-12.953125-5.464844-26.582031-5.464844-40.648437s1.902344-27.695313 5.464844-40.644532c19.605468 3.152344 34.578124 20.148438 34.578124 40.644532zm0 0" fill="#efb29a"/><path d="m106.082031 278.152344c0 8.128906-6.589843 14.714844-14.71875 14.714844-8.125 0-14.714843-6.585938-14.714843-14.714844 0-8.125 6.589843-14.714844 14.714843-14.714844 8.128907 0 14.71875 6.589844 14.71875 14.714844zm0 0" fill="#efb29a"/><path d="m379.449219 278.152344c0 20.496094 14.972656 37.492187 34.578125 40.648437 2.144531.34375 4.347656.527344 6.597656.527344 22.746094 0 41.175781-18.429687 41.175781-41.175781s-18.429687-41.175782-41.175781-41.175782c-2.25 0-4.453125.179688-6.597656.527344-19.605469 3.15625-34.578125 20.152344-34.578125 40.648438zm0 0" fill="#f9c5ac"/><path d="m379.449219 278.152344c0 20.496094 14.972656 37.492187 34.578125 40.648437 3.5625-12.953125 5.464844-26.582031 5.464844-40.648437s-1.902344-27.695313-5.464844-40.644532c-19.605469 3.152344-34.578125 20.148438-34.578125 40.644532zm0 0" fill="#efb29a"/><path d="m435.339844 278.152344c0 8.128906-6.589844 14.714844-14.714844 14.714844-8.128906 0-14.71875-6.585938-14.71875-14.714844 0-8.125 6.589844-14.714844 14.71875-14.714844 8.125 0 14.714844 6.589844 14.714844 14.714844zm0 0" fill="#efb29a"/><path d="m410.695312 256.511719c0 76.984375-56.242187 140.847656-129.871093 152.703125-8.078125 1.328125-16.371094 2-24.828125 2-85.445313 0-154.703125-69.257813-154.703125-154.703125v-157.5h309.402343zm0 0" fill="#f9c5ac"/><path d="m283.242188 408.808594c-.800782.140625-1.609376.28125-2.417969.410156-8.082031 1.320312-16.371094 1.992188-24.832031 1.992188-85.4375 0-154.699219-69.25-154.699219-154.699219v-157.5h54.550781v157.5c0 76.136719 54.980469 139.410156 127.398438 152.296875zm0 0" fill="#efb29a"/><path d="m255.996094 337.929688c-12.957032 0-25.910156-3.246094-37.71875-9.738282-3.328125-1.828125-4.542969-6.011718-2.714844-9.34375 1.832031-3.332031 6.015625-4.546875 9.347656-2.714844 19.464844 10.699219 42.707032 10.699219 62.167969 0 3.332031-1.832031 7.515625-.617187 9.347656 2.714844 1.832031 3.332032.617188 7.515625-2.714843 9.34375-11.808594 6.492188-24.761719 9.738282-37.714844 9.738282zm0 0" fill="#dd9f8a"/><path d="m273.542969 291.695312h-35.097657c-4.179687 0-7.570312-3.390624-7.570312-7.570312 0-4.183594 3.390625-7.570312 7.570312-7.570312h35.097657c4.183593 0 7.570312 3.386718 7.570312 7.570312 0 4.179688-3.386719 7.570312-7.570312 7.570312zm0 0" fill="#efb29a"/><path d="m412.839844 151.570312h-313.679688c-7.820312-24.019531-11.140625-91.949218-.5-102.921874 10.640625-10.976563 27.929688 36.363281 27.929688 36.363281s0-69.992188 18.621094-72.730469c18.628906-2.75 25.277343 50.769531 25.277343 50.769531s7.980469-63.050781 27.261719-63.050781c19.289062 0 27.941406 48.648438 27.941406 48.648438s4.75-48.648438 30.308594-48.648438 30.308594 48.648438 30.308594 48.648438 8.652344-48.648438 27.941406-48.648438c19.28125 0 27.261719 63.050781 27.261719 63.050781s6.648437-53.519531 25.277343-50.769531c18.621094 2.738281 18.621094 72.730469 18.621094 72.730469s17.289063-47.339844 27.929688-36.363281c10.640625 10.972656 7.320312 78.902343-.5 102.921874zm0 0" fill="#f93d6e"/><path d="m197.753906 151.570312h-98.59375c-7.820312-24.019531-11.140625-91.949218-.5-102.921874 10.640625-10.976563 27.929688 36.363281 27.929688 36.363281s0-69.992188 18.621094-72.730469c18.628906-2.75 25.277343 50.769531 25.277343 50.769531s7.980469-63.050781 27.261719-63.050781c-17.140625 0-10.09375 109.109375.003906 151.570312zm0 0" fill="#e41753"/><path d="m412.824219 146.914062h-313.660157c-5.003906 0-9.0625 4.054688-9.0625 9.058594v49.71875c0 5.003906 4.058594 9.058594 9.0625 9.058594h313.660157c5.003906 0 9.0625-4.054688 9.0625-9.058594v-49.71875c0-5.003906-4.054688-9.058594-9.0625-9.058594zm0 0" fill="#2f373b"/><path d="m308.558594 139.265625h-105.128906c-7.332032 0-13.277344 5.945313-13.277344 13.277344v56.578125c0 7.332031 5.945312 13.277344 13.277344 13.277344h105.128906c7.335937 0 13.28125-5.945313 13.28125-13.277344v-56.578125c0-7.332031-5.945313-13.277344-13.28125-13.277344zm0 0" fill="#ffbb16"/><path d="m218.722656 222.398438h-15.289062c-7.339844 0-13.28125-5.9375-13.28125-13.277344v-56.582032c0-7.328124 5.941406-13.277343 13.28125-13.277343h15.289062c-7.332031 0-13.269531 5.949219-13.269531 13.277343v56.582032c0 7.339844 5.9375 13.277344 13.269531 13.277344zm0 0" fill="#ff931f"/><path d="m338.574219 381.023438h-165.160157c-5.835937 0-10.570312 4.730468-10.570312 10.570312v47.289062h186.300781v-47.289062c0-5.839844-4.734375-10.570312-10.570312-10.570312zm0 0" fill="#2f373b"/><g fill="#181e21"><path d="m213.324219 381.019531c-5.839844 0-10.570313 4.730469-10.570313 10.570313v47.289062h-39.910156v-47.289062c0-5.839844 4.730469-10.570313 10.570312-10.570313zm0 0"/><path d="m234.199219 260.007812h-5.382813c-6.050781-9.390624-16.589844-15.609374-28.578125-15.609374-11.996093 0-22.535156 6.21875-28.578125 15.609374h-5.382812c0-18.761718 15.203125-33.960937 33.960937-33.960937 18.75 0 33.960938 15.199219 33.960938 33.960937zm0 0"/><path d="m345.710938 260.007812h-5.386719c-6.050781-9.390624-16.585938-15.609374-28.574219-15.609374-12 0-22.535156 6.21875-28.578125 15.609374h-5.382813c0-18.761718 15.199219-33.960937 33.957032-33.960937 18.75 0 33.964844 15.199219 33.964844 33.960937zm0 0"/></g></svg>