<svg id="Capa_1" enable-background="new 0 0 512 512" height="512" viewBox="0 0 512 512" width="512" xmlns="http://www.w3.org/2000/svg"><g><g><path d="m456.951 407.165c27.755-39.717 44.049-88.035 44.049-140.165 0-135.31-109.69-245-245-245s-245 109.69-245 245c0 52.13 16.294 100.448 44.049 140.165z" fill="#3c5082"/></g><g><circle cx="256" cy="242" fill="#2d3c6b" r="200"/></g><g><path d="m371.024 80.539c-19.237-42.751-54.036-80.539-91.586-80.539-15.198 0-23.436 14.907-23.436 14.907s-8.243-14.907-23.44-14.907c-37.549 0-72.349 37.788-91.586 80.539-13.64 29.473-56.178 72.443-37.096 112.124 5.96 12.394 7.279 26.386 4.195 39.788-1.125 4.892-1.477 9.848-.798 14.896 4.685 34.868 46.946 93.951 148.725 93.951s144.036-59.082 148.721-93.951c.678-5.048.327-10.005-.798-14.896-3.083-13.402-1.765-27.395 4.195-39.788 19.082-39.681-23.456-82.652-37.096-112.124z" fill="#ffdd40"/></g><g><path d="m206.481 53.817c-8.812-9.179-14.472-39.469 11.54-51.942-31.831 8.094-60.321 41.496-77.045 78.664-13.64 29.473-56.178 72.443-37.096 112.124 5.96 12.394 7.279 26.386 4.195 39.788-1.125 4.892-1.477 9.848-.798 14.896 4.685 34.868 46.946 93.95 148.723 93.951v-54.388l-49.519-128.625z" fill="#ffc839"/></g><g><path d="m456.949 407.139c-8.256-22.709-16.99-42.685-24.722-51.911-.904-1.078-1.795-2.019-2.668-2.79-6.623-5.848-19.39-11.382-34.352-16.323-37.929-12.525-89.967-21.232-91.82-21.54h-94.772c-1.853.307-53.892 9.014-91.82 21.54-14.961 4.941-27.729 10.475-34.352 16.323-.874.772-1.765 1.712-2.668 2.79-7.732 9.226-16.467 29.203-24.722 51.911-.001.009-.001.018-.002.026 36.568 52.328 93.045 89.714 158.449 101.156l42.5-20.47 42.502 20.471c65.403-11.443 121.881-48.828 158.449-101.156-.001-.009-.001-.018-.002-.027z" fill="#4fabf7"/></g><g><path d="m224.985 502.789c-72.804-59.054-90.19-136.817-94.341-170.923-4.742 1.359-9.394 2.777-13.85 4.249-14.961 4.941-27.729 10.475-34.352 16.323-.874.772-1.765 1.712-2.668 2.79-7.732 9.226-16.467 29.203-24.722 51.911-.001.009-.001.018-.002.026 36.572 52.335 93.064 89.705 158.477 101.143z" fill="#2e8be6"/></g><g><path d="m376.363 400.049c-12.574-62.943-53.75-134.554-120.363-134.554s-107.789 71.611-120.363 134.554c-2.232 11.171 4.616 22.15 15.628 25.069l1.946.516c6.666 1.767 12.085 6.615 14.579 13.045l25.27 65.146c13.835 3.667 28.147 6.161 42.827 7.358v-.001l20.113-23.331 20.114 23.33v.001c14.679-1.197 28.992-3.691 42.827-7.358l25.27-65.146c2.494-6.43 7.913-11.278 14.579-13.045l1.946-.516c11.011-2.918 17.859-13.897 15.627-25.068z" fill="#73c3f9"/></g><g><path d="m219.806 395.255 36.194 20.426 36.194-20.426 11.192-80.68v-93.336h-94.772v93.336z" fill="#fcad6d"/></g><g><path d="m297.396 357.757c-11.594 1.54-20.779 11.605-20.779 11.605h19.17z" fill="#fd995b"/></g><g><path d="m214.604 357.757 1.61 11.605h19.17s-9.186-10.065-20.78-11.605z" fill="#fd995b"/></g><g><path d="m219.806 395.255 16.081 115.926c6.633.539 13.34.819 20.113.819s13.48-.28 20.114-.819l16.081-115.926z" fill="#e9efff"/></g><g><path d="m208.614 220.734v93.841c94.723 0 94.772-53.4 94.772-53.4v-40.44h-94.772z" fill="#fd995b"/></g><g><path d="m331.058 159.567s10.385-25.285 28.897-19.415-.448 60.664-36.573 64.116z" fill="#fcad6d"/></g><g><path d="m180.942 159.567s-10.385-25.285-28.897-19.415.448 60.664 36.573 64.116z" fill="#fd995b"/></g><g><path d="m182.332 85.298c-8.813 17.236-13.929 38.163-13.929 61.457 0 64.505 39.219 140.155 87.597 140.155s87.597-75.651 87.597-140.155c0-23.293-5.116-44.221-13.929-61.457z" fill="#f9ba8f"/></g><g><path d="m208.403 146.754c0-23.3 5.132-44.219 13.95-61.457h-40.021c-8.813 17.236-13.929 38.163-13.929 61.457 0 64.505 39.219 140.155 87.597 140.155 6.881 0 13.576-1.535 20-4.346-38.741-16.952-67.597-80.479-67.597-135.809z" fill="#fcad6d"/></g><g><path d="m223.5 138.968h-20c-4.142 0-7.5-3.358-7.5-7.5 0-4.142 3.358-7.5 7.5-7.5h20c4.142 0 7.5 3.358 7.5 7.5 0 4.142-3.358 7.5-7.5 7.5z" fill="#ff9100"/></g><g><path d="m308.5 138.968h-20c-4.142 0-7.5-3.358-7.5-7.5 0-4.142 3.358-7.5 7.5-7.5h20c4.142 0 7.5 3.358 7.5 7.5 0 4.142-3.358 7.5-7.5 7.5z" fill="#ff9100"/></g><g><g><path d="m242.013 192.447 8.436-13.441c2.569-4.093 8.533-4.093 11.102 0l8.436 13.441c2.739 4.365-.398 10.038-5.551 10.038h-16.871c-5.154-.001-8.291-5.674-5.552-10.038z" fill="#fd995b"/></g></g><g><g><path d="m235.384 240.87h41.233c4.111-3.622 7.258-8.309 9.01-13.631 1.584-4.811-2.069-9.754-7.134-9.754h-44.985c-5.065 0-8.718 4.943-7.134 9.754 1.752 5.322 4.899 10.009 9.01 13.631z" fill="#162544"/></g><g><path d="m276.616 240.87c-5.493 4.849-12.714 7.798-20.616 7.798s-15.124-2.948-20.616-7.798c5.5-4.849 12.714-7.798 20.616-7.798s15.116 2.949 20.616 7.798z" fill="#ff4155"/></g></g><g><path d="m310.999 162.085c.043-3.495-1.371-7.004-4.242-9.539-4.675-4.128-11.84-4.128-16.515 0-2.871 2.535-4.284 6.044-4.242 9.539.055 4.538 5.629 6.716 8.838 3.507 2.022-2.022 5.3-2.022 7.322 0 3.21 3.21 8.784 1.032 8.839-3.507z" fill="#162544"/></g><g><path d="m201.001 162.085c-.043-3.495 1.371-7.004 4.242-9.539 4.675-4.128 11.84-4.128 16.515 0 2.871 2.535 4.284 6.044 4.242 9.539-.055 4.538-5.629 6.716-8.838 3.507-2.022-2.022-5.3-2.022-7.322 0-3.21 3.21-8.784 1.032-8.839-3.507z" fill="#162544"/></g><g><path d="m256 42.447c-50.42 0-77.429 28.623-91.025 51.758-9.053 15.405-7.579 34.82 3.474 48.859s23.742-46.021 87.551-46.021 87.551 46.021 87.551 46.021c11.054-14.039 12.527-33.453 3.474-48.859-13.596-23.135-40.605-51.758-91.025-51.758z" fill="#e9efff"/></g><g><path d="m192.957 77.585c0-10.109 5.427-18.946 13.525-23.768-20.188 10.462-33.298 26.42-41.507 40.388-9.053 15.405-7.579 34.82 3.474 48.859 0 0 13.139-25.451 46.119-38.499-12.365-2.756-21.611-13.785-21.611-26.98z" fill="#dae2fe"/></g><g><path d="m120.812 471.33c-.075-.212-8.769-24.824 4.705-53.619 2.512-5.369-4.447-10.154-8.544-5.871-8.577 8.966-17.032 22.169-20.587 41.004 7.736 6.653 15.895 12.828 24.426 18.486z" fill="#1a7fd3"/></g><g><path d="m391.188 471.33c.075-.212 8.769-24.824-4.705-53.619-2.512-5.369 4.447-10.154 8.544-5.871 8.577 8.966 17.032 22.169 20.587 41.004-7.736 6.653-15.895 12.828-24.426 18.486z" fill="#2e8be6"/></g></g></svg>