<svg id="Capa_1" enable-background="new 0 0 512 512" height="512" viewBox="0 0 512 512" width="512" xmlns="http://www.w3.org/2000/svg"><g><path d="m318.748 0h-62.747l-10 191.481 188.241-10c7.683-16.4 11.975-34.704 11.975-54.012 0-70.399-57.07-127.469-127.469-127.469z" fill="#895140"/><path d="m193.252 0c-70.399 0-127.469 57.07-127.469 127.469 0 19.307 4.293 37.612 11.975 54.012l178.243 10v-191.481z" fill="#b56d3c"/><path d="m139.517 239.005h-42.853c-17.6 0-31.868-14.268-31.868-31.868 0-17.6 14.268-31.868 31.868-31.868h32.853z" fill="#ffdecf"/><path d="m372.483 239.005h42.853c17.6 0 31.868-14.268 31.868-31.868 0-17.6-14.268-31.868-31.868-31.868h-32.853z" fill="#ffcdbe"/><path d="m480.133 417.664c0-27.472-17.603-51.853-43.68-60.497l-101.831-33.756 16.98 188.589h128.531z" fill="#e50058"/><path d="m394.092 407.268-59.47-83.857h-56.756l10 188.589h63.736z" fill="#c50048"/><path d="m177.378 323.411-101.831 33.756c-26.077 8.644-43.68 33.025-43.68 60.497v94.336h128.531z" fill="#ff4a4a"/><path d="m287.866 512v-188.589h-41.865l10 188.589z" fill="#ece6f2"/><path d="m177.378 323.411-59.469 83.857 42.489 104.732h63.734l10-188.589z" fill="#e50058"/><path d="m224.132 323.411h31.869v188.589h-31.869z" fill="#fff5f5"/><path d="m382.492 175.378-136.491-65.018 10 240.18c70.399 0 127.468-57.07 127.468-127.469v-31.867c0-5.36-.335-10.641-.977-15.826z" fill="#ffdecf"/><path d="m129.508 175.377c-.642 5.186-.977 10.466-.977 15.826v31.867c0 70.399 57.07 127.469 127.469 127.469h.001v-240.179z" fill="#ffeee5"/><path d="m256.001 63.734-10 27.006 10 29.619c43.015 61.33 117.159 55.959 126.491 55.018-7.794-62.929-61.452-111.642-126.491-111.643z" fill="#b56d3c"/><path d="m256 63.734c-65.04 0-118.698 48.713-126.492 111.643 9.324.94 83.475 6.317 126.493-55.018z" fill="#c78f2c"/><path d="m184.299 208.07h31.867v30h-31.867z" fill="#332866"/><path d="m295.834 208.07h31.867v30h-31.867z" fill="#180a33"/></g></svg>