<svg id="Capa_1" enable-background="new 0 0 512 512" height="512" viewBox="0 0 512 512" width="512" xmlns="http://www.w3.org/2000/svg"><g><path d="m0 256c0-141.309 114.492-255.877 255.772-256 139.138-.121 253.526 111.885 256.18 250.997 1.583 82.97-36.315 157.154-96.171 205.03-1.265 1.012-3.057 1.008-4.343.023-43.096-32.98-96.979-52.575-155.438-52.575-58.405 0-112.242 19.559-155.318 52.483-1.358 1.038-3.248 1.042-4.582-.026-58.583-46.914-96.1-119.041-96.1-199.932z" fill="#ae583e"/><path d="m467 256c0 116.532-94.468 211-211 211s-211-94.468-211-211 94.468-211 211-211 211 94.468 211 211z" fill="#c0694e"/><path d="m146 202c-13.807 0-25-11.193-25-25v-10c0-13.807 11.193-25 25-25 13.807 0 25 11.193 25 25v10c0 13.807-11.193 25-25 25z" fill="#ffbeaa"/><path d="m126.292 476.754c-10.611-6.248-20.732-13.239-30.292-20.902v-93.852c0-38.66 31.34-70 70-70h41c-38.66 0-70 31.34-70 70v108.577c0 5.495-5.973 8.965-10.708 6.177z" fill="#e09380"/><path d="m121 177v-10c0-13.806 11.192-24.999 24.998-25-6.071 4.561-9.998 11.822-9.998 20v20c0 8.178 3.927 15.439 9.998 20-13.806-.001-24.998-11.194-24.998-25zm124.099 228.979c22.589 0 40.901-18.312 40.901-40.901v-97.219c33.586-9.499 60.641-34.551 72.895-66.883 2.403.711 4.956 1.071 7.601 1.019 13.712-.266 24.504-11.875 24.504-25.59v-9.405c0-13.807-11.193-25-25-25v-20c0-60.751-49.249-110-110-110-60.751 0-110 49.249-110 110v40c0 50.351 33.83 92.8 80 105.859v24.141h-30c-38.66 0-70 31.34-70 70v114.583c9.862 5.825 20.149 11.007 30.803 15.489 3.143 1.322 6.619-1.007 6.619-4.416 0-45.109 36.568-81.677 81.677-81.677z" fill="#faa68e"/><path d="m366 122v40c0 50.792-34.425 93.543-81.216 106.195-9.023 2.44-18.545 2.44-27.568 0-46.791-12.652-81.216-55.403-81.216-106.195v-40c0-55.663 41.345-101.669 95-108.985 53.655 7.316 95 53.322 95 108.985z" fill="#ffbeaa"/><path d="m241.5 168.731c-2.929-2.93-2.929-7.678 0-10.607 2.929-2.928 7.678-2.928 10.606 0 1.042 1.042 2.424 1.616 3.893 1.616s2.851-.574 3.893-1.616c2.929-2.928 7.678-2.928 10.606 0 2.929 2.93 2.929 7.678 0 10.607-3.875 3.875-9.024 6.009-14.5 6.009s-10.623-2.134-14.498-6.009zm44.803 27.601c-2.929-2.928-7.678-2.928-10.606 0-10.861 10.861-28.532 10.861-39.394 0-2.929-2.928-7.678-2.928-10.606 0-2.929 2.93-2.929 7.678 0 10.607 8.354 8.354 19.329 12.531 30.303 12.531s21.949-4.177 30.303-12.531c2.929-2.929 2.929-7.677 0-10.607z" fill="#e09380"/><path d="m234.446 113.697c2.929 2.929 2.928 7.678 0 10.606-5.361 5.36-12.403 8.041-19.445 8.041s-14.084-2.681-19.445-8.041c-2.929-2.929-2.929-7.678 0-10.606 2.93-2.93 7.677-2.929 10.607-.001 4.874 4.873 12.804 4.873 17.678 0 2.927-2.928 7.676-2.927 10.605.001zm82 0c-2.929-2.929-7.678-2.93-10.607-.001-4.874 4.873-12.804 4.873-17.678 0-2.93-2.928-7.677-2.929-10.607.001-2.929 2.929-2.928 7.678 0 10.606 5.361 5.36 12.403 8.041 19.445 8.041s14.084-2.681 19.445-8.041c2.93-2.928 2.931-7.677.002-10.606z" fill="#b46e5a"/><path d="m171.322 353.032v55.468c0 4.142-3.358 7.5-7.5 7.5s-7.5-3.358-7.5-7.5v-55.468c0-4.142 3.358-7.5 7.5-7.5s7.5 3.358 7.5 7.5z" fill="#e09380"/><path d="m416 362v93.852c-18.238 14.621-38.522 26.796-60.352 36.029-3.257 1.378-6.756 2.098-10.292 2.098h-92.536c-49.153 0-88.999-39.846-88.999-88.999 0-5.926 2.605-11.551 7.124-15.384l115.055-97.596 4.766 2.851h44.872l5.362-2.851h5c38.66 0 70 31.34 70 70z" fill="#ffcd71"/><path d="m310.028 296.382-31.688 142.788h-25l32.66-147.17h20.512c2.303 0 4.015 2.133 3.516 4.382z" fill="#ff9100"/><path d="m341 292v147.17h-67.234l32.66-147.17z" fill="#ff9f22"/><path d="m325.277 325.223v111.085c0 2.761-2.239 5-5 5-2.761 0-5-2.239-5-5v-111.085c0-2.761 2.239-5 5-5 2.761 0 5 2.239 5 5zm-25.766 6.882c-2.704-.559-5.35 1.18-5.909 3.884l-22.498 108.783c-.559 2.704 1.18 5.35 3.884 5.909s5.35-1.18 5.909-3.884l22.498-108.783c.56-2.705-1.179-5.35-3.884-5.909z" fill="#dd7d00"/><path d="m345.866 430v59.554c-27.961 10.484-58.244 16.218-89.866 16.218-7.801 0-15.521-.349-23.144-1.032-1.816-.163-3.627 5.884-5.433 5.683-19.488-2.165-38.315-6.517-56.232-12.805-3.028-1.063-5.057-3.922-5.057-7.132v-60.486z" fill="#fff36c"/><path d="m345.866 430v60.662c0 3.102-1.959 5.866-4.885 6.895-26.591 9.355-55.192 14.443-84.981 14.443-9.104 0-18.096-.475-26.955-1.402-6.493-.68-12.498-2.863-17.677-6.184-3.85-2.468-2.162-8.414 2.412-8.414h55.622c2.611 0 4.943-1.909 5.191-4.509.284-2.982-2.053-5.491-4.977-5.491h-70.576c-1.986 0-3.734-1.29-4.345-3.179-.114-.352-.223-.707-.327-1.063-.845-2.883 1.384-5.758 4.388-5.758h122.475c2.611 0 4.943-1.909 5.191-4.509.284-2.982-2.053-5.491-4.977-5.491h-123.017c-2.977 0-5.154-2.809-4.412-5.692l.015-.059c.522-2.025 2.348-3.441 4.439-3.441h70.932c2.611 0 4.943-1.909 5.191-4.509.285-2.982-2.053-5.491-4.977-5.491h-58.676c-4.341 0-6.193-5.469-2.784-8.156 6.875-5.419 15.553-8.652 24.986-8.652z" fill="#fff68e"/><path d="m156.322 402 15-12.724v108.387c-5.075-1.778-10.077-3.711-15-5.794zm191.856-56.468c-4.142 0-7.5 3.358-7.5 7.5v144.631c5.075-1.778 10.077-3.711 15-5.795v-138.836c0-4.142-3.357-7.5-7.5-7.5z" fill="#ffc14f"/></g></svg>