<svg id="Capa_1" enable-background="new 0 0 512 512" height="512" viewBox="0 0 512 512" width="512" xmlns="http://www.w3.org/2000/svg"><g><g><path d="m456.969 407.139c27.744-39.712 44.031-88.02 44.031-140.139 0-135.31-109.69-245-245-245s-245 109.69-245 245c0 52.119 16.287 100.427 44.031 140.139z" fill="#73c3f9"/></g><g><circle cx="256" cy="242" fill="#4fabf7" r="200"/></g><g><path d="m412.228 259.136c-21.522-7.533-27.392-22.468-18.088-51.816 8.405-26.513-26.225-54.168-32.997-59.266v-30.911c0-5.23-.385-10.369-1.122-15.394h-208.617c-.398 5.5-.547 10.707-.547 15.394v.121c0 17.61-6.634 34.491-18.288 47.694-10.147 11.495-19.542 27.117-14.709 42.362 9.304 29.349 3.435 44.283-18.088 51.816-21.522 7.533-72.394 55.796-18.914 126.233h350.283c53.48-70.437 2.609-118.7-18.913-126.233z" fill="#b76c4e"/></g><g><path d="m346.915 242c17.872-24.064 10.383-56.958-7.009-59.596h-167.812c-17.392 2.639-24.881 35.532-7.009 59.596s-72 73.227-28.085 143.369h238c43.915-70.142-45.957-119.305-28.085-143.369z" fill="#a05838"/></g><g><path d="m456.949 407.139c-8.256-22.709-16.99-42.685-24.722-51.911-.904-1.078-1.795-2.019-2.668-2.79-6.623-5.848-19.39-11.382-34.352-16.323-6.213-2.052-12.805-4-19.492-5.827l-19.182 13.563-13.041-21.426v-.001c-21.725-4.775-39.05-7.674-40.105-7.849h-94.772c-1.055.175-18.38 3.074-40.105 7.849v.001l-13.041 21.426-19.182-13.563c-6.687 1.827-13.279 3.775-19.492 5.827-14.961 4.941-27.729 10.475-34.352 16.323-.874.772-1.765 1.712-2.668 2.79-7.732 9.226-16.467 29.203-24.722 51.911-.001.009-.001.018-.002.026 13.318 19.058 29.288 36.122 47.357 50.684h307.188c18.069-14.562 34.039-31.626 47.357-50.684-.003-.008-.003-.017-.004-.026z" fill="#f3d6ac"/></g><g><path d="m181.159 395.256c-7.588-20.984-11.96-45.066-12.65-72.831l-13.041 21.426-19.182-13.563c-6.687 1.827-13.279 3.775-19.492 5.827-14.961 4.941-27.729 10.475-34.352 16.323-.874.772-1.765 1.712-2.668 2.79-7.732 9.226-16.467 29.203-24.722 51.911-.001.009-.001.018-.002.026 13.312 19.05 29.274 36.107 47.333 50.665h118.606c-17.282-17.15-30.825-37.676-39.83-62.574z" fill="#eabe8d"/></g><g><path d="m391.147 471.33c6.374-4.223 12.555-8.713 18.491-13.499-4.027-11.7-11.689-21.884-21.736-29.06v42.559z" fill="#eabe8d"/></g><g><path d="m124.098 471.33v-42.559c-10.047 7.176-17.708 17.36-21.736 29.06 5.936 4.786 12.117 9.277 18.491 13.499z" fill="#d8a97c"/></g><g><path d="m136.286 330.288c-.13 43.613-8.91 85.439-15.491 110.712h85.304c-22.866-29.663-36.333-68.013-37.59-118.575-10.183 2.238-21.328 4.887-32.223 7.863z" fill="#213159"/></g><g><path d="m375.714 330.288c.13 43.613 8.91 85.439 15.491 110.712h-85.304c22.866-29.663 36.333-68.013 37.59-118.575 10.183 2.238 21.328 4.887 32.223 7.863z" fill="#2d3c6b"/></g><g><path d="m379.202 415.644.017-.006c-.05-.05-.099-.098-.149-.148-1.882-2.145-3.921-4.152-6.097-6.012-35.607-34.723-69.588-61.613-69.588-94.903h-94.772c0 33.29-33.981 60.18-69.588 94.903-2.176 1.86-4.215 3.867-6.097 6.012-.05.05-.099.098-.149.148l.017.006c-11.756 13.487-17.434 32.166-13.151 51.388.604 2.713 1.146 4.246 1.165 4.298v.009c38.75 25.687 85.218 40.661 135.19 40.661 49.971 0 96.439-14.974 135.187-40.661l.001-.009c.019-.052.56-1.586 1.165-4.298 4.283-19.222-1.395-37.901-13.151-51.388z" fill="#dae2fe"/></g><g><path d="m301.031 507.862c-56.84-22.966-99.707-56.85-119.872-112.606-2.368-6.548-4.422-13.398-6.15-20.567-10.814 11.031-23.29 22.412-35.983 34.789-2.176 1.86-4.215 3.867-6.097 6.012-.05.05-.099.098-.149.148l.017.006c-11.756 13.487-17.434 32.166-13.151 51.388.604 2.713 1.146 4.246 1.165 4.298v.009c38.749 25.687 85.217 40.661 135.189 40.661 15.384 0 30.434-1.424 45.031-4.138z" fill="#bec8f7"/></g><g><path d="m208.614 221.239v93.336s19.021 20.093 47.17 20.093c.073 0 .143-.005.216-.005 28.031-.103 47.386-20.088 47.386-20.088v-93.336z" fill="#eabe8d"/></g><g><path d="m208.614 277.655h94.772c5.523 0 10 4.477 10 10v28.692s-16.429 18.317-57.386 18.317-57.386-18.317-57.386-18.317v-28.692c0-5.523 4.477-10 10-10z" fill="#e9efff"/></g><g><path d="m331.058 160.072s10.385-25.285 28.897-19.415-.448 60.664-36.573 64.116z" fill="#f3d6ac"/></g><g><path d="m316 92.356c6.171 33.533 27.477 51.149 27.549 51.209.029 1.226.048 2.456.048 3.695 0 64.505-39.219 140.155-87.597 140.155-39.611 0-73.076-50.717-83.906-104.506 92.184-9.194 143.906-90.553 143.906-90.553z" fill="#f8e6cc"/></g><g><path d="m276 283.069c-32.483-14.215-58.012-61.172-65.414-108.586-11.909 4.071-24.747 7.055-38.492 8.426 10.83 53.789 44.295 104.506 83.906 104.506 6.881 0 13.576-1.535 20-4.346z" fill="#f3d6ac"/></g><g><g><path d="m242.013 192.447 8.436-13.441c2.569-4.093 8.533-4.093 11.102 0l8.436 13.441c2.739 4.365-.398 10.038-5.551 10.038h-16.871c-5.154-.001-8.291-5.674-5.552-10.038z" fill="#eabe8d"/></g></g><g><g><path d="m235.384 240.87h41.233c4.111-3.622 7.258-8.309 9.01-13.631 1.584-4.811-2.069-9.754-7.134-9.754h-44.985c-5.065 0-8.718 4.943-7.134 9.754 1.752 5.322 4.899 10.009 9.01 13.631z" fill="#162544"/></g><g><path d="m276.616 240.87c-5.493 4.849-12.714 7.798-20.616 7.798s-15.124-2.948-20.616-7.798c5.5-4.849 12.714-7.798 20.616-7.798s15.116 2.949 20.616 7.798z" fill="#ff4155"/></g></g><g><path d="m311.557 158.721c-.863-3.387-3.137-6.41-6.566-8.116-5.584-2.778-12.505-.923-15.952 4.274-2.117 3.192-2.574 6.947-1.628 10.312 1.228 4.369 7.176 5.031 9.445 1.1 1.43-2.476 4.596-3.325 7.072-1.895 3.93 2.269 8.75-1.277 7.629-5.675z" fill="#162544"/></g><g><path d="m181.267 78.923c19.26 7.223 37.453 14.045 74.733 14.045s55.473-6.822 74.733-14.045c6.461-2.423 12.993-4.871 20.191-7.098l-10.539-41.529c-4.522-17.819-20.561-30.296-38.945-30.296-6.585 0-13.069 1.619-18.882 4.713l-6.045 3.218c-6.315 3.362-13.359 5.12-20.513 5.12s-14.198-1.758-20.513-5.12l-6.045-3.218c-5.812-3.094-12.296-4.713-18.881-4.713-18.384 0-34.423 12.477-38.945 30.297l-10.539 41.529c7.197 2.226 13.729 4.674 20.19 7.097z" fill="#dae2fe"/></g><g><path d="m209.305 76.051c-10.418-9.502-23.624-59.604-8.305-74.894-14.177 3.471-25.67 14.499-29.385 29.139l-10.539 41.529c7.198 2.227 13.729 4.675 20.191 7.098 8.908 3.341 17.592 6.594 28.038 9.128z" fill="#bec8f7"/></g><g><path d="m256 80.968c-37.28 0-55.473-6.822-74.733-14.045-5.402-2.026-10.853-4.069-16.701-5.986-5.51-1.806-11.403 1.418-12.829 7.038l-7.709 30.376 9.386 2.637c8.82 2.478 16.711 5.436 24.342 8.297 19.248 7.218 39.151 14.682 78.244 14.682s58.997-7.464 78.244-14.682c7.631-2.861 15.522-5.82 24.342-8.297l9.386-2.637-7.709-30.376c-1.426-5.62-7.319-8.844-12.829-7.038-5.849 1.917-11.299 3.96-16.701 5.986-19.26 7.223-37.453 14.045-74.733 14.045z" fill="#4b6496"/></g><g><path d="m209.305 76.051c-10.446-2.534-19.13-5.787-28.038-9.128-5.402-2.026-10.853-4.069-16.701-5.986-5.51-1.806-11.403 1.418-12.829 7.038l-7.709 30.376 9.386 2.637c8.82 2.478 16.711 5.436 24.342 8.297 9.087 3.408 18.323 6.869 29.652 9.575v-11.238c-6.924-1.814-12.032-8.114-12.032-15.607.001-8.159 6.065-14.887 13.929-15.964z" fill="#3c5082"/></g><g><path d="m387.809 101.749c0-9.486-8.687-16.564-17.993-14.722-15.587 3.086-27.446 7.532-39.083 11.896-19.26 7.223-37.453 14.045-74.733 14.045s-55.473-6.822-74.733-14.045c-11.637-4.364-23.496-8.81-39.083-11.896-9.306-1.843-17.993 5.235-17.993 14.722 0 7.148 5.039 13.33 12.051 14.718 13.458 2.663 23.813 6.542 34.49 10.546 20.917 7.844 42.547 15.955 85.267 15.955s64.35-8.111 85.267-15.955c10.678-4.004 21.032-7.883 34.49-10.546 7.014-1.388 12.053-7.57 12.053-14.718z" fill="#e9efff"/></g><g><path d="m124.191 101.749c0 7.149 5.039 13.33 12.051 14.718 13.458 2.663 23.813 6.542 34.49 10.546 9.641 3.615 19.439 7.286 31.377 10.194-5.244-2.453-8.885-7.761-8.885-13.933 0-8.5 6.89-15.39 15.39-15.39.006 0 .012.001.018.001-10.147-2.509-18.65-5.694-27.366-8.962-11.637-4.364-23.496-8.81-39.083-11.896-9.304-1.842-17.992 5.235-17.992 14.722z" fill="#dae2fe"/></g></g></svg>