<svg id="Capa_1" enable-background="new 0 0 512 512" height="512" viewBox="0 0 512 512" width="512" xmlns="http://www.w3.org/2000/svg"><g><path d="m383.469 127.469v-19.917c0-50.599-41.019-91.618-91.618-91.618-3.041 0-6.045.156-9.01.446-8.183-5.394-17.214-9.6-26.841-12.405l-10 111.626s65.768 29.408 137.469 11.868z" fill="#895140"/><path d="m228.116 0c-54.999 0-99.585 44.586-99.585 99.585v27.884c63.735 22.444 127.469-11.868 127.469-11.868v-111.626c-8.849-2.578-18.202-3.975-27.884-3.975z" fill="#b56d3c"/><path d="m177.378 307.478-110.302 36.564c-21.714 7.198-37.784 25.653-41.928 48.151l-22.067 119.807h252.919z" fill="#c78f2c"/><path d="m334.622 307.478 110.302 36.564c21.714 7.198 37.784 25.653 41.928 48.151l22.067 119.807h-252.919z" fill="#b56d3c"/><path d="m327.697 403.586c-10.969 32.099-32.164 69.63-71.697 108.414l-10-197.394z" fill="#cfcfe6"/><path d="m256 314.606-71.697 88.98c10.969 32.099 32.164 69.63 71.697 108.414v-177.394z" fill="#ece6f2"/><path d="m256 334.606-10-27.128h88.622s12.37 39.643-6.925 96.109c-65.125-20.438-71.697-68.981-71.697-68.981z" fill="#ece6f2"/><path d="m256 334.606v-27.128h-78.622s-12.37 39.643 6.925 96.109c65.125-20.438 71.697-68.981 71.697-68.981z" fill="#fff5f5"/><path d="m138.531 191.204h-31.867c-17.6 0-31.868-14.268-31.868-31.868 0-17.6 14.268-31.868 31.868-31.868h31.867z" fill="#ffdecf"/><path d="m373.469 191.204h31.867c17.6 0 31.868-14.268 31.868-31.868 0-17.6-14.268-31.868-31.868-31.868h-31.867z" fill="#ffcdbe"/><path d="m256 95.601-10 211.876h88.622c29.74-23.335 48.847-59.606 48.847-100.34v-79.668c-63.735-.001-63.735-31.868-127.469-31.868z" fill="#ffdecf"/><path d="m128.531 127.469v79.668c0 40.734 19.107 77.004 48.847 100.34h78.622v-211.876c-63.734 0-63.734 31.868-127.469 31.868z" fill="#ffeee5"/><path d="m334.622 307.477-5.331-23.59c-7.74-34.254-38.174-58.578-73.291-58.578l-10 98.438h61.542c9.725-4.306 18.815-9.785 27.08-16.27z" fill="#5b362a"/><path d="m182.709 283.886-5.331 23.591c8.265 6.485 17.354 11.965 27.08 16.27h51.542v-98.438c-35.117-.001-65.551 24.323-73.291 58.577z" fill="#895140"/><path d="m256 334.606c18.345 0 35.781-3.883 51.542-10.859l-7.513-33.248c-2.249-9.952-7.877-18.941-15.847-25.312-7.97-6.37-17.979-9.879-28.182-9.879l-10 39.649z" fill="#ffdecf"/><path d="m211.971 290.498-7.513 33.248c15.761 6.977 33.197 10.859 51.542 10.859v-79.298c-10.203 0-20.212 3.508-28.182 9.879s-13.598 15.36-15.847 25.312z" fill="#ffeee5"/><path d="m184.299 160.27h31.867v30h-31.867z" fill="#332866"/><path d="m295.834 160.27h31.867v30h-31.867z" fill="#180a33"/></g></svg>