<svg id="Capa_1" enable-background="new 0 0 512 512" height="512" viewBox="0 0 512 512" width="512" xmlns="http://www.w3.org/2000/svg"><g><path d="m0 256c0-141.344 114.549-255.934 255.878-256 141.059-.066 256.122 114.941 256.122 256 0 81.09-37.703 153.374-96.535 200.279-6.408 5.109-15.37 5.685-22.285 1.287-39.652-25.214-86.71-39.819-137.18-39.819-50.597 0-97.766 14.679-137.48 40.01-6.673 4.257-15.27 3.848-21.472-1.07-59.126-46.893-97.048-119.361-97.048-200.687z" fill="#6990d7"/><path d="m452 214c0 108.248-87.752 196-196 196s-196-87.752-196-196 87.752-196 196-196 196 87.752 196 196z" fill="#91aee2"/><path d="m439.382 69.923c-.685 5.48-5.683 9.367-11.163 8.682-3.673-.459-6.63-2.855-7.975-6.036l-135.285-16.91c-2.74-.342-4.684-2.841-4.341-5.582.342-2.74 2.841-4.684 5.582-4.341l135.285 16.911c2.086-2.751 5.542-4.346 9.215-3.887 5.48.685 9.367 5.683 8.682 11.163z" fill="#ffc14f"/><path d="m166 313.416h7.644s17.374 1.842 9.204 5.184c-25.529 10.442-43.515 35.529-43.515 64.816v86.281c0 6.516-7.081 10.555-12.701 7.257-10.735-6.299-20.97-13.358-30.632-21.103v-72.435c0-38.66 31.34-70 70-70z" fill="#fa9084"/><path d="m416 383.416v72.435c-18.23 14.614-38.503 26.785-60.322 36.017-1.555.658-17.733-.966-24.678-.966h-150c-6.945 0-23.123 1.624-24.678.966-10.482-4.435-20.608-9.549-30.322-15.286v-93.166c0-33.468 23.488-61.45 54.879-68.362 4.87-1.072 17.483 10.244 22.675 10.244l107.234.255 27.569-12.137h7.643c38.66 0 70 31.34 70 70z" fill="#fbb3a8"/><path d="m134.27 404.702c2.211 3.666 3.197 7.617 2.848 11.118-3.501.349-7.452-.638-11.118-2.849-3.666 2.211-7.618 3.197-11.118 2.849-.349-3.501.638-7.452 2.849-11.118-2.211-3.667-3.197-7.617-2.849-11.118 3.501-.349 7.452.638 11.118 2.849 3.666-2.211 7.617-3.197 11.118-2.849.349 3.501-.638 7.452-2.848 11.118zm0 49.954c2.211 3.666 3.197 7.617 2.848 11.118-3.501.349-7.452-.638-11.118-2.849-3.666 2.211-7.618 3.197-11.118 2.849-.349-3.501.638-7.452 2.849-11.118-2.211-3.667-3.197-7.617-2.849-11.118 3.501-.349 7.452.638 11.118 2.849 3.666-2.211 7.617-3.197 11.118-2.849.349 3.501-.638 7.452-2.848 11.118z" fill="#faa598"/><path d="m126 412.972v-16.539c3.667-2.211 7.617-3.197 11.118-2.849.349 3.501-.638 7.452-2.849 11.118 2.211 3.667 3.197 7.617 2.849 11.118-3.501.349-7.451-.637-11.118-2.848zm0 49.954v-16.539c3.667-2.211 7.617-3.197 11.118-2.849.349 3.501-.638 7.452-2.849 11.118 2.211 3.667 3.197 7.617 2.849 11.118-3.501.349-7.451-.637-11.118-2.848zm236.983-128.512c-3.501-.349-7.452.638-11.118 2.848-3.667-2.211-7.618-3.197-11.118-2.848-.349 3.501.638 7.452 2.849 11.118-2.211 3.667-3.197 7.617-2.849 11.118 3.501.349 7.452-.638 11.118-2.848 3.666 2.211 7.617 3.197 11.118 2.848.349-3.501-.638-7.452-2.849-11.118 2.211-3.667 3.198-7.618 2.849-11.118zm-69.678 76.304c-3.501-.349-7.452.638-11.118 2.849-3.667-2.211-7.618-3.197-11.118-2.849-.349 3.501.638 7.452 2.849 11.118-2.211 3.667-3.197 7.617-2.849 11.118 3.501.349 7.452-.638 11.118-2.849 3.666 2.211 7.617 3.197 11.118 2.849.349-3.501-.638-7.452-2.849-11.118 2.211-3.667 3.198-7.618 2.849-11.118zm32.881-39.507c-3.501-.349-7.452.638-11.118 2.848-3.666-2.211-7.618-3.197-11.118-2.848-.349 3.501.638 7.452 2.849 11.118-2.211 3.667-3.197 7.617-2.849 11.118 3.501.349 7.452-.638 11.118-2.848 3.666 2.211 7.617 3.197 11.118 2.848.349-3.501-.638-7.452-2.849-11.118 2.211-3.667 3.198-7.618 2.849-11.118zm67.449 0c-3.501-.349-7.452.638-11.118 2.848-3.667-2.211-7.618-3.197-11.118-2.848-.349 3.501.638 7.452 2.849 11.118-2.211 3.667-3.197 7.617-2.849 11.118 3.501.349 7.452-.638 11.118-2.848 3.666 2.211 7.617 3.197 11.118 2.848.349-3.501-.638-7.452-2.848-11.118 2.21-3.667 3.196-7.618 2.848-11.118zm-221.842-27.726c-3.501-.349-7.452.638-11.118 2.849-3.666-2.211-7.618-3.197-11.118-2.849-.349 3.501.638 7.452 2.849 11.118-2.211 3.667-3.197 7.617-2.849 11.118 3.501.349 7.452-.638 11.118-2.849 3.666 2.211 7.617 3.197 11.118 2.849.349-3.501-.638-7.452-2.848-11.118 2.21-3.667 3.196-7.618 2.848-11.118zm30.651 36.797c-3.501-.349-7.452.638-11.118 2.849-3.666-2.211-7.618-3.197-11.118-2.849-.349 3.501.638 7.452 2.849 11.118-2.211 3.666-3.197 7.617-2.849 11.118 3.501.349 7.452-.638 11.118-2.849 3.666 2.211 7.617 3.197 11.118 2.849.349-3.501-.638-7.452-2.848-11.118 2.21-3.667 3.197-7.618 2.848-11.118zm191.191 52.07c-3.501-.349-7.452.638-11.118 2.848-3.667-2.211-7.618-3.197-11.118-2.848-.349 3.501.638 7.452 2.849 11.118-2.211 3.667-3.197 7.617-2.849 11.118 3.501.349 7.452-.638 11.118-2.848 3.666 2.211 7.617 3.197 11.118 2.848.349-3.501-.638-7.452-2.848-11.118 2.21-3.667 3.196-7.618 2.848-11.118z" fill="#fcc1b8"/><path d="m169.382 482.393v-52.623c6.421-6.421 43.924-43.924 60.308-60.308l-56.046-56.046h164.712z" fill="#fb5858"/><path d="m251.566 330.119c4.818-4.818 16.39 1.227 8.808 8.809l-4.374 4.488-26.235 26.121-8.809-8.809z" fill="#c83c50"/><path d="m374.375 98.064c3.716 0 6.965 2.477 7.987 6.05 3.02 10.552 4.637 21.697 4.637 33.219v.147c0 66.55-53.95 120.5-120.5 120.5-66.55 0-120.5-53.95-120.5-120.5v-.147c0-13.749 2.303-26.96 6.543-39.268h221.833z" fill="#274c91"/><path d="m285.617 256.46c-6.249 1-12.659 1.519-19.19 1.519h-20.854c-66.591 0-120.573-53.983-120.573-120.573 0-11.292 1.552-22.221 4.455-32.585 2.141-7.643 9.173-12.884 17.111-12.884h46.537c-5.717 14.032-8.868 29.382-8.868 45.469-.001 60.059 43.912 109.862 101.382 119.054z" fill="#203e76"/><path d="m146 223.416c-13.807 0-25-11.193-25-25v-10c0-13.807 11.193-25 25-25 13.807 0 25 11.193 25 25v10c0 13.807-11.193 25-25 25z" fill="#f2bb88"/><path d="m136 183.416v20c0 8.178 3.927 15.439 9.998 20-13.806-.001-24.998-11.194-24.998-25v-10c0-13.806 11.192-24.999 24.998-25-6.071 4.561-9.998 11.822-9.998 20zm230-20v-20c0-60.751-49.249-110-110-110-60.751 0-110 49.249-110 110v40c0 50.351 33.83 92.8 80 105.859v24.141l30 30c11.716-11.716 18.284-18.284 30-30v-24.141c33.586-9.499 60.641-34.551 72.895-66.883 2.252.666 4.637 1.024 7.105 1.024 13.807 0 25-11.193 25-25v-10c0-13.807-11.193-25-25-25z" fill="#e3a76f"/><path d="m366 143.416v40c0 50.792-34.425 93.543-81.216 106.195-9.023 2.44-18.545 2.44-27.568 0-46.791-12.652-81.216-55.403-81.216-106.195v-40c0-55.663 41.345-101.669 95-108.985 53.655 7.316 95 53.322 95 108.985z" fill="#f2bb88"/><path d="m241.5 190.148c-2.929-2.93-2.929-7.678 0-10.607 2.929-2.928 7.678-2.928 10.606 0 1.042 1.042 2.424 1.616 3.893 1.616s2.851-.574 3.893-1.616c2.929-2.928 7.678-2.928 10.606 0 2.929 2.93 2.929 7.678 0 10.607-3.875 3.875-9.024 6.009-14.5 6.009s-10.623-2.134-14.498-6.009z" fill="#e3a76f"/><path d="m256 253.416c-16.569 0-30-13.431-30-30 0-4.142 3.358-7.5 7.5-7.5h45c4.142 0 7.5 3.358 7.5 7.5 0 16.569-13.431 30-30 30z" fill="#fff5f5"/><path d="m263.5 252.471c-2.397.617-4.91.945-7.5.945-16.568 0-30-13.431-30-30 0-4.142 3.358-7.5 7.5-7.5h15c-4.142 0-7.5 3.358-7.5 7.5 0 13.979 9.561 25.725 22.5 29.055z" fill="#def4f8"/><path d="m382.728 105.483h-200.524c-10.803 0-18.01-11.316-13.261-21.018 8.283-16.922 20.413-31.617 35.251-42.947-7.083-3.713-11.895-11.171-11.804-19.744.127-12.153 10.392-21.774 22.545-21.774h114.395c12.156 0 22.011 9.854 22.011 22.011 0 8.473-3.238 15.828-10.255 19.507 20.696 15.804 34.574 38.156 41.642 63.965z" fill="#274c91"/><path d="m266.497 43.028c-.123 4.105-3.704 7.269-7.811 7.269h-37.986c-3.776 0-7.37 1.588-9.942 4.352-13.164 14.146-22.753 31.522-28.042 50.833h-53.444c7.068-25.809 21.159-48.161 41.856-63.966-6.958-3.648-10.409-10.909-10.467-19.291-.085-12.222 10.046-22.225 22.269-22.225h52.506c-12.156 0-22.01 9.854-22.01 22.011 0 .05 0 .1.001.15.049 7.317 6.194 13.137 13.511 13.137h32.062c4.219 0 7.624 3.483 7.497 7.73z" fill="#203e76"/><path d="m162.602 449.979h186.795v35.595c0 5.415-3.428 10.231-8.537 12.025-26.556 9.328-55.115 14.401-84.86 14.401-29.741 0-58.297-5.072-84.851-14.398-5.115-1.796-8.546-6.618-8.546-12.039v-35.584z" fill="#c83c50"/><path d="m321.681 469.713c0 2.761-2.239 5-5 5h-114.915v12.553h96.362c2.761 0 5 2.239 5 5 0 2.761-2.239 5-5 5h-96.362v8.978c-10.458-2.256-20.678-5.15-30.617-8.641-5.115-1.796-8.546-6.618-8.546-12.039v-35.585h39.164v14.734h114.915c2.76 0 4.999 2.238 4.999 5z" fill="#b03244"/><path d="m171.322 418.149v79.514c-5.075-1.778-10.077-3.711-15-5.795v-73.72c0-4.142 3.358-7.5 7.5-7.5s7.5 3.359 7.5 7.501zm176.856-7.5c-4.142 0-7.5 3.358-7.5 7.5v79.514c5.075-1.778 10.077-3.711 15-5.795v-73.72c0-4.141-3.357-7.499-7.5-7.499z" fill="#fa9084"/><path d="m233.653 151.693c1.877 3.692.406 8.207-3.286 10.085-3.693 1.878-8.207.406-10.085-3.285-3.125-6.143-10.664-8.6-16.808-5.477-3.692 1.877-8.207.405-10.085-3.287-1.877-3.692-.406-8.207 3.286-10.084 6.758-3.436 14.284-3.803 20.98-1.621s12.561 6.912 15.998 13.669zm81.671-12.048c-6.758-3.436-14.284-3.803-20.98-1.621s-12.561 6.912-15.998 13.67c-1.877 3.692-.406 8.207 3.286 10.085 3.693 1.878 8.207.406 10.085-3.285 3.125-6.143 10.664-8.6 16.808-5.477 3.692 1.877 8.207.405 10.085-3.287 1.878-3.693.406-8.208-3.286-10.085z" fill="#a65d4e"/><path d="m460 35c0 5.523-4.477 10-10 10-3.701 0-6.933-2.011-8.662-5h-136.338c-2.761 0-5-2.239-5-5s2.239-5 5-5h136.338c1.729-2.989 4.96-5 8.662-5 5.523 0 10 4.477 10 10z" fill="#ffc14f"/><path d="m327.5 54.393c5.858 5.858 5.858 15.355 0 21.213s-15.355 5.858-21.213 0-5.858-15.355 0-21.213l7.5-7.5-7.5-7.5c-5.858-5.858-5.858-15.355 0-21.213s15.355-5.858 21.213 0 5.858 15.355 0 21.213l-7.5 7.5z" fill="#fbb3a8"/><path d="m345.607 57.5c-5.858 5.858-15.355 5.858-21.213 0l-7.5-7.5-7.5 7.5c-5.858 5.858-15.355 5.858-21.213 0s-5.858-15.355 0-21.213c5.858-5.858 15.355-5.858 21.213 0l7.5 7.5 7.5-7.5c5.858-5.858 15.355-5.858 21.213 0 5.857 5.858 5.857 15.355 0 21.213z" fill="#fa9084"/><path d="m326.893 46.893c0 5.523-4.477 10-10 10s-10-4.477-10-10 4.477-10 10-10 10 4.478 10 10z" fill="#fb5858"/></g></svg>