<svg height="512pt" viewBox="0 0 512 512" width="512pt" xmlns="http://www.w3.org/2000/svg"><path d="m512 256c0 141.386719-114.613281 256-256 256s-256-114.613281-256-256 114.613281-256 256-256 256 114.613281 256 256zm0 0" fill="#42b7a1"/><path d="m398.410156 468.761719c-12.339844 8.277343-25.441406 15.519531-39.179687 21.566406-10.652344 4.703125-21.679688 8.703125-33.03125 11.921875-22.300781 6.351562-45.847657 9.75-70.199219 9.75-24.339844 0-47.890625-3.398438-70.199219-9.738281-7.242187-2.0625-14.359375-4.441407-21.332031-7.121094-.429688-.160156-.859375-.320313-1.289062-.492187-3.507813-1.359376-6.980469-2.808594-10.410157-4.320313-13.738281-6.058594-26.839843-13.289063-39.191406-21.578125 10.390625-14.371094 23.761719-26.429688 39.191406-35.320312 10.199219-5.871094 21.300781-10.339844 33.03125-13.148438 1.808594-.441406 3.640625-.839844 5.480469-1.191406 3.46875-.679688 7-1.199219 10.570312-1.570313 1.027344-.109375 2.046876-.210937 3.089844-.289062 3.378906-.28125 6.796875-.421875 10.257813-.421875h81.589843c4.519532 0 8.972657.242187 13.351563.703125 3.570313.367187 7.089844.898437 10.570313 1.558593 1.390624.269532 2.769531.558594 4.140624.871094.449219.117188.910157.207032 1.347657.328125 11.742187 2.820313 22.832031 7.289063 33.03125 13.160157 15.429687 8.898437 28.789062 20.960937 39.179687 35.332031zm0 0" fill="#2f373b"/><path d="m215.199219 416.808594c-29.359375 0-49.257813 42.429687-50.730469 78.332031-.429688-.160156-.859375-.320313-1.289062-.492187-3.507813-1.359376-6.980469-2.808594-10.410157-4.320313-13.738281-6.058594-26.839843-13.289063-39.191406-21.578125 10.390625-14.371094 23.761719-26.429688 39.191406-35.320312 10.199219-5.871094 21.300781-10.339844 33.03125-13.148438 1.808594-.441406 3.640625-.839844 5.480469-1.191406 3.46875-.679688 7-1.199219 10.570312-1.570313 1.027344-.109375 2.046876-.210937 3.089844-.289062 3.378906-.28125 6.796875-.421875 10.257813-.421875zm0 0" fill="#181e21"/><path d="m300.707031 368.539062v54.867188c0 20.089844-15.679687 25.867188-33.925781 31.503906-4.175781 1.296875-10.792969 13.199219-10.792969 13.199219s-10.324219-6.046875-17-3.34375c-16.257812-6.6875-27.703125-22.6875-27.703125-41.359375v-54.867188zm0 0" fill="#dd9f8a"/><path d="m132.539062 278.152344c0 20.496094-14.972656 37.492187-34.578124 40.648437-2.144532.34375-4.347657.527344-6.597657.527344-22.746093 0-41.171875-18.429687-41.171875-41.175781s18.425782-41.175782 41.171875-41.175782c2.25 0 4.453125.179688 6.597657.527344 19.605468 3.15625 34.578124 20.152344 34.578124 40.648438zm0 0" fill="#f9c5ac"/><path d="m132.539062 278.152344c0 20.496094-14.972656 37.492187-34.578124 40.648437-3.5625-12.953125-5.464844-26.582031-5.464844-40.648437s1.902344-27.695313 5.464844-40.644532c19.605468 3.152344 34.578124 20.148438 34.578124 40.644532zm0 0" fill="#efb29a"/><path d="m106.082031 278.152344c0 8.128906-6.589843 14.714844-14.71875 14.714844-8.125 0-14.714843-6.585938-14.714843-14.714844 0-8.125 6.589843-14.714844 14.714843-14.714844 8.128907 0 14.71875 6.589844 14.71875 14.714844zm0 0" fill="#efb29a"/><path d="m379.449219 278.152344c0 20.496094 14.972656 37.492187 34.578125 40.648437 2.144531.34375 4.347656.527344 6.597656.527344 22.746094 0 41.175781-18.429687 41.175781-41.175781s-18.429687-41.175782-41.175781-41.175782c-2.25 0-4.453125.179688-6.597656.527344-19.605469 3.15625-34.578125 20.152344-34.578125 40.648438zm0 0" fill="#f9c5ac"/><path d="m379.449219 278.152344c0 20.496094 14.972656 37.492187 34.578125 40.648437 3.5625-12.953125 5.464844-26.582031 5.464844-40.648437s-1.902344-27.695313-5.464844-40.644532c-19.605469 3.152344-34.578125 20.148438-34.578125 40.644532zm0 0" fill="#efb29a"/><path d="m435.339844 278.152344c0 8.128906-6.589844 14.714844-14.714844 14.714844-8.128906 0-14.71875-6.585938-14.71875-14.714844 0-8.125 6.589844-14.714844 14.71875-14.714844 8.125 0 14.714844 6.589844 14.714844 14.714844zm0 0" fill="#efb29a"/><path d="m410.695312 256.511719c0 76.984375-56.242187 140.847656-129.871093 152.703125-8.078125 1.328125-16.371094 2-24.828125 2-85.445313 0-154.703125-69.257813-154.703125-154.703125v-157.5h309.402343zm0 0" fill="#f9c5ac"/><path d="m283.242188 408.808594c-.800782.140625-1.609376.28125-2.417969.410156-8.082031 1.320312-16.371094 1.992188-24.832031 1.992188-85.4375 0-154.699219-69.25-154.699219-154.699219v-157.5h54.550781v157.5c0 76.136719 54.980469 139.410156 127.398438 152.296875zm0 0" fill="#efb29a"/><path d="m255.996094 337.929688c-12.957032 0-25.910156-3.246094-37.71875-9.738282-3.328125-1.828125-4.542969-6.011718-2.714844-9.34375 1.832031-3.332031 6.015625-4.546875 9.347656-2.714844 19.464844 10.699219 42.707032 10.699219 62.167969 0 3.332031-1.832031 7.515625-.617187 9.347656 2.714844 1.832031 3.332032.617188 7.515625-2.714843 9.34375-11.808594 6.492188-24.761719 9.738282-37.714844 9.738282zm0 0" fill="#dd9f8a"/><path d="m361.984375 256.511719h48.710937v-80.933594h-30.753906zm0 0" fill="#d9723e"/><path d="m273.542969 291.695312h-35.097657c-4.179687 0-7.570312-3.390624-7.570312-7.570312 0-4.183594 3.390625-7.570312 7.570312-7.570312h35.097657c4.183593 0 7.570312 3.386718 7.570312 7.570312 0 4.179688-3.386719 7.570312-7.570312 7.570312zm0 0" fill="#efb29a"/><path d="m379.644531 0h-247.296875c-20.234375 0-36.636718 16.402344-36.636718 36.636719v159.558593h320.570312v-159.558593c0-20.234375-16.402344-36.636719-36.636719-36.636719zm0 0" fill="#2f373b"/><path d="m150.003906 256.511719h-48.710937v-80.933594h30.753906zm0 0" fill="#bd5423"/><path d="m216.148438 0c-20.238282 0-36.636719 16.398438-36.636719 36.640625v159.550781h-83.800781v-159.550781c0-20.242187 16.398437-36.640625 36.640624-36.640625zm0 0" fill="#181e21"/><path d="m281.339844 249.160156c0 17.164063 13.914062 31.082032 31.082031 31.082032 17.164063 0 31.078125-13.917969 31.078125-31.082032" fill="#efb29a"/><path d="m334.707031 249.160156c0 12.308594-9.976562 22.289063-22.285156 22.289063-12.3125 0-22.289063-9.980469-22.289063-22.289063s9.976563-22.285156 22.289063-22.285156c12.308594 0 22.285156 9.976562 22.285156 22.285156zm0 0" fill="#2f373b"/><path d="m331.257812 245.226562c0 5.277344-4.277343 9.550782-9.550781 9.550782-5.273437 0-9.550781-4.273438-9.550781-9.550782 0-5.273437 4.277344-9.546874 9.550781-9.546874 5.273438 0 9.550781 4.273437 9.550781 9.546874zm0 0" fill="#fff"/><path d="m168.488281 249.160156c0 17.164063 13.917969 31.082032 31.082031 31.082032 17.164063 0 31.078126-13.917969 31.078126-31.082032" fill="#efb29a"/><path d="m221.855469 249.160156c0 12.308594-9.976563 22.289063-22.285157 22.289063-12.308593 0-22.289062-9.980469-22.289062-22.289063s9.980469-22.285156 22.289062-22.285156c12.308594 0 22.285157 9.976562 22.285157 22.285156zm0 0" fill="#2f373b"/><path d="m204.78125 270.832031c-1.667969.410157-3.417969.617188-5.210938.617188-12.308593 0-22.289062-9.976563-22.289062-22.289063 0-12.308594 9.980469-22.289062 22.289062-22.289062 1.792969 0 3.542969.210937 5.210938.621094-9.800781 2.339843-17.070312 11.160156-17.070312 21.667968 0 10.511719 7.269531 19.332032 17.070312 21.671875zm0 0" fill="#181e21"/><path d="m317.632812 270.832031c-1.671874.410157-3.421874.617188-5.210937.617188-12.308594 0-22.289063-9.976563-22.289063-22.289063 0-12.308594 9.980469-22.289062 22.289063-22.289062 1.789063 0 3.539063.210937 5.210937.621094-9.800781 2.339843-17.070312 11.160156-17.070312 21.667968 0 10.511719 7.269531 19.332032 17.070312 21.671875zm0 0" fill="#181e21"/><path d="m218.40625 245.226562c0 5.277344-4.273438 9.550782-9.546875 9.550782-5.277344 0-9.550781-4.273438-9.550781-9.550782 0-5.273437 4.273437-9.546874 9.550781-9.546874 5.273437 0 9.546875 4.273437 9.546875 9.546874zm0 0" fill="#fff"/><path d="m421.691406 147.644531c-110.289062 12.175781-221.585937 12.175781-331.875 0 0-7.539062 0-15.074219 0-22.613281 110.289063 12.175781 221.585938 12.175781 331.875 0zm0 0" fill="#0084a6"/><path d="m236.796875 143.996094c0 26.867187-21.777344 48.644531-48.640625 48.644531s-48.640625-21.777344-48.640625-48.644531c0-26.863282 21.777344-48.640625 48.640625-48.640625s48.640625 21.777343 48.640625 48.640625zm0 0" fill="#ffbb16"/><path d="m220.078125 143.996094c0 17.632812-14.289063 31.925781-31.921875 31.925781s-31.925781-14.292969-31.925781-31.925781c0-17.628906 14.292969-31.921875 31.925781-31.921875s31.921875 14.292969 31.921875 31.921875zm0 0" fill="#e41753"/><path d="m372.476562 143.996094c0 26.867187-21.78125 48.644531-48.644531 48.644531s-48.640625-21.777344-48.640625-48.644531c0-26.863282 21.777344-48.640625 48.640625-48.640625s48.644531 21.777343 48.644531 48.640625zm0 0" fill="#ffbb16"/><path d="m355.757812 143.996094c0 17.632812-14.292968 31.925781-31.925781 31.925781-17.628906 0-31.921875-14.292969-31.921875-31.925781 0-17.628906 14.292969-31.921875 31.921875-31.921875 17.632813 0 31.925781 14.292969 31.925781 31.921875zm0 0" fill="#e41753"/><path d="m355.757812 144c0 17.628906-14.289062 31.921875-31.921874 31.921875-1.578126 0-3.140626-.121094-4.660157-.34375 15.429688-2.25 27.269531-15.527344 27.269531-31.578125s-11.839843-29.339844-27.269531-31.589844c1.519531-.21875 3.082031-.339844 4.660157-.339844 17.632812 0 31.921874 14.300782 31.921874 31.929688zm0 0" fill="#f93d6e"/><path d="m220.078125 144c0 17.628906-14.289063 31.921875-31.917969 31.921875-1.582031 0-3.140625-.121094-4.660156-.34375 15.429688-2.25 27.269531-15.527344 27.269531-31.578125s-11.839843-29.339844-27.269531-31.589844c1.519531-.21875 3.078125-.339844 4.660156-.339844 17.628906 0 31.917969 14.300782 31.917969 31.929688zm0 0" fill="#f93d6e"/><path d="m469.09375 177.019531c-141.6875 14.6875-284.511719 14.6875-426.199219 0-7.328125-.761719-13.695312 5.007813-13.695312 12.375v.253907c0 6.359374 4.792969 11.710937 11.117187 12.375 143.390625 15.046874 287.964844 15.046874 431.355469 0 6.324219-.664063 11.113281-6.015626 11.113281-12.375 0-.085938 0-.167969 0-.253907.003906-7.367187-6.363281-13.132812-13.691406-12.375zm0 0" fill="#2f373b"/><path d="m255.996094 307.484375s-27.492188-20.746094-55.152344-10.371094c-27.664062 10.371094-39.65625 46.679688-63.96875 46.679688 0 0 88.707031 16.230469 119.121094-36.308594zm0 0" fill="#bd5423"/><path d="m255.996094 307.484375s27.488281-20.746094 55.152344-10.371094c27.660156 10.371094 39.652343 46.679688 63.964843 46.679688 0 0-88.707031 16.230469-119.117187-36.308594zm0 0" fill="#d9723e"/><g fill="#181e21"><path d="m255.988281 468.109375-26.164062-3.273437c-25.527344-3.195313-44.679688-24.898438-44.679688-50.621094v-27.242188l31.183594 15.589844c11.875 5.941406 21.070313 16.144531 25.746094 28.570312zm0 0"/><path d="m255.988281 468.109375 26.160157-3.273437c25.527343-3.195313 44.683593-24.898438 44.683593-50.621094v-27.242188l-31.1875 15.589844c-11.875 5.941406-21.070312 16.144531-25.746093 28.570312zm0 0"/></g></svg>