<svg id="Capa_1" enable-background="new 0 0 512 512" height="512" viewBox="0 0 512 512" width="512" xmlns="http://www.w3.org/2000/svg"><g><path d="m0 256c0-141.288 114.459-255.843 255.71-256 139.806-.155 254.506 112.902 256.269 252.697 1.038 82.32-36.784 155.847-96.278 203.394-2.953 2.36-7.118 2.442-10.185.231-42.065-30.316-93.704-48.176-149.516-48.176-55.818 0-107.463 17.864-149.53 48.187-3.058 2.204-7.211 2.123-10.157-.23-58.705-46.91-96.313-119.115-96.313-200.103z" fill="#ffc14f"/><path d="m256 33.991c111.558 0 201.994 90.436 201.994 201.994s-90.436 201.994-201.994 201.994-201.994-90.436-201.994-201.994 90.436-201.994 201.994-201.994z" fill="#ffcd71"/><path d="m369.241 353.504h-226.482c-7.364 0-13.333-5.97-13.333-13.333v-182.629c0-69.905 56.669-126.574 126.574-126.574 69.905 0 126.574 56.669 126.574 126.574v182.628c0 7.365-5.969 13.334-13.333 13.334z" fill="#784132"/><path d="m209.123 376.617h-15v-94.468h15zm101.877-94.468h-15v94.468h15zm30.629-47.915h-15v142.383h15zm31.871 0h-15v142.383h15zm-184.167 119.27h-46.574c-7.364 0-13.333-5.97-13.333-13.333v-182.629c0-69.905 56.669-126.574 126.574-126.574 7.955 0 15.739.734 23.287 2.138-58.782 10.932-103.287 62.487-103.287 124.436v182.628c0 7.365 5.97 13.334 13.333 13.334z" fill="#61362b"/><path d="m166 334.844h40c-38.66 0-70 31.34-70 70v66.283c0 5.002-5.44 8.142-9.749 5.604-10.596-6.242-20.704-13.226-30.251-20.879v-51.008c0-38.66 31.34-70 70-70z" fill="#a65d4e"/><path d="m416 404.844v51.008c-19.935 15.98-42.312 29.039-66.483 38.529-6.395-1.924-13.176-2.958-20.198-2.958h-150c-6.311 0-12.427.835-18.244 2.401-12.181-4.866-23.901-10.641-35.076-17.241v-71.738c0-38.66 31.34-70 70-70h150c38.661-.001 70.001 31.339 70.001 69.999z" fill="#b46e5a"/><path d="m355.678 430.314v61.554c-4.646 1.966-9.363 3.798-14.144 5.493-.416.147-.856-.164-.856-.605v-66.756c0-4.219 3.483-7.624 7.731-7.497 4.105.124 7.269 3.705 7.269 7.811zm-192.087-7.811c-4.105.123-7.269 3.704-7.269 7.811v61.554c4.624 1.956 9.317 3.78 14.074 5.468.45.16.926-.177.926-.655v-66.681c0-4.219-3.484-7.624-7.731-7.497z" fill="#a65d4e"/><path d="m341.629 334.844v162.484c-4.932 1.75-9.934 3.353-15 4.804-.452.13-1.033.033-1.675-.208-4.159-1.559-8.78-.423-12.006 2.63-.906.858-1.799 1.492-2.57 1.658-4.948 1.07-9.95 1.998-15 2.777-.322.05-.682-.038-1.068-.231-4.491-2.248-9.97-1.894-13.742 1.421-.525.462-1.016.751-1.441.789-4.961.444-9.962.747-15 .904-.385.012-.827-.18-1.3-.517-4.014-2.862-9.458-2.575-13.569.147-.379.251-.733.39-1.049.38-5.151-.154-10.264-.46-15.334-.914-.481-.043-1.039-.362-1.637-.865-3.881-3.269-9.209-3.58-13.742-1.301-.313.158-.607.228-.872.187-5.05-.78-10.052-1.707-15-2.777-.511-.111-1.116-.596-1.762-1.311-3.304-3.659-8.716-5.001-13.2-2.953-.47.215-.907.293-1.289.183-5.066-1.451-10.068-3.054-15-4.804v-162.483h35.627c-.007 0-.013 0-.02 0z" fill="#fff36c"/><path d="m279.126 334.844h16.252v174.145c-5.364.828-10.783 1.49-16.252 1.979zm47.503 0h-16.252v171.368c5.485-1.186 10.904-2.549 16.252-4.08zm-125.006 171.368v-171.368h-16.252v167.288c5.348 1.532 10.767 2.894 16.252 4.08zm62.503-171.368h-16.252v177.029c2.698.084 5.407.127 8.126.127s5.427-.043 8.126-.127zm-31.252 0h-16.252v174.145c5.364.828 10.783 1.49 16.252 1.979z" fill="#fff68e"/><path d="m256 390.66c-24.818 0-44.936-20.119-44.936-44.936v-10.879h89.872v10.879c0 24.817-20.118 44.936-44.936 44.936z" fill="#ffc14f"/><path d="m146 244.844c-13.807 0-25-11.193-25-25v-10c0-13.807 11.193-25 25-25 13.807 0 25 11.193 25 25v10c0 13.807-11.193 25-25 25z" fill="#c38778"/><path d="m136 204.844v20c0 8.178 3.927 15.439 9.998 20-13.806-.001-24.998-11.194-24.998-25v-10c0-13.806 11.192-24.999 24.998-25-6.071 4.561-9.998 11.822-9.998 20zm230-20v-20c0-60.751-49.249-110-110-110-60.751 0-110 49.249-110 110v40c0 50.351 33.83 92.8 80 105.859v34.141c0 16.569 13.431 30 30 30s30-13.431 30-30v-34.141c33.586-9.499 60.641-34.551 72.895-66.883 2.252.666 4.637 1.024 7.105 1.024 13.807 0 25-11.193 25-25v-10c0-13.807-11.193-25-25-25z" fill="#b46e5a"/><path d="m366 164.844v40c0 50.792-34.425 93.543-81.216 106.195-9.023 2.44-18.545 2.44-27.568 0-46.791-12.652-81.216-55.403-81.216-106.195v-40c0-55.663 41.345-101.669 95-108.985 53.655 7.316 95 53.322 95 108.985z" fill="#c38778"/><path d="m241.5 211.576c-2.929-2.93-2.929-7.678 0-10.607 2.929-2.928 7.678-2.928 10.606 0 1.042 1.042 2.424 1.616 3.893 1.616s2.851-.574 3.893-1.616c2.929-2.928 7.678-2.928 10.606 0 2.929 2.93 2.929 7.678 0 10.607-3.875 3.875-9.024 6.009-14.5 6.009s-10.623-2.134-14.498-6.009z" fill="#915041"/><path d="m223.5 172.344c0 8.284-6.716 15-15 15s-15-6.716-15-15 6.716-15 15-15 15 6.716 15 15zm80-15c-8.284 0-15 6.716-15 15s6.716 15 15 15 15-6.716 15-15-6.716-15-15-15z" fill="#19305c"/><path d="m226 164.844c0 4.142-3.358 7.5-7.5 7.5s-7.5-3.358-7.5-7.5 3.358-7.5 7.5-7.5 7.5 3.358 7.5 7.5zm87.5-7.5c-4.142 0-7.5 3.358-7.5 7.5s3.358 7.5 7.5 7.5 7.5-3.358 7.5-7.5-3.358-7.5-7.5-7.5z" fill="#fff5f5"/><path d="m256 274.844c-16.569 0-30-13.431-30-30 0-4.142 3.358-7.5 7.5-7.5h45c4.142 0 7.5 3.358 7.5 7.5 0 16.569-13.431 30-30 30z" fill="#fff5f5"/><path d="m263.5 273.899c-2.397.617-4.91.945-7.5.945-16.568 0-30-13.431-30-30 0-4.142 3.358-7.5 7.5-7.5h15c-4.142 0-7.5 3.358-7.5 7.5 0 13.979 9.561 25.725 22.5 29.055z" fill="#def4f8"/><path d="m223.847 339.535c-2.653 0-5.225-1.411-6.587-3.903-.179-.327-.355-.655-.529-.986-1.929-3.666-.522-8.201 3.143-10.13s8.201-.522 10.13 3.143c.137.261.276.52.417.777 1.987 3.634.652 8.191-2.982 10.179-1.143.623-2.376.92-3.592.92zm40.99 18.859c.82-.196 1.647-.421 2.458-.67 3.96-1.212 6.188-5.406 4.976-9.367-1.212-3.96-5.402-6.189-9.367-4.976-.515.158-1.035.299-1.559.425-4.028.964-6.513 5.011-5.548 9.04.824 3.442 3.897 5.756 7.288 5.756.578 0 1.165-.067 1.752-.208z" fill="#20b7a1"/><path d="m277.814 351.034c-2.11 0-4.208-.886-5.692-2.612-2.7-3.142-2.341-7.876.801-10.576.435-.374.862-.759 1.283-1.156 3.011-2.846 7.758-2.711 10.602.299 2.845 3.01 2.711 7.757-.299 10.602-.593.561-1.197 1.105-1.81 1.632-1.415 1.216-3.154 1.811-4.885 1.811zm-43.553.206c-1.731 0-3.472-.596-4.888-1.814-.613-.528-1.216-1.072-1.81-1.633-3.009-2.847-3.141-7.594-.294-10.603 2.846-3.009 7.593-3.141 10.603-.294.42.398.848.784 1.283 1.158 3.14 2.702 3.496 7.437.795 10.577-1.483 1.724-3.579 2.609-5.689 2.609z" fill="#fb5858"/><path d="m248.99 358.603c-.58 0-1.168-.068-1.757-.209-.822-.198-1.648-.423-2.454-.67-3.96-1.213-6.188-5.407-4.974-9.368 1.213-3.96 5.405-6.19 9.368-4.974.516.158 1.037.3 1.562.426 4.028.967 6.509 5.016 5.542 9.043-.827 3.44-3.9 5.752-7.287 5.752zm45.751-22.972c.179-.327.355-.655.529-.986 1.929-3.666.522-8.201-3.143-10.13-3.667-1.929-8.201-.522-10.13 3.143-.137.261-.276.52-.417.777-1.987 3.634-.652 8.191 2.982 10.179 1.142.625 2.375.921 3.591.921 2.653 0 5.225-1.411 6.588-3.904z" fill="#fffac1"/><path d="m142.759 393.592c-7.364 0-13.333-5.97-13.333-13.333v-64.672c0-7.364 5.97-13.333 13.333-13.333 7.364 0 13.333 5.97 13.333 13.333v64.672c0 7.364-5.969 13.333-13.333 13.333zm53.908-305.66v28.454c0 7.364-5.97 13.333-13.333 13.333-7.364 0-13.333-5.97-13.333-13.333v-28.454c0-7.364 5.97-13.333 13.333-13.333 7.363 0 13.333 5.969 13.333 13.333z" fill="#61362b"/><path d="m268.333 93.053v33.333c0 7.364-5.969 13.333-13.333 13.333s-13.333-5.97-13.333-13.333v-33.333c0-7.364 5.969-13.333 13.333-13.333s13.333 5.969 13.333 13.333zm-49.166-13.333c-7.364 0-13.333 5.97-13.333 13.333v23.333c0 7.364 5.97 13.333 13.333 13.333 7.364 0 13.333-5.97 13.333-13.333v-23.333c0-7.364-5.97-13.333-13.333-13.333zm107.5-29.185c-7.364 0-13.333 5.97-13.333 13.333v143.767c0 7.364 5.97 13.333 13.333 13.333 7.364 0 13.333-5.97 13.333-13.333v-143.767c0-7.364-5.97-13.333-13.333-13.333zm-35.834 29.185c-7.364 0-13.333 5.97-13.333 13.333v23.333c0 7.364 5.97 13.333 13.333 13.333 7.364 0 13.333-5.97 13.333-13.333v-23.333c.001-7.364-5.969-13.333-13.333-13.333z" fill="#784132"/><path d="m367.318 66.182c1.745 5.874 2.682 12.096 2.682 18.537 0 .185-.001.369-.002.554-.051 6.087-4.299 11.356-10.228 12.734-32.759 7.61-67.616 11.713-103.769 11.713-36.914 0-72.478-4.277-105.836-12.198-5.89-1.399-10.154-6.641-10.164-12.695 0-.036 0-.071 0-.107 0-6.614.988-12.997 2.824-19.009.173-.567 74.472 8.889 113.476 8.889 38.122-.001 110.848-8.989 111.017-8.418z" fill="#fb5858"/><path d="m189.862 105.047c-13.53-1.938-26.78-4.458-39.698-7.526-5.89-1.399-10.154-6.641-10.164-12.695 0-.036 0-.071 0-.107 0-6.614.988-12.997 2.824-19.009.1-.327 24.78 2.67 53.146 5.271-2.972 11.011-5.036 22.395-6.108 34.066z" fill="#c83c50"/><path d="m352.271 40.105c5.328 5.643 1.66 14.96-6.066 15.7-29.227 2.797-59.028 4.24-89.284 4.24-31.464 0-62.436-1.56-92.782-4.582-7.89-.786-11.324-10.301-5.804-15.993 11.815-12.18 28.356-19.75 46.665-19.75h37.344l-3.344-3.344c-2.904-2.904-3.198-7.674-.383-10.663 2.913-3.094 7.784-3.149 10.767-.166l14.173 14.173h41.443c18.625 0 35.421 7.833 47.271 20.385z" fill="#20b7a1"/><path d="m199.841 58.321c-11.99-.727-23.893-1.682-35.701-2.858-7.89-.786-11.324-10.301-5.804-15.993 11.814-12.18 28.355-19.75 46.664-19.75h12.823c-7.284 12.099-13.336 25.024-17.982 38.601z" fill="#199a8e"/><path d="m351.934 39.751c7.06 7.366 12.402 16.391 15.384 26.431-34.933 8.777-72.374 13.538-111.318 13.538-39.635 0-77.713-4.932-113.176-14.009 3.058-10.013 8.468-19 15.587-26.316 30.95 6.719 63.7 10.325 97.589 10.325 33.285 0 65.472-3.479 95.934-9.969z" fill="#fff68e"/><path d="m194.752 75.72c-17.819-2.355-35.166-5.719-51.929-10.01 3.058-10.013 8.468-19 15.587-26.316 14.858 3.226 30.132 5.734 45.746 7.47-3.827 9.291-6.982 18.93-9.404 28.856z" fill="#fff36c"/></g></svg>