<svg id="Capa_1" enable-background="new 0 0 512 512" height="512" viewBox="0 0 512 512" width="512" xmlns="http://www.w3.org/2000/svg"><g><g><path d="m456.969 407.139c27.744-39.712 44.031-88.02 44.031-140.139 0-135.31-109.69-245-245-245s-245 109.69-245 245c0 52.119 16.287 100.427 44.031 140.139z" fill="#ffdd40"/></g><g><circle cx="256" cy="242" fill="#ffc839" r="200"/></g><g><path d="m111.728 259.159c-8.529 0-14.025-8.833-10.485-16.592 11.072-24.268 11.538-57.146 11.556-98.995-.026-1.192-.043-2.386-.043-3.586 0-65.817 39.225-119.173 87.612-119.173v149.705c0 48.956-39.685 88.641-88.64 88.641z" fill="#e80054"/></g><g><path d="m434.219 403v-45.187c-.67-.934-1.335-1.802-1.992-2.585-.904-1.078-1.795-2.019-2.668-2.79-6.623-5.848-19.39-11.382-34.352-16.323-37.929-12.525-89.967-21.232-91.82-21.54h-94.772c-1.853.307-53.892 9.014-91.82 21.54-14.961 4.941-27.729 10.475-34.352 16.323-.874.772-1.765 1.712-2.668 2.79-.657.784-1.321 1.651-1.992 2.585v45.187l-16.591 12.552c11.988 15.692 25.827 29.892 41.192 42.278h307.235c15.365-12.386 29.204-26.586 41.192-42.278z" fill="#fcad6d"/></g><g><path d="m181.159 395.255c-7.588-20.983-11.96-45.066-12.65-72.83l-.001-.001c-16.432 3.612-35.38 8.297-51.714 13.691-14.961 4.941-27.729 10.475-34.352 16.323-.874.772-1.765 1.712-2.668 2.79-.657.784-1.321 1.651-1.992 2.585v45.187l-16.591 12.552c11.988 15.692 25.827 29.892 41.192 42.278h118.606c-17.282-17.15-30.825-37.676-39.83-62.575z" fill="#fd995b"/></g><g><path d="m391.147 471.33c6.374-4.223 12.555-8.713 18.491-13.499-4.027-11.7-11.689-21.884-21.736-29.06v42.559z" fill="#fd995b"/></g><g><path d="m124.098 471.33v-42.559c-10.047 7.176-17.708 17.36-21.736 29.06 5.936 4.786 12.117 9.277 18.491 13.499z" fill="#ef854b"/></g><g><path d="m456.949 407.139c-7.554-20.78-15.509-39.265-22.73-49.326-116.38 40.544-240.058 40.544-356.438.001-7.221 10.061-15.176 28.546-22.73 49.325 0 .003 0 .006-.001.009.883 1.264 1.771 2.523 2.677 3.769.099.136.201.27.3.406.911 1.247 1.835 2.485 2.769 3.714.131.173.264.344.396.516 127.13 43.512 262.488 43.511 389.617-.002.132-.173.265-.344.397-.517.932-1.227 1.855-2.463 2.764-3.708.101-.138.204-.274.305-.412.905-1.245 1.792-2.504 2.675-3.767-.001-.002-.001-.005-.001-.008z" fill="#5c45bf"/></g><g><path d="m206.588 446.128c-14.532-2.116-25.694-14.624-25.694-29.743 0-16.603 13.46-30.063 30.063-30.063.014 0 .027.001.041.001-44.918-3.802-89.578-13.314-133.213-28.514-7.222 10.06-15.178 28.548-22.733 49.33 0 .003 0 .006-.001.009.883 1.264 1.771 2.523 2.677 3.769.099.136.201.27.3.406.911 1.247 1.835 2.485 2.769 3.714.131.173.264.344.396.516 47.599 16.293 96.352 26.484 145.395 30.575z" fill="#4432ad"/></g><g><path d="m379.202 415.644.017-.006c-.05-.05-.099-.098-.149-.148-1.882-2.145-3.921-4.152-6.097-6.012-35.607-34.723-69.588-61.613-69.588-94.903h-94.772c0 33.29-33.981 60.18-69.588 94.903-2.176 1.86-4.215 3.867-6.097 6.012-.05.05-.099.098-.149.148l.017.006c-11.756 13.487-17.434 32.166-13.151 51.388.604 2.713 1.146 4.246 1.165 4.298v.009c38.75 25.687 85.218 40.661 135.19 40.661 49.971 0 96.439-14.974 135.187-40.661l.001-.009c.019-.052.56-1.586 1.165-4.298 4.283-19.222-1.395-37.901-13.151-51.388z" fill="#7255ce"/></g><g><path d="m301.031 507.862c-56.84-22.966-99.707-56.85-119.872-112.606-2.368-6.548-4.422-13.398-6.15-20.567-10.814 11.031-23.29 22.412-35.983 34.789-2.176 1.86-4.215 3.867-6.097 6.012-.05.05-.099.098-.149.148l.017.006c-11.756 13.487-17.434 32.166-13.151 51.388.604 2.713 1.146 4.246 1.165 4.298v.009c38.749 25.687 85.217 40.661 135.189 40.661 15.384 0 30.434-1.424 45.031-4.138z" fill="#5c45bf"/></g><g><path d="m256 334.663c-2.599 0-5.097-.075-7.5-.213v177.423c2.492.076 4.99.127 7.5.127s5.008-.051 7.5-.127v-177.423c-2.403.138-4.901.213-7.5.213z" fill="#4432ad"/></g><g><path d="m208.614 221.239v93.336s19.021 33.261 47.17 33.261c.073 0 .143-.005.216-.005 28.031-.103 47.386-33.256 47.386-33.256v-93.336z" fill="#fcad6d"/></g><g><path d="m208.614 220.734v93.841c94.723 0 94.772-53.4 94.772-53.4v-40.44h-94.772z" fill="#fd995b"/></g><g><path d="m256 0c-58.062 0-105.13 55.663-105.13 133.078v7.941c0 6.452 5.231 11.683 11.683 11.683 6.452 0 11.683-5.231 11.683-11.683v-7.941h.058c1.546-58.166 37.532-89.597 81.706-89.597s80.16 31.431 81.706 89.597h.058v7.941c0 6.452 5.231 11.683 11.683 11.683 6.452 0 11.683-5.231 11.683-11.683v-7.941c0-77.415-47.068-133.078-105.13-133.078z" fill="#e9efff"/></g><g><path d="m230.53 3.713c-45.754 13.635-79.66 63.662-79.66 129.366v7.941c0 6.452 5.231 11.683 11.683 11.683 6.452 0 11.683-5.231 11.683-11.683v-7.941h.058c1.341-50.444 28.59-80.763 64.613-87.929v-7.29c-9.999 0-18.105-8.106-18.105-18.105-.001-6.975 3.949-13.018 9.728-16.042z" fill="#dae2fe"/></g><g><path d="m180.942 159.567s-10.385-25.285-28.897-19.415.448 60.664 36.573 64.116z" fill="#fd995b"/></g><g><path d="m331.058 159.567s10.385-25.285 28.897-19.415-.448 60.664-36.573 64.116z" fill="#fcad6d"/></g><g><path d="m256 35.87c-48.379 0-87.597 46.38-87.597 110.885 0 1.453.02 2.912.059 4.376h175.075c.039-1.464.059-2.923.059-4.376.001-64.505-39.217-110.885-87.596-110.885z" fill="#ff596e"/></g><g><path d="m231 143.063c-15.445-18.828-28.468-78.191 7.907-105.203-40.195 9.497-70.504 52.189-70.504 108.894 0 1.453.02 2.912.059 4.376h62.538z" fill="#ff4155"/></g><g><path d="m343.511 151.082-27.855-62.386s-1.298 31.537-12.146 54.367h-10.872c-.71-4.248-2.616-13.346-6.82-20.829 0 0-1.644 12.113-8.877 20.829h-68.491c-10.848-22.83-12.146-54.367-12.146-54.367l-27.836 62.39c1.695 63.51 40.232 135.824 87.532 135.824 47.301 0 85.839-72.316 87.532-135.828z" fill="#f9ba8f"/></g><g><path d="m208.403 146.754c0-1.24.031-2.465.06-3.691h-.013c-10.848-22.83-12.146-54.367-12.146-54.367l-27.836 62.39c1.695 63.51 40.232 135.824 87.532 135.824 6.881 0 13.576-1.535 20-4.346-38.741-16.953-67.597-80.48-67.597-135.81z" fill="#fcad6d"/></g><g><g><path d="m242.013 192.447 8.436-13.441c2.569-4.093 8.533-4.093 11.102 0l8.436 13.441c2.739 4.365-.398 10.038-5.551 10.038h-16.871c-5.154-.001-8.291-5.674-5.552-10.038z" fill="#fd995b"/></g></g><g><g><path d="m235.384 240.87h41.233c4.111-3.622 7.258-8.309 9.01-13.631 1.584-4.811-2.069-9.754-7.134-9.754h-44.985c-5.065 0-8.718 4.943-7.134 9.754 1.752 5.322 4.899 10.009 9.01 13.631z" fill="#162544"/></g><g><path d="m276.616 240.87c-5.493 4.849-12.714 7.798-20.616 7.798s-15.124-2.948-20.616-7.798c5.5-4.849 12.714-7.798 20.616-7.798s15.116 2.949 20.616 7.798z" fill="#ff4155"/></g></g><g><path d="m310.999 162.085c.043-3.495-1.371-7.004-4.242-9.539-4.675-4.128-11.84-4.128-16.515 0-2.871 2.535-4.284 6.044-4.242 9.539.055 4.538 5.629 6.716 8.838 3.507 2.022-2.022 5.3-2.022 7.322 0 3.21 3.21 8.784 1.032 8.839-3.507z" fill="#162544"/></g><g><path d="m201.001 162.085c-.043-3.495 1.371-7.004 4.242-9.539 4.675-4.128 11.84-4.128 16.515 0 2.871 2.535 4.284 6.044 4.242 9.539-.055 4.538-5.629 6.716-8.838 3.507-2.022-2.022-5.3-2.022-7.322 0-3.21 3.21-8.784 1.032-8.839-3.507z" fill="#162544"/></g><g><path d="m303.386 299.609-47.386 48.222s18.328 33.146 30.188 33.146c7.034 0 17.106-22.384 24.137-40.597 5.342-13.84 2.694-29.488-6.939-40.771z" fill="#e9efff"/></g><g><path d="m208.614 299.609 47.386 48.222s-18.328 33.146-30.188 33.146c-7.034 0-17.106-22.384-24.137-40.597-5.342-13.84-2.694-29.488 6.939-40.771z" fill="#e9efff"/></g><g><path d="m223.5 134.968h-20c-4.142 0-7.5-3.358-7.5-7.5 0-4.142 3.358-7.5 7.5-7.5h20c4.142 0 7.5 3.358 7.5 7.5 0 4.142-3.358 7.5-7.5 7.5z" fill="#e80054"/></g><g><path d="m308.5 134.968h-20c-4.142 0-7.5-3.358-7.5-7.5 0-4.142 3.358-7.5 7.5-7.5h20c4.142 0 7.5 3.358 7.5 7.5 0 4.142-3.358 7.5-7.5 7.5z" fill="#e80054"/></g></g></svg>