<svg id="Capa_1" enable-background="new 0 0 512 512" height="512" viewBox="0 0 512 512" width="512" xmlns="http://www.w3.org/2000/svg"><g><path d="m480.133 417.664c0-27.08-17.104-51.156-42.568-60.117l-47.794-15.849-37.981 68.888-32.055 101.414h160.398z" fill="#198080"/><path d="m74.435 357.547c-25.464 8.961-42.568 33.037-42.568 60.117v94.336h160.398l-32.055-102.261-37.981-68.04z" fill="#24b3b3"/><path d="m389.77 341.699-55.148-18.288h-58.622l10 188.589h33.735z" fill="#cfcfe6"/><path d="m246 323.411 10 188.589h30v-188.589z" fill="#ece6f2"/><path d="m216 323.411 10 188.589h30v-188.589z" fill="#fff5f5"/><path d="m177.378 323.411-55.149 18.288 70.036 170.301h33.735v-188.589z" fill="#ece6f2"/><path d="m430.243 222.91-14.906-60.034v-3.54c-.001-87.999-71.338-159.336-159.337-159.336l-10 128.096 10 195.315h78.622l27.167 86.328c142.382-34.913 68.454-186.829 68.454-186.829z" fill="#5b362a"/><path d="m256 0c-87.999 0-159.336 71.337-159.336 159.336v3.54l-14.907 60.034s-73.929 151.916 68.454 186.829l27.167-86.328h78.622z" fill="#895140"/><path d="m383.469 162.876h31.867c17.6 0 31.868 14.268 31.868 31.868 0 17.6-14.268 31.868-31.868 31.868h-41.915z" fill="#c78f2c"/><path d="m138.579 226.611h-41.915c-17.6 0-31.868-14.268-31.868-31.868 0-17.6 14.268-31.868 31.868-31.868h31.867z" fill="#e1bb78"/><path d="m383.421 162.876c-20.393 0-47.792-2.592-81.437-7.702-16.972-2.579-32.479-11.179-43.665-24.215-.802-.934-1.57-1.892-2.319-2.863l-10 79.041 10 143.403c70.399 0 127.469-57.07 127.469-127.469v-60.195z" fill="#e1bb78"/><path d="m255.988 128.082c-.753.975-1.525 1.938-2.331 2.878-11.187 13.036-26.693 21.636-43.665 24.215-33.645 5.11-61.044 7.702-81.437 7.702h-.025v60.195c0 70.399 57.07 127.469 127.469 127.469v-222.445c-.003-.005-.007-.009-.011-.014z" fill="#edd7b0"/><path d="m295.834 192.137h31.867v30h-31.867z" fill="#180a33"/><path d="m184.299 192.137h31.867v30h-31.867z" fill="#332866"/></g></svg>