<svg height="512pt" viewBox="0 0 512 512" width="512pt" xmlns="http://www.w3.org/2000/svg"><path d="m512 256c0 41.570312-9.910156 80.828125-27.5 115.539062-42.21875 83.339844-128.691406 140.460938-228.5 140.460938-99.800781 0-186.269531-57.121094-228.488281-140.449219-17.601563-34.710937-27.511719-73.972656-27.511719-115.550781s9.910156-80.839844 27.511719-115.550781c42.21875-83.328125 128.6875-140.449219 228.488281-140.449219 99.808594 0 186.28125 57.121094 228.5 140.460938 17.589844 34.710937 27.5 73.96875 27.5 115.539062zm0 0" fill="#40b4d3"/><path d="m424.417969 189.542969-23.277344 74.488281-9.980469-96.433594" fill="#181e21"/><path d="m158.789062 382.878906c-16.910156 7.371094-35.578124 11.449219-55.199218 11.449219-28.101563 0-54.261719-8.378906-76.078125-22.777344-17.601563-34.710937-27.511719-73.972656-27.511719-115.550781s9.910156-80.839844 27.511719-115.550781c21.816406-14.398438 47.976562-22.777344 76.078125-22.777344 19.621094 0 38.289062 4.089844 55.199218 11.449219-48.929687 21.320312-83.140624 70.097656-83.140624 126.878906 0 56.769531 34.210937 105.558594 83.140624 126.878906zm0 0" fill="#181e21"/><path d="m512 256c0 41.570312-9.910156 80.828125-27.5 115.539062-21.828125 14.410157-47.988281 22.789063-76.101562 22.789063-19.617188 0-38.289063-4.078125-55.199219-11.457031 48.929687-21.3125 83.140625-70.101563 83.140625-126.871094 0-56.78125-34.210938-105.558594-83.140625-126.878906 16.910156-7.359375 35.582031-11.449219 55.199219-11.449219 28.113281 0 54.273437 8.378906 76.101562 22.789063 17.589844 34.710937 27.5 73.96875 27.5 115.539062zm0 0" fill="#2f373b"/><path d="m398.410156 468.761719c-12.339844 8.277343-25.441406 15.519531-39.179687 21.566406-6.558594 2.902344-13.261719 5.523437-20.101563 7.863281-3.320312 1.148438-6.667968 2.21875-10.050781 3.21875-.957031.289063-1.917969.570313-2.878906.839844-.789063.21875-1.578125.441406-2.371094.648438-21.597656 5.941406-44.339844 9.101562-67.828125 9.101562s-46.230469-3.171875-67.839844-9.089844c-.789062-.210937-1.582031-.429687-2.359375-.648437-.972656-.28125-1.941406-.5625-2.902343-.839844-3.378907-1.011719-6.71875-2.082031-10.039063-3.222656-2.820313-.96875-5.621094-1.988281-8.390625-3.058594-.429688-.160156-.859375-.320313-1.289062-.492187-3.507813-1.359376-6.980469-2.808594-10.410157-4.320313-13.738281-6.058594-26.839843-13.289063-39.191406-21.578125 10.390625-14.371094 23.761719-26.429688 39.191406-35.320312 6.371094-3.667969 13.089844-6.78125 20.089844-9.289063 4.21875-1.519531 8.539063-2.8125 12.941406-3.859375.777344-.191406 1.570313-.371094 2.359375-.542969 1.03125-.238281 2.078125-.449219 3.121094-.648437 3.46875-.679688 7-1.199219 10.570312-1.570313 1.027344-.109375 2.046876-.210937 3.089844-.289062 3.378906-.28125 6.796875-.421875 10.257813-.421875h81.589843c4.519532 0 8.972657.242187 13.351563.703125 3.570313.367187 7.089844.898437 10.570313 1.558593 1.050781.199219 2.089843.417969 3.117187.648438.34375.070312.683594.140625 1.023437.222656.449219.117188.910157.207032 1.347657.328125 4.410156 1.058594 8.722656 2.351563 12.929687 3.859375 7.011719 2.511719 13.730469 5.632813 20.101563 9.300782 15.429687 8.898437 28.789062 20.960937 39.179687 35.332031zm0 0" fill="#f9c5ac"/><path d="m215.199219 416.808594c-29.359375 0-49.257813 42.429687-50.730469 78.332031-.429688-.160156-.859375-.320313-1.289062-.492187-3.507813-1.359376-6.980469-2.808594-10.410157-4.320313-13.738281-6.058594-26.839843-13.289063-39.191406-21.578125 10.390625-14.371094 23.761719-26.429688 39.191406-35.320312 10.199219-5.871094 21.300781-10.339844 33.03125-13.148438 1.808594-.441406 3.640625-.839844 5.480469-1.191406 3.46875-.679688 7-1.199219 10.570312-1.570313 1.027344-.109375 2.046876-.210937 3.089844-.289062 3.378906-.28125 6.796875-.421875 10.257813-.421875zm0 0" fill="#efb29a"/><path d="m300.707031 368.539062v54.867188c0 20.089844-13.246093 37.066406-31.488281 42.707031-4.179688 1.296875-8.628906 1.996094-13.230469 1.996094-24.691406 0-44.703125-20.011719-44.703125-44.703125v-54.867188zm0 0" fill="#efb29a"/><path d="m300.707031 419.933594v3.472656c0 20.089844-13.246093 37.066406-31.488281 42.707031-16.460938-5.058593-28.839844-19.371093-31.125-36.882812 2.988281.183593 5.992188.273437 9.007812.273437 8.460938 0 16.75-.671875 24.828126-1.996094 9.953124-1.601562 19.570312-4.160156 28.777343-7.574218zm0 0" fill="#f9c5ac"/><path d="m132.539062 278.152344c0 20.496094-14.972656 37.492187-34.578124 40.648437-2.144532.34375-4.347657.527344-6.597657.527344-22.746093 0-41.171875-18.429687-41.171875-41.175781s18.425782-41.175782 41.171875-41.175782c2.25 0 4.453125.179688 6.597657.527344 19.605468 3.15625 34.578124 20.152344 34.578124 40.648438zm0 0" fill="#f9c5ac"/><path d="m132.539062 278.152344c0 20.496094-14.972656 37.492187-34.578124 40.648437-3.5625-12.953125-5.464844-26.582031-5.464844-40.648437s1.902344-27.695313 5.464844-40.644532c19.605468 3.152344 34.578124 20.148438 34.578124 40.644532zm0 0" fill="#efb29a"/><path d="m106.082031 278.152344c0 8.128906-6.589843 14.714844-14.71875 14.714844-8.125 0-14.714843-6.585938-14.714843-14.714844 0-8.125 6.589843-14.714844 14.714843-14.714844 8.128907 0 14.71875 6.589844 14.71875 14.714844zm0 0" fill="#efb29a"/><path d="m379.449219 278.152344c0 20.496094 14.972656 37.492187 34.578125 40.648437 2.144531.34375 4.347656.527344 6.597656.527344 22.746094 0 41.175781-18.429687 41.175781-41.175781s-18.429687-41.175782-41.175781-41.175782c-2.25 0-4.453125.179688-6.597656.527344-19.605469 3.15625-34.578125 20.152344-34.578125 40.648438zm0 0" fill="#f9c5ac"/><path d="m379.449219 278.152344c0 20.496094 14.972656 37.492187 34.578125 40.648437 3.5625-12.953125 5.464844-26.582031 5.464844-40.648437s-1.902344-27.695313-5.464844-40.644532c-19.605469 3.152344-34.578125 20.148438-34.578125 40.644532zm0 0" fill="#efb29a"/><path d="m435.339844 278.152344c0 8.128906-6.589844 14.714844-14.714844 14.714844-8.128906 0-14.71875-6.585938-14.71875-14.714844 0-8.125 6.589844-14.714844 14.71875-14.714844 8.125 0 14.714844 6.589844 14.714844 14.714844zm0 0" fill="#efb29a"/><path d="m410.695312 256.511719c0 76.984375-56.242187 140.847656-129.871093 152.703125-8.078125 1.328125-16.371094 2-24.828125 2-85.445313 0-154.703125-69.257813-154.703125-154.703125v-157.5h309.402343zm0 0" fill="#f9c5ac"/><path d="m283.242188 408.808594c-.800782.140625-1.609376.28125-2.417969.410156-8.082031 1.320312-16.371094 1.992188-24.832031 1.992188-85.4375 0-154.699219-69.25-154.699219-154.699219v-157.5h54.550781v157.5c0 76.136719 54.980469 139.410156 127.398438 152.296875zm0 0" fill="#efb29a"/><path d="m360.261719 296.496094c0 10.539062-8.542969 19.082031-19.082031 19.082031-10.539063 0-19.082032-8.542969-19.082032-19.082031 0-10.539063 8.542969-19.082032 19.082032-19.082032 10.539062 0 19.082031 8.542969 19.082031 19.082032zm0 0" fill="#efb29a"/><path d="m189.886719 296.496094c0 10.539062-8.542969 19.082031-19.082031 19.082031-10.539063 0-19.082032-8.542969-19.082032-19.082031 0-10.539063 8.542969-19.082032 19.082032-19.082032 10.539062 0 19.082031 8.542969 19.082031 19.082032zm0 0" fill="#efb29a"/><path d="m273.378906 297.921875h-34.757812c-4.140625 0-7.5-3.355469-7.5-7.496094s3.359375-7.496093 7.5-7.496093h34.757812c4.136719 0 7.496094 3.355468 7.496094 7.496093s-3.359375 7.496094-7.496094 7.496094zm0 0" fill="#efb29a"/><path d="m256 345.351562c-12.828125 0-25.65625-3.214843-37.351562-9.640624-3.296876-1.8125-4.5-5.957032-2.6875-9.257813 1.8125-3.296875 5.957031-4.5 9.253906-2.6875 19.277344 10.597656 42.292968 10.597656 61.566406 0 3.296875-1.8125 7.441406-.609375 9.253906 2.6875 1.816406 3.300781.613282 7.445313-2.6875 9.257813-11.691406 6.425781-24.519531 9.640624-37.347656 9.640624zm0 0" fill="#dd9f8a"/><path d="m343.992188 244.328125c0-17.808594-14.433594-32.242187-32.242188-32.242187s-32.242188 14.433593-32.242188 32.242187" fill="#efb29a"/><path d="m333.773438 258.054688c0 12.164062-9.859376 22.023437-22.023438 22.023437s-22.023438-9.859375-22.023438-22.023437c0-12.164063 9.859376-22.023438 22.023438-22.023438s22.023438 9.859375 22.023438 22.023438zm0 0" fill="#2f373b"/><path d="m330.363281 254.167969c0 5.210937-4.222656 9.4375-9.433593 9.4375-5.214844 0-9.4375-4.226563-9.4375-9.4375 0-5.210938 4.222656-9.4375 9.4375-9.4375 5.210937 0 9.433593 4.226562 9.433593 9.4375zm0 0" fill="#fff"/><path d="m232.480469 244.328125c0-17.808594-14.433594-32.242187-32.242188-32.242187-17.808593 0-32.242187 14.433593-32.242187 32.242187" fill="#efb29a"/><path d="m222.261719 258.054688c0 12.164062-9.859375 22.023437-22.023438 22.023437-12.160156 0-22.019531-9.859375-22.019531-22.023437 0-12.164063 9.859375-22.023438 22.019531-22.023438 12.164063 0 22.023438 9.859375 22.023438 22.023438zm0 0" fill="#2f373b"/><path d="m205.207031 279.511719c-1.601562.378906-3.261719.566406-4.96875.566406-12.160156 0-22.019531-9.859375-22.019531-22.027344 0-12.160156 9.859375-22.019531 22.019531-22.019531 1.707031 0 3.367188.199219 4.96875.570312-9.78125 2.25-17.058593 11-17.058593 21.449219 0 10.460938 7.277343 19.210938 17.058593 21.460938zm0 0" fill="#181e21"/><path d="m316.71875 279.511719c-1.601562.378906-3.261719.566406-4.972656.566406-12.160156 0-22.019532-9.859375-22.019532-22.027344 0-12.160156 9.859376-22.019531 22.019532-22.019531 1.710937 0 3.371094.199219 4.972656.570312-9.78125 2.25-17.0625 11-17.0625 21.449219 0 10.460938 7.28125 19.210938 17.0625 21.460938zm0 0" fill="#181e21"/><path d="m218.855469 254.167969c0 5.210937-4.226563 9.4375-9.4375 9.4375-5.210938 0-9.4375-4.226563-9.4375-9.4375 0-5.210938 4.226562-9.4375 9.4375-9.4375 5.210937 0 9.4375 4.226562 9.4375 9.4375zm0 0" fill="#fff"/><path d="m256 0c-240.246094 0-170.773438 238.1875-170.773438 238.1875h16.066407c0-52.945312 200.085937-61.613281 200.085937-139.175781 0 0 23.101563 90.53125 109.316406 90.53125h13.722657s52.902343-179.5625-168.417969-189.542969zm0 0" fill="#2f373b"/><g fill="#181e21"><path d="m256 0c15.050781.679688 28.820312 2.140625 41.441406 4.28125-121.621094 21.957031-132.632812 123.148438-127.421875 185.019531-37.648437 14.039063-68.71875 28.027344-68.71875 48.890625h-16.070312s-69.46875-238.191406 170.769531-238.191406zm0 0"/><path d="m339.128906 414.691406v83.5c-4.257812 1.46875-8.570312 2.820313-12.929687 4.058594-.789063.21875-1.578125.441406-2.371094.648438v-88.207032zm0 0"/><path d="m188.160156 414.691406v88.21875c-.789062-.210937-1.582031-.429687-2.359375-.648437-4.359375-1.242188-8.671875-2.601563-12.941406-4.0625v-83.507813zm0 0"/><path d="m329.078125 501.410156c-.957031.289063-1.917969.570313-2.878906.839844-.789063.21875-1.578125.441406-2.371094.648438-21.597656 5.941406-44.339844 9.101562-67.828125 9.101562s-46.230469-3.171875-67.839844-9.089844c-.789062-.210937-1.582031-.429687-2.359375-.648437-.972656-.28125-1.941406-.5625-2.902343-.839844 7.640624-8.023437 20.261718-13.25 34.523437-13.25 17.199219 0 31.988281 7.609375 38.566406 18.527344 6.589844-10.917969 21.382813-18.527344 38.582031-18.527344 14.257813 0 26.871094 5.226563 34.507813 13.238281zm0 0"/></g><path d="m87.21875 90.175781c112.042969-11.164062 225.023438-11.164062 337.066406 0 4.230469.421875 7.445313 3.992188 7.445313 8.242188v5.976562c0 4.898438-4.226563 8.710938-9.105469 8.226563-110.945312-10.945313-222.800781-10.945313-333.746094 0-4.875.484375-9.105468-3.328125-9.105468-8.226563v-5.976562c0-4.25 3.214843-7.820313 7.445312-8.242188zm0 0" fill="#f93d6e"/><path d="m117.464844 121.296875c7.03125 24.347656 39.910156 36.238281 73.433594 26.554687 33.527343-9.679687 55.003906-37.269531 47.96875-61.621093l-4.394532-15.222657-121.40625 35.066407zm0 0" fill="#ff931f"/><path d="m234.464844 71c-7.03125-24.347656-39.910156-36.234375-73.433594-26.554688-33.523438 9.683594-55 37.273438-47.964844 61.621094 7.03125 24.351563 39.910156 36.238282 73.433594 26.554688s55-37.269532 47.964844-61.621094zm0 0" fill="#ffbb16"/><path d="m217.894531 75.800781c.480469 1.660157.78125 3.351563.90625 5.046875 1.191407 16.308594-13.710937 33.363282-35.777343 39.738282-22.070313 6.371093-43.757813-.113282-51.445313-14.546876-.796875-1.5-1.445313-3.09375-1.925781-4.753906-5.109375-17.695312 10.496094-37.753906 34.859375-44.792968 24.367187-7.035157 48.273437 1.609374 53.382812 19.308593zm0 0" fill="#ff931f"/><path d="m218.800781 80.847656c1.191407 16.308594-13.710937 33.363282-35.777343 39.738282-22.070313 6.371093-43.757813-.113282-51.445313-14.546876-1.195313-16.320312 13.695313-33.375 35.765625-39.746093 22.066406-6.371094 43.765625.109375 51.457031 14.554687zm0 0" fill="#0084a6"/><path d="m394.535156 121.296875c-7.03125 24.347656-39.910156 36.238281-73.433594 26.554687-33.527343-9.679687-55.003906-37.269531-47.96875-61.621093l4.394532-15.222657 121.40625 35.066407zm0 0" fill="#ff931f"/><path d="m350.96875 44.464844c-33.523438-9.683594-66.402344 2.207031-73.433594 26.554687-7.035156 24.347657 14.441406 51.9375 47.964844 61.621094s66.402344-2.207031 73.433594-26.554687c7.035156-24.347657-14.441406-51.9375-47.964844-61.621094zm0 0" fill="#ffbb16"/><path d="m294.105469 75.800781c-.480469 1.660157-.78125 3.351563-.90625 5.046875-1.191407 16.308594 13.710937 33.363282 35.777343 39.738282 22.070313 6.371093 43.757813-.113282 51.445313-14.546876.796875-1.5 1.445313-3.09375 1.925781-4.753906 5.109375-17.695312-10.496094-37.753906-34.859375-44.792968-24.367187-7.035157-48.273437 1.609374-53.382812 19.308593zm0 0" fill="#ff931f"/><path d="m293.199219 80.847656c-1.191407 16.308594 13.710937 33.363282 35.777343 39.738282 22.070313 6.371093 43.757813-.113282 51.445313-14.546876 1.195313-16.320312-13.695313-33.375-35.765625-39.746093-22.066406-6.371094-43.765625.109375-51.457031 14.554687zm0 0" fill="#0084a6"/></svg>