<svg id="Capa_1" enable-background="new 0 0 512 512" height="512" viewBox="0 0 512 512" width="512" xmlns="http://www.w3.org/2000/svg"><g><g><path d="m456.969 407.139c27.744-39.712 44.031-88.02 44.031-140.139 0-135.31-109.69-245-245-245s-245 109.69-245 245c0 52.119 16.287 100.427 44.031 140.139z" fill="#73c3f9"/></g><g><circle cx="256" cy="242" fill="#4fabf7" r="200"/></g><g><path d="m257.301 23.132s-96.419-20.934-141.948 68.378c-2.895 5.679 3.181 11.732 8.83 8.778 7.547-3.947 16.671 1.107 17.328 9.599l.219 2.829c.504 6.515 9.223 8.341 12.273 2.561 14.456-27.395 45.707-71.785 103.298-92.145z" fill="#2d3c6b"/></g><g><path d="m254.699 23.132s96.419-20.934 141.948 68.378c2.895 5.679-3.181 11.732-8.83 8.778-7.547-3.947-16.671 1.107-17.328 9.599l-.219 2.829c-.504 6.515-9.223 8.341-12.273 2.561-14.455-27.395-45.707-71.785-103.298-92.145z" fill="#3c5082"/></g><g><ellipse cx="256" cy="22" fill="#4b6496" rx="43.951" ry="22"/></g><g><path d="m371.453 226.163c-3.282-28.378-10.31-25.293-10.31-78.944v-20.076c0-58.069-47.074-105.143-105.143-105.143-58.069 0-105.143 47.074-105.143 105.143v20.076c0 53.652-7.028 50.566-10.31 78.944s8.875 54.637 31.092 60.837l-2.53-24.679s6.405 44.191 86.892 44.191 86.892-44.191 86.892-44.191l-2.531 24.679c22.216-6.2 34.373-32.459 31.091-60.837z" fill="#b76c4e"/></g><g><path d="m196 147.259v-54.903c-12.227-18.718-9.47-47.873 15.762-60.616-35.964 16.705-60.905 53.138-60.905 95.403v20.076c0 53.652-7.028 50.566-10.31 78.944s8.875 54.637 31.092 60.837l-2.53-24.679s6.405 44.191 86.892 44.191v-72.935z" fill="#a05838"/></g><g><path d="m256 433.614c124.66 0 176.227-78.386 176.227-78.386-.904-1.078-1.795-2.019-2.668-2.79-6.623-5.848-19.39-11.382-34.352-16.323-37.929-12.525-89.967-21.232-91.82-21.54h-94.772c-1.853.307-53.892 9.014-91.82 21.54-14.961 4.941-27.729 10.475-34.352 16.323-.874.772-1.765 1.712-2.668 2.79-.002 0 51.565 78.386 176.225 78.386z" fill="#f3d6ac"/></g><g><path d="m182.974 400.061c-.624-1.583-1.229-3.185-1.816-4.806-7.588-20.984-11.96-45.066-12.65-72.831l-.001-.001c-16.432 3.612-35.38 8.297-51.714 13.691-14.961 4.941-27.729 10.475-34.352 16.323-.874.772-1.765 1.712-2.668 2.79 0 0 34.916 53.05 116.714 71.861-5.176-8.373-9.701-17.357-13.513-27.027z" fill="#eabe8d"/></g><g><path d="m372.974 409.478c-35.607-34.723-69.588-61.613-69.588-94.903h-94.772c0 33.29-33.981 60.18-69.588 94.903z" fill="#e80054"/></g><g><path d="m187.01 409.478c-1.421-3.067-2.769-6.203-4.036-9.417-.624-1.583-1.229-3.185-1.816-4.806-2.368-6.548-4.422-13.398-6.15-20.567-10.814 11.032-23.291 22.412-35.983 34.789h47.985z" fill="#cc0053"/></g><g><path d="m256.069 322.424c26.898 0 47.317-27.849 47.317-27.849v-73.336h-94.772v73.336s20.556 27.849 47.455 27.849z" fill="#f3d6ac"/></g><g><path d="m229.266 313.633c74.076-7.135 74.12-52.458 74.12-52.458v-40.44h-94.772v73.841c0-.001 8.044 10.896 20.652 19.057z" fill="#eabe8d"/></g><g><path d="m456.951 407.165c-44.286 63.374-117.771 104.835-200.951 104.835s-156.665-41.461-200.951-104.835c.001-.009.001-.017.002-.026 8.256-22.709 16.99-42.685 24.722-51.911 0 0 53.099 51.559 176.227 51.559s176.227-51.559 176.227-51.559c7.732 9.226 16.467 29.203 24.722 51.911.001.009.001.018.002.026z" fill="#ff596e"/></g><g><path d="m301.032 507.865-.001-.003c-55.188-22.299-97.203-54.89-118.057-107.801-.001-.002-.002-.005-.003-.008-71.404-13.97-103.198-44.826-103.198-44.826-7.732 9.226-16.467 29.203-24.722 51.911-.001.009-.001.018-.002.026 44.286 63.375 117.771 104.836 200.951 104.836 15.384 0 30.435-1.422 45.032-4.135z" fill="#ff4155"/></g><g><path d="m120.812 471.33c-.075-.212-8.769-24.824 4.705-53.619 2.512-5.369-4.447-10.154-8.544-5.871-8.577 8.966-17.032 22.169-20.587 41.004 7.736 6.653 15.895 12.828 24.426 18.486z" fill="#e80054"/></g><g><path d="m391.188 471.33c.075-.212 8.769-24.824-4.705-53.619-2.512-5.369 4.447-10.154 8.544-5.871 8.577 8.966 17.032 22.169 20.587 41.004-7.736 6.653-15.895 12.828-24.426 18.486z" fill="#ff4155"/></g><g><path d="m331.058 159.567s10.385-25.285 28.897-19.415-.448 60.664-36.573 64.116z" fill="#f3d6ac"/></g><g><path d="m180.942 159.567s-10.385-25.285-28.897-19.415.448 60.664 36.573 64.116z" fill="#eabe8d"/></g><g><path d="m327.049 124.754c-3.509-10.287-9.219-24.496-16.225-32.717-3.978-3.853-8.145-7.046-12.399-9.103-8.195-3.963-15.758-4.069-22.16-2.497-13.314 3.269-27.216 3.268-40.53 0-6.402-1.572-13.966-1.466-22.16 2.497-4.254 2.057-8.421 5.25-12.399 9.103-7.006 8.221-12.716 22.43-16.225 32.717-2.762 8.097-8.72 14.703-16.484 18.295-.031 1.23-.063 2.46-.063 3.705 0 64.505 39.219 140.155 87.597 140.155s87.597-75.651 87.597-140.155c0-1.245-.032-2.475-.063-3.705-7.766-3.592-13.724-10.198-16.486-18.295z" fill="#f8e6cc"/></g><g><path d="m208.403 146.754c0-25.925 6.339-48.917 17.057-67.152-3.755.312-7.739 1.327-11.885 3.333-4.254 2.057-8.421 5.25-12.399 9.103-7.006 8.221-12.716 22.43-16.225 32.717-2.762 8.097-8.72 14.703-16.484 18.295-.031 1.23-.063 2.46-.063 3.705 0 64.505 39.219 140.155 87.597 140.155 6.881 0 13.576-1.535 20-4.346-38.742-16.953-67.598-80.48-67.598-135.81z" fill="#f3d6ac"/></g><g><g><path d="m242.013 192.951 8.436-13.441c2.569-4.093 8.533-4.093 11.102 0l8.436 13.441c2.739 4.365-.398 10.038-5.551 10.038h-16.871c-5.154 0-8.291-5.673-5.552-10.038z" fill="#f3d6ac"/></g></g><g><g><path d="m235.384 241.375h41.233c4.111-3.622 7.258-8.309 9.01-13.631 1.584-4.811-2.069-9.754-7.134-9.754h-44.985c-5.065 0-8.718 4.943-7.134 9.754 1.752 5.321 4.899 10.009 9.01 13.631z" fill="#162544"/></g><g><path d="m276.616 241.375c-5.493 4.849-12.714 7.798-20.616 7.798s-15.124-2.948-20.616-7.798c5.5-4.849 12.714-7.798 20.616-7.798s15.116 2.948 20.616 7.798z" fill="#ff4155"/></g></g><g><path d="m201.001 162.085c-.043-3.495 1.371-7.004 4.242-9.539 4.675-4.128 11.84-4.128 16.515 0 2.871 2.535 4.284 6.044 4.242 9.539-.055 4.538-5.629 6.716-8.838 3.507-2.022-2.022-5.3-2.022-7.322 0-3.21 3.21-8.784 1.032-8.839-3.507z" fill="#162544"/></g><g><path d="m223.5 138.968h-20c-4.142 0-7.5-3.358-7.5-7.5 0-4.142 3.358-7.5 7.5-7.5h20c4.142 0 7.5 3.358 7.5 7.5 0 4.142-3.358 7.5-7.5 7.5z" fill="#934a2e"/></g><g><path d="m256 308.663c-.073 0-.143.005-.216.005-28.149 0-47.17-14.093-47.17-14.093v20s19.021 20.093 47.17 20.093c.073 0 .143-.005.216-.005 28.031-.103 47.386-20.088 47.386-20.088v-20s-19.355 13.985-47.386 14.088z" fill="#3c5082"/></g><g><path d="m256 308.663c-.073 0-.143.005-.216.005-28.149 0-47.17-14.093-47.17-14.093v20c19.593 0 35.125-2.289 47.455-5.913-.023 0-.046.001-.069.001z" fill="#2d3c6b"/></g><g><circle cx="256" cy="340.663" fill="#e9efff" r="17.5"/></g><g><path d="m308.5 138.968h-20c-4.142 0-7.5-3.358-7.5-7.5 0-4.142 3.358-7.5 7.5-7.5h20c4.142 0 7.5 3.358 7.5 7.5 0 4.142-3.358 7.5-7.5 7.5z" fill="#934a2e"/></g><g><path d="m311.239 162.03c.043-3.495-1.371-7.004-4.242-9.539-4.675-4.128-11.84-4.128-16.515 0-2.871 2.535-4.284 6.044-4.242 9.539.055 4.538 5.629 6.716 8.838 3.507 2.022-2.022 5.3-2.022 7.322 0 3.21 3.209 8.784 1.031 8.839-3.507z" fill="#162544"/></g></g></svg>