<svg id="Capa_1" enable-background="new 0 0 512 512" height="512" viewBox="0 0 512 512" width="512" xmlns="http://www.w3.org/2000/svg"><g><path d="m334.622 291.544 101.831 33.756c26.077 8.644 43.68 33.025 43.68 60.497v126.203h-224.133l-10-109.918z" fill="#e50058"/><path d="m177.378 291.544-101.831 33.756c-26.077 8.644-43.68 33.025-43.68 60.497v126.203h224.133v-109.918z" fill="#ff4a4a"/><path d="m120.274 436.582 135.726-24.5c-.002-.002-78.622-120.537-78.622-120.538-65.786 47.223-57.104 145.038-57.104 145.038z" fill="#ece6f2"/><path d="m391.726 436.582-135.726-24.5c.002-.002 78.622-120.537 78.622-120.538 65.786 47.223 57.104 145.038 57.104 145.038z" fill="#cfcfe6"/><path d="m334.622 291.544c0 .001-8.17 82.338-78.622 120.538l-10-120.538z" fill="#ece6f2"/><path d="m177.378 291.544c0 .001 8.17 82.338 78.622 120.538v-120.538z" fill="#fff5f5"/><path d="m334.622 291.544c0 13.64 1.099 25.205 2.967 35.011 6.823 35.81 51.633 48.569 76.712 22.113l1.417-1.495c20.107-21.211 28.687-51.104 22.014-79.559-11.716-49.959-54.263-76.411-54.263-76.411h-48.847z" fill="#b56d3c"/><path d="m138.531 191.204h-31.867c-17.6 0-31.868-14.268-31.868-31.868 0-17.6 14.268-31.868 31.868-31.868h31.867z" fill="#ffdecf"/><path d="m373.469 191.204h31.867c17.6 0 31.868-14.268 31.868-31.868 0-17.6-14.268-31.868-31.868-31.868h-31.867z" fill="#ffcdbe"/><path d="m246 84.934 10 233.739c70.399 0 127.469-57.07 127.469-127.469v-63.735z" fill="#ffdecf"/><path d="m154.07 50.921c-16.033 21.316-25.539 47.821-25.539 76.548v63.735c0 70.399 57.07 127.469 127.469 127.469v-233.739z" fill="#ffeee5"/><path d="m184.299 160.27h31.867v30h-31.867z" fill="#332866"/><path d="m295.834 160.27h31.867v30h-31.867z" fill="#180a33"/><path d="m383.469 127.469c0-70.399-57.07-127.469-127.469-127.469l-10 52.798 10 52.798c73.134 26.65 127.469 21.873 127.469 21.873z" fill="#b56d3c"/><path d="m256 0c-41.672 0-78.671 19.999-101.93 50.921 35.572 25.958 70.486 43.218 101.93 54.676z" fill="#c78f2c"/></g></svg>