<svg id="Capa_1" enable-background="new 0 0 512 512" height="512" viewBox="0 0 512 512" width="512" xmlns="http://www.w3.org/2000/svg"><g><path d="m0 256c0-141.263 114.418-255.803 255.635-256 140.661-.196 255.755 114.21 256.363 254.87.352 81.551-37.429 154.291-96.537 201.414-5.022 4.003-12.067 4.281-17.407.713-40.645-27.161-89.5-42.997-142.054-42.997s-101.408 15.836-142.053 42.996c-5.341 3.569-12.387 3.289-17.41-.715-58.833-46.905-96.537-119.19-96.537-200.281z" fill="#60c8dd"/><path d="m457.156 256c0 111.095-90.061 201.156-201.156 201.156s-201.156-90.061-201.156-201.156 90.061-201.156 201.156-201.156 201.156 90.061 201.156 201.156z" fill="#7cd2e3"/><path d="m378.692 165.779v209.442c0 65.048-52.731 117.779-117.779 117.779-65.048 0-117.779-52.731-117.779-117.779v-209.442c0-65.048 52.732-117.779 117.779-117.779 65.048 0 117.779 52.731 117.779 117.779z" fill="#274c91"/><path d="m277.214 491.172c-6.891 1.201-13.979 1.828-21.214 1.828-67.761 0-122.692-54.931-122.692-122.692v-199.616c0-67.761 54.931-122.692 122.692-122.692 7.235 0 14.323.627 21.214 1.828-57.65 10.049-101.478 60.338-101.478 120.865v199.615c0 60.526 43.828 110.815 101.478 120.864z" fill="#203e76"/><path d="m166 343.416h43.333c-38.66 0-70 31.34-70 70v55.721c0 6.764-7.358 10.969-13.184 7.533-10.559-6.227-20.632-13.19-30.149-20.819v-42.436c0-38.659 31.34-69.999 70-69.999z" fill="#ffc14f"/><path d="m416 413.416v42.436c-40.779 32.69-91.778 53.157-147.441 55.846-.038.002-.078-.006-.121-.022-2.35-.864-4.688-1.76-7.192-1.747l-7.073.039-10.682 1.724c-.017.004-.033.006-.049.005-42.734-2.064-82.719-14.607-117.441-35.115v-63.167c0-38.66 31.34-70 70-70h150c38.659.001 69.999 31.341 69.999 70.001z" fill="#ffcd71"/><path d="m171.322 477.149v20.514c-5.075-1.778-10.077-3.711-15-5.795v-14.72c0-4.142 3.358-7.5 7.5-7.5s7.5 3.359 7.5 7.501zm176.856-7.5c-4.142 0-7.5 3.358-7.5 7.5v20.514c5.075-1.778 10.077-3.711 15-5.795v-14.72c0-4.141-3.357-7.499-7.5-7.499z" fill="#ffc14f"/><path d="m199.454 342.516c-1.647-6.334 3.134-12.516 9.678-12.516h93.735c6.544 0 11.325 6.182 9.678 12.516l-43.987 169.181c-4.16.201-8.347.303-12.558.303s-8.398-.102-12.559-.303z" fill="#fff79f"/><path d="m262.213 511.926-43.354-171.777c-.977-3.87.308-7.685 2.88-10.149h81.129c6.545 0 11.325 6.182 9.678 12.516l-43.987 169.181c-2.109.102-4.224.178-6.346.229z" fill="#fffac1"/><path d="m146 253.416c-13.807 0-25-11.193-25-25v-10c0-13.807 11.193-25 25-25 13.807 0 25 11.193 25 25v10c0 13.807-11.193 25-25 25z" fill="#f2bb88"/><path d="m136 213.416v20c0 8.178 3.927 15.439 9.998 20-13.806-.001-24.998-11.194-24.998-25v-10c0-13.806 11.192-24.999 24.998-25-6.071 4.561-9.998 11.822-9.998 20zm230-20v-20c0-60.751-49.249-110-110-110-60.751 0-110 49.249-110 110v40c0 50.351 33.83 92.8 80 105.859v30.725c0 16.569 13.431 30 30 30s30-13.431 30-30v-30.725c33.586-9.499 60.641-34.551 72.895-66.883 2.252.666 4.637 1.024 7.105 1.024 13.807 0 25-11.193 25-25v-10c0-13.807-11.193-25-25-25z" fill="#e3a76f"/><path d="m366 173.416v40c0 50.792-34.425 93.543-81.216 106.195-9.023 2.44-18.545 2.44-27.568 0-46.791-12.652-81.216-55.403-81.216-106.195v-40c0-55.663 41.345-101.669 95-108.985 53.655 7.316 95 53.322 95 108.985z" fill="#f2bb88"/><path d="m241.5 220.148c-2.929-2.93-2.929-7.678 0-10.607 2.929-2.928 7.678-2.928 10.606 0 1.042 1.042 2.424 1.616 3.893 1.616s2.851-.574 3.893-1.616c2.929-2.928 7.678-2.928 10.606 0 2.929 2.93 2.929 7.678 0 10.607-3.875 3.875-9.024 6.009-14.5 6.009s-10.623-2.134-14.498-6.009zm44.803 27.6c-2.929-2.928-7.678-2.928-10.606 0-10.861 10.861-28.532 10.861-39.394 0-2.929-2.928-7.678-2.928-10.606 0-2.929 2.93-2.929 7.678 0 10.607 8.354 8.354 19.329 12.531 30.303 12.531s21.949-4.177 30.303-12.531c2.929-2.929 2.929-7.677 0-10.607z" fill="#d6995c"/><path d="m223.5 180.916c0 8.284-6.716 15-15 15s-15-6.716-15-15 6.716-15 15-15 15 6.716 15 15zm80-15c-8.284 0-15 6.716-15 15s6.716 15 15 15 15-6.716 15-15-6.716-15-15-15z" fill="#4c2c21"/><path d="m226 173.416c0 4.142-3.358 7.5-7.5 7.5s-7.5-3.358-7.5-7.5 3.358-7.5 7.5-7.5 7.5 3.358 7.5 7.5zm87.5-7.5c-4.142 0-7.5 3.358-7.5 7.5s3.358 7.5 7.5 7.5 7.5-3.358 7.5-7.5-3.358-7.5-7.5-7.5z" fill="#fff5f5"/><path d="m256 46.381c44.418 0 83.478 22.94 105.979 57.619-22.501 34.679-61.561 57.619-105.979 57.619-32.741 0-62.57-12.464-85.003-32.906-8.001-7.291 26.52-73.317 60.657-79.987 7.877-1.539 16.017-2.345 24.346-2.345z" fill="#274c91"/><path d="m182.573 138.08c-12.864-9.214-23.925-20.784-32.552-34.08 18.514-28.534 48.238-49.12 82.933-55.52-27.813 20.969-46.797 53.026-50.381 89.6z" fill="#203e76"/><path d="m357.889 52.774c14.382-18.9 34.097-31.829 56.496-38.676-.629 23.414-7.835 45.862-22.217 64.761-14.382 18.9-34.097 31.829-56.496 38.676.628-23.414 7.835-45.861 22.217-64.761z" fill="#ffb52d"/><path d="m318.144 64.99c0-23.75 10.165-45.977 27.856-64.99 17.692 19.014 27.856 41.241 27.856 64.99s-10.165 45.977-27.856 64.99c-17.692-19.013-27.856-41.24-27.856-64.99z" fill="#ffcd71"/><path d="m338.572 74.99c0-12.787 2.71-24.754 7.428-34.99 4.718 10.237 7.428 22.204 7.428 34.99s-2.71 24.754-7.428 34.99c-4.718-10.236-7.428-22.203-7.428-34.99z" fill="#ffb52d"/><path d="m179.085 140h-38.085c-5.523 0-10-4.477-10-10v-30c0-5.523 4.477-10 10-10h38.085c5.523 0 10 4.477 10 10v30c0 5.523-4.477 10-10 10z" fill="#c83c50"/><path d="m381 100v30c0 5.523-4.477 10-10 10h-193.418c-5.523 0-10-4.477-10-10v-30c0-5.523 4.477-10 10-10h193.418c5.523 0 10 4.477 10 10z" fill="#fb5858"/><path d="m251.632 113.851c.484.69.484 1.609 0 2.299l-8.138 11.591c-.796 1.134-2.477 1.134-3.274 0l-8.138-11.591c-.484-.69-.484-1.609 0-2.299l8.138-11.591c.796-1.134 2.477-1.134 3.274 0zm-36.424-11.591c-.796-1.134-2.477-1.134-3.274 0l-8.138 11.591c-.484.69-.484 1.609 0 2.299l8.138 11.591c.796 1.134 2.477 1.134 3.274 0l8.138-11.591c.484-.69.484-1.609 0-2.299zm-28.285 0c-.796-1.134-2.477-1.134-3.274 0l-8.138 11.591c-.484.69-.484 1.609 0 2.299l8.138 11.591c.796 1.134 2.477 1.134 3.274 0l8.138-11.591c.484-.69.484-1.609 0-2.299zm-28.286 0c-.796-1.134-2.477-1.134-3.274 0l-8.138 11.591c-.484.69-.484 1.609 0 2.299l8.138 11.591c.796 1.134 2.477 1.134 3.274 0l8.138-11.591c.484-.69.484-1.609 0-2.299zm206.138 11.591-8.138-11.591c-.796-1.134-2.477-1.134-3.274 0l-8.138 11.591c-.484.69-.484 1.609 0 2.299l8.138 11.591c.796 1.134 2.477 1.134 3.274 0l8.138-11.591c.484-.69.484-1.61 0-2.299zm-36.424-11.591c-.796-1.134-2.477-1.134-3.274 0l-8.138 11.591c-.484.69-.484 1.609 0 2.299l8.138 11.591c.796 1.134 2.477 1.134 3.274 0l8.138-11.591c.484-.69.484-1.609 0-2.299zm-28.286 0c-.796-1.134-2.477-1.134-3.274 0l-8.138 11.591c-.484.69-.484 1.609 0 2.299l8.138 11.591c.796 1.134 2.477 1.134 3.274 0l8.138-11.591c.484-.69.484-1.609 0-2.299zm-28.285 0c-.796-1.134-2.477-1.134-3.274 0l-8.138 11.591c-.484.69-.484 1.609 0 2.299l8.138 11.591c.796 1.134 2.477 1.134 3.274 0l8.138-11.591c.484-.69.484-1.609 0-2.299z" fill="#fbb3a8"/><path d="m384.349 410.561-32.997 46.996c-.901 1.284-2.804 1.284-3.705 0l-32.997-46.996c-.548-.781-.548-1.821 0-2.602l32.997-46.996c.901-1.284 2.804-1.284 3.705 0l32.997 46.996c.548.781.548 1.821 0 2.602zm-219.996-49.598c-.901-1.284-2.804-1.284-3.705 0l-32.997 46.996c-.548.781-.548 1.821 0 2.602l32.997 46.996c.901 1.284 2.804 1.284 3.705 0l32.997-46.996c.548-.781.548-1.821 0-2.602z" fill="#fb5858"/><path d="m368.455 410.561-17.102 24.358c-.901 1.284-2.804 1.284-3.705 0l-17.102-24.358c-.548-.781-.548-1.821 0-2.602l17.102-24.358c.901-1.284 2.804-1.284 3.705 0l17.102 24.358c.548.781.548 1.821 0 2.602zm-204.102-26.96c-.901-1.284-2.804-1.284-3.705 0l-17.102 24.358c-.548.781-.548 1.821 0 2.602l17.102 24.358c.901 1.284 2.804 1.284 3.705 0l17.102-24.358c.548-.781.548-1.821 0-2.602z" fill="#b03244"/><path d="m356.534 410.561-5.181 7.379c-.901 1.284-2.804 1.284-3.705 0l-5.181-7.379c-.548-.781-.548-1.821 0-2.602l5.181-7.379c.901-1.284 2.804-1.284 3.705 0l5.181 7.379c.548.781.548 1.821 0 2.602zm-192.181-9.982c-.901-1.284-2.804-1.284-3.705 0l-5.181 7.379c-.548.781-.548 1.821 0 2.602l5.181 7.379c.901 1.284 2.804 1.284 3.705 0l5.181-7.379c.548-.781.548-1.821 0-2.602z" fill="#fffac1"/><path d="m168.458 286.616c0 16.944-9.162 32.803-25.11 46.368-15.947-13.566-25.11-29.424-25.11-46.368s9.162-32.803 25.11-46.368c15.947 13.565 25.11 29.423 25.11 46.368zm225.518 0c0 16.944-9.162 32.803-25.11 46.368-15.947-13.566-25.11-29.424-25.11-46.368s9.162-32.803 25.11-46.368c15.947 13.565 25.11 29.423 25.11 46.368z" fill="#fffac1"/><path d="m150.182 282.148c0 11.764-2.494 22.773-6.834 32.191-4.34-9.418-6.834-20.428-6.834-32.191s2.494-22.773 6.834-32.191c4.34 9.417 6.834 20.427 6.834 32.191zm225.518 0c0 11.764-2.494 22.773-6.834 32.191-4.34-9.418-6.834-20.428-6.834-32.191s2.494-22.773 6.834-32.191c4.34 9.417 6.834 20.427 6.834 32.191z" fill="#ffcd71"/><path d="m155.412 242.373c0 6.663-5.401 12.064-12.064 12.064s-12.064-5.401-12.064-12.064 5.401-12.064 12.064-12.064 12.064 5.402 12.064 12.064zm213.454-12.063c-6.663 0-12.064 5.401-12.064 12.064s5.401 12.064 12.064 12.064 12.064-5.401 12.064-12.064-5.401-12.064-12.064-12.064z" fill="#fb5858"/></g></svg>