<svg height="512pt" viewBox="0 0 512 512" width="512pt" xmlns="http://www.w3.org/2000/svg"><path d="m512 256c0 141.386719-114.613281 256-256 256s-256-114.613281-256-256 114.613281-256 256-256 256 114.613281 256 256zm0 0" fill="#f93d6e"/><path d="m398.410156 468.761719c-12.339844 8.277343-25.4375 15.519531-39.179687 21.566406-10.648438 4.703125-21.679688 8.703125-33.03125 11.921875-9.179688 2.609375-18.558594 4.71875-28.128907 6.300781-6.140624 1.019531-12.347656 1.820313-18.640624 2.390625-7.71875.699219-15.527344 1.058594-23.429688 1.058594-8.058594 0-16.027344-.371094-23.898438-1.109375-6.28125-.582031-12.492187-1.378906-18.628906-2.410156-9.410156-1.570313-18.640625-3.652344-27.671875-6.21875-7.238281-2.0625-14.359375-4.441407-21.328125-7.121094-.433594-.160156-.863281-.320313-1.292968-.492187-3.507813-1.359376-6.980469-2.808594-10.410157-4.320313-13.738281-6.058594-26.839843-13.289063-39.1875-21.578125 10.390625-14.371094 23.757813-26.429688 39.1875-35.320312 10.203125-5.871094 21.300781-10.339844 33.03125-13.148438 1.808594-.441406 3.640625-.839844 5.480469-1.191406 2.378906-.46875 4.78125-.859375 7.210938-1.167969 1.109374-.152344 2.238281-.28125 3.359374-.402344 1.03125-.109375 2.050782-.210937 3.089844-.289062 3.378906-.28125 6.800782-.421875 10.257813-.421875h81.589843c4.523438 0 8.972657.242187 13.351563.703125.980469.097656 1.960937.21875 2.929687.347656 2.570313.320313 5.121094.730469 7.640626 1.210937 1.390624.269532 2.769531.558594 4.140624.871094.449219.117188.910157.207032 1.347657.328125 11.742187 2.820313 22.832031 7.289063 33.03125 13.160157 15.429687 8.898437 28.789062 20.960937 39.179687 35.332031zm0 0" fill="#2f373b"/><path d="m115.199219 382.296875c0-3.433594.839843-10.136719.839843-10.136719h279.921876s.839843 6.707032.839843 10.136719c0 51.234375-63.039062 92.78125-140.800781 92.78125s-140.800781-41.546875-140.800781-92.78125zm0 0" fill="#181e21"/><path d="m340.761719 417.859375c.015625 20.890625-29.839844 57.410156-42.691407 90.691406-6.140624 1.019531-12.347656 1.820313-18.640624 2.390625-7.71875.699219-15.527344 1.058594-23.429688 1.058594-8.058594 0-16.027344-.371094-23.898438-1.109375-6.28125-.582031-12.492187-1.378906-18.628906-2.410156-12.8125-33.230469-42.671875-69.679688-42.671875-90.558594 0-10.710937 28.261719-17.320313 28.261719-17.320313h113.429688s28.253906 6.589844 28.269531 17.257813zm0 0" fill="#181e21"/><path d="m279.429688 510.941406c-7.71875.699219-15.527344 1.058594-23.429688 1.058594-8.058594 0-16.027344-.371094-23.898438-1.109375-26.128906-35.441406-20.800781-87.480469-20.800781-87.480469h88.960938s5.347656 52.089844-20.832031 87.53125zm0 0" fill="#0084a6"/><path d="m215.203125 416.808594c-29.359375 0-49.257813 42.429687-50.726563 78.332031-.429687-.160156-.863281-.320313-1.292968-.492187-3.507813-1.359376-6.980469-2.808594-10.410156-4.320313-13.738282-6.058594-26.839844-13.289063-39.1875-21.578125 10.390624-14.371094 23.757812-26.429688 39.1875-35.320312 10.203124-5.871094 21.300781-10.339844 33.03125-13.148438 1.808593-.441406 3.640624-.839844 5.480468-1.191406 3.46875-.679688 7-1.199219 10.570313-1.570313 1.03125-.109375 2.050781-.210937 3.089843-.289062 3.378907-.28125 6.800782-.421875 10.257813-.421875zm0 0" fill="#181e21"/><path d="m300.710938 368.539062v54.867188c0 20.089844-13.246094 37.066406-31.488282 42.707031-4.175781 1.296875-8.628906 1.996094-13.230468 1.996094-24.691407 0-44.703126-20.011719-44.703126-44.703125v-54.867188zm0 0" fill="#efb29a"/><path d="m300.710938 419.933594v3.472656c0 20.089844-13.246094 37.066406-31.488282 42.707031-16.460937-5.058593-28.835937-19.371093-31.125-36.882812 2.988282.183593 5.992188.273437 9.007813.273437 8.460937 0 16.75-.671875 24.832031-1.996094 9.949219-1.601562 19.566406-4.160156 28.773438-7.574218zm0 0" fill="#f9c5ac"/><path d="m132.539062 278.152344c0 20.496094-14.972656 37.492187-34.578124 40.648437-2.144532.34375-4.347657.527344-6.597657.527344-22.746093 0-41.171875-18.429687-41.171875-41.175781s18.425782-41.175782 41.171875-41.175782c2.25 0 4.453125.179688 6.597657.527344 19.605468 3.15625 34.578124 20.152344 34.578124 40.648438zm0 0" fill="#f9c5ac"/><path d="m132.539062 278.152344c0 20.496094-14.972656 37.492187-34.578124 40.648437-3.5625-12.953125-5.464844-26.582031-5.464844-40.648437s1.902344-27.695313 5.464844-40.644532c19.605468 3.152344 34.578124 20.148438 34.578124 40.644532zm0 0" fill="#efb29a"/><path d="m106.082031 278.152344c0 8.128906-6.589843 14.714844-14.71875 14.714844-8.125 0-14.714843-6.585938-14.714843-14.714844 0-8.125 6.589843-14.714844 14.714843-14.714844 8.128907 0 14.71875 6.589844 14.71875 14.714844zm0 0" fill="#efb29a"/><path d="m379.449219 278.152344c0 20.496094 14.972656 37.492187 34.578125 40.648437 2.144531.34375 4.347656.527344 6.597656.527344 22.746094 0 41.175781-18.429687 41.175781-41.175781s-18.429687-41.175782-41.175781-41.175782c-2.25 0-4.453125.179688-6.597656.527344-19.605469 3.15625-34.578125 20.152344-34.578125 40.648438zm0 0" fill="#f9c5ac"/><path d="m379.449219 278.152344c0 20.496094 14.972656 37.492187 34.578125 40.648437 3.5625-12.953125 5.464844-26.582031 5.464844-40.648437s-1.902344-27.695313-5.464844-40.644532c-19.605469 3.152344-34.578125 20.148438-34.578125 40.644532zm0 0" fill="#efb29a"/><path d="m435.339844 278.152344c0 8.128906-6.589844 14.714844-14.714844 14.714844-8.128906 0-14.71875-6.585938-14.71875-14.714844 0-8.125 6.589844-14.714844 14.71875-14.714844 8.125 0 14.714844 6.589844 14.714844 14.714844zm0 0" fill="#efb29a"/><path d="m410.695312 256.511719c0 76.984375-56.242187 140.847656-129.871093 152.703125-8.078125 1.328125-16.371094 2-24.828125 2-85.445313 0-154.703125-69.257813-154.703125-154.703125v-157.5h309.402343zm0 0" fill="#f9c5ac"/><path d="m283.242188 408.808594c-.800782.140625-1.609376.28125-2.417969.410156-8.082031 1.320312-16.371094 1.992188-24.832031 1.992188-85.4375 0-154.699219-69.25-154.699219-154.699219v-157.5h54.550781v157.5c0 76.136719 54.980469 139.410156 127.398438 152.296875zm0 0" fill="#efb29a"/><path d="m255.996094 337.929688c-12.957032 0-25.910156-3.246094-37.71875-9.738282-3.328125-1.828125-4.542969-6.011718-2.714844-9.34375 1.832031-3.332031 6.015625-4.546875 9.347656-2.714844 19.464844 10.699219 42.707032 10.699219 62.167969 0 3.332031-1.832031 7.515625-.617187 9.347656 2.714844 1.832031 3.332032.617188 7.515625-2.714843 9.34375-11.808594 6.492188-24.761719 9.738282-37.714844 9.738282zm0 0" fill="#dd9f8a"/><path d="m273.542969 291.695312h-35.097657c-4.179687 0-7.570312-3.390624-7.570312-7.570312 0-4.183594 3.390625-7.570312 7.570312-7.570312h35.097657c4.183593 0 7.570312 3.386718 7.570312 7.570312 0 4.179688-3.386719 7.570312-7.570312 7.570312zm0 0" fill="#efb29a"/><path d="m281.339844 249.160156c0 17.164063 13.914062 31.082032 31.082031 31.082032 17.164063 0 31.078125-13.917969 31.078125-31.082032" fill="#efb29a"/><path d="m334.707031 249.160156c0 12.308594-9.976562 22.289063-22.285156 22.289063-12.3125 0-22.289063-9.980469-22.289063-22.289063s9.976563-22.285156 22.289063-22.285156c12.308594 0 22.285156 9.976562 22.285156 22.285156zm0 0" fill="#2f373b"/><path d="m331.257812 245.226562c0 5.277344-4.277343 9.550782-9.550781 9.550782-5.273437 0-9.550781-4.273438-9.550781-9.550782 0-5.273437 4.277344-9.546874 9.550781-9.546874 5.273438 0 9.550781 4.273437 9.550781 9.546874zm0 0" fill="#fff"/><path d="m168.488281 249.160156c0 17.164063 13.917969 31.082032 31.082031 31.082032 17.164063 0 31.078126-13.917969 31.078126-31.082032" fill="#efb29a"/><path d="m221.855469 249.160156c0 12.308594-9.976563 22.289063-22.285157 22.289063-12.308593 0-22.289062-9.980469-22.289062-22.289063s9.980469-22.285156 22.289062-22.285156c12.308594 0 22.285157 9.976562 22.285157 22.285156zm0 0" fill="#2f373b"/><path d="m204.78125 270.832031c-1.667969.410157-3.417969.617188-5.210938.617188-12.308593 0-22.289062-9.976563-22.289062-22.289063 0-12.308594 9.980469-22.289062 22.289062-22.289062 1.792969 0 3.542969.210937 5.210938.621094-9.800781 2.339843-17.070312 11.160156-17.070312 21.667968 0 10.511719 7.269531 19.332032 17.070312 21.671875zm0 0" fill="#181e21"/><path d="m317.632812 270.832031c-1.671874.410157-3.421874.617188-5.210937.617188-12.308594 0-22.289063-9.976563-22.289063-22.289063 0-12.308594 9.980469-22.289062 22.289063-22.289062 1.789063 0 3.539063.210937 5.210937.621094-9.800781 2.339843-17.070312 11.160156-17.070312 21.667968 0 10.511719 7.269531 19.332032 17.070312 21.671875zm0 0" fill="#181e21"/><path d="m218.40625 245.226562c0 5.277344-4.273438 9.550782-9.546875 9.550782-5.277344 0-9.550781-4.273438-9.550781-9.550782 0-5.273437 4.273437-9.546874 9.550781-9.546874 5.273437 0 9.546875 4.273437 9.546875 9.546874zm0 0" fill="#fff"/><path d="m410.691406 194.53125v61.980469h-29.222656s14.960938-74.953125-25.9375-100.890625c-40.902344-25.929688-61.632812 12.96875-99.542969 12.96875-18.9375 0-33.589843-9.710938-48.609375-16.191406-15.039062-6.5-30.457031-9.757813-50.929687 3.222656-40.898438 25.9375-25.929688 100.890625-25.929688 100.890625h-29.230469v-61.980469c-6.6875-33.921875-27.140624-83.300781 13.261719-123.703125 40.410157-40.40625 69.839844-36.917969 81.808594-56.867187l8.980469 26.9375 50.648437-40.898438 50.660157 40.898438 8.980468-26.9375c11.972656 19.949218 41.402344 16.460937 81.800782 56.867187 40.410156 40.402344 19.960937 89.78125 13.261718 123.703125zm0 0" fill="#2f373b"/><g fill="#f1eee9"><path d="m345.28125 477.855469c0 5.234375-4.242188 9.480469-9.476562 9.480469-5.234376 0-9.476563-4.246094-9.476563-9.480469s4.242187-9.476563 9.476563-9.476563c5.234374 0 9.476562 4.242188 9.476562 9.476563zm0 0"/><path d="m185.660156 477.855469c0 5.234375-4.242187 9.480469-9.476562 9.480469s-9.476563-4.246094-9.476563-9.480469 4.242188-9.476563 9.476563-9.476563 9.476562 4.242188 9.476562 9.476563zm0 0"/><path d="m384.113281 393.058594c0 5.234375-4.242187 9.476562-9.476562 9.476562s-9.476563-4.242187-9.476563-9.476562 4.242188-9.476563 9.476563-9.476563 9.476562 4.242188 9.476562 9.476563zm0 0"/><path d="m354.445312 424.359375c0 5.234375-4.246093 9.476563-9.476562 9.476563-5.234375 0-9.480469-4.242188-9.480469-9.476563s4.246094-9.476563 9.480469-9.476563c5.230469 0 9.476562 4.242188 9.476562 9.476563zm0 0"/><path d="m146.402344 393.058594c0 5.234375-4.242188 9.476562-9.476563 9.476562s-9.476562-4.242187-9.476562-9.476562 4.242187-9.476563 9.476562-9.476563 9.476563 4.242188 9.476563 9.476563zm0 0"/><path d="m176.074219 424.359375c0 5.234375-4.242188 9.476563-9.476563 9.476563s-9.476562-4.242188-9.476562-9.476563 4.242187-9.476563 9.476562-9.476563 9.476563 4.242188 9.476563 9.476563zm0 0"/></g><path d="m184.390625 95.101562c0 26.609376 22.988281 57.296876 22.988281 57.296876-15.039062-6.5-30.457031-9.757813-50.929687 3.222656-40.898438 25.9375-25.929688 100.890625-25.929688 100.890625h-29.230469v-61.980469c-6.6875-33.921875-27.140624-83.300781 13.261719-123.703125 40.410157-40.40625 69.839844-36.917969 81.808594-56.867187l8.980469 26.9375 50.648437-40.898438c-23.71875 47.21875-71.597656 68.5-71.597656 95.101562zm0 0" fill="#181e21"/></svg>