<svg height="512pt" viewBox="0 0 512 512" width="512pt" xmlns="http://www.w3.org/2000/svg"><path d="m512 256c0 141.386719-114.613281 256-256 256s-256-114.613281-256-256 114.613281-256 256-256 256 114.613281 256 256zm0 0" fill="#f1eee9"/><path d="m114.082031 301.277344c0 34.917968-21.382812 69.496094-47.386719 82.304687 0 0 33.613282-.691406 45.488282-23.542969 0 0 7.886718 41-20.046875 68.933594 0 0 50.226562-24.273437 63.847656-68.835937" fill="#bd5423"/><path d="m397.90625 301.277344c0 34.917968 21.382812 69.496094 47.386719 82.304687 0 0-33.613281-.691406-45.488281-23.542969 0 0-7.882813 41 20.050781 68.933594 0 0-50.226563-24.273437-63.847657-68.835937" fill="#bd5423"/><path d="m398.410156 468.761719c-12.339844 8.277343-25.4375 15.519531-39.179687 21.566406-10.648438 4.703125-21.679688 8.703125-33.03125 11.921875-9.179688 2.609375-18.558594 4.71875-28.128907 6.300781-6.140624 1.019531-12.347656 1.820313-18.640624 2.390625-7.71875.699219-15.527344 1.058594-23.429688 1.058594-8.058594 0-16.027344-.371094-23.898438-1.109375-6.28125-.582031-12.492187-1.378906-18.628906-2.410156-9.410156-1.570313-18.640625-3.652344-27.671875-6.21875-7.238281-2.0625-14.359375-4.441407-21.328125-7.121094-.433594-.160156-.863281-.320313-1.292968-.492187-3.507813-1.359376-6.980469-2.808594-10.410157-4.320313-13.738281-6.058594-26.839843-13.289063-39.1875-21.578125 10.390625-14.371094 23.757813-26.429688 39.1875-35.320312 10.203125-5.871094 21.300781-10.339844 33.03125-13.148438 1.808594-.441406 3.640625-.839844 5.480469-1.191406 2.378906-.46875 4.78125-.859375 7.210938-1.167969 1.109374-.152344 2.238281-.28125 3.359374-.402344 1.03125-.109375 2.050782-.210937 3.089844-.289062 3.378906-.28125 6.800782-.421875 10.257813-.421875h81.589843c4.523438 0 8.972657.242187 13.351563.703125.980469.097656 1.960937.21875 2.929687.347656 2.570313.320313 5.121094.730469 7.640626 1.210937 1.390624.269532 2.769531.558594 4.140624.871094.449219.117188.910157.207032 1.347657.328125 11.742187 2.820313 22.832031 7.289063 33.03125 13.160157 15.429687 8.898437 28.789062 20.960937 39.179687 35.332031zm0 0" fill="#2f373b"/><path d="m115.199219 382.296875c0-3.433594.839843-10.136719.839843-10.136719h279.921876s.839843 6.707032.839843 10.136719c0 51.234375-63.039062 92.78125-140.800781 92.78125s-140.800781-41.546875-140.800781-92.78125zm0 0" fill="#181e21"/><path d="m340.761719 417.859375c.015625 20.890625-29.839844 57.410156-42.691407 90.691406-6.140624 1.019531-12.347656 1.820313-18.640624 2.390625-7.71875.699219-15.527344 1.058594-23.429688 1.058594-8.058594 0-16.027344-.371094-23.898438-1.109375-6.28125-.582031-12.492187-1.378906-18.628906-2.410156-12.8125-33.230469-42.671875-69.679688-42.671875-90.558594 0-10.710937 28.261719-17.320313 28.261719-17.320313h113.429688s28.253906 6.589844 28.269531 17.257813zm0 0" fill="#181e21"/><path d="m279.429688 510.941406c-7.71875.699219-15.527344 1.058594-23.429688 1.058594-8.058594 0-16.027344-.371094-23.898438-1.109375-26.128906-35.441406-20.800781-87.480469-20.800781-87.480469h88.960938s5.347656 52.089844-20.832031 87.53125zm0 0" fill="#0084a6"/><path d="m215.203125 416.808594c-29.359375 0-49.257813 42.429687-50.726563 78.332031-.429687-.160156-.863281-.320313-1.292968-.492187-3.507813-1.359376-6.980469-2.808594-10.410156-4.320313-13.738282-6.058594-26.839844-13.289063-39.1875-21.578125 10.390624-14.371094 23.757812-26.429688 39.1875-35.320312 10.203124-5.871094 21.300781-10.339844 33.03125-13.148438 1.808593-.441406 3.640624-.839844 5.480468-1.191406 3.46875-.679688 7-1.199219 10.570313-1.570313 1.03125-.109375 2.050781-.210937 3.089843-.289062 3.378907-.28125 6.800782-.421875 10.257813-.421875zm0 0" fill="#181e21"/><path d="m300.710938 368.539062v54.867188c0 20.089844-13.246094 37.066406-31.488282 42.707031-4.175781 1.296875-8.628906 1.996094-13.230468 1.996094-24.691407 0-44.703126-20.011719-44.703126-44.703125v-54.867188zm0 0" fill="#efb29a"/><path d="m300.710938 419.933594v3.472656c0 20.089844-13.246094 37.066406-31.488282 42.707031-16.460937-5.058593-28.835937-19.371093-31.125-36.882812 2.988282.183593 5.992188.273437 9.007813.273437 8.460937 0 16.75-.671875 24.832031-1.996094 9.949219-1.601562 19.566406-4.160156 28.773438-7.574218zm0 0" fill="#f9c5ac"/><path d="m300.707031 430.238281c-20.460937 33.382813-68.964843 33.382813-89.421875 0 0-2.773437 0-15.851562 0-18.621093 20.457032 33.382812 68.960938 33.382812 89.421875 0zm0 0" fill="#2f373b"/><g fill="#f1eee9"><path d="m345.28125 477.855469c0 5.234375-4.242188 9.480469-9.476562 9.480469-5.234376 0-9.476563-4.246094-9.476563-9.480469s4.242187-9.476563 9.476563-9.476563c5.234374 0 9.476562 4.242188 9.476562 9.476563zm0 0"/><path d="m185.660156 477.855469c0 5.234375-4.242187 9.480469-9.476562 9.480469s-9.476563-4.246094-9.476563-9.480469 4.242188-9.476563 9.476563-9.476563 9.476562 4.242188 9.476562 9.476563zm0 0"/><path d="m384.113281 393.058594c0 5.234375-4.242187 9.476562-9.476562 9.476562s-9.476563-4.242187-9.476563-9.476562 4.242188-9.476563 9.476563-9.476563 9.476562 4.242188 9.476562 9.476563zm0 0"/><path d="m354.445312 424.359375c0 5.234375-4.246093 9.476563-9.476562 9.476563-5.234375 0-9.480469-4.242188-9.480469-9.476563s4.246094-9.476563 9.480469-9.476563c5.230469 0 9.476562 4.242188 9.476562 9.476563zm0 0"/><path d="m146.402344 393.058594c0 5.234375-4.242188 9.476562-9.476563 9.476562s-9.476562-4.242187-9.476562-9.476562 4.242187-9.476563 9.476562-9.476563 9.476563 4.242188 9.476563 9.476563zm0 0"/><path d="m176.074219 424.359375c0 5.234375-4.242188 9.476563-9.476563 9.476563s-9.476562-4.242188-9.476562-9.476563 4.242187-9.476563 9.476562-9.476563 9.476563 4.242188 9.476563 9.476563zm0 0"/></g><path d="m132.539062 278.152344c0 20.496094-14.972656 37.492187-34.578124 40.648437-2.144532.34375-4.347657.527344-6.597657.527344-22.746093 0-41.171875-18.429687-41.171875-41.175781s18.425782-41.175782 41.171875-41.175782c2.25 0 4.453125.179688 6.597657.527344 19.605468 3.15625 34.578124 20.152344 34.578124 40.648438zm0 0" fill="#f9c5ac"/><path d="m132.539062 278.152344c0 20.496094-14.972656 37.492187-34.578124 40.648437-3.5625-12.953125-5.464844-26.582031-5.464844-40.648437s1.902344-27.695313 5.464844-40.644532c19.605468 3.152344 34.578124 20.148438 34.578124 40.644532zm0 0" fill="#efb29a"/><path d="m106.082031 278.152344c0 8.128906-6.589843 14.714844-14.71875 14.714844-8.125 0-14.714843-6.585938-14.714843-14.714844 0-8.125 6.589843-14.714844 14.714843-14.714844 8.128907 0 14.71875 6.589844 14.71875 14.714844zm0 0" fill="#efb29a"/><path d="m379.449219 278.152344c0 20.496094 14.972656 37.492187 34.578125 40.648437 2.144531.34375 4.347656.527344 6.597656.527344 22.746094 0 41.175781-18.429687 41.175781-41.175781s-18.429687-41.175782-41.175781-41.175782c-2.25 0-4.453125.179688-6.597656.527344-19.605469 3.15625-34.578125 20.152344-34.578125 40.648438zm0 0" fill="#f9c5ac"/><path d="m379.449219 278.152344c0 20.496094 14.972656 37.492187 34.578125 40.648437 3.5625-12.953125 5.464844-26.582031 5.464844-40.648437s-1.902344-27.695313-5.464844-40.644532c-19.605469 3.152344-34.578125 20.148438-34.578125 40.644532zm0 0" fill="#efb29a"/><path d="m435.339844 278.152344c0 8.128906-6.589844 14.714844-14.714844 14.714844-8.128906 0-14.71875-6.585938-14.71875-14.714844 0-8.125 6.589844-14.714844 14.71875-14.714844 8.125 0 14.714844 6.589844 14.714844 14.714844zm0 0" fill="#efb29a"/><path d="m410.695312 256.511719c0 76.984375-56.242187 140.847656-129.871093 152.703125-8.078125 1.328125-16.371094 2-24.828125 2-85.445313 0-154.703125-69.257813-154.703125-154.703125v-157.5h309.402343zm0 0" fill="#f9c5ac"/><path d="m283.242188 408.808594c-.800782.140625-1.609376.28125-2.417969.410156-8.082031 1.320312-16.371094 1.992188-24.832031 1.992188-85.4375 0-154.699219-69.25-154.699219-154.699219v-157.5h54.550781v157.5c0 76.136719 54.980469 139.410156 127.398438 152.296875zm0 0" fill="#efb29a"/><path d="m360.261719 296.496094c0 10.539062-8.542969 19.082031-19.082031 19.082031-10.539063 0-19.082032-8.542969-19.082032-19.082031 0-10.539063 8.542969-19.082032 19.082032-19.082032 10.539062 0 19.082031 8.542969 19.082031 19.082032zm0 0" fill="#efb29a"/><path d="m189.886719 296.496094c0 10.539062-8.542969 19.082031-19.082031 19.082031-10.539063 0-19.082032-8.542969-19.082032-19.082031 0-10.539063 8.542969-19.082032 19.082032-19.082032 10.539062 0 19.082031 8.542969 19.082031 19.082032zm0 0" fill="#efb29a"/><path d="m273.378906 297.921875h-34.757812c-4.140625 0-7.5-3.355469-7.5-7.496094s3.359375-7.496093 7.5-7.496093h34.757812c4.136719 0 7.496094 3.355468 7.496094 7.496093s-3.359375 7.496094-7.496094 7.496094zm0 0" fill="#efb29a"/><path d="m256 345.351562c-12.828125 0-25.65625-3.214843-37.351562-9.640624-3.296876-1.8125-4.5-5.957032-2.6875-9.257813 1.8125-3.296875 5.957031-4.5 9.253906-2.6875 19.277344 10.597656 42.292968 10.597656 61.566406 0 3.296875-1.8125 7.441406-.609375 9.253906 2.6875 1.816406 3.300781.613282 7.445313-2.6875 9.257813-11.691406 6.425781-24.519531 9.640624-37.347656 9.640624zm0 0" fill="#dd9f8a"/><path d="m343.992188 244.328125c0-17.808594-14.433594-32.242187-32.242188-32.242187s-32.242188 14.433593-32.242188 32.242187" fill="#efb29a"/><path d="m333.773438 258.054688c0 12.164062-9.859376 22.023437-22.023438 22.023437s-22.023438-9.859375-22.023438-22.023437c0-12.164063 9.859376-22.023438 22.023438-22.023438s22.023438 9.859375 22.023438 22.023438zm0 0" fill="#2f373b"/><path d="m330.363281 254.167969c0 5.210937-4.222656 9.4375-9.433593 9.4375-5.214844 0-9.4375-4.226563-9.4375-9.4375 0-5.210938 4.222656-9.4375 9.4375-9.4375 5.210937 0 9.433593 4.226562 9.433593 9.4375zm0 0" fill="#fff"/><path d="m232.480469 244.328125c0-17.808594-14.433594-32.242187-32.242188-32.242187-17.808593 0-32.242187 14.433593-32.242187 32.242187" fill="#efb29a"/><path d="m222.261719 258.054688c0 12.164062-9.859375 22.023437-22.023438 22.023437-12.160156 0-22.019531-9.859375-22.019531-22.023437 0-12.164063 9.859375-22.023438 22.019531-22.023438 12.164063 0 22.023438 9.859375 22.023438 22.023438zm0 0" fill="#2f373b"/><path d="m205.207031 279.511719c-1.601562.378906-3.261719.566406-4.96875.566406-12.160156 0-22.019531-9.859375-22.019531-22.027344 0-12.160156 9.859375-22.019531 22.019531-22.019531 1.707031 0 3.367188.199219 4.96875.570312-9.78125 2.25-17.058593 11-17.058593 21.449219 0 10.460938 7.277343 19.210938 17.058593 21.460938zm0 0" fill="#181e21"/><path d="m316.71875 279.511719c-1.601562.378906-3.261719.566406-4.972656.566406-12.160156 0-22.019532-9.859375-22.019532-22.027344 0-12.160156 9.859376-22.019531 22.019532-22.019531 1.710937 0 3.371094.199219 4.972656.570312-9.78125 2.25-17.0625 11-17.0625 21.449219 0 10.460938 7.28125 19.210938 17.0625 21.460938zm0 0" fill="#181e21"/><path d="m218.855469 254.167969c0 5.210937-4.226563 9.4375-9.4375 9.4375-5.210938 0-9.4375-4.226563-9.4375-9.4375 0-5.210938 4.226562-9.4375 9.4375-9.4375 5.210937 0 9.4375 4.226562 9.4375 9.4375zm0 0" fill="#fff"/><path d="m410.695312 124.035156c-102.210937-19.5-207.1875-19.5-309.402343 0v85.128906c102.214843-19.496093 207.191406-19.496093 309.402343 0 0-23.5 0-61.628906 0-85.128906zm0 0" fill="#efb29a"/><path d="m410.699219 115.050781v85.140625c-69.839844-13.320312-140.960938-17.542968-211.609375-12.660156-32.761719 2.257812-65.417969 6.480469-97.800782 12.660156v-85.140625c32.382813-6.179687 65.039063-10.402343 97.800782-12.652343 70.648437-4.878907 141.769531-.667969 211.609375 12.652343zm0 0" fill="#40b4d3"/><path d="m199.089844 102.398438v85.132812c-32.761719 2.257812-65.417969 6.480469-97.800782 12.660156v-85.140625c32.382813-6.179687 65.039063-10.402343 97.800782-12.652343zm0 0" fill="#0084a6"/><path d="m481.839844 222.800781c0-62.519531-46.558594-81.140625-46.558594-81.140625 38.570312 99.550782-38.582031 159.621094-38.582031 159.621094 63.242187-63.242188 14.941406-169.542969 14.011719-171.5625 15.109374 69.601562-14.582032 121.042969-15.332032 122.320312 26.589844-90.4375-19.957031-132.988281-19.957031-132.988281 31.578125 78.929688-5.8125 122.730469-6.640625 123.679688 27.570312-106.390625-35.632812-129.011719-35.632812-129.011719 40.191406 55.871094 0 106.5 0 106.5 11.042968-111.660156-44.378907-104.488281-44.378907-104.488281 32.832031 32.828125 16.230469 71.289062 16.230469 71.289062-7.011719-67.148437-49.011719-71.960937-49.011719-71.960937s-41.988281 4.8125-49 71.960937c0 0-16.597656-38.460937 16.230469-71.289062 0 0-55.417969-7.171875-44.378906 104.488281 0-.007812-.011719-.007812-.011719-.019531-.816406-1.039063-39.757813-51.1875.011719-106.480469 0 0-63.199219 22.621094-35.628906 129.011719-.832032-.949219-38.222657-44.75-6.640626-123.679688 0 0-46.550781 42.550781-19.96875 132.988281-.75-1.277343-30.429687-52.71875-15.320312-122.320312-.929688 2.023438-49.230469 108.320312 14 171.5625 0 0-77.140625-60.070312-38.570312-159.621094 0 0-46.5625 18.621094-46.5625 81.140625 0 0-23.9375-77.152343 51.882812-129.03125 0 0-29.25-6.648437-58.519531 22.609375.398437-1.128906 26.878906-73.308594 90.339843-73.308594 0 0-18.523437-14.480468-45.121093-3.832031 0 0 6.648437-39.238281 187.257812-39.238281h.011719c180.609375 0 187.261719 39.238281 187.261719 39.238281-26.601563-10.648437-45.121094 3.832031-45.121094 3.832031 63.449219 0 89.9375 72.179688 90.339844 73.308594-29.269531-29.257812-58.519531-22.609375-58.519531-22.609375 75.820312 51.878907 51.878906 129.03125 51.878906 129.03125zm0 0" fill="#d9723e"/><path d="m178.828125 220.199219c-.816406-1.039063-39.757813-51.1875.011719-106.480469 0 0-63.199219 22.621094-35.628906 129.011719-.832032-.949219-38.222657-44.75-6.640626-123.679688 0 0-46.550781 42.550781-19.96875 132.988281-.75-1.277343-30.429687-52.71875-15.320312-122.320312-.929688 2.023438-49.230469 108.320312 14 171.5625 0 0-77.140625-60.070312-38.570312-159.621094 0 0-46.5625 18.621094-46.5625 81.140625 0 0-23.9375-77.152343 51.882812-129.03125 0 0-29.25-6.648437-58.519531 22.609375.398437-1.128906 26.878906-73.308594 90.339843-73.308594 0 0-18.523437-14.480468-45.121093-3.832031 0 0 6.648437-39.238281 187.257812-39.238281-20.292969.015625-46.949219 42.230469-64.589843 91.378906-16.792969 46.800782-25.410157 99.890625-12.570313 128.820313zm0 0" fill="#bd5423"/></svg>