<svg id="Capa_1" enable-background="new 0 0 512 512" height="512" viewBox="0 0 512 512" width="512" xmlns="http://www.w3.org/2000/svg"><g><g><path d="m456.951 407.165c27.755-39.717 44.049-88.035 44.049-140.165 0-135.31-109.69-245-245-245s-245 109.69-245 245c0 52.13 16.294 100.448 44.049 140.165z" fill="#49d88b"/></g><g><circle cx="256" cy="242" fill="#38c674" r="200"/></g><g><path d="m461.468 328.529c-7.097-60.844-101.459-130.556-101.459-180.806v-30.58c0-3.485-.081-7.257-.283-11.221h-207.142c-.387 3.688-.593 7.43-.593 11.221v30.58c0 50.25-94.362 119.962-101.459 180.806-7.062 60.537 84.064 100.943 205.468 101.349 121.404-.406 212.53-40.812 205.468-101.349z" fill="#2d3c6b"/></g><g><path d="m339.906 182.909h-167.812s-69.541 112.516 66.02 246.61c5.883.216 11.845.339 17.886.36 6.041-.02 12.004-.144 17.886-.36 135.561-134.094 66.02-246.61 66.02-246.61z" fill="#213159"/></g><g><path d="m456.949 407.139c-8.256-22.709-16.99-42.685-24.722-51.911-.904-1.078-1.794-2.019-2.668-2.79-6.623-5.848-19.39-11.382-34.352-16.323-37.928-12.525-89.968-21.232-91.82-21.54h-94.772c-1.853.307-53.892 9.014-91.82 21.54-14.961 4.941-27.729 10.475-34.352 16.323-.874.772-1.765 1.712-2.668 2.79-7.732 9.226-16.467 29.203-24.722 51.911-.001.009-.001.018-.002.026 32.701 46.795 81.323 81.637 138.012 96.667l-.001-.009 62.938-15.972 62.94 15.973.002.008c56.687-15.031 105.309-49.873 138.009-96.666-.001-.009-.001-.018-.002-.027z" fill="#dae2fe"/></g><g><path d="m218.514 497.364c-67.373-58.308-83.845-132.427-87.87-165.498-4.742 1.359-9.394 2.777-13.85 4.249-14.961 4.941-27.729 10.475-34.352 16.323-.874.772-1.765 1.712-2.668 2.79-7.732 9.226-16.467 29.203-24.722 51.911-.001.009-.001.018-.002.026 32.708 46.806 81.357 81.625 138.064 96.645z" fill="#bec8f7"/></g><g><path d="m120.812 471.33c-.075-.212-8.769-24.824 4.705-53.619 2.512-5.369-4.447-10.154-8.544-5.871-8.577 8.966-17.032 22.169-20.587 41.004 7.736 6.653 15.895 12.828 24.426 18.486z" fill="#acbbef"/></g><g><path d="m391.188 471.33c.075-.212 8.769-24.824-4.705-53.619-2.512-5.369 4.447-10.154 8.544-5.871 8.577 8.966 17.032 22.169 20.587 41.004-7.736 6.653-15.895 12.828-24.426 18.486z" fill="#bec8f7"/></g><g><path d="m376.363 400.049c-12.574-62.943-53.75-134.554-120.363-134.554s-107.789 71.611-120.363 134.554c-2.232 11.171 4.616 22.15 15.628 25.069l1.946.516c6.666 1.767 12.085 6.615 14.579 13.045l25.27 65.146c13.835 3.667 28.147 6.161 42.827 7.358v-.001l20.113-23.331 20.114 23.33v.001c14.679-1.197 28.992-3.691 42.827-7.358l25.27-65.146c2.494-6.43 7.913-11.278 14.579-13.045l1.946-.516c11.011-2.918 17.859-13.897 15.627-25.068z" fill="#e9efff"/></g><g><path d="m313.386 316.347h-114.772l37.272 194.835c6.634.538 13.341.818 20.114.818s13.48-.28 20.114-.819z" fill="#ffc839"/></g><g><path d="m276.114 511.181 4.183-21.868c-30.687-37.699-51.683-95.306-51.683-157.798v-15.169h-30l37.272 194.835c6.634.539 13.341.819 20.114.819s13.48-.28 20.114-.819z" fill="#ffb332"/></g><g><path d="m208.614 221.239h94.772v93.336h-94.772z" fill="#934a2e"/></g><g><path d="m208.614 277.655h94.772c5.523 0 10 4.477 10 10v28.692s-16.429 18.317-57.386 18.317-57.386-18.317-57.386-18.317v-28.692c0-5.523 4.477-10 10-10z" fill="#ffdd40"/></g><g><path d="m228.614 287.655c0-5.523 4.477-10 10-10h-30c-5.523 0-10 4.477-10 10v28.692s8.931 9.934 30 15.169z" fill="#ffc839"/></g><g><path d="m331.058 159.567s10.385-25.285 28.897-19.415-.448 60.664-36.573 64.116z" fill="#a05838"/></g><g><path d="m180.942 159.567s-10.385-25.285-28.897-19.415.448 60.664 36.573 64.116z" fill="#934a2e"/></g><g><path d="m343.597 146.754c0 64.505-39.219 140.155-87.597 140.155s-87.597-75.651-87.597-140.155 39.218-110.884 87.597-110.884 87.597 46.38 87.597 110.884z" fill="#b76c4e"/></g><g><path d="m208.403 146.754c0-55.33 28.856-97.321 67.597-108.148-6.424-1.795-13.119-2.737-20-2.737-48.379 0-87.597 46.38-87.597 110.885s39.219 140.155 87.597 140.155c6.881 0 13.576-1.535 20-4.346-38.741-16.952-67.597-80.479-67.597-135.809z" fill="#a05838"/></g><g><path d="m223.5 138.968h-20c-4.142 0-7.5-3.358-7.5-7.5 0-4.142 3.358-7.5 7.5-7.5h20c4.142 0 7.5 3.358 7.5 7.5 0 4.142-3.358 7.5-7.5 7.5z" fill="#162544"/></g><g><path d="m308.5 138.968h-20c-4.142 0-7.5-3.358-7.5-7.5 0-4.142 3.358-7.5 7.5-7.5h20c4.142 0 7.5 3.358 7.5 7.5 0 4.142-3.358 7.5-7.5 7.5z" fill="#162544"/></g><g><g><path d="m242.013 192.447 8.436-13.441c2.569-4.093 8.533-4.093 11.102 0l8.436 13.441c2.739 4.365-.398 10.038-5.551 10.038h-16.871c-5.154-.001-8.291-5.674-5.552-10.038z" fill="#934a2e"/></g></g><g><g><path d="m235.384 240.87h41.233c4.111-3.622 7.258-8.309 9.01-13.631 1.584-4.811-2.069-9.754-7.134-9.754h-44.985c-5.065 0-8.718 4.943-7.134 9.754 1.752 5.322 4.899 10.009 9.01 13.631z" fill="#162544"/></g><g><path d="m276.616 240.87c-5.493 4.849-12.714 7.798-20.616 7.798s-15.124-2.948-20.616-7.798c5.5-4.849 12.714-7.798 20.616-7.798s15.116 2.949 20.616 7.798z" fill="#ff4155"/></g></g><g><path d="m311.239 162.03c.043-3.495-1.371-7.004-4.242-9.539-4.675-4.128-11.84-4.128-16.515 0-2.871 2.535-4.284 6.044-4.242 9.539.055 4.538 5.629 6.716 8.838 3.507 2.022-2.022 5.3-2.022 7.322 0 3.21 3.209 8.784 1.031 8.839-3.507z" fill="#162544"/></g><g><path d="m200.761 162.03c-.043-3.495 1.371-7.004 4.242-9.539 4.675-4.128 11.84-4.128 16.515 0 2.871 2.535 4.284 6.044 4.242 9.539-.055 4.538-5.629 6.716-8.838 3.507-2.022-2.022-5.3-2.022-7.322 0-3.21 3.209-8.784 1.031-8.839-3.507z" fill="#162544"/></g><g><path d="m355.54 97.997-28.167-79.161c-4.018-11.294-14.707-18.836-26.693-18.836-3.191 0-6.359.539-9.371 1.595l-18.871 6.614c-5.283 1.851-10.84 2.797-16.438 2.797-5.598 0-11.155-.946-16.438-2.797l-18.871-6.614c-3.011-1.056-6.179-1.595-9.37-1.595-11.986 0-22.676 7.542-26.694 18.835l-28.167 79.162z" fill="#ff4155"/></g><g><path d="m233.71 6.157-13.018-4.563c-3.012-1.055-6.18-1.594-9.371-1.594-11.986 0-22.676 7.542-26.694 18.835l-28.167 79.162h40l28.167-79.161c1.821-5.119 5.022-9.455 9.083-12.679z" fill="#e80054"/></g><g><path d="m369.299 124.804-2.029-.335c-74.351-12.286-150.223-12.18-224.539.313-4.056.682-8.117-1.19-10.233-4.717l-18.672-31.119c-3.698-6.164.12-14.1 7.244-15.056 88.876-11.932 178.942-12.013 267.839-.241l1.999.265c7.134.945 10.964 8.888 7.262 15.058l-18.667 31.111c-2.11 3.518-6.156 5.39-10.204 4.721z" fill="#ff596e"/></g><g><path d="m210.789 116.83s-21.023-23.47-4.072-50.749c-28.619 1.391-57.194 3.99-85.646 7.81-7.124.956-10.943 8.892-7.244 15.056l18.672 31.119c2.116 3.527 6.176 5.399 10.233 4.717 22.571-3.795 45.287-6.439 68.059-7.948z" fill="#ff4155"/></g></g></svg>