<svg id="Capa_1" enable-background="new 0 0 512 512" height="512" viewBox="0 0 512 512" width="512" xmlns="http://www.w3.org/2000/svg"><g><path d="m0 256c0-141.271 114.43-255.815 255.658-256 140.406-.184 255.384 113.82 256.336 254.223.554 81.641-37.111 154.505-96.16 201.761-4.564 3.653-10.978 3.908-15.808.615-41.033-27.973-90.619-44.328-144.026-44.328-53.408 0-102.997 16.355-144.03 44.33-4.828 3.292-11.239 3.035-15.802-.616-58.622-46.911-96.168-119.063-96.168-199.985z" fill="#fb5858"/><path d="m451.013 256c0 107.703-87.31 195.013-195.013 195.013s-195.013-87.31-195.013-195.013 87.31-195.013 195.013-195.013 195.013 87.31 195.013 195.013z" fill="#fc7979"/><path d="m399.13 191.254h-286.26c-28.654 0-51.883-23.229-51.883-51.883 0-28.654 23.229-51.883 51.883-51.883h286.26c28.654 0 51.883 23.229 51.883 51.883 0 28.654-23.228 51.883-51.883 51.883z" fill="#ffe1aa"/><path d="m140.547 191.254h-27.677c-28.654 0-51.883-23.229-51.883-51.883 0-28.654 23.229-51.883 51.883-51.883h27.677c-28.654 0-51.883 23.229-51.883 51.883 0 28.654 23.229 51.883 51.883 51.883z" fill="#ffd993"/><path d="m391 170.585v10.574c0 36.363-29.478 65.84-65.84 65.84h-125.82c-36.363 0-65.84-29.478-65.84-65.84v-10.574c0-50.029 40.556-90.585 90.585-90.585h76.331c50.028 0 90.584 40.556 90.584 90.585z" fill="#d6995c"/><path d="m241.841 247h-55c-36.363 0-65.841-29.478-65.841-65.841v-10.574c0-50.029 40.556-90.585 90.585-90.585h55c-50.029 0-90.585 40.556-90.585 90.585v10.574c0 36.363 29.478 65.841 65.841 65.841z" fill="#c48958"/><path d="m166 341.416h43.333c-38.66 0-70 31.34-70 70v58.209c0 6.548-7.117 10.608-12.764 7.293-10.712-6.29-20.927-13.336-30.569-21.066v-44.436c0-38.66 31.34-70 70-70z" fill="#4172cc"/><path d="m416 411.416v44.436c-18.23 14.614-38.503 26.785-60.322 36.017-.922.39-1.818-1.652-2.745-1.273-3.139 1.285-6.31 2.509-9.51 3.671-.903.328-1.837 3.078-2.745 3.396-24.265 8.502-50.199 13.453-77.178 14.229-2.491.072-4.991-4.701-7.5-4.701s-5.009 4.772-7.5 4.701c-26.98-.776-52.914-5.727-77.178-14.229-.907-.318-1.311-3.953-2.213-4.28-3.562-1.294-7.087-2.664-10.574-4.109-.572-.237-1.643 2.836-2.213 2.595-10.482-4.435-20.608-9.549-30.322-15.286v-65.167c0-38.66 31.34-70 70-70h150c38.66 0 70 31.34 70 70z" fill="#6990d7"/><path d="m355.678 473.149v18.72c-4.923 2.083-9.925 4.017-15 5.795v-24.514c0-4.142 3.358-7.5 7.5-7.5s7.5 3.357 7.5 7.499zm-191.856-7.5c-4.142 0-7.5 3.358-7.5 7.5v18.72c4.923 2.083 9.925 4.017 15 5.795v-24.514c0-4.143-3.358-7.501-7.5-7.501zm99.678 46.243v-153.892h-15v153.892c2.491.072 4.991.108 7.5.108s5.009-.036 7.5-.108z" fill="#4172cc"/><path d="m283.678 408-27.678-27.678-27.678 27.678-44.142-44.142c-1.953-1.953-1.953-5.118 0-7.071l44.142-44.142 27.678 27.677 27.678-27.678 44.142 44.142c1.953 1.953 1.953 5.118 0 7.071z" fill="#91aee2"/><path d="m146 251.416c-13.807 0-25-11.193-25-25v-10c0-13.807 11.193-25 25-25 13.807 0 25 11.193 25 25v10c0 13.807-11.193 25-25 25z" fill="#ffcdbe"/><path d="m136 211.416v20c0 8.178 3.927 15.439 9.998 20-13.806-.001-24.998-11.194-24.998-25v-10c0-13.806 11.192-24.999 24.998-25-6.071 4.561-9.998 11.822-9.998 20zm230-20v-20c0-60.751-49.249-110-110-110-60.751 0-110 49.249-110 110v40c0 50.351 33.83 92.8 80 105.859v12.953c0 7.263 2.355 14.329 6.713 20.139l23.287 31.049 23.287-31.049c4.358-5.81 6.713-12.877 6.713-20.139v-12.953c33.586-9.499 60.641-34.551 72.895-66.883 2.252.666 4.637 1.024 7.105 1.024 13.807 0 25-11.193 25-25v-10c0-13.807-11.193-25-25-25z" fill="#ffbeaa"/><path d="m366 171.416v40c0 50.792-34.425 93.543-81.216 106.195-9.023 2.44-18.545 2.44-27.568 0-46.791-12.652-81.216-55.403-81.216-106.195v-40c0-55.663 41.345-101.669 95-108.985 53.655 7.316 95 53.322 95 108.985z" fill="#ffcdbe"/><path d="m241.5 218.148c-2.929-2.93-2.929-7.678 0-10.607 2.929-2.928 7.678-2.928 10.606 0 1.042 1.042 2.424 1.616 3.893 1.616s2.851-.574 3.893-1.616c2.929-2.928 7.678-2.928 10.606 0 2.929 2.93 2.929 7.678 0 10.607-3.875 3.875-9.024 6.009-14.5 6.009s-10.623-2.134-14.498-6.009z" fill="#faa68e"/><path d="m256 281.416c-16.569 0-30-13.431-30-30 0-4.142 3.358-7.5 7.5-7.5h45c4.142 0 7.5 3.358 7.5 7.5 0 16.569-13.431 30-30 30z" fill="#fff5f5"/><path d="m263.5 280.471c-2.397.617-4.91.945-7.5.945-16.568 0-30-13.431-30-30 0-4.142 3.358-7.5 7.5-7.5h15c-4.142 0-7.5 3.358-7.5 7.5 0 13.979 9.561 25.725 22.5 29.055z" fill="#def4f8"/><path d="m223.5 178.916c0 8.284-6.716 15-15 15s-15-6.716-15-15 6.716-15 15-15 15 6.716 15 15zm80-15c-8.284 0-15 6.716-15 15s6.716 15 15 15 15-6.716 15-15-6.716-15-15-15z" fill="#203e76"/><path d="m226 171.416c0 4.142-3.358 7.5-7.5 7.5s-7.5-3.358-7.5-7.5 3.358-7.5 7.5-7.5 7.5 3.358 7.5 7.5zm87.5-7.5c-4.142 0-7.5 3.358-7.5 7.5s3.358 7.5 7.5 7.5 7.5-3.358 7.5-7.5-3.358-7.5-7.5-7.5z" fill="#fff5f5"/><path d="m232.341 448.191c0 .566-.182 40.309-.182 40.309 0 4.143-3.357 7.5-7.5 7.5s-7.5-3.357-7.5-7.5v-33.241c-5.563-.63-10.924-1.934-16-3.83v29.071c0 4.143-3.357 7.5-7.5 7.5s-7.5-3.357-7.5-7.5v-36.94c-5.468-3.807-10.352-8.397-14.488-13.606-.004.014-.008.027-.012.041v16.833c0 4.143-3.357 7.5-7.5 7.5s-7.5-3.357-7.5-7.5l.318-59c0-4.143 3.357-7.5 7.5-7.5s7.5 3.357 7.5 7.5c0 29.148 23.715 52.863 52.863 52.863 4.143 0 7.501 3.358 7.501 7.5zm122.681-60.363c0-4.143-3.357-7.5-7.5-7.5s-7.5 3.357-7.5 7.5c0 29.148-23.715 52.863-52.863 52.863-4.143 0-7.5 3.357-7.5 7.5 0 .566.182 40.309.182 40.309 0 4.143 3.357 7.5 7.5 7.5s7.5-3.357 7.5-7.5v-33.241c5.563-.63 10.924-1.934 16-3.83v29.071c0 4.143 3.357 7.5 7.5 7.5s7.5-3.357 7.5-7.5v-36.94c5.468-3.807 10.352-8.397 14.488-13.606.004.014.008.027.012.041v16.833c0 4.143 3.357 7.5 7.5 7.5s7.5-3.357 7.5-7.5z" fill="#ffe7c0"/><path d="m293.159 152.488h-74.319c-14.447 0-27.807-4.653-38.663-12.542-19.306-14.029-13.447-44.155 9.728-49.847 6.946-1.706 14.207-2.611 21.68-2.611h88.83c20.929 0 40.2 7.098 55.538 19.017-8.423 26.658-33.351 45.983-62.794 45.983z" fill="#d6995c"/><path d="m180.499 140.178c-11.427-8.199-20.121-19.967-24.451-33.673 15.338-11.919 34.609-19.017 55.538-19.017h3.306c-16.117 13.668-28.246 31.895-34.393 52.69z" fill="#c48958"/><path d="m335.223 21.986 23.827 71.142h-206.1l23.827-71.142c3.464-10.342 11.959-18.16 22.514-20.909.097-.025.195-.051.292-.076 7.208-1.867 14.848-1.094 21.584 2.081l20.406 9.62c9.136 4.307 19.718 4.307 28.854 0l20.406-9.62c6.735-3.175 14.376-3.948 21.584-2.081.097.025.195.05.292.076 10.555 2.749 19.05 10.567 22.514 20.909z" fill="#ffd993"/><path d="m217.327 21.986-23.827 71.142h-40.55l23.827-71.142c3.464-10.342 11.959-18.16 22.514-20.909.097-.025.195-.051.292-.076 7.208-1.867 14.849-1.094 21.584 2.081l7.331 3.456c-5.129 3.847-9.073 9.184-11.171 15.448z" fill="#ffcd71"/><path d="m396.6 87.488c-40.354 26.57-88.671 42.032-140.6 42.032s-100.246-15.461-140.6-42.032z" fill="#ffe7c0"/><path d="m290.016 424.011c-2.929 2.929-7.677 2.929-10.606 0l-23.41-23.409-23.909 23.909c-2.929 2.929-7.678 2.929-10.606 0-2.929-2.929-2.929-7.678 0-10.607l29.861-29.861c.953-2.13 7.291-2.842 7.984-1.326l30.687 30.687c2.928 2.93 2.928 7.678-.001 10.607z" fill="#203e76"/><path d="m279 396.844c0 12.703-10.297 23-23 23s-23-10.297-23-23 10.297-23 23-23 23 10.297 23 23z" fill="#fff68e"/><path d="m267 396.844c0 6.075-4.925 11-11 11s-11-4.925-11-11 4.925-11 11-11 11 4.925 11 11z" fill="#ffcd71"/><path d="m266.126 401.148c-1.675 3.936-5.578 6.696-10.126 6.696-6.075 0-11-4.925-11-11 0-4.548 2.76-8.451 6.696-10.126-.563 1.322-.874 2.777-.874 4.304 0 6.075 4.925 11 11 11 1.527 0 2.982-.311 4.304-.874z" fill="#ffc14f"/></g></svg>