<svg id="Capa_1" enable-background="new 0 0 512 512" height="512" viewBox="0 0 512 512" width="512" xmlns="http://www.w3.org/2000/svg"><g><path d="m451.928 291.544c13.891-42.478-25.223-67.029-25.223-67.029l-11.369-61.639v-19.474c0-79.199-64.203-143.402-143.402-143.402-5.386 0-10.703.298-15.934.876l-10 132.291 10 240.601h206.592c29.763-45.335-10.664-82.224-10.664-82.224z" fill="#ff7c48"/><path d="m164.249 48.713c-38.265 5.822-67.585 38.865-67.585 78.756v35.407l-11.37 61.639s-39.114 24.552-25.223 67.029c0 0-40.427 36.889-10.664 82.224h206.593v-372.892c-36.445 4.031-68.77 21.722-91.751 47.837z" fill="#ffb655"/><path d="m436.453 357.167-19.994-6.628-81.837 161.461h145.511v-94.336c0-27.472-17.604-51.852-43.68-60.497z" fill="#332866"/><path d="m416.459 350.54-81.837-27.128-10 46.592 10 141.997c.005-.006 81.837-72.019 81.837-161.461z" fill="#180a33"/><path d="m256 512h78.622v-103.894l-88.622 11.167z" fill="#cfcfe6"/><path d="m246 389.273 10 40c29.001 0 56.563-7.483 78.622-21.167v-38.103z" fill="#ece6f2"/><path d="m334.622 370.003v-46.592h-88.622l10 75.862c25.922 0 50.114-7.168 68.12-20.185 3.933-2.842 7.432-5.887 10.502-9.085z" fill="#ffcdbe"/><path d="m75.547 357.167 19.994-6.628 81.837 161.461h-145.511v-94.336c0-27.472 17.604-51.852 43.68-60.497z" fill="#574d8c"/><path d="m95.541 350.54 81.837-27.128 10 46.592-10 141.997c-.005-.006-81.837-72.019-81.837-161.461z" fill="#332866"/><path d="m256 512h-78.622v-103.894l78.622 21.167z" fill="#ece6f2"/><path d="m256 389.273v40c-29.001 0-56.563-7.483-78.622-21.167v-38.103z" fill="#fff5f5"/><path d="m177.378 370.003v-46.592h78.622v75.862c-25.922 0-50.114-7.168-68.12-20.185-3.933-2.842-7.432-5.887-10.502-9.085z" fill="#ffdecf"/><path d="m138.579 226.611h-41.915c-17.6 0-31.868-14.268-31.868-31.868 0-17.6 14.268-31.868 31.868-31.868h31.867z" fill="#ffdecf"/><path d="m373.421 226.611h41.915c17.6 0 31.868-14.268 31.868-31.868 0-17.6-14.268-31.868-31.868-31.868h-31.867z" fill="#ffcdbe"/><path d="m256 133.167-10 73.969 10 143.403c70.399 0 127.469-57.07 127.469-127.469v-60.195c0 .001-64.929-.009-127.469-29.708z" fill="#ffdecf"/><path d="m211.741 105.794s-34.363 57.082-83.21 57.082v60.195c0 70.399 57.07 127.469 127.469 127.469v-217.373c-15.217-7.226-30.294-16.202-44.259-27.373z" fill="#ffeee5"/><path d="m184.299 192.137h31.867v30h-31.867z" fill="#332866"/><path d="m295.834 192.137h31.867v30h-31.867z" fill="#180a33"/></g></svg>