<svg id="Capa_1" enable-background="new 0 0 512 512" height="512" viewBox="0 0 512 512" width="512" xmlns="http://www.w3.org/2000/svg"><g><path d="m0 256c0-141.269 114.427-255.812 255.652-256 140.471-.187 255.477 113.918 256.343 254.386.503 81.582-37.158 154.388-96.178 201.612-4.728 3.783-11.368 4.034-16.381.637-40.918-27.729-90.285-43.927-143.436-43.927-53.111 0-102.445 16.174-143.345 43.865-5.069 3.432-11.782 3.181-16.56-.645-58.58-46.914-96.095-119.04-96.095-199.928z" fill="#4172cc"/><path d="m457 256c0 111.009-89.991 201-201 201s-201-89.991-201-201 89.991-201 201-201 201 89.991 201 201z" fill="#6990d7"/><path d="m209.333 333.416c-38.66 0-70 31.34-70 70v66.281c0 6.516-7.081 10.555-12.701 7.257-8.787-5.156-17.239-10.821-25.315-16.954-1.791-1.36 3.428-4.234 3.428-4.234v-22.639l-8.745-3.127v-20l4.234-5c0-14.206 4.232-27.424 11.504-38.462 1.123-1.705-1.915-4.942-.651-6.538 12.821-16.194 32.654-26.584 54.913-26.584z" fill="#ffc14f"/><path d="m410.532 403.681 5.468 6.319v20l-3.383 6.915-4.085 14.809c-1.753 1.406 3.942 6.917 2.151 8.277-10.998 8.352-22.693 15.836-34.981 22.348-3.348 1.774-7.084 2.695-10.873 2.695h-217.783c-3.73 0-7.402-.922-10.699-2.668-3.498-1.853-6.948-3.784-10.347-5.792v-73.166c0-38.66 31.34-70 70-70h150c22.259 0 42.092 10.389 54.913 26.584 1.893 2.391-1.835 5.173-.262 7.802 6.275 10.49 9.881 22.762 9.881 35.877z" fill="#ffcd71"/><path d="m416 430v25.852c-1.753 1.406-3.526 2.788-5.317 4.148h-285.39c-3.728 0-6.749-3.022-6.749-6.749v-16.501c0-3.728 3.022-6.749 6.749-6.749h290.707z" fill="#fffac1"/><path d="m416 403.416v6.584h-290.191c-1.293 0-2.34-1.048-2.34-2.34v-4.243c0-15.474 5.021-29.774 13.522-41.362.939-1.279 2.416-2.054 4.003-2.054h259.92c9.445 11.931 15.086 27.014 15.086 43.415zm-160 108.584c43.507 0 84.479-10.853 120.357-30h-240.713c35.877 19.146 76.849 30 120.356 30z" fill="#fff68e"/><path d="m96 430h30v30h-24.683c-1.791-1.36-3.563-2.743-5.317-4.148z" fill="#fff68e"/><path d="m111.087 360c-9.446 11.932-15.087 27.015-15.087 43.416v6.584h30v-6.584c0-16.401 5.641-31.484 15.087-43.416z" fill="#ffcd71"/><path d="m171.322 418.149v79.514c-5.075-1.778-10.077-3.711-15-5.795v-73.72c0-4.142 3.358-7.5 7.5-7.5s7.5 3.359 7.5 7.501zm176.856-7.5c-4.142 0-7.5 3.358-7.5 7.5v79.514c5.075-1.778 10.077-3.711 15-5.795v-73.72c0-4.141-3.357-7.499-7.5-7.499z" fill="#ffc14f"/><path d="m163.262 206.75h-32.41v-78.133h32.41z" fill="#61362b"/><path d="m381.148 206.75h-32.41v-78.133h32.41z" fill="#784132"/><path d="m207.175 310h97.65c22.414 0 37.496 22.777 28.954 43.499-16.787 40.723-43.774 76.167-77.779 103.15-34.005-26.983-60.992-62.427-77.779-103.15-8.542-20.722 6.54-43.499 28.954-43.499z" fill="#fb5858"/><path d="m265.738 448.522c-3.177 2.787-6.424 5.498-9.738 8.127-34.005-26.983-60.992-62.427-77.779-103.15-8.542-20.722 6.54-43.499 28.954-43.499h19.477c-22.414 0-37.496 22.777-28.954 43.499 15.151 36.755 38.611 69.209 68.04 95.023z" fill="#c83c50"/><path d="m223.563 310h64.873c14.891 0 24.91 15.132 19.235 28.898-11.151 27.055-29.08 50.602-51.671 68.528-22.591-17.926-40.52-41.473-51.672-68.527-5.675-13.767 4.345-28.899 19.235-28.899z" fill="#f87b67"/><path d="m146 243.416c-13.807 0-25-11.193-25-25v-10c0-13.807 11.193-25 25-25 13.807 0 25 11.193 25 25v10c0 13.807-11.193 25-25 25z" fill="#f2d1a5"/><path d="m136 203.416v20c0 8.178 3.927 15.439 9.998 20-13.806-.001-24.998-11.194-24.998-25v-10c0-13.806 11.192-24.999 24.998-25-6.071 4.561-9.998 11.822-9.998 20zm230-20v-20c0-60.751-49.249-110-110-110-60.751 0-110 49.249-110 110v40c0 50.351 33.83 92.8 80 105.859v34.141c0 16.569 13.431 30 30 30s30-13.431 30-30v-34.141c33.586-9.499 60.641-34.551 72.895-66.883 2.252.666 4.637 1.024 7.105 1.024 13.807 0 25-11.193 25-25v-10c0-13.807-11.193-25-25-25z" fill="#f2bb88"/><path d="m366 163.416v40c0 50.792-34.425 93.543-81.216 106.195-9.023 2.44-18.545 2.44-27.568 0-46.791-12.652-81.216-55.403-81.216-106.195v-40c0-55.663 41.345-101.669 95-108.985 53.655 7.316 95 53.322 95 108.985z" fill="#f2d1a5"/><path d="m257.202 2.817c-23.367 30.218-43.397 74.029-58.367 127.183h-55.149c25.553-69.633 65.845-118.377 112.314-130 .09.022.18.045.269.068 1.214.307 1.699 1.759.933 2.749z" fill="#c83c50"/><path d="m368.314 130h-188.314c18.619-58.543 45.064-104.29 76.021-129.995 46.46 11.634 86.744 60.373 112.293 129.995z" fill="#fb5858"/><path d="m441 140h-370c-16.569 0-30-13.431-30-30v-10c0-5.523 8.094-2.191 13.617-2.191l405.383-.171c5.523 0 11-3.161 11 2.362v10c0 16.569-13.431 30-30 30z" fill="#ffc14f"/><path d="m49.906 110c-4.951-.015-8.906-4.154-8.906-9.105v-.895c0-5.523 4.477-10 10-10h4l3.734 2.17h7.532l3.734-2.17h17.5l7.5 3.191 7.5-3.191h17.5l6.915 2.681 8.085-2.681h17.5l7.5 3.468 7.5-3.468h17.5l7.5 2.957 7.5-2.957h17.5l7.5 2.617 7.5-2.617h17.5l8.787 3.298 6.213-3.298h17.5l7.5 3.894 7.5-3.894h17.5l7.5 4.404 7.5-4.404h17.5l7.5 4.915 7.5-4.915h17.5l7.5 3.894 7.5-3.894h17.5l7.5 3.723 7.5-3.723h17.5l2.394 1.766h10.213l2.393-1.766h1c5.523 0 10 4.477 10 10v.894c0 4.951-3.955 9.09-8.906 9.105-.031 0-.063 0-.094 0h-412c-.031.001-.063.001-.094.001z" fill="#ffcd71"/><path d="m250 90h15v18.75c0 4.142-3.358 7.5-7.5 7.5s-7.5-3.358-7.5-7.5zm-32.5 18.75c0 4.142 3.358 7.5 7.5 7.5s7.5-3.358 7.5-7.5v-18.75h-15zm-32.5 0c0 4.142 3.358 7.5 7.5 7.5s7.5-3.358 7.5-7.5v-18.75h-15zm-32.5 0c0 4.142 3.358 7.5 7.5 7.5s7.5-3.358 7.5-7.5v-18.75h-15zm-32.5 0c0 4.142 3.358 7.5 7.5 7.5s7.5-3.358 7.5-7.5v-18.75h-15zm-32.5 0c0 4.142 3.358 7.5 7.5 7.5s7.5-3.358 7.5-7.5v-18.75h-15zm-32.5 0c0 4.142 3.358 7.5 7.5 7.5s7.5-3.358 7.5-7.5v-18.75h-15zm390-18.75v18.75c0 4.142 3.358 7.5 7.5 7.5s7.5-3.358 7.5-7.5v-18.75zm-32.5 18.75c0 4.142 3.358 7.5 7.5 7.5s7.5-3.358 7.5-7.5v-18.75h-15zm-32.5 0c0 4.142 3.358 7.5 7.5 7.5s7.5-3.358 7.5-7.5v-18.75h-15zm-32.5 0c0 4.142 3.358 7.5 7.5 7.5s7.5-3.358 7.5-7.5v-18.75h-15zm-32.5 0c0 4.142 3.358 7.5 7.5 7.5s7.5-3.358 7.5-7.5v-18.75h-15zm-32.5 0c0 4.142 3.358 7.5 7.5 7.5s7.5-3.358 7.5-7.5v-18.75h-15z" fill="#fff68e"/><path d="m261.5 225c0 8.284-6.716 15-15 15h-15v50c-16.569 0-30-13.431-30-30v-22c0-1.309.194-2.573.554-3.765 2.688-13.81 14.849-24.235 29.446-24.235h15c8.284 0 15 6.716 15 15z" fill="#61362b"/><path d="m310.5 238v22c0 16.569-13.431 30-30 30v-50h-15c-8.284 0-15-6.716-15-15s6.716-15 15-15h15c14.597 0 26.758 10.425 29.446 24.235.36 1.192.554 2.456.554 3.765z" fill="#784132"/><path d="m256 273.416c-16.569 0-30-13.431-30-30 0-4.142 3.358-7.5 7.5-7.5h45c4.142 0 7.5 3.358 7.5 7.5 0 16.569-13.431 30-30 30z" fill="#fff5f5"/><path d="m263.5 272.471c-2.397.617-4.91.945-7.5.945-16.568 0-30-13.431-30-30 0-4.142 3.358-7.5 7.5-7.5h15c-4.142 0-7.5 3.358-7.5 7.5 0 13.979 9.561 25.725 22.5 29.055z" fill="#def4f8"/><path d="m270.5 199.54c2.929 2.93 2.929 7.678 0 10.607-3.875 3.875-9.024 6.009-14.5 6.009s-10.625-2.134-14.5-6.009c-2.929-2.93-2.929-7.678 0-10.607 2.929-2.928 7.678-2.928 10.606 0 1.042 1.042 2.424 1.616 3.893 1.616s2.851-.574 3.893-1.616c2.93-2.928 7.679-2.928 10.608 0zm-46.661-34.772c-4.874 4.873-12.804 4.873-17.678 0-2.93-2.928-7.677-2.929-10.607.001-2.929 2.929-2.928 7.678 0 10.606 5.361 5.36 12.403 8.041 19.445 8.041s14.084-2.681 19.445-8.041c2.929-2.929 2.929-7.678 0-10.606-2.927-2.929-7.676-2.93-10.605-.001zm92.607.001c-2.929-2.929-7.678-2.93-10.607-.001-4.874 4.873-12.804 4.873-17.678 0-2.93-2.928-7.677-2.929-10.607.001-2.929 2.929-2.928 7.678 0 10.606 5.361 5.36 12.403 8.041 19.445 8.041s14.084-2.681 19.445-8.041c2.93-2.929 2.931-7.678.002-10.606z" fill="#d6995c"/></g></svg>