<svg id="Capa_1" enable-background="new 0 0 512 512" height="512" viewBox="0 0 512 512" width="512" xmlns="http://www.w3.org/2000/svg"><g><path d="m480.133 385.797c0-27.472-17.603-51.853-43.68-60.497l-35.988-11.93h-.001l-10 99.865 10 98.764h79.669z" fill="#6680ff"/><path d="m360.463 314.471 10 197.529h30v-198.63z" fill="#332866"/><path d="m312.913 316.583s-30.832 42.318-47.109 64.659l22.064 130.758h82.596v-197.529z" fill="#6680ff"/><path d="m265.804 381.243s-19.804 3.457-19.804 3.457l10 127.3h31.868v-100.433c0-14.179-9.262-26.188-22.064-30.324z" fill="#e50058"/><path d="m31.867 385.797c0-27.472 17.603-51.853 43.68-60.497l35.988-11.93h.001l10 99.865-10 98.764h-79.669z" fill="#80aaff"/><path d="m151.537 314.471-10 197.529h-30v-198.63z" fill="#574d8c"/><path d="m199.087 316.583s30.832 42.318 47.109 64.659l-22.064 130.758h-82.596v-197.529z" fill="#80aaff"/><path d="m246.196 381.243s9.804 3.457 9.804 3.457v127.3h-31.868v-100.433c0-14.179 9.262-26.188 22.064-30.324z" fill="#ff4a4a"/><path d="m312.913 369.083v-52.499l-66.913-7.912 10 86.027c22.649 0 42.985-9.903 56.913-25.616z" fill="#c50048"/><path d="m199.087 369.083v-52.499l56.913-7.912v10 76.027c-22.649 0-42.985-9.903-56.913-25.616z" fill="#e50058"/><path d="m332.191 386.158 68.274-72.788-65.843-21.826h-78.622v27.128z" fill="#80aaff"/><path d="m179.809 386.158-68.274-72.788 65.843-21.826h78.622v27.128z" fill="#9cf"/><path d="m373.469 191.204h31.867c17.6 0 31.868-14.268 31.868-31.868 0-17.6-14.268-31.868-31.868-31.868h-31.867z" fill="#ffcdbe"/><path d="m138.531 191.204h-31.867c-17.6 0-31.868-14.268-31.868-31.868 0-17.6 14.268-31.868 31.868-31.868h31.867z" fill="#ffdecf"/><path d="m355.985 11.281c-12.919-3.08-27.821-5.906-44.574-7.959l-25.577 70.938 10 53.208h87.635l13.939-41.818c10.716-32.146-8.461-66.51-41.423-74.369z" fill="#ffda44"/><path d="m311.411 3.322c-16.677-2.044-35.188-3.322-55.411-3.322l-10 127.469h49.834v-53.209z" fill="#ffb655"/><path d="m156.015 11.281c-32.962 7.859-52.139 42.223-41.423 74.37l13.939 41.818h127.469v-127.469c-40.539 0-74.206 5.134-99.985 11.281z" fill="#ffda44"/><path d="m295.834 74.26c-10.834 11.406-24.716 20.361-39.834 27.401l-10 73.608 10 143.403c70.399 0 127.469-57.07 127.469-127.469v-63.735z" fill="#ffdecf"/><path d="m128.531 127.469v63.735c0 70.399 57.07 127.469 127.469 127.469v-217.012c-55.406 25.801-127.469 25.808-127.469 25.808z" fill="#ffeee5"/><path d="m184.299 160.27h31.867v30h-31.867z" fill="#332866"/><path d="m295.834 160.27h31.867v30h-31.867z" fill="#180a33"/></g></svg>