<svg height="512pt" viewBox="-1 0 512 512.00001" width="512pt" xmlns="http://www.w3.org/2000/svg"><path d="m510.554688 256.722656c0 140.984375-114.292969 255.277344-255.277344 255.277344s-255.277344-114.292969-255.277344-255.277344 114.292969-255.277344 255.277344-255.277344 255.277344 114.292969 255.277344 255.277344zm0 0" fill="#ff931f"/><path d="m409.617188 453.929688c23.1875-23.1875 23.1875-60.78125 0-83.96875s-60.78125-23.1875-83.96875 0" fill="#181e21"/><path d="m115.890625 175.722656c-7.097656-20.757812-23.964844-35.394531-43.710937-40.558594-12.445313 16.171876-16.816407 38.074219-9.714844 58.832032 7.097656 20.757812 23.964844 35.394531 43.707031 40.5625 12.445313-16.175782 16.816406-38.078125 9.71875-58.835938zm0 0" fill="#f93d6e"/><path d="m108.707031 204.234375c-1.96875-5.753906-5.355469-10.625-9.628906-14.351563-7.046875-6.144531-18.09375-2.367187-19.902344 6.804688-1.097656 5.566406-.789062 11.488281 1.175781 17.242188 3.769532 11.015624 12.71875 18.78125 23.195313 21.523437 6.605469-8.582031 8.925781-20.203125 5.160156-31.21875zm0 0" fill="#e41753"/><path d="m50.722656 217.945312c-20.757812 7.097657-35.398437 23.964844-40.5625 43.707032 16.175782 12.445312 38.078125 16.816406 58.832032 9.71875 20.757812-7.097656 35.398437-23.964844 40.5625-43.710938-16.175782-12.445312-38.078126-16.8125-58.832032-9.714844zm0 0" fill="#f93d6e"/><path d="m80.789062 222.910156c-4.363281 1.492188-8.167968 3.867188-11.296874 6.855469-7.410157 7.082031-3.09375 19.703125 7.105468 20.765625 4.300782.449219 8.765625-.007812 13.125-1.5 10.148438-3.46875 17.304688-11.714844 19.832032-21.367188-7.910157-6.085937-18.617188-8.222656-28.765626-4.753906zm0 0" fill="#e41753"/><path d="m397.285156 468.882812c-12.304687 8.257813-25.367187 15.476563-39.070312 21.507813-10.621094 4.6875-21.617188 8.675781-32.9375 11.886719-22.234375 6.332031-45.71875 9.722656-70 9.722656-24.273438 0-47.753906-3.390625-70.003906-9.710938-7.21875-2.054687-14.316407-4.429687-21.269532-7.101562-.425781-.160156-.855468-.320312-1.285156-.488281-3.5-1.355469-6.960938-2.800781-10.378906-4.308594-13.703125-6.042969-26.765625-13.25-39.082032-21.519531 10.363282-14.328125 23.695313-26.355469 39.082032-35.21875 10.171875-5.855469 21.238281-10.3125 32.933594-13.113282 1.808593-.4375 3.632812-.835937 5.464843-1.1875 3.460938-.675781 6.980469-1.195312 10.542969-1.566406 1.027344-.109375 2.042969-.207031 3.078125-.289062 3.371094-.277344 6.78125-.417969 10.234375-.417969h81.359375c4.507813 0 8.945313.238281 13.3125.699219 3.558594.367187 7.070313.898437 10.539063 1.554687 1.386718.269531 2.761718.558594 4.128906.867188.449218.121093.90625.210937 1.34375.328125 11.707031 2.8125 22.765625 7.269531 32.9375 13.125 15.386718 8.875 28.710937 20.898437 39.070312 35.230468zm0 0" fill="#2f373b"/><path d="m214.59375 417.078125c-29.277344 0-49.121094 42.3125-50.589844 78.109375-.425781-.160156-.855468-.320312-1.285156-.488281-3.5-1.355469-6.960938-2.800781-10.378906-4.308594-13.703125-6.042969-26.765625-13.25-39.082032-21.519531 10.363282-14.328125 23.695313-26.355469 39.082032-35.21875 10.171875-5.855469 21.238281-10.3125 32.933594-13.113282 1.808593-.4375 3.632812-.835937 5.464843-1.1875 3.460938-.675781 6.980469-1.195312 10.542969-1.566406 1.027344-.109375 2.042969-.207031 3.078125-.289062 3.371094-.277344 6.78125-.417969 10.234375-.417969zm0 0" fill="#181e21"/><path d="m132.164062 278.8125c0 20.441406-14.929687 37.386719-34.480468 40.53125-2.136719.347656-4.332032.527344-6.578125.527344-22.679688 0-41.058594-18.375-41.058594-41.058594s18.378906-41.058594 41.058594-41.058594c2.246093 0 4.441406.179688 6.578125.527344 19.550781 3.144531 34.480468 20.09375 34.480468 40.53125zm0 0" fill="#f9c5ac"/><path d="m132.164062 278.8125c0 20.441406-14.929687 37.386719-34.480468 40.53125-3.550782-12.914062-5.449219-26.503906-5.449219-40.53125s1.898437-27.617188 5.449219-40.53125c19.550781 3.144531 34.480468 20.09375 34.480468 40.53125zm0 0" fill="#efb29a"/><path d="m105.78125 278.8125c0 8.105469-6.570312 14.675781-14.675781 14.675781-8.101563 0-14.671875-6.570312-14.671875-14.675781s6.570312-14.671875 14.671875-14.671875c8.105469 0 14.675781 6.566406 14.675781 14.671875zm0 0" fill="#efb29a"/><path d="m378.378906 278.8125c0 20.441406 14.929688 37.386719 34.480469 40.53125 2.136719.347656 4.335937.527344 6.578125.527344 22.679688 0 41.058594-18.375 41.058594-41.058594s-18.378906-41.058594-41.058594-41.058594c-2.242188 0-4.441406.179688-6.578125.527344-19.550781 3.144531-34.480469 20.09375-34.480469 40.53125zm0 0" fill="#f9c5ac"/><path d="m378.378906 278.8125c0 20.441406 14.929688 37.386719 34.480469 40.53125 3.550781-12.914062 5.449219-26.503906 5.449219-40.53125s-1.898438-27.617188-5.449219-40.53125c-19.550781 3.144531-34.480469 20.09375-34.480469 40.53125zm0 0" fill="#efb29a"/><path d="m434.109375 278.8125c0 8.105469-6.570313 14.675781-14.671875 14.675781-8.105469 0-14.675781-6.570312-14.675781-14.675781s6.570312-14.671875 14.675781-14.671875c8.101562 0 14.671875 6.566406 14.671875 14.671875zm0 0" fill="#efb29a"/><path d="m409.535156 257.234375c0 76.765625-56.082031 140.449219-129.503906 152.273437-8.054688 1.320313-16.324219 1.988282-24.757812 1.988282-85.203126 0-154.265626-69.058594-154.265626-154.261719v-18.953125l23.4375-67.589844 132.839844-37.207031 152.25 43.773437zm0 0" fill="#f9c5ac"/><path d="m282.441406 409.101562c-.796875.140626-1.605468.277344-2.410156.410157-8.058594 1.316406-16.324219 1.984375-24.761719 1.984375-85.199219 0-154.261719-69.054688-154.261719-154.265625v-18.949219l54.394532-138.105469v157.054688c0 75.925781 54.824218 139.015625 127.039062 151.871093zm0 0" fill="#efb29a"/><path d="m255.265625 299.421875c38.570313 0 61.457031 2.980469 68.917969 30.34375 3.019531 11.097656 12.730468 12.722656 23.210937 5.335937 12.1875-8.585937 25.410157-29.367187 30.335938-61.617187 1.503906-9.839844 0-86.503906 0-86.503906s25.816406 40.675781 31.800781 40.675781v62.34375c0 63.660156-33.75 122.546875-88.675781 154.726562l-65.589844 38.425782-65.585937-38.425782c-54.925782-32.179687-88.675782-91.066406-88.675782-154.726562v-62.34375c5.984375 0 31.800782-40.675781 31.800782-40.675781s-1.507813 76.664062 0 86.503906c4.925781 32.25 18.148437 53.03125 30.332031 61.617187 10.480469 7.386719 20.195312 5.761719 23.214843-5.335937 7.460938-27.363281 30.34375-30.34375 68.914063-30.34375zm0 0" fill="#f1eee9"/><path d="m234.972656 444.730469 20.292969 38.421875-65.582031-38.421875c-54.933594-32.179688-88.679688-91.070313-88.679688-154.730469v-62.34375c5.984375 0 31.800782-40.675781 31.800782-40.675781s-1.507813 76.664062 0 86.503906c4.925781 32.25 18.148437 53.03125 30.332031 61.617187 10.480469 7.386719 20.195312 5.761719 23.214843-5.335937 3.570313-13.113281 10.691407-20.621094 21.378907-24.898437 1.488281 57.855468 11.589843 110.207031 27.242187 139.863281zm0 0" fill="#d7d3cd"/><path d="m272.773438 292.316406h-35c-4.171876 0-7.550782-3.378906-7.550782-7.550781 0-4.167969 3.378906-7.546875 7.550782-7.546875h35c4.167968 0 7.546874 3.378906 7.546874 7.546875 0 4.171875-3.378906 7.550781-7.546874 7.550781zm0 0" fill="#efb29a"/><path d="m280.546875 249.902344c0 17.117187 13.875 30.992187 30.992187 30.992187 17.113282 0 30.992188-13.875 30.992188-30.992187" fill="#efb29a"/><path d="m333.761719 249.902344c0 12.273437-9.949219 22.226562-22.222657 22.226562-12.273437 0-22.226562-9.953125-22.226562-22.226562 0-12.273438 9.953125-22.222656 22.226562-22.222656 12.273438 0 22.222657 9.949218 22.222657 22.222656zm0 0" fill="#2f373b"/><path d="m330.324219 245.980469c0 5.257812-4.265625 9.523437-9.523438 9.523437-5.261719 0-9.523437-4.265625-9.523437-9.523437 0-5.257813 4.261718-9.523438 9.523437-9.523438 5.257813 0 9.523438 4.265625 9.523438 9.523438zm0 0" fill="#fff"/><path d="m168.015625 249.902344c0 17.117187 13.875 30.992187 30.992187 30.992187 17.113282 0 30.992188-13.875 30.992188-30.992187" fill="#efb29a"/><path d="m221.230469 249.902344c0 12.273437-9.949219 22.226562-22.222657 22.226562-12.277343 0-22.226562-9.953125-22.226562-22.226562 0-12.273438 9.949219-22.222656 22.226562-22.222656 12.273438 0 22.222657 9.949218 22.222657 22.222656zm0 0" fill="#2f373b"/><path d="m204.203125 271.511719c-1.664063.410156-3.410156.617187-5.195313.617187-12.273437 0-22.226562-9.949218-22.226562-22.226562 0-12.273438 9.953125-22.226563 22.226562-22.226563 1.785157 0 3.53125.210938 5.195313.617188-9.773437 2.335937-17.019531 11.128906-17.019531 21.609375 0 10.480468 7.246094 19.277344 17.019531 21.609375zm0 0" fill="#181e21"/><path d="m316.734375 271.511719c-1.664063.410156-3.410156.617187-5.195313.617187-12.273437 0-22.226562-9.949218-22.226562-22.226562 0-12.273438 9.953125-22.226563 22.226562-22.226563 1.785157 0 3.53125.210938 5.195313.617188-9.773437 2.335937-17.019531 11.128906-17.019531 21.609375 0 10.480468 7.246094 19.277344 17.019531 21.609375zm0 0" fill="#181e21"/><path d="m217.792969 245.980469c0 5.257812-4.265625 9.523437-9.523438 9.523437-5.261719 0-9.523437-4.265625-9.523437-9.523437 0-5.257813 4.261718-9.523438 9.523437-9.523438 5.257813 0 9.523438 4.265625 9.523438 9.523438zm0 0" fill="#fff"/><path d="m409.539062 155.101562v82.367188c0 5.402344-6.769531 7.777344-10.191406 3.589844-74.136718-90.695313-214.011718-90.695313-288.152344 0-3.421874 4.1875-10.191406 1.8125-10.191406-3.589844v-82.398438c0-1.105468.011719-2.214843.039063-3.320312 1.726562-82.40625 67.777343-150.113281 150.566406-151.7109375 1.445313-.0273437 2.878906-.0390625 4.324219-.0390625 83.964844.300781 151.800781 68.195312 153.566406 151.75.03125 1.117188.039062 2.234375.039062 3.351562zm0 0" fill="#f93d6e"/><path d="m290.871094 4.136719c-68.058594 16.214843-118.238282 78.160156-118.238282 150.933593v37.085938c-22.964843 11.296875-44.015624 27.589844-61.433593 48.902344-3.421875 4.1875-10.191407 1.8125-10.191407-3.589844v-82.398438c0-83.902343 66.710938-153.414062 150.601563-155.0312495 1.4375-.0273437 2.882813-.0390625 4.328125-.0390625 12.027344.0390625 23.714844 1.476562 34.933594 4.136719zm0 0" fill="#e41753"/><path d="m234.492188 123.757812v26.527344h8.941406v-7.074218h7.074218v7.074218h9.53125v-7.074218h7.074219v7.074218h8.9375v-26.527344zm0 0" fill="#2f373b"/><path d="m291.085938 107.621094c0 19.777344-16.035157 35.8125-35.8125 35.8125-19.78125 0-35.8125-16.035156-35.8125-35.8125 0-19.78125 16.03125-35.8125 35.8125-35.8125 19.777343 0 35.8125 16.03125 35.8125 35.8125zm0 0" fill="#2f373b"/><path d="m249.125 112.703125c0 5.859375-4.75 10.613281-10.613281 10.613281-5.859375 0-10.609375-4.753906-10.609375-10.613281s4.75-10.609375 10.609375-10.609375c5.863281 0 10.613281 4.75 10.613281 10.609375zm0 0" fill="#f93d6e"/><path d="m282.640625 112.703125c0 5.859375-4.75 10.613281-10.609375 10.613281s-10.613281-4.753906-10.613281-10.613281 4.753906-10.609375 10.613281-10.609375 10.609375 4.75 10.609375 10.609375zm0 0" fill="#f93d6e"/><path d="m255.273438 351.578125c-12.917969 0-25.835938-3.238281-37.609376-9.710937-3.324218-1.828126-4.535156-6-2.707031-9.320313 1.824219-3.320313 5.996094-4.53125 9.316407-2.707031 19.410156 10.671875 42.585937 10.667968 61.996093 0 3.320313-1.824219 7.492188-.613282 9.320313 2.707031 1.824218 3.320313.613281 7.492187-2.707032 9.320313-11.777343 6.472656-24.691406 9.710937-37.609374 9.710937zm0 0" fill="#efb29a"/><g fill="#ffbb16"><path d="m370.507812 439.535156c0 6.226563-5.046874 11.273438-11.273437 11.273438s-11.273437-5.046875-11.273437-11.273438c0-6.226562 5.046874-11.273437 11.273437-11.273437s11.273437 5.046875 11.273437 11.273437zm0 0"/><path d="m393.402344 460.4375c0 6.226562-5.046875 11.277344-11.273438 11.277344-6.226562 0-11.273437-5.050782-11.273437-11.277344s5.046875-11.273438 11.273437-11.273438c6.226563 0 11.273438 5.046876 11.273438 11.273438zm0 0"/><path d="m162.582031 439.535156c0 6.226563-5.046875 11.273438-11.273437 11.273438-6.226563 0-11.273438-5.046875-11.273438-11.273438 0-6.226562 5.046875-11.273437 11.273438-11.273437 6.226562 0 11.273437 5.046875 11.273437 11.273437zm0 0"/><path d="m139.691406 460.4375c0 6.226562-5.046875 11.277344-11.273437 11.277344-6.226563 0-11.277344-5.050782-11.277344-11.277344s5.050781-11.273438 11.277344-11.273438c6.226562 0 11.273437 5.046876 11.273437 11.273438zm0 0"/></g></svg>