<svg id="Capa_1" enable-background="new 0 0 512 512" height="512" viewBox="0 0 512 512" width="512" xmlns="http://www.w3.org/2000/svg"><g><g><path d="m55.031 407.139c-27.744-39.712-44.031-88.02-44.031-140.139 0-135.31 109.69-245 245-245s245 109.69 245 245c0 52.119-16.287 100.427-44.031 140.139z" fill="#ffdd40"/></g><g><circle cx="256" cy="242" fill="#ffc839" r="200"/></g><g><path d="m348.593 64.834c-15.486-34.415-43.5-64.834-73.727-64.834-12.234 0-18.866 12-18.866 12s-6.635-12-18.869-12c-30.227 0-58.241 30.419-73.726 64.834-10.98 23.725-45.223 58.317-29.862 90.26 4.798 9.977 5.859 21.241 3.377 32.03-.906 3.938-1.189 7.928-.643 11.992 3.771 28.069 37.792 75.63 119.724 75.63s115.949-47.561 119.721-75.63c.546-4.064.263-8.054-.643-11.992-2.482-10.789-1.421-22.053 3.377-32.03 15.36-31.943-18.883-66.535-29.863-90.26z" fill="#b76c4e"/></g><g><path d="m256 181.213h-42.425v-98.278c-11.245-13.84-32.62-55.859-3.24-75.155-19.381 11.197-36.178 33.156-46.931 57.054-10.98 23.725-45.223 58.317-29.862 90.26 4.798 9.977 5.859 21.241 3.377 32.03-.906 3.938-1.189 7.928-.643 11.992 3.771 28.069 37.792 75.63 119.724 75.63z" fill="#a05838"/></g><g><path d="m148.846 336.115h-32.052c-14.961 4.941-27.729 10.475-34.352 16.323-.874.772-1.765 1.712-2.668 2.79-7.732 9.226-16.467 29.203-24.722 51.911-.001.009-.001.018-.002.026 16.026 22.934 35.879 42.995 58.629 59.263h100.214c-41.524-40.671-58.431-97.497-65.047-130.313z" fill="#fff"/><path d="m215.117 466.929h-101.599l-.131-.094c-22.88-16.361-42.646-36.341-58.748-59.384l-.108-.154.05-.329c9.569-26.319 17.916-43.836 24.809-52.062.946-1.128 1.861-2.085 2.721-2.844 6.028-5.321 17.644-10.848 34.526-16.423l.157-.025h32.461l.081.401c6.237 30.938 22.964 88.975 64.906 130.056zm-101.278-1h98.834c-41.318-41.037-57.957-98.381-64.237-129.314h-31.562c-16.711 5.524-28.185 10.975-34.101 16.198-.822.726-1.703 1.646-2.616 2.736-6.799 8.113-15.06 25.451-24.554 51.535 15.98 22.819 35.571 42.615 58.236 58.845z"/></g><g><path d="m456.949 407.139c-8.256-22.709-16.99-42.685-24.722-51.911-.904-1.078-1.795-2.019-2.668-2.79-6.623-5.848-19.39-11.382-34.352-16.323-37.929-12.525-89.967-21.232-91.82-21.54h-94.772c-1.853.307-53.892 9.014-91.82 21.54-14.961 4.941-27.729 10.475-34.352 16.323-.874.772-1.765 1.712-2.668 2.79-7.732 9.226-16.467 29.203-24.722 51.911-.001.009-.001.018-.002.026 36.568 52.328 93.045 89.714 158.449 101.156l42.5-20.47 42.502 20.471c65.403-11.443 121.881-48.828 158.449-101.156-.001-.009-.001-.018-.002-.027z" fill="#ff4155"/></g><g><path d="m224.985 502.789c-72.804-59.054-90.19-136.817-94.341-170.923-4.742 1.359-9.394 2.777-13.85 4.249-14.961 4.941-27.729 10.475-34.352 16.323-.874.772-1.765 1.712-2.668 2.79-7.732 9.226-16.467 29.203-24.722 51.911-.001.009-.001.018-.002.026 36.572 52.335 93.064 89.705 158.477 101.143z" fill="#e80054"/></g><g><path d="m349.296 379.57c5.805-7.806 5.152-18.657-1.547-25.71l-35.902-37.796c-4.95-.903-8.035-1.419-8.461-1.489h-94.772c-.426.071-3.51.586-8.461 1.489l-35.902 37.796c-6.7 7.053-7.353 17.904-1.547 25.71l26.774 36c2.603 3.5 2.637 8.282.085 11.819l-8.73 12.099c-5.035 6.977-5.043 16.393-.02 23.379l32.684 45.455c7.356 1.287 14.829 2.236 22.395 2.852l20.108-23.323 20.107 23.323c7.566-.616 15.039-1.565 22.395-2.852l32.684-45.455c5.023-6.986 5.015-16.401-.02-23.379l-8.73-12.099c-2.552-3.537-2.518-8.32.085-11.819z" fill="#2d3c6b"/></g><g><path d="m303.386 314.575h-94.772l27.272 196.606c6.634.539 13.341.819 20.114.819s13.48-.28 20.114-.819z" fill="#dae2fe"/></g><g><path d="m276.114 511.181 4.111-29.633c-26.458-6.208-53.849-38.937-60.138-84.271l15.8 113.904c6.633.539 13.34.819 20.113.819s13.48-.28 20.114-.819z" fill="#bec8f7"/></g><g><path d="m248.5 511.873c2.492.076 4.99.127 7.5.127s5.008-.051 7.5-.127v-197.298h-15z" fill="#acbbef"/></g><g><path d="m91.07 426.843v21.327c7.157 6.519 14.704 12.617 22.599 18.262l-12.035-41.103c-1.75-5.98-10.564-4.716-10.564 1.514z" fill="#cc0053"/></g><g><path d="m420.93 426.843v21.327c-7.157 6.519-14.704 12.617-22.599 18.262l12.035-41.103c1.75-5.98 10.564-4.716 10.564 1.514z" fill="#e80054"/></g><g><path d="m208.614 221.239v93.336s19.021 33.261 47.17 33.261c.073 0 .143-.005.216-.005 28.031-.103 47.386-33.256 47.386-33.256v-93.336z" fill="#fcad6d"/></g><g><path d="m208.614 220.734v93.841c94.723 0 94.772-53.4 94.772-53.4v-40.44h-94.772z" fill="#fd995b"/></g><g><path d="m303.386 299.609-47.386 48.222s18.328 33.146 30.188 33.146c7.034 0 17.106-22.384 24.137-40.597 5.342-13.84 2.694-29.488-6.939-40.771z" fill="#e9efff"/></g><g><path d="m208.614 299.609 47.386 48.222s-18.328 33.146-30.188 33.146c-7.034 0-17.106-22.384-24.137-40.597-5.342-13.84-2.694-29.488 6.939-40.771z" fill="#e9efff"/></g><g><path d="m180.942 159.567s-10.385-25.285-28.897-19.415.448 60.664 36.573 64.116z" fill="#fd995b"/></g><g><path d="m331.058 159.567s10.385-25.285 28.897-19.415-.448 60.664-36.573 64.116z" fill="#fcad6d"/></g><g><path d="m279.623 95.694 12.283 14.501c2.38 2.809.013 7.078-3.631 6.548-55.268-8.042-74.702-33.809-74.702-33.809-15.713 7.454-23.178 25.856-28.624 41.82-2.762 8.097-8.72 14.703-16.484 18.295l-.015-.007c-.029 1.231-.049 2.467-.049 3.713 0 64.505 39.219 140.155 87.597 140.155s87.597-75.651 87.597-140.155c0-1.244-.02-2.479-.049-3.71-21.033-24.057-43.596-38.596-63.923-47.351z" fill="#f9ba8f"/></g><g><path d="m208.403 146.754c0-21.401 4.332-40.792 11.868-57.171-4.647-3.937-6.696-6.649-6.696-6.649-15.713 7.454-23.178 25.856-28.624 41.82-2.762 8.097-8.72 14.703-16.484 18.295l-.015-.007c-.029 1.231-.049 2.468-.049 3.713 0 64.505 39.219 140.155 87.597 140.155 6.881 0 13.576-1.535 20-4.346-38.741-16.953-67.597-80.48-67.597-135.81z" fill="#fcad6d"/></g><g><g><g><path d="m235.046 167.697c-1.657 0-3.278-.823-4.23-2.327-1.477-2.334-.782-5.423 1.552-6.899 7.119-4.504 15.291-6.885 23.634-6.885 8.338 0 16.507 2.379 23.624 6.879 2.334 1.476 3.029 4.563 1.554 6.897-1.476 2.334-4.564 3.029-6.898 1.554-5.515-3.486-11.835-5.33-18.279-5.33-6.447 0-12.771 1.845-18.287 5.336-.83.524-1.756.775-2.67.775z" fill="#4432ad"/></g></g><g><g><circle cx="213.5" cy="170.118" fill="#7255ce" r="27.025"/></g></g><g><g><path d="m206.475 170.118c0-11.392 7.052-21.13 17.025-25.106-3.094-1.233-6.466-1.919-10-1.919-14.926 0-27.025 12.1-27.025 27.025s12.1 27.025 27.025 27.025c3.534 0 6.906-.685 10-1.919-9.973-3.975-17.025-13.714-17.025-25.106z" fill="#5c45bf"/></g></g><g><g><circle cx="298.5" cy="170.118" fill="#7255ce" r="27.025"/></g></g><g><g><path d="m291.475 170.118c0-11.392 7.052-21.13 17.025-25.106-3.094-1.233-6.466-1.919-10-1.919-14.926 0-27.025 12.1-27.025 27.025s12.1 27.025 27.025 27.025c3.534 0 6.906-.685 10-1.919-9.973-3.975-17.025-13.714-17.025-25.106z" fill="#5c45bf"/></g></g></g><g><path d="m311.239 162.03c.043-3.495-1.371-7.004-4.242-9.539-4.675-4.128-11.84-4.128-16.515 0-2.871 2.535-4.284 6.044-4.242 9.539.055 4.538 5.629 6.716 8.838 3.507 2.022-2.022 5.3-2.022 7.322 0 3.21 3.209 8.784 1.031 8.839-3.507z" fill="#2d2296"/></g><g><path d="m200.761 162.03c-.043-3.495 1.371-7.004 4.242-9.539 4.675-4.128 11.84-4.128 16.515 0 2.871 2.535 4.284 6.044 4.242 9.539-.055 4.538-5.629 6.716-8.838 3.507-2.022-2.022-5.3-2.022-7.322 0-3.21 3.209-8.784 1.031-8.839-3.507z" fill="#2d2296"/></g><g><path d="m223.5 138.968h-20c-4.142 0-7.5-3.358-7.5-7.5 0-4.142 3.358-7.5 7.5-7.5h20c4.142 0 7.5 3.358 7.5 7.5 0 4.142-3.358 7.5-7.5 7.5z" fill="#934a2e"/></g><g><path d="m308.5 138.968h-20c-4.142 0-7.5-3.358-7.5-7.5 0-4.142 3.358-7.5 7.5-7.5h20c4.142 0 7.5 3.358 7.5 7.5 0 4.142-3.358 7.5-7.5 7.5z" fill="#934a2e"/></g><g><g><path d="m242.013 192.447 8.436-13.441c2.569-4.093 8.533-4.093 11.102 0l8.436 13.441c2.739 4.365-.398 10.038-5.551 10.038h-16.871c-5.154-.001-8.291-5.674-5.552-10.038z" fill="#fd995b"/></g></g><g><g><path d="m235.384 240.87h41.233c4.111-3.622 7.258-8.309 9.01-13.631 1.584-4.811-2.069-9.754-7.134-9.754h-44.985c-5.065 0-8.718 4.943-7.134 9.754 1.752 5.322 4.899 10.009 9.01 13.631z" fill="#162544"/></g><g><path d="m276.616 240.87c-5.493 4.849-12.714 7.798-20.616 7.798s-15.124-2.948-20.616-7.798c5.5-4.849 12.714-7.798 20.616-7.798s15.116 2.949 20.616 7.798z" fill="#ff4155"/></g></g></g></svg>