<svg id="Capa_1" enable-background="new 0 0 512 512" height="512" viewBox="0 0 512 512" width="512" xmlns="http://www.w3.org/2000/svg"><g><path d="m0 256c0-141.265 114.42-255.805 255.64-256 140.614-.194 255.686 114.138 256.357 254.75.389 81.557-37.361 154.312-96.445 201.459-4.947 3.947-11.891 4.227-17.147.702-40.715-27.304-89.7-43.232-142.405-43.232-52.848 0-101.956 16.014-142.736 43.454-5.054 3.401-11.739 3.114-16.506-.678-58.96-46.898-96.758-119.263-96.758-200.455z" fill="#60c8dd"/><path d="m452 256c0 108.248-87.752 196-196 196s-196-87.752-196-196 87.752-196 196-196 196 87.752 196 196z" fill="#7cd2e3"/><path d="m209.333 313.416c-38.66 0-70 31.34-70 70v86.281c0 6.516-7.081 10.555-12.701 7.257-10.735-6.299-20.97-13.358-30.632-21.103v-72.435c0-38.66 31.34-70 70-70z" fill="#b03244"/><path d="m156.707 492.031c-10.62-4.473-20.874-9.641-30.707-15.449v-93.166c0-38.66 31.34-70 70-70h65.344v126.584h-30.684c-31.201 0-57.634 20.414-66.673 48.614-.979 3.055-4.324 4.662-7.28 3.417z" fill="#c83c50"/><path d="m416 383.416v72.435c-43.827 35.134-99.459 56.149-160 56.149-29.406 0-57.654-4.959-83.954-14.085-2.132-.74-3.547-2.768-3.547-5.025v-32.614l144.586-146.86h32.915c38.66 0 70 31.34 70 70z" fill="#fb5858"/><path d="m387 147.832v111.668c0 27.89-22.61 50.5-50.5 50.5h-80.5c-72.349 0-131-58.651-131-131v-31.168c0-72.349 58.651-131 131-131 72.349 0 131 58.651 131 131z" fill="#784132"/><path d="m308.766 310h-52.766c-72.349 0-131-58.651-131-131v-31.168c0-72.349 58.651-131 131-131 9.037 0 17.861.915 26.383 2.658-59.703 12.208-104.617 65.03-104.617 128.342v31.168c0 72.349 58.651 131 131 131z" fill="#61362b"/><path d="m146 223.416c-13.807 0-25-11.193-25-25v-10c0-13.807 11.193-25 25-25 13.807 0 25 11.193 25 25v10c0 13.807-11.193 25-25 25z" fill="#f2bb88"/><path d="m136 183.416v20c0 8.178 3.927 15.439 9.998 20-13.806-.001-24.998-11.194-24.998-25v-10c0-13.806 11.192-24.999 24.998-25-6.071 4.561-9.998 11.822-9.998 20zm230-20v-20c0-60.751-49.249-110-110-110-60.751 0-110 49.249-110 110v40c0 50.351 33.83 92.8 80 105.859v34.141c0 16.569 13.431 30 30 30s30-13.431 30-30v-34.141c33.586-9.499 60.641-34.551 72.895-66.883 2.252.666 4.637 1.024 7.105 1.024 13.807 0 25-11.193 25-25v-10c0-13.807-11.193-25-25-25z" fill="#e3a76f"/><path d="m366 143.416v40c0 50.792-34.425 93.543-81.216 106.195-9.023 2.44-18.545 2.44-27.568 0-46.791-12.652-81.216-55.403-81.216-106.195v-40c0-55.663 41.345-101.669 95-108.985 53.655 7.316 95 53.322 95 108.985z" fill="#f2bb88"/><path d="m223.5 150.916c0 8.284-6.716 15-15 15s-15-6.716-15-15 6.716-15 15-15 15 6.716 15 15zm80-15c-8.284 0-15 6.716-15 15s6.716 15 15 15 15-6.716 15-15-6.716-15-15-15z" fill="#4c2c21"/><path d="m226 143.416c0 4.142-3.358 7.5-7.5 7.5s-7.5-3.358-7.5-7.5 3.358-7.5 7.5-7.5 7.5 3.358 7.5 7.5zm87.5-7.5c-4.142 0-7.5 3.358-7.5 7.5s3.358 7.5 7.5 7.5 7.5-3.358 7.5-7.5-3.358-7.5-7.5-7.5z" fill="#fff5f5"/><path d="m355.678 449.032v42.837c-4.923 2.083-9.925 4.016-15 5.795v-48.631c0-4.142 3.358-7.5 7.5-7.5s7.5 3.357 7.5 7.499z" fill="#c83c50"/><path d="m382.364 113.168h-65.864c-24.167 0-45.831-10.716-60.5-27.656-14.669 16.94-36.333 27.656-60.5 27.656h-15.289s15.44-96.335 75.789-96.335c60.349-.001 111.167 40.808 126.364 96.335z" fill="#784132"/><path d="m180.211 113.168h-50.575c15.197-55.527 66.015-96.336 126.364-96.336 8.667 0 17.138.842 25.335 2.448-48.876 9.578-88.109 46.335-101.124 93.888z" fill="#61362b"/><path d="m266.607 101.82c-5.858 5.858-15.355 5.858-21.213 0-5.858-5.858-5.858-15.355 0-21.213l5.606-5.607v-60c0-2.761 2.239-5 5-5s5 2.239 5 5v60l5.607 5.607c5.857 5.857 5.857 15.355 0 21.213z" fill="#fff68e"/><path d="m355.89 314.11-183.815 183.816c-.283-.098-.565-.197-.847-.296-2.658-.932-4.43-3.451-4.43-6.268v-47.743l130.202-130.203h49c3.357 0 6.659.237 9.89.694z" fill="#fff36c"/><path d="m224.968 385.448 72.032-72.032h21.202v38.382l-63.442 63.442c-13.271 13.271-35.962 3.872-35.962-14.896 0-5.587 2.219-10.945 6.17-14.896z" fill="#fff68e"/><path d="m171.322 418.684v78.979c-5.075-1.778-10.077-3.711-15-5.795v-73.185c0-4.142 3.358-7.5 7.5-7.5s7.5 3.359 7.5 7.501z" fill="#b03244"/><path d="m376.766 315c0 16.569-13.431 30-30 30h-6c11.046 0 20 8.954 20 20 0 11.046-8.954 20-20 20h-2.076c6.02 3.447 10.075 9.934 10.075 17.368v7.632c0 16.569-13.431 30-30 30-5.523 0-10-4.477-10-10v-27.632c0-7.434 4.056-13.92 10.076-17.368h-2.076c-11.046 0-20-8.954-20-20 0-11.046 8.954-20 20-20h-6c-16.568 0-30-13.431-30-30 0-16.568 13.432-30 30-30h36c16.569 0 30.001 13.431 30.001 30z" fill="#784132"/><path d="m241.5 190.148c-2.929-2.93-2.929-7.678 0-10.607 2.929-2.928 7.678-2.928 10.606 0 1.042 1.042 2.424 1.616 3.893 1.616s2.851-.574 3.893-1.616c2.929-2.928 7.678-2.928 10.606 0 2.929 2.93 2.929 7.678 0 10.607-3.875 3.875-9.024 6.009-14.5 6.009s-10.623-2.134-14.498-6.009zm44.803 27.6c-2.929-2.928-7.678-2.928-10.606 0-10.861 10.861-28.532 10.861-39.394 0-2.929-2.928-7.678-2.928-10.606 0-2.929 2.93-2.929 7.678 0 10.607 8.354 8.354 19.329 12.531 30.303 12.531s21.949-4.177 30.303-12.531c2.929-2.929 2.929-7.677 0-10.607z" fill="#d6995c"/><path d="m256 95.085c-2.761 0-5-2.239-5-5v-57.585c0-2.761 2.239-5 5-5 2.761 0 5 2.239 5 5v57.585c0 2.762-2.239 5-5 5z" fill="#fffac1"/><path d="m262.5 125c0 4.142-3.358 7.5-7.5 7.5s-7.5-3.358-7.5-7.5 3.358-7.5 7.5-7.5 7.5 3.358 7.5 7.5zm-1.5-30v-7.851c0-2.761-2.239-5-5-5-2.761 0-5 2.239-5 5v7.851c0 2.761 2.239 5 5 5 2.761 0 5-2.239 5-5z" fill="#fb5858"/></g></svg>