<svg id="Capa_1" enable-background="new 0 0 512 512" height="512" viewBox="0 0 512 512" width="512" xmlns="http://www.w3.org/2000/svg"><g><g><path d="m456.951 407.165c27.755-39.717 44.049-88.035 44.049-140.165 0-135.31-109.69-245-245-245s-245 109.69-245 245c0 52.13 16.294 100.448 44.049 140.165z" fill="#3c5082"/></g><g><circle cx="256" cy="242" fill="#2d3c6b" r="200"/></g><g><path d="m349.599 52.323s17.557-8.302 17.557-20.047c0-11.744-39.092-32.276-110.022-32.276-34.249 0-48.985 5.638-62.772 12s-14.708 34.073-14.708 34.073c-17.176 18.715-27.663 43.666-27.663 71.07v30.076h210.286v-30.076c0-11.099-.819-25.078-3.88-39.082 4.266-4.658 8.759-10.242 8.759-13.103 0-5.447-17.557-12.635-17.557-12.635z" fill="#ffdd40"/></g><g><path d="m225.46 79.602c-14.773-17.013-20.458-66.719 15.529-79.115-23.176 1.494-35.231 6.255-46.627 11.513-13.787 6.362-14.708 34.073-14.708 34.073-17.176 18.715-27.663 43.666-27.663 71.07v30.076h73.469z" fill="#ffc839"/></g><g><path d="m256 512c83.18 0 156.665-41.461 200.951-104.835-.001-.009-.001-.017-.002-.026-8.256-22.709-16.99-42.685-24.722-51.911-.904-1.078-1.794-2.019-2.668-2.79-6.623-5.848-19.39-11.382-34.352-16.323-37.928-12.525-89.968-21.232-91.82-21.54h-94.772c-1.853.307-53.892 9.014-91.82 21.54-14.961 4.941-27.729 10.475-34.352 16.323-.874.772-1.765 1.712-2.668 2.79-7.732 9.226-16.467 29.203-24.722 51.911-.001.009-.001.018-.002.026 44.284 63.374 117.769 104.835 200.949 104.835z" fill="#2e8be6"/></g><g><path d="m376.363 400.049c-12.574-62.943-53.75-134.554-120.363-134.554s-107.789 71.611-120.363 134.554c-2.232 11.171 4.616 22.15 15.628 25.069l1.946.516c6.666 1.767 12.085 6.615 14.579 13.045l25.27 65.146c13.835 3.667 28.147 6.161 42.827 7.358v-.001l20.113-23.331 20.114 23.33v.001c14.679-1.197 28.992-3.691 42.827-7.358l25.27-65.146c2.494-6.43 7.913-11.278 14.579-13.045l1.946-.516c11.011-2.918 17.859-13.897 15.627-25.068z" fill="#4fabf7"/></g><g><path d="m222.202 429.383v80.3c11.048 1.525 22.33 2.317 33.798 2.317 11.617 0 23.044-.81 34.23-2.375v-80.243l13.362-114.715h-.487c0-.031.003-.062.003-.093h-94.217v.01h-.062z" fill="#dae2fe"/></g><g><path d="m290.23 480.872c-30.515 0-66.251-38.553-68.029-51.49v80.3c11.049 1.526 22.331 2.318 33.799 2.318 11.617 0 23.044-.81 34.23-2.375z" fill="#bec8f7"/></g><g><path d="m91.07 426.843v21.327c7.157 6.519 14.704 12.617 22.599 18.262l-12.035-41.103c-1.75-5.98-10.564-4.716-10.564 1.514z" fill="#1a7fd3"/></g><g><path d="m420.93 426.843v21.327c-7.157 6.519-14.704 12.617-22.599 18.262l12.035-41.103c1.75-5.98 10.564-4.716 10.564 1.514z" fill="#1a7fd3"/></g><g><path d="m255.98 353.723s91.053 76.832 173.537-1.286c0 0 2.377-6.374-3.24-11.991s-54.638-22.468-69.957-23.489c-15.32-1.021-100.34 36.766-100.34 36.766z" fill="#5c45bf"/></g><g><path d="m354.316 303.936c7.489-25.191-16.681-36.276-16.681-36.276 3.064-12.787-10.723-30.107-27.574-30.107h-107.699c-16.851 0-30.638 17.32-27.574 30.107 0 0-24.17 11.085-16.681 36.276 0 0-20.141 2.762-13.262 24.115 6.878 21.353 55.94 41.928 111.367 41.928s104.489-20.575 111.367-41.928c6.877-21.353-13.263-24.115-13.263-24.115z" fill="#7255ce"/></g><g><path d="m224.83 331c4.596-8.17 21.447-5.106 16.851-18.383s-60.766-17.872-66.894-44.957c0 0-24.17 11.085-16.681 36.276 0 0-20.141 2.762-13.262 24.115 6.878 21.353 55.94 41.928 111.367 41.928 7.755 0 15.384-.403 22.792-1.155-32.427-13.436-58.769-29.654-54.173-37.824z" fill="#5c45bf"/></g><g><path d="m337.635 267.66c-9.656 18.404-43.869 33.723-42.848 42.404s30.206 10.723 59.528-6.128c7.49-25.191-16.68-36.276-16.68-36.276z" fill="#5c45bf"/></g><g><path d="m180.942 159.567s-10.385-25.285-28.897-19.415.448 60.664 36.573 64.116z" fill="#eabe8d"/></g><g><path d="m331.058 159.567s10.385-25.285 28.897-19.415-.448 60.664-36.573 64.116z" fill="#f3d6ac"/></g><g><path d="m327.049 124.754c-3.509-10.287-9.219-24.496-16.225-32.717-3.978-3.853-8.145-7.046-12.399-9.103-8.195-3.963-15.758-4.069-22.16-2.497-13.314 3.269-27.216 3.268-40.53 0-6.402-1.572-13.966-1.466-22.16 2.497-4.254 2.057-8.421 5.25-12.399 9.103-7.006 8.221-12.716 22.43-16.225 32.717-2.762 8.097-8.72 14.703-16.484 18.295-.031 1.23-.063 2.46-.063 3.705 0 64.505 39.219 140.155 87.597 140.155s87.597-75.651 87.597-140.155c0-1.245-.032-2.475-.063-3.705-7.766-3.592-13.724-10.198-16.486-18.295z" fill="#f8e6cc"/></g><g><path d="m208.403 146.754c0-25.925 6.339-48.917 17.057-67.152-3.755.312-7.739 1.327-11.885 3.333-4.254 2.057-8.421 5.25-12.399 9.103-7.006 8.221-12.716 22.43-16.225 32.717-2.762 8.097-8.72 14.703-16.484 18.295-.031 1.23-.063 2.46-.063 3.705 0 64.505 39.219 140.155 87.597 140.155 6.881 0 13.576-1.535 20-4.346-38.742-16.953-67.598-80.48-67.598-135.81z" fill="#f3d6ac"/></g><g><g><path d="m235.046 174.618c-1.657 0-3.278-.823-4.23-2.327-1.477-2.334-.782-5.423 1.552-6.899 7.119-4.504 15.291-6.885 23.634-6.885 8.34 0 16.509 2.379 23.624 6.879 2.333 1.476 3.029 4.564 1.553 6.898-1.476 2.332-4.564 3.028-6.898 1.553-5.513-3.487-11.834-5.33-18.278-5.33-6.447 0-12.771 1.845-18.287 5.336-.83.524-1.756.775-2.67.775z" fill="#2d3c6b"/></g><g><path d="m182.578 156.58c-.685 2.758-1.011 5.658-.924 8.647.489 16.834 14.251 30.513 31.087 30.904 17.943.417 32.619-14.003 32.619-31.851 0-2.523-.294-4.977-.848-7.33-1.916-8.127-9.192-13.857-17.542-13.857h-26.945c-8.207 0-15.468 5.522-17.447 13.487z" fill="#4b6496"/></g><g><path d="m199.154 165.228c-.087-2.99.239-5.89.924-8.647 1.98-7.965 9.24-13.487 17.447-13.487h-17.5c-8.208 0-15.468 5.522-17.447 13.487-.685 2.758-1.011 5.658-.924 8.647.489 16.834 14.251 30.513 31.087 30.904 3.315.077 6.517-.355 9.537-1.219-13.016-3.735-22.716-15.604-23.124-29.685z" fill="#3c5082"/></g><g><path d="m329.422 156.58c.685 2.758 1.011 5.658.924 8.647-.489 16.834-14.251 30.513-31.087 30.904-17.943.417-32.619-14.003-32.619-31.851 0-2.523.294-4.977.848-7.33 1.916-8.127 9.191-13.857 17.542-13.857h26.945c8.207 0 15.468 5.522 17.447 13.487z" fill="#4b6496"/></g><g><path d="m284.154 165.228c-.087-2.99.239-5.89.924-8.647 1.98-7.965 9.24-13.487 17.447-13.487h-17.5c-8.208 0-15.468 5.522-17.447 13.487-.685 2.758-1.011 5.658-.924 8.647.489 16.834 14.251 30.513 31.087 30.904 3.315.077 6.517-.355 9.537-1.219-13.016-3.735-22.716-15.604-23.124-29.685z" fill="#3c5082"/></g></g><g><path d="m311.239 162.03c.043-3.495-1.371-7.004-4.242-9.539-4.675-4.128-11.84-4.128-16.515 0-2.871 2.535-4.284 6.044-4.242 9.539.055 4.538 5.629 6.716 8.838 3.507 2.022-2.022 5.3-2.022 7.322 0 3.21 3.209 8.784 1.031 8.839-3.507z" fill="#213159"/></g><g><path d="m200.761 162.03c-.043-3.495 1.371-7.004 4.242-9.539 4.675-4.128 11.84-4.128 16.515 0 2.871 2.535 4.284 6.044 4.242 9.539-.055 4.538-5.629 6.716-8.838 3.507-2.022-2.022-5.3-2.022-7.322 0-3.21 3.209-8.784 1.031-8.839-3.507z" fill="#213159"/></g><g><g><path d="m242.013 192.447 8.436-13.441c2.569-4.093 8.533-4.093 11.102 0l8.436 13.441c2.739 4.365-.398 10.038-5.551 10.038h-16.871c-5.154-.001-8.291-5.674-5.552-10.038z" fill="#eabe8d"/></g></g><g><g><path d="m235.384 240.87h41.233c4.111-3.622 7.258-8.309 9.01-13.631 1.584-4.811-2.069-9.754-7.134-9.754h-44.985c-5.065 0-8.718 4.943-7.134 9.754 1.752 5.322 4.899 10.009 9.01 13.631z" fill="#162544"/></g><g><path d="m276.616 240.87c-5.493 4.849-12.714 7.798-20.616 7.798s-15.124-2.948-20.616-7.798c5.5-4.849 12.714-7.798 20.616-7.798s15.116 2.949 20.616 7.798z" fill="#ff4155"/></g></g><g><path d="m223.5 134.968h-20c-4.142 0-7.5-3.358-7.5-7.5 0-4.142 3.358-7.5 7.5-7.5h20c4.142 0 7.5 3.358 7.5 7.5 0 4.142-3.358 7.5-7.5 7.5z" fill="#ff9100"/></g><g><path d="m308.5 134.968h-20c-4.142 0-7.5-3.358-7.5-7.5 0-4.142 3.358-7.5 7.5-7.5h20c4.142 0 7.5 3.358 7.5 7.5 0 4.142-3.358 7.5-7.5 7.5z" fill="#ff9100"/></g></g></svg>