<svg height="512pt" viewBox="0 0 512 512" width="512pt" xmlns="http://www.w3.org/2000/svg"><path d="m512 256c0 141.386719-114.613281 256-256 256s-256-114.613281-256-256 114.613281-256 256-256 256 114.613281 256 256zm0 0" fill="#f93d6e"/><path d="m457.117188 238.769531c-2.835938 16.019531-10.0625 42.253907-10.0625 42.253907l-200.945313 103.457031-179.171875-103.457031s-7.226562-26.234376-10.0625-42.253907l25.625-78.421875 352.492188 23.941406zm0 0" fill="#181e21"/><path d="m398.410156 468.761719c-12.339844 8.277343-25.441406 15.519531-39.179687 21.566406-10.652344 4.703125-21.679688 8.703125-33.03125 11.921875-19.039063 5.421875-38.980469 8.691406-59.558594 9.519531-3.53125.160157-7.082031.230469-10.640625.230469-3.570312 0-7.121094-.070312-10.648438-.230469-20.570312-.828125-40.511718-4.097656-59.550781-9.507812-7.242187-2.0625-14.359375-4.441407-21.332031-7.121094-.429688-.160156-.859375-.320313-1.289062-.492187-3.507813-1.359376-6.980469-2.808594-10.410157-4.320313-13.738281-6.058594-26.839843-13.289063-39.191406-21.578125 10.390625-14.371094 23.761719-26.429688 39.191406-35.320312 10.199219-5.871094 21.300781-10.339844 33.03125-13.148438 1.808594-.441406 3.640625-.839844 5.480469-1.191406 3.46875-.679688 7-1.199219 10.570312-1.570313 1.027344-.109375 2.046876-.210937 3.089844-.289062 3.378906-.28125 6.796875-.421875 10.257813-.421875h81.589843c4.519532 0 8.972657.242187 13.351563.703125 3.570313.367187 7.089844.898437 10.570313 1.558593 1.390624.269532 2.769531.558594 4.140624.871094.449219.117188.910157.207032 1.347657.328125 11.742187 2.820313 22.832031 7.289063 33.03125 13.160157 15.429687 8.898437 28.789062 20.960937 39.179687 35.332031zm0 0" fill="#d9723e"/><path d="m266.640625 410.859375v100.910156c-3.53125.160157-7.082031.230469-10.640625.230469-3.570312 0-7.121094-.070312-10.648438-.230469v-100.910156zm0 0" fill="#bd5423"/><path d="m215.199219 416.808594c-29.359375 0-49.257813 42.429687-50.730469 78.332031-.429688-.160156-.859375-.320313-1.289062-.492187-3.507813-1.359376-6.980469-2.808594-10.410157-4.320313-13.738281-6.058594-26.839843-13.289063-39.191406-21.578125 10.390625-14.371094 23.761719-26.429688 39.191406-35.320312 10.199219-5.871094 21.300781-10.339844 33.03125-13.148438 1.808594-.441406 3.640625-.839844 5.480469-1.191406 3.46875-.679688 7-1.199219 10.570312-1.570313 1.027344-.109375 2.046876-.210937 3.089844-.289062 3.378906-.28125 6.796875-.421875 10.257813-.421875zm0 0" fill="#bd5423"/><path d="m410.695312 256.511719c0 76.984375-56.242187 140.847656-129.871093 152.703125-8.078125 1.328125-16.371094 2-24.828125 2-85.445313 0-154.703125-69.257813-154.703125-154.703125v-157.5h309.402343zm0 0" fill="#f9c5ac"/><g fill="#efb29a"><path d="m283.242188 408.808594c-.800782.140625-1.609376.28125-2.417969.410156-8.082031 1.320312-16.371094 1.992188-24.832031 1.992188-85.4375 0-154.699219-69.25-154.699219-154.699219v-157.5h54.550781v157.5c0 76.136719 54.980469 139.410156 127.398438 152.296875zm0 0"/><path d="m360.261719 296.496094c0 10.539062-8.542969 19.082031-19.082031 19.082031-10.539063 0-19.082032-8.542969-19.082032-19.082031 0-10.539063 8.542969-19.082032 19.082032-19.082032 10.539062 0 19.082031 8.542969 19.082031 19.082032zm0 0"/><path d="m189.886719 296.496094c0 10.539062-8.542969 19.082031-19.082031 19.082031-10.539063 0-19.082032-8.542969-19.082032-19.082031 0-10.539063 8.542969-19.082032 19.082032-19.082032 10.539062 0 19.082031 8.542969 19.082031 19.082032zm0 0"/><path d="m273.378906 297.921875h-34.757812c-4.140625 0-7.5-3.355469-7.5-7.496094s3.359375-7.496093 7.5-7.496093h34.757812c4.136719 0 7.496094 3.355468 7.496094 7.496093s-3.359375 7.496094-7.496094 7.496094zm0 0"/><path d="m343.992188 244.328125c0-17.808594-14.433594-32.242187-32.242188-32.242187s-32.242188 14.433593-32.242188 32.242187"/></g><path d="m333.773438 258.054688c0 12.164062-9.859376 22.023437-22.023438 22.023437s-22.023438-9.859375-22.023438-22.023437c0-12.164063 9.859376-22.023438 22.023438-22.023438s22.023438 9.859375 22.023438 22.023438zm0 0" fill="#2f373b"/><path d="m330.363281 254.167969c0 5.210937-4.222656 9.4375-9.433593 9.4375-5.214844 0-9.4375-4.226563-9.4375-9.4375 0-5.210938 4.222656-9.4375 9.4375-9.4375 5.210937 0 9.433593 4.226562 9.433593 9.4375zm0 0" fill="#fff"/><path d="m232.480469 244.328125c0-17.808594-14.433594-32.242187-32.242188-32.242187-17.808593 0-32.242187 14.433593-32.242187 32.242187" fill="#efb29a"/><path d="m222.261719 258.054688c0 12.164062-9.859375 22.023437-22.023438 22.023437-12.160156 0-22.019531-9.859375-22.019531-22.023437 0-12.164063 9.859375-22.023438 22.019531-22.023438 12.164063 0 22.023438 9.859375 22.023438 22.023438zm0 0" fill="#2f373b"/><path d="m205.207031 279.511719c-1.601562.378906-3.261719.566406-4.96875.566406-12.160156 0-22.019531-9.859375-22.019531-22.027344 0-12.160156 9.859375-22.019531 22.019531-22.019531 1.707031 0 3.367188.199219 4.96875.570312-9.78125 2.25-17.058593 11-17.058593 21.449219 0 10.460938 7.277343 19.210938 17.058593 21.460938zm0 0" fill="#181e21"/><path d="m316.71875 279.511719c-1.601562.378906-3.261719.566406-4.972656.566406-12.160156 0-22.019532-9.859375-22.019532-22.027344 0-12.160156 9.859376-22.019531 22.019532-22.019531 1.710937 0 3.371094.199219 4.972656.570312-9.78125 2.25-17.0625 11-17.0625 21.449219 0 10.460938 7.28125 19.210938 17.0625 21.460938zm0 0" fill="#181e21"/><path d="m218.855469 254.167969c0 5.210937-4.226563 9.4375-9.4375 9.4375-5.210938 0-9.4375-4.226563-9.4375-9.4375 0-5.210938 4.226562-9.4375 9.4375-9.4375 5.210937 0 9.4375 4.226562 9.4375 9.4375zm0 0" fill="#fff"/><path d="m447.164062 162.046875h-380.335937c14.632813-91.835937 94.207031-162.046875 190.171875-162.046875 95.976562 0 175.539062 70.210938 190.164062 162.046875zm0 0" fill="#ffbb16"/><path d="m447.285156 277.726562c-.066406 1.097657-.15625 2.199219-.234375 3.296876-3.769531 49.917968-13.191406 102.34375-36.691406 125.84375-39.464844 39.464843-153.359375 39.464843-153.359375 39.464843s-113.902344 0-153.371094-39.464843c-23.5-23.5-32.917968-75.925782-36.691406-125.855469-.078125-1.097657-.164062-2.207031-.234375-3.304688 115.847656 74.613281 264.726563 74.625 380.582031.019531zm0 0" fill="#ffbb16"/><path d="m141.976562 162.046875h-75.148437c14.566406-91.402344 93.453125-161.382813 188.820313-162.0351562-57.453126 1.0859372-104.886719 70.9218752-113.671876 162.0351562zm0 0" fill="#ff931f"/><path d="m255.414062 446.308594c-13.878906-.164063-115.070312-2.730469-151.785156-39.445313-23.5-23.5-32.917968-75.921875-36.691406-125.851562-.078125-1.101563-.164062-2.207031-.234375-3.308594 24.554687 15.824219 50.597656 28.285156 77.492187 37.394531 3.160157 38.1875 9.054688 73.617188 20.039063 91.769532 21.722656 35.902343 80.738281 39.152343 91.179687 39.441406zm0 0" fill="#ff931f"/><path d="m459.644531 208.238281c0 10.394531-.855469 20.582031-2.53125 30.53125-2.085937-1.730469-4.257812-3.316406-6.566406-4.78125-6.425781-4.070312-14.433594-7.621093-23.488281-10.726562-21.738282-7.425781-49.542969-12.195313-76.359375-15.269531-11.539063-1.332032-22.867188-2.328126-33.464844-3.105469-12.503906-.910157-23.964844-1.476563-33.449219-1.855469-16.3125-.621094-26.796875-.621094-26.796875-.621094s-69.976562 0-129.191406 10.730469c-4.117187.742187-8.167969 1.53125-12.152344 2.386719-6.367187 1.363281-12.527343 2.875-18.371093 4.539062-7.867188 2.21875-15.15625 4.738282-21.625 7.566406-.402344.164063-.789063.34375-1.175782.519532-4.039062 1.808594-7.734375 3.761718-11.03125 5.835937-2.296875 1.464844-4.480468 3.050781-6.566406 4.78125-1.664062-9.953125-2.53125-20.136719-2.53125-30.53125 0-20.128906-.042969-49.640625 2.085938-80.753906.355468-5.246094 2.828124-10.195313 6.945312-13.449219.023438-.019531.046875-.03125.066406-.066406 3.296875-2.59375 6.992188-5.023438 11.03125-7.3125.386719-.21875.777344-.429688 1.175782-.640625 6.46875-3.539063 13.757812-6.667969 21.625-9.453125 5.847656-2.078125 12.003906-3.960938 18.375-5.660156 3.980468-1.066406 8.03125-2.054688 12.148437-2.984375 59.214844-13.402344 129.191406-13.402344 129.191406-13.402344s10.488281 0 26.796875.785156c9.484375.457031 20.949219 1.15625 33.453125 2.296875 10.59375.964844 21.921875 2.21875 33.460938 3.875 26.820312 3.835938 54.625 9.828125 76.359375 19.105469 9.054687 3.859375 17.066406 8.296875 23.488281 13.390625.035156.035156.066406.054688.101563.078125 4.105468 3.285156 6.554687 8.199219 6.921874 13.425781 2.121094 31.144532 2.074219 60.636719 2.074219 80.765625zm0 0" fill="#2f373b"/><path d="m427.054688 100.578125v122.683594c-21.734376-7.421875-49.539063-12.199219-76.359376-15.273438v-126.519531c26.816407 3.847656 54.625 9.832031 76.359376 19.109375zm0 0" fill="#828e93"/><path d="m317.238281 77.597656v127.289063c-12.507812-.914063-23.972656-1.480469-33.457031-1.851563v-127.730468c9.484375.453124 20.949219 1.160156 33.457031 2.292968zm0 0" fill="#828e93"/><path d="m127.796875 87.917969v125.222656c-4.117187.742187-8.167969 1.53125-12.148437 2.386719-6.371094 1.363281-12.527344 2.875-18.375 4.539062v-123.503906c5.847656-2.074219 12.003906-3.960938 18.375-5.660156 3.980468-1.0625 8.03125-2.050782 12.148437-2.984375zm0 0" fill="#828e93"/><path d="m257.003906 337.398438c-5.742187 0-141.199218-.476563-191.042968-42.027344-2.519532-2.113282-4.925782-4.398438-7.160157-6.8125-4.164062-4.496094-3.894531-11.515625.601563-15.679688 4.496094-4.164062 11.515625-3.894531 15.679687.597656 1.601563 1.730469 3.320313 3.367188 5.109375 4.863282 17.660156 14.726562 53.53125 25.792968 103.714844 31.988281 38.964844 4.8125 72.761719 4.878906 73.097656 4.878906.335938 0 34.128906-.066406 73.089844-4.878906 50.179688-6.195313 86.046875-17.261719 103.726562-32.003906 1.726563-1.429688 3.441407-3.0625 5.117188-4.859375 4.179688-4.484375 11.203125-4.726563 15.683594-.546875 4.480468 4.179687 4.722656 11.199219.542968 15.679687-2.3125 2.480469-4.714843 4.761719-7.144531 6.78125-49.828125 41.542969-185.273437 42.019532-191.015625 42.019532zm0 0" fill="#f1eee9"/></svg>