<svg id="Capa_1" enable-background="new 0 0 512 512" height="512" viewBox="0 0 512 512" width="512" xmlns="http://www.w3.org/2000/svg"><g><path d="m436.453 357.167-96.184 63.948-84.269 90.885h224.133v-94.336c0-27.472-17.604-51.852-43.68-60.497z" fill="#180a33"/><path d="m31.867 417.664v94.336h224.133l-84.268-90.885-96.184-63.948c-26.077 8.645-43.681 33.025-43.681 60.497z" fill="#332866"/><path d="m246 340.54 10 171.46 94.268-80.884c-.01 0-104.268-90.576-104.268-90.576z" fill="#6680ff"/><path d="m256 340.54v10 161.46l-94.268-80.884c.01 0 94.268-90.576 94.268-90.576z" fill="#80aaff"/><path d="m334.622 323.411-2.177 53.852 17.823 53.852 86.185-73.948z" fill="#6680ff"/><path d="m177.378 323.411 2.177 53.852-17.823 53.852-86.185-73.948z" fill="#80aaff"/><path d="m246 323.411 10 27.128c0 78.947 94.258 80.576 94.268 80.576l-15.646-107.704z" fill="#80aaff"/><path d="m256 323.411v27.128c0 78.947-94.258 80.576-94.268 80.576l15.646-107.704z" fill="#9cf"/><path d="m434.731 220.022-19.395-57.146v-3.54c0-87.999-71.337-159.336-159.336-159.336l-10 143.358 10 180.053h78.622s80.714 14.198 127.138-31.867c0 0-9.261-52.908-27.029-71.522z" fill="#ffb655"/><path d="m256 0c-87.999 0-159.336 71.337-159.336 159.336v3.54l-19.395 57.146c-17.768 18.614-27.028 71.522-27.028 71.522 46.424 46.065 127.138 31.867 127.138 31.867h78.621z" fill="#ffda44"/><path d="m383.469 162.876h31.867c17.6 0 31.868 14.268 31.868 31.868 0 17.6-14.268 31.868-31.868 31.868h-41.915z" fill="#ffcdbe"/><path d="m128.531 162.876h-31.867c-17.6 0-31.868 14.268-31.868 31.868 0 17.6 14.268 31.868 31.868 31.868h41.915z" fill="#ffdecf"/><path d="m325.989 126.198s-27.319 17.16-69.989 17.16l-10 63.779 10 143.403c70.399 0 127.469-57.07 127.469-127.469v-60.195c-29.432 0-57.48-36.678-57.48-36.678z" fill="#ffdecf"/><path d="m186.011 126.198s-28.048 36.678-57.479 36.678v60.195c0 70.399 57.07 127.469 127.469 127.469v-207.182c-42.671 0-69.99-17.16-69.99-17.16z" fill="#ffeee5"/><path d="m295.834 192.137h31.867v30h-31.867z" fill="#180a33"/><path d="m184.299 192.137h31.867v30h-31.867z" fill="#332866"/></g></svg>