<svg id="Capa_1" enable-background="new 0 0 512 512" height="512" viewBox="0 0 512 512" width="512" xmlns="http://www.w3.org/2000/svg"><g><path d="m383.469 127.469c0-70.399-57.07-127.469-127.469-127.469l-10 145.839z" fill="#180a33"/><path d="m256 0c-70.399 0-127.469 57.07-127.469 127.469l127.469 18.37z" fill="#332866"/><path d="m480.133 385.797c0-27.472-17.603-51.853-43.68-60.497l-4.742-1.572-24.809-8.224h-160.902l10 196.496h224.133z" fill="#24b3b3"/><path d="m105.099 315.504-24.809 8.224-4.742 1.572c-26.077 8.644-43.68 33.025-43.68 60.497v126.203h224.132v-196.496z" fill="#2ee6a8"/><path d="m375.038 304.942h-129.038l10 100.886c66.084 0 100.268-38.399 105.865-45.286l45.037-45.037z" fill="#198080"/><path d="m136.962 304.941-31.864 10.563 45.037 45.037c5.598 6.888 39.781 45.286 105.865 45.286v-100.886z" fill="#24b3b3"/><path d="m246 291.544 10 84.283c54.947 0 81.118-32.328 82.684-34.33l.664-.908.699-.656 34.991-34.991-40.416-13.398z" fill="#ffda44"/><path d="m177.378 291.544-40.415 13.397 35.813 35.813.541.743c1.56 1.994 27.73 34.33 82.684 34.33v-84.283z" fill="#fff79f"/><path d="m373.469 191.204h31.867c17.6 0 31.868-14.268 31.868-31.868 0-17.6-14.268-31.868-31.868-31.868h-31.867z" fill="#ffcdbe"/><path d="m138.531 191.204h-31.867c-17.6 0-31.868-14.268-31.868-31.868 0-17.6 14.268-31.868 31.868-31.868h31.867z" fill="#ffdecf"/><path d="m383.469 191.203s42.548 26.452 54.263 76.411c6.673 28.455-1.907 58.348-22.014 79.559l-1.417 1.495c-25.079 26.456-69.889 13.697-76.712-22.113-1.868-9.806-2.967-21.371-2.967-35.011z" fill="#180a33"/><path d="m177.378 291.544c0 13.64-1.099 25.205-2.967 35.011-6.823 35.81-51.633 48.569-76.712 22.113l-1.417-1.495c-20.107-21.211-28.687-51.104-22.014-79.559 11.716-49.959 54.263-76.411 54.263-76.411z" fill="#332866"/><path d="m367.535 127.469c-26.186 0-49.412-12.862-63.734-32.587-11.337 15.613-28.255 26.919-47.801 30.957l-10 49.431 10 143.403c70.399 0 127.469-57.07 127.469-127.469v-63.735z" fill="#ffdecf"/><path d="m240.066 127.469h-111.535v63.735c0 70.399 57.07 127.469 127.469 127.469v-192.834c-5.148 1.063-10.475 1.63-15.934 1.63z" fill="#ffeee5"/><path d="m295.834 160.27h31.867v30h-31.867z" fill="#180a33"/><path d="m184.299 160.27h31.867v30h-31.867z" fill="#332866"/></g></svg>