<svg id="Capa_1" enable-background="new 0 0 512 512" height="512" viewBox="0 0 512 512" width="512" xmlns="http://www.w3.org/2000/svg"><g><path d="m75.522 413.553c-14.033 0-27.136-7.093-34.748-18.882-25.8-39.961-40.774-87.567-40.774-138.671 0-141.385 114.615-256 256-256s256 114.615 256 256c0 51.203-15.033 98.896-40.925 138.904-7.53 11.636-20.459 18.649-34.319 18.649z" fill="#4172cc"/><path d="m455.723 256c0 110.304-89.419 199.723-199.723 199.723s-199.723-89.419-199.723-199.723 89.419-199.723 199.723-199.723 199.723 89.419 199.723 199.723z" fill="#6990d7"/><path d="m239.657 69.142c9.249 21.875 8.542 46.306-.348 70.708-23.699-10.623-41.717-27.137-50.966-49.012s-8.542-46.306.348-70.708c23.699 10.624 41.717 27.138 50.966 49.012zm-88.308 31.879c-21.289-10.528-45.719-11.271-70.605-3.841 9.201 24.287 24.618 43.252 45.907 53.78s45.718 11.271 70.604 3.841c-9.2-24.287-24.618-43.252-45.906-53.78zm209.302 0c-21.289 10.528-36.706 29.493-45.907 53.78 24.886 7.429 49.316 6.687 70.604-3.841s36.706-29.493 45.907-53.78c-24.885-7.43-49.315-6.687-70.604 3.841zm-37.342-80.891c-23.699 10.623-41.717 27.137-50.966 49.012s-8.542 46.306.348 70.708c23.699-10.623 41.717-27.137 50.966-49.012 9.249-21.874 8.543-46.305-.348-70.708z" fill="#24d3b5"/><path d="m212.467 163.563c-18.442 5.506-36.546 4.956-52.322-2.846s-27.202-21.856-34.02-39.854c18.442-5.506 36.546-4.956 52.322 2.846s27.202 21.856 34.02 39.854zm-7.723-99.8c-6.589 18.084-7.112 36.188-.258 52.399s20.206 28.449 37.769 36.321c6.589-18.084 7.112-36.188.258-52.399-6.853-16.21-20.206-28.448-37.769-36.321zm102.512 0c-17.563 7.872-30.915 20.11-37.769 36.321s-6.331 34.315.258 52.399c17.563-7.872 30.915-20.11 37.769-36.321 6.853-16.21 6.33-34.315-.258-52.399zm26.297 59.945c-15.776 7.802-27.202 21.856-34.02 39.854 18.442 5.506 36.546 4.956 52.322-2.846s27.202-21.856 34.02-39.854c-18.442-5.506-36.546-4.956-52.322 2.846z" fill="#20b7a1"/><path d="m258 0c17.692 19.014 27.856 41.241 27.856 64.99 0 23.75-10.165 45.977-27.856 64.99-17.692-19.014-27.856-41.241-27.856-64.99s10.164-45.976 27.856-64.99zm-216.99 167.99c19.014 17.692 41.241 27.856 64.99 27.856s45.977-10.165 64.99-27.856c-19.014-17.692-41.241-27.856-64.99-27.856s-45.977 10.165-64.99 27.856zm364.99-27.856c-23.75 0-45.977 10.165-64.99 27.856 19.014 17.692 41.241 27.856 64.99 27.856s45.977-10.165 64.99-27.856c-19.013-17.691-41.24-27.856-64.99-27.856zm-280.845-90.287c-1.554 25.925 4.743 49.541 19.852 67.865s37.091 29.007 62.837 32.422c1.554-25.925-4.743-49.541-19.852-67.865-15.108-18.324-37.091-29.007-62.837-32.422zm241.838 67.865c15.109-18.324 21.406-41.94 19.852-67.865-25.746 3.415-47.729 14.098-62.837 32.423-15.109 18.324-21.406 41.94-19.852 67.865 25.745-3.416 47.728-14.099 62.837-32.423z" fill="#ffcd71"/><path d="m258 40c4.718 10.237 7.428 22.204 7.428 34.99s-2.71 24.754-7.428 34.99c-4.718-10.237-7.428-22.204-7.428-34.99s2.71-24.753 7.428-34.99zm-176.99 127.99c10.237 4.718 22.204 7.428 34.99 7.428s24.754-2.711 34.99-7.428c-10.237-4.718-22.204-7.428-34.99-7.428s-24.754 2.711-34.99 7.428zm314.99-7.428c-12.787 0-24.754 2.71-34.99 7.428 10.237 4.718 22.204 7.428 34.99 7.428s24.754-2.711 34.99-7.428c-10.236-4.717-22.203-7.428-34.99-7.428zm-245.398-79.853c2.872 10.899 8.394 21.857 16.529 31.723 8.134 9.866 17.839 17.374 27.991 22.271-2.872-10.899-8.394-21.857-16.529-31.722-8.135-9.866-17.839-17.375-27.991-22.272zm182.805 22.272c-8.134 9.866-13.656 20.823-16.529 31.722 10.152-4.897 19.856-12.406 27.991-22.271 8.134-9.866 13.656-20.823 16.529-31.723-10.152 4.897-19.856 12.406-27.991 22.272z" fill="#ffc14f"/><path d="m40.392 394.078c17.765-3.539 35.189-3.762 51.696-.323-6.757-17.674-9.367-37.378-8.117-58.218 31.029 4.116 57.9 16.262 77.464 36.814-5.783-24.132-3.353-50.021 6.07-75.884 23.231 10.413 42.309 25.131 55.553 43.866 3.572-25.534 16.107-49.413 35.572-70.333 18.009 19.355 30.086 41.243 34.621 64.632 12.939-16.042 30.424-28.833 51.245-38.166 9.423 25.864 11.853 51.752 6.07 75.884 19.564-20.552 46.435-32.698 77.464-36.814 1.249 20.84-1.361 40.544-8.117 58.218 16.506-3.439 33.931-3.216 51.696.323-15.332 23.891-34.526 45.066-56.701 62.645-3.654 2.897-8.749 3.049-12.573.38-41.475-28.944-91.922-45.919-146.334-45.919-54.447 0-104.924 16.997-146.414 45.976-3.729 2.604-8.728 2.542-12.295-.28-22.26-17.609-41.522-38.839-56.9-62.801z" fill="#20b7a1"/><path d="m420.272 424.535c-17.416 27.139-41.373 49.679-69.645 65.394-11.612.445-23.642-1.238-35.781-4.862.937-2.472 1.938-4.89 3.003-7.249-4.401 1.098-8.944 1.955-13.61 2.574-.718-11.973.236-23.454 2.956-34.151-9.261 9.802-20.943 17.784-34.475 23.85-2.544-6.983-4.419-13.969-5.584-20.897-2.769 3.775-5.819 7.449-9.133 11.01-4.695-5.046-8.861-10.318-12.448-15.784-1.028 8.485-3.145 17.08-6.275 25.67-13.532-6.065-25.214-14.048-34.475-23.85 2.72 10.697 3.674 22.178 2.956 34.151-4.666-.619-9.209-1.477-13.61-2.574 1.065 2.359 2.066 4.777 3.003 7.249-12.139 3.624-24.17 5.307-35.781 4.862-28.272-15.716-52.23-38.256-69.645-65.394 13.535-2.696 26.811-2.866 39.387-.246-5.148-13.466-7.137-28.479-6.185-44.357 23.641 3.136 44.114 12.39 59.02 28.049-4.406-18.387-2.554-38.111 4.625-57.817 17.7 7.934 32.235 19.148 42.326 33.421 2.722-19.455 12.272-37.648 27.102-53.587 13.721 14.747 22.923 31.424 26.378 49.244 9.858-12.222 23.18-21.968 39.044-29.078 7.18 19.706 9.031 39.43 4.625 57.817 14.906-15.659 35.379-24.913 59.02-28.049.952 15.878-1.037 30.891-6.185 44.357 12.576-2.619 25.852-2.449 39.387.247z" fill="#24d3b5"/><path d="m146 309.416c-13.807 0-25-11.193-25-25v-10c0-13.807 11.193-25 25-25 13.807 0 25 11.193 25 25v10c0 13.807-11.193 25-25 25z" fill="#c38778"/><path d="m209.333 399.416c-38.66 0-70 31.34-70 70 0 6.634-7.213 10.767-12.932 7.403-10.23-6.017-20.004-12.724-29.26-20.058 5.956-32.619 34.52-57.345 68.859-57.345z" fill="#a65d4e"/><path d="m414.859 456.761c-17.935 14.211-37.819 26.069-59.185 35.109-1.34.567-3.958.508-6.794.192-8.533-.952-17.15-.71-25.566.986-17.299 3.485-46.687 8.712-67.313 8.712-17.518 0-43.818-4.995-62.519-9.111-10.797-2.377-22.005-2.876-32.83-.632-1.601.332-3.121.362-4.325-.147-10.484-4.436-20.611-9.55-30.326-15.288v-7.167c0-38.66 31.34-70 70-70h30v-24.141c-46.17-13.059-80-55.508-80-105.859v-40c0-60.751 49.249-110 110-110 60.751 0 110 49.249 110 110v20c13.807 0 25 11.193 25 25v9.405c0 13.713-10.79 25.323-24.501 25.59-2.646.052-5.2-.308-7.604-1.019-12.254 32.332-39.309 57.384-72.895 66.883v24.141h60c34.338.001 62.902 24.727 68.858 57.346zm-268.861-147.345c-6.071-4.561-9.998-11.822-9.998-20v-20c0-8.178 3.927-15.439 9.998-20-13.806.001-24.998 11.194-24.998 25v10c0 13.806 11.192 24.999 24.998 25z" fill="#b46e5a"/><path d="m366 229.416v40c0 50.792-34.425 93.543-81.216 106.195-9.023 2.44-18.545 2.44-27.568 0-46.791-12.652-81.216-55.403-81.216-106.195v-40c0-55.663 41.345-101.669 95-108.985 53.655 7.316 95 53.322 95 108.985z" fill="#c38778"/><path d="m241.5 276.148c-2.929-2.93-2.929-7.678 0-10.607 2.929-2.928 7.678-2.928 10.606 0 1.042 1.042 2.424 1.616 3.893 1.616s2.851-.574 3.893-1.616c2.929-2.928 7.678-2.928 10.606 0 2.929 2.93 2.929 7.678 0 10.607-3.875 3.875-9.024 6.009-14.5 6.009s-10.623-2.134-14.498-6.009z" fill="#915041"/><path d="m223.5 236.916c0 8.284-6.716 15-15 15s-15-6.716-15-15 6.716-15 15-15 15 6.716 15 15zm80-15c-8.284 0-15 6.716-15 15s6.716 15 15 15 15-6.716 15-15-6.716-15-15-15z" fill="#4c2c21"/><path d="m226 229.416c0 4.142-3.358 7.5-7.5 7.5s-7.5-3.358-7.5-7.5 3.358-7.5 7.5-7.5 7.5 3.358 7.5 7.5zm87.5-7.5c-4.142 0-7.5 3.358-7.5 7.5s3.358 7.5 7.5 7.5 7.5-3.358 7.5-7.5-3.358-7.5-7.5-7.5z" fill="#fff5f5"/><path d="m256 339.416c-16.569 0-30-13.431-30-30 0-4.142 3.358-7.5 7.5-7.5h45c4.142 0 7.5 3.358 7.5 7.5 0 16.569-13.431 30-30 30z" fill="#fff5f5"/><path d="m263.5 338.471c-2.397.617-4.91.945-7.5.945-16.568 0-30-13.431-30-30 0-4.142 3.358-7.5 7.5-7.5h15c-4.142 0-7.5 3.358-7.5 7.5 0 13.979 9.561 25.725 22.5 29.055z" fill="#def4f8"/><path d="m234.787 146.335c0 16.258-12.653 29.834-28.889 30.676-28.48 1.476-55.057 23.394-55.869 56.596-.019.795-.029 1.593-.029 2.393v14.5c0 5.456-4.599 9.838-10.132 9.479-5.049-.327-8.868-4.745-8.868-9.805v-25.174c0-43.656 22.379-82.084 56.291-104.439 20.364-13.424 47.496 1.384 47.496 25.774z" fill="#fff36c"/><path d="m381 225v25.5c0 5.456-4.599 9.838-10.132 9.479-5.049-.327-8.868-4.745-8.868-9.805v-14.174c0-.781-.009-1.561-.028-2.338-1.227-51.296-63.926-75.708-100.209-39.426-3.183 3.183-8.344 3.183-11.527 0-13.005-13.005-29.409-18.213-45.159-17.178-17.366 1.141-32.216-12.248-32.216-29.652v-1.045c0-9.914 4.804-19.279 13.005-24.848 19.999-13.578 44.14-21.513 70.134-21.513 69.036 0 125 55.964 125 125z" fill="#fff79f"/><path d="m355.674 491.871c-30.635 12.961-64.317 20.129-99.674 20.129-24.968 0-49.1-3.574-71.914-10.239-9.493-2.773-8.071-57.578 17.092-61.363 2.582-.388 5.225-.59 7.915-.59 20.422 0 38.134 11.601 46.907 28.572 8.773-16.971 26.485-28.572 46.907-28.572 28.909.001 52.387 23.245 52.767 52.063z" fill="#fff68e"/><path d="m184.086 501.761c-9.493-2.773-18.758-6.081-27.759-9.89.344-26.136 19.688-47.688 44.851-51.472-8.793 19.025-14.68 39.669-17.092 61.362z" fill="#fff36c"/><path d="m215.388 159.725c0 4.377-3.548 7.925-7.925 7.925s-7.925-3.548-7.925-7.925 3.548-7.925 7.925-7.925c4.377-.001 7.925 3.548 7.925 7.925zm9.796 332.337c0 4.377-3.548 7.925-7.925 7.925s-7.925-3.548-7.925-7.925 3.548-7.925 7.925-7.925 7.925 3.548 7.925 7.925zm116.049-15.639c0 4.377-3.548 7.925-7.925 7.925s-7.925-3.548-7.925-7.925 3.548-7.925 7.925-7.925c4.376 0 7.925 3.548 7.925 7.925zm-117.308-350.433c0 4.377-3.548 7.925-7.925 7.925s-7.925-3.548-7.925-7.925 3.548-7.925 7.925-7.925 7.925 3.548 7.925 7.925zm114.291 33.735c0 4.377-3.548 7.925-7.925 7.925s-7.925-3.548-7.925-7.925 3.548-7.925 7.925-7.925c4.377-.001 7.925 3.548 7.925 7.925z" fill="#fff5f5"/><path d="m281 145c0 13.807-11.193 25-25 25s-25-11.193-25-25 11.193-25 25-25 25 11.193 25 25zm-97.075 8.433c0 4.377-3.548 7.925-7.925 7.925s-7.925-3.548-7.925-7.925 3.548-7.925 7.925-7.925 7.925 3.548 7.925 7.925zm33.334 315.065c0 4.377-3.548 7.925-7.925 7.925s-7.925-3.548-7.925-7.925 3.548-7.925 7.925-7.925 7.925 3.548 7.925 7.925zm-28.848 17.412c0 4.377-3.548 7.925-7.925 7.925s-7.925-3.548-7.925-7.925 3.548-7.925 7.925-7.925 7.925 3.548 7.925 7.925zm113.195 7.925c0 4.377-3.548 7.925-7.925 7.925s-7.925-3.548-7.925-7.925 3.548-7.925 7.925-7.925 7.925 3.548 7.925 7.925zm15.851-32.178c0 4.377-3.548 7.925-7.925 7.925s-7.925-3.548-7.925-7.925 3.548-7.925 7.925-7.925 7.925 3.548 7.925 7.925zm-146.467-283.732c0 4.377-3.548 7.925-7.925 7.925s-7.925-3.548-7.925-7.925 3.548-7.925 7.925-7.925 7.925 3.548 7.925 7.925zm190.36 0c0 4.377-3.548 7.925-7.925 7.925s-7.925-3.548-7.925-7.925 3.548-7.925 7.925-7.925 7.925 3.548 7.925 7.925zm-46.606-40.85c0 4.377-3.548 7.925-7.925 7.925s-7.925-3.548-7.925-7.925 3.548-7.925 7.925-7.925 7.925 3.548 7.925 7.925zm-33.744 326.64c0 13.807-11.193 25-25 25s-25-11.193-25-25 11.193-25 25-25 25 11.193 25 25z" fill="#ffcd71"/><path d="m267 145c0 6.075-4.925 11-11 11s-11-4.925-11-11 4.925-11 11-11 11 4.925 11 11zm-11 307.715c-6.075 0-11 4.925-11 11s4.925 11 11 11 11-4.925 11-11-4.925-11-11-11z" fill="#20b7a1"/><path d="m265.984 149.623c-1.747 3.765-5.56 6.377-9.984 6.377-6.075 0-11-4.925-11-11 0-4.424 2.612-8.237 6.377-9.984-.652 1.406-1.016 2.971-1.016 4.623 0 6.075 4.925 11 11 11 1.651 0 3.217-.364 4.623-1.016zm0 318.715c-1.747 3.765-5.56 6.377-9.984 6.377-6.075 0-11-4.925-11-11 0-4.424 2.612-8.237 6.377-9.984-.652 1.406-1.016 2.971-1.016 4.623 0 6.075 4.925 11 11 11 1.651.001 3.217-.364 4.623-1.016z" fill="#199a8e"/></g></svg>