<svg id="Capa_1" enable-background="new 0 0 512 512" height="512" viewBox="0 0 512 512" width="512" xmlns="http://www.w3.org/2000/svg"><g><g><path d="m456.969 407.139c27.744-39.712 44.031-88.02 44.031-140.139 0-135.31-109.69-245-245-245s-245 109.69-245 245c0 52.119 16.287 100.427 44.031 140.139z" fill="#49d88b"/></g><g><circle cx="256" cy="242" fill="#38c674" r="200"/></g><g><path d="m355.547 83.218c-12.65-41.159-45.137-83.218-80.681-83.218-12.234 0-18.866 12-18.866 12s-6.632-12-18.866-12c-35.545 0-68.033 42.062-80.682 83.222-3.586 10.526-5.547 21.804-5.589 33.534-.001.128-.005.259-.005.387v30.076h210.286v-30.076c-.001-11.871-1.971-23.282-5.597-33.925z" fill="#ff4155"/></g><g><path d="m208.916 147.218v-12.854c-19.658-17.231-40.8-96.13-.303-125.564-23.524 14.475-43.023 44.682-52.162 74.423-3.586 10.526-5.547 21.804-5.589 33.534-.001.128-.005.259-.005.387v30.076h58.059z" fill="#e80054"/></g><g><path d="m456.949 407.139c-8.256-22.709-16.99-42.685-24.722-51.911-.904-1.078-1.794-2.019-2.668-2.79-6.623-5.848-19.39-11.382-34.352-16.323-3.248-1.073-6.601-2.116-10.016-3.13l-29.765 12.589-10.534-22.841c-22.377-4.959-40.428-7.979-41.505-8.158h-94.772c-1.077.179-19.129 3.199-41.505 8.158l-10.534 22.841-29.765-12.589c-3.415 1.014-6.768 2.058-10.016 3.13-14.961 4.941-27.729 10.475-34.352 16.323-.874.772-1.765 1.712-2.668 2.79-7.732 9.226-16.467 29.203-24.722 51.911-.001.009-.001.018-.002.026 22.564 32.289 52.712 58.885 87.857 77.212v-.002l19.668-4.439 26.505 22.806c21.269 6.029 43.716 9.258 66.919 9.258s45.65-3.229 66.92-9.258l26.505-22.806 19.668 4.439v.002c35.145-18.327 65.293-44.922 87.857-77.212 0-.008 0-.017-.001-.026z" fill="#b76c4e"/></g><g><path d="m147.56 341.761-20.748-8.775c-3.415 1.014-6.77 2.056-10.019 3.129-14.961 4.941-27.729 10.475-34.352 16.323-.874.772-1.765 1.712-2.668 2.79-7.732 9.226-16.467 29.203-24.722 51.911-.001.009-.001.018-.002.026 22.564 32.289 52.712 58.885 87.857 77.212v-.002l19.668-4.439 26.505 22.806c21.271 6.029 43.718 9.258 66.921 9.258-55.783-26.385-97.678-90.901-108.44-170.239z" fill="#a05838"/></g><g><path d="m303.386 314.575h-94.772s-4.38 97.106 47.386 163.319c51.766-66.213 47.386-163.319 47.386-163.319z" fill="#dae2fe"/></g><g><path d="m256 477.894c2.647-3.385 5.139-6.855 7.5-10.384v-152.935h-15v152.934c2.361 3.53 4.853 6.999 7.5 10.385z" fill="#acbbef"/></g><g><path d="m369.09 484.38c-14.59 7.6-30.04 13.8-46.18 18.37v-.01c17.03-58.74 24.37-118.83 21.98-180.01 12.81 2.84 27.03 6.31 40.31 10.25 1.02 51.2-4.36 101.76-16.11 151.4z" fill="#934a2e"/></g><g><path d="m142.91 484.38c14.59 7.6 30.04 13.8 46.18 18.37v-.01c-17.03-58.74-24.37-118.83-21.98-180.01-12.81 2.84-27.03 6.31-40.31 10.25-1.02 51.2 4.36 101.76 16.11 151.4z" fill="#934a2e"/></g><g><path d="m91.07 426.843v21.327c7.157 6.519 14.704 12.617 22.599 18.262l-12.035-41.103c-1.75-5.98-10.564-4.716-10.564 1.514z" fill="#934a2e"/></g><g><path d="m420.93 426.843v21.327c-7.157 6.519-14.704 12.617-22.599 18.262l12.035-41.103c1.75-5.98 10.564-4.716 10.564 1.514z" fill="#a05838"/></g><g><path d="m303.386 299.609-47.386 48.222s18.328 33.146 30.188 33.146c7.034 0 17.106-22.384 24.137-40.597 5.342-13.84 2.694-29.488-6.939-40.771z" fill="#e9efff"/></g><g><path d="m208.614 299.609 47.386 48.222s-18.328 33.146-30.188 33.146c-7.034 0-17.106-22.384-24.137-40.597-5.342-13.84-2.694-29.488 6.939-40.771z" fill="#e9efff"/></g><g><path d="m170.759 413.066c.001.074.011.147.011.221 0 11.13-9.023 20.153-20.153 20.153-9.448 0-17.355-6.511-19.536-15.284 2.702 22.235 6.642 44.316 11.825 66.219 14.595 7.609 30.046 13.802 46.181 18.373-8.568-29.561-14.67-59.469-18.328-89.682z" fill="#823821"/></g><g><path d="m341.241 413.066c-.001.074-.011.147-.011.221 0 11.13 9.023 20.153 20.153 20.153 9.448 0 17.355-6.511 19.536-15.284-2.702 22.235-6.642 44.316-11.825 66.219-14.595 7.609-30.046 13.802-46.181 18.373 8.568-29.561 14.67-59.469 18.328-89.682z" fill="#823821"/></g><g><path d="m180.942 159.567s-10.385-25.285-28.897-19.415.448 60.664 36.573 64.116z" fill="#fd995b"/></g><g><path d="m331.058 159.567s10.385-25.285 28.897-19.415-.448 60.664-36.573 64.116z" fill="#fcad6d"/></g><g><path d="m255.784 82.484s-19.69 60.442-87.333 60.562c-.029 1.23-.049 2.464-.049 3.708 0 64.505 39.219 140.155 87.597 140.155s87.597-75.651 87.597-140.155c0-1.244-.02-2.478-.049-3.708-67.642-.12-87.763-60.562-87.763-60.562z" fill="#f9ba8f"/></g><g><path d="m208.403 146.754c0-4.214.187-8.339.513-12.39-11.036 5.219-24.395 8.653-40.465 8.682-.029 1.23-.049 2.464-.049 3.708 0 64.505 39.219 140.155 87.597 140.155 6.881 0 13.576-1.535 20-4.346-38.74-16.952-67.596-80.479-67.596-135.809z" fill="#fcad6d"/></g><g><path d="m201.001 162.085c-.043-3.495 1.371-7.004 4.242-9.539 4.675-4.128 11.84-4.128 16.515 0 2.871 2.535 4.284 6.044 4.242 9.539-.055 4.538-5.629 6.716-8.838 3.507-2.022-2.022-5.3-2.022-7.322 0-3.21 3.21-8.784 1.032-8.839-3.507z" fill="#162544"/></g><g><path d="m311.239 162.03c.043-3.495-1.371-7.004-4.242-9.539-4.675-4.128-11.84-4.128-16.515 0-2.871 2.535-4.284 6.044-4.242 9.539.055 4.538 5.629 6.716 8.838 3.507 2.022-2.022 5.3-2.022 7.322 0 3.21 3.209 8.784 1.031 8.839-3.507z" fill="#162544"/></g><g><path d="m365.422 281.802c-4.769-22.196-17.73-36.808-17.753-36.834 15.076-55.758-2.4-110.604-2.4-110.604h-9.758c0 26.658-5.987 46.229-12.465 59.602-5.677 11.719-20.76 14.84-30.771 6.512-8.692-7.231-20.984-14.117-36.275-14.117s-27.583 6.886-36.275 14.117c-10.011 8.328-25.094 5.207-30.771-6.512-6.478-13.373-12.465-32.944-12.465-59.602h-9.758s-17.476 54.846-2.4 110.604c-.023.026-12.984 14.638-17.753 36.834-1.552 7.222 5.511 13.293 12.402 10.632l7.02-2.711s-8.156 14.197-8.023 32.301c.059 8.091 9.835 12.151 15.682 6.558l3.256-3.114s1.753 8.126 6.348 16.639c3.944 7.305 15.038 4.502 15.038-3.799 16.186 18.451 36.541 28.268 57.699 28.268s41.513-9.817 57.699-28.268c3.554 7.107 13.792 6.94 17.064-.301 3.094-6.846 4.322-12.538 4.322-12.538l3.256 3.114c5.847 5.593 15.623 1.534 15.682-6.558.133-18.104-8.023-32.301-8.023-32.301l7.02 2.711c6.891 2.66 13.953-3.411 12.402-10.633z" fill="#ff4155"/></g><g><path d="m251.043 320.447c0 8.065-9.8 12.137-15.456 6.388-20.393-20.727-22.087-51.665-22.087-51.665-2.711 5.409-10.791 4.205-11.757-1.768-3.332-20.603-1.4-51.567 15.422-71.111-9.864 5.939-23 2.434-28.211-8.324-6.478-13.373-12.465-32.944-12.465-59.602h-9.758s-17.476 54.846-2.4 110.604c-.023.026-12.984 14.638-17.753 36.834-1.552 7.222 5.511 13.293 12.402 10.632l7.02-2.711s-8.156 14.197-8.023 32.301c.059 8.091 9.835 12.151 15.682 6.558l3.256-3.114s1.753 8.126 6.348 16.639c3.944 7.305 15.038 4.502 15.038-3.799 16.186 18.451 36.541 28.268 57.699 28.268s41.513-9.817 57.699-28.268c-51.385-.002-62.656-17.862-62.656-17.862z" fill="#e80054"/></g><g><path d="m223.5 134.968h-20c-4.142 0-7.5-3.358-7.5-7.5 0-4.142 3.358-7.5 7.5-7.5h20c4.142 0 7.5 3.358 7.5 7.5 0 4.142-3.358 7.5-7.5 7.5z" fill="#cc0053"/></g><g><path d="m308.5 134.968h-20c-4.142 0-7.5-3.358-7.5-7.5 0-4.142 3.358-7.5 7.5-7.5h20c4.142 0 7.5 3.358 7.5 7.5 0 4.142-3.358 7.5-7.5 7.5z" fill="#cc0053"/></g><g><g><path d="m242.013 192.447 8.436-13.441c2.569-4.093 8.533-4.093 11.102 0l8.436 13.441c2.739 4.365-.398 10.038-5.551 10.038h-16.871c-5.154-.001-8.291-5.674-5.552-10.038z" fill="#fd995b"/></g></g><g><g><path d="m235.384 240.87h41.233c4.111-3.622 7.258-8.309 9.01-13.631 1.584-4.811-2.069-9.754-7.134-9.754h-44.985c-5.065 0-8.718 4.943-7.134 9.754 1.752 5.322 4.899 10.009 9.01 13.631z" fill="#162544"/></g><g><path d="m276.616 240.87c-5.493 4.849-12.714 7.798-20.616 7.798s-15.124-2.948-20.616-7.798c5.5-4.849 12.714-7.798 20.616-7.798s15.116 2.949 20.616 7.798z" fill="#e80054"/></g></g></g></svg>