<svg id="Capa_1" enable-background="new 0 0 512 512" height="512" viewBox="0 0 512 512" width="512" xmlns="http://www.w3.org/2000/svg"><g><path d="m0 256c0-141.385 114.615-256 256-256s256 114.615 256 256c0 63.113-22.839 120.891-60.702 165.521-2.696 3.178-104.768-42.521-162.798-42.521-73.779 0-190.682 78.309-192.5 76.852-58.526-46.916-96-119.008-96-199.852z" fill="#fcc1b8"/><path d="m457.894 256c0 111.503-90.391 201.894-201.894 201.894s-201.894-90.391-201.894-201.894 90.391-201.894 201.894-201.894 201.894 90.391 201.894 201.894z" fill="#fccfc9"/><path d="m451.298 364c0 .083-.001.167-.002.25.001.083.002.167.002.25v57.021c-11.157 13.151-23.618 25.16-37.184 35.828-8.848 6.958-21.816.743-21.816-10.513v-67.836h-113.798c-8.284 0-15-6.716-15-15v-29c0-8.284 6.716-15 15-15h128.798c24.3 0 44 19.699 44 44z" fill="#24d3b5"/><path d="m166 340h43.333c-38.66 0-70 31.34-70 70v59.213c0 6.73-7.321 10.913-13.119 7.496-10.583-6.237-20.678-13.213-30.214-20.857v-45.852c0-38.66 31.34-70 70-70z" fill="#2e5aac"/><path d="m416 410v39.977c0 3.756-1.751 7.3-4.736 9.58-16.983 12.974-35.638 23.871-55.586 32.311-.98.415-2.262-1.612-3.248-1.209-2.81 1.148-5.645 2.247-8.504 3.296-1.178.432-2.062 3.292-3.248 3.707-26.505 9.288-55.002 14.338-84.678 14.338s-58.173-5.05-84.679-14.337c-1.356-.475-1.572-2.592-2.917-3.089-2.627-.971-5.234-1.983-7.819-3.037-1.047-.427-3.224.771-4.264.331-10.482-4.435-20.608-9.549-30.321-15.286v-66.582c0-38.66 31.34-70 70-70h150c38.66 0 70 31.34 70 70z" fill="#4172cc"/><path d="m355.678 434.76v57.109c-4.923 2.083-9.925 4.017-15 5.794v-62.903c0-4.142 3.358-7.5 7.5-7.5s7.5 3.358 7.5 7.5zm-191.856-7.5c-4.142 0-7.5 3.358-7.5 7.5v57.109c4.923 2.083 9.925 4.017 15 5.794v-62.903c0-4.142-3.358-7.5-7.5-7.5z" fill="#2e5aac"/><path d="m366 170v40c0 60.751-49.249 110-110 110-60.751 0-110-49.249-110-110v-40c0-60.751 49.249-110 110-110 60.751 0 110 49.249 110 110z" fill="#e3a76f"/><path d="m366 170v40c0 50.792-34.425 93.543-81.216 106.195-9.023 2.44-18.545 2.44-27.568 0-46.791-12.652-81.216-55.403-81.216-106.195v-40c0-55.663 41.345-101.669 95-108.985 53.655 7.316 95 53.322 95 108.985z" fill="#f2bb88"/><path d="m241.5 216.732c-2.929-2.93-2.929-7.678 0-10.607 2.929-2.928 7.678-2.928 10.606 0 1.042 1.042 2.424 1.616 3.893 1.616s2.851-.574 3.893-1.616c2.929-2.928 7.678-2.928 10.606 0 2.929 2.93 2.929 7.678 0 10.607-3.875 3.875-9.024 6.009-14.5 6.009s-10.623-2.134-14.498-6.009zm44.803 27.6c-2.929-2.928-7.678-2.928-10.606 0-10.861 10.861-28.532 10.861-39.394 0-2.929-2.928-7.678-2.928-10.606 0-2.929 2.93-2.929 7.678 0 10.607 8.354 8.354 19.329 12.531 30.303 12.531s21.949-4.177 30.303-12.531c2.929-2.929 2.929-7.677 0-10.607z" fill="#d6995c"/><path d="m223.5 177.5c0 8.284-6.716 15-15 15s-15-6.716-15-15 6.716-15 15-15 15 6.716 15 15zm80-15c-8.284 0-15 6.716-15 15s6.716 15 15 15 15-6.716 15-15-6.716-15-15-15z" fill="#61362b"/><path d="m226 170c0 4.142-3.358 7.5-7.5 7.5s-7.5-3.358-7.5-7.5 3.358-7.5 7.5-7.5 7.5 3.358 7.5 7.5zm87.5-7.5c-4.142 0-7.5 3.358-7.5 7.5s3.358 7.5 7.5 7.5 7.5-3.358 7.5-7.5-3.358-7.5-7.5-7.5z" fill="#fff5f5"/><path d="m361 130h-177.501s-29.643-22.673-24.593-32.348c11.682-22.377 35.104-37.652 62.094-37.652h70c38.66 0 70 31.34 70 70z" fill="#4172cc"/><path d="m183.499 130h-32.499c0-38.66 31.34-70 70-70 0 0 56.384 1.885 50 1.015-40.053 5.461-73.245 32.482-87.501 68.985z" fill="#2e5aac"/><path d="m327.199 462.461h-8.699c-8.284 0-15-6.716-15-15v-120.476c0-8.284 6.716-15 15-15h53.699c8.284 0 15 6.716 15 15v75.476c0 33.137-26.863 60-60 60z" fill="#20b7a1"/><path d="m410.564 348.898v-190.808c0-73.249-59.38-132.629-132.629-132.629h-43.87c-73.249 0-132.629 59.38-132.629 132.629v141.969c0 45.553 36.928 82.48 82.48 82.48h192.316c18.961 0 34.332 15.371 34.332 34.332v43.22c7.751-5.879 15.156-12.189 22.181-18.895v-32.945c0-10.905-3.938-21.444-11.09-29.676-7.153-8.233-11.091-18.772-11.091-29.677zm-42.339-138.777c0 61.98-50.245 112.225-112.225 112.225-61.98 0-112.225-50.244-112.225-112.225v-40.809c0-61.979 50.245-112.225 112.225-112.225 61.98 0 112.225 50.245 112.225 112.225z" fill="#24d3b5"/><path d="m208.48 382.539h-24.564c-45.553 0-82.48-36.928-82.48-82.48v-141.969c0-73.249 59.38-132.629 132.629-132.629h24.564c-73.249 0-132.629 59.38-132.629 132.629v141.969c0 45.552 36.928 82.48 82.48 82.48zm165.02-212.539v102.682c0 48.675-39.601 88.275-88.276 88.275-4.142 0-7.5-3.357-7.5-7.5s3.358-7.5 7.5-7.5c40.404 0 73.276-32.871 73.276-73.275v-5.279c-20.148 35.835-58.544 60.097-102.5 60.097-64.79 0-117.5-52.71-117.5-117.5v-40c0-64.79 52.71-117.5 117.5-117.5s117.5 52.71 117.5 117.5zm-15 0c0-56.519-45.981-102.5-102.5-102.5s-102.5 45.981-102.5 102.5v40c0 56.519 45.981 102.5 102.5 102.5s102.5-45.981 102.5-102.5z" fill="#20b7a1"/></g></svg>