<svg id="Capa_1" enable-background="new 0 0 512 512" height="512" viewBox="0 0 512 512" width="512" xmlns="http://www.w3.org/2000/svg"><g><g><path d="m456.969 407.139c27.744-39.712 44.031-88.02 44.031-140.139 0-135.31-109.69-245-245-245s-245 109.69-245 245c0 52.119 16.287 100.427 44.031 140.139z" fill="#7255ce"/></g><g><circle cx="256" cy="242" fill="#5c45bf" r="200"/></g><g><path d="m456.949 407.139c-8.256-22.709-16.99-42.685-24.722-51.911-.904-1.078-1.794-2.019-2.668-2.79-6.623-5.848-19.39-11.382-34.352-16.323-37.928-12.525-89.968-21.232-91.82-21.54h-94.772c-1.853.307-53.892 9.014-91.82 21.54-14.961 4.941-27.729 10.475-34.352 16.323-.874.771-1.765 1.712-2.668 2.79-7.732 9.226-16.467 29.202-24.722 51.911-.001.009-.001.018-.002.026 16.027 22.935 35.881 42.997 58.633 59.266h284.636c22.752-16.269 42.605-36.331 58.633-59.266-.003-.008-.003-.017-.004-.026z" fill="#3c5082"/></g><g><path d="m113.682 466.431h85.514c-27.073-33.038-45.923-77.822-52.122-128.443-.424-3.58-.763-7-1.034-10.266-9.967 2.528-20.023 5.347-29.245 8.393-14.961 4.941-27.729 10.475-34.352 16.323-.874.771-1.765 1.712-2.668 2.79-7.732 9.226-16.467 29.202-24.722 51.911-.001.009-.001.018-.002.026 16.025 22.936 35.879 42.998 58.631 59.266z" fill="#2d3c6b"/></g><g><path d="m395.206 336.115c-37.929-12.525-89.967-21.232-91.82-21.54h-94.772c-1.853.307-53.892 9.014-91.82 21.54.004.013 27.153 89.732-3.116 130.304v.01.01c34.998 25.02 76.856 41.058 122.208 44.744v-.001l20.114-13.714 20.114 13.713v.001c45.352-3.686 87.21-19.724 122.208-44.744 0-.003 0-.006 0-.01 0-.003 0-.007 0-.01-30.268-40.572-3.119-130.291-3.116-130.303z" fill="#e9efff"/></g><g><path d="m235.886 511.181 8.24-5.618-.647-.266c-50.321-30.129-87.223-92.338-96.405-167.31-.424-3.58-.763-7-1.034-10.266-9.967 2.528-20.023 5.347-29.245 8.393.004.013 27.153 89.732-3.116 130.304v.01.01c34.998 25.02 76.856 41.058 122.207 44.743z" fill="#dae2fe"/></g><g><path d="m303.386 314.575h-94.772l27.272 196.606c6.634.539 13.341.819 20.114.819s13.48-.28 20.114-.819z" fill="#3c5082"/></g><g><path d="m276.114 511.181 4.111-29.633c-26.458-6.208-53.849-38.937-60.138-84.271l15.8 113.904c6.633.539 13.34.819 20.113.819s13.48-.28 20.114-.819z" fill="#2d3c6b"/></g><g><path d="m248.5 511.873c2.492.076 4.99.127 7.5.127s5.008-.051 7.5-.127v-197.298h-15z" fill="#213159"/></g><g><path d="m208.614 221.239v93.336s19.021 33.261 47.17 33.261c.073 0 .143-.005.216-.005 28.031-.103 47.386-33.256 47.386-33.256v-93.336z" fill="#f3d6ac"/></g><g><path d="m208.614 220.734v93.841c94.723 0 94.772-53.4 94.772-53.4v-40.44h-94.772z" fill="#eabe8d"/></g><g><path d="m303.386 299.609-47.386 48.222s18.328 33.146 30.188 33.146c7.034 0 17.106-22.384 24.137-40.597 5.342-13.84 2.694-29.488-6.939-40.771z" fill="#4b6496"/></g><g><path d="m208.614 299.609 47.386 48.222s-18.328 33.146-30.188 33.146c-7.034 0-17.106-22.384-24.137-40.597-5.342-13.84-2.694-29.488 6.939-40.771z" fill="#4b6496"/></g><g><path d="m91.07 426.843v21.327c7.157 6.519 14.704 12.617 22.599 18.262l-12.035-41.103c-1.75-5.98-10.564-4.716-10.564 1.514z" fill="#213159"/></g><g><path d="m420.93 426.843v21.327c-7.157 6.519-14.704 12.617-22.599 18.262l12.035-41.103c1.75-5.98 10.564-4.716 10.564 1.514z" fill="#2d3c6b"/></g><g><ellipse cx="256" cy="22" fill="#213159" rx="43.951" ry="22"/></g><g><path d="m256 37c-55.228 0-100 44.771-100 100v15.119h100z" fill="#acbbef"/></g><g><path d="m356 137c0-55.228-44.771-100-100-100v115.119h100z" fill="#bec8f7"/></g><g><g><path d="m256.714 22c-36.27 0-68.249 18.366-87.148 46.304-4.328 6.399-5.215 14.524-2.348 21.697l30.828 77.118h115.068l31.654-79.184c2.932-7.333 1.985-15.685-2.625-22.097-19.084-26.549-50.237-43.838-85.429-43.838z" fill="#2d3c6b"/></g><g><path d="m225.04 79.602c-20.814-9.524-24.142-41.567-9.108-49.39-18.908 7.966-35.003 21.295-46.366 38.092-4.328 6.398-5.216 14.524-2.348 21.697l30.828 77.118h26.994z" fill="#213159"/></g></g><g><path d="m331.058 159.567s10.385-25.285 28.897-19.415-.448 60.664-36.573 64.116z" fill="#f3d6ac"/></g><g><path d="m180.942 159.567s-10.385-25.285-28.897-19.415.448 60.664 36.573 64.116z" fill="#eabe8d"/></g><g><path d="m327.049 124.754c-3.509-10.287-9.219-24.496-16.225-32.717-3.978-3.853-8.145-7.046-12.399-9.103-8.195-3.963-15.758-4.069-22.16-2.497-13.314 3.269-27.216 3.268-40.53 0-6.402-1.572-13.966-1.466-22.16 2.497-4.254 2.057-8.421 5.25-12.399 9.103-7.006 8.221-12.716 22.43-16.225 32.717-2.762 8.097-8.72 14.703-16.484 18.295-.031 1.23-.063 2.46-.063 3.705 0 64.505 39.219 140.155 87.597 140.155s87.597-75.651 87.597-140.155c0-1.245-.032-2.475-.063-3.705-7.766-3.592-13.724-10.198-16.486-18.295z" fill="#f8e6cc"/></g><g><path d="m208.403 146.754c0-25.925 6.339-48.917 17.057-67.152-3.755.312-7.739 1.327-11.885 3.333-4.254 2.057-8.421 5.25-12.399 9.103-7.006 8.221-12.716 22.43-16.225 32.717-2.762 8.097-8.72 14.703-16.484 18.295-.031 1.23-.063 2.46-.063 3.705 0 64.505 39.219 140.155 87.597 140.155 6.881 0 13.576-1.535 20-4.346-38.742-16.953-67.598-80.48-67.598-135.81z" fill="#f3d6ac"/></g><g><path d="m311.557 158.853c-.863-3.387-3.137-6.41-6.566-8.116-5.584-2.778-12.505-.923-15.952 4.274-2.117 3.192-2.574 6.947-1.628 10.312 1.228 4.369 7.176 5.031 9.445 1.1 1.43-2.476 4.596-3.325 7.072-1.895 3.93 2.269 8.75-1.277 7.629-5.675z" fill="#162544"/></g><g><path d="m200.443 158.853c.863-3.387 3.137-6.41 6.566-8.116 5.584-2.778 12.505-.923 15.952 4.274 2.117 3.192 2.574 6.947 1.628 10.312-1.228 4.369-7.176 5.031-9.445 1.1-1.43-2.476-4.596-3.325-7.072-1.895-3.93 2.269-8.75-1.277-7.629-5.675z" fill="#162544"/></g><g><g><path d="m242.013 192.447 8.436-13.441c2.569-4.093 8.533-4.093 11.102 0l8.436 13.441c2.739 4.365-.398 10.038-5.551 10.038h-16.871c-5.154-.001-8.291-5.674-5.552-10.038z" fill="#eabe8d"/></g></g><g><g><path d="m235.384 240.87h41.233c4.111-3.622 7.258-8.309 9.01-13.631 1.584-4.811-2.069-9.754-7.134-9.754h-44.985c-5.065 0-8.718 4.943-7.134 9.754 1.752 5.322 4.899 10.009 9.01 13.631z" fill="#162544"/></g><g><path d="m276.616 240.87c-5.493 4.849-12.714 7.798-20.616 7.798s-15.124-2.948-20.616-7.798c5.5-4.849 12.714-7.798 20.616-7.798s15.116 2.949 20.616 7.798z" fill="#ff4155"/></g></g><g><path d="m223.5 138.968h-20c-4.142 0-7.5-3.358-7.5-7.5 0-4.142 3.358-7.5 7.5-7.5h20c4.142 0 7.5 3.358 7.5 7.5 0 4.142-3.358 7.5-7.5 7.5z" fill="#162544"/></g><g><path d="m308.5 138.968h-20c-4.142 0-7.5-3.358-7.5-7.5 0-4.142 3.358-7.5 7.5-7.5h20c4.142 0 7.5 3.358 7.5 7.5 0 4.142-3.358 7.5-7.5 7.5z" fill="#162544"/></g></g></svg>