<svg id="Capa_1" enable-background="new 0 0 512 512" height="512" viewBox="0 0 512 512" width="512" xmlns="http://www.w3.org/2000/svg"><g><path d="m436.453 325.3-14.586-4.835-165.862 191.535h224.128v-126.203c0-27.472-17.604-51.853-43.68-60.497z" fill="#5b362a"/><path d="m334.622 291.544-78.617 220.456c121.337-.005 165.862-191.535 165.862-191.535z" fill="#895140"/><path d="m343.758 387.654s-97.757-78.979-97.758-78.981l10 203.327c61.875-27.947 82.853-78.622 87.759-124.346z" fill="#cfcfe6"/><path d="m75.547 325.3 14.586-4.835 165.862 191.535h-224.128v-126.203c0-27.472 17.604-51.853 43.68-60.497z" fill="#895140"/><path d="m177.378 291.544 78.617 220.456c-121.337-.005-165.862-191.535-165.862-191.535z" fill="#b56d3c"/><path d="m168.242 387.654s87.757-78.979 87.758-78.981v203.327c-61.875-27.947-82.853-78.622-87.759-124.346z" fill="#ece6f2"/><path d="m343.758 387.654h.001c5.489-51.153-9.138-96.11-9.138-96.11l-88.622-10 10 37.128c.002.003 22.632 48.547 87.759 68.982z" fill="#ece6f2"/><path d="m168.242 387.654h-.001c-5.489-51.153 9.138-96.11 9.138-96.11l78.622-10v37.128c-.002.003-22.632 48.547-87.759 68.982z" fill="#fff5f5"/><path d="m128.531 191.204h-31.867c-17.6 0-31.868-14.268-31.868-31.868 0-17.6 14.268-31.868 31.868-31.868l41.867-10z" fill="#ffdecf"/><path d="m383.469 191.204h31.867c17.6 0 31.868-14.268 31.868-31.868 0-17.6-14.268-31.868-31.868-31.868l-41.867-10z" fill="#ffcdbe"/><path d="m361.78 56.32c-22.896-33.975-61.729-56.32-105.78-56.32l-10 175.27 10 143.403c70.399 0 127.469-57.07 127.469-127.469v-63.735z" fill="#ffdecf"/><path d="m150.22 56.32-21.689 71.149v63.735c0 70.399 57.07 127.469 127.469 127.469v-318.673c-44.052 0-82.884 22.345-105.78 56.32z" fill="#ffeee5"/><path d="m128.531 127.469h-31.867v-47.801c0-17.6 14.267-31.867 31.867-31.867 17.6 0 31.867 14.267 31.867 31.867v15.934c0 17.599-14.267 31.867-31.867 31.867z" fill="#b56d3c"/><path d="m383.469 127.469h31.867v-47.801c0-17.6-14.267-31.867-31.867-31.867-17.6 0-31.867 14.267-31.867 31.867v15.934c0 17.599 14.267 31.867 31.867 31.867z" fill="#895140"/><path d="m184.299 160.27h31.867v30h-31.867z" fill="#332866"/><path d="m295.834 160.27h31.867v30h-31.867z" fill="#180a33"/></g></svg>