<svg id="Capa_1" enable-background="new 0 0 512 512" height="512" viewBox="0 0 512 512" width="512" xmlns="http://www.w3.org/2000/svg"><g><path d="m0 256c0-141.385 114.615-256 255.999-256 141.011 0 257.02 116.894 255.994 257.902-.465 63.858-24.31 122.155-63.4 166.756-5.14 5.865-13.85 7.012-20.351 2.704-40.483-26.83-89.038-42.457-141.243-42.457-68.392 0-130.52 26.819-176.44 70.514-3.963 3.771-10.108 3.994-14.379.577-58.628-46.912-96.18-119.069-96.18-199.996z" fill="#20b7a1"/><path d="m467.496 240.504c0 116.806-94.69 211.496-211.496 211.496s-211.496-94.69-211.496-211.496 94.69-211.497 211.496-211.497 211.496 94.691 211.496 211.497z" fill="#24d3b5"/><path d="m177.758 346.926c-22.797 11.542-38.424 35.191-38.424 62.49v59.898c0 6.686-7.271 10.839-13.032 7.446-10.615-6.25-20.739-13.243-30.301-20.908v-46.436c0-27.769 16.169-51.761 39.607-63.075.743-.359 1.896.757 2.653.424 3.079-1.354 6.274-2.492 9.567-3.396.972-.267 1.55-1.975 2.538-2.2 4.486-1.023 9.136-1.616 13.905-1.732h.018c3.137-.066 6.168 1.108 8.493 3.215 1.62 1.467 3.279 2.892 4.976 4.274z" fill="#ffcd71"/><path d="m177.816 499.841c-18.249-5.846-35.606-13.684-51.816-23.258v-7.292c1.587-1.46 2.489-3.518 2.489-5.674v-9.885c0-1.767-.607-3.481-1.72-4.855l-.769-.949v-38.512c0-4.063.346-8.046 1.011-11.92.034-.197.178-.398.385-.591 2.067-1.934 3.412-4.517 4.308-7.202l1.127-3.375c.874-2.617.893-5.383.646-8.131-.014-.157 0-.292.053-.396 3.022-5.96 6.872-11.43 11.399-16.257.442-.472 1.622-.49 2.077-.949 2.559-2.582 5.317-4.966 8.25-7.127.542-.399.36-1.238.914-1.622 5.25-3.639 11.022-6.579 17.18-8.683 21.936 19.627 50.9 31.561 82.651 31.561 33.724 0 64.303-13.463 86.657-35.307h3.342c.038.091.04.098.078.189l-157.649 157.648c-2.776 2.776-6.874 3.784-10.613 2.587z" fill="#fff68e"/><path d="m138.26 458.609c0 5.955-4.828 10.783-10.783 10.783s-10.783-4.828-10.783-10.783 4.828-10.783 10.783-10.783c5.955.001 10.783 4.828 10.783 10.783zm-10.783-82.667c-5.955 0-10.783 4.828-10.783 10.783s4.828 10.783 10.783 10.783 10.783-4.828 10.783-10.783-4.828-10.783-10.783-10.783zm-7.188 46.725c0-5.955-4.828-10.783-10.783-10.783s-10.783 4.828-10.783 10.783 4.828 10.783 10.783 10.783 10.783-4.828 10.783-10.783zm30.08-81.481c-5.159 1.177-10.1 2.923-14.755 5.17-.609 1.351-.948 2.849-.948 4.427 0 5.955 4.828 10.783 10.783 10.783s10.783-4.828 10.783-10.783c-.001-4.183-2.382-7.809-5.863-9.597z" fill="#ffc14f"/><path d="m170.608 350.783c0-2.872 1.123-5.481 2.953-7.414 5.328 4.746 11.069 9.039 17.161 12.818-1.866 3.216-5.346 5.378-9.332 5.378-5.954 0-10.782-4.827-10.782-10.782zm-32.348 35.942c0-3.708-1.872-6.979-4.723-8.92-3.097 6.103-5.326 12.721-6.523 19.692.154.007.308.011.463.011 5.955 0 10.783-4.828 10.783-10.783zm17.918-34.867c-4.083 2.83-7.851 6.082-11.24 9.695.169.008.339.012.511.012 5.591 0 10.189-4.257 10.729-9.707zm-3.541 34.867c0 5.955 4.828 10.783 10.783 10.783s10.783-4.828 10.783-10.783-4.828-10.783-10.783-10.783c-5.956 0-10.783 4.828-10.783 10.783zm28.754 25.159c-5.955 0-10.783 4.828-10.783 10.783s4.828 10.783 10.783 10.783 10.783-4.828 10.783-10.783c-.001-5.955-4.828-10.783-10.783-10.783zm17.971-14.376c5.955 0 10.783-4.828 10.783-10.783s-4.828-10.783-10.783-10.783-10.783 4.828-10.783 10.783 4.828 10.783 10.783 10.783zm17.971 14.376c-5.955 0-10.783 4.828-10.783 10.783s4.828 10.783 10.783 10.783 10.783-4.828 10.783-10.783-4.828-10.783-10.783-10.783zm-89.856 35.943c-.501 0-.994.035-1.477.101v21.363c.483.066.976.101 1.477.101 5.955 0 10.783-4.828 10.783-10.783s-4.828-10.782-10.783-10.782zm125.798-35.943c-5.955 0-10.783 4.828-10.783 10.783 0 5.625 4.307 10.243 9.803 10.738l11.717-11.717c-.494-5.496-5.112-9.804-10.737-9.804zm-71.884 71.885c-5.955 0-10.783 4.828-10.783 10.783 0 1.052.151 2.069.432 3.03 2.245.789 4.503 1.548 6.776 2.276 3.739 1.198 7.837.189 10.613-2.587l3.699-3.699c-.494-5.496-5.112-9.803-10.737-9.803zm17.971-35.942c-5.955 0-10.783 4.828-10.783 10.783s4.828 10.783 10.783 10.783 10.783-4.828 10.783-10.783c-.001-5.956-4.828-10.783-10.783-10.783zm-25.16 10.782c0-5.955-4.828-10.783-10.783-10.783s-10.783 4.828-10.783 10.783 4.828 10.783 10.783 10.783c5.956 0 10.783-4.827 10.783-10.783zm-17.971-35.942c0-5.955-4.828-10.783-10.783-10.783s-10.783 4.828-10.783 10.783 4.828 10.783 10.783 10.783 10.783-4.828 10.783-10.783z" fill="#ffcd71"/><path d="m347.73 339.437c-22.681 24.921-55.379 40.563-91.73 40.563s-69.049-15.642-91.73-40.563c.192-.005 20.596-.009 47.666-.012.381 0 .79.115 1.209.311 6.164 2.881 12.727 4.813 19.53 4.812l47.473-.004c6.707-.001 13.189-1.911 19.189-4.907.281-.14.528-.22.726-.22 26.331-.002 45.936-.002 45.936-.002.579.001 1.156.008 1.731.022z" fill="#a65d4e"/><path d="m295.238 323.143c-2.934.861-5.799 1.966-8.564 3.307-13.22 6.41-28.444 7.305-42.324 2.49-6.879-2.386-14.146-3.393-21.414-2.965-14.666.862-29.075-4.137-40.055-13.897-5.437-4.833-11.773-8.548-18.646-10.932-7.11-2.467-13.569-6.329-19.04-11.286-1.261-1.142.113-2.958-1.039-4.214-3.607-3.931-6.148-7.205-8.518-12.093l-.511-1.191c-.488-1.007-3.589-1.383-4.136-2.357-3.008-5.352-6.889-10.174-11.489-14.264-2.51-2.231-4.797-4.677-6.841-7.298-1.463-1.876-.313-3.763-1.52-5.803-3.078-5.203-5.302-10.895-6.556-16.837-.32-1.515-3.065-3.124-3.257-4.668-.146-1.175-.254-2.358-.324-3.546-.427-7.262-2.281-14.369-5.454-20.915-.756-1.56-1.436-3.148-2.038-4.758-.623-1.666-.053-3.736-.511-5.443-.841-3.138-1.403-6.336-1.682-9.557-.106-1.217-1.282-2.057-1.307-3.278-.133-6.498.877-13.03 3.048-19.288.999-2.878 1.755-5.825 2.267-8.811.323-1.886 3.906-2.83 4.032-4.741.151-2.293.16-4.599.024-6.904-.185-3.139-3.459-7.223-3.117-10.306 1.254-11.327 5.985-22.075 13.656-30.706 4.833-5.437 8.548-11.773 10.932-18.646 0-14.41 9.748-26.655 22.976-30.464 2.771-.798 5.31.271 8.329.271l1.691-.096c7.204 0 15.032-4.956 15.032-12.16 0 0-1.096-3.952-.298-4.747 9.556-9.511 22.289-15.24 35.825-16.036 7.262-.427 14.369-2.281 20.915-5.454 7.165-3.474 14.92-5.328 22.73-5.531 4.628-.12 7.035 5.461 3.694 8.666-37.179 35.671-60.324 85.857-60.324 141.449.002 74.922 42.039 140.024 103.814 173.009z" fill="#ffc14f"/><path d="m412.107 137.809c1.073 2.214 6.336 2.001 7.099 4.312 3.794 11.487 3.743 23.975-.266 35.531-2.385 6.873-3.392 14.148-2.965 21.411.454 7.718-.715 15.365-3.347 22.478-1 2.703-5.332 4.371-6.745 6.895-1.936 3.456-2.848 4.409-5.521 7.416l-1.404 2.311c-2.076 2.336-.826 5.795-2.473 8.434-2.186 3.504-3.979 7.249-5.339 11.169-1.573 4.534-3.714 8.804-6.344 12.721-.678 1.01-3.06 1.384-3.802 2.346-3.599 4.665-7.933 8.744-12.849 12.066-1.159.783-.68 2.136-1.902 2.833-1.068.609-2.159 1.184-3.272 1.723-6.546 3.174-12.403 7.606-17.236 13.043-9.761 10.981-23.484 17.635-38.151 18.498-6.987.411-15.784 3.218-22.122 6.175-64.904-31.942-107.612-99.811-107.612-177.036 0-36.591 10.027-70.84 27.483-100.149.588-.988 2.63-1.668 3.235-2.644 3.35-5.406 6.955-10.636 10.799-15.675.603-.791-.233-1.878.382-2.659 8.34-10.596 17.75-20.311 28.066-28.982 6.677-.202 13.398.803 19.83 3.035 6.873 2.385 14.148 3.392 21.411 2.965 14.667-.863 29.076 4.136 40.057 13.897 3.99 3.546 8.463 6.491 13.278 8.749 1.747.819 3.079 4.332 4.909 4.967 5.313 1.843 10.262 4.465 14.706 7.741 2.062 1.519 4.475.396 6.305 2.184 4.535 4.43 8.319 9.646 11.137 15.46 2.232 4.603 5.086 8.866 8.474 12.671.413.463-.665 2.469-.236 2.919 1.056 1.109 1.223 1.494 2.371 2.514l.937.681c.567.504 2.62-.532 3.163-.007 9.987 9.637 16.014 22.699 16.833 36.609.134 2.272.407 4.528.816 6.757.294 1.602-3.684 5.673-3.25 7.242.892 3.226.428 3.889 1.895 6.916z" fill="#ffcd71"/><path d="m95.327 145.539c.711-4.149.947-8.375.698-12.602-.185-3.139-.1-6.266.241-9.35 2.62-2.237 6.019-3.587 9.734-3.587 8.284 0 15 6.716 15 15s-6.716 15-15 15c-4.176 0-7.954-1.707-10.673-4.461zm-5.325 27.462c.06 6.726 1.345 13.427 3.835 19.763 1.373-2.265 2.163-4.922 2.163-7.764 0-4.906-2.356-9.262-5.998-11.999zm65.998-53.001c-8.284 0-15 6.716-15 15s6.716 15 15 15 15-6.716 15-15-6.716-15-15-15zm-40 65c0 8.284 6.716 15 15 15s15-6.716 15-15-6.716-15-15-15-15 6.716-15 15zm90-165c-8.284 0-15 6.716-15 15s6.716 15 15 15 15-6.716 15-15-6.716-15-15-15zm-48.582 29.935c6.948-.638 12.654-6.177 13.474-13.106.431-3.646-.447-7.072-2.226-9.868-.027.027-.054.053-.08.08-1.381 1.374-2.201 3.182-2.591 5.09-1.216 5.944-6.475 10.415-12.778 10.415h-.672c-3.019 0-5.942.428-8.713 1.226 2.978 4.125 8.002 6.675 13.586 6.163zm-26.418 220.065c-.004 0-.008 0-.011 0 .548.975 1.068 1.968 1.557 2.977 3.126 6.448 7.44 12.161 12.65 16.882.521-1.524.805-3.158.805-4.859-.001-8.284-6.717-15-15.001-15zm-25-50c-1.648 0-3.233.266-4.717.757 1.185 10.111 5.158 19.709 11.378 27.686 4.943-2.453 8.339-7.552 8.339-13.443 0-8.284-6.716-15-15-15zm25-120c8.284 0 15-6.716 15-15s-6.716-15-15-15c-3.912 0-7.473 1.497-10.144 3.95-.001.095-.002.19-.002.285-1.257 3.623-2.884 7.097-4.849 10.369-.003.131-.005.263-.005.396 0 8.284 6.716 15 15 15zm50-30c-8.284 0-15 6.716-15 15s6.716 15 15 15 15-6.716 15-15-6.716-15-15-15z" fill="#ffb52d"/><path d="m219.755 29.007c.801 1.836 1.245 3.863 1.245 5.993 0 8.284-6.716 15-15 15-.221 0-.441-.005-.66-.015 4.356-7.313 9.174-14.319 14.415-20.978zm36.245-9.007c-8.284 0-15 6.716-15 15s6.716 15 15 15 15-6.716 15-15-6.716-15-15-15zm110 165c0 8.284 6.716 15 15 15s15-6.716 15-15-6.716-15-15-15-15 6.716-15 15zm-45-150c0-8.284-6.716-15-15-15s-15 6.716-15 15 6.716 15 15 15 15-6.716 15-15zm60 65c8.284 0 15-6.716 15-15 0-2.609-.666-5.062-1.837-7.198-.543-.524-1.098-1.039-1.665-1.542-1.614-1.434-3.138-2.96-4.568-4.565-2.073-1.083-4.43-1.695-6.93-1.695-8.284 0-15 6.716-15 15s6.716 15 15 15zm-25-50c5.101 0 9.607-2.546 12.317-6.437-5.778-5.644-12.775-10.011-20.552-12.709-1.83-.635-3.621-1.365-5.368-2.184-.896 1.923-1.397 4.068-1.397 6.33 0 8.284 6.716 15 15 15zm60.45 85.326c-2.181-4.498-3.739-9.262-4.638-14.158-1.787-.752-3.751-1.168-5.812-1.168-8.284 0-15 6.716-15 15s6.716 15 15 15c5.707 0 10.67-3.188 13.205-7.879-.763-2.311-1.681-4.581-2.755-6.795zm-25.45 99.674c0 4.672 2.136 8.845 5.485 11.596 1.647-2.639 3.516-5.141 5.593-7.477 4.624-5.203 8.18-11.175 10.55-17.579-1.999-.986-4.248-1.54-6.627-1.54-8.285 0-15.001 6.716-15.001 15zm-25 50c0 .932.085 1.845.248 2.73 7.473-4.261 13.81-10.179 18.553-17.244-1.214-.317-2.488-.486-3.801-.486-8.284 0-15 6.716-15 15zm-20-200c0-8.284-6.716-15-15-15s-15 6.716-15 15 6.716 15 15 15 15-6.716 15-15zm25 50c0-8.284-6.716-15-15-15s-15 6.716-15 15 6.716 15 15 15 15-6.716 15-15z" fill="#ffc14f"/><path d="m146 249.416c-13.807 0-25-11.193-25-25v-10c0-13.807 11.193-25 25-25 13.807 0 25 11.193 25 25v10c0 13.807-11.193 25-25 25z" fill="#b46e5a"/><path d="m136 209.416v20c0 8.178 3.927 15.439 9.998 20-13.806-.001-24.998-11.194-24.998-25v-10c0-13.806 11.192-24.999 24.998-25-6.071 4.561-9.998 11.822-9.998 20zm230-20v-20c0-60.751-49.249-110-110-110-60.751 0-110 49.249-110 110v40c0 50.351 33.83 92.8 80 105.859v54.141h60v-54.141c33.586-9.499 60.641-34.551 72.895-66.883 2.252.666 4.637 1.024 7.105 1.024 13.807 0 25-11.193 25-25v-10c0-13.807-11.193-25-25-25z" fill="#a65d4e"/><path d="m366 169.416v40c0 50.792-34.425 93.543-81.216 106.195-9.023 2.44-18.545 2.44-27.568 0-46.791-12.652-81.216-55.403-81.216-106.195v-40c0-55.663 41.345-101.669 95-108.985 53.655 7.316 95 53.322 95 108.985z" fill="#b46e5a"/><path d="m241.501 216.148c-2.929-2.93-2.929-7.678 0-10.607 2.929-2.928 7.678-2.928 10.606 0 1.042 1.042 2.424 1.616 3.893 1.616s2.851-.574 3.893-1.616c2.929-2.928 7.678-2.928 10.606 0 2.929 2.93 2.929 7.678 0 10.607-3.875 3.875-9.024 6.009-14.5 6.009-5.474-.001-10.623-2.134-14.498-6.009z" fill="#915041"/><path d="m223.5 176.916c0 8.284-6.716 15-15 15s-15-6.716-15-15 6.716-15 15-15 15 6.716 15 15zm80-15c-8.284 0-15 6.716-15 15s6.716 15 15 15 15-6.716 15-15-6.716-15-15-15z" fill="#4c2c21"/><path d="m226 169.416c0 4.142-3.358 7.5-7.5 7.5s-7.5-3.358-7.5-7.5 3.358-7.5 7.5-7.5 7.5 3.358 7.5 7.5zm87.5-7.5c-4.142 0-7.5 3.358-7.5 7.5s3.358 7.5 7.5 7.5 7.5-3.358 7.5-7.5-3.358-7.5-7.5-7.5z" fill="#fff5f5"/><path d="m256 279.416c-16.569 0-30-13.431-30-30 0-4.142 3.358-7.5 7.5-7.5h45c4.142 0 7.5 3.358 7.5 7.5 0 16.569-13.431 30-30 30z" fill="#fff5f5"/><path d="m263.5 278.471c-2.397.617-4.91.945-7.5.945-16.568 0-30-13.431-30-30 0-4.142 3.358-7.5 7.5-7.5h15c-4.142 0-7.5 3.358-7.5 7.5 0 13.979 9.561 25.725 22.5 29.055z" fill="#def4f8"/><path d="m448.628 424.618c-1.398 1.596-2.815 3.174-4.252 4.734-.067.073-.234.104-.46.106-2.254.022-4.436.783-6.056 2.35l-11.971 11.578c-1.774 1.716-2.282 4.129-2.812 6.54-.007.034-.022.061-.045.08-5.112 4.405-10.399 8.611-15.851 12.607-.782.573-2.414-.093-3.203.472-6.328 4.529-12.871 8.776-19.61 12.725-.829.486-.815 2.202-1.65 2.678-37.362 21.326-80.617 33.512-126.718 33.512-7.097 0-14.127-.289-21.078-.855-1.574-.128-2.824-2.599-4.39-2.756-6.77-.677-13.463-1.618-20.067-2.813-1.633-.295-3.582 1.722-5.204 1.396-9.514-1.913-18.837-4.354-27.938-7.29l168.962-168.962c5.858-5.858 15.355-5.858 21.213 0l40.773 40.773c-.372 3.046.678 6.093 2.848 8.263l8.57 8.57c1.671 1.671 3.881 2.695 6.237 2.888l2.251.185 17.103 17.103c4.356 4.357 5.472 10.727 3.348 16.116z" fill="#ffc14f"/><path d="m380.239 343.462c-5.105-1.515-10.858-.258-14.888 3.773l-159.582 159.583c-.133.133-.324.19-.508.153-9.514-1.913-18.838-4.353-27.938-7.289l168.962-168.962c5.858-5.858 15.355-5.858 21.213 0z" fill="#ffb52d"/><path d="m140.5 243c-20.678 0-37.5 16.822-37.5 37.5s16.822 37.5 37.5 37.5 37.5-16.822 37.5-37.5-16.822-37.5-37.5-37.5zm0 60c-12.407 0-22.5-10.094-22.5-22.5s10.093-22.5 22.5-22.5 22.5 10.094 22.5 22.5-10.093 22.5-22.5 22.5zm231-60c-20.678 0-37.5 16.822-37.5 37.5s16.822 37.5 37.5 37.5 37.5-16.822 37.5-37.5-16.822-37.5-37.5-37.5zm0 60c-12.407 0-22.5-10.094-22.5-22.5s10.093-22.5 22.5-22.5 22.5 10.094 22.5 22.5-10.093 22.5-22.5 22.5z" fill="#fffac1"/><path d="m257.066 388.166s-.711.05-1.066.041c-.354.009-1.066-.041-1.066-.041-23.899-1.207-42.998-22.611-42.998-48.75h14.064c0 18.254 13.255 33.175 30 33.785 16.745-.61 30-15.531 30-33.785h14.064c0 26.139-19.099 47.543-42.998 48.75z" fill="#ffc14f"/><path d="m250 375.5c0 6.904-5.596 12.5-12.5 12.5s-12.5-5.596-12.5-12.5 5.596-12.5 12.5-12.5 12.5 5.596 12.5 12.5zm24.5-12.5c-6.904 0-12.5 5.596-12.5 12.5s5.596 12.5 12.5 12.5 12.5-5.596 12.5-12.5-5.596-12.5-12.5-12.5z" fill="#ffa90b"/><path d="m271 382c0 8.284-6.716 15-15 15s-15-6.716-15-15 6.716-15 15-15 15 6.716 15 15z" fill="#dd7d00"/><path d="m247.809 91.667c0 12.96-9.052 24.133-21.716 26.887-37.463 8.148-67.741 35.098-80.092 70.862l-.575-20.416c0-46.84 25.958-84.79 63.246-102.28 18.217-8.545 39.137 4.825 39.137 24.947z" fill="#fff36c"/><path d="m366.787 169-.787 20.416c-14.889-43.111-55.828-73.416-104-73.416h-12c-13.89 0-27.18 2.52-39.416 7.14-16.094 6.076-33.261-6.083-33.261-23.286 0-7.46 3.343-14.543 9.143-19.235 19.038-15.399 43.264-24.342 69.534-24.342 60.751 0 110.787 47.149 110.787 112.723z" fill="#fff79f"/><path d="m301.413 448.76c-5.858 5.858-15.355 5.858-21.213 0s-5.858-15.355 0-21.213 15.355-5.858 21.213 0c5.857 5.858 5.857 15.355 0 21.213zm88.388-38.891c-5.858-5.858-15.355-5.858-21.213 0s-5.858 15.355 0 21.213 15.355 5.858 21.213 0 5.858-15.355 0-21.213zm-91.924 70.711c-5.858 5.858-5.858 15.355 0 21.213s15.355 5.858 21.213 0 5.858-15.355 0-21.213-15.355-5.858-21.213 0zm74.246-123.744c-5.858-5.858-15.355-5.858-21.213 0s-5.858 15.355 0 21.213 15.355 5.858 21.213 0 5.858-15.355 0-21.213zm14.142 106.066c-4.215 4.215-5.397 10.314-3.547 15.585 8.469-4.834 16.635-10.137 24.462-15.875-5.876-5.566-15.155-5.47-20.915.29zm-49.497-70.711c-5.858-5.858-15.355-5.858-21.213 0s-5.858 15.355 0 21.213 15.355 5.858 21.213 0c5.858-5.857 5.858-15.355 0-21.213zm-127.279 106.066c-2.444 2.444-3.868 5.522-4.273 8.705 9.714 1.955 19.627 3.36 29.706 4.182.697-4.558-.709-9.376-4.22-12.886-5.858-5.858-15.355-5.858-21.213-.001zm123.743-53.033c-5.858 5.858-5.858 15.355 0 21.213s15.355 5.858 21.213 0 5.858-15.355 0-21.213c-5.857-5.857-15.355-5.857-21.213 0zm109.602-17.677c-5.858-5.858-15.355-5.858-21.213 0s-5.858 15.355 0 21.213c.45.45.922.865 1.411 1.246 7.507-6.469 14.634-13.366 21.344-20.654-.459-.632-.973-1.236-1.542-1.805zm-14.658-36.148-19.906-19.906c-1.567.722-3.036 1.729-4.328 3.02-5.858 5.858-5.858 15.355 0 21.213s15.355 5.858 21.213 0c1.293-1.291 2.299-2.759 3.021-4.327zm-183.332 71.503c-5.858 5.858-5.858 15.355 0 21.213s15.355 5.858 21.213 0 5.858-15.355 0-21.213-15.355-5.858-21.213 0z" fill="#ffcd71"/></g></svg>