<svg height="512pt" viewBox="0 0 512 512" width="512pt" xmlns="http://www.w3.org/2000/svg"><path d="m512 256c0 141.386719-114.613281 256-256 256s-256-114.613281-256-256 114.613281-256 256-256 256 114.613281 256 256zm0 0" fill="#f93d6e"/><path d="m363.421875 468.75h-214.84375c-43.816406-54.050781-137.5-97.050781-97.097656-263.199219 22.691406-93.320312 159.308593-205.550781 204.519531-205.550781s181.828125 112.230469 204.519531 205.550781c40.402344 166.148438-53.28125 209.148438-97.097656 263.199219zm0 0" fill="#2f373b"/><path d="m152.78125 209.128906c3.4375 74.339844 18.5 209.902344 24.207031 259.621094h-28.410156c-43.816406-54.050781-137.5-97.050781-97.097656-263.199219 22.691406-93.320312 159.308593-205.550781 204.519531-205.550781-32.5 56.328125-107.480469 116.929688-103.21875 209.128906zm0 0" fill="#151a1c"/><path d="m398.410156 468.761719c-12.339844 8.277343-25.441406 15.519531-39.179687 21.566406-10.652344 4.703125-21.679688 8.703125-33.03125 11.921875-7.730469 2.199219-15.609375 4.039062-23.621094 5.511719-3.878906.71875-7.789063 1.347656-11.726563 1.878906-11.390624 1.558594-23.023437 2.359375-34.851562 2.359375s-23.460938-.800781-34.859375-2.359375c-3.941406-.53125-7.859375-1.160156-11.730469-1.878906-8.011718-1.460938-15.878906-3.300781-23.609375-5.5-7.242187-2.0625-14.359375-4.441407-21.332031-7.121094-.429688-.160156-.859375-.320313-1.289062-.492187-3.507813-1.359376-6.980469-2.808594-10.410157-4.320313-13.738281-6.058594-26.839843-13.289063-39.191406-21.578125 10.390625-14.371094 23.761719-26.429688 39.191406-35.320312 10.199219-5.871094 21.300781-10.339844 33.03125-13.148438 1.808594-.441406 3.640625-.839844 5.480469-1.191406 3.46875-.679688 7-1.199219 10.570312-1.570313 1.027344-.109375 2.046876-.210937 3.089844-.289062 3.378906-.28125 6.796875-.421875 10.257813-.421875h81.589843c4.519532 0 8.972657.242187 13.351563.703125 3.570313.367187 7.089844.898437 10.570313 1.558593 1.390624.269532 2.769531.558594 4.140624.871094.449219.117188.910157.207032 1.347657.328125 11.742187 2.820313 22.832031 7.289063 33.03125 13.160157 15.429687 8.898437 28.789062 20.960937 39.179687 35.332031zm0 0" fill="#2f373b"/><path d="m256.011719 216.621094c32.199219 0 65.058593-19.417969 101.609375-24.21875 16.558594-2.179688 33.859375-1.359375 52.199218 5.621094 5.410157 2.050781 10.898438 4.640624 16.488282 7.847656 0 0 51.183594 106.285156-20.519532 197.023437-71.703124 90.742188-149.777343 85.113281-149.777343 85.113281h-.023438s-78.070312 5.625-149.777343-85.113281c-71.703126-90.738281-20.519532-197.023437-20.519532-197.023437 5.589844-3.207032 11.078125-5.796875 16.488282-7.847656 18.339843-6.980469 35.640624-7.800782 52.199218-5.621094 36.550782 4.800781 69.410156 24.21875 101.609375 24.21875" fill="#151a1c"/><path d="m215.199219 416.808594c-29.359375 0-49.257813 42.429687-50.730469 78.332031-.429688-.160156-.859375-.320313-1.289062-.492187-3.507813-1.359376-6.980469-2.808594-10.410157-4.320313-13.738281-6.058594-26.839843-13.289063-39.191406-21.578125 10.390625-14.371094 23.761719-26.429688 39.191406-35.320312 10.199219-5.871094 21.300781-10.339844 33.03125-13.148438 1.808594-.441406 3.640625-.839844 5.480469-1.191406 3.46875-.679688 7-1.199219 10.570312-1.570313 1.027344-.109375 2.046876-.210937 3.089844-.289062 3.378906-.28125 6.796875-.421875 10.257813-.421875zm0 0" fill="#151a1c"/><path d="m204.941406 417.230469c-1.042968.078125-2.0625.179687-3.089844.289062-3.570312.371094-7.101562.890625-10.570312 1.570313v4.320312c0 1.246094.042969 2.480469.113281 3.707032 6.902344-6.417969 14.921875-10.308594 23.804688-10.308594-3.460938 0-6.878907.140625-10.257813.421875zm0 0" fill="#efb29a"/><path d="m410.699219 232.261719v24.25c0 76.988281-56.238281 140.847656-129.878907 152.707031-7.859374 1.292969-15.929687 1.960938-24.160156 1.992188-85.449218.359374-155.371094-70.640626-155.371094-156.089844v-22.859375c29.820313-11.351563 56.902344-6.421875 82.449219 1.207031h.011719c2.761719.820312 5.5 1.679688 8.230469 2.5625 10.050781 3.1875 19.871093 6.589844 29.550781 9.328125 11.347656 3.199219 22.5 5.5 33.570312 5.5 11.589844 0 23.367188-2.519531 35.4375-5.960937 3.769532-1.078126 7.5625-2.238282 11.390626-3.449219 8.539062-2.699219 17.230468-5.609375 26.109374-8.1875 25.789063-7.511719 53.109376-12.25 82.660157-1zm0 0" fill="#f9c5ac"/><path d="m410.699219 232.261719v20.199219c-58.839844-22.402344-108.828125 18.597656-155.597657 18.597656-46.773437 0-94.972656-41-153.8125-18.597656v-20.199219c36.832032-14.023438 69.492188-3.203125 100.242188 6.859375 5.679688 1.847656 11.289062 3.679687 16.847656 5.328125 12.441406 3.671875 24.632813 6.410156 36.722656 6.410156 46.769532 0 96.757813-41 155.597657-18.597656zm0 0" fill="#efb29a"/><path d="m334.710938 249.160156c0 12.308594-9.980469 22.289063-22.289063 22.289063-12.3125 0-22.292969-9.980469-22.292969-22.289063 0-1.460937.140625-2.878906.410156-4.261718 12.179688-3.476563 24.652344-7.898438 37.5-11.636719 4.121094 4.046875 6.671876 9.679687 6.671876 15.898437zm0 0" fill="#2f373b"/><path d="m331.257812 245.226562c0 5.277344-4.277343 9.550782-9.550781 9.550782-5.273437 0-9.550781-4.273438-9.550781-9.550782 0-5.273437 4.277344-9.546874 9.550781-9.546874 5.273438 0 9.550781 4.273437 9.550781 9.546874zm0 0" fill="#fff"/><path d="m221.859375 249.160156c0 12.308594-9.980469 22.289063-22.289063 22.289063-12.308593 0-22.289062-9.980469-22.289062-22.289063 0-6.121094 2.46875-11.671875 6.46875-15.691406 12.941406 3.859375 25.480469 8.410156 37.78125 11.890625.21875 1.230469.328125 2.5.328125 3.800781zm0 0" fill="#2f373b"/><path d="m204.78125 270.828125c-1.671875.410156-3.421875.621094-5.210938.621094-12.308593 0-22.289062-9.980469-22.289062-22.289063 0-6.121094 2.46875-11.671875 6.457031-15.691406h.011719c2.761719.820312 5.5 1.679688 8.230469 2.5625-2.679688 3.679688-4.269531 8.21875-4.269531 13.128906 0 10.511719 7.269531 19.328125 17.070312 21.667969zm0 0" fill="#181e21"/><path d="m317.628906 270.828125c-1.667968.410156-3.417968.621094-5.207031.621094-12.3125 0-22.292969-9.980469-22.292969-22.289063 0-1.460937.140625-2.878906.410156-4.261718 3.769532-1.078126 7.5625-2.238282 11.390626-3.449219-.890626 2.402343-1.371094 5-1.371094 7.710937 0 10.511719 7.269531 19.328125 17.070312 21.667969zm0 0" fill="#181e21"/><path d="m218.410156 245.230469c0 5.269531-4.28125 9.550781-9.550781 9.550781-5.28125 0-9.550781-4.28125-9.550781-9.550781 0-2.332031.832031-4.460938 2.222656-6.109375 5.679688 1.847656 11.289062 3.679687 16.847656 5.328125.019532.261719.03125.519531.03125.78125zm0 0" fill="#fff"/><path d="m256 468.109375h-.011719s0 0-.007812-.007813c-146.03125-52.761718-143.78125-158.132812-143.78125-158.132812 48.222656-17.828125 87.371093-35.828125 143.789062-35.828125 56.433594 0 95.582031 18 143.800781 35.828125 0 0 2.25 105.371094-143.789062 158.140625zm0 0" fill="#40b4d3"/><path d="m210.46875 348.238281c14.222656 49.132813 45.03125 118.773438 45.511719 119.863281-146.03125-52.761718-143.78125-158.132812-143.78125-158.132812 48.222656-17.828125 87.371093-35.828125 143.789062-35.828125-25.109375 0-59.859375 24.578125-45.519531 74.097656zm0 0" fill="#0084a6"/><g fill="#151a1c"><path d="m302.578125 494.851562v12.910157c-3.878906.71875-7.789063 1.347656-11.726563 1.878906v-14.789063c0-3.242187 2.628907-5.871093 5.867188-5.871093 1.621094 0 3.082031.660156 4.140625 1.71875 1.0625 1.0625 1.71875 2.53125 1.71875 4.152343zm0 0"/><path d="m221.140625 494.851562v14.789063c-3.941406-.53125-7.859375-1.160156-11.730469-1.878906v-12.910157c0-3.242187 2.621094-5.871093 5.859375-5.871093 1.621094 0 3.089844.660156 4.152344 1.71875 1.058594 1.0625 1.71875 2.53125 1.71875 4.152343zm0 0"/></g></svg>