<svg id="Capa_1" enable-background="new 0 0 512 512" height="512" viewBox="0 0 512 512" width="512" xmlns="http://www.w3.org/2000/svg"><g><g><path d="m456.969 407.139c27.744-39.712 44.031-88.02 44.031-140.139 0-135.31-109.69-245-245-245s-245 109.69-245 245c0 52.119 16.287 100.427 44.031 140.139z" fill="#73c3f9"/></g><g><circle cx="256" cy="242" fill="#4fabf7" r="200"/></g><g><path d="m348.593 64.834c-15.486-34.415-43.5-64.834-73.727-64.834-12.234 0-18.866 12-18.866 12s-6.635-12-18.869-12c-30.227 0-58.241 30.419-73.726 64.834-10.98 23.725-45.223 58.317-29.862 90.26 4.798 9.977 5.859 21.241 3.377 32.03-.906 3.938-1.189 7.928-.643 11.992 3.771 28.069 37.792 75.63 119.724 75.63s115.949-47.561 119.721-75.63c.546-4.064.263-8.054-.643-11.992-2.482-10.789-1.421-22.053 3.377-32.03 15.36-31.943-18.883-66.535-29.863-90.26z" fill="#2d3c6b"/></g><g><path d="m220.879 88.28c-20.447-13.155-38.315-65.105-2.355-84.503-22.805 9.158-42.878 33.851-55.12 61.057-10.98 23.725-45.223 58.317-29.862 90.26 4.798 9.977 5.859 21.241 3.377 32.03-.906 3.938-1.189 7.928-.643 11.992 3.179 23.661 27.855 61.172 84.603 72.37z" fill="#213159"/></g><g><path d="m456.949 407.139c-8.256-22.709-16.99-42.685-24.722-51.911-.904-1.078-1.795-2.019-2.668-2.79-6.623-5.848-19.39-11.382-34.352-16.323-37.929-12.525-89.967-21.232-91.82-21.54h-94.772c-1.853.307-53.892 9.014-91.82 21.54-14.961 4.941-27.729 10.475-34.352 16.323-.874.772-1.765 1.712-2.668 2.79-7.732 9.226-16.467 29.203-24.722 51.911-.001.009-.001.018-.002.026 36.568 52.328 93.045 89.714 158.449 101.156l42.5-20.47 42.502 20.471c65.403-11.443 121.881-48.828 158.449-101.156-.001-.009-.001-.018-.002-.027z" fill="#5c45bf"/></g><g><path d="m224.985 502.789c-72.804-59.054-90.19-136.817-94.341-170.923-4.742 1.359-9.394 2.777-13.85 4.249-14.961 4.941-27.729 10.475-34.352 16.323-.874.772-1.765 1.712-2.668 2.79-7.732 9.226-16.467 29.203-24.722 51.911-.001.009-.001.018-.002.026 36.572 52.335 93.064 89.705 158.477 101.143z" fill="#4432ad"/></g><g><path d="m322.521 415.57 26.913-36.185c5.744-7.723 5.172-18.443-1.361-25.511l-34.687-37.527-10-1.772h-94.772l-10 1.772-34.686 37.527c-6.533 7.068-7.105 17.788-1.361 25.511l26.913 36.185c2.603 3.5 2.637 8.283.085 11.819l-8.73 12.099c-5.035 6.977-5.043 16.393-.02 23.379l32.684 45.455c7.356 1.287 14.829 2.236 22.395 2.852l20.106-23.323 20.107 23.323c7.566-.616 15.039-1.565 22.395-2.852l32.684-45.455c5.023-6.986 5.015-16.401-.02-23.379l-8.73-12.099c-2.552-3.537-2.518-8.32.085-11.819z" fill="#7255ce"/></g><g><path d="m313.386 316.347h-114.772l37.272 194.835c6.634.538 13.341.818 20.114.818s13.48-.28 20.114-.819z" fill="#dae2fe"/></g><g><path d="m276.114 511.181 4.183-21.868c-30.687-37.699-51.683-95.306-51.683-157.798v-15.169h-30l37.272 194.835c6.634.539 13.341.819 20.114.819s13.48-.28 20.114-.819z" fill="#bec8f7"/></g><g><path d="m208.614 221.239h94.772v93.336h-94.772z" fill="#934a2e"/></g><g><path d="m208.614 277.655h94.772c5.523 0 10 4.477 10 10v28.692s-16.429 18.317-57.386 18.317-57.386-18.317-57.386-18.317v-28.692c0-5.523 4.477-10 10-10z" fill="#e9efff"/></g><g><path d="m228.614 287.655c0-5.523 4.477-10 10-10h-30c-5.523 0-10 4.477-10 10v28.692s8.931 9.934 30 15.169z" fill="#dae2fe"/></g><g><path d="m91.07 426.843v21.327c7.157 6.519 14.704 12.617 22.599 18.262l-12.035-41.103c-1.75-5.98-10.564-4.716-10.564 1.514z" fill="#2d2296"/></g><g><path d="m420.93 426.843v21.327c-7.157 6.519-14.704 12.617-22.599 18.262l12.035-41.103c1.75-5.98 10.564-4.716 10.564 1.514z" fill="#4432ad"/></g><g><path d="m180.942 159.567s-10.385-25.285-28.897-19.415.448 60.664 36.573 64.116z" fill="#934a2e"/></g><g><path d="m331.058 159.567s10.385-25.285 28.897-19.415-.448 60.664-36.573 64.116z" fill="#a05838"/></g><g><path d="m194.837 84.904c-10.322 3.439-17.93 12.279-20.432 22.867-2.552 10.801-6.002 27.519-6.002 38.984 0 64.505 39.219 140.155 87.597 140.155s87.597-75.65 87.597-140.155c0-1.674-.033-2.084-.085-3.733-81.411-.002-112.185-70.275-148.675-58.118z" fill="#b76c4e"/></g><g><path d="m276 282.564c-38.741-16.953-67.597-80.479-67.597-135.809 0-21.971 4.564-41.826 12.476-58.475-8.87-4.459-17.292-6.291-26.042-3.376-10.322 3.439-17.93 12.279-20.432 22.867-2.552 10.801-6.002 27.519-6.002 38.984 0 64.505 39.219 140.155 87.597 140.155 6.881 0 13.576-1.535 20-4.346z" fill="#a05838"/></g><g><path d="m223.5 138.968h-20c-4.142 0-7.5-3.358-7.5-7.5 0-4.142 3.358-7.5 7.5-7.5h20c4.142 0 7.5 3.358 7.5 7.5 0 4.142-3.358 7.5-7.5 7.5z" fill="#162544"/></g><g><path d="m308.5 138.968h-20c-4.142 0-7.5-3.358-7.5-7.5 0-4.142 3.358-7.5 7.5-7.5h20c4.142 0 7.5 3.358 7.5 7.5 0 4.142-3.358 7.5-7.5 7.5z" fill="#162544"/></g><g><g><path d="m242.013 192.447 8.436-13.441c2.569-4.093 8.533-4.093 11.102 0l8.436 13.441c2.739 4.365-.398 10.038-5.551 10.038h-16.871c-5.154-.001-8.291-5.674-5.552-10.038z" fill="#934a2e"/></g></g><g><g><path d="m235.384 240.87h41.233c4.111-3.622 7.258-8.309 9.01-13.631 1.584-4.811-2.069-9.754-7.134-9.754h-44.985c-5.065 0-8.718 4.943-7.134 9.754 1.752 5.322 4.899 10.009 9.01 13.631z" fill="#162544"/></g><g><path d="m276.616 240.87c-5.493 4.849-12.714 7.798-20.616 7.798s-15.124-2.948-20.616-7.798c5.5-4.849 12.714-7.798 20.616-7.798s15.116 2.949 20.616 7.798z" fill="#ff4155"/></g></g><g><path d="m310.999 162.085c.043-3.495-1.371-7.004-4.242-9.539-4.675-4.128-11.84-4.128-16.515 0-2.871 2.535-4.284 6.044-4.242 9.539.055 4.538 5.629 6.716 8.838 3.507 2.022-2.022 5.3-2.022 7.322 0 3.21 3.21 8.784 1.032 8.839-3.507z" fill="#162544"/></g><g><path d="m201.001 162.085c-.043-3.495 1.371-7.004 4.242-9.539 4.675-4.128 11.84-4.128 16.515 0 2.871 2.535 4.284 6.044 4.242 9.539-.055 4.538-5.629 6.716-8.838 3.507-2.022-2.022-5.3-2.022-7.322 0-3.21 3.21-8.784 1.032-8.839-3.507z" fill="#162544"/></g></g></svg>