<svg id="Capa_1" enable-background="new 0 0 512 512" height="512" viewBox="0 0 512 512" width="512" xmlns="http://www.w3.org/2000/svg"><g><path d="m177.378 323.411-101.831 33.756c-26.077 8.644-43.68 33.025-43.68 60.497v94.336h192.264l10-188.589z" fill="#fff5f5"/><path d="m480.133 417.664c0-27.472-17.604-51.853-43.68-60.497l-101.831-33.756h-56.756l10 188.589h192.267z" fill="#ece6f2"/><path d="m256 512h31.866v-82.727l-41.866-10z" fill="#198080"/><path d="m224.131 429.273v82.727h31.869v-92.727z" fill="#24b3b3"/><path d="m256 429.273h31.866v-30l-41.866-10z" fill="#ffda44"/><path d="m256 389.273-31.869 10v30h31.869z" fill="#fff79f"/><path d="m287.866 399.273v-75.862h-41.866l10 75.862z" fill="#198080"/><path d="m224.131 323.411h31.869v75.862h-31.869z" fill="#24b3b3"/><path d="m415.336 159.336c0-87.999-71.337-159.336-159.336-159.336l-10 172.876 169.336-10z" fill="#ffb655"/><path d="m256 0c-87.999 0-159.336 71.337-159.336 159.336v3.54l159.336 10z" fill="#ffda44"/><path d="m430.243 222.91h-184.243l10 100.501h78.622c40.328 70.88 101.831 33.756 101.831 33.756 20.676-89.012-6.21-134.257-6.21-134.257z" fill="#ffb655"/><path d="m81.757 222.91s-26.887 45.244-6.21 134.257c0 0 61.503 37.124 101.831-33.756h78.622v-100.501z" fill="#ffda44"/><path d="m138.579 226.611h-41.915c-17.6 0-31.868-14.268-31.868-31.868 0-17.6 14.268-31.868 31.868-31.868h31.867z" fill="#ffdecf"/><path d="m383.469 162.876h31.867c17.6 0 31.868 14.268 31.868 31.868 0 17.6-14.268 31.868-31.868 31.868h-41.915z" fill="#ffcdbe"/><path d="m283.592 117.807c-9.099 5.659-18.357 10.607-27.592 14.934l-10 74.395 10 143.403c70.399 0 127.469-57.07 127.469-127.469v-60.195c-48.847.001-99.877-45.068-99.877-45.068z" fill="#ffdecf"/><path d="m128.531 162.876v60.195c0 70.399 57.07 127.469 127.469 127.469v-217.798c-64.307 30.133-127.469 30.134-127.469 30.134z" fill="#ffeee5"/><path d="m184.299 192.137h31.867v30h-31.867z" fill="#332866"/><path d="m295.834 192.137h31.867v30h-31.867z" fill="#180a33"/></g></svg>