<svg id="Capa_1" enable-background="new 0 0 512 512" height="512" viewBox="0 0 512 512" width="512" xmlns="http://www.w3.org/2000/svg"><g><path d="m0 256c0-141.385 114.615-256 256-256s256 114.615 256 256c0 80.844-37.474 152.935-96 199.852-2.613 2.094-103.068-43.886-160-43.886s-157.387 45.98-160 43.886c-58.526-46.917-96-119.008-96-199.852z" fill="#fb5858"/><path d="m442.404 256c0 102.948-83.456 186.404-186.404 186.404s-186.404-83.456-186.404-186.404 83.456-186.404 186.404-186.404 186.404 83.456 186.404 186.404z" fill="#fc7979"/><path d="m158.191 345.62c-11.698 12.511-18.858 29.317-18.858 47.796v86.282c0 1.388-9.254-.706-13.333-3.115-10.505-6.204-20.528-13.138-30-20.731v-62.436c0-35.376 26.242-64.623 60.322-69.336.62-.086 1.869 21.54 1.869 21.54z" fill="#c2eaf2"/><path d="m355.679 324.08c34.079 4.713 60.321 33.96 60.321 69.336v62.436c-18.252 14.631-38.552 26.814-60.4 36.05-1.917.811-4.59-4.475-6.531-3.711-17.949 7.073-36.889 12.176-56.555 15.043-2.44.356-4.148 6.751-6.61 7.037-9.81 1.142-19.788 1.729-29.904 1.729s-20.094-.587-29.904-1.728c-3.239-.377-4.898-6.095-8.098-6.591-18.597-2.885-36.532-7.772-53.578-14.433-2.194-.857-5.935 3.536-8.099 2.621-10.482-4.435-20.608-9.549-30.321-15.286v-83.167c0-28.798 17.39-53.535 42.243-64.281 8.51-3.68 15.396 3.822 25.257 3.822h150c3.284 0 9.015-9.315 12.179-8.877z" fill="#def4f8"/><path d="m355.678 324.08v153.223c0 8.976-5.614 17.033-14.073 20.033-17.748 6.296-36.397 10.689-55.702 12.935v-171.366c0-8.554 6.935-15.489 15.489-15.489h44.608c3.284 0 6.515.227 9.678.664zm-199.356 0v152.871c0 9.187 5.742 17.444 14.405 20.503 17.649 6.233 36.186 10.586 55.369 12.818v-171.25c0-8.619-6.987-15.606-15.606-15.606h-44.49c-3.284 0-6.515.227-9.678.664z" fill="#4172cc"/><path d="m355.678 396.513v95.355c-4.923 2.083-9.925 4.017-15 5.794v-101.15c0-4.142 3.358-7.5 7.5-7.5s7.5 3.359 7.5 7.501zm-191.856-7.5c-4.142 0-7.5 3.358-7.5 7.5v95.355c4.923 2.083 9.925 4.017 15 5.794v-101.15c0-4.141-3.358-7.499-7.5-7.499z" fill="#2e5aac"/><path d="m146 223.416c-13.807 0-25-11.193-25-25v-10c0-13.807 11.193-25 25-25 13.807 0 25 11.193 25 25v10c0 13.807-11.193 25-25 25z" fill="#f2d1a5"/><path d="m136 183.416v20c0 8.178 3.927 15.439 9.998 20-13.806-.001-24.998-11.193-24.998-25v-10c0-13.806 11.192-24.999 24.998-25-6.071 4.561-9.998 11.822-9.998 20zm230-20v-20c0-60.751-49.249-110-110-110-60.751 0-110 49.249-110 110v40c0 50.351 33.83 92.801 80 105.859v34.141h-16c0 25.405 20.595 46 46 46 25.405 0 46-20.595 46-46h-16v-34.141c33.586-9.5 60.641-34.551 72.895-66.883 2.252.666 4.637 1.024 7.105 1.024 13.807 0 25-11.193 25-25v-10c0-13.807-11.193-25-25-25z" fill="#f2bb88"/><path d="m366 143.416v40c0 50.792-34.425 93.543-81.216 106.195-9.023 2.44-18.545 2.44-27.568 0-46.791-12.652-81.216-55.403-81.216-106.195v-40c0-55.663 41.345-101.669 95-108.985 53.655 7.316 95 53.322 95 108.985z" fill="#f2d1a5"/><path d="m223.5 150.916c0 8.284-6.716 15-15 15s-15-6.716-15-15 6.716-15 15-15 15 6.716 15 15zm80-15c-8.284 0-15 6.716-15 15s6.716 15 15 15 15-6.716 15-15-6.716-15-15-15z" fill="#61362b"/><path d="m226 143.416c0 4.142-3.358 7.5-7.5 7.5s-7.5-3.358-7.5-7.5 3.358-7.5 7.5-7.5 7.5 3.358 7.5 7.5zm87.5-7.5c-4.142 0-7.5 3.358-7.5 7.5s3.358 7.5 7.5 7.5 7.5-3.358 7.5-7.5-3.358-7.5-7.5-7.5z" fill="#fff5f5"/><path d="m372 104h-232c15.056-49.094 53.512-84 98.575-84h34.85c45.063 0 83.519 34.906 98.575 84z" fill="#c2eaf2"/><path d="m181.532 104h-41.532c15.056-49.094 53.512-84 98.575-84h34.85c1.118 0 2.231.022 3.341.064-43.616 1.677-80.551 36.06-95.234 83.936z" fill="#a6e0ec"/><path d="m372 110h-232c-5.523 0-10-4.477-10-10v-10c0-5.523 4.477-10 10-10h232c5.523 0 10 4.477 10 10v10c0 5.523-4.477 10-10 10z" fill="#c2eaf2"/><path d="m372 110h-192.511c-5.523 0-10-4.477-10-10v-10c0-5.523 4.477-10 10-10h192.511c5.523 0 10 4.477 10 10v10c0 5.523-4.477 10-10 10z" fill="#def4f8"/><path d="m256 286.032c0 7.714-6.254 13.968-13.968 13.968-51.57 0-93.645-46.562-95.934-104.985-.052-1.335.795-2.602 2.091-2.927 1.508-.377 2.94.502 3.374 1.897 6.459 20.727 18.192 38.583 33.348 51.45 6.338 5.381 16.088.756 16.088-7.558v-27.877c0-11.046 8.954-20 20-20h35v96.032z" fill="#61362b"/><path d="m365.905 194.935c-2.254 58.461-44.344 105.065-95.937 105.065h-27.937c-8.817-.008-16.032-7.23-16.032-16.047v-77.865c0-8.885 7.203-16.088 16.088-16.088h48.913c11.046 0 20 8.954 20 20v27.872c0 8.325 9.762 12.935 16.107 7.546 15.12-12.842 26.831-30.652 33.295-51.322.338-1.081 1.242-1.945 2.368-2.076 1.755-.205 3.201 1.206 3.135 2.915z" fill="#7c3f2c"/><path d="m270.5 190.147c-3.875 3.875-9.024 6.009-14.5 6.009s-10.625-2.134-14.5-6.009c-2.929-2.93-2.929-7.678 0-10.607 2.929-2.928 7.678-2.928 10.606 0 1.042 1.042 2.424 1.616 3.893 1.616s2.851-.574 3.893-1.616c2.929-2.928 7.678-2.928 10.606 0 2.931 2.93 2.931 7.678.002 10.607z" fill="#d6995c"/><path d="m256 253.416c-16.569 0-30-13.431-30-30 0-4.142 3.358-7.5 7.5-7.5h45c4.142 0 7.5 3.358 7.5 7.5 0 16.569-13.431 30-30 30z" fill="#fff5f5"/><path d="m263.5 252.471c-2.397.617-4.91.945-7.5.945-16.568 0-30-13.431-30-30 0-4.142 3.358-7.5 7.5-7.5h15c-4.142 0-7.5 3.358-7.5 7.5 0 13.979 9.561 25.725 22.5 29.055z" fill="#def4f8"/></g></svg>