<svg id="Capa_1" enable-background="new 0 0 512 512" height="512" viewBox="0 0 512 512" width="512" xmlns="http://www.w3.org/2000/svg"><g><path d="m302.815 0h-46.815l-10 185.741 174.826-10c6.096-14.889 9.457-31.188 9.457-48.271 0-70.4-57.069-127.47-127.468-127.47z" fill="#e50058"/><path d="m209.185 0c-70.399 0-127.468 57.07-127.468 127.469 0 17.084 3.361 33.383 9.457 48.272l164.826 10v-185.741z" fill="#ff4a4a"/><path d="m139.517 239.005h-42.853c-17.6 0-31.868-14.268-31.868-31.868 0-17.6 14.268-31.868 31.868-31.868h32.853z" fill="#895140"/><path d="m372.483 239.005h42.853c17.6 0 31.868-14.268 31.868-31.868 0-17.6-14.268-31.868-31.868-31.868h-32.853z" fill="#5b362a"/><path d="m480.133 417.664c0-27.472-17.603-51.853-43.68-60.497l-101.831-33.756h-88.622l10 188.589h224.133z" fill="#e50058"/><path d="m177.378 323.411-101.831 33.756c-26.077 8.644-43.68 33.025-43.68 60.497v94.336h224.133v-188.589z" fill="#ff4a4a"/><path d="m334.622 323.411h-88.622l10 102.843h128.204s-.735-59.603-49.582-102.843z" fill="#ece6f2"/><path d="m177.378 323.411c-48.847 43.24-49.582 102.843-49.582 102.843h128.204v-102.843z" fill="#fff5f5"/><path d="m334.622 323.411h-88.622l10 72.843c78.699 0 78.622-72.843 78.622-72.843z" fill="#5b362a"/><path d="m256 396.254v-72.843h-78.622s-.077 72.843 78.622 72.843z" fill="#895140"/><path d="m256 143.402-10 63.735 10 143.403c70.399 0 127.469-57.07 127.469-127.469v-47.802s-48.847-31.867-127.469-31.867z" fill="#895140"/><path d="m128.531 175.269v47.802c0 70.399 57.07 127.469 127.469 127.469v-207.138c-78.622 0-127.469 31.867-127.469 31.867z" fill="#b56d3c"/><path d="m184.299 192.137h31.867v30h-31.867z" fill="#332866"/><path d="m295.834 192.137h31.867v30h-31.867z" fill="#180a33"/></g></svg>