<svg height="512pt" viewBox="0 0 512 512" width="512pt" xmlns="http://www.w3.org/2000/svg"><path d="m512 256c0 89.691406-46.128906 168.609375-115.949219 214.328125-22.730469 14.882813-47.972656 26.242187-74.941406 33.3125-20.789063 5.460937-42.609375 8.359375-65.109375 8.359375-10.050781 0-19.960938-.578125-29.710938-1.710938-69.359374-8.007812-130.277343-43.757812-171.378906-95.859374-34.390625-43.578126-54.910156-98.609376-54.910156-158.429688 0-69.941406 28.058594-133.328125 73.511719-179.539062 41.789062-42.460938 98.277343-70.410157 161.226562-75.582032 7.011719-.589844 14.101563-.878906 21.261719-.878906 20.808594 0 41.050781 2.480469 60.421875 7.179688 38.757813 9.371093 74.066406 27.570312 103.6875 52.339843 56.160156 46.960938 91.890625 117.550781 91.890625 196.480469zm0 0" fill="#0084a6"/><path d="m399.941406 393.121094c-17.613281 25.308594-13.839844 53.4375-3.890625 77.207031-22.730469 14.882813-47.972656 26.242187-74.941406 33.3125l-165.917969-32.039063 19.949219-311.25 245.480469 132.519532s20.027344 41.730468-20.679688 100.25zm0 0" fill="#ff931f"/><path d="m398.410156 468.761719c-10.53125 7.066406-21.621094 13.378906-33.191406 18.828125-1.980469.941406-3.980469 1.851562-5.988281 2.738281-10.652344 4.703125-21.679688 8.703125-33.03125 11.921875-22.300781 6.351562-45.847657 9.75-70.199219 9.75-24.339844 0-47.890625-3.398438-70.199219-9.738281-7.242187-2.0625-14.359375-4.441407-21.332031-7.121094-.429688-.160156-.859375-.320313-1.289062-.492187-3.507813-1.359376-6.980469-2.808594-10.410157-4.320313-13.738281-6.058594-26.839843-13.289063-39.191406-21.578125 10.390625-14.371094 23.761719-26.429688 39.191406-35.320312 10.199219-5.871094 21.300781-10.339844 33.03125-13.148438.550781-.132812 1.097657-.261719 1.648438-.382812 1.269531-.296876 2.550781-.570313 3.832031-.808594 3.46875-.679688 7-1.199219 10.570312-1.570313 1.027344-.109375 2.046876-.210937 3.089844-.289062 3.378906-.28125 6.796875-.421875 10.257813-.421875h81.589843c4.519532 0 8.972657.242187 13.351563.703125 3.570313.367187 7.089844.898437 10.570313 1.558593 1.390624.269532 2.769531.558594 4.140624.871094.449219.117188.910157.207032 1.347657.328125 11.742187 2.820313 22.832031 7.289063 33.03125 13.160157 15.429687 8.898437 28.789062 20.960937 39.179687 35.332031zm0 0" fill="#f93d6e"/><path d="m215.199219 416.808594c-29.359375 0-49.257813 42.429687-50.730469 78.332031-.429688-.160156-.859375-.320313-1.289062-.492187-3.507813-1.359376-6.980469-2.808594-10.410157-4.320313-13.738281-6.058594-26.839843-13.289063-39.191406-21.578125 10.390625-14.371094 23.761719-26.429688 39.191406-35.320312 10.199219-5.871094 21.300781-10.339844 33.03125-13.148438 1.808594-.441406 3.640625-.839844 5.480469-1.191406 3.46875-.679688 7-1.199219 10.570312-1.570313 1.027344-.109375 2.046876-.210937 3.089844-.289062 3.378906-.28125 6.796875-.421875 10.257813-.421875zm0 0" fill="#e41753"/><path d="m300.707031 368.539062v54.867188c0 20.089844-13.246093 37.066406-31.488281 42.707031-4.179688 1.296875-8.628906 1.996094-13.230469 1.996094-24.691406 0-44.703125-20.011719-44.703125-44.703125v-54.867188zm0 0" fill="#efb29a"/><path d="m300.707031 419.933594v3.472656c0 20.089844-13.246093 37.066406-31.488281 42.707031-16.460938-5.058593-28.839844-19.371093-31.125-36.882812 2.988281.183593 5.992188.273437 9.007812.273437 8.460938 0 16.75-.671875 24.828126-1.996094 9.953124-1.601562 19.570312-4.160156 28.777343-7.574218zm0 0" fill="#f9c5ac"/><path d="m132.539062 278.152344c0 20.496094-14.972656 37.492187-34.578124 40.648437-2.144532.34375-4.347657.527344-6.597657.527344-22.746093 0-41.171875-18.429687-41.171875-41.175781s18.425782-41.175782 41.171875-41.175782c2.25 0 4.453125.179688 6.597657.527344 19.605468 3.15625 34.578124 20.152344 34.578124 40.648438zm0 0" fill="#f9c5ac"/><path d="m132.539062 278.152344c0 20.496094-14.972656 37.492187-34.578124 40.648437-3.5625-12.953125-5.464844-26.582031-5.464844-40.648437s1.902344-27.695313 5.464844-40.644532c19.605468 3.152344 34.578124 20.148438 34.578124 40.644532zm0 0" fill="#efb29a"/><path d="m106.082031 278.152344c0 8.128906-6.589843 14.714844-14.71875 14.714844-8.125 0-14.714843-6.585938-14.714843-14.714844 0-8.125 6.589843-14.714844 14.714843-14.714844 8.128907 0 14.71875 6.589844 14.71875 14.714844zm0 0" fill="#efb29a"/><path d="m379.449219 278.152344c0 20.496094 14.972656 37.492187 34.578125 40.648437 2.144531.34375 4.347656.527344 6.597656.527344 22.746094 0 41.175781-18.429687 41.175781-41.175781s-18.429687-41.175782-41.175781-41.175782c-2.25 0-4.453125.179688-6.597656.527344-19.605469 3.15625-34.578125 20.152344-34.578125 40.648438zm0 0" fill="#f9c5ac"/><path d="m379.449219 278.152344c0 20.496094 14.972656 37.492187 34.578125 40.648437 3.5625-12.953125 5.464844-26.582031 5.464844-40.648437s-1.902344-27.695313-5.464844-40.644532c-19.605469 3.152344-34.578125 20.148438-34.578125 40.644532zm0 0" fill="#efb29a"/><path d="m435.339844 278.152344c0 8.128906-6.589844 14.714844-14.714844 14.714844-8.128906 0-14.71875-6.585938-14.71875-14.714844 0-8.125 6.589844-14.714844 14.71875-14.714844 8.125 0 14.714844 6.589844 14.714844 14.714844zm0 0" fill="#efb29a"/><path d="m410.695312 256.511719c0 76.984375-56.242187 140.847656-129.871093 152.703125-8.078125 1.328125-16.371094 2-24.828125 2-85.445313 0-154.703125-69.257813-154.703125-154.703125v-157.5h309.402343zm0 0" fill="#f9c5ac"/><g fill="#efb29a"><path d="m283.242188 408.808594c-.800782.140625-1.609376.28125-2.417969.410156-8.082031 1.320312-16.371094 1.992188-24.832031 1.992188-85.4375 0-154.699219-69.25-154.699219-154.699219v-157.5h54.550781v157.5c0 76.136719 54.980469 139.410156 127.398438 152.296875zm0 0"/><path d="m360.261719 296.496094c0 10.539062-8.542969 19.082031-19.082031 19.082031-10.539063 0-19.082032-8.542969-19.082032-19.082031 0-10.539063 8.542969-19.082032 19.082032-19.082032 10.539062 0 19.082031 8.542969 19.082031 19.082032zm0 0"/><path d="m189.886719 296.496094c0 10.539062-8.542969 19.082031-19.082031 19.082031-10.539063 0-19.082032-8.542969-19.082032-19.082031 0-10.539063 8.542969-19.082032 19.082032-19.082032 10.539062 0 19.082031 8.542969 19.082031 19.082032zm0 0"/><path d="m273.378906 297.921875h-34.757812c-4.140625 0-7.5-3.355469-7.5-7.496094s3.359375-7.496093 7.5-7.496093h34.757812c4.136719 0 7.496094 3.355468 7.496094 7.496093s-3.359375 7.496094-7.496094 7.496094zm0 0"/></g><path d="m256 345.351562c-12.828125 0-25.65625-3.214843-37.351562-9.640624-3.296876-1.8125-4.5-5.957032-2.6875-9.257813 1.8125-3.296875 5.957031-4.5 9.253906-2.6875 19.277344 10.597656 42.292968 10.597656 61.566406 0 3.296875-1.8125 7.441406-.609375 9.253906 2.6875 1.816406 3.300781.613282 7.445313-2.6875 9.257813-11.691406 6.425781-24.519531 9.640624-37.347656 9.640624zm0 0" fill="#f93d6e"/><path d="m343.992188 244.328125c0-17.808594-14.433594-32.242187-32.242188-32.242187s-32.242188 14.433593-32.242188 32.242187" fill="#efb29a"/><path d="m333.773438 258.054688c0 12.164062-9.859376 22.023437-22.023438 22.023437s-22.023438-9.859375-22.023438-22.023437c0-12.164063 9.859376-22.023438 22.023438-22.023438s22.023438 9.859375 22.023438 22.023438zm0 0" fill="#2f373b"/><path d="m330.363281 254.167969c0 5.210937-4.222656 9.4375-9.433593 9.4375-5.214844 0-9.4375-4.226563-9.4375-9.4375 0-5.210938 4.222656-9.4375 9.4375-9.4375 5.210937 0 9.433593 4.226562 9.433593 9.4375zm0 0" fill="#fff"/><path d="m232.480469 244.328125c0-17.808594-14.433594-32.242187-32.242188-32.242187-17.808593 0-32.242187 14.433593-32.242187 32.242187" fill="#efb29a"/><path d="m222.261719 258.054688c0 12.164062-9.859375 22.023437-22.023438 22.023437-12.160156 0-22.019531-9.859375-22.019531-22.023437 0-12.164063 9.859375-22.023438 22.019531-22.023438 12.164063 0 22.023438 9.859375 22.023438 22.023438zm0 0" fill="#2f373b"/><path d="m205.207031 279.511719c-1.601562.378906-3.261719.566406-4.96875.566406-12.160156 0-22.019531-9.859375-22.019531-22.027344 0-12.160156 9.859375-22.019531 22.019531-22.019531 1.707031 0 3.367188.199219 4.96875.570312-9.78125 2.25-17.058593 11-17.058593 21.449219 0 10.460938 7.277343 19.210938 17.058593 21.460938zm0 0" fill="#181e21"/><path d="m316.71875 279.511719c-1.601562.378906-3.261719.566406-4.972656.566406-12.160156 0-22.019532-9.859375-22.019532-22.027344 0-12.160156 9.859376-22.019531 22.019532-22.019531 1.710937 0 3.371094.199219 4.972656.570312-9.78125 2.25-17.0625 11-17.0625 21.449219 0 10.460938 7.28125 19.210938 17.0625 21.460938zm0 0" fill="#181e21"/><path d="m218.855469 254.167969c0 5.210937-4.226563 9.4375-9.4375 9.4375-5.210938 0-9.4375-4.226563-9.4375-9.4375 0-5.210938 4.226562-9.4375 9.4375-9.4375 5.210937 0 9.4375 4.226562 9.4375 9.4375zm0 0" fill="#fff"/><path d="m414.03125 237.511719-3.332031.679687c-25.140625-2.710937-46.328125-29.671875-61.738281-57.53125-17.449219-31.53125-27.5-64.210937-27.5-64.210937s-13.300782 66.511719-82.472657 82.472656c-64.226562 14.816406-68.816406 201.679687-12.699219 311.367187-33.9375-3.917968-65.859374-14.488281-94.429687-30.359374-29.808594-16.550782-55.960937-38.898438-76.949219-65.5 2.960938-12.628907 8.578125-24.050782 17.808594-33.28125 46.910156-46.910157-63.730469-199.507813.792969-304.6875 11.386719-18.582032 28.257812-35.679688 52.417969-50.460938 36.820312-22.519531 76.359374-27.03125 108.808593-25.121094 40.121094 2.339844 69.433594 14.480469 69.433594 14.480469 3.429687-3.429687 7.558594-6.179687 12.25-8.179687 13.597656-5.800782 31.847656-5.21875 51.019531 3.820312 17.757813 8.359375 36.296875 23.988281 52.667969 48.519531 40.121094 60.121094-6.078125 177.992188-6.078125 177.992188zm0 0" fill="#ffbb16"/><path d="m181.789062 147.039062c-63.839843 53.210938-25.269531 166.28125-25.269531 220.8125 0 45.277344-27.5 65.796876-24.660156 112.078126-29.808594-16.550782-55.960937-38.898438-76.949219-65.5 2.960938-12.628907 8.578125-24.050782 17.808594-33.28125 46.910156-46.910157-63.730469-199.507813.792969-304.6875 11.386719-18.582032 28.257812-35.679688 52.417969-50.460938 36.820312-22.519531 76.359374-27.03125 108.808593-25.121094 40.121094 2.339844 69.433594 14.480469 69.433594 14.480469 6.097656 49.21875-58.53125 78.480469-122.382813 131.679687zm0 0" fill="#ff931f"/><path d="m348.960938 180.660156c-17.449219-31.53125-27.5-64.210937-27.5-64.210937l-17.289063-101.089844c3.429687-3.429687 7.558594-6.179687 12.25-8.179687 13.597656-5.800782 31.847656-5.21875 51.019531 3.820312-39.332031 5.128906-31.152344 144.078125-18.480468 169.660156zm0 0" fill="#ff931f"/><path d="m445.996094 317.992188c0 8.542968-6.921875 15.464843-15.460938 15.464843-8.542968 0-15.464844-6.921875-15.464844-15.464843 0-8.539063 6.921876-15.460938 15.464844-15.460938 8.539063 0 15.460938 6.921875 15.460938 15.460938zm0 0" fill="#fff"/></svg>