<svg id="Capa_1" enable-background="new 0 0 512 512" height="512" viewBox="0 0 512 512" width="512" xmlns="http://www.w3.org/2000/svg"><g><g><path d="m55.031 407.139c-27.744-39.712-44.031-88.02-44.031-140.139 0-135.31 109.69-245 245-245s245 109.69 245 245c0 52.119-16.287 100.427-44.031 140.139z" fill="#7255ce"/></g><g><circle cx="256" cy="242" fill="#5c45bf" r="200"/></g><g><path d="m355.547 83.218c-12.65-41.159-45.137-83.218-80.681-83.218-12.234 0-18.866 12-18.866 12s-6.632-12-18.866-12c-35.545 0-68.033 42.062-80.682 83.222-3.586 10.526-5.547 21.804-5.589 33.534-.001.128-.005.259-.005.387v30.076h210.286v-30.076c-.001-11.871-1.971-23.282-5.597-33.925z" fill="#ffdd40"/></g><g><path d="m186.913 147.218 9.391-58.522c-1.005-27.564-2.793-72.164 29.696-87.335-31.048 7.514-58.235 45.046-69.549 81.862-3.586 10.527-5.547 21.804-5.589 33.534-.001.128-.005.259-.005.386v30.076h36.056z" fill="#ffc839"/></g><g><path d="m383.213 362.234h-254.426l22.07-215.016h210.286z" fill="#ffc839"/></g><g><g><path d="m456.949 407.139c-8.256-22.709-16.99-42.685-24.722-51.911-.904-1.078-1.795-2.019-2.668-2.79-6.623-5.848-19.39-11.382-34.352-16.323-37.929-12.525-89.967-21.232-91.82-21.54h-45.541v143.256h151.772c18.06-14.558 34.021-31.615 47.333-50.665-.001-.009-.001-.018-.002-.027z" fill="#fcad6d"/></g><g><path d="m208.614 314.575c-1.853.307-53.892 9.014-91.82 21.54-14.961 4.941-27.729 10.475-34.352 16.323-.874.772-1.765 1.712-2.668 2.79-7.732 9.226-16.467 29.203-24.722 51.911-.001.009-.001.018-.002.026 13.312 19.05 29.274 36.107 47.333 50.665h155.463v-143.255z" fill="#fd995b"/></g></g><g><path d="m391.147 471.33c6.374-4.223 12.555-8.713 18.491-13.499-4.027-11.7-11.689-21.884-21.736-29.06v42.559z" fill="#fd995b"/></g><g><path d="m124.098 471.33v-42.559c-10.047 7.176-17.708 17.36-21.736 29.06 5.936 4.786 12.117 9.277 18.491 13.499z" fill="#ef854b"/></g><g><path d="m379.202 415.644.017-.006c-.05-.05-.099-.098-.149-.148-1.882-2.145-3.921-4.152-6.097-6.012-35.607-34.723-69.588-61.613-69.588-94.903h-47.385v173.276l42.492 20.466c33.783-5.912 65.186-18.741 92.695-36.977l.001-.009c.019-.052.56-1.586 1.165-4.298 4.283-19.223-1.395-37.902-13.151-51.389z" fill="#4fabf7"/></g><g><path d="m213.508 508.317 42.492-20.466v-173.276h-47.386c0 33.29-33.981 60.18-69.588 94.903-2.176 1.86-4.215 3.867-6.097 6.012-.05.05-.099.098-.149.148l.017.006c-11.756 13.487-17.434 32.166-13.151 51.388.604 2.712 1.146 4.246 1.165 4.298v.009c27.511 18.236 58.914 31.065 92.697 36.978z" fill="#2e8be6"/></g><g><path d="m322.521 415.57 26.913-36.185c5.744-7.723 5.172-18.443-1.361-25.511l-34.687-37.527-10-1.772h-94.772l-10 1.772-34.686 37.527c-6.533 7.068-7.105 17.788-1.361 25.511l26.913 36.185c2.603 3.5 2.637 8.283.085 11.819l-8.73 12.099c-5.035 6.977-5.043 16.393-.02 23.379l32.684 45.455c7.356 1.287 14.829 2.236 22.395 2.852l20.106-23.323 20.107 23.323c7.566-.616 15.039-1.565 22.395-2.852l32.684-45.455c5.023-6.986 5.015-16.401-.02-23.379l-8.73-12.099c-2.552-3.537-2.518-8.32.085-11.819z" fill="#73c3f9"/></g><g><path d="m313.386 316.347h-114.772l37.272 194.835c6.634.538 13.341.818 20.114.818s13.48-.28 20.114-.819z" fill="#3c5082"/></g><g><path d="m276.114 511.181 4.183-21.868c-30.687-37.699-51.683-95.306-51.683-157.798v-15.169h-30l37.272 194.835c6.634.539 13.341.819 20.114.819s13.48-.28 20.114-.819z" fill="#2d3c6b"/></g><g><path d="m208.614 221.239v93.336s19.021 20.093 47.17 20.093c.073 0 .143-.005.216-.005 28.031-.103 47.386-20.088 47.386-20.088v-93.336z" fill="#fd995b"/></g><g><path d="m208.614 277.655h94.772c5.523 0 10 4.477 10 10v28.692s-16.429 18.317-57.386 18.317-57.386-18.317-57.386-18.317v-28.692c0-5.523 4.477-10 10-10z" fill="#4b6496"/></g><g><path d="m228.614 287.655c0-5.523 4.477-10 10-10h-30c-5.523 0-10 4.477-10 10v28.692s8.931 9.934 30 15.169z" fill="#3c5082"/></g><g><path d="m180.942 159.567s-10.385-25.285-28.897-19.415.448 60.664 36.573 64.116z" fill="#fd995b"/></g><g><path d="m331.058 159.567s10.385-25.285 28.897-19.415-.448 60.664-36.573 64.116z" fill="#fcad6d"/></g><g><path d="m343.549 143.073-.038-.009-27.855-54.367s-1.298 31.537-12.146 54.367h-10.872c-.71-4.248-2.616-13.346-6.82-20.829 0 0-1.644 12.113-8.877 20.829h-68.491c-10.848-22.83-12.146-54.367-12.146-54.367l-27.853 54.363c-.029 1.226-.048 2.456-.048 3.696 0 64.505 39.219 140.155 87.597 140.155s87.597-75.651 87.597-140.155c0-1.236-.019-2.462-.048-3.683z" fill="#f9ba8f"/></g><g><path d="m208.403 146.754c0-1.24.031-2.465.06-3.691h-.013c-10.848-22.83-12.146-54.367-12.146-54.367l-27.853 54.363c-.029 1.226-.048 2.456-.048 3.696 0 64.505 39.219 140.155 87.597 140.155 6.881 0 13.576-1.535 20-4.346-38.741-16.953-67.597-80.48-67.597-135.81z" fill="#fcad6d"/></g><g><g><path d="m242.013 192.447 8.436-13.441c2.569-4.093 8.533-4.093 11.102 0l8.436 13.441c2.739 4.365-.398 10.038-5.551 10.038h-16.871c-5.154-.001-8.291-5.674-5.552-10.038z" fill="#fd995b"/></g></g><g><g><path d="m235.384 240.87h41.233c4.111-3.622 7.258-8.309 9.01-13.631 1.584-4.811-2.069-9.754-7.134-9.754h-44.985c-5.065 0-8.718 4.943-7.134 9.754 1.752 5.322 4.899 10.009 9.01 13.631z" fill="#162544"/></g><g><path d="m276.616 240.87c-5.493 4.849-12.714 7.798-20.616 7.798s-15.124-2.948-20.616-7.798c5.5-4.849 12.714-7.798 20.616-7.798s15.116 2.949 20.616 7.798z" fill="#ff4155"/></g></g><g><path d="m223.5 134.968h-20c-4.142 0-7.5-3.358-7.5-7.5 0-4.142 3.358-7.5 7.5-7.5h20c4.142 0 7.5 3.358 7.5 7.5 0 4.142-3.358 7.5-7.5 7.5z" fill="#ff9100"/></g><g><path d="m308.5 134.968h-20c-4.142 0-7.5-3.358-7.5-7.5 0-4.142 3.358-7.5 7.5-7.5h20c4.142 0 7.5 3.358 7.5 7.5 0 4.142-3.358 7.5-7.5 7.5z" fill="#ff9100"/></g><g><g><g><path d="m235.046 167.697c-1.657 0-3.278-.823-4.23-2.327-1.477-2.334-.782-5.423 1.552-6.899 7.119-4.504 15.291-6.885 23.634-6.885 8.338 0 16.507 2.379 23.624 6.879 2.334 1.476 3.029 4.563 1.554 6.897-1.476 2.334-4.564 3.029-6.898 1.554-5.515-3.486-11.835-5.33-18.279-5.33-6.447 0-12.771 1.845-18.287 5.336-.83.524-1.756.775-2.67.775z" fill="#e80054"/></g></g><g><circle cx="213.5" cy="170.118" fill="#ff596e" r="27.025"/></g><g><path d="m206.475 170.118c0-11.392 7.052-21.13 17.025-25.106-3.094-1.233-6.466-1.919-10-1.919-14.926 0-27.025 12.1-27.025 27.025s12.1 27.025 27.025 27.025c3.534 0 6.906-.685 10-1.919-9.973-3.975-17.025-13.714-17.025-25.106z" fill="#ff4155"/></g><g><circle cx="298.5" cy="170.118" fill="#ff596e" r="27.025"/></g><g><path d="m291.475 170.118c0-11.392 7.052-21.13 17.025-25.106-3.094-1.233-6.466-1.919-10-1.919-14.926 0-27.025 12.1-27.025 27.025s12.1 27.025 27.025 27.025c3.534 0 6.906-.685 10-1.919-9.973-3.975-17.025-13.714-17.025-25.106z" fill="#ff4155"/></g></g><g><path d="m311.239 162.03c.043-3.495-1.371-7.004-4.242-9.539-4.675-4.128-11.84-4.128-16.515 0-2.871 2.535-4.284 6.044-4.242 9.539.055 4.538 5.629 6.716 8.838 3.507 2.022-2.022 5.3-2.022 7.322 0 3.21 3.209 8.784 1.031 8.839-3.507z" fill="#cc0053"/></g><g><path d="m200.761 162.03c-.043-3.495 1.371-7.004 4.242-9.539 4.675-4.128 11.84-4.128 16.515 0 2.871 2.535 4.284 6.044 4.242 9.539-.055 4.538-5.629 6.716-8.838 3.507-2.022-2.022-5.3-2.022-7.322 0-3.21 3.209-8.784 1.031-8.839-3.507z" fill="#cc0053"/></g></g></svg>