<svg height="512pt" viewBox="0 0 512 512" width="512pt" xmlns="http://www.w3.org/2000/svg"><path d="m512 256c0 141.386719-114.613281 256-256 256s-256-114.613281-256-256 114.613281-256 256-256 256 114.613281 256 256zm0 0" fill="#42b7a1"/><path d="m398.410156 468.761719c-12.339844 8.277343-25.441406 15.519531-39.179687 21.566406-10.652344 4.703125-21.679688 8.703125-33.03125 11.921875-2.070313.589844-4.160157 1.148438-6.25 1.679688-20.429688 5.269531-41.859375 8.070312-63.949219 8.070312-8.238281 0-16.390625-.390625-24.429688-1.160156-15.710937-1.480469-31.011718-4.390625-45.769531-8.578125-7.242187-2.0625-14.359375-4.441407-21.332031-7.121094-.429688-.160156-.859375-.320313-1.289062-.492187-3.507813-1.359376-6.980469-2.808594-10.410157-4.320313-13.738281-6.058594-26.839843-13.289063-39.191406-21.578125 10.390625-14.371094 23.761719-26.429688 39.191406-35.320312 10.199219-5.871094 21.300781-10.339844 33.03125-13.148438 1.808594-.441406 3.640625-.839844 5.480469-1.191406 3.46875-.679688 7-1.199219 10.570312-1.570313 1.027344-.109375 2.046876-.210937 3.089844-.289062 3.378906-.28125 6.796875-.421875 10.257813-.421875h81.589843c4.519532 0 8.972657.242187 13.351563.703125 3.570313.367187 7.089844.898437 10.570313 1.558593 1.390624.269532 2.769531.558594 4.140624.871094.449219.117188.910157.207032 1.347657.328125 3.140625.75 6.242187 1.628907 9.28125 2.621094 8.328125 2.6875 16.28125 6.238281 23.75 10.539063 4.121093 2.378906 8.089843 4.980468 11.890625 7.789062 10.457031 7.710938 19.667968 17.011719 27.289062 27.542969zm0 0" fill="#f1eee9"/><path d="m215.199219 416.808594c-29.359375 0-49.257813 42.429687-50.730469 78.332031-.429688-.160156-.859375-.320313-1.289062-.492187-3.507813-1.359376-6.980469-2.808594-10.410157-4.320313-13.738281-6.058594-26.839843-13.289063-39.191406-21.578125 10.390625-14.371094 23.761719-26.429688 39.191406-35.320312 10.199219-5.871094 21.300781-10.339844 33.03125-13.148438 1.808594-.441406 3.640625-.839844 5.480469-1.191406 3.46875-.679688 7-1.199219 10.570312-1.570313 1.027344-.109375 2.046876-.210937 3.089844-.289062 3.378906-.28125 6.796875-.421875 10.257813-.421875zm0 0" fill="#d7d3cd"/><path d="m320.710938 419.070312v4.339844c0 28.539063-18.320313 53.378906-45.589844 61.808594-6.171875 1.921875-12.609375 2.890625-19.132813 2.890625-35.679687 0-64.707031-29.03125-64.707031-64.699219v-4.320312c3.46875-.679688 7-1.199219 10.570312-1.570313 1.027344-.109375 2.046876-.210937 3.089844-.289062 3.378906-.28125 6.796875-.421875 10.257813-.421875h81.589843c4.519532 0 8.972657.242187 13.351563.703125 3.570313.367187 7.089844.898437 10.570313 1.558593zm0 0" fill="#f9c5ac"/><path d="m204.941406 417.230469c-1.042968.078125-2.0625.179687-3.089844.289062-3.570312.371094-7.101562.890625-10.570312 1.570313v4.320312c0 1.246094.042969 2.480469.113281 3.707032 6.902344-6.417969 14.921875-10.308594 23.804688-10.308594-3.460938 0-6.878907.140625-10.257813.421875zm0 0" fill="#efb29a"/><path d="m300.707031 368.539062v54.867188c0 20.089844-13.246093 37.066406-31.488281 42.707031-4.179688 1.296875-8.628906 1.996094-13.230469 1.996094-24.691406 0-44.703125-20.011719-44.703125-44.703125v-54.867188zm0 0" fill="#efb29a"/><path d="m300.707031 419.933594v3.472656c0 20.089844-13.246093 37.066406-31.488281 42.707031-16.460938-5.058593-28.839844-19.371093-31.125-36.882812 2.988281.183593 5.992188.273437 9.007812.273437 8.460938 0 16.75-.671875 24.828126-1.996094 9.953124-1.601562 19.570312-4.160156 28.777343-7.574218zm0 0" fill="#f9c5ac"/><path d="m132.539062 278.152344c0 20.496094-14.972656 37.492187-34.578124 40.648437-2.144532.34375-4.347657.527344-6.597657.527344-22.746093 0-41.171875-18.429687-41.171875-41.175781s18.425782-41.175782 41.171875-41.175782c2.25 0 4.453125.179688 6.597657.527344 19.605468 3.15625 34.578124 20.152344 34.578124 40.648438zm0 0" fill="#f9c5ac"/><path d="m132.539062 278.152344c0 20.496094-14.972656 37.492187-34.578124 40.648437-3.5625-12.953125-5.464844-26.582031-5.464844-40.648437s1.902344-27.695313 5.464844-40.644532c19.605468 3.152344 34.578124 20.148438 34.578124 40.644532zm0 0" fill="#efb29a"/><path d="m106.082031 278.152344c0 8.128906-6.589843 14.714844-14.71875 14.714844-8.125 0-14.714843-6.585938-14.714843-14.714844 0-8.125 6.589843-14.714844 14.714843-14.714844 8.128907 0 14.71875 6.589844 14.71875 14.714844zm0 0" fill="#efb29a"/><path d="m379.449219 278.152344c0 20.496094 14.972656 37.492187 34.578125 40.648437 2.144531.34375 4.347656.527344 6.597656.527344 22.746094 0 41.175781-18.429687 41.175781-41.175781s-18.429687-41.175782-41.175781-41.175782c-2.25 0-4.453125.179688-6.597656.527344-19.605469 3.15625-34.578125 20.152344-34.578125 40.648438zm0 0" fill="#f9c5ac"/><path d="m379.449219 278.152344c0 20.496094 14.972656 37.492187 34.578125 40.648437 3.5625-12.953125 5.464844-26.582031 5.464844-40.648437s-1.902344-27.695313-5.464844-40.644532c-19.605469 3.152344-34.578125 20.148438-34.578125 40.644532zm0 0" fill="#efb29a"/><path d="m435.339844 278.152344c0 8.128906-6.589844 14.714844-14.714844 14.714844-8.128906 0-14.71875-6.585938-14.71875-14.714844 0-8.125 6.589844-14.714844 14.71875-14.714844 8.125 0 14.714844 6.589844 14.714844 14.714844zm0 0" fill="#efb29a"/><path d="m410.695312 256.511719c0 76.984375-56.242187 140.847656-129.871093 152.703125-8.078125 1.328125-16.371094 2-24.828125 2-85.445313 0-154.703125-69.257813-154.703125-154.703125v-157.5h309.402343zm0 0" fill="#f9c5ac"/><path d="m283.242188 408.808594c-.800782.140625-1.609376.28125-2.417969.410156-8.082031 1.320312-16.371094 1.992188-24.832031 1.992188-85.4375 0-154.699219-69.25-154.699219-154.699219v-157.5h54.550781v157.5c0 76.136719 54.980469 139.410156 127.398438 152.296875zm0 0" fill="#efb29a"/><path d="m255.996094 337.929688c-12.957032 0-25.910156-3.246094-37.71875-9.738282-3.328125-1.828125-4.542969-6.011718-2.714844-9.34375 1.832031-3.332031 6.015625-4.546875 9.347656-2.714844 19.464844 10.699219 42.707032 10.699219 62.167969 0 3.332031-1.832031 7.515625-.617187 9.347656 2.714844 1.832031 3.332032.617188 7.515625-2.714843 9.34375-11.808594 6.492188-24.761719 9.738282-37.714844 9.738282zm0 0" fill="#dd9f8a"/><path d="m220.664062 211.101562h-77.679687c-8.777344 0-15.890625 7.113282-15.890625 15.890626v40.757812c0 8.777344 7.113281 15.894531 15.890625 15.894531h77.679687c8.777344 0 15.894532-7.117187 15.894532-15.894531v-40.757812c0-8.773438-7.117188-15.890626-15.894532-15.890626zm0 0" fill="#f1eee9"/><path d="m369.003906 211.101562h-77.679687c-8.777344 0-15.894531 7.113282-15.894531 15.890626v40.757812c0 8.777344 7.117187 15.894531 15.894531 15.894531h77.679687c8.777344 0 15.894532-7.117187 15.894532-15.894531v-40.757812c0-8.773438-7.117188-15.890626-15.894532-15.890626zm0 0" fill="#f1eee9"/><path d="m273.542969 291.695312h-35.097657c-4.179687 0-7.570312-3.390624-7.570312-7.570312 0-4.183594 3.390625-7.570312 7.570312-7.570312h35.097657c4.183593 0 7.570312 3.386718 7.570312 7.570312 0 4.179688-3.386719 7.570312-7.570312 7.570312zm0 0" fill="#efb29a"/><path d="m281.339844 249.160156c0 17.164063 13.914062 31.082032 31.082031 31.082032 17.164063 0 31.078125-13.917969 31.078125-31.082032" fill="#d7d3cd"/><path d="m334.707031 249.160156c0 12.308594-9.976562 22.289063-22.285156 22.289063-12.3125 0-22.289063-9.980469-22.289063-22.289063s9.976563-22.285156 22.289063-22.285156c12.308594 0 22.285156 9.976562 22.285156 22.285156zm0 0" fill="#2f373b"/><path d="m331.257812 245.226562c0 5.277344-4.277343 9.550782-9.550781 9.550782-5.273437 0-9.550781-4.273438-9.550781-9.550782 0-5.273437 4.277344-9.546874 9.550781-9.546874 5.273438 0 9.550781 4.273437 9.550781 9.546874zm0 0" fill="#fff"/><path d="m168.488281 249.160156c0 17.164063 13.917969 31.082032 31.082031 31.082032 17.164063 0 31.078126-13.917969 31.078126-31.082032" fill="#d7d3cd"/><path d="m221.855469 249.160156c0 12.308594-9.976563 22.289063-22.285157 22.289063-12.308593 0-22.289062-9.980469-22.289062-22.289063s9.980469-22.285156 22.289062-22.285156c12.308594 0 22.285157 9.976562 22.285157 22.285156zm0 0" fill="#2f373b"/><path d="m204.78125 270.832031c-1.667969.410157-3.417969.617188-5.210938.617188-12.308593 0-22.289062-9.976563-22.289062-22.289063 0-12.308594 9.980469-22.289062 22.289062-22.289062 1.792969 0 3.542969.210937 5.210938.621094-9.800781 2.339843-17.070312 11.160156-17.070312 21.667968 0 10.511719 7.269531 19.332032 17.070312 21.671875zm0 0" fill="#181e21"/><path d="m317.632812 270.832031c-1.671874.410157-3.421874.617188-5.210937.617188-12.308594 0-22.289063-9.976563-22.289063-22.289063 0-12.308594 9.980469-22.289062 22.289063-22.289062 1.789063 0 3.539063.210937 5.210937.621094-9.800781 2.339843-17.070312 11.160156-17.070312 21.667968 0 10.511719 7.269531 19.332032 17.070312 21.671875zm0 0" fill="#181e21"/><path d="m218.40625 245.226562c0 5.277344-4.273438 9.550782-9.546875 9.550782-5.277344 0-9.550781-4.273438-9.550781-9.550782 0-5.273437 4.273437-9.546874 9.550781-9.546874 5.273437 0 9.546875 4.273437 9.546875 9.546874zm0 0" fill="#fff"/><path d="m418.253906 216.992188h-25.367187c-3.921875-9.324219-13.148438-15.890626-23.882813-15.890626h-77.679687c-14.277344 0-25.894531 11.613282-25.894531 25.890626v7.0625h-18.871094v-7.0625c0-14.273438-11.617188-25.890626-25.894532-25.890626h-77.679687c-10.734375 0-19.960937 6.566407-23.882813 15.890626h-25.363281v20h23.355469v30.761718c0 14.273438 11.613281 25.890625 25.890625 25.890625h77.679687c14.277344 0 25.894532-11.613281 25.894532-25.890625v-13.699218h18.875v13.699218c0 14.273438 11.613281 25.890625 25.890625 25.890625h77.679687c14.277344 0 25.894532-11.613281 25.894532-25.890625v-30.761718h23.355468zm-191.695312 50.757812c0 3.25-2.644532 5.894531-5.894532 5.894531h-77.679687c-3.25 0-5.894531-2.644531-5.894531-5.894531v-40.757812c0-3.25 2.644531-5.890626 5.894531-5.890626h77.679687c3.25 0 5.894532 2.640626 5.894532 5.890626zm148.339844 0c0 3.25-2.644532 5.894531-5.894532 5.894531h-77.679687c-3.25 0-5.894531-2.644531-5.894531-5.894531v-40.757812c0-3.25 2.644531-5.890626 5.894531-5.890626h77.679687c3.25 0 5.894532 2.640626 5.894532 5.890626zm0 0" fill="#181e21"/><path d="m369.640625 422.398438c5.175781 2.402343 7.226563 8.691406 4.441406 13.671874-.867187 1.558594-1.855469 3.28125-2.960937 5.148438-8.140625 13.722656-22.691406 35.261719-44.132813 56.121094-2.316406 2.261718-4.667969 4.449218-7.039062 6.589844-20.429688 5.269531-41.859375 8.070312-63.949219 8.070312-8.238281 0-16.390625-.390625-24.429688-1.160156 24.25-7.941406 46.820313-22.019532 67.53125-42.167969 17.417969-16.953125 29.449219-34.351563 36.378907-45.78125 1.125-1.851563 2.117187-3.546875 2.972656-5.054687 2.519531-4.433594 8.019531-6.183594 12.644531-4.035157zm0 0" fill="#6e5482"/><path d="m259.09375 258.015625h-6.199219c-3.5 0-6.335937-2.839844-6.335937-6.339844v-18.34375c0-3.5 2.835937-6.339843 6.335937-6.339843h6.199219c3.5 0 6.335938 2.839843 6.335938 6.339843v18.34375c0 3.5-2.835938 6.339844-6.335938 6.339844zm0 0" fill="#40b4d3"/><path d="m265.433594 244.113281v13.429688c0 3.5-2.839844 6.339843-6.339844 6.339843h-6.191406c-3.5 0-6.339844-2.839843-6.339844-6.339843v-13.429688c0 3.5 2.839844 6.339844 6.339844 6.339844h6.191406c3.5 0 6.339844-2.839844 6.339844-6.339844zm0 0" fill="#0084a6"/><path d="m461.238281 133.890625c-10.75 28.339844-50.527343 10.75-50.527343 10.75s61.277343 58.640625 37.820312 82.097656c-23.453125 23.460938-115.800781-106.046875-147.5625-74.277343-11.730469 11.730468 12.703125 34.210937-9.648438 48.640624-13.109374 8.46875-27.460937 7.070313-41.832031 1.597657-29.667969-11.277344-59.417969-39.871094-78.507812-34.597657-28.351563 7.820313-84.058594 82.097657-107.511719 58.636719-23.457031-23.457031 37.820312-82.097656 37.820312-82.097656s-39.777343 17.589844-50.527343-10.75c-10.75-28.351563 60.597656-81.121094 60.597656-81.121094s-23.738281-9.449219-17.597656-27.371093c8.457031-24.660157 131.71875-14.878907 162.238281-4.886719 30.519531-9.992188 153.78125-19.773438 162.238281 4.886719 6.140625 17.921874-17.597656 27.371093-17.597656 27.371093s71.347656 52.769531 60.597656 81.121094zm0 0" fill="#ed7b3b"/><path d="m249.488281 202.699219c-29.667969-11.277344-59.417969-39.871094-78.507812-34.597657-28.351563 7.820313-84.058594 82.097657-107.511719 58.636719-23.457031-23.457031 37.820312-82.097656 37.820312-82.097656s-39.777343 17.589844-50.527343-10.75c-10.75-28.351563 60.597656-81.121094 60.597656-81.121094s-23.738281-9.449219-17.597656-27.371093c8.457031-24.660157 131.71875-14.878907 162.238281-4.886719-35.441406-6.722657-76.207031 11.519531-64.5 38.117187 7.167969 16.292969 43.007812 9.125 43.007812 9.125s-52.78125 47.238282-37.140624 77.535156c15.640624 30.304688 52.121093 57.410157 52.121093 57.410157zm0 0" fill="#d65d21"/></svg>