<svg id="Capa_1" enable-background="new 0 0 512 512" height="512" viewBox="0 0 512 512" width="512" xmlns="http://www.w3.org/2000/svg"><g><path d="m441.929 259.677c13.891-42.478-25.223-70.561-25.223-70.561h-160.706v152.785h196.592c29.764-45.336-10.663-82.224-10.663-82.224z" fill="#180a33"/><path d="m95.294 189.115s-39.114 28.084-25.223 70.561c0 0-40.427 36.889-10.663 82.224h196.592v-152.785z" fill="#332866"/><path d="m480.133 385.797c0-27.472-17.603-51.853-43.68-60.497l-63.915-21.187 9.064 207.887h98.531z" fill="#c78f2c"/><path d="m372.538 304.113-37.915-12.569s16.98 220.456 16.98 220.456h30v-152.48c-.001-18.827-3.109-37.586-9.065-55.407z" fill="#e1bb78"/><path d="m351.602 359.52c0-23.708-5.831-47.052-16.98-67.976h-46.755l-10 100.863 73.734 16.556v-49.443z" fill="#ece6f2"/><path d="m287.867 382.407-10 30 10 99.593h63.735v-103.037z" fill="#cfcfe6"/><path d="m256 512h31.867v-99.593l-41.867-10z" fill="#80aaff"/><path d="m246 372.407 10 40h31.867v-30z" fill="#ffda44"/><path d="m31.867 385.797c0-27.472 17.603-51.853 43.68-60.497l63.915-21.187-9.064 207.887h-98.531z" fill="#e1bb78"/><path d="m139.462 304.113 37.915-12.569s-16.98 220.456-16.98 220.456h-30v-152.48c.001-18.827 3.109-37.586 9.065-55.407z" fill="#edd7b0"/><path d="m160.398 359.52c0-23.708 5.831-47.052 16.98-67.976h46.755l10 100.863-73.734 16.556v-49.443z" fill="#fff5f5"/><path d="m224.133 382.407 10 30-10 99.593h-63.735v-103.037z" fill="#ece6f2"/><path d="m256 512h-31.867v-99.593l31.867-10z" fill="#9cf"/><path d="m256 372.407v40h-31.867v-30z" fill="#fff79f"/><path d="m287.867 291.544h-41.867l10 90.863h31.867z" fill="#6680ff"/><path d="m224.133 291.544h31.867v90.863h-31.867z" fill="#80aaff"/><path d="m373.469 191.204h31.867c17.6 0 31.868-14.268 31.868-31.868 0-17.6-14.268-31.868-31.868-31.868h-31.867z" fill="#5b362a"/><path d="m138.531 191.204h-31.867c-17.6 0-31.868-14.268-31.868-31.868 0-17.6 14.268-31.868 31.868-31.868h31.867z" fill="#895140"/><path d="m304.507 63.217-58.507 22.385 10 233.071c70.399 0 127.469-57.07 127.469-127.469v-63.735z" fill="#895140"/><path d="m132.547 95.602c-2.622 10.186-4.016 20.864-4.016 31.867v63.735c0 70.399 57.07 127.469 127.469 127.469v-233.071z" fill="#b56d3c"/><path d="m303.801 9.275c-14.763-5.976-30.895-9.275-47.801-9.275l-10 44.35 10 51.251c19.42 0 36.812-8.686 48.502-22.384h.005c-.003 0 9.655-31.045 9.655-31.045z" fill="#180a33"/><path d="m256 0c-59.395 0-109.302 40.624-123.453 95.602h123.453z" fill="#332866"/><path d="m367.535 127.469h15.934c0-53.494-32.956-99.283-79.668-118.193v54.459c0 35.199 28.535 63.734 63.734 63.734z" fill="#332866"/><path d="m295.834 160.27h31.867v30h-31.867z" fill="#180a33"/><path d="m184.299 160.27h31.867v30h-31.867z" fill="#332866"/></g></svg>