<svg id="Capa_1" enable-background="new 0 0 512 512" height="512" viewBox="0 0 512 512" width="512" xmlns="http://www.w3.org/2000/svg"><g><g><path d="m456.969 407.139c27.744-39.712 44.031-88.02 44.031-140.139 0-135.31-109.69-245-245-245s-245 109.69-245 245c0 52.119 16.287 100.427 44.031 140.139z" fill="#ffdd40"/></g><g><circle cx="256" cy="242" fill="#ffc839" r="200"/></g><g><path d="m412.228 259.136c-21.522-7.533-27.392-22.468-18.088-51.816 8.405-26.513-26.225-54.168-32.997-59.266v-30.911c0-27.404-10.487-52.356-27.663-71.07 0 0-.921-27.711-14.708-34.073-13.787-6.362-28.523-12-62.772-12s-62.086 14.101-81.87 36.423-23.273 57.711-23.273 80.72v.121c0 17.61-6.634 34.491-18.288 47.694-10.147 11.495-19.542 27.117-14.709 42.362 9.304 29.349 3.435 44.283-18.088 51.816-21.522 7.533-72.394 55.796-18.914 126.233h350.283c53.48-70.437 2.609-118.7-18.913-126.233z" fill="#ff4155"/></g><g><path d="m346.915 242c17.872-24.064 10.383-56.958-7.009-59.596h-167.812c-17.392 2.639-24.881 35.532-7.009 59.596s-72 73.227-28.085 143.369h238c43.915-70.142-45.957-119.305-28.085-143.369z" fill="#e80054"/></g><g><path d="m456.949 407.139c-8.005-22.02-16.461-41.469-24.016-51.041h-176.933v101.732h153.617c18.06-14.558 34.021-31.615 47.333-50.665 0-.008 0-.017-.001-.026z" fill="#5c45bf"/></g><g><path d="m79.067 356.098c-7.555 9.572-16.01 29.021-24.016 51.041-.001.009-.001.018-.002.026 13.312 19.05 29.274 36.107 47.333 50.665h153.618v-101.732z" fill="#4432ad"/></g><g><path d="m429.558 352.438c-6.623-5.848-19.39-11.382-34.352-16.323-37.929-12.525-89.967-21.232-91.82-21.54h-94.772c-1.853.307-53.892 9.014-91.82 21.54-14.961 4.941-27.729 10.475-34.352 16.323-.874.772-1.765 1.712-2.668 2.79-.235.28-.47.571-.707.871 44.596 46.551 107.378 75.54 176.933 75.54s132.337-28.99 176.933-75.54c-.237-.3-.472-.591-.707-.871-.903-1.079-1.794-2.019-2.668-2.79z" fill="#a05838"/></g><g><path d="m181.159 395.255c-7.588-20.983-11.96-45.066-12.65-72.83v-.001c-16.433 3.612-35.381 8.297-51.715 13.691-14.961 4.941-27.729 10.475-34.352 16.323-.874.772-1.765 1.712-2.668 2.79-.235.28-.47.571-.707.871 30.989 32.346 70.763 56.2 115.484 67.754-5.193-8.841-9.683-18.343-13.392-28.598z" fill="#934a2e"/></g><g><path d="m391.147 471.33c6.374-4.223 12.555-8.713 18.491-13.499-4.027-11.7-11.689-21.884-21.736-29.06v42.559z" fill="#4432ad"/></g><g><path d="m124.098 471.33v-42.559c-10.047 7.176-17.708 17.36-21.736 29.06 5.936 4.786 12.117 9.277 18.491 13.499z" fill="#2d2296"/></g><g><path d="m379.202 415.644.017-.006c-.05-.05-.099-.098-.149-.148-1.882-2.145-3.921-4.152-6.097-6.012-35.607-34.723-69.588-61.613-69.588-94.903h-94.772c0 33.29-33.981 60.18-69.588 94.903-2.176 1.86-4.215 3.867-6.097 6.012-.05.05-.099.098-.149.148l.017.006c-11.756 13.487-17.434 32.166-13.151 51.388.604 2.713 1.146 4.246 1.165 4.298v.009c38.75 25.687 85.218 40.661 135.19 40.661 49.971 0 96.439-14.974 135.187-40.661l.001-.009c.019-.052.56-1.586 1.165-4.298 4.283-19.222-1.395-37.901-13.151-51.388z" fill="#7255ce"/></g><g><path d="m301.031 507.862c-56.84-22.966-99.707-56.85-119.872-112.606-2.368-6.548-4.422-13.398-6.15-20.567-10.814 11.031-23.29 22.412-35.983 34.789-2.176 1.86-4.215 3.867-6.097 6.012-.05.05-.099.098-.149.148l.017.006c-11.756 13.487-17.434 32.166-13.151 51.388.604 2.713 1.146 4.246 1.165 4.298v.009c38.749 25.687 85.217 40.661 135.189 40.661 15.384 0 30.434-1.424 45.031-4.138z" fill="#5c45bf"/></g><g><path d="m208.614 221.239v93.336s19.021 20.093 47.17 20.093c.073 0 .143-.005.216-.005 28.031-.103 47.386-20.088 47.386-20.088v-93.336z" fill="#a05838"/></g><g><path d="m208.614 220.734v93.841c94.723 0 94.772-53.4 94.772-53.4v-40.44h-94.772z" fill="#934a2e"/></g><g><path d="m256 419.575c-19.652 0-35.261-18.001-46.392-53.504-7.896-25.186-10.579-49.928-10.689-50.969-.291-2.746 1.699-5.207 4.444-5.499 2.746-.283 5.208 1.699 5.5 4.444 2.825 26.57 16.801 95.527 47.136 95.527s44.309-68.957 47.133-95.527c.292-2.746 2.746-4.725 5.5-4.444 2.746.291 4.735 2.753 4.444 5.498-.11 1.041-2.792 25.784-10.688 50.97-11.128 35.503-26.736 53.504-46.388 53.504z" fill="#dae2fe"/></g><g><path d="m256 358.298c-23.415 0-37.67-11.537-45.507-21.215-8.401-10.377-11.305-20.751-11.424-21.188-.729-2.664.839-5.414 3.503-6.143 2.658-.731 5.408.836 6.14 3.494.419 1.496 10.26 35.051 47.288 35.051 37.264 0 47.187-34.691 47.283-35.042.729-2.664 3.479-4.233 6.142-3.503 2.664.729 4.232 3.479 3.503 6.142-.12.437-3.022 10.812-11.423 21.188-7.835 9.679-22.09 21.216-45.505 21.216z" fill="#e9efff"/></g><g><path d="m331.058 159.567s10.385-25.285 28.897-19.415-.448 60.664-36.573 64.116z" fill="#a05838"/></g><g><path d="m180.942 159.567s-10.385-25.285-28.897-19.415.448 60.664 36.573 64.116z" fill="#934a2e"/></g><g><path d="m279.623 95.694 12.283 14.501c2.38 2.809.013 7.078-3.631 6.548-55.268-8.042-74.702-33.809-74.702-33.809-15.713 7.454-23.178 25.856-28.624 41.82-2.762 8.097-8.72 14.703-16.484 18.295l-.015-.007c-.029 1.231-.049 2.467-.049 3.713 0 64.505 39.219 140.155 87.597 140.155s87.597-75.651 87.597-140.155c0-1.244-.02-2.479-.049-3.71-21.033-24.057-43.596-38.596-63.923-47.351z" fill="#b76c4e"/></g><g><path d="m208.403 146.754c0-21.401 4.332-40.792 11.868-57.171-4.647-3.937-6.696-6.649-6.696-6.649-15.713 7.454-23.178 25.856-28.624 41.82-2.762 8.097-8.72 14.703-16.484 18.295l-.015-.007c-.029 1.231-.049 2.468-.049 3.713 0 64.505 39.219 140.155 87.597 140.155 6.881 0 13.576-1.535 20-4.346-38.741-16.953-67.597-80.48-67.597-135.81z" fill="#a05838"/></g><g><g><path d="m235.046 174.618c-1.657 0-3.278-.823-4.23-2.327-1.477-2.334-.782-5.423 1.552-6.899 7.119-4.504 15.291-6.885 23.634-6.885 8.34 0 16.509 2.379 23.624 6.879 2.333 1.476 3.029 4.564 1.553 6.898-1.476 2.332-4.564 3.028-6.898 1.553-5.513-3.487-11.834-5.33-18.278-5.33-6.447 0-12.771 1.845-18.287 5.336-.83.524-1.756.775-2.67.775z" fill="#2d3c6b"/></g><g><path d="m182.578 156.58c-.685 2.758-1.011 5.658-.924 8.647.489 16.834 14.251 30.513 31.087 30.904 17.943.417 32.619-14.003 32.619-31.851 0-2.523-.294-4.977-.848-7.33-1.916-8.127-9.192-13.857-17.542-13.857h-26.945c-8.207 0-15.468 5.522-17.447 13.487z" fill="#4b6496"/></g><g><path d="m199.154 165.228c-.087-2.99.239-5.89.924-8.647 1.98-7.965 9.24-13.487 17.447-13.487h-17.5c-8.208 0-15.468 5.522-17.447 13.487-.685 2.758-1.011 5.658-.924 8.647.489 16.834 14.251 30.513 31.087 30.904 3.315.077 6.517-.355 9.537-1.219-13.016-3.735-22.716-15.604-23.124-29.685z" fill="#3c5082"/></g><g><path d="m329.422 156.58c.685 2.758 1.011 5.658.924 8.647-.489 16.834-14.251 30.513-31.087 30.904-17.943.417-32.619-14.003-32.619-31.851 0-2.523.294-4.977.848-7.33 1.916-8.127 9.191-13.857 17.542-13.857h26.945c8.207 0 15.468 5.522 17.447 13.487z" fill="#4b6496"/></g><g><path d="m284.154 165.228c-.087-2.99.239-5.89.924-8.647 1.98-7.965 9.24-13.487 17.447-13.487h-17.5c-8.208 0-15.468 5.522-17.447 13.487-.685 2.758-1.011 5.658-.924 8.647.489 16.834 14.251 30.513 31.087 30.904 3.315.077 6.517-.355 9.537-1.219-13.016-3.735-22.716-15.604-23.124-29.685z" fill="#3c5082"/></g></g><g><path d="m311.239 162.03c.043-3.495-1.371-7.004-4.242-9.539-4.675-4.128-11.84-4.128-16.515 0-2.871 2.535-4.284 6.044-4.242 9.539.055 4.538 5.629 6.716 8.838 3.507 2.022-2.022 5.3-2.022 7.322 0 3.21 3.209 8.784 1.031 8.839-3.507z" fill="#213159"/></g><g><path d="m200.761 162.03c-.043-3.495 1.371-7.004 4.242-9.539 4.675-4.128 11.84-4.128 16.515 0 2.871 2.535 4.284 6.044 4.242 9.539-.055 4.538-5.629 6.716-8.838 3.507-2.022-2.022-5.3-2.022-7.322 0-3.21 3.209-8.784 1.031-8.839-3.507z" fill="#213159"/></g><g><g><path d="m242.013 192.447 8.436-13.441c2.569-4.093 8.533-4.093 11.102 0l8.436 13.441c2.739 4.365-.398 10.038-5.551 10.038h-16.871c-5.154-.001-8.291-5.674-5.552-10.038z" fill="#934a2e"/></g></g><g><g><path d="m235.384 240.87h41.233c4.111-3.622 7.258-8.309 9.01-13.631 1.584-4.811-2.069-9.754-7.134-9.754h-44.985c-5.065 0-8.718 4.943-7.134 9.754 1.752 5.322 4.899 10.009 9.01 13.631z" fill="#162544"/></g><g><path d="m276.616 240.87c-5.493 4.849-12.714 7.798-20.616 7.798s-15.124-2.948-20.616-7.798c5.5-4.849 12.714-7.798 20.616-7.798s15.116 2.949 20.616 7.798z" fill="#ff4155"/></g></g><g><path d="m223.5 134.968h-20c-4.142 0-7.5-3.358-7.5-7.5 0-4.142 3.358-7.5 7.5-7.5h20c4.142 0 7.5 3.358 7.5 7.5 0 4.142-3.358 7.5-7.5 7.5z" fill="#e80054"/></g><g><path d="m308.5 134.968h-20c-4.142 0-7.5-3.358-7.5-7.5 0-4.142 3.358-7.5 7.5-7.5h20c4.142 0 7.5 3.358 7.5 7.5 0 4.142-3.358 7.5-7.5 7.5z" fill="#e80054"/></g></g></svg>