<svg id="Capa_1" enable-background="new 0 0 512 512" height="512" viewBox="0 0 512 512" width="512" xmlns="http://www.w3.org/2000/svg"><g><path d="m0 256c0-141.385 114.615-256 256-256s256 114.615 256 256c0 80.844-37.475 152.936-96 199.852-3.059 2.452-103.685-41.852-160-41.852s-156.941 44.304-160 41.852c-58.525-46.916-96-119.008-96-199.852z" fill="#20b7a1"/><path d="m456.362 256c0 110.657-89.705 200.362-200.362 200.362s-200.362-89.705-200.362-200.362 89.705-200.362 200.362-200.362 200.362 89.705 200.362 200.362z" fill="#24d3b5"/><path d="m146 213.876c-13.807 0-25-11.193-25-25v-10c0-13.807 11.193-25 25-25 13.807 0 25 11.193 25 25v10c0 13.807-11.193 25-25 25z" fill="#b46e5a"/><path d="m166 303.876h40c-38.66 0-70 31.34-70 70v97.017c0 5.105-5.554 8.314-9.95 5.719-10.523-6.212-20.563-13.155-30.05-20.76v-81.976c0-38.66 31.34-70 70-70z" fill="#915041"/><path d="m416 373.876v81.976c-18.141 14.542-38.304 26.665-60 35.881-2.095.89-25.484-5.69-36.511-5.69h-126.657c-11.08 0-34.458 6.695-36.511 5.827-10.482-4.435-20.608-9.549-30.322-15.286v-102.708c0-38.66 31.34-70 70-70h150c1.326 0 2.643.037 3.95.11.682.038.798 2.095 1.475 2.153.9.076 1.795.169 2.684.279.444.055 1.449-1.896 1.89-1.833 33.925 4.852 60.002 34.026 60.002 69.291z" fill="#a65d4e"/><path d="m136 173.876v20c0 8.178 3.927 15.439 9.998 20-13.806-.001-24.998-11.193-24.998-25v-10c0-13.807 11.192-24.999 24.998-25-6.071 4.561-9.998 11.822-9.998 20zm230-20v-20c0-60.751-49.249-110-110-110-60.751 0-110 49.249-110 110v40c0 50.351 33.83 92.801 80 105.859v64.141h60v-64.141c33.586-9.499 60.641-34.551 72.895-66.883 2.252.667 4.637 1.024 7.105 1.024 13.807 0 25-11.193 25-25v-10c0-13.807-11.193-25-25-25z" fill="#a65d4e"/><path d="m366 133.876v40c0 50.792-34.425 93.543-81.216 106.195-9.023 2.44-18.545 2.44-27.568 0-46.791-12.652-81.216-55.403-81.216-106.195v-40c0-55.663 41.345-101.669 95-108.985 53.655 7.316 95 53.322 95 108.985z" fill="#b46e5a"/><path d="m241.5 180.607c-2.929-2.93-2.929-7.678 0-10.607 2.929-2.928 7.678-2.928 10.606 0 1.042 1.042 2.424 1.616 3.893 1.616s2.851-.574 3.893-1.616c2.929-2.928 7.678-2.928 10.606 0 2.929 2.93 2.929 7.678 0 10.607-3.875 3.875-9.024 6.009-14.5 6.009s-10.623-2.134-14.498-6.009z" fill="#915041"/><path d="m223.5 141.376c0 8.284-6.716 15-15 15s-15-6.716-15-15 6.716-15 15-15 15 6.716 15 15zm80-15c-8.284 0-15 6.716-15 15s6.716 15 15 15 15-6.716 15-15-6.716-15-15-15z" fill="#61362b"/><path d="m206 55.864c-7.364 0-13.333-5.97-13.333-13.333v-13.334c0-7.364 5.97-13.333 13.333-13.333 7.364 0 13.333 5.97 13.333 13.333v13.333c0 7.365-5.969 13.334-13.333 13.334z" fill="#61362b"/><path d="m319.333 29.197v13.333c0 7.364-5.969 13.333-13.333 13.333-3.982 0-7.557-1.746-10-4.514-2.443 2.768-6.018 4.514-10 4.514s-7.557-1.746-10-4.514c-2.443 2.768-6.018 4.514-10 4.514s-7.557-1.746-10-4.514c-2.443 2.768-6.018 4.514-10 4.514s-7.557-1.746-10-4.514c-2.443 2.768-6.018 4.514-10 4.514-7.364 0-13.333-5.97-13.333-13.333v-13.333c0-7.364 5.969-13.333 13.333-13.333 3.982 0 7.557 1.746 10 4.514 2.443-2.768 6.018-4.514 10-4.514s7.557 1.746 10 4.514c2.443-2.768 6.018-4.514 10-4.514s7.557 1.746 10 4.514c2.443-2.768 6.018-4.514 10-4.514s7.557 1.746 10 4.514c2.443-2.768 6.018-4.514 10-4.514 7.364 0 13.333 5.969 13.333 13.333z" fill="#784132"/><path d="m171.322 382.755v55.468c0 4.142-3.358 7.5-7.5 7.5-4.142 0-7.5-3.358-7.5-7.5v-55.468c0-4.142 3.358-7.5 7.5-7.5 4.142 0 7.5 3.358 7.5 7.5z" fill="#915041"/><path d="m226 133.876c0 4.142-3.358 7.5-7.5 7.5s-7.5-3.358-7.5-7.5 3.358-7.5 7.5-7.5 7.5 3.358 7.5 7.5zm87.5-7.5c-4.142 0-7.5 3.358-7.5 7.5s3.358 7.5 7.5 7.5 7.5-3.358 7.5-7.5-3.358-7.5-7.5-7.5z" fill="#fff5f5"/><path d="m256 243.876c-16.569 0-30-13.431-30-30 0-4.142 3.358-7.5 7.5-7.5h45c4.142 0 7.5 3.358 7.5 7.5 0 16.569-13.431 30-30 30z" fill="#fff5f5"/><path d="m263.5 242.931c-2.397.617-4.91.945-7.5.945-16.568 0-30-13.431-30-30 0-4.142 3.358-7.5 7.5-7.5h15c-4.142 0-7.5 3.358-7.5 7.5 0 13.979 9.561 25.724 22.5 29.055z" fill="#def4f8"/><path d="m349.95 303.986c2.041.114 4.059.315 6.05.6v187.146c-30.722 13.049-64.518 20.268-100 20.268-35.358 0-69.043-7.168-99.678-20.131v-57.783c83.441-9.846 154.595-59.823 193.628-130.1z" fill="#ffcd71"/><path d="m171.322 497.663c-5.075-1.778-10.077-3.711-15-5.794v-57.782c5.046-.596 10.048-1.338 15-2.223z" fill="#ffc14f"/><path d="m200.319 449.638c0 5.828-3.734 10.553-8.34 10.553s-8.34-4.725-8.34-10.553 3.734-10.553 8.34-10.553 8.34 4.725 8.34 10.553zm114.613-32.852c-6.182 0-11.194 6.341-11.194 14.164s5.012 14.164 11.194 14.164 11.194-6.341 11.194-14.164c0-7.822-5.012-14.164-11.194-14.164zm-107.719 64.171c4.089 0 7.404-3.315 7.404-7.404s-3.315-7.404-7.404-7.404-7.404 3.315-7.404 7.404 3.315 7.404 7.404 7.404zm124.44-77.669c4.089 0 7.404-3.315 7.404-7.404s-3.315-7.404-7.404-7.404-7.404 3.315-7.404 7.404 3.315 7.404 7.404 7.404zm-3.404 77.669c4.089 0 7.404-3.315 7.404-7.404s-3.315-7.404-7.404-7.404-7.404 3.315-7.404 7.404 3.314 7.404 7.404 7.404z" fill="#ff9f22"/><path d="m316.853 305.764c-13.669 20.29-36.418 32.403-60.853 32.403s-47.184-12.113-60.853-32.403c-2.314-3.436-1.406-8.097 2.029-10.41 3.435-2.314 8.096-1.407 10.41 2.029 10.877 16.146 28.976 25.784 48.413 25.784s37.536-9.639 48.413-25.784c2.313-3.435 6.976-4.344 10.41-2.029 3.437 2.313 4.345 6.974 2.031 10.41z" fill="#ffc14f"/><path d="m271 325.109c0 7.073-1.647 14.049-4.81 20.375l-6.624 13.249c-1.469 2.938-5.663 2.938-7.132 0l-6.624-13.249c-3.163-6.326-4.81-13.302-4.81-20.375 0-5.106 4.139-9.245 9.245-9.245h11.511c5.105 0 9.244 4.139 9.244 9.245zm-37.322-11.922c-1.953-1.953-5.119-1.953-7.071 0l-14.142 14.142c-1.953 1.953-1.953 5.119 0 7.071 1.953 1.953 5.119 1.953 7.071 0l14.142-14.142c1.952-1.953 1.952-5.119 0-7.071zm65.858 14.142-14.142-14.142c-1.952-1.953-5.118-1.953-7.071 0-1.953 1.953-1.953 5.118 0 7.071l14.142 14.142c1.953 1.953 5.119 1.953 7.071 0s1.952-5.119 0-7.071z" fill="#fff5f5"/></g></svg>