<svg height="512pt" viewBox="0 0 512 512" width="512pt" xmlns="http://www.w3.org/2000/svg"><path d="m512 256c0 141.386719-114.613281 256-256 256s-256-114.613281-256-256 114.613281-256 256-256 256 114.613281 256 256zm0 0" fill="#40b4d3"/><path d="m112.515625 446.738281c-28.3125-28.3125-28.3125-74.214843 0-102.527343 28.3125-28.316407 74.214844-28.316407 102.53125 0" fill="#181e21"/><path d="m399.484375 446.738281c28.3125-28.3125 28.3125-74.214843 0-102.527343-28.3125-28.316407-74.214844-28.316407-102.53125 0" fill="#181e21"/><path d="m398.414062 468.761719c-12.339843 8.277343-25.4375 15.519531-39.179687 21.566406-10.648437 4.703125-21.679687 8.703125-33.03125 11.921875-22.296875 6.351562-45.847656 9.75-70.199219 9.75-24.339844 0-47.890625-3.398438-70.199218-9.738281-7.238282-2.0625-14.359376-4.441407-21.328126-7.121094-.429687-.160156-.863281-.320313-1.292968-.492187-3.507813-1.359376-6.980469-2.808594-10.410156-4.320313-13.738282-6.058594-26.839844-13.289063-39.1875-21.578125 10.390624-14.371094 23.757812-26.429688 39.1875-35.320312 10.203124-5.871094 21.300781-10.339844 33.03125-13.148438 1.808593-.441406 3.640624-.839844 5.480468-1.191406 3.46875-.679688 7-1.199219 10.570313-1.570313 1.03125-.109375 2.050781-.210937 3.089843-.289062 3.378907-.28125 6.800782-.421875 10.257813-.421875h81.59375c4.519531 0 8.96875.242187 13.347656.703125 3.570313.367187 7.089844.898437 10.570313 1.558593 1.390625.269532 2.769531.558594 4.140625.871094.449219.117188.910156.207032 1.347656.328125 11.742187 2.820313 22.832031 7.289063 33.03125 13.160157 15.429687 8.898437 28.789063 20.960937 39.179687 35.332031zm0 0" fill="#f93d6e"/><path d="m215.203125 416.808594c-29.359375 0-49.257813 42.429687-50.726563 78.332031-.429687-.160156-.863281-.320313-1.292968-.492187-3.507813-1.359376-6.980469-2.808594-10.410156-4.320313-13.738282-6.058594-26.839844-13.289063-39.1875-21.578125 10.390624-14.371094 23.757812-26.429688 39.1875-35.320312 10.203124-5.871094 21.300781-10.339844 33.03125-13.148438 1.808593-.441406 3.640624-.839844 5.480468-1.191406 3.46875-.679688 7-1.199219 10.570313-1.570313 1.03125-.109375 2.050781-.210937 3.089843-.289062 3.378907-.28125 6.800782-.421875 10.257813-.421875zm0 0" fill="#e41753"/><path d="m320.714844 419.070312v4.339844c0 28.539063-18.320313 53.378906-45.589844 61.808594-6.171875 1.921875-12.609375 2.890625-19.128906 2.890625-35.679688 0-64.710938-29.03125-64.710938-64.699219v-4.320312c3.46875-.679688 7-1.199219 10.570313-1.570313 1.03125-.109375 2.050781-.210937 3.089843-.289062 3.378907-.28125 6.800782-.421875 10.257813-.421875h81.59375c4.519531 0 8.96875.242187 13.347656.703125 3.570313.367187 7.089844.898437 10.570313 1.558593zm0 0" fill="#f9c5ac"/><path d="m300.710938 368.539062v54.867188c0 20.089844-13.246094 37.066406-31.488282 42.707031-4.175781 1.296875-8.628906 1.996094-13.230468 1.996094-24.691407 0-44.703126-20.011719-44.703126-44.703125v-54.867188zm0 0" fill="#efb29a"/><path d="m300.710938 419.933594v3.472656c0 20.089844-13.246094 37.066406-31.488282 42.707031-16.460937-5.058593-28.835937-19.371093-31.125-36.882812 2.988282.183593 5.992188.273437 9.007813.273437 8.460937 0 16.75-.671875 24.832031-1.996094 9.949219-1.601562 19.566406-4.160156 28.773438-7.574218zm0 0" fill="#f9c5ac"/><path d="m132.546875 278.152344c0 20.496094-14.976563 37.492187-34.582031 40.648437-2.140625.34375-4.347656.527344-6.59375.527344-22.746094 0-41.175782-18.429687-41.175782-41.175781s18.429688-41.175782 41.175782-41.175782c2.246094 0 4.453125.179688 6.59375.527344 19.609375 3.15625 34.582031 20.152344 34.582031 40.648438zm0 0" fill="#f9c5ac"/><path d="m132.546875 278.152344c0 20.496094-14.976563 37.492187-34.582031 40.648437-3.5625-12.953125-5.460938-26.582031-5.460938-40.648437s1.898438-27.695313 5.460938-40.644532c19.609375 3.152344 34.582031 20.148438 34.582031 40.644532zm0 0" fill="#efb29a"/><path d="m106.085938 278.152344c0 8.128906-6.585938 14.714844-14.714844 14.714844s-14.714844-6.585938-14.714844-14.714844c0-8.125 6.585938-14.714844 14.714844-14.714844s14.714844 6.589844 14.714844 14.714844zm0 0" fill="#efb29a"/><path d="m379.453125 278.152344c0 20.496094 14.976563 37.492187 34.582031 40.648437 2.140625.34375 4.347656.527344 6.59375.527344 22.746094 0 41.175782-18.429687 41.175782-41.175781s-18.429688-41.175782-41.175782-41.175782c-2.246094 0-4.453125.179688-6.59375.527344-19.609375 3.15625-34.582031 20.152344-34.582031 40.648438zm0 0" fill="#f9c5ac"/><path d="m379.453125 278.152344c0 20.496094 14.976563 37.492187 34.582031 40.648437 3.5625-12.953125 5.460938-26.582031 5.460938-40.648437s-1.898438-27.695313-5.460938-40.644532c-19.609375 3.152344-34.582031 20.148438-34.582031 40.644532zm0 0" fill="#efb29a"/><path d="m435.34375 278.152344c0 8.128906-6.585938 14.714844-14.714844 14.714844s-14.714844-6.585938-14.714844-14.714844c0-8.125 6.585938-14.714844 14.714844-14.714844s14.714844 6.589844 14.714844 14.714844zm0 0" fill="#efb29a"/><path d="m410.699219 256.511719c0 76.984375-56.238281 140.847656-129.871094 152.703125-8.078125 1.328125-16.367187 2-24.828125 2-85.445312 0-154.699219-69.257813-154.699219-154.703125v-157.5h309.402344v157.5zm0 0" fill="#f9c5ac"/><g fill="#efb29a"><path d="m360.269531 296.496094c0 10.539062-8.542969 19.082031-19.082031 19.082031s-19.082031-8.542969-19.082031-19.082031c0-10.539063 8.542969-19.082032 19.082031-19.082032s19.082031 8.542969 19.082031 19.082032zm0 0"/><path d="m189.894531 296.496094c0 10.539062-8.542969 19.082031-19.082031 19.082031s-19.082031-8.542969-19.082031-19.082031c0-10.539063 8.542969-19.082032 19.082031-19.082032s19.082031 8.542969 19.082031 19.082032zm0 0"/><path d="m273.382812 297.921875h-34.757812c-4.140625 0-7.496094-3.355469-7.496094-7.496094s3.355469-7.496093 7.496094-7.496093h34.757812c4.140626 0 7.496094 3.355468 7.496094 7.496093s-3.355468 7.496094-7.496094 7.496094zm0 0"/><path d="m283.25 408.808594c-.800781.140625-1.609375.28125-2.421875.410156-8.078125 1.320312-16.367187 1.992188-24.828125 1.992188-85.441406 0-154.699219-69.25-154.699219-154.699219v-157.5h54.546875v157.5c0 76.136719 54.980469 139.410156 127.402344 152.296875zm0 0"/></g><path d="m279.925781 17.550781c-7.792969-1.265625-15.792969-1.914062-23.925781-1.914062s-16.132812.648437-23.925781 1.914062c-73.496094 11.820313-145.707031 54.957031-145.707031 137.777344s15.984374 92.800781 15.984374 92.800781 126.304688-31.757812 153.648438-90.457031c27.34375 58.699219 153.648438 90.457031 153.648438 90.457031s15.984374-9.980468 15.984374-92.800781-72.210937-125.957031-145.707031-137.777344zm0 0" fill="#2f373b"/><path d="m149.847656 155.328125c0 38.472656 3.453125 61.230469 7.152344 74.570313-29.929688 12.023437-54.652344 18.230468-54.652344 18.230468s-15.980468-9.980468-15.980468-92.800781c0-82.816406 72.210937-125.957031 145.710937-137.777344 7.789063-1.261719 15.789063-1.910156 23.921875-1.910156 8.140625 0 16.128906.648437 23.929688 1.910156 2.609374.417969 5.21875.878907 7.820312 1.378907-70.710938 13.550781-137.902344 56.519531-137.902344 136.398437zm0 0" fill="#181e21"/><path d="m243.558594 252.402344c0 29.222656-23.691406 52.914062-52.917969 52.914062-29.222656 0-52.914063-23.691406-52.914063-52.914062 0-29.226563 23.691407-52.917969 52.914063-52.917969 29.226563 0 52.917969 23.691406 52.917969 52.917969zm0 0" fill="#f1eee9"/><path d="m374.285156 252.402344c0 29.222656-23.691406 52.914062-52.917968 52.914062-29.222657 0-52.914063-23.691406-52.914063-52.914062 0-29.226563 23.691406-52.917969 52.914063-52.917969 29.226562 0 52.917968 23.691406 52.917968 52.917969zm0 0" fill="#f1eee9"/><path d="m436.640625 232.015625-6.6875-14.535156-48.851563 22.476562c-5.566406-27.886719-30.230468-48.972656-59.734374-48.972656-30.875 0-56.4375 23.097656-60.371094 52.917969h-9.980469c-3.933594-29.820313-29.496094-52.917969-60.375-52.917969-29.5 0-54.164063 21.085937-59.730469 48.972656l-48.851562-22.476562-6.691406 14.535156 54.601562 25.121094c2.664062 31.144531 28.847656 55.679687 60.671875 55.679687 30.878906 0 56.441406-23.097656 60.375-52.914062h9.980469c3.933594 29.816406 29.496094 52.914062 60.371094 52.914062 31.824218 0 58.011718-24.535156 60.675781-55.679687zm-246 64.800781c-24.765625 0-44.914063-20.148437-44.914063-44.914062s20.148438-44.917969 44.914063-44.917969 44.917969 20.152344 44.917969 44.917969-20.152344 44.914062-44.917969 44.914062zm130.726563 0c-24.765626 0-44.914063-20.148437-44.914063-44.914062s20.148437-44.917969 44.914063-44.917969c24.769531 0 44.917968 20.152344 44.917968 44.917969s-20.148437 44.914062-44.917968 44.914062zm0 0" fill="#f93d6e"/><path d="m343.996094 244.328125c0-17.808594-14.433594-32.242187-32.242188-32.242187-17.804687 0-32.242187 14.433593-32.242187 32.242187" fill="#d7d3cd"/><path d="m333.777344 258.054688c0 12.164062-9.859375 22.023437-22.023438 22.023437-12.160156 0-22.023437-9.859375-22.023437-22.023437 0-12.164063 9.863281-22.023438 22.023437-22.023438 12.164063 0 22.023438 9.859375 22.023438 22.023438zm0 0" fill="#2f373b"/><path d="m330.371094 254.167969c0 5.210937-4.226563 9.4375-9.4375 9.4375-5.210938 0-9.4375-4.226563-9.4375-9.4375 0-5.210938 4.226562-9.4375 9.4375-9.4375 5.210937 0 9.4375 4.226562 9.4375 9.4375zm0 0" fill="#fff"/><path d="m232.488281 244.328125c0-17.808594-14.4375-32.242187-32.246093-32.242187-17.804688 0-32.242188 14.433593-32.242188 32.242187" fill="#d7d3cd"/><path d="m222.269531 258.054688c0 12.164062-9.863281 22.023437-22.023437 22.023437-12.164063 0-22.023438-9.859375-22.023438-22.023437 0-12.164063 9.859375-22.023438 22.023438-22.023438 12.160156 0 22.023437 9.859375 22.023437 22.023438zm0 0" fill="#2f373b"/><path d="m205.210938 279.511719c-1.597657.378906-3.257813.566406-4.96875.566406-12.160157 0-22.019532-9.859375-22.019532-22.027344 0-12.160156 9.859375-22.019531 22.019532-22.019531 1.710937 0 3.371093.199219 4.96875.570312-9.777344 2.25-17.058594 11-17.058594 21.449219 0 10.460938 7.28125 19.210938 17.058594 21.460938zm0 0" fill="#181e21"/><path d="m316.722656 279.511719c-1.601562.378906-3.261718.566406-4.96875.566406-12.160156 0-22.023437-9.859375-22.023437-22.027344 0-12.160156 9.863281-22.019531 22.023437-22.019531 1.707032 0 3.367188.199219 4.96875.570312-9.78125 2.25-17.0625 11-17.0625 21.449219 0 10.460938 7.28125 19.210938 17.0625 21.460938zm0 0" fill="#181e21"/><path d="m218.859375 254.167969c0 5.210937-4.222656 9.4375-9.4375 9.4375-5.210937 0-9.4375-4.226563-9.4375-9.4375 0-5.210938 4.226563-9.4375 9.4375-9.4375 5.214844 0 9.4375 4.226562 9.4375 9.4375zm0 0" fill="#fff"/><path d="m306.785156 319.691406v.066406c0 3.675782-.480468 7.25-1.390625 10.648438-.734375 2.746094-1.734375 5.378906-2.984375 7.859375-.035156.058594-.058594.125-.09375.183594-3.160156 6.214843-7.855468 11.511719-13.578125 15.394531-3.617187 2.46875-7.648437 4.378906-11.980469 5.582031-3.550781 1.011719-7.308593 1.539063-11.179687 1.539063h-19.054687c-3.882813 0-7.628907-.539063-11.191407-1.539063-4.328125-1.214843-8.363281-3.125-11.980469-5.582031-5.722656-3.894531-10.410156-9.191406-13.578124-15.394531-.035157-.054688-.058594-.125-.09375-.183594-1.25-2.480469-2.25-5.113281-2.984376-7.859375-.910156-3.398438-1.390624-6.972656-1.390624-10.648438v-.066406zm0 0" fill="#f1eee9"/><path d="m231.164062 345.402344h-4.878906c-2.304687 0-4.171875-1.867188-4.171875-4.171875v-13.609375c0-2.304688 1.867188-4.175782 4.171875-4.175782h4.878906c2.304688 0 4.171876 1.871094 4.171876 4.175782v13.609375c0 2.304687-1.867188 4.171875-4.171876 4.171875zm0 0" fill="#ffbb16"/><path d="m258.484375 345.402344h-4.878906c-2.304688 0-4.171875-1.867188-4.171875-4.171875v-13.609375c0-2.304688 1.867187-4.175782 4.171875-4.175782h4.878906c2.304687 0 4.171875 1.871094 4.171875 4.175782v13.609375c0 2.304687-1.867188 4.171875-4.171875 4.171875zm0 0" fill="#ffbb16"/><path d="m285.804688 345.402344h-4.878907c-2.304687 0-4.171875-1.867188-4.171875-4.171875v-13.609375c0-2.304688 1.867188-4.175782 4.171875-4.175782h4.878907c2.304687 0 4.171874 1.871094 4.171874 4.175782v13.609375c0 2.304687-1.867187 4.171875-4.171874 4.171875zm0 0" fill="#ffbb16"/><path d="m305.394531 330.40625c-.734375 2.746094-1.734375 5.378906-2.984375 7.859375-.035156.058594-.058594.125-.09375.183594h-92.542968c-.035157-.054688-.058594-.125-.09375-.183594-1.25-2.480469-2.25-5.113281-2.988282-7.859375zm0 0" fill="#ff931f"/></svg>