<svg id="Capa_1" enable-background="new 0 0 512 512" height="512" viewBox="0 0 512 512" width="512" xmlns="http://www.w3.org/2000/svg"><g><path d="m31.867 385.797c0-27.472 17.603-51.853 43.68-60.497l101.83-33.756-81.775 220.456h-63.735z" fill="#574d8c"/><path d="m145.37 321.392 32.008-29.848-16.98 220.456h-64.796v-76.151c0-43.403 18.025-84.856 49.768-114.457z" fill="#332866"/><path d="m480.133 385.797c0-27.472-17.603-51.853-43.68-60.497l-101.83-33.756 81.775 220.456h63.734v-126.203z" fill="#332866"/><path d="m366.63 321.392-32.008-29.848 16.98 220.456h64.797v-76.151c-.001-43.403-18.026-84.856-49.769-114.457z" fill="#180a33"/><path d="m334.622 291.544h-78.622l-10 37.128 105.602 80.29v-49.442c0-23.708-5.832-47.053-16.98-67.976z" fill="#ffb655"/><path d="m177.378 291.544h78.622v37.128l-95.602 80.29v-49.442c0-23.708 5.832-47.053 16.98-67.976z" fill="#ffda44"/><path d="m256 512h95.602v-103.037l-95.602-90.291-10 90.291z" fill="#ffda44"/><path d="m256 512h-95.602v-103.037l95.602-90.291z" fill="#fff79f"/><path d="m138.531 191.204h-31.867c-17.6 0-31.868-14.268-31.868-31.868 0-17.6 14.268-31.868 31.868-31.868h31.867z" fill="#895140"/><path d="m373.469 191.204h31.867c17.6 0 31.868-14.268 31.868-31.868 0-17.6-14.268-31.868-31.868-31.868h-31.867z" fill="#5b362a"/><path d="m256 0-10 104.543s73.734 54.793 137.469 22.926c0 0 15.934-31.867 15.934-127.469h-143.403z" fill="#180a33"/><path d="m112.597 0c0 95.601 15.934 127.469 15.934 127.469l127.469-22.926v-104.543z" fill="#332866"/><path d="m311.768 71.982c-17.77 12.345-37.208 19.128-55.768 22.561l-10 64.793 10 159.336c70.399 0 127.469-57.07 127.469-127.469v-63.735c-31.867.001-71.701-55.486-71.701-55.486z" fill="#895140"/><path d="m172.784 91.95-44.253 35.519v63.735c0 70.399 57.07 127.469 127.469 127.469v-224.13c-44.088 8.155-83.216-2.593-83.216-2.593z" fill="#b56d3c"/><path d="m184.299 144.336h31.867v30h-31.867z" fill="#332866"/><path d="m295.834 144.336h31.867v30h-31.867z" fill="#180a33"/><path d="m287.867 254.004h31.867v-30h-31.867c-9.301 0-16.867-7.566-16.867-16.867h-15l-10 16.933 10 17.391c8.369 7.775 19.569 12.543 31.867 12.543z" fill="#180a33"/><path d="m224.133 224.004h-31.867v30h31.867c12.298 0 23.498-4.768 31.867-12.543v-34.324h-15c0 9.301-7.566 16.867-16.867 16.867z" fill="#332866"/></g></svg>