<svg id="Capa_1" enable-background="new 0 0 512 512" height="512" viewBox="0 0 512 512" width="512" xmlns="http://www.w3.org/2000/svg"><g><path d="m0 256c0-141.385 114.615-256 256-256s256 114.615 256 256c0 80.844-37.474 152.936-96 199.852-1.698 1.361-101.805-48.11-160-48.11s-158.302 49.471-160 48.11c-58.526-46.916-96-119.008-96-199.852z" fill="#60c8dd"/><path d="m455.426 256c0 110.14-89.286 199.426-199.426 199.426s-199.426-89.286-199.426-199.426 89.286-199.426 199.426-199.426 199.426 89.286 199.426 199.426z" fill="#7cd2e3"/><path d="m407.5 150v5.213l-1.989 5.404v12.766l1.989 3.045v16.597l-2.33 2.827v12.511l2.33 5.878v7.271l-2.5 6.43v13.134l2.5 1.651v16.597l-2.351 2.551v13.213l2.351 5.451v7.27l-3.777 6.173v10.383l3.777 4.659v16.598l-3.011 2.309v11.234l3.011 7.672v8.428c0 13.111-10.628 23.739-23.739 23.739h-255.351c-13.205 0-23.91-10.705-23.91-23.91v-8.257l1.734-4.025v-14.872l-1.734-2.318v-16.602l2.245-3.425v-13.277l-2.245-4.513v-7.27l1.67-5.515v-12.511l-1.67-3.189v-16.597l2.5-2.689v-11.553l-2.5-6.972v-7.271l1.521-4.941v-14.17l-1.521-2.103v-16.597l1.67-1.938v-14.681l-1.67-4.596v-5.212c0-.692.005-1.383.016-2.073.022-1.408 1.715-3.828 1.782-5.225.281-5.914.958-11.724 2.003-17.405.133-.721-1.378-.421-1.233-1.138.63-3.122 1.371-6.203 2.22-9.24.337-1.204 1.98-.987 2.35-2.176 1.04-3.341 2.21-6.625 3.506-9.844.307-.762-.67-2.933-.349-3.688 4.043-9.518 9.189-18.454 15.276-26.65 27.017 23.027 62.052 36.926 100.333 36.926h51.19c38.281 0 73.315-13.899 100.333-36.926 6.087 8.195 11.233 17.132 15.276 26.65.384.905-1.42 2.567-1.055 3.482 1.335 3.352 2.534 6.773 3.59 10.256.274.903 2.717 1.058 2.972 1.97.849 3.037 1.591 6.118 2.22 9.24.172.854-1.704 2.208-1.549 3.067.956 5.292 1.592 10.695 1.887 16.189.089 1.661 2.187 2.833 2.213 4.511.014.691.019 1.382.019 2.074z" fill="#fa9084"/><path d="m407.5 155.213-18.906 18.906-22.541-22.541 22.541-22.541 18.889 18.89c-.127-8.125-1-16.069-2.552-23.767l-5.73-5.73 3.51-3.51c-1.506-5.386-3.349-10.63-5.507-15.708l-8.611 8.611-22.541-22.541.987-.987c-12.283 8.149-25.797 14.591-40.203 18.988l-4.54 4.54-2.559-2.559c-5.81 1.473-11.752 2.617-17.803 3.412l9.754 9.754-22.541 22.541-22.541-22.541 8.429-8.429h-38.073l8.429 8.429-22.541 22.541-22.541-22.541 9.754-9.754c-6.052-.794-11.993-1.938-17.803-3.412l-2.558 2.559-4.54-4.54c-14.406-4.397-27.92-10.839-40.203-18.988l.987.987-22.541 22.541-8.611-8.611c-2.158 5.079-4.001 10.323-5.507 15.708l3.51 3.51-5.73 5.73c-1.552 7.698-2.425 15.642-2.552 23.767l18.889-18.89 22.541 22.541-22.541 22.541-18.904-18.906v21.215l8.299 8.298-8.299 8.298v21.215l18.906-18.906 22.541 22.541-22.541 22.541-18.906-18.905v21.215l8.299 8.298-8.299 8.298v21.215l18.906-18.906 22.541 22.541-22.541 22.541-18.906-18.906v21.215l8.299 8.299-8.299 8.299v21.215l18.906-18.906 22.541 22.541-22.541 22.541-18.906-18.907v21.214l3.683 3.683h30.447l17.925-17.925 17.924 17.925h30.447l17.925-17.925 17.925 17.925h30.447l17.925-17.925 17.925 17.925h30.447l17.925-17.925 17.925 17.925h30.447l3.683-3.683v-21.214l-18.906 18.906-22.541-22.541 22.541-22.541 18.906 18.906v-21.215l-8.299-8.299 8.299-8.299v-21.215l-18.906 18.906-22.541-22.541 22.541-22.541 18.906 18.906v-21.215l-8.299-8.298 8.299-8.298v-21.214l-18.906 18.906-22.541-22.541 22.541-22.541 18.906 18.906v-21.215l-8.299-8.298 8.299-8.298zm-52.055-59.324 22.541 22.541-22.541 22.541-22.541-22.541zm-33.148 33.148 22.541 22.541-22.541 22.541-22.541-22.541zm-110.053 155.134-22.541 22.541-22.541-22.541 22.541-22.541zm-45.082-66.296 22.541-22.541 22.541 22.541-22.541 22.541zm33.149 33.148 22.541-22.541 22.541 22.541-22.541 22.541zm33.148-33.148 22.541-22.542 22.541 22.541-22.541 22.542zm22.541 43.755 22.541 22.541-22.541 22.541-22.541-22.541zm10.607-10.607 22.541-22.541 22.541 22.541-22.541 22.541zm55.69 10.607 22.541 22.541-22.541 22.541-22.541-22.541zm-22.541-43.755 22.541-22.541 22.541 22.541-22.541 22.541zm11.933-33.149-22.541 22.541-22.541-22.541 22.541-22.541zm-55.689-55.689 22.541 22.541-22.541 22.541-22.541-22.541zm-10.607 55.689-22.541 22.541-22.541-22.541 22.541-22.541zm-33.149-33.148-22.541 22.541-22.541-22.541 22.541-22.541zm-78.23-33.148 22.541-22.541 22.541 22.541-22.541 22.541zm-.001 66.296 22.541-22.541 22.541 22.541-22.541 22.541zm0 66.297 22.541-22.541 22.541 22.541-22.541 22.541zm.001 66.296 22.541-22.541 22.541 22.541-22.541 22.541zm55.689 55.69-22.541-22.541 22.541-22.541 22.541 22.541zm10.608-55.689 22.541-22.541 22.541 22.541-22.541 22.541zm55.689 55.689-22.541-22.541 22.541-22.541 22.541 22.541zm10.607-55.689 22.541-22.541 22.541 22.541-22.541 22.541zm55.69 55.689-22.541-22.541 22.541-22.541 22.541 22.541zm55.689-55.69-22.541 22.541-22.541-22.541 22.541-22.541zm.001-66.296-22.541 22.541-22.541-22.541 22.541-22.541zm-22.541-43.756-22.541-22.541 22.541-22.541 22.541 22.541z" fill="#f87b67"/><path d="m174.362 332.765c-20.939 12.1-35.028 34.73-35.028 60.651v86.282c0 1.388-.321 2.663-.881 3.779-15.089-7.813-29.302-17.083-42.452-27.625v-62.436c0-38.66 31.34-70 70-70h5.322z" fill="#2e5aac"/><path d="m416 393.416v62.436c-18.23 14.614-38.503 26.785-60.322 36.017-3.573 1.512-2.268-5.536-5.921-4.184-27.675 10.241-62.522 16.677-93.757 16.677-32.43 0-58.532-6.872-87.085-17.872-2.579-.993-10.056 6.453-12.593 5.379-10.482-4.435-20.608-9.549-30.321-15.286v-83.167c0-32.73 22.463-60.213 52.813-67.875 5.499-1.388 10.746 4.437 16.676 4.437h132.745l12.444-6.563h5.321c38.66.001 70 31.341 70 70.001z" fill="#4172cc"/><path d="m171.322 426.199v71.464c-5.075-1.778-10.077-3.711-15-5.794v-65.669c0-4.143 3.358-7.5 7.5-7.5s7.5 3.357 7.5 7.499zm176.856-7.5c-4.142 0-7.5 3.357-7.5 7.5v71.464c5.075-1.778 10.077-3.711 15-5.794v-65.669c0-4.143-3.357-7.501-7.5-7.501z" fill="#2e5aac"/><path d="m340.678 323.416v174.247c-12.526 4.389-25.496 7.832-38.826 10.242-3.3.597-6.336-1.955-6.336-5.309v-179.18zm-169.356 174.247c12.631 4.425 25.714 7.889 39.162 10.302 3.126.561 6-1.853 6-5.028v-179.521h-45.162z" fill="#ffc14f"/><path d="m189.339 352.214-8.485-8.485c-.781-.781-.781-2.047 0-2.828l8.485-8.485c.781-.781 2.047-.781 2.828 0l8.485 8.485c.781.781.781 2.047 0 2.828l-8.485 8.485c-.781.781-2.047.781-2.828 0zm2.828 34.939 8.485-8.485c.781-.781.781-2.047 0-2.828l-8.485-8.485c-.781-.781-2.047-.781-2.828 0l-8.485 8.485c-.781.781-.781 2.047 0 2.828l8.485 8.485c.781.782 2.047.782 2.828 0zm0 34.94 8.485-8.485c.781-.781.781-2.047 0-2.828l-8.485-8.485c-.781-.781-2.047-.781-2.828 0l-8.485 8.485c-.781.781-.781 2.047 0 2.828l8.485 8.485c.781.781 2.047.781 2.828 0zm0 34.939 8.485-8.485c.781-.781.781-2.047 0-2.828l-8.485-8.485c-.781-.781-2.047-.781-2.828 0l-8.485 8.485c-.781.781-.781 2.047 0 2.828l8.485 8.485c.781.781 2.047.781 2.828 0zm0 34.939 8.485-8.485c.781-.781.781-2.047 0-2.828l-8.485-8.485c-.781-.781-2.047-.781-2.828 0l-8.485 8.485c-.781.781-.781 2.047 0 2.828l8.485 8.485c.781.781 2.047.781 2.828 0zm127.666-139.757-8.485-8.485c-.781-.781-.781-2.047 0-2.828l8.485-8.485c.781-.781 2.047-.781 2.828 0l8.485 8.485c.781.781.781 2.047 0 2.828l-8.485 8.485c-.781.781-2.047.781-2.828 0zm2.828 34.939 8.485-8.485c.781-.781.781-2.047 0-2.828l-8.485-8.485c-.781-.781-2.047-.781-2.828 0l-8.485 8.485c-.781.781-.781 2.047 0 2.828l8.485 8.485c.781.782 2.047.782 2.828 0zm0 34.94 8.485-8.485c.781-.781.781-2.047 0-2.828l-8.485-8.485c-.781-.781-2.047-.781-2.828 0l-8.485 8.485c-.781.781-.781 2.047 0 2.828l8.485 8.485c.781.781 2.047.781 2.828 0zm0 34.939 8.485-8.485c.781-.781.781-2.047 0-2.828l-8.485-8.485c-.781-.781-2.047-.781-2.828 0l-8.485 8.485c-.781.781-.781 2.047 0 2.828l8.485 8.485c.781.781 2.047.781 2.828 0zm0 34.939 8.485-8.485c.781-.781.781-2.047 0-2.828l-8.485-8.485c-.781-.781-2.047-.781-2.828 0l-8.485 8.485c-.781.781-.781 2.047 0 2.828l8.485 8.485c.781.781 2.047.781 2.828 0z" fill="#fff68e"/><path d="m146 223.416c-13.807 0-25-11.193-25-25v-10c0-13.807 11.193-25 25-25 13.807 0 25 11.193 25 25v10c0 13.807-11.193 25-25 25z" fill="#f2d1a5"/><path d="m136 183.416v20c0 8.178 3.927 15.439 9.998 20-13.806-.001-24.998-11.193-24.998-25v-10c0-13.806 11.192-24.999 24.998-25-6.071 4.561-9.998 11.822-9.998 20zm230-20v-20c0-60.751-49.249-110-110-110-60.751 0-110 49.249-110 110v40c0 50.351 33.83 92.801 80 105.859v64.141h60v-64.141c33.586-9.5 60.641-34.551 72.895-66.883 2.252.666 4.637 1.024 7.105 1.024 13.807 0 25-11.193 25-25v-10c0-13.807-11.193-25-25-25z" fill="#f2bb88"/><path d="m366 143.416v40c0 50.792-34.425 93.543-81.216 106.195-9.023 2.44-18.545 2.44-27.568 0-46.791-12.652-81.216-55.403-81.216-106.195v-40c0-55.663 41.345-101.669 95-108.985 53.655 7.316 95 53.322 95 108.985z" fill="#f2d1a5"/><path d="m223.5 150.916c0 8.284-6.716 15-15 15s-15-6.716-15-15 6.716-15 15-15 15 6.716 15 15zm80-15c-8.284 0-15 6.716-15 15s6.716 15 15 15 15-6.716 15-15-6.716-15-15-15z" fill="#61362b"/><path d="m226 143.416c0 4.142-3.358 7.5-7.5 7.5s-7.5-3.358-7.5-7.5 3.358-7.5 7.5-7.5 7.5 3.358 7.5 7.5zm87.5-7.5c-4.142 0-7.5 3.358-7.5 7.5s3.358 7.5 7.5 7.5 7.5-3.358 7.5-7.5-3.358-7.5-7.5-7.5z" fill="#fff5f5"/><path d="m302 190h-92c-11.046 0-20 8.954-20 20v40c0 27.614 22.386 50 50 50h32c27.614 0 50-22.386 50-50v-40c0-11.046-8.954-20-20-20zm-92 60v-15c0-8.284 6.716-15 15-15h15v41.858c0 11.403-13.955 17.042-21.793 8.76-5.087-5.376-8.207-12.633-8.207-20.618zm92 0c0 7.985-3.12 15.242-8.207 20.618-7.838 8.282-21.793 2.643-21.793-8.76v-41.858h15c8.284 0 15 6.716 15 15z" fill="#7c3f2c"/><path d="m260 300h-20c-27.614 0-50-22.386-50-50v-40c0-11.046 8.954-20 20-20h20c-11.046 0-20 8.954-20 20v40c0 .128.001.255.002.383.206 27.438 22.511 49.617 49.998 49.617z" fill="#61362b"/><path d="m241.5 190.148c-2.929-2.93-2.929-7.678 0-10.607 2.929-2.928 7.678-2.928 10.606 0 1.042 1.042 2.424 1.616 3.893 1.616s2.851-.574 3.893-1.616c2.929-2.928 7.678-2.928 10.606 0 2.929 2.93 2.929 7.678 0 10.607-3.875 3.875-9.024 6.009-14.5 6.009s-10.623-2.134-14.498-6.009z" fill="#e3a76f"/><path d="m256 253.416c-16.569 0-30-13.431-30-30 0-4.142 3.358-7.5 7.5-7.5h45c4.142 0 7.5 3.358 7.5 7.5 0 16.569-13.431 30-30 30z" fill="#fff5f5"/><path d="m263.5 252.471c-2.397.617-4.91.945-7.5.945-16.568 0-30-13.431-30-30 0-4.142 3.358-7.5 7.5-7.5h15c-4.142 0-7.5 3.358-7.5 7.5 0 13.979 9.561 25.725 22.5 29.055z" fill="#def4f8"/><path d="m386.456 79.061c-12.234 11.277-26.291 20.606-41.679 27.497-.963.431-2.74-.714-3.713-.302-8.592 3.637-17.123 6.06-26.426 8.106-1.471.323-2.598 2.652-4.084 2.933-9.381 1.776-19.062 2.705-28.96 2.705h-13.417l-3.561-1.809-16.468-.17-4.326 1.979h-13.417c-9.898 0-19.578-.929-28.96-2.705-1.479-.28-2.471-2.739-3.935-3.061-9.089-1.998-17.878-4.794-26.291-8.312-1.18-.493-2.832 1.157-3.997.636-15.387-6.89-29.444-16.22-41.679-27.497 10.476-16.058 24.406-29.657 40.736-39.743.699-.432 2.405 1.102 3.113.683 3.121-1.847 6.325-3.567 9.607-5.153.691-.334.383-2.621 1.082-2.943 9.016-4.162 18.59-7.321 28.578-9.336 1.377-.278 2.685.714 4.078.48 6.588-1.106 13.344-1.717 20.228-1.793.479-.005 1.035-1.255 1.516-1.255h43.038c1.08 0 1.769 2.229 2.843 2.255 6.401.157 12.687.777 18.827 1.827 1.261.216 2.903-1.766 4.152-1.514 9.989 2.014 19.562 5.174 28.579 9.336.833.385.646 1.875 1.47 2.277 3.198 1.559 6.322 3.246 9.367 5.054.653.388 2.319-.316 2.965.083 16.327 10.085 30.257 23.684 40.734 39.742z" fill="#f87b67"/><path d="m380.569 70.765c-3.063-3.979-6.351-7.774-9.845-11.369l-15.278 15.278-22.541-22.541 12.815-12.815c-4.431-2.737-9.038-5.215-13.801-7.414l-9.622 9.622-18.957-18.958c-8.343-1.683-16.976-2.566-25.815-2.568l-21.525 21.525-21.525-21.525c-8.839.002-17.471.886-25.815 2.568l-18.957 18.957-9.622-9.622c-4.763 2.199-9.37 4.677-13.801 7.414l12.815 12.815-22.541 22.541-15.278-15.278c-3.494 3.595-6.782 7.391-9.845 11.369l14.516 14.517-5.734 5.734c4.148 2.979 8.449 5.76 12.89 8.325l3.452-3.452 10.668 10.668c10.808 4.84 22.272 8.476 34.222 10.738l21.406-21.406 22.541 22.541-1.57 1.571h24.356l-1.571-1.571 22.541-22.541 21.406 21.406c11.95-2.262 23.414-5.898 34.222-10.738l10.668-10.668 3.452 3.452c4.441-2.565 8.742-5.345 12.89-8.325l-5.734-5.734zm-190.866 37.057-22.541-22.541 22.541-22.541 22.541 22.541zm10.608-55.689 22.541-22.541 22.541 22.541-22.541 22.541zm55.689 55.689-22.541-22.541 22.541-22.541 22.541 22.541zm10.607-55.689 22.541-22.541 22.541 22.541-22.541 22.541zm55.69 55.689-22.541-22.541 22.541-22.541 22.541 22.541z" fill="#fa9084"/><path d="m372 70h-212c-5.523 0-10-4.477-10-10v-10c0-5.523 4.477-10 10-10h212c5.523 0 10 4.477 10 10v10c0 5.523-4.477 10-10 10z" fill="#2e5aac"/><path d="m170 70h-30c-5.523 0-10-4.477-10-10v-10c0-5.523 4.477-10 10-10h30c-5.523 0-10 4.477-10 10v10c0 5.523 4.477 10 10 10z" fill="#274c91"/><path d="m396 70c0 5.523-4.477 10-10 10h-260c-5.523 0-10-4.477-10-10s4.477-10 10-10h260c5.523 0 10 4.477 10 10z" fill="#4172cc"/><path d="m159.148 80h-33.148c-5.523 0-10-4.477-10-10s4.477-10 10-10h33.148c-5.523 0-10 4.477-10 10s4.478 10 10 10z" fill="#2e5aac"/><path d="m302 320v187.878c-14.923 2.708-30.296 4.122-46 4.122s-31.077-1.414-46-4.122v-187.878c0-5.523 4.477-10 10-10h72c5.523 0 10 4.477 10 10z" fill="#ffe7c0"/><path d="m266 310v110c0 5.523-4.477 10-10 10-5.523 0-10-4.477-10-10v-110z" fill="#ffd993"/></g></svg>