<svg id="Capa_1" enable-background="new 0 0 512 512" height="512" viewBox="0 0 512 512" width="512" xmlns="http://www.w3.org/2000/svg"><g><g><path d="m456.969 407.139c27.744-39.712 44.031-88.02 44.031-140.139 0-135.31-109.69-245-245-245s-245 109.69-245 245c0 52.119 16.287 100.427 44.031 140.139z" fill="#73c3f9"/></g><g><circle cx="256" cy="242" fill="#4fabf7" r="200"/></g><g><path d="m178.52 46.073s.921-27.711 14.708-34.073 28.523-12 62.772-12 48.985 5.638 62.772 12 14.708 34.073 14.708 34.073c58.286 55.225 79.498 154.763 63.914 208.654s-65.756 87.396-141.394 87.396-125.809-33.506-141.393-87.397 5.627-153.428 63.913-208.653z" fill="#b76c4e"/></g><g><path d="m208.916 134.364c-15.184-11.088-34.384-54.173-30.396-88.292-58.286 55.225-79.498 154.763-63.914 208.654s65.756 87.397 141.394 87.397v-152.408z" fill="#a05838"/></g><g><path d="m456.949 407.139c-8.256-22.709-16.99-42.685-24.722-51.911-.904-1.078-1.794-2.019-2.668-2.79-6.623-5.848-19.39-11.382-34.352-16.323-37.928-12.525-89.968-21.232-91.82-21.54h-94.772c-1.853.307-53.892 9.014-91.82 21.54-14.961 4.941-27.729 10.475-34.352 16.323-.874.772-1.765 1.712-2.668 2.79-7.732 9.226-16.467 29.203-24.722 51.911-.001.009-.001.018-.002.026 13.309 19.046 29.259 36.108 47.313 50.665h307.276c18.054-14.557 34.004-31.62 47.313-50.665-.003-.008-.003-.017-.004-.026z" fill="#f3d6ac"/></g><g><path d="m153.475 325.883c-12.328 2.972-25.156 6.425-36.681 10.231-14.961 4.941-27.729 10.475-34.352 16.323-.874.772-1.765 1.712-2.668 2.79-7.732 9.226-16.467 29.203-24.722 51.911-.001.009-.001.018-.002.026 13.309 19.046 29.259 36.108 47.313 50.665h65.324c-19.958-53.677-17.514-105.522-14.212-131.946z" fill="#eabe8d"/></g><g><path d="m391.147 471.33c6.374-4.223 12.555-8.713 18.491-13.499-4.027-11.7-11.689-21.884-21.736-29.06v42.559z" fill="#eabe8d"/></g><g><path d="m124.098 471.33v-42.559c-10.047 7.176-17.708 17.36-21.736 29.06 5.936 4.786 12.117 9.277 18.491 13.499z" fill="#d8a97c"/></g><g><path d="m276.616 369.362s10.767-11.809 23.703-11.809 55.191 11.809 55.191 11.809z" fill="#eabe8d"/></g><g><path d="m235.384 369.362s-10.767-11.809-23.703-11.809-55.191 11.809-55.191 11.809z" fill="#eabe8d"/></g><g><path d="m256 512c54.064 0 111.383-74.334 111.383-74.334v-.001c-73.754 14.023-149.012 14.023-222.766.001 0 0 57.319 74.334 111.383 74.334z" fill="#3c5082"/></g><g><path d="m123.525 430.01c-5.083 11.116-6.792 23.941-3.878 37.022.604 2.713 1.146 4.246 1.165 4.298v.009c38.749 25.687 85.216 40.661 135.188 40.661-51.383-30.489-87.491-99.723-87.491-189.575-10.183 2.238-21.328 4.887-32.223 7.863-.113 37.786-6.718 74.222-12.761 99.722z" fill="#e9efff"/></g><g><path d="m388.475 430.01c5.083 11.116 6.792 23.941 3.878 37.022-.604 2.713-1.146 4.246-1.165 4.298v.009c-38.749 25.687-85.216 40.661-135.188 40.661 51.383-30.489 87.491-99.723 87.491-189.575 10.183 2.238 21.328 4.887 32.223 7.863.113 37.786 6.718 74.222 12.761 99.722z" fill="#e9efff"/></g><g><path d="m208.614 221.239v93.336s19.021 20.093 47.17 20.093c.073 0 .143-.005.216-.005 28.031-.103 47.386-20.088 47.386-20.088v-93.336z" fill="#f3d6ac"/></g><g><path d="m208.614 220.734v93.841c94.723 0 94.772-53.4 94.772-53.4v-40.44h-94.772z" fill="#eabe8d"/></g><g><path d="m180.942 159.567s-10.385-25.285-28.897-19.415.448 60.664 36.573 64.116z" fill="#eabe8d"/></g><g><path d="m331.058 159.567s10.385-25.285 28.897-19.415-.448 60.664-36.573 64.116z" fill="#f3d6ac"/></g><g><path d="m255.784 82.484s-19.69 60.442-87.333 60.562c-.029 1.23-.049 2.464-.049 3.708 0 64.505 39.219 140.155 87.597 140.155s87.597-75.651 87.597-140.155c0-1.244-.02-2.478-.049-3.708-67.642-.12-87.763-60.562-87.763-60.562z" fill="#f8e6cc"/></g><g><path d="m208.403 146.754c0-4.214.187-8.339.513-12.39-11.036 5.219-24.395 8.653-40.465 8.682-.029 1.23-.049 2.464-.049 3.708 0 64.505 39.219 140.155 87.597 140.155 6.881 0 13.576-1.535 20-4.346-38.74-16.952-67.596-80.479-67.596-135.809z" fill="#f3d6ac"/></g><g><g><path d="m242.013 192.951 8.436-13.441c2.569-4.093 8.533-4.093 11.102 0l8.436 13.441c2.739 4.365-.398 10.038-5.551 10.038h-16.871c-5.154 0-8.291-5.673-5.552-10.038z" fill="#eabe8d"/></g></g><g><g><path d="m235.384 241.375h41.233c4.111-3.622 7.258-8.309 9.01-13.631 1.584-4.811-2.069-9.754-7.134-9.754h-44.985c-5.065 0-8.718 4.943-7.134 9.754 1.752 5.321 4.899 10.009 9.01 13.631z" fill="#162544"/></g><g><path d="m276.616 241.375c-5.493 4.849-12.714 7.798-20.616 7.798s-15.124-2.948-20.616-7.798c5.5-4.849 12.714-7.798 20.616-7.798s15.116 2.948 20.616 7.798z" fill="#ff4155"/></g></g><g><path d="m201.001 162.085c-.043-3.495 1.371-7.004 4.242-9.539 4.675-4.128 11.84-4.128 16.515 0 2.871 2.535 4.284 6.044 4.242 9.539-.055 4.538-5.629 6.716-8.838 3.507-2.022-2.022-5.3-2.022-7.322 0-3.21 3.21-8.784 1.032-8.839-3.507z" fill="#162544"/></g><g><path d="m223.5 138.968h-20c-4.142 0-7.5-3.358-7.5-7.5 0-4.142 3.358-7.5 7.5-7.5h20c4.142 0 7.5 3.358 7.5 7.5 0 4.142-3.358 7.5-7.5 7.5z" fill="#934a2e"/></g><g><path d="m308.5 138.968h-20c-4.142 0-7.5-3.358-7.5-7.5 0-4.142 3.358-7.5 7.5-7.5h20c4.142 0 7.5 3.358 7.5 7.5 0 4.142-3.358 7.5-7.5 7.5z" fill="#934a2e"/></g><g><path d="m311.239 162.03c.043-3.495-1.371-7.004-4.242-9.539-4.675-4.128-11.84-4.128-16.515 0-2.871 2.535-4.284 6.044-4.242 9.539.055 4.538 5.629 6.716 8.838 3.507 2.022-2.022 5.3-2.022 7.322 0 3.21 3.209 8.784 1.031 8.839-3.507z" fill="#162544"/></g></g></svg>