<svg id="Capa_1" enable-background="new 0 0 512 512" height="512" viewBox="0 0 512 512" width="512" xmlns="http://www.w3.org/2000/svg"><g><path d="m431.246 231.001v-55.756c0-12.289-1.271-24.281-3.677-35.856l-181.568-10 10 212.824h135.34c24.922-30.276 39.905-69.027 39.905-111.212z" fill="#cfcfe6"/><path d="m84.432 139.389c-2.407 11.575-3.677 23.567-3.677 35.856v55.756c0 42.185 14.983 80.936 39.906 111.212h135.34v-212.824z" fill="#ece6f2"/><path d="m480.133 417.664c0-27.472-17.603-51.853-43.68-60.497l-96.071-31.847 13.169 93.34 33.168 93.34h93.414z" fill="#332866"/><path d="m323.541 319.738h-25.456l57.723 192.262h30.911l-46.337-186.679z" fill="#180a33"/><path d="m331.104 412.472-53.237-40.275 10 139.803h67.941z" fill="#cfcfe6"/><path d="m31.867 417.664c0-27.472 17.603-51.853 43.68-60.497l96.071-31.847-13.169 93.34-33.168 93.34h-93.414z" fill="#574d8c"/><path d="m188.459 319.738h25.456l-57.723 192.262h-30.911l46.337-186.679z" fill="#332866"/><path d="m180.896 412.472 53.237-40.275-10 139.803h-67.941z" fill="#ece6f2"/><path d="m246 332.513 10 179.487h31.867v-139.803z" fill="#198080"/><path d="m331.104 412.472-23.018-92.734h-62.086l10 22.775c8.099 45.604 51.075 63.461 75.104 69.959z" fill="#ece6f2"/><path d="m256 332.513v179.487h-31.867v-139.803z" fill="#24b3b3"/><path d="m180.896 412.472 23.018-92.734h62.086l-10 22.775c-8.099 45.604-51.075 63.461-75.104 69.959z" fill="#fff5f5"/><path d="m246 129.389 10 213.123c61.586 0 111.511-49.925 111.511-111.511v-55.756c0-12.544-2.071-24.604-5.89-35.857z" fill="#c78f2c"/><path d="m150.379 139.389c-3.819 11.253-5.89 23.313-5.89 35.857v55.756c0 61.586 49.925 111.511 111.511 111.511v-213.124z" fill="#e1bb78"/><path d="m192.29 188.123h31.867v30h-31.867z" fill="#332866"/><path d="m287.843 188.123h31.867v30h-31.867z" fill="#180a33"/><path d="m246 97.522 10 41.867h171.568c-2.296-11.042-5.644-21.695-9.912-31.867z" fill="#c50048"/><path d="m94.344 107.522c-4.268 10.172-7.616 20.825-9.912 31.867h171.568v-41.867z" fill="#e50058"/><path d="m417.656 107.522c-4.728-11.267-10.587-21.941-17.455-31.867l-154.201-10 10 41.867z" fill="#e50058"/><path d="m256 65.655-144.201 10c-6.869 9.926-12.728 20.601-17.455 31.867h161.656z" fill="#ff4a4a"/><path d="m256 0-10 37.827 10 37.827h144.201c-31.627-45.706-84.412-75.654-144.201-75.654z" fill="#cfcfe6"/><path d="m256 0c-59.789 0-112.574 29.948-144.201 75.655h144.201z" fill="#ece6f2"/></g></svg>