<svg id="Capa_1" enable-background="new 0 0 512 512" height="512" viewBox="0 0 512 512" width="512" xmlns="http://www.w3.org/2000/svg"><g><path d="m0 256c0-141.385 114.615-256 256-256s256 114.615 256 256c0 80.844-37.474 152.935-96 199.852-2.29 1.835-102.622-45.37-160-45.37s-157.711 47.205-160 45.37c-58.526-46.917-96-119.008-96-199.852z" fill="#6990d7"/><path d="m462.205 256c0 113.884-92.321 206.205-206.205 206.205s-206.205-92.321-206.205-206.205 92.321-206.205 206.205-206.205 206.205 92.321 206.205 206.205z" fill="#91aee2"/><path d="m382 142.197v206.22c0 8.284-6.716 15-15 15h-79.957c-86.733-.001-157.043-70.311-157.043-157.043v-64.177c0-60.751 49.249-110 110-110h32c60.751 0 110 49.248 110 110z" fill="#fff68e"/><path d="m333.042 363.416h-46c-86.732 0-157.042-70.31-157.042-157.042v-64.177c0-60.751 49.249-110 110-110h32c2.351 0 4.685.074 7 .22-57.49 3.61-103 51.38-103 109.78v64.177c0 86.732 70.31 157.042 157.042 157.042z" fill="#fff36c"/><path d="m209.333 328.78c-38.66 0-70 31.34-70 70v70.412c0 6.739-7.331 10.928-13.137 7.506-10.576-6.234-20.666-13.207-30.196-20.847v-57.071c0-38.66 31.34-70 70-70z" fill="#ae583e"/><path d="m416 398.78v57.071c-26.257 21.049-56.751 37.03-90 46.46-1.417.402-3.233-2.498-4.66-2.12-15.441 4.091-31.453 6.775-47.893 7.906-2.604.179-4.823 3.61-7.447 3.71-3.318.127-6.651.192-10 .192s-6.682-.064-10-.192c-2.897-.111-4.055-5.306-6.926-5.513-15.046-1.083-29.732-3.467-43.946-7.04-2.482-.624-6.676 3.752-9.128 3.057-21.255-6.029-41.384-14.734-60-25.729v-77.802c0-38.66 31.34-70 70-70h85.936l24.463 3.642c6.757 1.006 13.657-.276 19.601-3.642h20c38.66 0 70 31.34 70 70z" fill="#c0694e"/><path d="m355.678 396.513v95.355c-4.923 2.083-9.925 4.017-15 5.794v-101.15c0-4.142 3.358-7.5 7.5-7.5s7.5 3.359 7.5 7.501zm-191.856-7.5c-4.142 0-7.5 3.358-7.5 7.5v95.355c4.923 2.083 9.925 4.017 15 5.794v-101.15c0-4.141-3.358-7.499-7.5-7.499z" fill="#ae583e"/><path d="m266 328.78h60v173.531c-19.179 5.44-39.273 8.701-60 9.497zm-80 173.532c19.179 5.44 39.273 8.7 60 9.497v-183.029h-60z" fill="#c97e67"/><path d="m196.362 419.879c-.616-6.183 1.127-13.162 5.031-19.638-3.905-6.476-5.648-13.455-5.031-19.638 6.183-.616 13.162 1.127 19.638 5.031 6.476-3.904 13.455-5.647 19.638-5.031.616 6.183-1.127 13.162-5.031 19.638 3.905 6.476 5.648 13.455 5.031 19.638-6.183.616-13.162-1.127-19.638-5.031-6.476 3.904-13.455 5.647-19.638 5.031zm39.776 21.483c-6.183-.616-13.162 1.126-19.638 5.031-6.476-3.905-13.455-5.647-19.638-5.031-.616 6.183 1.127 13.162 5.031 19.638-3.905 6.476-5.648 13.455-5.031 19.638 6.183.616 13.162-1.126 19.638-5.031 6.476 3.905 13.455 5.647 19.638 5.031.616-6.183-1.127-13.162-5.031-19.638 3.904-6.476 5.647-13.455 5.031-19.638zm79.5-60.759c-6.183-.616-13.162 1.127-19.638 5.031-6.476-3.904-13.455-5.647-19.638-5.031-.616 6.183 1.127 13.162 5.031 19.638-3.905 6.476-5.648 13.455-5.031 19.638 6.183.616 13.162-1.127 19.638-5.031 6.476 3.904 13.455 5.647 19.638 5.031.616-6.183-1.127-13.162-5.031-19.638 3.904-6.476 5.647-13.455 5.031-19.638zm0 60.759c-6.183-.616-13.162 1.126-19.638 5.031-6.476-3.905-13.455-5.647-19.638-5.031-.616 6.183 1.127 13.162 5.031 19.638-3.905 6.476-5.648 13.455-5.031 19.638 6.183.616 13.162-1.126 19.638-5.031 6.476 3.905 13.455 5.647 19.638 5.031.616-6.183-1.127-13.162-5.031-19.638 3.904-6.476 5.647-13.455 5.031-19.638z" fill="#ffd993"/><path d="m223.5 400.241c0 4.142-3.358 7.5-7.5 7.5s-7.5-3.358-7.5-7.5 3.358-7.5 7.5-7.5 7.5 3.358 7.5 7.5zm-7 53.259c-4.142 0-7.5 3.358-7.5 7.5s3.358 7.5 7.5 7.5 7.5-3.358 7.5-7.5-3.358-7.5-7.5-7.5zm79.5-60.759c-4.142 0-7.5 3.358-7.5 7.5s3.358 7.5 7.5 7.5 7.5-3.358 7.5-7.5-3.358-7.5-7.5-7.5zm0 60.759c-4.142 0-7.5 3.358-7.5 7.5s3.358 7.5 7.5 7.5 7.5-3.358 7.5-7.5-3.358-7.5-7.5-7.5z" fill="#ffc14f"/><path d="m171 197.197v10c0 13.807-11.193 25-25 25s-25-11.193-25-25v-10c0-13.807 11.193-25 25-25s25 11.193 25 25z" fill="#ffbeaa"/><path d="m136 192.197v20c0 8.178 3.927 15.438 9.998 20-13.806-.001-24.998-11.194-24.998-25v-10c0-13.807 11.192-24.999 24.998-25-6.071 4.561-9.998 11.822-9.998 20zm230-20v-20c0-60.751-49.249-110-110-110-60.751 0-110 49.249-110 110v40c0 50.351 33.83 92.8 80 105.859v33.141l30 31 30-31v-33.141c33.586-9.499 60.641-34.551 72.895-66.883 2.252.667 4.637 1.024 7.105 1.024 13.807 0 25-11.193 25-25v-10c0-13.807-11.193-25-25-25z" fill="#faa68e"/><path d="m366 152.197v40c0 50.792-34.425 93.543-81.216 106.195-9.023 2.44-18.545 2.44-27.568 0-46.791-12.652-81.216-55.403-81.216-106.195v-40c0-55.664 41.345-101.669 95-108.985 53.655 7.315 95 53.321 95 108.985z" fill="#ffbeaa"/><path d="m270.5 198.928c-3.875 3.875-9.024 6.009-14.5 6.009s-10.625-2.134-14.5-6.009c-2.929-2.93-2.929-7.678 0-10.607 2.929-2.928 7.678-2.928 10.606 0 1.042 1.042 2.424 1.616 3.893 1.616s2.851-.574 3.893-1.616c2.929-2.928 7.678-2.928 10.606 0 2.931 2.929 2.931 7.678.002 10.607z" fill="#e09380"/><path d="m223.5 159.697c0 8.284-6.716 15-15 15s-15-6.716-15-15 6.716-15 15-15 15 6.716 15 15zm80-15c-8.284 0-15 6.716-15 15s6.716 15 15 15 15-6.716 15-15-6.716-15-15-15z" fill="#274c91"/><path d="m226 152.197c0 4.142-3.358 7.5-7.5 7.5s-7.5-3.358-7.5-7.5 3.358-7.5 7.5-7.5 7.5 3.358 7.5 7.5zm87.5-7.5c-4.142 0-7.5 3.358-7.5 7.5s3.358 7.5 7.5 7.5 7.5-3.358 7.5-7.5-3.358-7.5-7.5-7.5z" fill="#fff5f5"/><path d="m256 262.197c-16.569 0-30-13.431-30-30 0-4.142 3.358-7.5 7.5-7.5h45c4.142 0 7.5 3.358 7.5 7.5 0 16.568-13.431 30-30 30z" fill="#fff5f5"/><path d="m263.5 261.251c-2.397.617-4.91.945-7.5.945-16.568 0-30-13.431-30-30 0-4.142 3.358-7.5 7.5-7.5h15c-4.142 0-7.5 3.358-7.5 7.5 0 13.979 9.561 25.725 22.5 29.055z" fill="#def4f8"/><path d="m158.025 113.188v65.77h-15v-65.77z" fill="#954c35"/><path d="m170 201.892v51.524h-38.951v-51.524c0-10.756 8.719-19.476 19.475-19.476 10.757 0 19.476 8.72 19.476 19.476z" fill="#ae583e"/><path d="m170 201.892v51.524h-25.163v-51.524c0-5.141 1.993-9.816 5.247-13.297-5.318-.231-9.559-4.615-9.559-9.99 0-5.523 4.477-10 10-10s10 4.477 10 10c0 2.094-.644 4.037-1.744 5.643 6.628 3.106 11.219 9.839 11.219 17.644z" fill="#c0694e"/><path d="m392 111.416c0 6.628-5.373 12-12 12h-211.426c-6.627 0-12-5.373-12-12 0-48.601 39.399-88 88-88h59.426c48.601 0 88 39.399 88 88z" fill="#c0694e"/><path d="m177.958 123.416h-45.958c-6.627 0-12-5.373-12-12 0-48.601 39.399-88 88-88h45.957c-48.601 0-88 39.399-88 88 .001 6.627 5.373 12 12.001 12z" fill="#ae583e"/><path d="m225.011 340h-18.777c-8.284 0-15-6.716-15-15 0-8.284 6.716-15 15-15h14.468c8.284 0 15 6.716 15 15v4.309c0 5.904-4.787 10.691-10.691 10.691zm61.978 0h18.777c8.284 0 15-6.716 15-15 0-8.284-6.716-15-15-15h-14.468c-8.284 0-15 6.716-15 15v4.309c0 5.904 4.787 10.691 10.691 10.691z" fill="#c83c50"/><path d="m257.611 388.977-1.611 1.023-1.611-1.023c-21.736-13.8-34.389-34.694-34.389-56.786v-22.191h72v22.191c0 22.092-12.653 42.986-34.389 56.786z" fill="#fb5858"/><path d="m292 310v22.19c0 19.028-9.387 37.167-25.879 50.651-16.492-13.483-25.88-31.623-25.88-50.651v-22.19h15.787c.348 17.967 3.922 34.961 9.972 47.76 6.049-12.799 9.624-29.792 9.972-47.76z" fill="#fc7979"/></g></svg>