<svg height="512pt" viewBox="0 0 512 512" width="512pt" xmlns="http://www.w3.org/2000/svg"><path d="m512 256c0 141.386719-114.613281 256-256 256s-256-114.613281-256-256 114.613281-256 256-256 256 114.613281 256 256zm0 0" fill="#f93d6e"/><path d="m398.414062 468.761719c-12.339843 8.277343-25.4375 15.519531-39.179687 21.566406-10.648437 4.703125-21.679687 8.703125-33.03125 11.921875-22.296875 6.351562-45.847656 9.75-70.199219 9.75-24.339844 0-47.890625-3.398438-70.199218-9.738281-7.238282-2.0625-14.359376-4.441407-21.328126-7.121094-.429687-.160156-.863281-.320313-1.292968-.492187-3.507813-1.359376-6.980469-2.808594-10.410156-4.320313-13.738282-6.058594-26.839844-13.289063-39.1875-21.578125 10.390624-14.371094 23.757812-26.429688 39.1875-35.320312 10.203124-5.871094 21.300781-10.339844 33.03125-13.148438 1.808593-.441406 3.640624-.839844 5.480468-1.191406 3.46875-.679688 7-1.199219 10.570313-1.570313 1.03125-.109375 2.050781-.210937 3.089843-.289062 3.378907-.28125 6.800782-.421875 10.257813-.421875h81.59375c4.519531 0 8.96875.242187 13.347656.703125 3.570313.367187 7.089844.898437 10.570313 1.558593 1.390625.269532 2.769531.558594 4.140625.871094.449219.117188.910156.207032 1.347656.328125 11.742187 2.820313 22.832031 7.289063 33.03125 13.160157 15.429687 8.898437 28.789063 20.960937 39.179687 35.332031zm0 0" fill="#2f373b"/><path d="m215.203125 416.808594c-29.359375 0-49.257813 42.429687-50.726563 78.332031-.429687-.160156-.863281-.320313-1.292968-.492187-3.507813-1.359376-6.980469-2.808594-10.410156-4.320313-13.738282-6.058594-26.839844-13.289063-39.1875-21.578125 10.390624-14.371094 23.757812-26.429688 39.1875-35.320312 10.203124-5.871094 21.300781-10.339844 33.03125-13.148438 1.808593-.441406 3.640624-.839844 5.480468-1.191406 3.46875-.679688 7-1.199219 10.570313-1.570313 1.03125-.109375 2.050781-.210937 3.089843-.289062 3.378907-.28125 6.800782-.421875 10.257813-.421875zm0 0" fill="#181e21"/><path d="m320.714844 419.070312v4.339844c0 28.539063-18.320313 53.378906-45.589844 61.808594-6.171875 1.921875-12.609375 2.890625-19.128906 2.890625-35.679688 0-64.710938-29.03125-64.710938-64.699219v-4.320312c3.46875-.679688 7-1.199219 10.570313-1.570313 1.03125-.109375 2.050781-.210937 3.089843-.289062 3.378907-.28125 6.800782-.421875 10.257813-.421875h81.59375c4.519531 0 8.96875.242187 13.347656.703125 3.570313.367187 7.089844.898437 10.570313 1.558593zm0 0" fill="#f9c5ac"/><path d="m204.945312 417.230469c-1.039062.078125-2.058593.179687-3.089843.289062-3.570313.371094-7.101563.890625-10.570313 1.570313v4.320312c0 1.246094.042969 2.480469.113282 3.707032 6.90625-6.417969 14.921874-10.308594 23.804687-10.308594-3.457031 0-6.878906.140625-10.257813.421875zm0 0" fill="#efb29a"/><path d="m300.710938 368.539062v54.867188c0 20.089844-13.246094 37.066406-31.488282 42.707031-4.175781 1.296875-8.628906 1.996094-13.230468 1.996094-24.691407 0-44.703126-20.011719-44.703126-44.703125v-54.867188zm0 0" fill="#efb29a"/><path d="m300.710938 419.933594v3.472656c0 20.089844-13.246094 37.066406-31.488282 42.707031-16.460937-5.058593-28.835937-19.371093-31.125-36.882812 2.988282.183593 5.992188.273437 9.007813.273437 8.460937 0 16.75-.671875 24.832031-1.996094 9.949219-1.601562 19.566406-4.160156 28.773438-7.574218zm0 0" fill="#f9c5ac"/><path d="m132.546875 278.152344c0 20.496094-14.976563 37.492187-34.582031 40.648437-2.140625.34375-4.347656.527344-6.59375.527344-22.746094 0-41.175782-18.429687-41.175782-41.175781s18.429688-41.175782 41.175782-41.175782c2.246094 0 4.453125.179688 6.59375.527344 19.609375 3.15625 34.582031 20.152344 34.582031 40.648438zm0 0" fill="#f9c5ac"/><path d="m132.546875 278.152344c0 20.496094-14.976563 37.492187-34.582031 40.648437-3.5625-12.953125-5.460938-26.582031-5.460938-40.648437s1.898438-27.695313 5.460938-40.644532c19.609375 3.152344 34.582031 20.148438 34.582031 40.644532zm0 0" fill="#efb29a"/><path d="m106.085938 278.152344c0 8.128906-6.585938 14.714844-14.714844 14.714844s-14.714844-6.585938-14.714844-14.714844c0-8.125 6.585938-14.714844 14.714844-14.714844s14.714844 6.589844 14.714844 14.714844zm0 0" fill="#efb29a"/><path d="m379.453125 278.152344c0 20.496094 14.976563 37.492187 34.582031 40.648437 2.140625.34375 4.347656.527344 6.59375.527344 22.746094 0 41.175782-18.429687 41.175782-41.175781s-18.429688-41.175782-41.175782-41.175782c-2.246094 0-4.453125.179688-6.59375.527344-19.609375 3.15625-34.582031 20.152344-34.582031 40.648438zm0 0" fill="#f9c5ac"/><path d="m379.453125 278.152344c0 20.496094 14.976563 37.492187 34.582031 40.648437 3.5625-12.953125 5.460938-26.582031 5.460938-40.648437s-1.898438-27.695313-5.460938-40.644532c-19.609375 3.152344-34.582031 20.148438-34.582031 40.644532zm0 0" fill="#efb29a"/><path d="m435.34375 278.152344c0 8.128906-6.585938 14.714844-14.714844 14.714844s-14.714844-6.585938-14.714844-14.714844c0-8.125 6.585938-14.714844 14.714844-14.714844s14.714844 6.589844 14.714844 14.714844zm0 0" fill="#efb29a"/><path d="m410.699219 256.511719c0 76.984375-56.238281 140.847656-129.871094 152.703125-8.078125 1.328125-16.367187 2-24.828125 2-85.445312 0-154.699219-69.257813-154.699219-154.703125v-157.5h309.402344v157.5zm0 0" fill="#f9c5ac"/><path d="m283.25 408.808594c-.800781.140625-1.609375.28125-2.421875.410156-8.078125 1.320312-16.367187 1.992188-24.828125 1.992188-85.441406 0-154.699219-69.25-154.699219-154.699219v-157.5h54.546875v157.5c0 76.136719 54.980469 139.410156 127.402344 152.296875zm0 0" fill="#efb29a"/><path d="m256 315.277344c12.953125 0 25.90625 3.246094 37.714844 9.738281 3.332031 1.832031 4.546875 6.015625 2.714844 9.347656-1.828126 3.328125-6.015626 4.542969-9.34375 2.714844-19.464844-10.703125-42.707032-10.699219-62.171876 0-3.328124 1.828125-7.511718.613281-9.34375-2.714844-1.832031-3.332031-.617187-7.515625 2.714844-9.347656 11.808594-6.492187 24.761719-9.738281 37.714844-9.738281zm0 0" fill="#dd9f8a"/><path d="m273.550781 291.695312h-35.101562c-4.179688 0-7.566407-3.390624-7.566407-7.570312 0-4.183594 3.386719-7.570312 7.566407-7.570312h35.101562c4.179688 0 7.566407 3.386718 7.566407 7.570312 0 4.179688-3.386719 7.570312-7.566407 7.570312zm0 0" fill="#efb29a"/><path d="m230.652344 249.160156c0 17.164063-13.914063 31.082032-31.078125 31.082032-17.164063 0-31.082031-13.917969-31.082031-31.082032h9.339843l21.742188 15.539063 26.148437-16.457031zm0 0" fill="#efb29a"/><path d="m165.613281 236.046875h5.382813c6.050781 9.390625 16.589844 15.609375 28.578125 15.609375 11.996093 0 22.535156-6.21875 28.578125-15.609375h5.382812c0 18.757813-15.199218 33.960937-33.960937 33.960937-18.75 0-33.960938-15.203124-33.960938-33.960937zm0 0" fill="#181e21"/><path d="m360.960938 391.910156c19.527343-48.871094-.011719-111.421875-.011719-111.421875 0 74.292969-41.699219 105.671875-41.699219 105.671875s0-.011718.011719-.019531c10.449219-40.449219-5.191407-105.902344-5.191407-105.902344 5.007813 47.820313-18.96875 72.363281-19.570312 73.53125 11.550781-61.21875-43.21875-145.859375-91.890625-184.96875-10.980469-8.820312-21-16.050781-28.789063-21.402343-9.992187-6.839844-16.320312-10.578126-16.320312-10.578126l-11.578125 155.398438-13.683594-103.597656-21.5 173.96875-36.597656-121.019532c-49.3125-205.089843 112.828125-241.570312 181.859375-241.570312s181.28125 35.171875 198.140625 188.621094c16.738281 152.347656-91.832031 202.578125-93.179687 203.289062zm0 0" fill="#2f373b"/><path d="m202.609375 168.800781c-25.050781-20.128906-45.109375-31.980469-45.109375-31.980469l-11.578125 155.398438-13.683594-103.597656-21.5 173.96875-36.597656-121.019532c-49.3125-205.089843 112.828125-241.570312 181.859375-241.570312-64.128906 0-96.351562 103.050781-53.390625 168.800781zm0 0" fill="#181e21"/><path d="m187.625 306.230469c0 .089843 0 .179687.003906.269531.15625 15.179688 23.28125 15.179688 23.441406 0 0-.089844 0-.179688 0-.269531 0-8.941407-4.683593-16.769531-11.722656-21.222657-7.035156 4.453126-11.722656 12.28125-11.722656 21.222657zm0 0" fill="#fff"/><path d="m319.261719 386.140625c10.449219-40.449219-5.191407-105.902344-5.191407-105.902344 5.007813 47.820313-18.96875 72.363281-19.570312 73.53125 11.550781-61.21875-43.21875-145.859375-91.890625-184.96875-10.980469-8.820312-21-16.050781-28.789063-21.402343 5.878907-24.179688 11.101563-41.019532 11.101563-24.667969 0 37.480469 71.769531 34.289062 123.25 114.429687 50.976563 79.390625 11.839844 147.679688 11.089844 148.980469zm0 0" fill="#181e21"/><path d="m360.960938 391.910156c48.945312-39.4375 124.351562-167.039062 2.59375-308.519531 0 0 102.367187 168.429687-2.59375 308.519531zm0 0" fill="#40b4d3"/><path d="m84.800781 314.632812c0 6.007813-4.871093 10.878907-10.878906 10.878907s-10.878906-4.871094-10.878906-10.878907c0-6.007812 4.871093-10.878906 10.878906-10.878906s10.878906 4.871094 10.878906 10.878906zm0 0" fill="#181e21"/></svg>