<svg id="Capa_1" enable-background="new 0 0 512 512" height="512" viewBox="0 0 512 512" width="512" xmlns="http://www.w3.org/2000/svg"><g><g><path d="m456.969 407.139c27.744-39.712 44.031-88.02 44.031-140.139 0-135.31-109.69-245-245-245s-245 109.69-245 245c0 52.119 16.287 100.427 44.031 140.139z" fill="#49d88b"/></g><g><circle cx="256" cy="242" fill="#38c674" r="200"/></g><g><path d="m140.547 226.163c3.282-28.378 10.31-25.293 10.31-78.944v-30.076c0-23.009 3.49-58.398 23.273-80.72 19.785-22.322 47.621-36.423 81.87-36.423s48.985 5.638 62.772 12 14.708 34.073 14.708 34.073c17.176 18.715 27.663 43.666 27.663 71.07v30.076c0 53.652 7.028 50.566 10.31 78.944s-8.875 54.637-31.091 60.837l2.53-24.679s-6.405 44.191-86.892 44.191-86.892-44.191-86.892-44.191l2.53 24.679c-22.215-6.2-34.373-32.459-31.091-60.837z" fill="#2d3c6b"/></g><g><path d="m217.006 6.792c-16.848 6.247-31.253 16.517-42.875 29.631-19.784 22.322-23.273 57.711-23.273 80.72v30.076c0 53.652-7.028 50.566-10.31 78.944s8.875 54.637 31.091 60.837l-2.53-24.679s3.747 25.829 41.478 37.994v-125.832c-27.181-37.794-36.456-138.06 6.419-167.691z" fill="#213159"/></g><g><path d="m102.383 457.831h307.235c18.06-14.558 34.021-31.615 47.333-50.665-.001-.009-.001-.017-.002-.026-8.256-22.709-16.99-42.685-24.722-51.911-.904-1.078-1.795-2.019-2.668-2.79-6.623-5.848-19.39-11.382-34.352-16.323-37.929-12.525-89.967-21.232-91.82-21.54h-94.772c-1.853.307-53.892 9.014-91.82 21.54-14.961 4.941-27.729 10.475-34.352 16.323-.874.772-1.765 1.712-2.668 2.79-7.732 9.226-16.467 29.203-24.722 51.911-.001.009-.001.018-.002.026 13.31 19.049 29.272 36.106 47.332 50.665z" fill="#fcad6d"/></g><g><path d="m102.383 457.831h118.606c-17.282-17.151-30.825-37.677-39.83-62.575-7.588-20.984-11.96-45.066-12.65-72.831v-.001c-16.433 3.612-35.381 8.297-51.715 13.691-14.961 4.941-27.729 10.475-34.352 16.323-.874.772-1.765 1.712-2.668 2.79-7.732 9.226-16.467 29.203-24.722 51.911-.001.009-.001.018-.002.026 13.311 19.05 29.273 36.107 47.333 50.666z" fill="#fd995b"/></g><g><path d="m276.616 369.362s10.767-11.809 23.703-11.809 55.191 11.809 55.191 11.809z" fill="#fd995b"/></g><g><path d="m235.384 369.362s-10.767-11.809-23.703-11.809-55.191 11.809-55.191 11.809z" fill="#fd995b"/></g><g><path d="m391.147 471.33c6.374-4.223 12.555-8.713 18.491-13.499-4.027-11.7-11.689-21.884-21.736-29.06v42.559z" fill="#fd995b"/></g><g><path d="m124.098 471.33v-42.559c-10.047 7.176-17.708 17.36-21.736 29.06 5.936 4.786 12.117 9.277 18.491 13.499z" fill="#ef854b"/></g><g><path d="m177.575 395.255c-37.77 0-66.143 34.911-57.928 71.776.604 2.713 1.146 4.246 1.165 4.298v.009c38.748 25.688 85.216 40.662 135.188 40.662 49.971 0 96.439-14.974 135.187-40.661l.001-.009c.019-.052.56-1.586 1.165-4.298 8.215-36.866-20.158-71.776-57.928-71.776h-156.85z" fill="#ff596e"/></g><g><path d="m301.031 507.862c-56.84-22.966-99.707-56.85-119.872-112.606h-3.584c-37.77 0-66.143 34.911-57.928 71.776.604 2.713 1.146 4.246 1.165 4.298v.009c38.748 25.687 85.216 40.661 135.188 40.661 15.384 0 30.434-1.424 45.031-4.138z" fill="#ff4155"/></g><g><path d="m256.069 322.424c26.898 0 47.317-27.849 47.317-27.849v-73.336h-94.772v73.336s20.556 27.849 47.455 27.849z" fill="#fcad6d"/></g><g><path d="m229.266 313.633c74.076-7.135 74.12-52.458 74.12-52.458v-40.44h-94.772v73.841c0-.001 8.044 10.896 20.652 19.057z" fill="#fd995b"/></g><g><path d="m256 308.663c-.073 0-.143.005-.216.005-28.149 0-47.17-14.093-47.17-14.093v20s19.021 20.093 47.17 20.093c.073 0 .143-.005.216-.005 28.031-.103 47.386-20.088 47.386-20.088v-20s-19.355 13.985-47.386 14.088z" fill="#dae2fe"/></g><g><path d="m256 308.663c-.073 0-.143.005-.216.005-28.149 0-47.17-14.093-47.17-14.093v20c19.593 0 35.125-2.289 47.455-5.913-.023 0-.046.001-.069.001z" fill="#bec8f7"/></g><g><circle cx="256" cy="340.663" fill="#e9efff" r="17.5"/></g><g><path d="m180.942 159.567s-10.385-25.285-28.897-19.415.448 60.664 36.573 64.116z" fill="#fd995b"/></g><g><path d="m331.058 159.567s10.385-25.285 28.897-19.415-.448 60.664-36.573 64.116z" fill="#fcad6d"/></g><g><path d="m194.837 84.904c-10.322 3.439-17.93 12.279-20.432 22.867-2.552 10.801-6.002 27.519-6.002 38.984 0 64.505 39.219 140.155 87.597 140.155s87.597-75.65 87.597-140.155c0-1.674-.033-2.084-.085-3.733-81.411-.002-112.185-70.275-148.675-58.118z" fill="#f9ba8f"/></g><g><path d="m276 282.564c-38.741-16.953-67.597-80.479-67.597-135.809 0-21.971 4.564-41.826 12.476-58.475-8.87-4.459-17.292-6.291-26.042-3.376-10.322 3.439-17.93 12.279-20.432 22.867-2.552 10.801-6.002 27.519-6.002 38.984 0 64.505 39.219 140.155 87.597 140.155 6.881 0 13.576-1.535 20-4.346z" fill="#fcad6d"/></g><g><g><path d="m242.013 192.951 8.436-13.441c2.569-4.093 8.533-4.093 11.102 0l8.436 13.441c2.739 4.365-.398 10.038-5.551 10.038h-16.871c-5.154 0-8.291-5.673-5.552-10.038z" fill="#fd995b"/></g></g><g><path d="m223.5 138.968h-20c-4.142 0-7.5-3.358-7.5-7.5 0-4.142 3.358-7.5 7.5-7.5h20c4.142 0 7.5 3.358 7.5 7.5 0 4.142-3.358 7.5-7.5 7.5z" fill="#162544"/></g><g><path d="m308.5 138.968h-20c-4.142 0-7.5-3.358-7.5-7.5 0-4.142 3.358-7.5 7.5-7.5h20c4.142 0 7.5 3.358 7.5 7.5 0 4.142-3.358 7.5-7.5 7.5z" fill="#162544"/></g><g><g><path d="m235.384 240.87h41.233c4.111-3.622 7.258-8.309 9.01-13.631 1.584-4.811-2.069-9.754-7.134-9.754h-44.985c-5.065 0-8.718 4.943-7.134 9.754 1.752 5.322 4.899 10.009 9.01 13.631z" fill="#162544"/></g><g><path d="m276.616 240.87c-5.493 4.849-12.714 7.798-20.616 7.798s-15.124-2.948-20.616-7.798c5.5-4.849 12.714-7.798 20.616-7.798s15.116 2.949 20.616 7.798z" fill="#ff4155"/></g></g><g><path d="m311.557 158.853c-.863-3.387-3.137-6.41-6.566-8.116-5.584-2.778-12.505-.923-15.952 4.274-2.117 3.192-2.574 6.947-1.628 10.312 1.228 4.369 7.176 5.031 9.445 1.1 1.43-2.476 4.596-3.325 7.072-1.895 3.93 2.269 8.75-1.277 7.629-5.675z" fill="#162544"/></g><g><path d="m200.443 158.853c.863-3.387 3.137-6.41 6.566-8.116 5.584-2.778 12.505-.923 15.952 4.274 2.117 3.192 2.574 6.947 1.628 10.312-1.228 4.369-7.176 5.031-9.445 1.1-1.43-2.476-4.596-3.325-7.072-1.895-3.93 2.269-8.75-1.277-7.629-5.675z" fill="#162544"/></g></g></svg>