<svg height="512pt" viewBox="0 0 512 512" width="512pt" xmlns="http://www.w3.org/2000/svg"><path d="m512 256c0 141.386719-114.613281 256-256 256s-256-114.613281-256-256 114.613281-256 256-256 256 114.613281 256 256zm0 0" fill="#ffbb16"/><path d="m149.832031 471.082031-19.546875-58.640625v-183.746094h290.34375s17.683594 192.1875-65.550781 237.5" fill="#e41753"/><path d="m398.414062 468.761719c-12.339843 8.277343-25.4375 15.519531-39.179687 21.566406-10.648437 4.703125-21.679687 8.703125-33.03125 11.921875-22.296875 6.351562-45.847656 9.75-70.199219 9.75-24.339844 0-47.890625-3.398438-70.199218-9.738281-7.238282-2.0625-14.359376-4.441407-21.328126-7.121094-.429687-.160156-.863281-.320313-1.292968-.492187-3.507813-1.359376-6.980469-2.808594-10.410156-4.320313-13.738282-6.058594-26.839844-13.289063-39.1875-21.578125 10.390624-14.371094 23.757812-26.429688 39.1875-35.320312 10.203124-5.871094 21.300781-10.339844 33.03125-13.148438 1.808593-.441406 3.640624-.839844 5.480468-1.191406 3.46875-.679688 7-1.199219 10.570313-1.570313 1.03125-.109375 2.050781-.210937 3.089843-.289062 3.378907-.28125 6.800782-.421875 10.257813-.421875h81.59375c4.519531 0 8.96875.242187 13.347656.703125 3.570313.367187 7.089844.898437 10.570313 1.558593 1.390625.269532 2.769531.558594 4.140625.871094.449219.117188.910156.207032 1.347656.328125 11.742187 2.820313 22.832031 7.289063 33.03125 13.160157 15.429687 8.898437 28.789063 20.960937 39.179687 35.332031zm0 0" fill="#40b4d3"/><path d="m215.203125 416.808594c-29.359375 0-49.257813 42.429687-50.726563 78.332031-.429687-.160156-.863281-.320313-1.292968-.492187-3.507813-1.359376-6.980469-2.808594-10.410156-4.320313-13.738282-6.058594-26.839844-13.289063-39.1875-21.578125 10.390624-14.371094 23.757812-26.429688 39.1875-35.320312 10.203124-5.871094 21.300781-10.339844 33.03125-13.148438 1.808593-.441406 3.640624-.839844 5.480468-1.191406 3.46875-.679688 7-1.199219 10.570313-1.570313 1.03125-.109375 2.050781-.210937 3.089843-.289062 3.378907-.28125 6.800782-.421875 10.257813-.421875zm0 0" fill="#0084a6"/><path d="m320.714844 419.070312v4.339844c0 28.539063-18.320313 53.378906-45.589844 61.808594-6.171875 1.921875-12.609375 2.890625-19.128906 2.890625-35.679688 0-64.710938-29.03125-64.710938-64.699219v-4.320312c3.46875-.679688 7-1.199219 10.570313-1.570313 1.03125-.109375 2.050781-.210937 3.089843-.289062 3.378907-.28125 6.800782-.421875 10.257813-.421875h81.59375c4.519531 0 8.96875.242187 13.347656.703125 3.570313.367187 7.089844.898437 10.570313 1.558593zm0 0" fill="#f9c5ac"/><path d="m300.710938 368.539062v54.867188c0 20.089844-13.246094 37.066406-31.488282 42.707031-4.175781 1.296875-8.628906 1.996094-13.230468 1.996094-24.691407 0-44.703126-20.011719-44.703126-44.703125v-54.867188zm0 0" fill="#efb29a"/><path d="m300.710938 419.933594v3.472656c0 20.089844-13.246094 37.066406-31.488282 42.707031-16.460937-5.058593-28.835937-19.371093-31.125-36.882812 2.988282.183593 5.992188.273437 9.007813.273437 8.460937 0 16.75-.671875 24.832031-1.996094 9.949219-1.601562 19.566406-4.160156 28.773438-7.574218zm0 0" fill="#f9c5ac"/><path d="m132.546875 278.152344c0 20.496094-14.976563 37.492187-34.582031 40.648437-2.140625.34375-4.347656.527344-6.59375.527344-22.746094 0-41.175782-18.429687-41.175782-41.175781s18.429688-41.175782 41.175782-41.175782c2.246094 0 4.453125.179688 6.59375.527344 19.609375 3.15625 34.582031 20.152344 34.582031 40.648438zm0 0" fill="#f9c5ac"/><path d="m132.546875 278.152344c0 20.496094-14.976563 37.492187-34.582031 40.648437-3.5625-12.953125-5.460938-26.582031-5.460938-40.648437s1.898438-27.695313 5.460938-40.644532c19.609375 3.152344 34.582031 20.148438 34.582031 40.644532zm0 0" fill="#efb29a"/><path d="m106.085938 278.152344c0 8.128906-6.585938 14.714844-14.714844 14.714844s-14.714844-6.585938-14.714844-14.714844c0-8.125 6.585938-14.714844 14.714844-14.714844s14.714844 6.589844 14.714844 14.714844zm0 0" fill="#efb29a"/><path d="m379.453125 278.152344c0 20.496094 14.976563 37.492187 34.582031 40.648437 2.140625.34375 4.347656.527344 6.59375.527344 22.746094 0 41.175782-18.429687 41.175782-41.175781s-18.429688-41.175782-41.175782-41.175782c-2.246094 0-4.453125.179688-6.59375.527344-19.609375 3.15625-34.582031 20.152344-34.582031 40.648438zm0 0" fill="#f9c5ac"/><path d="m379.453125 278.152344c0 20.496094 14.976563 37.492187 34.582031 40.648437 3.5625-12.953125 5.460938-26.582031 5.460938-40.648437s-1.898438-27.695313-5.460938-40.644532c-19.609375 3.152344-34.582031 20.148438-34.582031 40.644532zm0 0" fill="#efb29a"/><path d="m435.34375 278.152344c0 8.128906-6.585938 14.714844-14.714844 14.714844s-14.714844-6.585938-14.714844-14.714844c0-8.125 6.585938-14.714844 14.714844-14.714844s14.714844 6.589844 14.714844 14.714844zm0 0" fill="#efb29a"/><path d="m410.699219 256.511719c0 76.984375-56.238281 140.847656-129.871094 152.703125-8.078125 1.328125-16.367187 2-24.828125 2-85.445312 0-154.699219-69.257813-154.699219-154.703125v-157.5h309.402344v157.5zm0 0" fill="#f9c5ac"/><path d="m283.25 408.808594c-.800781.140625-1.609375.28125-2.421875.410156-8.078125 1.320312-16.367187 1.992188-24.828125 1.992188-85.441406 0-154.699219-69.25-154.699219-154.699219v-157.5h54.546875v157.5c0 76.136719 54.980469 139.410156 127.402344 152.296875zm0 0" fill="#efb29a"/><path d="m360.269531 296.496094c0 10.539062-8.542969 19.082031-19.082031 19.082031s-19.082031-8.542969-19.082031-19.082031c0-10.539063 8.542969-19.082032 19.082031-19.082032s19.082031 8.542969 19.082031 19.082032zm0 0" fill="#efb29a"/><path d="m189.894531 296.496094c0 10.539062-8.542969 19.082031-19.082031 19.082031s-19.082031-8.542969-19.082031-19.082031c0-10.539063 8.542969-19.082032 19.082031-19.082032s19.082031 8.542969 19.082031 19.082032zm0 0" fill="#efb29a"/><path d="m273.382812 297.921875h-34.757812c-4.140625 0-7.496094-3.355469-7.496094-7.496094s3.355469-7.496093 7.496094-7.496093h34.757812c4.140626 0 7.496094 3.355468 7.496094 7.496093s-3.355468 7.496094-7.496094 7.496094zm0 0" fill="#efb29a"/><path d="m256.003906 345.351562c-12.828125 0-25.65625-3.214843-37.347656-9.640624-3.296875-1.8125-4.503906-5.957032-2.6875-9.257813 1.8125-3.296875 5.957031-4.5 9.253906-2.6875 19.273438 10.597656 42.292969 10.597656 61.566406 0 3.296876-1.8125 7.441407-.609375 9.253907 2.6875 1.8125 3.300781.609375 7.445313-2.6875 9.257813-11.695313 6.425781-24.523438 9.640624-37.351563 9.640624zm0 0" fill="#dd9f8a"/><path d="m343.996094 244.328125c0-17.808594-14.433594-32.242187-32.242188-32.242187-17.804687 0-32.242187 14.433593-32.242187 32.242187" fill="#efb29a"/><path d="m333.777344 258.054688c0 12.164062-9.859375 22.023437-22.023438 22.023437-12.160156 0-22.023437-9.859375-22.023437-22.023437 0-12.164063 9.863281-22.023438 22.023437-22.023438 12.164063 0 22.023438 9.859375 22.023438 22.023438zm0 0" fill="#2f373b"/><path d="m330.371094 254.167969c0 5.210937-4.226563 9.4375-9.4375 9.4375-5.210938 0-9.4375-4.226563-9.4375-9.4375 0-5.210938 4.226562-9.4375 9.4375-9.4375 5.210937 0 9.4375 4.226562 9.4375 9.4375zm0 0" fill="#fff"/><path d="m232.488281 244.328125c0-17.808594-14.4375-32.242187-32.246093-32.242187-17.804688 0-32.242188 14.433593-32.242188 32.242187" fill="#efb29a"/><path d="m222.269531 258.054688c0 12.164062-9.863281 22.023437-22.023437 22.023437-12.164063 0-22.023438-9.859375-22.023438-22.023437 0-12.164063 9.859375-22.023438 22.023438-22.023438 12.160156 0 22.023437 9.859375 22.023437 22.023438zm0 0" fill="#2f373b"/><path d="m205.210938 279.511719c-1.597657.378906-3.257813.566406-4.96875.566406-12.160157 0-22.019532-9.859375-22.019532-22.027344 0-12.160156 9.859375-22.019531 22.019532-22.019531 1.710937 0 3.371093.199219 4.96875.570312-9.777344 2.25-17.058594 11-17.058594 21.449219 0 10.460938 7.28125 19.210938 17.058594 21.460938zm0 0" fill="#181e21"/><path d="m316.722656 279.511719c-1.601562.378906-3.261718.566406-4.96875.566406-12.160156 0-22.023437-9.859375-22.023437-22.027344 0-12.160156 9.863281-22.019531 22.023437-22.019531 1.707032 0 3.367188.199219 4.96875.570312-9.78125 2.25-17.0625 11-17.0625 21.449219 0 10.460938 7.28125 19.210938 17.0625 21.460938zm0 0" fill="#181e21"/><path d="m218.859375 254.167969c0 5.210937-4.222656 9.4375-9.4375 9.4375-5.210937 0-9.4375-4.226563-9.4375-9.4375 0-5.210938 4.226563-9.4375 9.4375-9.4375 5.214844 0 9.4375 4.226562 9.4375 9.4375zm0 0" fill="#fff"/><path d="m429.359375 177.871094c9.203125 65.570312-8.726563 115-8.726563 115s-.011718 0-.023437-.011719c-40.347656-10.917969-86.699219-58.570313-88.136719-60.050781l21.628906 35.960937c-42.03125-3.910156-170.679687-51.949219-198.25-117.289062.148438 37.140625 25.257813 78.191406 25.257813 78.191406-37.757813-24.492187-39.097656-71.351563-39.097656-71.351563v295.167969c-36.160157-36.160156-65.359375-175.339843-62.550781-242.386719 2.808593-67.050781 21.839843-112.089843 21.839843-112.089843l-23.800781 32.917969c0-82.101563 98.722656-131.929688 176.851562-131.929688 2.628907 0 5.269532.0507812 7.910157.148438h.019531c60.898438 2.179687 121.949219 28.992187 150.460938 57.5 24.4375 24.441406 27.367187 81.132812 27.367187 81.132812-19.46875-19.472656-24.4375-19.511719-24.476563-19.511719 0 0 11.117188 40.03125 13.726563 58.601563zm0 0" fill="#f93d6e"/><path d="m228.960938 348.746094c0 3.152344-2.554688 5.703125-5.703126 5.703125-3.148437 0-5.699218-2.550781-5.699218-5.703125 0-3.148438 2.550781-5.699219 5.699218-5.699219 3.148438 0 5.703126 2.550781 5.703126 5.699219zm0 0" fill="#2f373b"/><path d="m294.441406 348.746094c0 3.152344-2.550781 5.703125-5.699218 5.703125-3.148438 0-5.703126-2.550781-5.703126-5.703125 0-3.148438 2.554688-5.699219 5.703126-5.699219 3.148437 0 5.699218 2.550781 5.699218 5.699219zm0 0" fill="#2f373b"/><path d="m445.285156 309.488281c0 6.121094-4.960937 11.078125-11.078125 11.078125-6.117187 0-11.074219-4.957031-11.074219-11.078125 0-6.117187 4.957032-11.074219 11.074219-11.074219 6.117188 0 11.078125 4.957032 11.078125 11.074219zm0 0" fill="#2f373b"/><path d="m88.867188 309.488281c0 6.121094-4.957032 11.078125-11.074219 11.078125-6.117188 0-11.078125-4.957031-11.078125-11.078125 0-6.117187 4.960937-11.074219 11.078125-11.074219 6.117187 0 11.074219 4.957032 11.074219 11.074219zm0 0" fill="#2f373b"/><g fill="#e41753"><path d="m142.011719 453.488281c-36.160157-36.160156-65.359375-175.339843-62.550781-242.386719 2.808593-67.050781 21.839843-112.089843 21.839843-112.089843l-23.800781 32.917969c0-82.101563 98.722656-131.929688 176.851562-131.929688 2.628907 0 5.269532.0507812 7.910157.148438-231.609375 54.890624-131.980469 412.292968-120.25 453.339843zm0 0"/><path d="m354.101562 268.769531c-42.03125-3.910156-170.679687-51.949219-198.25-117.289062l2.777344-41.046875c10.75 80.136718 195.472656 158.335937 195.472656 158.335937zm0 0"/><path d="m420.609375 292.859375c-40.347656-10.917969-86.699219-58.570313-88.136719-60.050781-36.292968-53.546875-13.550781-110.648438-13.550781-110.648438 7.75 115.398438 100.25 169.859375 101.6875 170.699219zm0 0"/><path d="m324.347656 254.355469c-55.105468-23.800781-81.339844-121.445313-81.339844-121.445313s-14.941406 97.644532 81.339844 121.445313zm0 0"/></g></svg>