<svg id="Capa_1" enable-background="new 0 0 512 512" height="512" viewBox="0 0 512 512" width="512" xmlns="http://www.w3.org/2000/svg"><g><path d="m436.453 357.167c20.677-89.013-6.21-134.257-6.21-134.257h-123.862v134.257z" fill="#895140"/><path d="m480.133 417.664c0-27.472-17.604-51.853-43.68-60.497l-34.198-11.336-10 83.999 10 82.17h77.878z" fill="#80aaff"/><path d="m362.254 346.797 10 165.203h30v-166.169z" fill="#198080"/><path d="m372.254 346.797-94.386 2.717 10 162.486h84.386z" fill="#80aaff"/><path d="m256 512h31.868v-67.17l-41.868-10z" fill="#c50048"/><path d="m31.867 417.664c0-27.472 17.604-51.853 43.68-60.497l34.198-11.336 10 83.999-10 82.17h-77.878z" fill="#9cf"/><path d="m149.746 346.797-10 165.203h-30v-166.169z" fill="#24b3b3"/><path d="m139.746 346.797 94.386 2.717-10 162.486h-84.386z" fill="#9cf"/><path d="m256 512h-31.868v-67.17l31.868-10z" fill="#e50058"/><path d="m246 404.83 10 40h31.868v-30z" fill="#ffda44"/><path d="m256 404.83v40h-31.868v-30z" fill="#fff79f"/><path d="m287.868 349.514-41.868-8.974 10 74.29h31.868z" fill="#c50048"/><path d="m224.132 349.514 31.868-8.974v74.29h-31.868z" fill="#e50058"/><path d="m373.322 385.898 28.933-40.067-67.632-22.42h-78.623v27.128l42.113 41.614c21.682 21.425 57.364 18.457 75.209-6.255z" fill="#ece6f2"/><path d="m138.678 385.898-28.933-40.067 67.632-22.42h78.623v27.128l-42.113 41.614c-21.682 21.425-57.364 18.457-75.209-6.255z" fill="#fff5f5"/><path d="m415.336 159.336c0-87.999-71.337-159.336-159.336-159.336l-10 172.876 169.336-10z" fill="#895140"/><path d="m256 0c-48.942 0-92.722 22.073-121.95 56.799 5.696 74.186 82.116 106.077 82.116 106.077h39.834z" fill="#b56d3c"/><path d="" fill="#ffdecf"/><path d="m134.05 56.799c-23.325 27.712-37.386 63.48-37.386 102.537v3.54l119.502 10v-46.835c-32.455-15.571-62.452-37.724-82.116-69.242z" fill="#c78f2c"/><path d="m128.531 162.876h-31.867c-17.6 0-31.868 14.268-31.868 31.868 0 17.6 14.268 31.868 31.868 31.868h41.915z" fill="#ffdecf"/><path d="m383.469 162.876h31.867c17.6 0 31.868 14.268 31.868 31.868 0 17.6-14.268 31.868-31.868 31.868h-41.915z" fill="#ffcdbe"/><path d="m256 141.811-10 65.326 10 143.403c70.399 0 127.469-57.07 127.469-127.469v-60.195s-62.365-.002-127.469-21.065z" fill="#ffdecf"/><path d="m216.166 126.041s-31.867 36.836-87.635 36.836v60.195c0 70.399 57.07 127.469 127.469 127.469v-208.73c-13.334-4.314-26.783-9.509-39.834-15.77z" fill="#ffeee5"/><path d="m184.299 192.137h31.867v30h-31.867z" fill="#332866"/><path d="m295.834 192.137h31.867v30h-31.867z" fill="#180a33"/></g></svg>