<svg id="Capa_1" enable-background="new 0 0 512 512" height="512" viewBox="0 0 512 512" width="512" xmlns="http://www.w3.org/2000/svg"><g><path d="m0 256c0-141.384 114.615-256 255.999-256 141.244 0 256.284 115.282 256 256.526-.163 80.93-37.879 153.045-96.651 199.846-7.07 5.63-16.933 6.177-24.613 1.414-39.135-24.271-85.298-38.284-134.735-38.284-49.317 0-95.378 13.946-134.452 38.109-7.861 4.861-17.947 4.311-25.169-1.456-58.743-46.909-96.379-119.137-96.379-200.155z" fill="#ffc14f"/><path d="m462.745 256c0 114.182-92.563 206.745-206.745 206.745s-206.745-92.563-206.745-206.745 92.563-206.745 206.745-206.745 206.745 92.563 206.745 206.745z" fill="#ffcd71"/><path d="m407.5 159v220h-270.5v-220c0-71.797 58.203-130 130-130h10.5c71.797 0 130 58.203 130 130z" fill="#c83c50"/><path d="m157.212 159v220h-52.712v-220c0-71.797 58.203-130 130-130h43c1.624 0 3.241.031 4.85.09-69.545 2.556-125.138 59.741-125.138 129.91z" fill="#b03244"/><path d="m146 238.78c-13.807 0-25-11.193-25-25v-10c0-13.807 11.193-25 25-25 13.807 0 25 11.193 25 25v10c0 13.808-11.193 25-25 25z" fill="#ffbeaa"/><path d="m145.998 238.78c-13.806-.001-24.998-11.194-24.998-25v-10c0-13.806 11.192-24.999 24.998-25-6.071 4.561-9.998 11.822-9.998 20v20c0 8.179 3.927 15.439 9.998 20zm245.002-24.999v-10c0-13.807-11.193-25-25-25-13.807 0-25 11.193-25 25v10c0 13.807 11.193 25 25 25 13.807-.001 25-11.193 25-25z" fill="#faa68e"/><path d="m160.467 258.846c4.313 3.49 7.071 8.827 7.071 14.808v50.346h-38.077v-50.346c0-5.981 2.758-11.317 7.071-14.808-4.313-3.49-7.071-8.827-7.071-14.808 0-10.515 8.524-19.039 19.038-19.039s19.038 8.524 19.038 19.039c.001 5.982-2.757 11.318-7.07 14.808zm215 0c4.313-3.49 7.071-8.827 7.071-14.808 0-10.515-8.524-19.039-19.038-19.039s-19.038 8.524-19.038 19.039c0 5.981 2.758 11.317 7.071 14.808-4.313 3.49-7.071 8.827-7.071 14.808v50.346h38.077v-50.346c-.001-5.981-2.759-11.318-7.072-14.808z" fill="#962a3a"/><path d="m182.819 341.691-1.691 4.224c-24.613 10.849-41.794 35.46-41.794 64.085v58.956c0 6.844-7.448 11.103-13.34 7.622-10.503-6.203-20.523-13.135-29.993-20.727v-45.851c0-38.66 31.34-70 70-70h12.581z" fill="#c2eaf2"/><path d="m416 410v45.852c-18.23 14.614-38.503 26.785-60.321 36.017-2.32.982-4.657-5.528-7.011-4.613-28.736 11.163-59.986 18.894-92.668 18.894-32.427 0-63.446-7.636-91.996-18.634-2.581-.994-5.142 5.428-7.682 4.354-10.482-4.435-20.608-9.549-30.321-15.286v-66.584c0-34.405 24.821-63.013 57.534-68.893 4.045-.727 8.212 5.34 12.466 5.34l125.426-.766 11.992-5.681h12.581c38.66 0 70 31.34 70 70z" fill="#def4f8"/><path d="m355.678 407.733v61.554c0 3.047-1.863 5.779-4.692 6.911-.05.02-.099.04-.149.06-4.867 1.942-10.159-1.67-10.159-6.911v-61.299c0-4.107 3.165-7.688 7.269-7.811 4.248-.128 7.731 3.277 7.731 7.496zm-191.626-7.497c-4.247-.127-7.731 3.278-7.731 7.497v61.554c0 3.047 1.863 5.779 4.692 6.911.05.02.099.04.149.06 4.867 1.942 10.159-1.67 10.159-6.911v-61.299c.001-4.108-3.164-7.689-7.269-7.812z" fill="#c2eaf2"/><path d="m282 393.133v107.563c-8.549.862-17.223 1.304-26 1.304s-17.451-.442-26-1.304v-107.563l-51.419-53.133h14.086l37.333 34.204h52l37.333-34.204h14.086z" fill="#962a3a"/><path d="m271 389.944v85.814c0 8.218-6.63 14.953-14.849 14.958-.05 0-.101 0-.151 0s-.101 0-.151 0c-8.219-.004-14.849-6.739-14.849-14.958v-85.814l-48.333-49.944h126.667z" fill="#fb5858"/><path d="m366 170v40c0 50.351-33.83 92.801-80 105.859v24.141l-30 30-30-30v-24.141c-46.17-13.059-80-55.508-80-105.859v-40c0-60.751 49.249-110 110-110 60.751 0 110 49.249 110 110z" fill="#faa68e"/><path d="m366 170v40c0 50.792-34.425 93.543-81.216 106.195-9.023 2.439-18.545 2.439-27.568 0-46.791-12.652-81.216-55.403-81.216-106.195v-40c0-55.663 41.345-101.669 95-108.985 53.655 7.316 95 53.322 95 108.985z" fill="#ffbeaa"/><path d="m241.5 216.732c-2.929-2.93-2.929-7.678 0-10.607 2.929-2.928 7.678-2.928 10.606 0 1.042 1.042 2.424 1.616 3.893 1.616s2.851-.574 3.893-1.616c2.929-2.928 7.678-2.928 10.606 0 2.929 2.93 2.929 7.678 0 10.607-3.875 3.875-9.024 6.009-14.5 6.009s-10.623-2.134-14.498-6.009zm44.803 27.6c-2.929-2.928-7.678-2.928-10.606 0-10.861 10.861-28.532 10.861-39.394 0-2.929-2.928-7.678-2.928-10.606 0-2.929 2.93-2.929 7.678 0 10.607 8.354 8.354 19.329 12.531 30.303 12.531s21.949-4.177 30.303-12.531c2.929-2.929 2.929-7.677 0-10.607z" fill="#e09380"/><path d="m223.5 177.5c0 8.284-6.716 15-15 15s-15-6.716-15-15 6.716-15 15-15 15 6.716 15 15zm80-15c-8.284 0-15 6.716-15 15s6.716 15 15 15 15-6.716 15-15-6.716-15-15-15z" fill="#126e66"/><path d="m226 170c0 4.142-3.358 7.5-7.5 7.5s-7.5-3.358-7.5-7.5 3.358-7.5 7.5-7.5 7.5 3.358 7.5 7.5zm87.5-7.5c-4.142 0-7.5 3.358-7.5 7.5s3.358 7.5 7.5 7.5 7.5-3.358 7.5-7.5-3.358-7.5-7.5-7.5z" fill="#fff5f5"/><path d="m318.5 130h-167.5c0-38.66 31.34-70 70-70h27.5c38.66 0 70 31.34 70 70z" fill="#f44545"/><path d="m361 130h-177.5c0-38.66 31.34-70 70-70h37.5c38.66 0 70 31.34 70 70z" fill="#fb5858"/><path d="m193.425 130c0 4.142-3.358 7.5-7.5 7.5h-32.425c-4.142 0-7.5-3.358-7.5-7.5s3.358-7.5 7.5-7.5h32.425c4.142 0 7.5 3.358 7.5 7.5zm8.458-40h-38.336c-3.225 4.624-5.906 9.654-7.951 15h46.255c5.826 0 9.51-6.376 6.48-11.352-.029-.048-.059-.097-.088-.145-1.346-2.201-3.779-3.503-6.36-3.503z" fill="#f76c57"/><path d="m182.385 93.647c.029-.048.059-.096.088-.145 1.347-2.201 3.78-3.503 6.361-3.503h159.619c3.225 4.624 5.906 9.654 7.951 15h-167.539c-5.825.001-9.51-6.375-6.48-11.352zm176.115 28.853h-180c-4.142 0-7.5 3.358-7.5 7.5s3.358 7.5 7.5 7.5h180c4.142 0 7.5-3.358 7.5-7.5s-3.358-7.5-7.5-7.5z" fill="#f87b67"/><path d="m171.202 469h169.745c1.028 0 1.862.834 1.862 1.862v23.908c0 1.28-.804 2.428-2.012 2.852-26.539 9.313-55.076 14.378-84.797 14.378-29.71 0-58.237-5.062-84.768-14.369-1.225-.43-2.041-1.594-2.041-2.892v-23.728c0-1.111.901-2.011 2.011-2.011z" fill="#f87b67"/><path d="m355.678 469v22.868c-4.923 2.083-9.925 4.017-15 5.794v-28.662zm-199.356 22.868c4.923 2.083 9.925 4.017 15 5.794v-28.662h-15z" fill="#fb5858"/></g></svg>