<svg id="Capa_1" enable-background="new 0 0 512 512" height="512" viewBox="0 0 512 512" width="512" xmlns="http://www.w3.org/2000/svg"><g><g><path d="m456.969 407.139c27.744-39.712 44.031-88.02 44.031-140.139 0-135.31-109.69-245-245-245s-245 109.69-245 245c0 52.119 16.287 100.427 44.031 140.139z" fill="#ff596e"/></g><g><circle cx="256" cy="242" fill="#ff4155" r="200"/></g><g><path d="m388.907 252.146c-18.31-6.409-23.303-19.114-15.388-44.081s-28.802-51.13-28.802-51.13h-88.717-88.717s-36.718 26.162-28.802 51.13c7.915 24.968 2.922 37.673-15.388 44.081-18.31 6.409-61.587 47.467-16.09 107.389h148.997 148.997c45.497-59.922 2.219-100.98-16.09-107.389z" fill="#ffc839"/></g><g><path d="m456.949 407.139c-8.256-22.709-16.99-42.685-24.722-51.911-.904-1.078-1.795-2.019-2.668-2.79-6.623-5.848-19.39-11.382-34.352-16.323-37.929-12.525-89.967-21.232-91.82-21.54h-94.772c-1.853.307-53.892 9.014-91.82 21.54-14.961 4.941-27.729 10.475-34.352 16.323-.874.772-1.765 1.712-2.668 2.79-7.732 9.226-16.467 29.203-24.722 51.911-.001.009-.001.018-.002.026 36.568 52.328 93.045 89.714 158.449 101.156l42.5-20.47 42.502 20.471c65.403-11.443 121.881-48.828 158.449-101.156-.001-.009-.001-.018-.002-.027z" fill="#dae2fe"/></g><g><path d="m224.985 502.789c-72.804-59.054-90.19-136.817-94.341-170.923-4.742 1.359-9.394 2.777-13.85 4.249-14.961 4.941-27.729 10.475-34.352 16.323-.874.772-1.765 1.712-2.668 2.79-7.732 9.226-16.467 29.203-24.722 51.911-.001.009-.001.018-.002.026 36.572 52.335 93.064 89.705 158.477 101.143z" fill="#bec8f7"/></g><g><path d="m376.363 400.049c-12.574-62.943-53.75-134.554-120.363-134.554s-107.789 71.611-120.363 134.554c-2.232 11.171 4.616 22.15 15.628 25.069l1.946.516c6.666 1.767 12.085 6.615 14.579 13.045l25.27 65.146c13.835 3.667 28.147 6.161 42.827 7.358v-.001l20.113-23.331 20.114 23.33v.001c14.679-1.197 28.992-3.691 42.827-7.358l25.27-65.146c2.494-6.43 7.913-11.278 14.579-13.045l1.946-.516c11.011-2.918 17.859-13.897 15.627-25.068z" fill="#e9efff"/></g><g><path d="m219.806 395.255 36.194 20.426 36.194-20.426 11.192-80.68v-93.336h-94.772v93.336z" fill="#fd995b"/></g><g><path d="m219.806 395.255 16.081 115.926c6.633.539 13.34.819 20.113.819s13.48-.28 20.114-.819l16.081-115.926z" fill="#2d3c6b"/></g><g><path d="m120.812 471.33c-.075-.212-8.769-24.824 4.705-53.619 2.512-5.369-4.447-10.154-8.544-5.871-8.577 8.966-17.032 22.169-20.587 41.004 7.736 6.653 15.895 12.828 24.426 18.486z" fill="#acbbef"/></g><g><path d="m391.188 471.33c.075-.212 8.769-24.824-4.705-53.619-2.512-5.369 4.447-10.154 8.544-5.871 8.577 8.966 17.032 22.169 20.587 41.004-7.736 6.653-15.895 12.828-24.426 18.486z" fill="#bec8f7"/></g><g><path d="m355.547 83.218c-12.65-41.159-45.137-83.218-80.681-83.218-12.234 0-18.866 12-18.866 12s-6.632-12-18.866-12c-35.545 0-68.033 42.062-80.682 83.222-3.586 10.526-5.547 21.804-5.589 33.534-.001.128-.005.259-.005.387v30.076h210.286v-30.076c-.001-11.871-1.971-23.282-5.597-33.925z" fill="#ffdd40"/></g><g><path d="m225.46 147.218v-67.616c-21.838-14.207-31.609-62.729 1.325-78.424-31.374 7.066-58.924 44.919-70.333 82.045-3.586 10.527-5.547 21.804-5.589 33.534-.001.128-.005.259-.005.386v30.076h74.602z" fill="#ffc839"/></g><g><path d="m180.942 159.567s-10.385-25.285-28.897-19.415.448 60.664 36.573 64.116z" fill="#fd995b"/></g><g><path d="m331.058 159.567s10.385-25.285 28.897-19.415-.448 60.664-36.573 64.116z" fill="#fcad6d"/></g><g><path d="m255.98 353.723s91.053 76.832 173.537-1.286c0 0 2.377-6.374-3.24-11.991s-54.638-22.468-69.957-23.489c-15.32-1.021-100.34 36.766-100.34 36.766z" fill="#5c45bf"/></g><g><path d="m354.316 303.936c7.489-25.191-16.681-36.276-16.681-36.276 3.064-12.787-10.723-30.107-27.574-30.107h-107.699c-16.851 0-30.638 17.32-27.574 30.107 0 0-24.17 11.085-16.681 36.276 0 0-20.141 2.762-13.262 24.115 6.878 21.353 55.94 41.928 111.367 41.928s104.489-20.575 111.367-41.928c6.877-21.353-13.263-24.115-13.263-24.115z" fill="#7255ce"/></g><g><path d="m224.83 331c4.596-8.17 21.447-5.106 16.851-18.383s-60.766-17.872-66.894-44.957c0 0-24.17 11.085-16.681 36.276 0 0-20.141 2.762-13.262 24.115 6.878 21.353 55.94 41.928 111.367 41.928 7.755 0 15.384-.403 22.792-1.155-32.427-13.436-58.769-29.654-54.173-37.824z" fill="#5c45bf"/></g><g><path d="m337.635 267.66c-9.656 18.404-43.869 33.723-42.848 42.404s30.206 10.723 59.528-6.128c7.49-25.191-16.68-36.276-16.68-36.276z" fill="#5c45bf"/></g><g><path d="m327.049 124.754c-3.509-10.287-9.219-24.496-16.225-32.717-3.978-3.853-8.145-7.046-12.399-9.103-8.195-3.963-15.758-4.069-22.16-2.497-13.314 3.269-27.216 3.268-40.53 0-6.402-1.572-13.966-1.466-22.16 2.497-4.254 2.057-8.421 5.25-12.399 9.103-7.006 8.221-12.716 22.43-16.225 32.717-2.762 8.097-8.72 14.703-16.484 18.295-.031 1.23-.063 2.46-.063 3.705 0 64.505 39.219 140.155 87.597 140.155s87.597-75.651 87.597-140.155c0-1.245-.032-2.475-.063-3.705-7.766-3.592-13.724-10.198-16.486-18.295z" fill="#f9ba8f"/></g><g><path d="m208.403 146.754c0-25.925 6.339-48.917 17.057-67.152-3.755.312-7.739 1.327-11.885 3.333-4.254 2.057-8.421 5.25-12.399 9.103-7.006 8.221-12.716 22.43-16.225 32.717-2.762 8.097-8.72 14.703-16.484 18.295-.031 1.23-.063 2.46-.063 3.705 0 64.505 39.219 140.155 87.597 140.155 6.881 0 13.576-1.535 20-4.346-38.742-16.953-67.598-80.48-67.598-135.81z" fill="#fcad6d"/></g><g><g><path d="m242.013 192.951 8.436-13.441c2.569-4.093 8.533-4.093 11.102 0l8.436 13.441c2.739 4.365-.398 10.038-5.551 10.038h-16.871c-5.154 0-8.291-5.673-5.552-10.038z" fill="#fd995b"/></g></g><g><g><path d="m235.384 241.375h41.233c4.111-3.622 7.258-8.309 9.01-13.631 1.584-4.811-2.069-9.754-7.134-9.754h-44.985c-5.065 0-8.718 4.943-7.134 9.754 1.752 5.321 4.899 10.009 9.01 13.631z" fill="#162544"/></g><g><path d="m276.616 241.375c-5.493 4.849-12.714 7.798-20.616 7.798s-15.124-2.948-20.616-7.798c5.5-4.849 12.714-7.798 20.616-7.798s15.116 2.948 20.616 7.798z" fill="#ff4155"/></g></g><g><path d="m201.001 162.085c-.043-3.495 1.371-7.004 4.242-9.539 4.675-4.128 11.84-4.128 16.515 0 2.871 2.535 4.284 6.044 4.242 9.539-.055 4.538-5.629 6.716-8.838 3.507-2.022-2.022-5.3-2.022-7.322 0-3.21 3.21-8.784 1.032-8.839-3.507z" fill="#162544"/></g><g><path d="m223.5 138.968h-20c-4.142 0-7.5-3.358-7.5-7.5 0-4.142 3.358-7.5 7.5-7.5h20c4.142 0 7.5 3.358 7.5 7.5 0 4.142-3.358 7.5-7.5 7.5z" fill="#ff9100"/></g><g><path d="m308.5 138.968h-20c-4.142 0-7.5-3.358-7.5-7.5 0-4.142 3.358-7.5 7.5-7.5h20c4.142 0 7.5 3.358 7.5 7.5 0 4.142-3.358 7.5-7.5 7.5z" fill="#ff9100"/></g><g><path d="m311.239 162.03c.043-3.495-1.371-7.004-4.242-9.539-4.675-4.128-11.84-4.128-16.515 0-2.871 2.535-4.284 6.044-4.242 9.539.055 4.538 5.629 6.716 8.838 3.507 2.022-2.022 5.3-2.022 7.322 0 3.21 3.209 8.784 1.031 8.839-3.507z" fill="#162544"/></g></g></svg>