<?xml version="1.0" encoding="iso-8859-1"?>
<!-- Generator: Adobe Illustrator 19.0.0, SVG Export Plug-In . SVG Version: 6.00 Build 0)  -->
<svg version="1.1" id="Layer_1" xmlns="http://www.w3.org/2000/svg" xmlns:xlink="http://www.w3.org/1999/xlink" x="0px" y="0px"
	 viewBox="0 0 512.002 512.002" style="enable-background:new 0 0 512.002 512.002;" xml:space="preserve">
<circle style="fill:#FD8469;" cx="256.001" cy="256" r="256"/>
<path style="fill:#FC6F58;" d="M382.206,478.765c64.095-36.39,110.93-99.638,125.221-174.444L317.612,114.507l-73.678,57.022
	l-88.269,72.628l49.592,49.592l-4.746,3.322L382.206,478.765z"/>
<path style="fill:#FED8B2;" d="M325.155,323.558h-40.045c-2.22,0-4.02-1.8-4.02-4.02v-27.822h-50.176v27.822
	c0,2.22-1.8,4.02-4.02,4.02H186.85c-32.153,0-58.218,26.065-58.218,58.218v96.337C166.141,499.671,209.631,512,256.001,512
	s89.86-12.329,127.372-33.887v-96.337C383.373,349.624,357.308,323.558,325.155,323.558z"/>
<path style="fill:#EABE96;" d="M325.155,323.558h-40.045c-2.22,0-4.02-1.8-4.02-4.02v-27.822h-25.662v220.276
	c0.191,0,0.381,0.009,0.574,0.009c46.37,0,89.86-12.329,127.372-33.887v-96.337C383.373,349.624,357.308,323.558,325.155,323.558z"
	/>
<path style="fill:#90DFAA;" d="M341.334,325.854c-5.139-1.484-10.562-2.296-16.179-2.296h-13.279
	c-4.996,26.315-28.105,46.22-55.875,46.22s-50.879-19.902-55.875-46.22h-13.279c-5.616,0-11.04,0.812-16.179,2.296v171.548
	C197.36,506.839,226.074,512,256.001,512c29.925,0,58.64-5.161,85.333-14.598V325.854z"/>
<path style="fill:#6CBC82;" d="M325.155,323.558h-13.279c-4.996,26.315-28.105,46.22-55.875,46.22c-0.193,0-0.383-0.01-0.574-0.012
	v142.229c0.191,0,0.381,0.007,0.574,0.007c29.925,0,58.64-5.161,85.333-14.598V325.856
	C336.195,324.37,330.772,323.558,325.155,323.558z"/>
<circle style="fill:#FED8B2;" cx="172.598" cy="233.417" r="20.052"/>
<circle style="fill:#EABE96;" cx="335.128" cy="233.417" r="20.052"/>
<path style="fill:#F4E3C3;" d="M256.123,316.926h-4.518c-41.796,0-75.678-33.882-75.678-75.678v-69.096
	c0-41.796,33.882-75.678,75.678-75.678h4.518c41.796,0,75.678,33.882,75.678,75.678v69.096
	C331.801,283.045,297.918,316.926,256.123,316.926z"/>
<path style="fill:#FED8B2;" d="M256.123,96.475h-0.696v220.451h0.696c41.796,0,75.678-33.882,75.678-75.678v-69.096
	C331.801,130.357,297.918,96.475,256.123,96.475z"/>
<path style="fill:#935635;" d="M323.593,122.051c-14.862-21.171-39.445-35.023-67.277-35.023h-4.906
	c-45.378,0-82.165,36.786-82.165,82.165v6.354v57.877h12.062v-33.942c-0.002,0-0.005,0-0.007,0
	c36.605-3.718,72.597-10.899,104.145-26.671c11.352,13.036,24.462,24.678,38.934,34.121v26.491h14.102v-43.268v-20.963
	C338.481,151.645,332.963,135.397,323.593,122.051z"/>
<path style="fill:#804000;" d="M323.593,122.049c-14.862-21.171-39.445-35.023-67.277-35.023h-0.89v97.957
	c10.345-3.358,20.39-7.363,30.018-12.176c11.352,13.038,24.462,24.678,38.934,34.121v26.491h14.102v-43.268v-20.963
	C338.481,151.645,332.963,135.397,323.593,122.049z"/>
<circle style="fill:#59595B;" cx="217.127" cy="224.521" r="7.794"/>
<circle style="fill:#272525;" cx="290.6" cy="224.521" r="7.794"/>
<path style="fill:#FD8469;" d="M253.863,288.39c-14.043,0-25.464-11.423-25.464-25.464c0-2.381,1.929-4.31,4.31-4.31
	s4.31,1.929,4.31,4.31c0,9.288,7.558,16.844,16.844,16.844s16.844-7.558,16.844-16.844c0-2.381,1.929-4.31,4.31-4.31
	s4.31,1.929,4.31,4.31C279.327,276.968,267.904,288.39,253.863,288.39z"/>
<path style="fill:#FC6F58;" d="M279.327,262.927c0-2.381-1.929-4.31-4.31-4.31s-4.31,1.929-4.31,4.31
	c0,8.761-6.725,15.974-15.281,16.767v8.62C268.739,287.497,279.327,276.44,279.327,262.927z"/>
<rect x="166.358" y="166.788" style="fill:#FFD15D;" width="175.838" height="36.202"/>
<rect x="255.432" y="166.788" style="fill:#F9B54C;" width="86.764" height="36.202"/>
<g>
</g>
<g>
</g>
<g>
</g>
<g>
</g>
<g>
</g>
<g>
</g>
<g>
</g>
<g>
</g>
<g>
</g>
<g>
</g>
<g>
</g>
<g>
</g>
<g>
</g>
<g>
</g>
<g>
</g>
</svg>
