<?xml version="1.0" encoding="iso-8859-1"?>
<!-- Generator: Adobe Illustrator 19.0.0, SVG Export Plug-In . SVG Version: 6.00 Build 0)  -->
<svg version="1.1" id="Layer_1" xmlns="http://www.w3.org/2000/svg" xmlns:xlink="http://www.w3.org/1999/xlink" x="0px" y="0px"
	 viewBox="0 0 512.002 512.002" style="enable-background:new 0 0 512.002 512.002;" xml:space="preserve">
<circle style="fill:#B5F1F4;" cx="256.001" cy="256" r="256"/>
<path style="fill:#84DBFF;" d="M512.001,256c0-2.891-0.065-5.766-0.16-8.635l-35.107-35.107l-19.765,32.615L319.687,107.591
	l-136.145,81.805l-27.096,11.007l31.768,31.766l-31.768,13.102l48.916,48.916l-6.758,1.074l43.598,43.598l128.384,146.106
	C454.438,442.921,512.001,356.19,512.001,256z"/>
<path style="fill:#FED8B2;" d="M281.091,319.538v-27.822h-50.176v27.822c0,2.22-1.8,4.02-4.02,4.02h-34.576v96.011h127.371v-96.011
	h-34.576C282.89,323.558,281.091,321.758,281.091,319.538z"/>
<path style="fill:#EABE96;" d="M319.687,323.558h-34.576c-2.22,0-4.02-1.8-4.02-4.02v-27.822h-25.664v127.853h64.26V323.558z"/>
<circle style="fill:#FED8B2;" cx="172.598" cy="233.417" r="20.052"/>
<circle style="fill:#EABE96;" cx="335.128" cy="233.417" r="20.052"/>
<path style="fill:#F4E3C3;" d="M256.123,316.926h-4.518c-41.796,0-75.678-33.882-75.678-75.678v-69.096
	c0-41.796,33.882-75.678,75.678-75.678h4.518c41.796,0,75.678,33.882,75.678,75.678v69.096
	C331.801,283.045,297.919,316.926,256.123,316.926z"/>
<path style="fill:#FED8B2;" d="M256.123,96.475h-0.696v220.451h0.696c41.796,0,75.678-33.882,75.678-75.678v-69.096
	C331.801,130.357,297.919,96.475,256.123,96.475z"/>
<path style="fill:#324A5E;" d="M323.593,122.051c-14.862-21.171-39.445-35.023-67.277-35.023h-4.906
	c-45.378,0-82.165,36.786-82.165,82.165v6.354v57.877h12.062v-33.942c-0.002,0-0.005,0-0.007,0
	c36.605-3.718,72.597-10.899,104.145-26.671c11.352,13.036,24.462,24.678,38.934,34.121v26.491h14.102v-43.268v-20.963
	C338.481,151.645,332.965,135.397,323.593,122.051z"/>
<circle style="fill:#59595B;" cx="217.127" cy="224.521" r="7.794"/>
<circle style="fill:#272525;" cx="290.6" cy="224.521" r="7.794"/>
<path style="fill:#B97850;" d="M213.545,323.558h-26.696c-32.153,0-58.218,26.065-58.218,58.218v96.337
	c37.357,21.468,80.643,33.775,126.797,33.876V352.534C232.245,352.444,213.545,346.814,213.545,323.558z"/>
<path style="fill:#935635;" d="M325.155,323.558h-26.696c0,23.449-19.008,28.981-42.456,28.981c-0.193,0-0.383-0.003-0.574-0.003
	v159.456c0.191,0,0.383,0.01,0.574,0.01c46.37,0,89.86-12.329,127.372-33.887v-96.339
	C383.373,349.624,357.308,323.558,325.155,323.558z"/>
<path style="fill:#FD8469;" d="M253.865,288.39c-14.043,0-25.464-11.423-25.464-25.464c0-2.381,1.929-4.31,4.31-4.31
	s4.31,1.929,4.31,4.31c0,9.288,7.558,16.844,16.844,16.844s16.844-7.558,16.844-16.844c0-2.381,1.929-4.31,4.31-4.31
	s4.31,1.929,4.31,4.31C279.327,276.968,267.904,288.39,253.865,288.39z"/>
<path style="fill:#FC6F58;" d="M279.327,262.927c0-2.381-1.929-4.31-4.31-4.31s-4.31,1.929-4.31,4.31
	c0,8.761-6.723,15.974-15.281,16.767v8.62C268.739,287.497,279.327,276.44,279.327,262.927z"/>
<path style="fill:#804000;" d="M249.969,352.401V511.9c2.008,0.047,4.013,0.1,6.034,0.1c2.02,0,4.025-0.053,6.034-0.1V352.401
	c-1.972,0.093-3.984,0.138-6.034,0.138S251.939,352.494,249.969,352.401z"/>
<path style="fill:#633001;" d="M256.003,352.539c-0.195,0-0.381-0.012-0.574-0.014V511.99c0.191,0.002,0.383,0.01,0.574,0.01
	c2.02,0,4.025-0.053,6.034-0.1V352.401C260.064,352.494,258.051,352.539,256.003,352.539z"/>
<polygon style="fill:#935635;" points="227.558,323.558 256.001,352.539 227.558,380.983 199.114,323.558 "/>
<polygon style="fill:#804000;" points="284.445,323.558 256.003,352.539 284.445,380.983 312.89,323.558 "/>
<path style="fill:#F4A200;" d="M166.359,170.667v28.444h89.069V81.037C206.183,81.349,166.359,121.351,166.359,170.667z"/>
<path style="fill:#DD8D00;" d="M345.646,170.667c0-49.509-40.134-89.643-89.643-89.643c-0.193,0-0.383,0.014-0.574,0.014v118.074
	h90.217V170.667z"/>
<path style="fill:#CC8006;" d="M256.003,81.024c-9.947,0-19.504,1.645-28.444,4.636v113.452h56.889V85.659
	C275.505,82.668,265.948,81.024,256.003,81.024z"/>
<path style="fill:#AF6C0B;" d="M284.447,85.659c-8.94-2.991-18.497-4.636-28.444-4.636c-0.193,0-0.383,0.01-0.574,0.012v118.075
	h29.019V85.659z"/>
<rect x="156.445" y="169.374" style="fill:#DD8D00;" width="199.111" height="31.03"/>
<rect x="255.432" y="169.374" style="fill:#C17802;" width="100.124" height="31.03"/>
<polygon style="fill:#E6F3FF;" points="469.975,275.608 379.6,275.608 371.575,212.259 476.733,212.259 "/>
<polygon style="fill:#CFDBE6;" points="476.733,212.259 424.37,212.259 424.37,275.608 469.975,275.608 "/>
<path style="fill:#324A5E;" d="M378.686,269.791v19.825c0,5.713,4.63,10.343,10.343,10.343h21.773l-3.062,38.415
	c-0.793,9.956,7.071,18.473,17.06,18.473c9.988,0,17.853-8.518,17.06-18.473l-3.062-38.415h21.773
	c5.713,0,10.343-4.63,10.343-10.343v-19.825H378.686z"/>
<path style="fill:#2B3B4E;" d="M424.37,269.791v87.035c0.145,0.003,0.284,0.022,0.431,0.022c9.988,0,17.853-8.518,17.06-18.473
	l-3.062-38.415h21.773c5.713,0,10.343-4.63,10.343-10.343v-19.825H424.37z"/>
<g>
</g>
<g>
</g>
<g>
</g>
<g>
</g>
<g>
</g>
<g>
</g>
<g>
</g>
<g>
</g>
<g>
</g>
<g>
</g>
<g>
</g>
<g>
</g>
<g>
</g>
<g>
</g>
<g>
</g>
</svg>
