<?xml version="1.0" encoding="iso-8859-1"?>
<!-- Generator: Adobe Illustrator 19.0.0, SVG Export Plug-In . SVG Version: 6.00 Build 0)  -->
<svg version="1.1" id="Layer_1" xmlns="http://www.w3.org/2000/svg" xmlns:xlink="http://www.w3.org/1999/xlink" x="0px" y="0px"
	 viewBox="0 0 512 512" style="enable-background:new 0 0 512 512;" xml:space="preserve">
<circle style="fill:#E6F3FF;" cx="256" cy="256" r="256"/>
<path style="fill:#CFDBE6;" d="M352.825,493.035C446.202,454.853,512,363.118,512,256c0-0.078-0.003-0.155-0.003-0.233
	L484.68,228.45l-16.075,28.35L315.075,103.272l-126.905,79.484l-31.723,17.648l62.823,62.823l-2.631,3.115l-33.599-33.599
	l-26.595,12.559l42.274,42.274l-3.494,4.139l35.4,35.4l-11.976,31.742L352.825,493.035z"/>
<path style="fill:#FED8B2;" d="M281.09,319.538v-27.822h-50.176v27.822c0,2.22-1.8,4.02-4.02,4.02h-34.576v96.011h127.371v-96.011
	h-34.576C282.889,323.558,281.09,321.758,281.09,319.538z"/>
<path style="fill:#EABE96;" d="M319.686,323.558H285.11c-2.22,0-4.02-1.8-4.02-4.02v-27.822h-25.662v127.853h64.26v-96.011H319.686z
	"/>
<circle style="fill:#FED8B2;" cx="172.597" cy="233.417" r="20.052"/>
<circle style="fill:#EABE96;" cx="335.127" cy="233.417" r="20.052"/>
<path style="fill:#F4E3C3;" d="M256.122,316.926h-4.518c-41.796,0-75.678-33.882-75.678-75.678v-69.096
	c0-41.796,33.882-75.678,75.678-75.678h4.518c41.796,0,75.678,33.882,75.678,75.678v69.096
	C331.8,283.045,297.918,316.926,256.122,316.926z"/>
<path style="fill:#FED8B2;" d="M256.122,96.475h-0.696v220.451h0.696c41.796,0,75.678-33.882,75.678-75.678v-69.096
	C331.8,130.357,297.918,96.475,256.122,96.475z"/>
<path style="fill:#57442F;" d="M323.593,122.049c-14.864-21.171-39.445-35.023-67.277-35.023h-0.89v97.957
	c10.345-3.358,20.39-7.363,30.018-12.176c11.352,13.038,24.462,24.678,38.934,34.121v26.491h14.102v-43.268v-20.963
	C338.48,151.645,332.964,135.397,323.593,122.049z"/>
<path style="fill:#9A4F03;" d="M251.409,87.028c-45.378,0-82.163,36.786-82.163,82.165v6.354v57.877h12.062v-33.942
	c-0.002,0-0.005,0-0.007,0c25.434-2.584,50.569-6.847,74.126-14.495V87.028H251.409z"/>
<circle style="fill:#59595B;" cx="217.126" cy="224.521" r="7.794"/>
<circle style="fill:#272525;" cx="290.599" cy="224.521" r="7.794"/>
<g>
	<path style="fill:#FD8469;" d="M253.862,288.39c-14.043,0-25.464-11.423-25.464-25.464c0-2.381,1.929-4.31,4.31-4.31
		s4.31,1.929,4.31,4.31c0,9.288,7.558,16.844,16.844,16.844c9.287,0,16.844-7.558,16.844-16.844c0-2.381,1.929-4.31,4.31-4.31
		s4.31,1.929,4.31,4.31C279.328,276.968,267.905,288.39,253.862,288.39z"/>
	<path style="fill:#FD8469;" d="M253.862,279.771c-9.288,0-16.844-7.558-16.844-16.844c0-2.381-1.929-4.31-4.31-4.31
		s-4.31,1.929-4.31,4.31c0,14.043,11.423,25.464,25.464,25.464c0.528,0,1.045-0.048,1.564-0.079v-8.62
		C254.91,279.74,254.39,279.771,253.862,279.771z"/>
</g>
<path style="fill:#FC6F58;" d="M279.328,262.927c0-2.381-1.929-4.31-4.31-4.31s-4.31,1.929-4.31,4.31
	c0,8.761-6.725,15.974-15.281,16.767v8.62C268.74,287.497,279.328,276.44,279.328,262.927z"/>
<path style="fill:#F4A200;" d="M166.359,170.667v28.444h89.069V81.037C206.184,81.349,166.359,121.351,166.359,170.667z"/>
<path style="fill:#DD8D00;" d="M345.645,170.667c0-49.509-40.134-89.643-89.643-89.643c-0.193,0-0.381,0.014-0.574,0.014v118.074
	h90.217V170.667z"/>
<path style="fill:#CC8006;" d="M256.002,81.024c-9.947,0-19.504,1.645-28.444,4.636v113.452h56.889V85.659
	C275.504,82.668,265.947,81.024,256.002,81.024z"/>
<path style="fill:#AA6707;" d="M284.446,85.659c-8.94-2.991-18.497-4.636-28.444-4.636c-0.193,0-0.383,0.01-0.574,0.012v118.075
	h29.018V85.659z"/>
<rect x="156.444" y="169.374" style="fill:#DD8D00;" width="199.111" height="31.03"/>
<rect x="255.431" y="169.374" style="fill:#C67A00;" width="100.124" height="31.03"/>
<path style="fill:#31BAFD;" d="M323.017,323.558H296.32c0,23.449-19.01,42.456-42.456,42.456s-42.456-19.01-42.456-42.456h-26.696
	c-32.153,0-58.218,26.065-58.218,58.218v95.075C164.486,499.181,208.743,512,256,512c45.496,0,88.211-11.883,125.235-32.692v-97.532
	C381.235,349.624,355.169,323.558,323.017,323.558z"/>
<path style="fill:#2B9ED8;" d="M323.017,323.558H296.32c0,22.924-18.172,41.593-40.893,42.417V511.99c0.191,0,0.381,0.01,0.574,0.01
	c45.496,0,88.209-11.883,125.235-32.692v-97.532C381.235,349.624,355.169,323.558,323.017,323.558z"/>
<path style="fill:#324A5E;" d="M199.113,323.558H184.71c-4.842,0-9.544,0.602-14.041,1.715v172.13
	C197.36,506.845,226.075,512,256.002,512c29.929,0,58.64-5.172,85.333-14.615v-170.87c-5.761-1.908-11.916-2.958-18.316-2.958
	h-10.128v103.11H199.113V323.558L199.113,323.558z"/>
<path style="fill:#2B3B4E;" d="M323.017,323.558h-10.128v103.109h-57.463v85.326c0.191,0,0.381,0.007,0.574,0.007
	c29.929,0,58.64-5.172,85.333-14.615v-170.87C335.572,324.606,329.419,323.558,323.017,323.558z"/>
<path style="fill:#B97850;" d="M426.668,446.793c10.262-9.185,19.775-19.187,28.444-29.901V274.963h-28.444V446.793z"/>
<path style="fill:#935635;" d="M455.113,274.963h-14.077v157.91c4.904-5.13,9.609-10.457,14.077-15.982V274.963z"/>
<path style="fill:#804000;" d="M477.381,285.88h-72.983c-6.98,0-12.64-5.66-12.64-12.64v-34.482c0-6.98,5.66-12.64,12.64-12.64
	h72.983c6.98,0,12.64,5.66,12.64,12.64v34.482C490.022,280.223,484.362,285.88,477.381,285.88z"/>
<path style="fill:#6D3501;" d="M477.381,226.12h-36.347v59.763h36.347c6.98,0,12.64-5.66,12.64-12.64v-34.482
	C490.022,231.777,484.362,226.12,477.381,226.12z"/>
<g>
</g>
<g>
</g>
<g>
</g>
<g>
</g>
<g>
</g>
<g>
</g>
<g>
</g>
<g>
</g>
<g>
</g>
<g>
</g>
<g>
</g>
<g>
</g>
<g>
</g>
<g>
</g>
<g>
</g>
</svg>
