<?xml version="1.0" encoding="iso-8859-1"?>
<!-- Generator: Adobe Illustrator 19.0.0, SVG Export Plug-In . SVG Version: 6.00 Build 0)  -->
<svg version="1.1" id="Layer_1" xmlns="http://www.w3.org/2000/svg" xmlns:xlink="http://www.w3.org/1999/xlink" x="0px" y="0px"
	 viewBox="0 0 512 512" style="enable-background:new 0 0 512 512;" xml:space="preserve">
<circle style="fill:#324A5E;" cx="256" cy="256" r="256"/>
<path style="fill:#2B3B4E;" d="M507.452,304.18L315.075,111.802L197.387,262.927l-36.836,40.755l190.202,190.2
	C430.807,461.967,490.953,390.813,507.452,304.18z"/>
<path style="fill:#FD8469;" d="M170.437,169.191l-19.377,104.484c-3.779,20.373,11.633,39.214,32.078,39.214h73.438V169.951
	L170.437,169.191z"/>
<path style="fill:#FC6F58;" d="M360.12,273.113l-22.519-102.447l-81.025-0.715v142.938h71.577
	C348.827,312.889,364.292,293.645,360.12,273.113z"/>
<path style="fill:#FED8B2;" d="M281.088,319.538v-27.822h-50.176v27.822c0,2.22-1.8,4.02-4.02,4.02h-34.576v96.011h127.371v-96.011
	H285.11C282.888,323.558,281.088,321.758,281.088,319.538z"/>
<path style="fill:#EABE96;" d="M319.686,323.558H285.11c-2.22,0-4.02-1.8-4.02-4.02v-27.822h-24.512v127.853h63.11v-96.011H319.686z
	"/>
<circle style="fill:#FED8B2;" cx="172.597" cy="233.417" r="20.052"/>
<circle style="fill:#EABE96;" cx="335.127" cy="233.417" r="20.052"/>
<path style="fill:#F4E3C3;" d="M256.122,316.926h-4.518c-41.796,0-75.678-33.882-75.678-75.678v-69.096
	c0-41.796,33.882-75.678,75.678-75.678h4.518c41.796,0,75.678,33.882,75.678,75.678v69.096
	C331.8,283.045,297.917,316.926,256.122,316.926z"/>
<path style="fill:#FED8B2;" d="M256.576,96.487v220.427c41.586-0.245,75.224-34.023,75.224-75.666v-69.096
	C331.8,130.51,298.162,96.732,256.576,96.487z"/>
<g>
	<path style="fill:#FC6F58;" d="M324.377,206.931v26.491h14.102v-43.268v-20.963c0-17.546-5.518-33.794-14.888-47.142
		c-14.862-21.171-39.445-35.023-67.277-35.023h-4.906c-45.378,0-82.165,36.786-82.165,82.165v6.354v57.877h12.062V199.48
		c-0.002,0-0.005,7.451-0.007,7.451H324.377z"/>
	<polygon style="fill:#FC6F58;" points="181.3,206.931 181.307,206.931 181.307,199.48 	"/>
</g>
<path style="fill:#F1543F;" d="M323.593,122.049c-14.815-21.104-39.293-34.928-67.017-35.014v119.894h67.803v26.491h14.102v-43.268
	v-20.963C338.48,151.645,332.962,135.397,323.593,122.049z"/>
<circle style="fill:#59595B;" cx="217.126" cy="224.521" r="7.794"/>
<circle style="fill:#272525;" cx="290.599" cy="224.521" r="7.794"/>
<path style="fill:#FF6472;" d="M325.154,323.558h-26.696c0,23.449-19.008,74.664-42.456,74.664s-42.456-51.215-42.456-74.664
	h-26.696c-32.153,0-58.218,26.065-58.218,58.218v96.337C166.14,499.671,209.63,512,256,512s89.86-12.329,127.372-33.887v-96.337
	C383.371,349.624,357.307,323.558,325.154,323.558z"/>
<path style="fill:#C75163;" d="M383.371,381.776c0-32.153-26.065-58.218-58.218-58.218h-26.696
	c0,23.255-18.699,73.793-41.882,74.624V511.99c46.154-0.102,89.44-12.409,126.797-33.878V381.776z"/>
<path style="fill:#FD8469;" d="M253.862,288.39c-14.043,0-25.464-11.423-25.464-25.464c0-2.381,1.929-4.31,4.31-4.31
	s4.31,1.929,4.31,4.31c0,9.288,7.558,16.844,16.844,16.844c9.287,0,16.844-7.558,16.844-16.844c0-2.381,1.929-4.31,4.31-4.31
	s4.31,1.929,4.31,4.31C279.326,276.968,267.904,288.39,253.862,288.39z"/>
<path style="fill:#FC6F58;" d="M279.326,262.927c0-2.381-1.929-4.31-4.31-4.31s-4.31,1.929-4.31,4.31
	c0,8.363-6.132,15.301-14.133,16.606v8.709C269.345,286.882,279.326,276.051,279.326,262.927z"/>
<rect x="312.889" y="341.333" style="fill:#31BAFD;" width="113.778" height="56.889"/>
<rect x="318.061" y="347.367" style="fill:#84DBFF;" width="103.434" height="44.822"/>
<path style="fill:#B5F1F4;" d="M369.778,485.369c9.857-4.899,19.358-10.409,28.444-16.491v-70.656h-28.444V485.369z"/>
<g>
	<rect x="408.1" y="356.073" style="fill:#2B9ED8;" width="5.644" height="28.224"/>
	<rect x="367.606" y="379.018" style="fill:#2B9ED8;" width="5.644" height="5.268"/>
	<path style="fill:#2B9ED8;" d="M401.258,384.903H380.09v-29.446h21.168V384.903z M385.734,379.259h9.878v-18.156h-9.878V379.259z"
		/>
	<path style="fill:#2B9ED8;" d="M360.777,384.903h-21.168v-29.446h21.168V384.903z M345.253,379.259h9.878v-18.156h-9.878V379.259z"
		/>
</g>
<g>
</g>
<g>
</g>
<g>
</g>
<g>
</g>
<g>
</g>
<g>
</g>
<g>
</g>
<g>
</g>
<g>
</g>
<g>
</g>
<g>
</g>
<g>
</g>
<g>
</g>
<g>
</g>
<g>
</g>
</svg>
