<?xml version="1.0" encoding="iso-8859-1"?>
<!-- Generator: Adobe Illustrator 19.0.0, SVG Export Plug-In . SVG Version: 6.00 Build 0)  -->
<svg version="1.1" id="Layer_1" xmlns="http://www.w3.org/2000/svg" xmlns:xlink="http://www.w3.org/1999/xlink" x="0px" y="0px"
	 viewBox="0 0 512 512" style="enable-background:new 0 0 512 512;" xml:space="preserve">
<circle style="fill:#FD8469;" cx="256" cy="256" r="256"/>
<path style="fill:#FC6F58;" d="M512,256c0-6.473-0.245-12.89-0.717-19.242L344.985,70.459l-155.246,160.27l-31.789,16.356
	l47.066,47.066l-6.546,0.972l48.18,48.18l129.708,138.678C457.066,438.906,512,353.875,512,256z"/>
<path style="fill:#FED8B2;" d="M281.09,319.538v-27.822h-50.176v27.822c0,2.22-1.8,4.02-4.02,4.02h-34.576v96.011h127.371v-96.011
	h-34.576C282.889,323.558,281.09,321.758,281.09,319.538z"/>
<path style="fill:#E6F3FF;" d="M325.154,323.558h-40.71v-5.929h-56.889v5.929h-40.71c-32.153,0-58.218,26.065-58.218,58.218v96.337
	C166.141,499.671,209.63,512,256,512s89.86-12.329,127.372-33.887v-96.337C383.372,349.624,357.307,323.558,325.154,323.558z"/>
<path style="fill:#CFDBE6;" d="M325.154,323.558h-40.71v-5.929h-30.168v194.341c0.576,0.003,1.146,0.029,1.722,0.029
	c46.37,0,89.86-12.329,127.372-33.887v-96.337C383.372,349.624,357.307,323.558,325.154,323.558z"/>
<path style="fill:#B8C9D9;" d="M245.334,317.63l-70.94,28.762c-2.251,0.912-3.725,3.1-3.725,5.529v145.482
	c3.979,1.407,8.001,2.724,12.067,3.936V360.265c0-2.427,1.47-4.611,3.717-5.527l91.177-37.109H245.334z"/>
<circle style="fill:#FED8B2;" cx="172.597" cy="233.417" r="20.052"/>
<circle style="fill:#EABE96;" cx="335.127" cy="233.417" r="20.052"/>
<path style="fill:#F4E3C3;" d="M256.122,316.926h-4.518c-41.796,0-75.678-33.882-75.678-75.678v-69.096
	c0-41.796,33.882-75.678,75.678-75.678h4.518c41.796,0,75.678,33.882,75.678,75.678v69.096
	C331.8,283.045,297.918,316.926,256.122,316.926z"/>
<path style="fill:#FED8B2;" d="M256.122,96.475h-1.845v220.451h1.845c41.796,0,75.678-33.882,75.678-75.678v-69.096
	C331.8,130.357,297.918,96.475,256.122,96.475z"/>
<path style="fill:#FFD15D;" d="M169.246,169.191v6.354v57.877h12.062V199.48c-0.003,0-0.005,0-0.007,0
	c23.378-2.376,46.501-6.175,68.38-12.71V87.071C205.103,87.995,169.246,124.394,169.246,169.191z"/>
<path style="fill:#F9B54C;" d="M323.593,122.049c-14.862-21.171-39.445-35.023-67.277-35.023h-4.906
	c-0.579,0-1.152,0.031-1.729,0.043v99.699c12.379-3.698,24.366-8.261,35.764-13.96c11.352,13.036,24.462,24.678,38.934,34.121
	v26.491h14.102v-43.268v-20.963C338.48,151.645,332.964,135.397,323.593,122.049z"/>
<circle style="fill:#59595B;" cx="217.126" cy="224.521" r="7.794"/>
<circle style="fill:#272525;" cx="290.599" cy="224.521" r="7.794"/>
<path style="fill:#FD8469;" d="M253.862,288.39c-14.043,0-25.464-11.423-25.464-25.464c0-2.381,1.929-4.31,4.31-4.31
	s4.31,1.929,4.31,4.31c0,9.288,7.558,16.844,16.844,16.844c9.287,0,16.844-7.558,16.844-16.844c0-2.381,1.929-4.31,4.31-4.31
	s4.31,1.929,4.31,4.31C279.328,276.968,267.905,288.39,253.862,288.39z"/>
<path style="fill:#FC6F58;" d="M279.328,262.927c0-2.381-1.929-4.31-4.31-4.31s-4.31,1.929-4.31,4.31
	c0,9.149-7.335,16.601-16.431,16.824v8.62C268.128,288.146,279.328,276.828,279.328,262.927z"/>
<rect x="227.556" y="317.199" style="fill:#A82116;" width="56.889" height="8.62"/>
<path style="fill:#C1321F;" d="M215.2,334.989c-10.23,10.23-14.967,23.867-14.227,37.257c13.391,0.74,27.027-3.998,37.257-14.227
	c10.23-10.23,14.967-23.867,14.227-37.257C239.066,320.022,225.43,324.76,215.2,334.989z"/>
<g>
	<path style="fill:#A82116;" d="M296.801,334.989c10.23,10.23,14.967,23.867,14.227,37.257c-13.391,0.74-27.027-3.998-37.257-14.227
		c-10.23-10.23-14.967-23.867-14.227-37.257C272.936,320.022,286.572,324.76,296.801,334.989z"/>
	<circle style="fill:#A82116;" cx="256" cy="324.094" r="11.205"/>
</g>
<path style="fill:#991A14;" d="M256.002,312.889c-0.588,0-1.16,0.059-1.724,0.147v22.119c0.564,0.088,1.136,0.147,1.724,0.147
	c6.189,0,11.205-5.017,11.205-11.205S262.189,312.889,256.002,312.889z"/>
<circle style="fill:#B8C9D9;" cx="213.333" cy="404.256" r="7.758"/>
<circle style="fill:#A7B8C6;" cx="305.131" cy="404.256" r="7.758"/>
<circle style="fill:#B8C9D9;" cx="213.333" cy="462.869" r="7.758"/>
<circle style="fill:#A7B8C6;" cx="305.131" cy="462.869" r="7.758"/>
<rect id="SVGCleanerId_0" x="168.943" y="177.993" style="fill:#B8C9D9;" width="170.667" height="28.444"/>
<rect id="SVGCleanerId_1" x="254.276" y="177.993" style="fill:#A7B8C6;" width="85.333" height="28.444"/>
<path style="fill:#935635;" d="M422.433,405.98h-1.827c-5.22,0-9.452-4.232-9.452-9.452v-62.952h20.733v62.952
	C431.887,401.748,427.654,405.98,422.433,405.98z"/>
<path style="fill:#E6F3FF;" d="M411.153,199.111c0,0,38.012,14.365,34.211,142.222h-34.211V199.111z"/>
<path style="fill:#CFDBE6;" d="M411.153,199.111v12.928c10.623,16.263,23.578,52.076,21.282,129.295h12.929
	C449.164,213.476,411.153,199.111,411.153,199.111z"/>
<path style="fill:#E6F3FF;" d="M356.419,102.357c0-27.729-22.48-50.209-50.209-50.209c-5.842,0-11.445,1.008-16.66,2.843
	c-9.563-7.963-21.856-12.755-35.273-12.755s-25.71,4.792-35.273,12.755c-5.215-1.834-10.819-2.843-16.66-2.843
	c-27.729,0-50.209,22.48-50.209,50.209c0,14.901,6.497,28.281,16.808,37.476v64.45h170.667v-64.45
	C349.92,130.638,356.419,117.258,356.419,102.357z"/>
<path style="fill:#CFDBE6;" d="M306.21,52.148c-5.842,0-11.445,1.008-16.66,2.843c-9.563-7.961-21.856-12.755-35.271-12.755v162.047
	h85.333v-64.45c10.311-9.195,16.808-22.575,16.808-37.476C356.419,74.628,333.939,52.148,306.21,52.148z"/>
<g>
	<rect id="SVGCleanerId_0_1_" x="168.943" y="177.993" style="fill:#B8C9D9;" width="170.667" height="28.444"/>
</g>
<g>
	<rect id="SVGCleanerId_1_1_" x="254.276" y="177.993" style="fill:#A7B8C6;" width="85.333" height="28.444"/>
</g>
<g>
</g>
<g>
</g>
<g>
</g>
<g>
</g>
<g>
</g>
<g>
</g>
<g>
</g>
<g>
</g>
<g>
</g>
<g>
</g>
<g>
</g>
<g>
</g>
<g>
</g>
<g>
</g>
<g>
</g>
</svg>
