<?xml version="1.0" encoding="iso-8859-1"?>
<!-- Generator: Adobe Illustrator 19.0.0, SVG Export Plug-In . SVG Version: 6.00 Build 0)  -->
<svg version="1.1" id="Layer_1" xmlns="http://www.w3.org/2000/svg" xmlns:xlink="http://www.w3.org/1999/xlink" x="0px" y="0px"
	 viewBox="0 0 512 512" style="enable-background:new 0 0 512 512;" xml:space="preserve">
<circle style="fill:#324A5E;" cx="256" cy="256" r="256"/>
<path style="fill:#2B3B4E;" d="M382.166,478.787c66.972-38.009,115.119-105.332,126.986-184.532l-167.54-167.539L223.63,166.741
	L140.791,206.7l29.186,29.184l-13.974,8.797l45.003,45.003l-3.929,4.015L382.166,478.787z"/>
<path style="fill:#B8C9D9;" d="M161.856,218.074c-12.698,0-23.723-9.533-24.728-22.194c-0.409-5.132,0.821-9.938,3.177-14.008
	c-2.058-3.553-3.255-7.666-3.255-12.067c0-13.329,10.805-24.135,24.135-24.135c0-13.176,10.557-23.885,23.674-24.13
	c13.526-0.253,24.595,11.235,24.595,24.762v26.184c0,25.178-20.411,45.587-45.587,45.587H161.856z"/>
<path style="fill:#9BADBC;" d="M350.144,218.074c12.698,0,23.723-9.533,24.728-22.194c0.409-5.132-0.821-9.938-3.177-14.008
	c2.058-3.553,3.255-7.666,3.255-12.067c0-13.329-10.805-24.135-24.135-24.135c0-13.176-10.557-23.885-23.674-24.13
	c-13.526-0.253-24.595,11.235-24.595,24.762v26.184c0,25.178,20.411,45.587,45.587,45.587H350.144z"/>
<path style="fill:#FED8B2;" d="M281.09,319.538v-27.822h-50.176v27.822c0,2.22-1.8,4.02-4.02,4.02h-34.576v96.011h127.371v-96.011
	h-34.576C282.89,323.558,281.09,321.758,281.09,319.538z"/>
<path style="fill:#EABE96;" d="M319.686,323.558H285.11c-2.22,0-4.02-1.8-4.02-4.02v-27.822h-25.664v127.853h64.26V323.558z"/>
<circle style="fill:#FED8B2;" cx="172.597" cy="233.417" r="20.052"/>
<circle style="fill:#EABE96;" cx="335.127" cy="233.417" r="20.052"/>
<path style="fill:#F4E3C3;" d="M256.122,316.926h-4.518c-41.796,0-75.678-33.882-75.678-75.678v-69.096
	c0-41.796,33.882-75.678,75.678-75.678h4.518c41.796,0,75.678,33.882,75.678,75.678v69.096
	C331.8,283.045,297.918,316.926,256.122,316.926z"/>
<path style="fill:#FED8B2;" d="M256.122,96.475h-0.696v220.451h0.696c41.796,0,75.678-33.882,75.678-75.678v-69.096
	C331.8,130.357,297.918,96.475,256.122,96.475z"/>
<path style="fill:#FD8469;" d="M253.864,288.39c-14.043,0-25.464-11.423-25.464-25.464c0-2.381,1.929-4.31,4.31-4.31
	s4.31,1.929,4.31,4.31c0,9.288,7.558,16.844,16.844,16.844c9.287,0,16.844-7.558,16.844-16.844c0-2.381,1.929-4.31,4.31-4.31
	c2.381,0,4.31,1.929,4.31,4.31C279.326,276.968,267.904,288.39,253.864,288.39z"/>
<circle style="fill:#59595B;" cx="217.126" cy="224.521" r="7.794"/>
<circle style="fill:#272525;" cx="290.599" cy="224.521" r="7.794"/>
<path style="fill:#E6F3FF;" d="M253.862,354.263c-23.449,0-42.456-7.256-42.456-30.704H184.71
	c-32.153,0-58.218,26.065-58.218,58.218v95.075c37.841,22.238,81.894,35.035,128.934,35.138V354.247
	C254.907,354.254,254.386,354.263,253.862,354.263z"/>
<path style="fill:#CFDBE6;" d="M323.017,323.558H296.32c0,22.924-18.172,30.367-40.894,30.689V511.99c0.191,0,0.383,0.01,0.574,0.01
	c45.496,0,88.211-11.883,125.235-32.692v-97.532C381.235,349.624,355.169,323.558,323.017,323.558z"/>
<path style="fill:#A1B5C4;" d="M249.968,352.401V511.9c2.008,0.047,4.013,0.1,6.034,0.1c2.02,0,4.025-0.053,6.034-0.1V352.401
	c-1.972,0.093-3.984,0.138-6.034,0.138C253.952,352.539,251.938,352.494,249.968,352.401z"/>
<path style="fill:#8EA3AF;" d="M256.002,352.539c-0.195,0-0.381-0.012-0.574-0.014V511.99c0.191,0.002,0.383,0.01,0.574,0.01
	c2.02,0,4.025-0.053,6.034-0.1V352.401C260.063,352.494,258.05,352.539,256.002,352.539z"/>
<polygon style="fill:#CFDBE6;" points="227.557,323.558 256,352.539 227.557,380.983 199.113,323.558 "/>
<polygon style="fill:#A9BBC9;" points="284.444,323.558 256.002,352.539 284.444,380.983 312.889,323.558 "/>
<g>
	<path style="fill:#FED8B2;" d="M292.199,173.621c-0.952,0-1.908-0.314-2.707-0.96c-9.581-7.749-21.161-11.845-33.492-11.845
		c-12.331,0-23.911,4.096-33.492,11.845c-1.853,1.5-4.565,1.207-6.061-0.64c-1.498-1.85-1.21-4.563,0.64-6.061
		c10.973-8.875,24.791-13.764,38.912-13.764s27.939,4.889,38.912,13.764c1.85,1.496,2.138,4.21,0.64,6.061
		C294.7,173.075,293.457,173.621,292.199,173.621z"/>
	<path style="fill:#FED8B2;" d="M299.956,156.031c-0.952,0-1.908-0.314-2.707-0.96c-11.8-9.544-26.064-14.589-41.25-14.589
		c-15.186,0-29.45,5.046-41.25,14.589c-1.853,1.5-4.565,1.207-6.061-0.64c-1.498-1.85-1.21-4.563,0.64-6.061
		c13.16-10.647,29.734-16.508,46.67-16.508s33.509,5.861,46.67,16.508c1.85,1.496,2.138,4.21,0.64,6.061
		C302.459,155.482,301.215,156.031,299.956,156.031z"/>
</g>
<path style="fill:#FC6F58;" d="M279.326,262.927c0-2.381-1.929-4.31-4.31-4.31c-2.381,0-4.31,1.929-4.31,4.31
	c0,8.761-6.723,15.974-15.281,16.767v8.62C268.738,287.497,279.326,276.44,279.326,262.927z"/>
<g>
	<path style="fill:#EABE96;" d="M294.912,165.962c-10.973-8.875-24.791-13.764-38.912-13.764c-0.191,0-0.383,0.01-0.574,0.012v8.63
		c0.193-0.002,0.381-0.024,0.574-0.024c12.329,0,23.911,4.096,33.492,11.845c0.798,0.646,1.757,0.96,2.707,0.96
		c1.257,0,2.501-0.546,3.353-1.6C297.051,170.172,296.763,167.458,294.912,165.962z"/>
	<path style="fill:#EABE96;" d="M302.67,148.37c-13.16-10.647-29.734-16.508-46.67-16.508c-0.191,0-0.383,0.01-0.574,0.012v8.62
		c0.191-0.002,0.383-0.012,0.574-0.012c15.186,0,29.449,5.046,41.25,14.589c0.798,0.646,1.757,0.96,2.707,0.96
		c1.257,0,2.503-0.546,3.353-1.6C304.809,152.581,304.521,149.868,302.67,148.37z"/>
</g>
<rect x="279.273" y="405.549" style="fill:#A1B5C4;" width="77.576" height="13.791"/>
<path style="fill:#B5F1F4;" d="M433.347,254.836v-19.451h4.668v-12.929h-33.042v12.929h4.668v19.451
	c-20.445,5.263-35.554,23.823-35.554,45.913c0,26.183,21.225,47.407,47.407,47.407c26.183,0,47.407-21.225,47.407-47.407
	C468.902,278.659,453.794,260.099,433.347,254.836z"/>
<path style="fill:#84DBFF;" d="M433.347,254.836v-19.451h4.668v-12.929h-17.094v125.687c0.191,0.002,0.381,0.014,0.574,0.014
	c26.183,0,47.407-21.225,47.407-47.407C468.902,278.659,453.794,260.099,433.347,254.836z"/>
<path style="fill:#FC6F58;" d="M445.918,287.82c-18.675-2.874-37.352-8.62-57.463-4.31c-4.048,0.771-8.04,1.595-11.998,2.438
	c-1.529,4.658-2.367,9.631-2.367,14.801c0,26.183,21.225,47.407,47.407,47.407s47.407-21.225,47.407-47.407
	c0-5.013-0.786-9.842-2.227-14.377C460.178,289.054,452.205,288.718,445.918,287.82z"/>
<path style="fill:#F1543F;" d="M466.675,286.372c-6.497,2.682-14.47,2.346-20.758,1.448c-8.29-1.276-16.581-3.113-24.997-4.391
	v64.712c0.191,0.002,0.381,0.014,0.574,0.014c26.183,0,47.407-21.225,47.407-47.407
	C468.902,295.736,468.116,290.907,466.675,286.372z"/>
<g>
</g>
<g>
</g>
<g>
</g>
<g>
</g>
<g>
</g>
<g>
</g>
<g>
</g>
<g>
</g>
<g>
</g>
<g>
</g>
<g>
</g>
<g>
</g>
<g>
</g>
<g>
</g>
<g>
</g>
</svg>
