<?xml version="1.0" encoding="iso-8859-1"?>
<!-- Generator: Adobe Illustrator 19.0.0, SVG Export Plug-In . SVG Version: 6.00 Build 0)  -->
<svg version="1.1" id="Layer_1" xmlns="http://www.w3.org/2000/svg" xmlns:xlink="http://www.w3.org/1999/xlink" x="0px" y="0px"
	 viewBox="0 0 512 512" style="enable-background:new 0 0 512 512;" xml:space="preserve">
<circle style="fill:#FFD15D;" cx="256" cy="256" r="256"/>
<path style="fill:#F9B54C;" d="M437.019,437.019c66.336-66.334,88.638-160.013,66.943-244.752l-49.023-49.023l-18.339,77.55
	L319.684,103.879l-3.899,6.442L282.81,77.346l-40.888,44.477l-101.129,84.878l26.421,26.422l-9.5,13.705l45.715,45.715l-3.675,3.805
	l50.26,50.26l132.439,132.039C401.98,467.537,420.364,453.673,437.019,437.019z"/>
<path style="fill:#FED8B2;" d="M281.088,319.538v-27.822h-50.176v27.822c0,2.22-1.8,4.02-4.02,4.02h-34.576v96.011h127.371v-96.011
	H285.11C282.888,323.558,281.088,321.758,281.088,319.538z"/>
<path style="fill:#EABE96;" d="M319.686,323.558H285.11c-2.22,0-4.02-1.8-4.02-4.02v-27.822h-26.236v127.853h64.834v-96.011H319.686
	z"/>
<circle style="fill:#FED8B2;" cx="172.597" cy="233.417" r="20.052"/>
<circle style="fill:#EABE96;" cx="335.127" cy="233.417" r="20.052"/>
<path style="fill:#F4E3C3;" d="M256.122,316.926h-4.518c-41.796,0-75.678-33.882-75.678-75.678v-69.096
	c0-41.796,33.882-75.678,75.678-75.678h4.518c41.796,0,75.678,33.882,75.678,75.678v69.096
	C331.8,283.045,297.917,316.926,256.122,316.926z"/>
<path style="fill:#FED8B2;" d="M256.122,96.475h-1.271v220.451h1.271c41.796,0,75.678-33.882,75.678-75.678v-69.096
	C331.8,130.357,297.917,96.475,256.122,96.475z"/>
<circle style="fill:#59595B;" cx="217.126" cy="224.521" r="7.794"/>
<circle style="fill:#272525;" cx="290.599" cy="224.521" r="7.794"/>
<path style="fill:#31BAFD;" d="M325.154,323.558h-26.696c0,23.449-19.008,43.92-42.456,43.92s-42.456-20.473-42.456-43.92h-26.696
	c-32.153,0-58.218,26.065-58.218,58.218v96.337C166.14,499.671,209.63,512,256,512s89.86-12.329,127.372-33.887v-96.337
	C383.372,349.624,357.307,323.558,325.154,323.558z"/>
<path style="fill:#2B9ED8;" d="M325.154,323.558h-26.696c0,23.449-19.008,43.92-42.456,43.92c-0.384,0-0.765-0.021-1.148-0.031
	v144.534c0.384,0.002,0.764,0.019,1.148,0.019c46.37,0,89.86-12.329,127.372-33.887v-96.337
	C383.372,349.624,357.307,323.558,325.154,323.558z"/>
<path style="fill:#324A5E;" d="M256,389.563c35.993,0,65.396-30.355,67.358-66.005h-24.902c0,23.449-19.008,43.92-42.456,43.92
	s-42.456-20.471-42.456-43.92h-24.902C190.605,359.208,220.008,389.563,256,389.563z"/>
<path style="fill:#2B3B4E;" d="M298.456,323.558c0,23.449-19.008,43.92-42.456,43.92c-0.384,0-0.765-0.021-1.148-0.031v22.085
	c0.384,0.007,0.764,0.031,1.148,0.031c35.993,0,65.396-30.355,67.358-66.005L298.456,323.558L298.456,323.558z"/>
<path style="fill:#FD8469;" d="M256,302.378c-26.14,0-47.407-21.268-47.407-47.407c0-5.704,4.639-10.343,10.343-10.343
	s10.343,4.639,10.343,10.343c0,14.734,11.986,26.721,26.721,26.721s26.721-11.986,26.721-26.721c0-5.704,4.639-10.343,10.343-10.343
	s10.343,4.639,10.343,10.343C303.407,281.11,282.14,302.378,256,302.378z"/>
<path style="fill:#FFFFFF;" d="M293.064,250.661c2.381,0,4.31,1.929,4.31,4.31c0,22.812-18.561,41.374-41.374,41.374
	s-41.374-18.561-41.374-41.374c0-2.381,1.929-4.31,4.31-4.31s4.31,1.929,4.31,4.31c0,18.061,14.693,32.754,32.754,32.754
	s32.754-14.693,32.754-32.754C288.754,252.59,290.683,250.661,293.064,250.661 M293.064,238.594c-9.03,0-16.377,7.347-16.377,16.377
	c0,11.407-9.28,20.687-20.687,20.687c-11.407,0-20.687-9.28-20.687-20.687c0-9.03-7.347-16.377-16.377-16.377
	c-9.03,0-16.377,7.347-16.377,16.377c0,29.468,23.974,53.441,53.441,53.441c29.467,0,53.441-23.973,53.441-53.441
	C309.441,245.941,302.094,238.594,293.064,238.594L293.064,238.594z"/>
<path style="fill:#FC6F58;" d="M293.064,244.627c-5.704,0-10.343,4.639-10.343,10.343c0,14.734-11.986,26.721-26.721,26.721
	c-0.388,0-0.765-0.041-1.148-0.059v20.716c0.383,0.009,0.764,0.029,1.148,0.029c26.14,0,47.407-21.268,47.407-47.407
	C303.407,249.268,298.768,244.627,293.064,244.627z"/>
<path style="fill:#E6F3FF;" d="M293.064,238.594c-9.03,0-16.377,7.347-16.377,16.377c0,11.407-9.28,20.687-20.687,20.687
	c-0.388,0-0.765-0.036-1.148-0.059v12.067c0.384,0.014,0.76,0.059,1.148,0.059c18.061,0,32.754-14.693,32.754-32.754
	c0-2.381,1.929-4.31,4.31-4.31s4.31,1.929,4.31,4.31c0,22.812-18.561,41.374-41.374,41.374c-0.384,0-0.765-0.019-1.148-0.029v12.067
	c0.383,0.009,0.764,0.029,1.148,0.029c29.467,0,53.441-23.973,53.441-53.441C309.441,245.941,302.094,238.594,293.064,238.594z"/>
<path style="fill:#FC6F58;" d="M371.693,181.872c2.058-3.553,3.255-7.666,3.255-12.067c0-13.329-10.805-24.135-24.135-24.135
	c0-12.262-9.149-22.378-20.99-23.921c-4.515-17.248-20.202-29.974-38.865-29.974c-0.309,0-0.607,0.038-0.914,0.047
	c-3.539-15.363-17.272-26.831-33.711-26.831c-16.618,0-30.489,11.714-33.839,27.331c-2.069-0.329-4.175-0.548-6.337-0.548
	c-19.125,0-35.118,13.367-39.172,31.265c-9.216,3.4-15.8,12.235-15.8,22.631c-13.329,0-24.135,10.805-24.135,24.135
	c0,4.401,1.196,8.514,3.255,12.067c-2.358,4.07-3.586,8.876-3.177,14.008c1.007,12.659,12.029,22.194,24.728,22.194h2.012
	c25.178,0,45.587-20.411,45.587-45.587v-0.927c2.181,0.365,4.418,0.567,6.704,0.567c2.488,0,4.91-0.257,7.273-0.69
	c4.522,13.858,17.534,23.881,32.904,23.881c15.146,0,27.988-9.742,32.687-23.29c0.646,0.031,1.283,0.098,1.936,0.098
	c4.029,0,7.918-0.6,11.586-1.703v2.064c0,25.178,20.411,45.587,45.587,45.587h2.012c12.698,0,23.723-9.533,24.728-22.194
	C375.279,190.748,374.051,185.942,371.693,181.872z"/>
<path style="fill:#F1543F;" d="M371.693,181.872c2.058-3.553,3.255-7.666,3.255-12.067c0-13.329-10.805-24.135-24.135-24.135
	c0-12.262-9.149-22.378-20.99-23.921c-4.515-17.248-20.202-29.974-38.865-29.974c-0.309,0-0.607,0.038-0.914,0.047
	c-3.539-15.363-17.272-26.831-33.711-26.831c-0.5,0-0.988,0.045-1.483,0.065v130.201c0.495,0.021,0.983,0.06,1.483,0.06
	c15.146,0,27.988-9.742,32.687-23.29c0.646,0.031,1.283,0.098,1.936,0.098c4.029,0,7.918-0.6,11.586-1.703v2.064
	c0,25.178,20.411,45.587,45.587,45.587h2.012c12.698,0,23.723-9.533,24.728-22.194C375.279,190.748,374.051,185.942,371.693,181.872
	z"/>
<circle style="fill:#FC6F58;" cx="256" cy="240.485" r="17.239"/>
<path style="fill:#F1543F;" d="M256,223.246c-0.388,0-0.767,0.033-1.148,0.059v34.363c0.381,0.026,0.76,0.059,1.148,0.059
	c9.521,0,17.239-7.718,17.239-17.239C273.239,230.965,265.521,223.246,256,223.246z"/>
<g>
	<polygon style="fill:#84DBFF;" points="277.549,399.084 283.408,410.958 296.512,412.862 287.03,422.103 289.268,435.153 
		277.549,428.992 265.83,435.153 268.067,422.103 258.586,412.862 271.689,410.958 	"/>
	<polygon style="fill:#84DBFF;" points="305.705,449.619 311.567,461.491 324.668,463.396 315.187,472.638 317.426,485.688 
		305.705,479.527 293.986,485.688 296.224,472.638 286.742,463.396 299.846,461.491 	"/>
	<polygon style="fill:#84DBFF;" points="180.148,375.203 186.008,387.075 199.111,388.98 189.63,398.222 191.867,411.272 
		180.148,405.111 168.429,411.272 170.667,398.222 161.185,388.98 174.289,387.075 	"/>
	<polygon style="fill:#84DBFF;" points="180.148,460.536 186.008,472.409 199.111,474.314 189.63,483.556 191.867,496.606 
		180.148,490.444 168.429,496.606 170.667,483.556 161.185,474.314 174.289,472.409 	"/>
	<polygon style="fill:#84DBFF;" points="350.815,346.758 356.674,358.631 369.778,360.536 360.296,369.778 362.534,382.828 
		350.815,376.667 339.096,382.828 341.333,369.778 331.852,360.536 344.955,358.631 	"/>
</g>
<rect x="426.563" y="242.123" style="fill:#324A5E;" width="5.172" height="89.815"/>
<ellipse style="fill:#C1321F;" cx="429.149" cy="191.836" rx="45.782" ry="58.82"/>
<g>
</g>
<g>
</g>
<g>
</g>
<g>
</g>
<g>
</g>
<g>
</g>
<g>
</g>
<g>
</g>
<g>
</g>
<g>
</g>
<g>
</g>
<g>
</g>
<g>
</g>
<g>
</g>
<g>
</g>
</svg>
