<?xml version="1.0" encoding="iso-8859-1"?>
<!-- Generator: Adobe Illustrator 19.0.0, SVG Export Plug-In . SVG Version: 6.00 Build 0)  -->
<svg version="1.1" id="Layer_1" xmlns="http://www.w3.org/2000/svg" xmlns:xlink="http://www.w3.org/1999/xlink" x="0px" y="0px"
	 viewBox="0 0 512 512" style="enable-background:new 0 0 512 512;" xml:space="preserve">
<circle style="fill:#E6F3FF;" cx="256" cy="256" r="256"/>
<path style="fill:#CFDBE6;" d="M437.019,437.019c49.554-49.554,74.531-114.369,74.961-179.315l-172.37-172.37L218.97,242.979
	l-61.945,3.069l49.928,49.928l-5.218,2.172l50.012,50.012l130.572,130.56C401.898,467.601,420.328,453.711,437.019,437.019z"/>
<path style="fill:#804000;" d="M404.256,284.444h-12.067v-37.64c0-7.289-5.928-13.215-13.217-13.215h-46.833
	c-7.289,0-13.215,5.927-13.215,13.215v37.64h-12.067v-37.64c0-13.941,11.342-25.283,25.283-25.283h46.833
	c13.943,0,25.285,11.342,25.285,25.283V284.444z"/>
<path style="fill:#B97850;" d="M271.157,399.515h168.8c8.37,0,15.157-6.785,15.157-15.155V272.449
	c0-8.37-6.785-15.157-15.157-15.157h-168.8c-8.37,0-15.157,6.785-15.157,15.157V384.36C256,392.73,262.785,399.515,271.157,399.515z
	"/>
<path style="fill:#935635;" d="M439.956,257.293h-83.394v142.222h83.394c8.37,0,15.157-6.785,15.157-15.157V272.448
	C455.111,264.078,448.326,257.293,439.956,257.293z"/>
<path style="fill:#FF6472;" d="M325.154,323.558H285.11c-2.22,0-4.02-1.8-4.02-4.02v-27.822h-50.176v27.822
	c0,2.22-1.8,4.02-4.02,4.02h-40.045c-32.153,0-58.218,26.065-58.218,58.218v96.337C166.14,499.671,209.63,512,256,512
	s89.86-12.329,127.372-33.887v-96.337C383.372,349.624,357.307,323.558,325.154,323.558z"/>
<path style="fill:#C75163;" d="M325.154,323.558H285.11c-2.22,0-4.02-1.8-4.02-4.02v-27.822h-26.236v220.265
	c0.384,0.002,0.764,0.019,1.148,0.019c46.37,0,89.86-12.329,127.372-33.887v-96.337
	C383.372,349.624,357.307,323.558,325.154,323.558z"/>
<circle style="fill:#FED8B2;" cx="172.597" cy="233.417" r="20.052"/>
<circle style="fill:#EABE96;" cx="335.127" cy="233.417" r="20.052"/>
<path style="fill:#F4E3C3;" d="M256.122,316.926h-4.518c-41.796,0-75.678-33.882-75.678-75.678v-69.096
	c0-41.796,33.882-75.678,75.678-75.678h4.518c41.796,0,75.678,33.882,75.678,75.678v69.096
	C331.8,283.045,297.917,316.926,256.122,316.926z"/>
<path style="fill:#FED8B2;" d="M256.122,96.475h-1.271v220.451h1.271c41.796,0,75.678-33.882,75.678-75.678v-69.096
	C331.8,130.357,297.917,96.475,256.122,96.475z"/>
<path style="fill:#935635;" d="M323.593,122.051c-14.862-21.171-39.445-35.023-67.277-35.023h-4.906
	c-45.378,0-82.165,36.786-82.165,82.165v6.354v57.877h12.062v-33.942c-0.003,0-0.005,0-0.007,0
	c36.605-3.718,72.597-10.899,104.145-26.671c11.352,13.036,24.462,24.678,38.934,34.121v26.491h14.102v-43.268v-20.963
	C338.48,151.645,332.962,135.397,323.593,122.051z"/>
<path style="fill:#804000;" d="M323.593,122.049c-14.862-21.171-39.445-35.023-67.277-35.023h-1.464v98.151
	c10.55-3.396,20.787-7.468,30.592-12.369c11.352,13.038,24.462,24.678,38.934,34.121v26.491h14.102v-43.268v-20.963
	C338.48,151.645,332.962,135.397,323.593,122.049z"/>
<circle style="fill:#59595B;" cx="217.126" cy="224.521" r="7.794"/>
<circle style="fill:#272525;" cx="290.599" cy="224.521" r="7.794"/>
<path style="fill:#FD8469;" d="M253.862,288.39c-14.043,0-25.464-11.423-25.464-25.464c0-2.381,1.929-4.31,4.31-4.31
	s4.31,1.929,4.31,4.31c0,9.288,7.558,16.844,16.844,16.844c9.287,0,16.844-7.558,16.844-16.844c0-2.381,1.929-4.31,4.31-4.31
	s4.31,1.929,4.31,4.31C279.326,276.968,267.904,288.39,253.862,288.39z"/>
<path style="fill:#FC6F58;" d="M279.326,262.927c0-2.381-1.929-4.31-4.31-4.31s-4.31,1.929-4.31,4.31
	c0,8.954-7.028,16.279-15.856,16.794v8.62C268.433,287.815,279.326,276.633,279.326,262.927z"/>
<rect x="168.943" y="85.333" style="fill:#C75163;" width="170.667" height="85.333"/>
<rect x="254.845" y="85.333" style="fill:#AF4156;" width="84.764" height="85.333"/>
<rect x="398.222" y="257.293" style="fill:#804000;" width="28.444" height="142.222"/>
<g>
</g>
<g>
</g>
<g>
</g>
<g>
</g>
<g>
</g>
<g>
</g>
<g>
</g>
<g>
</g>
<g>
</g>
<g>
</g>
<g>
</g>
<g>
</g>
<g>
</g>
<g>
</g>
<g>
</g>
</svg>
