<?xml version="1.0" encoding="iso-8859-1"?>
<!-- Generator: Adobe Illustrator 19.0.0, SVG Export Plug-In . SVG Version: 6.00 Build 0)  -->
<svg version="1.1" id="Layer_1" xmlns="http://www.w3.org/2000/svg" xmlns:xlink="http://www.w3.org/1999/xlink" x="0px" y="0px"
	 viewBox="0 0 512 512" style="enable-background:new 0 0 512 512;" xml:space="preserve">
<circle style="fill:#90DFAA;" cx="256" cy="256" r="256"/>
<path style="fill:#6CBC82;" d="M374.227,483.106c81.561-42.546,137.337-127.726,137.759-225.985l-74.114-74.114l-22.042,6.034
	L315.373,88.083l-26.876,89.226l-213.525,7.452L374.227,483.106z"/>
<path style="fill:#FED8B2;" d="M281.088,319.538v-27.822h-50.176v27.822c0,2.22-1.8,4.02-4.02,4.02h-34.576v96.011h127.371v-96.011
	H285.11C282.888,323.558,281.088,321.758,281.088,319.538z"/>
<path style="fill:#EABE96;" d="M319.686,323.558H285.11c-2.22,0-4.02-1.8-4.02-4.02v-27.822H256v127.853h63.686V323.558z"/>
<circle style="fill:#FED8B2;" cx="172.597" cy="233.417" r="20.052"/>
<circle style="fill:#EABE96;" cx="335.127" cy="233.417" r="20.052"/>
<path style="fill:#F4E3C3;" d="M256.122,316.926h-4.518c-41.796,0-75.678-33.882-75.678-75.678v-69.096
	c0-41.796,33.882-75.678,75.678-75.678h4.518c41.796,0,75.678,33.882,75.678,75.678v69.096
	C331.8,283.045,297.917,316.926,256.122,316.926z"/>
<path style="fill:#FED8B2;" d="M256.122,96.475H256v220.451h0.122c41.796,0,75.678-33.882,75.678-75.678v-69.096
	C331.8,130.357,297.917,96.475,256.122,96.475z"/>
<path style="fill:#935635;" d="M323.593,122.049c-14.862-21.171-39.445-35.023-67.277-35.023H256v97.764
	c10.143-3.32,19.996-7.259,29.444-11.983c11.352,13.038,24.462,24.678,38.934,34.121v26.491h14.102v-43.268v-20.963
	C338.48,151.645,332.962,135.397,323.593,122.049z"/>
<path style="fill:#B97850;" d="M251.409,87.028c-45.378,0-82.165,36.786-82.165,82.165v6.354v57.877h12.062v-33.942
	c-0.003,0-0.005,0-0.007,0c25.641-2.605,50.978-6.923,74.7-14.688V87.028H251.409z"/>
<circle style="fill:#59595B;" cx="217.126" cy="224.521" r="7.794"/>
<circle style="fill:#272525;" cx="290.599" cy="224.521" r="7.794"/>
<path style="fill:#2B3B4E;" d="M325.154,323.558h-26.696c0,23.449-19.008,28.981-42.456,28.981s-42.456-5.532-42.456-28.981h-26.696
	c-32.153,0-58.218,26.065-58.218,58.218v96.337C166.14,499.671,209.63,512,256,512s89.86-12.329,127.372-33.887v-96.337
	C383.372,349.624,357.307,323.558,325.154,323.558z"/>
<path style="fill:#1E2C3A;" d="M383.372,381.776c0-32.153-26.065-58.218-58.218-58.218h-26.696
	c0,23.449-19.008,28.981-42.456,28.981l0,0V512c46.37,0,89.86-12.329,127.372-33.887v-96.337H383.372z"/>
<path style="fill:#FD8469;" d="M253.862,288.39c-14.043,0-25.464-11.423-25.464-25.464c0-2.381,1.929-4.31,4.31-4.31
	s4.31,1.929,4.31,4.31c0,9.288,7.558,16.844,16.844,16.844c9.287,0,16.844-7.558,16.844-16.844c0-2.381,1.929-4.31,4.31-4.31
	s4.31,1.929,4.31,4.31C279.326,276.968,267.904,288.39,253.862,288.39z"/>
<path style="fill:#FC6F58;" d="M279.326,262.927c0-2.381-1.929-4.31-4.31-4.31s-4.31,1.929-4.31,4.31
	c0,8.563-6.427,15.639-14.707,16.694v8.663C269.041,287.191,279.326,276.247,279.326,262.927z"/>
<path style="fill:#324A5E;" d="M352.606,167.596c-7.973-48.516-42.503-98.137-68.753-98.137c-10.19,0-19.718,5.08-27.855,13.9
	c-8.135-8.82-17.665-13.9-27.855-13.9c-26.25,0-60.78,49.621-68.753,98.137c-51.212,3.217-85.263,8.916-85.263,15.41
	c0,10.045,81.427,18.187,181.872,18.187s181.872-8.142,181.872-18.187C437.872,176.512,403.821,170.813,352.606,167.596z"/>
<path style="fill:#2B3B4E;" d="M352.606,167.596c-7.973-48.516-42.503-98.137-68.753-98.137c-10.19,0-19.718,5.08-27.855,13.9l0,0
	v117.834l0,0c100.445,0,181.872-8.142,181.872-18.187C437.872,176.512,403.821,170.813,352.606,167.596z"/>
<rect x="415.461" y="320.905" style="fill:#324A5E;" width="22.411" height="87.402"/>
<rect x="425.512" y="320.905" style="fill:#2B3B4E;" width="12.354" height="87.402"/>
<circle style="fill:#B5F1F4;" cx="426.667" cy="284.444" r="46.545"/>
<path style="fill:#84DBFF;" d="M426.667,237.899c-0.384,0-0.765,0.019-1.148,0.029v93.032c0.383,0.009,0.764,0.029,1.148,0.029
	c25.707,0,46.545-20.839,46.545-46.545C473.212,258.738,452.372,237.899,426.667,237.899z"/>
<path style="fill:#2B3B4E;" d="M426.667,339.609c-30.418,0-55.165-24.747-55.165-55.165s24.747-55.165,55.165-55.165
	s55.165,24.747,55.165,55.165S457.083,339.609,426.667,339.609z M426.667,246.519c-20.913,0-37.926,17.013-37.926,37.926
	s17.013,37.926,37.926,37.926c20.913,0,37.926-17.013,37.926-37.926S447.578,246.519,426.667,246.519z"/>
<path style="fill:#1E2C3A;" d="M426.667,229.279c-0.384,0-0.765,0.021-1.148,0.029v17.239c0.383-0.012,0.764-0.029,1.148-0.029
	c20.913,0,37.926,17.013,37.926,37.926s-17.013,37.926-37.926,37.926c-0.384,0-0.765-0.017-1.148-0.029v17.239
	c0.383,0.009,0.764,0.029,1.148,0.029c30.418,0,55.165-24.747,55.165-55.165S457.083,229.279,426.667,229.279z"/>
<g>
</g>
<g>
</g>
<g>
</g>
<g>
</g>
<g>
</g>
<g>
</g>
<g>
</g>
<g>
</g>
<g>
</g>
<g>
</g>
<g>
</g>
<g>
</g>
<g>
</g>
<g>
</g>
<g>
</g>
</svg>
