<?xml version="1.0" encoding="iso-8859-1"?>
<!-- Generator: Adobe Illustrator 19.0.0, SVG Export Plug-In . SVG Version: 6.00 Build 0)  -->
<svg version="1.1" id="Layer_1" xmlns="http://www.w3.org/2000/svg" xmlns:xlink="http://www.w3.org/1999/xlink" x="0px" y="0px"
	 viewBox="0 0 512 512" style="enable-background:new 0 0 512 512;" xml:space="preserve">
<circle style="fill:#F9B54C;" cx="256" cy="256" r="256"/>
<path style="fill:#F4A200;" d="M509.807,289.578L335.732,115.502l-6.087,6.123l-36-36h-76.522l-51.503,51.502v107.049L122.515,256
	L357.56,491.046C438.598,455.982,497.928,380.252,509.807,289.578z"/>
<path style="fill:#FED8B2;" d="M281.09,319.538v-27.822h-50.176v27.822c0,2.22-1.8,4.02-4.02,4.02h-34.576v96.011h127.371v-96.011
	h-34.576C282.89,323.558,281.09,321.758,281.09,319.538z"/>
<path style="fill:#EABE96;" d="M319.686,323.558H285.11c-2.22,0-4.02-1.8-4.02-4.02v-27.822h-26.524v127.853h65.122v-96.011H319.686
	z"/>
<g>
	<circle style="fill:#FED8B2;" cx="172.597" cy="233.417" r="20.052"/>
	<circle style="fill:#FED8B2;" cx="335.127" cy="233.417" r="20.052"/>
</g>
<path style="fill:#F4E3C3;" d="M258.26,316.926h-4.518c-41.796,0-75.678-33.882-75.678-75.678v-69.096
	c0-41.796,33.882-75.678,75.678-75.678h4.518c41.796,0,75.678,33.882,75.678,75.678v69.096
	C333.938,283.045,300.056,316.926,258.26,316.926z"/>
<path style="fill:#FED8B2;" d="M258.26,96.475h-3.696v220.451h3.696c41.796,0,75.678-33.882,75.678-75.678v-69.096
	C333.938,130.357,300.056,96.475,258.26,96.475z"/>
<path style="fill:#B97850;" d="M258.26,96.475h-4.52c-41.796,0-75.678,33.882-75.678,75.678v43.78
	c1.265-1.017,2.534-2.029,3.81-3.031c43.098-29.306,89.643-36.202,139.636-43.098c4.603,0,8.52-2.053,12.06-5.087
	C329.835,126.412,297.546,96.475,258.26,96.475z"/>
<path style="fill:#935635;" d="M333.571,164.717c-3.736-38.305-36.023-68.243-75.311-68.243h-3.696v85.068
	c21.583-5.375,43.896-8.559,66.944-11.738C326.111,169.805,330.03,167.752,333.571,164.717z"/>
<circle style="fill:#59595B;" cx="217.126" cy="224.521" r="7.794"/>
<circle style="fill:#272525;" cx="290.599" cy="224.521" r="7.794"/>
<path style="fill:#324A5E;" d="M325.155,323.558h-26.696c0,23.449-19.008,46.22-42.456,46.22s-42.456-22.771-42.456-46.22h-26.696
	c-32.153,0-58.218,26.065-58.218,58.218v96.337C166.141,499.671,209.63,512,256,512s89.86-12.329,127.372-33.887v-96.337
	C383.373,349.624,357.307,323.558,325.155,323.558z"/>
<path style="fill:#2B3B4E;" d="M325.155,323.558h-26.696c0,23.449-19.008,46.22-42.456,46.22c-0.481,0-0.958-0.024-1.436-0.043
	v142.241c0.479,0.003,0.955,0.024,1.436,0.024c46.37,0,89.86-12.329,127.372-33.887v-96.337
	C383.373,349.624,357.307,323.558,325.155,323.558z"/>
<path style="fill:#FD8469;" d="M253.862,288.39c-14.043,0-25.464-11.423-25.464-25.464c0-2.381,1.929-4.31,4.31-4.31
	s4.31,1.929,4.31,4.31c0,9.288,7.558,16.844,16.844,16.844c9.287,0,16.844-7.558,16.844-16.844c0-2.381,1.929-4.31,4.31-4.31
	s4.31,1.929,4.31,4.31C279.328,276.968,267.905,288.39,253.862,288.39z"/>
<path style="fill:#FC6F58;" d="M279.328,262.927c0-2.381-1.929-4.31-4.31-4.31c-2.381,0-4.31,1.929-4.31,4.31
	c0,9.051-7.182,16.437-16.143,16.81v8.62C268.281,287.978,279.328,276.732,279.328,262.927z"/>
<path style="fill:#E6F3FF;" d="M355.988,264.559h-15.515v-90.384c0-46.578-37.893-84.471-84.471-84.471
	s-84.471,37.893-84.471,84.471v90.384h-15.515v-90.384c0-55.132,44.854-99.987,99.987-99.987s99.987,44.854,99.987,99.987V264.559z"
	/>
<path style="fill:#CFDBE6;" d="M256.002,74.188c-0.481,0-0.957,0.029-1.436,0.036V89.74c0.479-0.009,0.955-0.036,1.436-0.036
	c46.578,0,84.471,37.893,84.471,84.471v90.384h15.515v-90.384C355.988,119.043,311.134,74.188,256.002,74.188z"/>
<path style="fill:#A82116;" d="M349.093,272.808H334.87v-85.333h14.222c23.564,0,42.667,19.103,42.667,42.667l0,0
	C391.759,253.705,372.657,272.808,349.093,272.808z"/>
<path style="fill:#89140E;" d="M335.732,283.582L335.732,283.582c-4.76,0-8.62-3.86-8.62-8.62V185.32c0-4.76,3.86-8.62,8.62-8.62
	l0,0c4.76,0,8.62,3.86,8.62,8.62v89.643C344.352,279.723,340.492,283.582,335.732,283.582z"/>
<path style="fill:#C1321F;" d="M156.446,187.475h14.222v85.333h-14.222c-23.566,0-42.668-19.103-42.668-42.667l0,0
	C113.78,206.577,132.882,187.475,156.446,187.475z"/>
<path style="fill:#A82116;" d="M169.806,176.7L169.806,176.7c4.76,0,8.62,3.86,8.62,8.62v89.643c0,4.76-3.86,8.62-8.62,8.62l0,0
	c-4.76,0-8.62-3.86-8.62-8.62V185.32C161.187,180.56,165.045,176.7,169.806,176.7z"/>
<g>
</g>
<g>
</g>
<g>
</g>
<g>
</g>
<g>
</g>
<g>
</g>
<g>
</g>
<g>
</g>
<g>
</g>
<g>
</g>
<g>
</g>
<g>
</g>
<g>
</g>
<g>
</g>
<g>
</g>
</svg>
