<?xml version="1.0" encoding="iso-8859-1"?>
<!-- Generator: Adobe Illustrator 19.0.0, SVG Export Plug-In . SVG Version: 6.00 Build 0)  -->
<svg version="1.1" id="Layer_1" xmlns="http://www.w3.org/2000/svg" xmlns:xlink="http://www.w3.org/1999/xlink" x="0px" y="0px"
	 viewBox="0 0 512.002 512.002" style="enable-background:new 0 0 512.002 512.002;" xml:space="preserve">
<circle style="fill:#324A5E;" cx="256.001" cy="256" r="256"/>
<path style="fill:#2B3B4E;" d="M512.001,256L512.001,256L340.472,84.471L206.93,212.556l-47.506,35.959l46.685,46.685l-10.886-3.484
	l59.487,59.487l114.741,134.33C453.916,443.702,512.001,356.642,512.001,256z"/>
<path style="fill:#FED8B2;" d="M278.953,319.538v-27.822h-50.176v27.822c0,2.22-1.8,4.02-4.02,4.02H190.18v96.011h127.371v-96.011
	h-34.576C280.753,323.558,278.953,321.758,278.953,319.538z"/>
<path style="fill:#EABE96;" d="M317.549,323.558h-34.576c-2.22,0-4.02-1.8-4.02-4.02v-27.822h-24.676v127.853h63.273V323.558z"/>
<circle style="fill:#FED8B2;" cx="172.598" cy="233.417" r="20.052"/>
<circle style="fill:#EABE96;" cx="335.128" cy="233.417" r="20.052"/>
<path style="fill:#F4E3C3;" d="M256.123,316.926h-4.518c-41.796,0-75.678-33.882-75.678-75.678v-69.096
	c0-41.796,33.882-75.678,75.678-75.678h4.518c41.796,0,75.678,33.882,75.678,75.678v69.096
	C331.801,283.045,297.919,316.926,256.123,316.926z"/>
<path style="fill:#FED8B2;" d="M256.123,96.475h-1.846v220.451h1.846c41.796,0,75.678-33.882,75.678-75.678v-69.096
	C331.801,130.357,297.919,96.475,256.123,96.475z"/>
<path style="fill:#B97850;" d="M323.593,122.051c-14.862-21.171-39.445-35.023-67.277-35.023h-4.906
	c-45.378,0-82.165,36.786-82.165,82.165v6.354v57.877h12.062v-33.942c-0.002,0-0.005,0-0.007,0
	c36.605-3.718,72.597-10.899,104.145-26.671c11.352,13.036,24.462,24.678,38.934,34.121v26.491h14.102v-43.268v-20.963
	C338.481,151.645,332.965,135.397,323.593,122.051z"/>
<path style="fill:#935635;" d="M323.593,122.051c-14.862-21.171-39.445-35.023-67.277-35.023h-2.039v98.333
	c10.752-3.432,21.183-7.559,31.168-12.55c11.352,13.036,24.462,24.678,38.934,34.121v26.491h14.102v-43.268v-20.963
	C338.481,151.645,332.965,135.397,323.593,122.051z"/>
<circle style="fill:#59595B;" cx="217.127" cy="224.521" r="7.794"/>
<circle style="fill:#272525;" cx="290.6" cy="224.521" r="7.794"/>
<path style="fill:#FD8469;" d="M253.865,288.39c-14.043,0-25.464-11.423-25.464-25.464c0-2.381,1.929-4.31,4.31-4.31
	s4.31,1.929,4.31,4.31c0,9.288,7.558,16.844,16.844,16.844s16.844-7.558,16.844-16.844c0-2.381,1.929-4.31,4.31-4.31
	s4.31,1.929,4.31,4.31C279.327,276.968,267.904,288.39,253.865,288.39z"/>
<path style="fill:#FC6F58;" d="M279.327,262.927c0-2.381-1.929-4.31-4.31-4.31s-4.31,1.929-4.31,4.31
	c0,9.149-7.335,16.601-16.431,16.824v8.62C268.127,288.146,279.327,276.828,279.327,262.927z"/>
<path style="fill:#FFFFFF;" d="M323.018,323.558h-26.696c0,23.449-19.01,42.456-42.456,42.456s-42.456-19.01-42.456-42.456h-26.696
	c-32.153,0-58.218,26.065-58.218,58.218v95.075C164.487,499.181,208.743,512,256.001,512c45.496,0,88.211-11.883,125.235-32.692
	v-97.532C381.236,349.624,355.17,323.558,323.018,323.558z"/>
<path style="fill:#E6F3FF;" d="M323.018,323.558h-26.696c0,23.309-18.787,42.224-42.044,42.446v145.965
	c0.576,0.003,1.146,0.029,1.724,0.029c45.496,0,88.211-11.883,125.235-32.692v-97.53
	C381.236,349.624,355.17,323.558,323.018,323.558z"/>
<path style="fill:#CFDBE6;" d="M256.003,417.185V512c4.863,0,9.69-0.166,14.484-0.462l42.403-93.874l-22.411-13.888l22.411-18.198
	V322.37h-28.444L256.003,417.185z"/>
<path style="fill:#E6F3FF;" d="M227.558,322.37h-28.444v63.21l22.411,18.198l-22.411,13.888l42.403,93.874
	c4.796,0.297,9.623,0.462,14.484,0.462v-94.815L227.558,322.37z"/>
<rect x="168.082" y="84.471" style="fill:#FFFFFF;" width="172.391" height="84.471"/>
<rect x="254.277" y="84.471" style="fill:#D0D1D3;" width="86.195" height="84.471"/>
<polygon style="fill:#FC6F58;" points="279.853,118.182 262.803,118.182 262.803,101.133 245.752,101.133 245.752,118.182 
	228.703,118.182 228.703,135.232 245.752,135.232 245.752,152.281 262.803,152.281 262.803,135.232 279.853,135.232 "/>
<polygon style="fill:#F1543F;" points="262.803,118.182 262.803,101.133 254.277,101.133 254.277,152.281 262.803,152.281 
	262.803,135.232 279.853,135.232 279.853,118.182 "/>
<circle style="fill:#4CDBC4;" cx="337.886" cy="462.869" r="19.825"/>
<g>
	<path style="fill:#26BEBE;" d="M343.058,438.417v-113.03c0-2.857-2.315-5.172-5.172-5.172s-5.172,2.315-5.172,5.172v113.03
		c-11.309,2.389-19.825,12.441-19.825,24.452c0,13.783,11.214,24.997,24.997,24.997s24.997-11.214,24.997-24.997
		C362.883,450.86,354.367,440.806,343.058,438.417z M337.886,477.522c-8.08,0-14.653-6.573-14.653-14.653
		c0-8.08,6.573-14.653,14.653-14.653c8.08,0,14.653,6.573,14.653,14.653C352.54,470.949,345.966,477.522,337.886,477.522z"/>
	<path style="fill:#26BEBE;" d="M184.459,391.249v-65.431c0-2.857-2.315-5.172-5.172-5.172s-5.172,2.315-5.172,5.172v65.431
		c-13.698,2.453-24.135,14.429-24.135,28.822v54.565c0,2.857,2.315,5.172,5.172,5.172h10.493c2.857,0,5.172-2.315,5.172-5.172
		s-2.315-5.172-5.172-5.172h-5.322v-49.393c0-10.455,8.507-18.963,18.963-18.963s18.963,8.507,18.963,18.963v49.393h-7.421
		c-2.857,0-5.172,2.315-5.172,5.172s2.315,5.172,5.172,5.172h12.593c2.857,0,5.172-2.315,5.172-5.172v-54.565
		C208.593,405.678,198.157,393.702,184.459,391.249z"/>
</g>
<g>
</g>
<g>
</g>
<g>
</g>
<g>
</g>
<g>
</g>
<g>
</g>
<g>
</g>
<g>
</g>
<g>
</g>
<g>
</g>
<g>
</g>
<g>
</g>
<g>
</g>
<g>
</g>
<g>
</g>
</svg>
