<?xml version="1.0" encoding="iso-8859-1"?>
<!-- Generator: Adobe Illustrator 19.0.0, SVG Export Plug-In . SVG Version: 6.00 Build 0)  -->
<svg version="1.1" id="Layer_1" xmlns="http://www.w3.org/2000/svg" xmlns:xlink="http://www.w3.org/1999/xlink" x="0px" y="0px"
	 viewBox="0 0 512 512" style="enable-background:new 0 0 512 512;" xml:space="preserve">
<g>
	<circle style="fill:#324A5E;" cx="256" cy="256" r="256"/>
	<circle style="fill:#324A5E;" cx="256" cy="256" r="256"/>
</g>
<g>
	<polygon style="fill:#2B3B4E;" points="117.736,184.139 196.701,263.104 219.798,176.126 	"/>
	<path style="fill:#2B3B4E;" d="M511.164,276.713l-49.157-49.157l-16.408,24.504l-6.075-3.451L311.222,120.306l-28.412,39.252
		l-63.838,83.423l-61.945,3.069l49.928,49.928l-5.218,2.172l50.012,50.012L382.311,478.71
		C454.097,437.905,504.222,363.403,511.164,276.713z"/>
</g>
<path style="fill:#FED8B2;" d="M281.088,319.538v-27.822h-50.176v27.822c0,2.22-1.8,4.02-4.02,4.02h-34.576v96.011h127.371v-96.011
	H285.11C282.888,323.558,281.088,321.758,281.088,319.538z"/>
<path style="fill:#EABE96;" d="M319.686,323.558H285.11c-2.22,0-4.02-1.8-4.02-4.02v-27.822h-26.524v127.853h65.122v-96.011H319.686
	z"/>
<circle style="fill:#FED8B2;" cx="172.597" cy="233.417" r="20.052"/>
<circle style="fill:#EABE96;" cx="335.127" cy="233.417" r="20.052"/>
<path style="fill:#F4E3C3;" d="M256.122,316.926h-4.518c-41.796,0-75.678-33.882-75.678-75.678v-69.096
	c0-41.796,33.882-75.678,75.678-75.678h4.518c41.796,0,75.678,33.882,75.678,75.678v69.096
	C331.8,283.045,297.917,316.926,256.122,316.926z"/>
<path style="fill:#FED8B2;" d="M256.122,96.475h-1.558v220.451h1.558c41.796,0,75.678-33.882,75.678-75.678v-69.096
	C331.798,130.357,297.917,96.475,256.122,96.475z"/>
<path style="fill:#CFDBE6;" d="M331.798,172.153c0-41.796-33.882-75.678-75.678-75.678h-4.518
	c-41.796,0-75.678,33.882-75.678,75.678v7.995h155.874V172.153z"/>
<path style="fill:#B8C9D9;" d="M331.798,172.153c0-41.796-33.882-75.678-75.678-75.678h-1.558v83.673h77.234v-7.995H331.798z"/>
<circle style="fill:#59595B;" cx="217.126" cy="224.521" r="7.794"/>
<circle style="fill:#272525;" cx="290.599" cy="224.521" r="7.794"/>
<path style="fill:#31BAFD;" d="M325.155,323.558h-26.696c0,23.449-19.008,46.22-42.456,46.22s-42.456-22.771-42.456-46.22h-26.696
	c-32.153,0-58.218,26.065-58.218,58.218v96.337C166.14,499.671,209.63,512,256,512s89.86-12.329,127.372-33.887v-96.337
	C383.371,349.624,357.307,323.558,325.155,323.558z"/>
<path style="fill:#2B9ED8;" d="M325.155,323.558h-26.696c0,23.449-19.008,46.22-42.456,46.22c-0.481,0-0.958-0.024-1.436-0.043
	v142.241c0.479,0.002,0.955,0.024,1.436,0.024c46.37,0,89.86-12.329,127.372-33.887v-96.337
	C383.371,349.624,357.307,323.558,325.155,323.558z"/>
<path style="fill:#FD8469;" d="M253.862,288.39c-14.043,0-25.464-11.423-25.464-25.464c0-2.381,1.929-4.31,4.31-4.31
	s4.31,1.929,4.31,4.31c0,9.288,7.558,16.844,16.844,16.844c9.287,0,16.844-7.558,16.844-16.844c0-2.381,1.929-4.31,4.31-4.31
	s4.31,1.929,4.31,4.31C279.326,276.968,267.904,288.39,253.862,288.39z"/>
<path style="fill:#FC6F58;" d="M279.326,262.927c0-2.381-1.929-4.31-4.31-4.31c-2.381,0-4.31,1.929-4.31,4.31
	c0,9.051-7.182,16.437-16.143,16.81v8.62C268.279,287.978,279.326,276.732,279.326,262.927z"/>
<g>
	<path style="fill:#CFDBE6;" d="M143.538,167.657c-10.985,1.636-20.139,7.883-25.8,16.484c7.923,6.575,18.499,9.883,29.484,8.247
		c10.985-1.636,20.139-7.885,25.8-16.484C165.098,169.329,154.522,166.021,143.538,167.657z"/>
	<path style="fill:#CFDBE6;" d="M193.877,204.943c1.636,10.985-1.672,21.563-8.247,29.484c-8.599-5.663-14.846-14.815-16.482-25.8
		s1.672-21.563,8.247-29.484C185.992,184.804,192.24,193.958,193.877,204.943z"/>
</g>
<circle style="fill:#E6F3FF;" cx="173.684" cy="179.579" r="8.602"/>
<path style="fill:#B97850;" d="M369.778,282.721v19.825c0,5.713,4.63,10.343,10.343,10.343h21.773l-3.062,38.415
	c-0.793,9.956,7.071,18.473,17.06,18.473s17.853-8.518,17.06-18.473l-3.062-38.415h21.773c5.713,0,10.343-4.63,10.343-10.343
	v-19.825H369.778z"/>
<path style="fill:#935635;" d="M416.611,282.721v87.019c9.64-0.4,17.115-8.721,16.341-18.435l-3.062-38.415h21.773
	c5.713,0,10.343-4.63,10.343-10.343v-19.825H416.611z"/>
<rect x="369.778" y="227.556" style="fill:#E6F3FF;" width="92.229" height="56.889"/>
<rect x="416.616" y="227.556" style="fill:#CFDBE6;" width="45.396" height="56.889"/>
<path style="fill:#FFD300;" d="M369.778,227.556v39.934c24.183-8.025,48.569-11.793,74.128-13.214
	c6.018,0,12.614-1.184,18.101-4.537v-22.183H369.778z"/>
<path style="fill:#F4A200;" d="M416.611,227.556v29.277c8.976-1.217,18.058-2.043,27.295-2.557c6.018,0,12.614-1.184,18.101-4.537
	v-22.183H416.611z"/>
<g>
</g>
<g>
</g>
<g>
</g>
<g>
</g>
<g>
</g>
<g>
</g>
<g>
</g>
<g>
</g>
<g>
</g>
<g>
</g>
<g>
</g>
<g>
</g>
<g>
</g>
<g>
</g>
<g>
</g>
</svg>
