<?xml version="1.0" encoding="iso-8859-1"?>
<!-- Generator: Adobe Illustrator 19.0.0, SVG Export Plug-In . SVG Version: 6.00 Build 0)  -->
<svg version="1.1" id="Layer_1" xmlns="http://www.w3.org/2000/svg" xmlns:xlink="http://www.w3.org/1999/xlink" x="0px" y="0px"
	 viewBox="0 0 512 512" style="enable-background:new 0 0 512 512;" xml:space="preserve">
<circle style="fill:#B5F1F4;" cx="256" cy="256" r="256"/>
<path style="fill:#84DBFF;" d="M508.769,296.679L319.786,107.694L190.278,225.042l-33.832,20.228l45.18,45.18l-2.513,5.199
	l44.318,44.318l139.817,138.216C448.976,440.458,496.359,374.403,508.769,296.679z"/>
<path style="fill:#FED8B2;" d="M281.09,319.538v-27.822h-50.176v27.822c0,2.22-1.8,4.02-4.02,4.02h-34.576v96.011h127.371v-96.011
	h-34.576C282.89,323.558,281.09,321.758,281.09,319.538z"/>
<path style="fill:#EABE96;" d="M319.686,323.558H285.11c-2.22,0-4.02-1.8-4.02-4.02v-27.822h-25.088v127.853h63.685V323.558z"/>
<circle style="fill:#FED8B2;" cx="172.597" cy="233.417" r="20.052"/>
<circle style="fill:#EABE96;" cx="335.127" cy="233.417" r="20.052"/>
<path style="fill:#F4E3C3;" d="M256.122,316.926h-4.518c-41.796,0-75.678-33.882-75.678-75.678v-69.096
	c0-41.796,33.882-75.678,75.678-75.678h4.518c41.796,0,75.678,33.882,75.678,75.678v69.096
	C331.8,283.045,297.918,316.926,256.122,316.926z"/>
<path style="fill:#FED8B2;" d="M256.122,96.475h-0.121v220.451h0.121c41.796,0,75.678-33.882,75.678-75.678v-69.096
	C331.8,130.357,297.918,96.475,256.122,96.475z"/>
<path style="fill:#9A4F03;" d="M323.593,122.051c-14.862-21.171-39.445-35.023-67.277-35.023h-4.906
	c-45.378,0-82.165,36.786-82.165,82.165v6.354v57.877h12.062v-33.942c-0.002,0-0.005,0-0.007,0
	c36.605-3.718,72.597-10.899,104.145-26.671c11.352,13.036,24.462,24.678,38.934,34.121v26.491h14.102v-43.268v-20.963
	C338.48,151.645,332.964,135.397,323.593,122.051z"/>
<circle style="fill:#59595B;" cx="217.126" cy="224.521" r="7.794"/>
<circle style="fill:#272525;" cx="290.599" cy="224.521" r="7.794"/>
<path style="fill:#F9B54C;" d="M256.002,352.539c-23.449,0-42.456-5.532-42.456-28.981h-26.696
	c-32.153,0-58.218,26.065-58.218,58.218v96.337C166.141,499.671,209.63,512,256,512h0.002V352.539L256.002,352.539z"/>
<path style="fill:#F4A200;" d="M383.373,381.776c0-32.153-26.065-58.218-58.218-58.218h-26.696
	c0,23.449-19.008,28.981-42.456,28.981V512c46.37,0,89.859-12.329,127.371-33.887L383.373,381.776L383.373,381.776z"/>
<path style="fill:#FD8469;" d="M253.862,288.39c-14.043,0-25.464-11.423-25.464-25.464c0-2.381,1.929-4.31,4.31-4.31
	s4.31,1.929,4.31,4.31c0,9.288,7.558,16.844,16.844,16.844c9.287,0,16.844-7.558,16.844-16.844c0-2.381,1.929-4.31,4.31-4.31
	s4.31,1.929,4.31,4.31C279.328,276.968,267.905,288.39,253.862,288.39z"/>
<path style="fill:#FC6F58;" d="M279.328,262.927c0-2.381-1.929-4.31-4.31-4.31c-2.381,0-4.31,1.929-4.31,4.31
	c0,8.563-6.427,15.638-14.707,16.694v8.663C269.045,287.191,279.328,276.246,279.328,262.927z"/>
<path style="fill:#F4A200;" d="M249.968,352.401V511.9c2.008,0.047,4.013,0.1,6.034,0.1c2.02,0,4.025-0.053,6.034-0.1V352.401
	c-1.972,0.093-3.984,0.138-6.034,0.138C253.952,352.539,251.938,352.494,249.968,352.401z"/>
<path style="fill:#D68A03;" d="M262.035,352.401c-1.972,0.093-3.984,0.138-6.034,0.138V512c2.019,0,4.025-0.053,6.034-0.1V352.401z"
	/>
<polygon style="fill:#F4A200;" points="227.557,323.558 256,352.539 227.557,380.983 199.113,323.558 "/>
<polygon style="fill:#CC8006;" points="284.444,323.558 256.002,352.539 284.444,380.983 312.889,323.558 "/>
<path style="fill:#F4A200;" d="M256.002,81.024c-49.509,0-89.643,40.134-89.643,89.643v28.444h89.643V81.024L256.002,81.024z"/>
<path style="fill:#DD8D00;" d="M345.645,170.667c0-49.509-40.134-89.643-89.643-89.643v118.088h89.643V170.667z"/>
<path style="fill:#CC8006;" d="M256.002,81.024c-9.947,0-19.504,1.645-28.444,4.636v113.452h56.889V85.659
	C275.504,82.668,265.947,81.024,256.002,81.024z"/>
<path style="fill:#B76F08;" d="M284.446,85.659c-8.94-2.991-18.497-4.636-28.444-4.636v118.088h28.444V85.659z"/>
<rect x="156.444" y="169.374" style="fill:#DD8D00;" width="199.111" height="31.03"/>
<g>
	<rect x="256" y="169.374" style="fill:#CC8006;" width="99.556" height="31.03"/>
	<path style="fill:#CC8006;" d="M319.785,454.565c-0.867,0-1.748-0.165-2.6-0.512c-3.527-1.436-5.222-5.46-3.784-8.987l8.197-20.123
		h-13.879c-2.296,0-4.441-1.143-5.722-3.048c-1.281-1.905-1.531-4.324-0.664-6.449l12.067-29.62c1.436-3.529,5.461-5.22,8.987-3.784
		c3.527,1.436,5.222,5.46,3.784,8.987l-8.197,20.123h13.879c2.296,0,4.441,1.143,5.722,3.048c1.281,1.905,1.531,4.324,0.664,6.449
		l-12.067,29.62C325.082,452.942,322.505,454.565,319.785,454.565z"/>
</g>
<path style="fill:#FFFFFF;" d="M443.907,272.808c0-26.196-22.05-47.244-48.602-45.592c-23.002,1.429-41.612,20.335-42.711,43.355
	c-0.674,14.124,5.073,26.914,14.569,35.721c5.165,4.789,8.22,11.426,8.22,18.47v16.572c0,12.616,10.226,22.842,22.842,22.842l0,0
	c12.616,0,22.842-10.226,22.842-22.842v-16.57c0-6.858,2.743-13.505,7.825-18.11C438.112,298.298,443.907,286.232,443.907,272.808z"
	/>
<path style="fill:#E6F3FF;" d="M398.224,227.135v137.04c12.616,0,22.842-10.226,22.842-22.842v-16.57
	c0-6.858,2.743-13.505,7.825-18.11c9.221-8.356,15.017-20.421,15.017-33.845C443.907,247.579,423.453,227.135,398.224,227.135z"/>
<path style="fill:#FFD15D;" d="M412.446,278.411h-28.444c-1.903,0-3.448,1.545-3.448,3.448s1.545,3.448,3.448,3.448h0.891
	l9.806,46.133l-1.452,6.83c-0.395,1.864,0.793,3.694,2.655,4.089c0.243,0.052,0.483,0.076,0.721,0.076
	c0.569,0,1.115-0.147,1.602-0.403c0.486,0.257,1.033,0.403,1.602,0.403c0.238,0,0.478-0.024,0.721-0.076
	c1.862-0.395,3.051-2.226,2.655-4.089l-1.452-6.83l9.806-46.133h0.891c1.903,0,3.448-1.545,3.448-3.448
	S414.349,278.411,412.446,278.411z M398.224,314.859l-6.282-29.553h12.564L398.224,314.859z"/>
<path style="fill:#F9B54C;" d="M412.446,278.411h-14.222v6.896h6.282l-6.282,29.551v27.176c0.486,0.255,1.033,0.403,1.6,0.403
	c0.238,0,0.478-0.024,0.721-0.076c1.862-0.395,3.051-2.226,2.655-4.089l-1.452-6.83l9.806-46.133h0.891
	c1.903,0,3.448-1.545,3.448-3.448S414.349,278.411,412.446,278.411z"/>
<path style="fill:#CFDBE6;" d="M375.382,324.763v16.57c0,12.616,10.226,22.842,22.842,22.842l0,0
	c12.616,0,22.842-10.226,22.842-22.842v-16.57H375.382z"/>
<path style="fill:#B8C9D9;" d="M398.224,324.763v39.412c12.616,0,22.842-10.226,22.842-22.842v-16.57H398.224z"/>
<g>
</g>
<g>
</g>
<g>
</g>
<g>
</g>
<g>
</g>
<g>
</g>
<g>
</g>
<g>
</g>
<g>
</g>
<g>
</g>
<g>
</g>
<g>
</g>
<g>
</g>
<g>
</g>
<g>
</g>
</svg>
