<?xml version="1.0" encoding="iso-8859-1"?>
<!-- Generator: Adobe Illustrator 19.0.0, SVG Export Plug-In . SVG Version: 6.00 Build 0)  -->
<svg version="1.1" id="Layer_1" xmlns="http://www.w3.org/2000/svg" xmlns:xlink="http://www.w3.org/1999/xlink" x="0px" y="0px"
	 viewBox="0 0 512 512" style="enable-background:new 0 0 512 512;" xml:space="preserve">
<circle style="fill:#F4A200;" cx="256" cy="256" r="256"/>
<path style="fill:#E09112;" d="M512,256c0-3.962-0.103-7.899-0.281-11.817l-35.275-33.004l-1.508,32.527l-60.228-62.959
	l-21.163,7.097l-80.431-82.722l-20.913,54.339L97.445,184.013l59.468,60.469l1.657,3.269l44.799,43.968l-5.468,2.841l46.871,46.871
	l138.614,136.675C460.243,433.931,512,351.01,512,256z"/>
<path style="fill:#FED8B2;" d="M278.95,319.538v-27.822h-50.176v27.822c0,2.22-1.8,4.02-4.02,4.02h-34.576v96.011h127.371v-96.011
	h-34.576C280.75,323.558,278.95,321.758,278.95,319.538z"/>
<path style="fill:#EABE96;" d="M317.549,323.558h-34.576c-2.22,0-4.02-1.8-4.02-4.02v-27.822H256v127.853h61.547v-96.011H317.549z"
	/>
<circle style="fill:#FED8B2;" cx="172.597" cy="233.417" r="20.052"/>
<circle style="fill:#EABE96;" cx="335.127" cy="233.417" r="20.052"/>
<path style="fill:#F4E3C3;" d="M256.122,316.926h-4.518c-41.796,0-75.678-33.882-75.678-75.678v-69.096
	c0-41.796,33.882-75.678,75.678-75.678h4.518c41.796,0,75.678,33.882,75.678,75.678v69.096
	C331.8,283.045,297.917,316.926,256.122,316.926z"/>
<path style="fill:#FED8B2;" d="M256.122,96.475h-0.121v220.451h0.121c41.796,0,75.678-33.882,75.678-75.678v-69.096
	C331.798,130.357,297.917,96.475,256.122,96.475z"/>
<circle style="fill:#59595B;" cx="217.126" cy="224.521" r="7.794"/>
<circle style="fill:#272525;" cx="290.599" cy="224.521" r="7.794"/>
<path style="fill:#FD8469;" d="M253.862,288.39c-14.043,0-25.464-11.423-25.464-25.464c0-2.381,1.929-4.31,4.31-4.31
	s4.31,1.929,4.31,4.31c0,9.288,7.558,16.844,16.844,16.844c9.287,0,16.844-7.558,16.844-16.844c0-2.381,1.929-4.31,4.31-4.31
	s4.31,1.929,4.31,4.31C279.326,276.968,267.904,288.39,253.862,288.39z"/>
<path style="fill:#FC6F58;" d="M279.326,262.927c0-2.381-1.929-4.31-4.31-4.31s-4.31,1.929-4.31,4.31
	c0,8.563-6.427,15.638-14.707,16.694v8.663C269.043,287.191,279.326,276.246,279.326,262.927z"/>
<path style="fill:#E6F3FF;" d="M323.017,323.558H296.32c0,23.449-19.01,42.456-42.456,42.456s-42.456-19.01-42.456-42.456h-26.696
	c-32.153,0-58.218,26.065-58.218,58.218v95.075C164.486,499.181,208.743,512,256,512c45.496,0,88.211-11.883,125.235-32.692v-97.532
	C381.233,349.624,355.169,323.558,323.017,323.558z"/>
<path style="fill:#CFDBE6;" d="M381.233,381.776c0-32.153-26.065-58.218-58.218-58.218h-26.696
	c0,22.731-17.865,41.289-40.319,42.403V512c45.496,0,88.209-11.883,125.233-32.692L381.233,381.776L381.233,381.776z"/>
<path style="fill:#804000;" d="M340.702,168.791c-6.99-42.537-37.266-86.044-60.28-86.044c-8.933,0-17.289,4.455-24.423,12.188
	c-7.134-7.733-15.488-12.188-24.423-12.188c-23.016,0-53.289,43.506-60.28,86.044c-44.904,2.822-74.759,7.818-74.759,13.512
	c0,8.807,71.394,15.946,159.461,15.946s159.461-7.139,159.461-15.946C415.461,176.609,385.607,171.613,340.702,168.791z"/>
<path style="fill:#6B3403;" d="M415.461,182.303c0-5.694-29.855-10.69-74.759-13.512c-6.99-42.537-37.266-86.044-60.28-86.044
	c-8.933,0-17.289,4.455-24.423,12.188v103.314C344.067,198.249,415.461,191.11,415.461,182.303z"/>
<path style="fill:#935635;" d="M199.111,323.558h-14.403c-4.842,0-9.544,0.602-14.041,1.715v172.13
	C197.358,506.845,226.073,512,256,512c29.929,0,58.64-5.172,85.333-14.615v-170.87c-5.761-1.908-11.916-2.958-18.316-2.958h-10.128
	v103.11H199.111V323.558z"/>
<path style="fill:#804000;" d="M341.333,326.516c-5.761-1.908-11.916-2.958-18.316-2.958h-10.128v103.109H256V512
	c29.929,0,58.64-5.172,85.333-14.615V326.516z"/>
<path style="fill:#F4E3C3;" d="M476.444,211.178l-7.111,65.436c0,10.988-8.907,19.897-19.897,19.897h-16.575l-6.194-84.471
	l-6.194,84.471h-16.575c-10.988,0-19.897-8.907-19.897-19.897l-7.111-65.436l-7.111,90.936c0,12.616,10.226,22.842,22.842,22.842
	h25.766l-1.2,16.377c-0.029,0.44-0.033,0.94,0,1.391c0.384,5.237,4.941,9.169,10.176,8.787c5.236-0.383,9.169-4.941,8.787-10.176
	l-1.202-16.377h25.766c12.616,0,22.842-10.226,22.842-22.842L476.444,211.178z"/>
<path style="fill:#FED8B2;" d="M476.444,211.178l-7.111,65.436c0,10.988-8.907,19.897-19.897,19.897h-16.575l-6.122-83.484v138.497
	c0.207-0.002,0.414,0.002,0.622-0.014c5.237-0.384,9.169-4.941,8.787-10.176l-1.202-16.377h25.766
	c12.616,0,22.842-10.226,22.842-22.842L476.444,211.178z"/>
<path style="fill:#FFD15D;" d="M449.077,424.093v-72.416c0-5.236-4.246-9.481-9.481-9.481h-25.859c-5.236,0-9.481,4.246-9.481,9.481
	v113.049C420.757,452.984,435.802,439.329,449.077,424.093z"/>
<path style="fill:#F9B54C;" d="M439.596,342.195h-12.857v104.526c7.899-7.08,15.369-14.629,22.338-22.628v-72.416
	C449.077,346.441,444.831,342.195,439.596,342.195z"/>
<g>
</g>
<g>
</g>
<g>
</g>
<g>
</g>
<g>
</g>
<g>
</g>
<g>
</g>
<g>
</g>
<g>
</g>
<g>
</g>
<g>
</g>
<g>
</g>
<g>
</g>
<g>
</g>
<g>
</g>
</svg>
