<?xml version="1.0" encoding="iso-8859-1"?>
<!-- Generator: Adobe Illustrator 19.0.0, SVG Export Plug-In . SVG Version: 6.00 Build 0)  -->
<svg version="1.1" id="Layer_1" xmlns="http://www.w3.org/2000/svg" xmlns:xlink="http://www.w3.org/1999/xlink" x="0px" y="0px"
	 viewBox="0 0 512 512" style="enable-background:new 0 0 512 512;" xml:space="preserve">
<circle style="fill:#B5F1F4;" cx="256" cy="256" r="256"/>
<path style="fill:#84DBFF;" d="M512,256c0-2.208-0.028-4.411-0.083-6.606L406.862,144.339l-20.778,13.496l-76.01-76.01
	l-48.79,75.162l-151.445,17.558l65.833,65.833c-8.14,3.467-15.653,6.523-17.572,6.842l46.016,46.016l-5.006,2.496l56.056,56.056
	L381.028,479.42C459.18,435.595,512,351.972,512,256z"/>
<polygon style="fill:#324A5E;" points="468.902,289.225 422.357,280.057 422.357,256.784 468.902,246.91 "/>
<path style="fill:#F1543F;" d="M417.042,301.684h-9.195c-5.315,0-9.625-4.31-9.625-9.625v-37.64c0-5.315,4.31-9.625,9.625-9.625
	h9.195c5.315,0,9.625,4.31,9.625,9.625v37.64C426.667,297.374,422.357,301.684,417.042,301.684z"/>
<path style="fill:#C1321F;" d="M417.042,244.795h-4.741v56.889h4.741c5.315,0,9.625-4.31,9.625-9.625v-37.64
	C426.667,249.104,422.357,244.795,417.042,244.795z"/>
<path style="fill:#FC6F58;" d="M455.111,416.892v-89.781c0-23.564-19.103-42.667-42.667-42.667s-42.667,19.103-42.667,42.667
	v158.258C402.947,468.883,432.03,445.419,455.111,416.892z"/>
<path style="fill:#F1543F;" d="M412.444,284.444c-0.048,0-0.095,0.003-0.143,0.003v174.268
	c15.843-12.233,30.225-26.269,42.81-41.824v-89.781C455.111,303.547,436.009,284.444,412.444,284.444z"/>
<path style="fill:#FED8B2;" d="M281.088,319.538v-27.822h-50.176v27.822c0,2.22-1.8,4.02-4.02,4.02h-34.576v96.011h127.371v-96.011
	H285.11C282.888,323.558,281.088,321.758,281.088,319.538z"/>
<path style="fill:#EABE96;" d="M319.686,323.558H285.11c-2.22,0-4.02-1.8-4.02-4.02v-27.822h-25.662v127.853h64.26v-96.011H319.686z
	"/>
<circle style="fill:#FED8B2;" cx="172.597" cy="233.417" r="20.052"/>
<circle style="fill:#EABE96;" cx="335.127" cy="233.417" r="20.052"/>
<path style="fill:#F4E3C3;" d="M256.122,316.926h-4.518c-41.796,0-75.678-33.882-75.678-75.678v-69.096
	c0-41.796,33.882-75.678,75.678-75.678h4.518c41.796,0,75.678,33.882,75.678,75.678v69.096
	C331.8,283.045,297.917,316.926,256.122,316.926z"/>
<path style="fill:#FED8B2;" d="M256.122,96.475h-0.696v220.451h0.696c41.796,0,75.678-33.882,75.678-75.678v-69.096
	C331.8,130.357,297.917,96.475,256.122,96.475z"/>
<path style="fill:#FFD15D;" d="M323.593,122.051c-14.862-21.171-39.445-35.023-67.277-35.023h-4.906
	c-45.378,0-82.165,36.786-82.165,82.165v6.354v57.877h12.062v-33.942c-0.002,0-0.005,0-0.007,0
	c36.605-3.718,72.597-10.899,104.145-26.671c11.352,13.036,24.462,24.678,38.934,34.121v26.491h14.102v-43.268v-20.963
	C338.48,151.645,332.962,135.397,323.593,122.051z"/>
<path style="fill:#F9B54C;" d="M323.593,122.049c-14.864-21.171-39.445-35.023-67.277-35.023h-0.89v97.957
	c10.345-3.358,20.39-7.363,30.018-12.176c11.352,13.038,24.462,24.678,38.934,34.121v26.491h14.102v-43.268v-20.963
	C338.48,151.645,332.962,135.397,323.593,122.049z"/>
<circle style="fill:#59595B;" cx="217.126" cy="224.521" r="7.794"/>
<circle style="fill:#272525;" cx="290.599" cy="224.521" r="7.794"/>
<path style="fill:#FD8469;" d="M253.862,288.39c-14.043,0-25.464-11.423-25.464-25.464c0-2.381,1.929-4.31,4.31-4.31
	s4.31,1.929,4.31,4.31c0,9.288,7.558,16.844,16.844,16.844c9.287,0,16.844-7.558,16.844-16.844c0-2.381,1.929-4.31,4.31-4.31
	s4.31,1.929,4.31,4.31C279.326,276.968,267.904,288.39,253.862,288.39z"/>
<path style="fill:#FC6F58;" d="M279.326,262.927c0-2.381-1.929-4.31-4.31-4.31c-2.381,0-4.31,1.929-4.31,4.31
	c0,8.761-6.725,15.974-15.281,16.767v8.62C268.738,287.497,279.326,276.44,279.326,262.927z"/>
<path style="fill:#E6F3FF;" d="M213.544,323.558h-26.696c-32.153,0-58.218,26.065-58.218,58.218v96.337
	c37.357,21.468,80.644,33.775,126.797,33.876V352.534C232.243,352.444,213.544,346.814,213.544,323.558z"/>
<path style="fill:#CFDBE6;" d="M325.155,323.558h-26.696c0,23.449-19.008,28.981-42.456,28.981c-0.193,0-0.383-0.003-0.574-0.003
	v159.456c0.191,0,0.381,0.009,0.574,0.009c46.37,0,89.86-12.329,127.372-33.887v-96.337
	C383.373,349.624,357.307,323.558,325.155,323.558z"/>
<path style="fill:#B8C9D9;" d="M249.966,352.401V511.9c2.008,0.047,4.013,0.1,6.034,0.1s4.025-0.053,6.034-0.1V352.401
	c-1.972,0.093-3.984,0.138-6.034,0.138C253.95,352.539,251.938,352.494,249.966,352.401z"/>
<path style="fill:#9BAFBF;" d="M256,352.539c-0.195,0-0.379-0.012-0.574-0.014V511.99c0.191,0,0.381,0.009,0.574,0.009
	c2.02,0,4.025-0.053,6.034-0.1V352.401C260.062,352.494,258.05,352.539,256,352.539z"/>
<polygon style="fill:#CFDBE6;" points="227.556,323.558 256,352.539 227.556,380.983 199.111,323.558 "/>
<polygon style="fill:#B8C9D9;" points="284.444,323.558 256,352.539 284.444,380.983 312.889,323.558 "/>
<path style="fill:#F1543F;" d="M256,126.707c29.953,0,55.739,13.641,67.431,33.264c4.289-8.997,6.697-18.991,6.697-29.53
	c0-39.274-33.189-71.111-74.128-71.111s-74.128,31.837-74.128,71.111c0,10.54,2.408,20.533,6.697,29.53
	C200.261,140.348,226.047,126.707,256,126.707z"/>
<path style="fill:#C1321F;" d="M256,59.332c-0.193,0-0.381,0.012-0.574,0.014v67.379c0.193-0.002,0.381-0.017,0.574-0.017
	c29.953,0,55.739,13.641,67.431,33.264c4.289-8.997,6.697-18.991,6.697-29.53C330.128,91.169,296.939,59.332,256,59.332z"/>
<circle style="fill:#FFD15D;" cx="256" cy="113.778" r="28.444"/>
<path style="fill:#F9B54C;" d="M256,85.333c-0.193,0-0.381,0.026-0.574,0.029v56.83c0.193,0.003,0.381,0.029,0.574,0.029
	c15.71,0,28.444-12.734,28.444-28.444S271.71,85.333,256,85.333z"/>
<path style="fill:#FC6F58;" d="M256,99.411c-85.211,0-154.29,25.471-154.29,56.889c0,19.539,26.724,36.773,67.42,47.014V186.23
	c0-4.815,0.509-9.518,1.441-14.083C192.75,162.338,222.836,156.3,256,156.3c30.684,0,58.73,5.172,80.32,13.712
	c1.239,5.227,1.91,10.649,1.91,16.219v18.196c43.286-10.076,72.059-27.857,72.059-48.126C410.29,124.881,341.213,99.411,256,99.411z
	"/>
<path style="fill:#F1543F;" d="M256,99.412c-0.191,0-0.383,0.002-0.574,0.002v56.892c0.193,0,0.381-0.007,0.574-0.007
	c30.684,0,58.73,5.172,80.32,13.712c1.239,5.227,1.91,10.649,1.91,16.219v18.196c43.286-10.076,72.059-27.857,72.059-48.126
	C410.29,124.881,341.211,99.412,256,99.412z"/>
<circle style="fill:#FC6F58;" cx="321.508" cy="412.444" r="18.963"/>
<g>
</g>
<g>
</g>
<g>
</g>
<g>
</g>
<g>
</g>
<g>
</g>
<g>
</g>
<g>
</g>
<g>
</g>
<g>
</g>
<g>
</g>
<g>
</g>
<g>
</g>
<g>
</g>
<g>
</g>
</svg>
