<?xml version="1.0" encoding="iso-8859-1"?>
<!-- Generator: Adobe Illustrator 19.0.0, SVG Export Plug-In . SVG Version: 6.00 Build 0)  -->
<svg version="1.1" id="Layer_1" xmlns="http://www.w3.org/2000/svg" xmlns:xlink="http://www.w3.org/1999/xlink" x="0px" y="0px"
	 viewBox="0 0 512 512" style="enable-background:new 0 0 512 512;" xml:space="preserve">
<circle style="fill:#B5F1F4;" cx="256" cy="256" r="256"/>
<path style="fill:#84DBFF;" d="M512,256c0-1.752-0.031-3.494-0.065-5.239l-91.732-91.731l-5.47,31.689l-97.821-96.335
	l-131.798,92.867l-36.857,27.376l30.353,30.353l-21.583,1.069l49.928,49.928l-5.218,2.172l50.012,50.012l130.562,130.548
	C459.755,434.688,512,351.449,512,256z"/>
<path style="fill:#FED8B2;" d="M281.088,319.538v-27.822h-50.176v27.822c0,2.22-1.8,4.02-4.02,4.02h-34.576v96.011h127.371v-96.011
	H285.11C282.888,323.558,281.088,321.758,281.088,319.538z"/>
<path style="fill:#EABE96;" d="M319.686,323.558H285.11c-2.22,0-4.02-1.8-4.02-4.02v-27.822h-26.524v127.853h65.122v-96.011H319.686
	z"/>
<circle style="fill:#FED8B2;" cx="172.597" cy="233.417" r="20.052"/>
<circle style="fill:#EABE96;" cx="335.127" cy="233.417" r="20.052"/>
<path style="fill:#F4E3C3;" d="M256.122,316.926h-4.518c-41.796,0-75.678-33.882-75.678-75.678v-69.096
	c0-41.796,33.882-75.678,75.678-75.678h4.518c41.796,0,75.678,33.882,75.678,75.678v69.096
	C331.8,283.045,297.917,316.926,256.122,316.926z"/>
<path style="fill:#FED8B2;" d="M256.122,96.475h-1.558v220.451h1.558c41.796,0,75.678-33.882,75.678-75.678v-69.096
	C331.8,130.357,297.917,96.475,256.122,96.475z"/>
<circle style="fill:#59595B;" cx="217.126" cy="224.521" r="7.794"/>
<circle style="fill:#272525;" cx="290.599" cy="224.521" r="7.794"/>
<path style="fill:#90DFAA;" d="M325.155,323.558h-26.696c0,23.449-19.008,46.22-42.456,46.22s-42.456-22.771-42.456-46.22h-26.696
	c-32.153,0-58.218,26.065-58.218,58.218v96.337C166.14,499.671,209.63,512,256,512s89.86-12.329,127.372-33.887v-96.337
	C383.371,349.624,357.307,323.558,325.155,323.558z"/>
<path style="fill:#6FC186;" d="M325.155,323.558h-26.696c0,23.449-19.008,46.22-42.456,46.22c-0.481,0-0.958-0.024-1.436-0.043
	v142.241c0.479,0.002,0.955,0.024,1.436,0.024c46.37,0,89.86-12.329,127.372-33.887v-96.337
	C383.371,349.624,357.307,323.558,325.155,323.558z"/>
<path style="fill:#FD8469;" d="M253.862,288.39c-14.043,0-25.464-11.423-25.464-25.464c0-2.381,1.929-4.31,4.31-4.31
	s4.31,1.929,4.31,4.31c0,9.288,7.558,16.844,16.844,16.844c9.287,0,16.844-7.558,16.844-16.844c0-2.381,1.929-4.31,4.31-4.31
	s4.31,1.929,4.31,4.31C279.326,276.968,267.904,288.39,253.862,288.39z"/>
<path style="fill:#FC6F58;" d="M279.326,262.927c0-2.381-1.929-4.31-4.31-4.31c-2.381,0-4.31,1.929-4.31,4.31
	c0,9.051-7.182,16.437-16.143,16.81v8.62C268.279,287.978,279.326,276.732,279.326,262.927z"/>
<polygon style="fill:#6FC186;" points="348.229,179.717 160.323,179.717 191.641,94.384 316.911,94.384 "/>
<polygon style="fill:#42A65E;" points="316.911,94.384 254.564,94.384 254.564,179.717 348.229,179.717 "/>
<rect x="148.256" y="166.357" style="fill:#90DFAA;" width="215.488" height="48.269"/>
<rect x="254.569" y="166.357" style="fill:#6FC186;" width="109.175" height="48.269"/>
<path style="fill:#324A5E;" d="M199.111,323.558h-12.266c-5.617,0-11.04,0.812-16.179,2.296v171.548
	C197.36,506.839,226.073,512,256,512c29.925,0,58.64-5.161,85.333-14.598V325.854c-5.139-1.484-10.562-2.296-16.179-2.296h-12.266
	v80.267H199.111V323.558z"/>
<path style="fill:#2B3B4E;" d="M325.155,323.558h-12.266v80.267h-58.325v108.16c0.479,0.003,0.955,0.016,1.436,0.016
	c29.925,0,58.64-5.161,85.333-14.598V325.854C336.194,324.37,330.771,323.558,325.155,323.558z"/>
<path style="fill:#FFC61B;" d="M404.687,464.412c5.33-3.808,10.5-7.823,15.515-12.021V159.03h-15.515V464.412z"/>
<circle style="fill:#F4A200;" cx="428.391" cy="341.333" r="21.549"/>
<g>
</g>
<g>
</g>
<g>
</g>
<g>
</g>
<g>
</g>
<g>
</g>
<g>
</g>
<g>
</g>
<g>
</g>
<g>
</g>
<g>
</g>
<g>
</g>
<g>
</g>
<g>
</g>
<g>
</g>
</svg>
