<?xml version="1.0" encoding="iso-8859-1"?>
<!-- Generator: Adobe Illustrator 19.0.0, SVG Export Plug-In . SVG Version: 6.00 Build 0)  -->
<svg version="1.1" id="Layer_1" xmlns="http://www.w3.org/2000/svg" xmlns:xlink="http://www.w3.org/1999/xlink" x="0px" y="0px"
	 viewBox="0 0 512.002 512.002" style="enable-background:new 0 0 512.002 512.002;" xml:space="preserve">
<circle style="fill:#B5F1F4;" cx="256" cy="256.001" r="256"/>
<g>
	<path style="fill:#84DBFF;" d="M408.755,158.826l-6.54,1.453l109.42,109.42c0.24-4.536,0.367-9.102,0.367-13.698
		c0-5.332-0.183-10.623-0.503-15.874l-91.408-91.408L408.755,158.826z"/>
	<path style="fill:#84DBFF;" d="M368.985,485.763C447.96,446.853,503.97,368.437,511.2,276.302l-81.486-81.486l-25.078,5.941
		l-80.244-80.244l-61.988,61.183L79.501,197.157L368.985,485.763z"/>
</g>
<path style="fill:#FED8B2;" d="M281.09,319.539v-27.822h-50.176v27.822c0,2.22-1.8,4.02-4.02,4.02h-34.576v96.011h127.371v-96.011
	h-34.576C282.889,323.559,281.09,321.759,281.09,319.539z"/>
<path style="fill:#EABE96;" d="M319.686,323.559H285.11c-2.22,0-4.02-1.8-4.02-4.02v-27.822h-27.386V419.57h65.984v-96.011H319.686z
	"/>
<circle style="fill:#FED8B2;" cx="172.597" cy="233.418" r="20.052"/>
<circle style="fill:#EABE96;" cx="335.127" cy="233.418" r="20.052"/>
<path style="fill:#F4E3C3;" d="M256.122,316.927h-4.518c-41.796,0-75.678-33.882-75.678-75.678v-69.096
	c0-41.796,33.882-75.678,75.678-75.678h4.518c41.796,0,75.678,33.882,75.678,75.678v69.096
	C331.8,283.046,297.918,316.927,256.122,316.927z"/>
<path style="fill:#FED8B2;" d="M256.122,96.476h-2.42v220.451h2.42c41.796,0,75.678-33.882,75.678-75.678v-69.096
	C331.8,130.357,297.918,96.476,256.122,96.476z"/>
<circle style="fill:#59595B;" cx="217.126" cy="224.522" r="7.794"/>
<circle style="fill:#272525;" cx="290.599" cy="224.522" r="7.794"/>
<path style="fill:#1EA8A4;" d="M325.154,323.559h-26.696c0,23.449-19.008,46.22-42.456,46.22s-42.456-22.771-42.456-46.22h-26.696
	c-32.153,0-58.218,26.065-58.218,58.218v96.337c37.51,21.557,80.999,33.887,127.369,33.887s89.86-12.329,127.372-33.887v-96.337
	C383.372,349.624,357.307,323.559,325.154,323.559z"/>
<path style="fill:#009385;" d="M325.154,323.559h-26.696c0,23.449-19.008,46.22-42.456,46.22c-0.771,0-1.538-0.028-2.298-0.076
	v142.26c0.767,0.007,1.529,0.038,2.298,0.038c46.37,0,89.86-12.329,127.372-33.887v-96.337
	C383.372,349.624,357.307,323.559,325.154,323.559z"/>
<path style="fill:#FD8469;" d="M253.862,288.391c-14.043,0-25.464-11.423-25.464-25.464c0-2.381,1.929-4.31,4.31-4.31
	s4.31,1.929,4.31,4.31c0,9.288,7.558,16.844,16.844,16.844c9.287,0,16.844-7.558,16.844-16.844c0-2.381,1.929-4.31,4.31-4.31
	s4.31,1.929,4.31,4.31C279.328,276.969,267.905,288.391,253.862,288.391z"/>
<path style="fill:#FC6F58;" d="M275.018,258.618c-2.381,0-4.31,1.929-4.31,4.31c0,9.288-7.558,16.844-16.844,16.844
	c-0.053,0-0.107-0.007-0.16-0.009v8.62c0.053,0,0.105,0.009,0.16,0.009c14.043,0,25.464-11.423,25.464-25.464
	C279.328,260.547,277.399,258.618,275.018,258.618z"/>
<path style="fill:#B97850;" d="M227.347,85.436c-25.379,0-58.763,47.975-66.472,94.88c-49.516,3.11-82.437,8.62-82.437,14.9
	c0,9.711,78.726,17.584,175.838,17.584s175.838-7.873,175.838-17.584c0-6.278-32.92-11.788-82.437-14.9
	c-7.708-46.906-41.093-94.88-66.472-94.88C281.205,85.436,227.347,85.436,227.347,85.436z"/>
<path style="fill:#935635;" d="M347.679,180.318c-7.708-46.906-41.093-94.88-66.472-94.88h-27.505v127.364c0.191,0,0.383,0,0.574,0
	c97.113,0,175.838-7.873,175.838-17.584C430.116,188.937,397.195,183.428,347.679,180.318z"/>
<g>
	<path style="fill:#66B31B;" d="M433.211,318.187l-2.326-10.931c-5.253-24.693,10.504-48.969,35.197-54.224l10.933-2.327
		l2.326,10.931c5.253,24.693-10.504,48.969-35.197,54.224L433.211,318.187z"/>
	<path style="fill:#66B31B;" d="M393.376,345.468l-5.518-0.883c-12.464-1.993-20.954-13.712-18.961-26.176l0.883-5.518l5.518,0.883
		c12.464,1.993,20.954,13.712,18.961,26.176L393.376,345.468z"/>
	<path style="fill:#66B31B;" d="M451.437,373.913l-5.518-0.883c-12.464-1.993-20.954-13.712-18.961-26.176l0.881-5.52l5.518,0.883
		c12.464,1.993,20.952,13.712,18.961,26.176L451.437,373.913z"/>
	<path style="fill:#66B31B;" d="M422.993,170.668l-5.518-0.883c-12.464-1.993-20.954-13.712-18.961-26.176l0.883-5.518l5.518,0.883
		c12.464,1.993,20.952,13.712,18.961,26.176L422.993,170.668z"/>
</g>
<g>
	<path style="fill:#599B13;" d="M477.013,250.703l2.326,10.931c5.253,24.693-10.504,48.969-35.197,54.224l-10.933,2.327
		L477.013,250.703z"/>
	<path style="fill:#599B13;" d="M393.376,345.468l-5.518-0.883c-12.464-1.993-20.954-13.712-18.961-26.176l0.883-5.518
		L393.376,345.468z"/>
	<path style="fill:#599B13;" d="M451.437,373.913l-5.518-0.883c-12.464-1.993-20.954-13.712-18.961-26.176l0.881-5.52
		L451.437,373.913z"/>
	<path style="fill:#599B13;" d="M422.993,170.668l-5.518-0.883c-12.464-1.993-20.954-13.712-18.961-26.176l0.883-5.518
		L422.993,170.668z"/>
</g>
<path style="fill:#E6F3FF;" d="M437.443,255.57c0-5.527-2.746-10.405-6.94-13.371c0.869-5.063-0.638-10.454-4.548-14.362
	c-3.91-3.908-9.299-5.415-14.362-4.548c-2.965-4.194-7.844-6.94-13.371-6.94c-5.527,0-10.405,2.746-13.371,6.94
	c-5.063-0.869-10.454,0.64-14.362,4.548c-3.908,3.908-5.415,9.299-4.548,14.362c-4.194,2.965-6.94,7.844-6.94,13.371
	s2.746,10.405,6.94,13.371c-0.869,5.063,0.638,10.454,4.548,14.362s9.299,5.415,14.362,4.548c2.965,4.194,7.844,6.94,13.371,6.94
	c5.527,0,10.404-2.746,13.371-6.94c5.063,0.869,10.454-0.638,14.362-4.548c3.908-3.91,5.415-9.299,4.548-14.362
	C434.695,265.975,437.443,261.097,437.443,255.57z"/>
<path style="fill:#CFDBE6;" d="M437.443,255.57c0-5.527-2.746-10.405-6.94-13.371c0.869-5.063-0.638-10.454-4.548-14.362
	c-3.91-3.908-9.299-5.415-14.362-4.548c-2.965-4.194-7.844-6.94-13.371-6.94c-0.195,0-0.381,0.029-0.574,0.036v78.367
	c0.193,0.007,0.379,0.036,0.574,0.036c5.527,0,10.404-2.746,13.371-6.94c5.063,0.869,10.454-0.638,14.362-4.548
	c3.908-3.91,5.415-9.299,4.548-14.362C434.695,265.975,437.443,261.097,437.443,255.57z"/>
<circle style="fill:#FFD15D;" cx="398.222" cy="256.001" r="18.101"/>
<path style="fill:#F9B54C;" d="M398.224,237.9c-0.193,0-0.381,0.022-0.574,0.029v36.143c0.193,0.005,0.381,0.029,0.574,0.029
	c9.997,0,18.101-8.104,18.101-18.101S408.221,237.9,398.224,237.9z"/>
<g>
</g>
<g>
</g>
<g>
</g>
<g>
</g>
<g>
</g>
<g>
</g>
<g>
</g>
<g>
</g>
<g>
</g>
<g>
</g>
<g>
</g>
<g>
</g>
<g>
</g>
<g>
</g>
<g>
</g>
</svg>
