<?xml version="1.0" encoding="iso-8859-1"?>
<!-- Generator: Adobe Illustrator 19.0.0, SVG Export Plug-In . SVG Version: 6.00 Build 0)  -->
<svg version="1.1" id="Layer_1" xmlns="http://www.w3.org/2000/svg" xmlns:xlink="http://www.w3.org/1999/xlink" x="0px" y="0px"
	 viewBox="0 0 512 512" style="enable-background:new 0 0 512 512;" xml:space="preserve">
<circle style="fill:#FC6F58;" cx="256" cy="256" r="256"/>
<path style="fill:#F1543F;" d="M377.415,481.423c78.769-42.515,132.706-125.106,134.522-220.46l-53.665-53.665l-42.068,5.649
	L313.078,109.823L239.98,343.988L377.415,481.423z"/>
<path style="fill:#324A5E;" d="M170.667,199.111c-7.184,79.3-28.444,142.222-28.444,142.222
	c39.555,8.139,76.974,9.611,110.618,7.377V154.888C213.225,152.924,174.125,160.927,170.667,199.111z"/>
<path style="fill:#2B3B4E;" d="M338.747,170.667c0,0-43.253-13.665-85.907-15.779V348.71
	c93.432-6.203,157.737-40.993,157.737-40.993C343.345,268.067,338.747,170.667,338.747,170.667z"/>
<path style="fill:#FED8B2;" d="M281.088,319.538v-27.822h-50.176v27.822c0,2.22-1.8,4.02-4.02,4.02h-34.576v96.011h127.371v-96.011
	H285.11C282.888,323.558,281.088,321.758,281.088,319.538z"/>
<path style="fill:#EABE96;" d="M319.686,323.558H285.11c-2.22,0-4.02-1.8-4.02-4.02v-27.822h-28.248v127.853h66.846v-96.011H319.686
	z"/>
<circle style="fill:#FED8B2;" cx="172.597" cy="233.417" r="20.052"/>
<circle style="fill:#EABE96;" cx="335.127" cy="233.417" r="20.052"/>
<path style="fill:#F4E3C3;" d="M256.122,316.926h-4.518c-41.796,0-75.678-33.882-75.678-75.678v-69.096
	c0-41.796,33.882-75.678,75.678-75.678h4.518c41.796,0,75.678,33.882,75.678,75.678v69.096
	C331.8,283.045,297.917,316.926,256.122,316.926z"/>
<path style="fill:#FED8B2;" d="M256.122,96.475h-3.282v220.451h3.282c41.796,0,75.678-33.882,75.678-75.678v-69.096
	C331.8,130.357,297.917,96.475,256.122,96.475z"/>
<path style="fill:#2B3B4E;" d="M169.244,169.191c0-45.378,36.786-82.165,82.165-82.165h4.906c27.832,0,52.414,13.852,67.277,35.023
	c9.369,13.346,14.888,29.596,14.888,47.142v131.055c0,0-9.5-78.15-46.852-92.517c-37.352-14.367-69.53,4.022-92.517-31.03
	c0,0-19.537,3.448-18.389,78.726C181.055,277.171,168.369,282.721,169.244,169.191z"/>
<path style="fill:#1F2D3A;" d="M323.593,122.049c-14.862-21.171-39.445-35.023-67.277-35.023h-3.475V200.89
	c12.104,0.709,25.097,1.574,38.788,6.839c37.352,14.365,46.852,92.517,46.852,92.517V169.191
	C338.48,151.645,332.962,135.397,323.593,122.049z"/>
<circle style="fill:#59595B;" cx="217.126" cy="224.521" r="7.794"/>
<circle style="fill:#272525;" cx="290.599" cy="224.521" r="7.794"/>
<path style="fill:#E6F3FF;" d="M325.154,323.558h-26.696c0,23.449-19.008,67.768-42.456,67.768s-42.456-44.32-42.456-67.768h-26.696
	c-32.153,0-58.218,26.065-58.218,58.218v96.337C166.14,499.671,209.63,512,256,512s89.86-12.329,127.372-33.887v-96.337
	C383.371,349.624,357.307,323.558,325.154,323.558z"/>
<path style="fill:#CFDBE6;" d="M325.154,323.558h-26.696c0,23.449-19.008,67.768-42.456,67.768c-1.064,0-2.115-0.121-3.16-0.298
	v120.918c1.055,0.012,2.101,0.052,3.16,0.052c46.37,0,89.86-12.329,127.372-33.887v-96.335
	C383.371,349.624,357.307,323.558,325.154,323.558z"/>
<path style="fill:#FD8469;" d="M253.862,288.39c-14.043,0-25.464-11.423-25.464-25.464c0-2.381,1.929-4.31,4.31-4.31
	s4.31,1.929,4.31,4.31c0,9.288,7.558,16.844,16.844,16.844c9.287,0,16.844-7.558,16.844-16.844c0-2.381,1.929-4.31,4.31-4.31
	s4.31,1.929,4.31,4.31C279.326,276.968,267.904,288.39,253.862,288.39z"/>
<path style="fill:#FC6F58;" d="M275.016,258.617c-2.381,0-4.31,1.929-4.31,4.31c0,9.288-7.558,16.844-16.844,16.844
	c-0.345,0-0.683-0.031-1.022-0.052v8.62c0.341,0.014,0.678,0.052,1.022,0.052c14.043,0,25.464-11.423,25.464-25.464
	C279.326,260.546,277.397,258.617,275.016,258.617z"/>
<path style="fill:#FFD15D;" d="M447.066,201.266h-48.843v12.067h31.892v16.377h-31.892v12.067h31.892v16.377h-31.892v12.067h31.892
	v16.377h-31.892v12.067h31.892v16.377h-31.892v12.067h31.892v16.377h-31.892v12.067h48.843c7.763,0,14.079-6.315,14.079-14.077
	V215.343C461.145,207.581,454.828,201.266,447.066,201.266z"/>
<g>
</g>
<g>
</g>
<g>
</g>
<g>
</g>
<g>
</g>
<g>
</g>
<g>
</g>
<g>
</g>
<g>
</g>
<g>
</g>
<g>
</g>
<g>
</g>
<g>
</g>
<g>
</g>
<g>
</g>
</svg>
