<?xml version="1.0" encoding="iso-8859-1"?>
<!-- Generator: Adobe Illustrator 19.0.0, SVG Export Plug-In . SVG Version: 6.00 Build 0)  -->
<svg version="1.1" id="Layer_1" xmlns="http://www.w3.org/2000/svg" xmlns:xlink="http://www.w3.org/1999/xlink" x="0px" y="0px"
	 viewBox="0 0 512 512" style="enable-background:new 0 0 512 512;" xml:space="preserve">
<circle style="fill:#324A5E;" cx="256" cy="256" r="256"/>
<path style="fill:#2B3B4E;" d="M512,256c0-10.23-0.619-20.314-1.786-30.23l-26.658-26.658l-10.98,78.214L318.259,123.008
	l-24.983,22.873l-74.304,97.099l-61.945,3.069l49.928,49.928l-5.218,2.172l50.012,50.012l130.562,130.548
	C459.755,434.688,512,351.449,512,256z"/>
<path style="fill:#FED8B2;" d="M281.09,319.538v-27.822h-50.176v27.822c0,2.22-1.8,4.02-4.02,4.02h-34.576v96.011h127.371v-96.011
	h-34.576C282.889,323.558,281.09,321.758,281.09,319.538z"/>
<path style="fill:#EABE96;" d="M319.686,323.558H285.11c-2.22,0-4.02-1.8-4.02-4.02v-27.822h-27.386v127.853h65.984v-96.011H319.686
	z"/>
<circle style="fill:#FED8B2;" cx="172.597" cy="233.417" r="20.052"/>
<circle style="fill:#EABE96;" cx="335.127" cy="233.417" r="20.052"/>
<path style="fill:#F4E3C3;" d="M256.122,316.926h-4.518c-41.796,0-75.678-33.882-75.678-75.678v-69.096
	c0-41.796,33.882-75.678,75.678-75.678h4.518c41.796,0,75.678,33.882,75.678,75.678v69.096
	C331.8,283.045,297.918,316.926,256.122,316.926z"/>
<path style="fill:#FED8B2;" d="M256.122,96.475h-2.42v220.451h2.42c41.796,0,75.678-33.882,75.678-75.678v-69.096
	C331.8,130.357,297.918,96.475,256.122,96.475z"/>
<path style="fill:#F4A200;" d="M336.61,174.121c0-44.375-35.973-80.348-80.348-80.348h-4.798c-44.375,0-80.348,35.973-80.348,80.348
	v12.607h165.495v-12.607H336.61z"/>
<path style="fill:#D88C05;" d="M336.61,174.121c0-44.375-35.973-80.348-80.348-80.348h-2.56v92.956h82.908V174.121z"/>
<circle style="fill:#59595B;" cx="217.126" cy="224.521" r="7.794"/>
<circle style="fill:#272525;" cx="290.599" cy="224.521" r="7.794"/>
<path style="fill:#B97850;" d="M325.154,323.558h-26.696c0,23.449-19.008,28.981-42.456,28.981s-42.456-5.532-42.456-28.981h-26.696
	c-32.153,0-58.218,26.065-58.218,58.218v96.337C166.141,499.671,209.63,512,256,512s89.86-12.329,127.372-33.887v-96.337
	C383.372,349.624,357.307,323.558,325.154,323.558z"/>
<path style="fill:#935635;" d="M325.154,323.558h-26.696c0,23.449-19.008,28.981-42.456,28.981c-0.771,0-1.538-0.007-2.298-0.019
	v159.442c0.767,0.007,1.529,0.038,2.298,0.038c46.37,0,89.86-12.329,127.372-33.887v-96.337
	C383.372,349.624,357.307,323.558,325.154,323.558z"/>
<path style="fill:#FD8469;" d="M253.862,288.39c-14.043,0-25.464-11.423-25.464-25.464c0-2.381,1.929-4.31,4.31-4.31
	s4.31,1.929,4.31,4.31c0,9.288,7.558,16.844,16.844,16.844c9.287,0,16.844-7.558,16.844-16.844c0-2.381,1.929-4.31,4.31-4.31
	s4.31,1.929,4.31,4.31C279.328,276.968,267.905,288.39,253.862,288.39z"/>
<path style="fill:#FC6F58;" d="M275.018,258.617c-2.381,0-4.31,1.929-4.31,4.31c0,9.288-7.558,16.844-16.844,16.844
	c-0.053,0-0.107-0.007-0.16-0.009v8.62c0.053,0,0.107,0.009,0.16,0.009c14.043,0,25.464-11.423,25.464-25.464
	C279.328,260.546,277.399,258.617,275.018,258.617z"/>
<rect x="166.805" y="170.374" style="fill:#D88C05;" width="174.114" height="29.019"/>
<rect x="253.707" y="170.374" style="fill:#C17A08;" width="87.218" height="29.019"/>
<path style="fill:#935635;" d="M256,426.667c-31.418,0-56.889-25.471-56.889-56.889v-46.22h-12.266
	c-5.616,0-11.042,0.812-16.179,2.296v171.548C197.36,506.839,226.073,512,256,512c29.925,0,58.64-5.161,85.333-14.598V325.854
	c-5.139-1.484-10.562-2.296-16.179-2.296h-12.266v46.22C312.889,401.196,287.42,426.667,256,426.667z"/>
<path style="fill:#804000;" d="M325.154,323.558h-12.266v46.22c0,31.418-25.471,56.889-56.889,56.889
	c-0.771,0-1.534-0.028-2.298-0.059v85.366c0.765,0.007,1.529,0.024,2.298,0.024c29.925,0,58.64-5.161,85.333-14.598V325.853
	C336.196,324.37,330.771,323.558,325.154,323.558z"/>
<path style="fill:#935635;" d="M412.444,458.631c10.107-7.814,19.62-16.362,28.444-25.574V284.444h-28.444V458.631z"/>
<path style="fill:#E6F3FF;" d="M483.556,312.889l-16.674-16.674c-7.537-7.537-17.758-11.771-28.415-11.771h-40.245v-56.889h40.243
	c10.657,0,20.88-4.234,28.415-11.771l16.674-16.674C483.556,199.111,515.736,247.955,483.556,312.889z"/>
<path style="fill:#CFDBE6;" d="M398.222,256.862v27.582h40.243c10.657,0,20.88,4.234,28.415,11.771l16.674,16.674
	c10.238-20.659,13.948-39.679,14.265-56.027H398.222z"/>
<path style="fill:#FC6F58;" d="M483.556,199.111l-16.674,16.674c-0.988,0.988-2.026,1.917-3.101,2.789
	c5.401,16.679,9.554,42.96-0.572,74.404c1.281,1.002,2.513,2.074,3.674,3.236l16.674,16.674
	C515.736,247.955,483.556,199.111,483.556,199.111z"/>
<path style="fill:#F1543F;" d="M469.344,256.862c-0.217,10.947-1.938,23.078-6.135,36.118c1.281,1.002,2.513,2.074,3.674,3.236
	l16.674,16.674c10.238-20.659,13.948-39.679,14.265-56.027H469.344z"/>
<g>
</g>
<g>
</g>
<g>
</g>
<g>
</g>
<g>
</g>
<g>
</g>
<g>
</g>
<g>
</g>
<g>
</g>
<g>
</g>
<g>
</g>
<g>
</g>
<g>
</g>
<g>
</g>
<g>
</g>
</svg>
