<?xml version="1.0" encoding="iso-8859-1"?>
<!-- Generator: Adobe Illustrator 19.0.0, SVG Export Plug-In . SVG Version: 6.00 Build 0)  -->
<svg version="1.1" id="Layer_1" xmlns="http://www.w3.org/2000/svg" xmlns:xlink="http://www.w3.org/1999/xlink" x="0px" y="0px"
	 viewBox="0 0 512 512" style="enable-background:new 0 0 512 512;" xml:space="preserve">
<circle style="fill:#FD5790;" cx="256" cy="256" r="256"/>
<path style="fill:#C75163;" d="M512,256c0-15.307-1.348-30.299-3.924-44.866L349.117,53.872l-32.365,63.569l0.007,0.007
	l-96.063,125.533l-62.278,4.594l50.26,48.402l-5.913,3.063l50.707,49.121l129.943,129.931C460.255,433.909,512,350.998,512,256z"/>
<path style="fill:#FED8B2;" d="M281.114,319.538v-27.822h-50.176v27.822c0,2.22-1.8,4.02-4.02,4.02h-34.576v96.011h127.371v-96.011
	h-34.578C282.914,323.558,281.114,321.758,281.114,319.538z"/>
<path style="fill:#EABE96;" d="M319.712,323.558h-34.578c-2.22,0-4.02-1.8-4.02-4.02v-27.822h-25.662v127.853h64.26V323.558z"/>
<circle style="fill:#FED8B2;" cx="172.615" cy="233.417" r="20.052"/>
<circle style="fill:#EABE96;" cx="335.145" cy="233.417" r="20.052"/>
<path style="fill:#F4E3C3;" d="M256.148,316.926h-4.518c-41.796,0-75.678-33.882-75.678-75.678v-69.096
	c0-41.796,33.882-75.678,75.678-75.678h4.518c41.796,0,75.678,33.882,75.678,75.678v69.096
	C331.826,283.045,297.943,316.926,256.148,316.926z"/>
<path style="fill:#FED8B2;" d="M256.148,96.475h-0.696v220.451h0.696c41.796,0,75.678-33.882,75.678-75.678v-69.096
	C331.824,130.357,297.943,96.475,256.148,96.475z"/>
<path style="fill:#935635;" d="M251.435,87.028c-45.378,0-82.165,36.786-82.165,82.165v6.354v57.877h12.062v-33.942
	c-0.002,0-0.005,0-0.007,0c25.435-2.584,50.569-6.847,74.126-14.495V87.028H251.435z"/>
<path style="fill:#804000;" d="M323.618,122.049c-14.863-21.171-39.445-35.023-67.277-35.023h-0.89v97.957
	c10.345-3.358,20.39-7.363,30.018-12.176c11.352,13.038,24.462,24.678,38.934,34.121v26.491h14.102v-43.268v-20.963
	C338.506,151.645,332.988,135.397,323.618,122.049z"/>
<circle style="fill:#59595B;" cx="217.143" cy="224.521" r="7.794"/>
<circle style="fill:#272525;" cx="290.633" cy="224.521" r="7.794"/>
<path style="fill:#324A5E;" d="M325.18,323.558h-26.696c0,23.449-19.008,46.22-42.456,46.22s-42.456-22.771-42.456-46.22h-26.7
	c-32.153,0-58.218,26.065-58.218,58.218v96.337C166.166,499.671,209.656,512,256.024,512c46.37,0,89.86-12.329,127.372-33.887
	v-96.337C383.397,349.624,357.333,323.558,325.18,323.558z"/>
<path style="fill:#2B3B4E;" d="M325.18,323.558h-26.696c0,23.449-19.008,46.22-42.456,46.22c-0.193,0-0.383-0.014-0.574-0.017
	v142.231c0.191,0,0.381,0.009,0.574,0.009c46.37,0,89.86-12.329,127.372-33.887v-96.337
	C383.397,349.624,357.333,323.558,325.18,323.558z"/>
<g>
	<path style="fill:#FD8469;" d="M253.888,288.39c-14.043,0-25.464-11.423-25.464-25.464c0-2.381,1.929-4.31,4.31-4.31
		s4.31,1.929,4.31,4.31c0,9.288,7.558,16.844,16.844,16.844s16.844-7.558,16.844-16.844c0-2.381,1.929-4.31,4.31-4.31
		s4.31,1.929,4.31,4.31C279.352,276.968,267.929,288.39,253.888,288.39z"/>
	<path style="fill:#FD8469;" d="M253.888,279.771c-9.288,0-16.844-7.558-16.844-16.844c0-2.381-1.929-4.31-4.31-4.31
		s-4.31,1.929-4.31,4.31c0,14.043,11.423,25.464,25.464,25.464c0.528,0,1.045-0.048,1.564-0.079v-8.62
		C254.936,279.74,254.416,279.771,253.888,279.771z"/>
</g>
<path style="fill:#FC6F58;" d="M279.352,262.927c0-2.381-1.929-4.31-4.31-4.31s-4.31,1.929-4.31,4.31
	c0,8.761-6.725,15.974-15.281,16.767v8.62C268.764,287.497,279.352,276.44,279.352,262.927z"/>
<path style="fill:#446072;" d="M349.117,196.094c-63.21,0-126.419,0-189.63,0c13.309-46.651,13.309-95.572,0-142.222
	c63.21,0,126.419,0,189.63,0C335.808,100.523,335.808,149.444,349.117,196.094z"/>
<g>
	<path style="fill:#324A5E;" d="M349.117,53.872c-31.222,0-62.443,0-93.665,0v142.222c31.222,0,62.443,0,93.665,0
		C335.808,149.444,335.808,100.523,349.117,53.872z"/>
	<rect x="142.257" y="170.667" style="fill:#324A5E;" width="227.556" height="28.444"/>
</g>
<rect x="255.448" y="170.667" style="fill:#2B3B4E;" width="114.347" height="28.444"/>
<path style="fill:#734B46;" d="M418.935,453.482c6.609-5.46,12.934-11.252,18.963-17.337V256h-18.963V453.482z"/>
<path style="fill:#57442F;" d="M437.898,256h-9.194v188.983c3.136-2.87,6.203-5.818,9.194-8.838L437.898,256L437.898,256z"/>
<polygon style="fill:#FFD15D;" points="428.416,207.07 441.734,234.056 471.514,238.383 449.965,259.387 455.052,289.047 
	428.416,275.044 401.78,289.047 406.868,259.387 385.319,238.383 415.099,234.056 "/>
<polygon style="fill:#F9B54C;" points="449.965,259.387 471.514,238.383 441.734,234.056 428.704,207.655 428.704,275.196 
	455.052,289.047 "/>
<path style="fill:#FFD15D;" d="M254.3,347.367l-27.998,13.998c-6.146,3.072-13.376-1.396-13.376-8.266v-32.151
	c0-6.872,7.23-11.34,13.376-8.266L254.3,326.68V347.367z"/>
<g>
	<path style="fill:#F9B54C;" d="M252.576,326.68l27.998-13.998c6.146-3.072,13.376,1.396,13.376,8.266v32.151
		c0,6.872-7.23,11.34-13.376,8.266l-27.998-13.998V326.68z"/>
	<path style="fill:#F9B54C;" d="M257.462,351.246h-8.045c-5.634,0-10.199-4.567-10.199-10.2V333c0-5.634,4.567-10.2,10.199-10.2
		h8.045c5.634,0,10.2,4.567,10.2,10.2v8.045C267.66,346.679,263.096,351.246,257.462,351.246z"/>
</g>
<path style="fill:#F4A200;" d="M257.462,322.801h-2.012v28.444h2.012c5.634,0,10.2-4.567,10.2-10.2V333
	C267.66,327.368,263.096,322.801,257.462,322.801z"/>
<g>
</g>
<g>
</g>
<g>
</g>
<g>
</g>
<g>
</g>
<g>
</g>
<g>
</g>
<g>
</g>
<g>
</g>
<g>
</g>
<g>
</g>
<g>
</g>
<g>
</g>
<g>
</g>
<g>
</g>
</svg>
