<?xml version="1.0" encoding="iso-8859-1"?>
<!-- Generator: Adobe Illustrator 19.0.0, SVG Export Plug-In . SVG Version: 6.00 Build 0)  -->
<svg version="1.1" id="Layer_1" xmlns="http://www.w3.org/2000/svg" xmlns:xlink="http://www.w3.org/1999/xlink" x="0px" y="0px"
	 viewBox="0 0 512.002 512.002" style="enable-background:new 0 0 512.002 512.002;" xml:space="preserve">
<circle style="fill:#FD8469;" cx="256.001" cy="256" r="256"/>
<path style="fill:#FC6F58;" d="M382.242,478.744C459.727,434.736,512.001,351.477,512.001,256c0-18.036-1.876-35.633-5.423-52.615
	l-27.331-27.331l-43.667,56.275L315.915,112.664l-78.805,77.543l-81.186,54.358l45.047,45.047l-5.76,2.103L382.242,478.744z"/>
<path style="fill:#FED8B2;" d="M281.089,319.538v-27.822h-50.176v27.822c0,2.22-1.8,4.02-4.02,4.02h-34.576v96.011h127.371v-96.011
	h-34.576C282.889,323.558,281.089,321.758,281.089,319.538z"/>
<path style="fill:#EABE96;" d="M319.687,323.558h-34.576c-2.22,0-4.02-1.8-4.02-4.02v-27.822h-26.814v127.853h65.408v-96.011
	H319.687z"/>
<circle style="fill:#FED8B2;" cx="172.598" cy="233.417" r="20.052"/>
<circle style="fill:#EABE96;" cx="335.128" cy="233.417" r="20.052"/>
<path style="fill:#F4E3C3;" d="M256.123,316.926h-4.518c-41.796,0-75.678-33.882-75.678-75.678v-69.096
	c0-41.796,33.882-75.678,75.678-75.678h4.518c41.796,0,75.678,33.882,75.678,75.678v69.096
	C331.801,283.045,297.918,316.926,256.123,316.926z"/>
<path style="fill:#FED8B2;" d="M256.123,96.475h-1.845v220.451h1.845c41.796,0,75.678-33.882,75.678-75.678v-69.096
	C331.799,130.357,297.918,96.475,256.123,96.475z"/>
<path style="fill:#324A5E;" d="M323.593,122.051c-14.862-21.171-39.445-35.023-67.277-35.023h-4.906
	c-45.378,0-82.165,36.786-82.165,82.165v6.354v57.877h12.062v-33.942c-0.002,0-0.005,0-0.007,0
	c36.605-3.718,72.597-10.899,104.145-26.671c11.352,13.036,24.462,24.678,38.934,34.121v26.491h14.102v-43.268v-20.963
	C338.481,151.645,332.963,135.397,323.593,122.051z"/>
<path style="fill:#2B3B4E;" d="M323.593,122.049c-14.863-21.171-39.445-35.023-67.277-35.023h-2.039v98.332
	c10.752-3.432,21.183-7.559,31.166-12.55c11.352,13.038,24.462,24.678,38.934,34.121v26.491h14.102v-43.268v-20.963
	C338.481,151.645,332.963,135.397,323.593,122.049z"/>
<circle style="fill:#59595B;" cx="217.127" cy="224.521" r="7.794"/>
<circle style="fill:#272525;" cx="290.6" cy="224.521" r="7.794"/>
<path style="fill:#324A5E;" d="M325.155,323.558h-26.696c0,23.449-19.008,28.981-42.456,28.981s-42.456-5.532-42.456-28.981H186.85
	c-32.153,0-58.218,26.065-58.218,58.218v96.337C166.141,499.671,209.631,512,256.001,512s89.86-12.329,127.372-33.887v-96.337
	C383.372,349.624,357.308,323.558,325.155,323.558z"/>
<path style="fill:#2B3B4E;" d="M325.155,323.558h-26.696c0,23.449-19.008,28.981-42.456,28.981c-0.578,0-1.152-0.007-1.724-0.014
	v159.446c0.576,0.003,1.146,0.029,1.722,0.029c46.37,0,89.86-12.329,127.372-33.887v-96.337
	C383.372,349.624,357.308,323.558,325.155,323.558z"/>
<path style="fill:#FD8469;" d="M253.863,288.39c-14.043,0-25.464-11.423-25.464-25.464c0-2.381,1.929-4.31,4.31-4.31
	s4.31,1.929,4.31,4.31c0,9.288,7.558,16.844,16.844,16.844c9.287,0,16.844-7.558,16.844-16.844c0-2.381,1.929-4.31,4.31-4.31
	s4.31,1.929,4.31,4.31C279.327,276.968,267.904,288.39,253.863,288.39z"/>
<path style="fill:#FC6F58;" d="M279.327,262.927c0-2.381-1.929-4.31-4.31-4.31s-4.31,1.929-4.31,4.31
	c0,9.149-7.335,16.601-16.431,16.824v8.62C268.127,288.144,279.327,276.828,279.327,262.927z"/>
<path style="fill:#935635;" d="M412.445,458.631c10.107-7.814,19.62-16.362,28.444-25.574V284.444h-28.444V458.631z"/>
<path style="fill:#804000;" d="M427.243,284.444V446.28c4.71-4.239,9.264-8.649,13.646-13.224V284.444H427.243z"/>
<path style="fill:#FFD15D;" d="M426.668,307.502L426.668,307.502c-29.039,0-52.579-23.54-52.579-52.579v-78.869h105.158v78.869
	C479.247,283.962,455.707,307.502,426.668,307.502z"/>
<path style="fill:#F9B54C;" d="M427.243,176.054v131.434c28.772-0.31,52.003-23.719,52.003-52.565v-78.869H427.243z"/>
<path style="fill:#E6F3FF;" d="M256.001,426.667c-31.418,0-56.889-25.471-56.889-56.889v-46.22h-12.266
	c-5.616,0-11.042,0.812-16.179,2.296v171.548C197.36,506.839,226.074,512,256.001,512c29.925,0,58.64-5.161,85.333-14.598V325.854
	c-5.139-1.484-10.562-2.296-16.179-2.296H312.89v46.22C312.89,401.196,287.419,426.667,256.001,426.667z"/>
<path style="fill:#CFDBE6;" d="M325.155,323.558H312.89v46.22c0,31.418-25.471,56.889-56.889,56.889
	c-0.578,0-1.15-0.026-1.724-0.043v85.359c0.574,0.003,1.146,0.019,1.722,0.019c29.925,0,58.64-5.161,85.333-14.598V325.856
	C336.195,324.37,330.772,323.558,325.155,323.558z"/>
<path style="fill:#F9B54C;" d="M374.088,246.519v8.404c0,3.013,0.267,5.961,0.753,8.835h103.65c0.486-2.874,0.753-5.822,0.753-8.835
	v-8.404H374.088z"/>
<path style="fill:#F4A200;" d="M427.386,246.519v17.239h51.107c0.486-2.874,0.753-5.822,0.753-8.835v-8.404H427.386z"/>
<g>
</g>
<g>
</g>
<g>
</g>
<g>
</g>
<g>
</g>
<g>
</g>
<g>
</g>
<g>
</g>
<g>
</g>
<g>
</g>
<g>
</g>
<g>
</g>
<g>
</g>
<g>
</g>
<g>
</g>
</svg>
