<?xml version="1.0" encoding="iso-8859-1"?>
<!-- Generator: Adobe Illustrator 19.0.0, SVG Export Plug-In . SVG Version: 6.00 Build 0)  -->
<svg version="1.1" id="Layer_1" xmlns="http://www.w3.org/2000/svg" xmlns:xlink="http://www.w3.org/1999/xlink" x="0px" y="0px"
	 viewBox="0 0 512 512" style="enable-background:new 0 0 512 512;" xml:space="preserve">
<circle style="fill:#FD8469;" cx="256" cy="256" r="256"/>
<g>
	<polygon style="fill:#FC6F58;" points="83.609,420.061 145.229,481.682 171.168,349.953 115.791,333.145 76.572,355.643 
		83.037,410.29 	"/>
	<path style="fill:#FC6F58;" d="M509.757,289.935L327.346,107.523L203.869,218.233l-46.98,27.631l44.718,44.718l-3.993,3.681
		l184.537,184.535C450.343,440.101,499.019,371.01,509.757,289.935z"/>
</g>
<path style="fill:#E6F3FF;" d="M161.094,384h9.573v-28.444h-9.573c-0.964-3.208-2.238-6.282-3.799-9.18l6.768-6.768l-20.113-20.113
	l-6.768,6.768c-2.898-1.562-5.972-2.838-9.18-3.799v-9.575H99.557v9.573c-3.208,0.964-6.282,2.238-9.18,3.799l-6.768-6.768
	l-20.113,20.113l6.768,6.768c-1.562,2.898-2.836,5.972-3.799,9.18h-9.573v28.444h9.573c0.964,3.208,2.238,6.282,3.799,9.18
	l-6.768,6.768l20.113,20.115l6.768-6.768c2.898,1.562,5.972,2.836,9.18,3.799v9.573h28.444v-9.573
	c3.208-0.964,6.282-2.238,9.18-3.799l6.768,6.768l20.113-20.113l-6.768-6.768C158.856,390.282,160.132,387.208,161.094,384z
	 M113.779,394.48c-13.643,0-24.702-11.059-24.702-24.702c0-13.643,11.059-24.702,24.702-24.702s24.702,11.059,24.702,24.702
	C138.48,383.421,127.421,394.48,113.779,394.48z"/>
<path style="fill:#CFDBE6;" d="M161.094,384h9.573v-28.444h-9.573c-0.964-3.208-2.238-6.282-3.799-9.18l6.768-6.768l-20.113-20.113
	l-6.768,6.768c-2.898-1.562-5.972-2.836-9.18-3.799v-9.575h-14.508v32.201c0.097-0.002,0.19-0.014,0.286-0.014
	c13.643,0,24.702,11.059,24.702,24.702c0,13.643-11.059,24.702-24.702,24.702c-0.097,0-0.19-0.014-0.286-0.014v32.201h14.508v-9.573
	c3.208-0.964,6.282-2.238,9.18-3.799l6.768,6.768l20.113-20.113l-6.768-6.768C158.856,390.282,160.132,387.208,161.094,384z"/>
<path style="fill:#FED8B2;" d="M281.09,319.538v-27.822h-50.176v27.822c0,2.22-1.8,4.02-4.02,4.02h-34.576v96.011h127.371v-96.011
	h-34.576C282.889,323.558,281.09,321.758,281.09,319.538z"/>
<path style="fill:#EABE96;" d="M319.686,323.558H285.11c-2.22,0-4.02-1.8-4.02-4.02v-27.822h-26.236v127.853h64.834v-96.011H319.686
	z"/>
<circle style="fill:#FED8B2;" cx="172.597" cy="233.417" r="20.052"/>
<circle style="fill:#EABE96;" cx="335.127" cy="233.417" r="20.052"/>
<path style="fill:#F4E3C3;" d="M256.122,316.926h-4.518c-41.796,0-75.678-33.882-75.678-75.678v-69.096
	c0-41.796,33.882-75.678,75.678-75.678h4.518c41.796,0,75.678,33.882,75.678,75.678v69.096
	C331.8,283.045,297.918,316.926,256.122,316.926z"/>
<path style="fill:#FED8B2;" d="M256.122,96.475h-1.271v220.451h1.271c41.796,0,75.678-33.882,75.678-75.678v-69.096
	C331.8,130.357,297.918,96.475,256.122,96.475z"/>
<path style="fill:#FFD15D;" d="M251.409,87.028c-45.378,0-82.165,36.786-82.165,82.165v6.354v57.877h12.062v-33.942
	c-0.003,0-0.005,0-0.007,0c25.122-2.551,49.957-6.737,73.264-14.208V87.028H251.409z"/>
<path style="fill:#F9B54C;" d="M323.593,122.049c-14.862-21.171-39.445-35.023-67.277-35.023h-1.751v98.244
	c10.652-3.415,20.985-7.514,30.88-12.462c11.352,13.036,24.462,24.678,38.934,34.121v26.491h14.102v-43.268v-20.963
	C338.48,151.645,332.964,135.397,323.593,122.049z"/>
<circle style="fill:#59595B;" cx="217.126" cy="224.521" r="7.794"/>
<circle style="fill:#272525;" cx="290.599" cy="224.521" r="7.794"/>
<path style="fill:#FD8469;" d="M253.862,288.39c-14.043,0-25.464-11.423-25.464-25.464c0-2.381,1.929-4.31,4.31-4.31
	s4.31,1.929,4.31,4.31c0,9.288,7.558,16.844,16.844,16.844c9.287,0,16.844-7.558,16.844-16.844c0-2.381,1.929-4.31,4.31-4.31
	s4.31,1.929,4.31,4.31C279.328,276.968,267.905,288.39,253.862,288.39z"/>
<path style="fill:#FC6F58;" d="M279.328,262.927c0-2.381-1.929-4.31-4.31-4.31s-4.31,1.929-4.31,4.31
	c0,8.954-7.028,16.279-15.856,16.794v8.62C268.435,287.815,279.328,276.633,279.328,262.927z"/>
<path style="fill:#324A5E;" d="M339.609,198.249H168.943v-63.05c0-15.646,9.95-29.56,24.757-34.618l50.233-17.158
	c7.814-2.669,16.303-2.617,24.083,0.152l47.271,16.813c14.583,5.184,24.323,18.987,24.323,34.464V198.249z"/>
<g>
	<path style="fill:#2B3B4E;" d="M339.609,134.853c0-15.477-9.74-29.281-24.323-34.466l-47.271-16.813
		c-4.251-1.512-8.714-2.184-13.164-2.074v116.75h84.758V134.853z"/>
	<path style="fill:#2B3B4E;" d="M165.495,205.791c0-17.137,40.52-31.03,90.505-31.03s90.505,13.893,90.505,31.03H165.495z"/>
</g>
<path style="fill:#20303F;" d="M256,174.761c-0.384,0-0.764,0.009-1.148,0.01v31.02h91.653
	C346.505,188.654,305.985,174.761,256,174.761z"/>
<path style="fill:#31BAFD;" d="M323.017,323.558H296.32c0,23.449-19.01,42.456-42.456,42.456s-42.456-19.01-42.456-42.456h-26.696
	c-32.153,0-58.218,26.065-58.218,58.218v95.075C164.486,499.181,208.743,512,256,512c45.496,0,88.211-11.883,125.235-32.692v-97.532
	C381.235,349.624,355.169,323.558,323.017,323.558z"/>
<path style="fill:#2B9ED8;" d="M323.017,323.558H296.32c0,23.116-18.479,41.905-41.469,42.432v145.991
	c0.384,0.002,0.764,0.019,1.148,0.019c45.496,0,88.211-11.883,125.235-32.692v-97.532
	C381.235,349.624,355.169,323.558,323.017,323.558z"/>
<path style="fill:#324A5E;" d="M199.113,323.558H184.71c-4.842,0-9.544,0.602-14.041,1.715v172.13
	C197.36,506.845,226.075,512,256.002,512c29.929,0,58.64-5.172,85.333-14.615v-170.87c-5.761-1.908-11.916-2.958-18.316-2.958
	h-10.128v103.11H199.113V323.558L199.113,323.558z"/>
<path style="fill:#2B3B4E;" d="M323.017,323.558h-10.128v103.109h-58.037v85.321C255.235,511.99,255.616,512,256,512
	c29.929,0,58.64-5.172,85.333-14.615v-170.87C335.572,324.606,329.419,323.558,323.017,323.558z"/>
<path style="fill:#FFFFFF;" d="M473.983,298.667h9.573v-28.444h-9.573c-0.964-3.208-2.238-6.282-3.799-9.18l6.768-6.768
	l-20.113-20.113l-6.768,6.768c-2.898-1.562-5.972-2.838-9.18-3.799v-9.575h-28.444v9.573c-3.208,0.964-6.282,2.238-9.18,3.799
	l-6.768-6.766l-20.113,20.113l6.768,6.768c-1.562,2.898-2.836,5.972-3.799,9.18h-9.576v28.444h9.573
	c0.964,3.208,2.238,6.282,3.799,9.18l-6.768,6.768l20.116,20.113l6.768-6.768c2.898,1.562,5.972,2.836,9.18,3.799v9.575h28.444
	v-9.573c3.208-0.964,6.282-2.238,9.18-3.799l6.768,6.768l20.113-20.113l-6.768-6.768
	C471.745,304.949,473.019,301.875,473.983,298.667z M426.667,309.146c-13.643,0-24.702-11.059-24.702-24.702
	c0-13.643,11.059-24.702,24.702-24.702s24.702,11.059,24.702,24.702C451.369,298.087,440.31,309.146,426.667,309.146z"/>
<path style="fill:#E6F3FF;" d="M473.983,298.667h9.573v-28.444h-9.573c-0.964-3.208-2.238-6.282-3.799-9.18l6.768-6.768
	l-20.113-20.113l-6.768,6.768c-2.898-1.562-5.972-2.836-9.18-3.799v-9.575h-14.796v32.216c0.193-0.005,0.381-0.029,0.574-0.029
	c13.643,0,24.702,11.059,24.702,24.702c0,13.643-11.059,24.702-24.702,24.702c-0.193,0-0.381-0.024-0.574-0.029v32.216h14.796
	v-9.573c3.208-0.964,6.282-2.238,9.18-3.799l6.768,6.768l20.113-20.113l-6.768-6.768
	C471.745,304.949,473.021,301.875,473.983,298.667z"/>
<g>
</g>
<g>
</g>
<g>
</g>
<g>
</g>
<g>
</g>
<g>
</g>
<g>
</g>
<g>
</g>
<g>
</g>
<g>
</g>
<g>
</g>
<g>
</g>
<g>
</g>
<g>
</g>
<g>
</g>
</svg>
