<?xml version="1.0" encoding="iso-8859-1"?>
<!-- Generator: Adobe Illustrator 19.0.0, SVG Export Plug-In . SVG Version: 6.00 Build 0)  -->
<svg version="1.1" id="Layer_1" xmlns="http://www.w3.org/2000/svg" xmlns:xlink="http://www.w3.org/1999/xlink" x="0px" y="0px"
	 viewBox="0 0 512 512" style="enable-background:new 0 0 512 512;" xml:space="preserve">
<circle style="fill:#FFD15D;" cx="256" cy="256" r="256"/>
<path style="fill:#F9B54C;" d="M382.245,478.742c73.328-41.65,124.061-118.455,129.291-207.5l-25.214-25.214l-13.488,15.641
	L326.513,115.348l-64.478,37.793l-105.589,47.264l38.603,38.605l-36.226,8.961l41.56,41.56l-5.165,2.188L382.245,478.742z"/>
<path style="fill:#FED8B2;" d="M281.09,319.538v-27.822h-50.176v27.822c0,2.22-1.8,4.02-4.02,4.02h-34.576v96.011h127.371v-96.011
	h-34.576C282.89,323.558,281.09,321.758,281.09,319.538z"/>
<path style="fill:#EABE96;" d="M319.686,323.558H285.11c-2.22,0-4.02-1.8-4.02-4.02v-27.822h-26.236v127.853h64.834v-96.011H319.686
	z"/>
<circle style="fill:#FED8B2;" cx="172.597" cy="233.417" r="20.052"/>
<circle style="fill:#EABE96;" cx="335.127" cy="233.417" r="20.052"/>
<path style="fill:#F4E3C3;" d="M256.122,316.926h-4.518c-41.796,0-75.678-33.882-75.678-75.678v-69.096
	c0-41.796,33.882-75.678,75.678-75.678h4.518c41.796,0,75.678,33.882,75.678,75.678v69.096
	C331.8,283.045,297.918,316.926,256.122,316.926z"/>
<path style="fill:#FED8B2;" d="M256.122,96.475h-1.271v220.451h1.271c41.796,0,75.678-33.882,75.678-75.678v-69.096
	C331.8,130.357,297.918,96.475,256.122,96.475z"/>
<path style="fill:#2B3B4E;" d="M323.593,122.049c-14.864-21.171-39.445-35.023-67.277-35.023h-1.464v98.151
	c10.55-3.396,20.787-7.468,30.592-12.369c11.352,13.038,24.462,24.678,38.934,34.121v26.491h14.102v-43.268v-20.963
	C338.48,151.645,332.964,135.397,323.593,122.049z"/>
<path style="fill:#324A5E;" d="M251.409,87.028c-45.378,0-82.163,36.786-82.163,82.165v6.354v57.877h12.062v-33.942
	c-0.002,0-0.005,0-0.007,0c25.226-2.563,50.162-6.771,73.552-14.302V87.028H251.409z"/>
<circle style="fill:#59595B;" cx="217.126" cy="224.521" r="7.794"/>
<circle style="fill:#272525;" cx="290.599" cy="224.521" r="7.794"/>
<g>
	<path style="fill:#31BAFD;" d="M213.544,323.558h-26.696c-32.153,0-58.218,26.065-58.218,58.218v96.337
		c37.202,21.378,80.286,33.664,126.223,33.868V352.53C231.936,352.347,213.544,346.622,213.544,323.558z"/>
	<path style="fill:#31BAFD;" d="M325.155,323.558h-26.696c0,23.449-19.008,28.981-42.456,28.981c-0.384,0-0.765-0.005-1.148-0.009
		v159.451c0.384,0.002,0.764,0.019,1.148,0.019c46.37,0,89.86-12.329,127.372-33.887v-96.337
		C383.373,349.624,357.307,323.558,325.155,323.558z"/>
</g>
<g>
	<path style="fill:#FD8469;" d="M253.862,288.39c-14.043,0-25.464-11.423-25.464-25.464c0-2.381,1.929-4.31,4.31-4.31
		s4.31,1.929,4.31,4.31c0,9.288,7.558,16.844,16.844,16.844c9.287,0,16.844-7.558,16.844-16.844c0-2.381,1.929-4.31,4.31-4.31
		s4.31,1.929,4.31,4.31C279.328,276.968,267.905,288.39,253.862,288.39z"/>
	<path style="fill:#FD8469;" d="M253.862,279.771c-9.288,0-16.844-7.558-16.844-16.844c0-2.381-1.929-4.31-4.31-4.31
		s-4.31,1.929-4.31,4.31c0,14.043,11.423,25.464,25.464,25.464c0.334,0,0.659-0.036,0.99-0.05v-8.62
		C254.523,279.74,254.197,279.771,253.862,279.771z"/>
</g>
<path style="fill:#FC6F58;" d="M279.328,262.927c0-2.381-1.929-4.31-4.31-4.31c-2.381,0-4.31,1.929-4.31,4.31
	c0,8.954-7.028,16.279-15.856,16.794v8.62C268.435,287.815,279.328,276.633,279.328,262.927z"/>
<path style="fill:#2B9ED8;" d="M249.968,352.401V511.9c2.008,0.047,4.013,0.1,6.034,0.1c2.02,0,4.025-0.053,6.034-0.1V352.401
	c-1.972,0.093-3.984,0.138-6.034,0.138C253.952,352.539,251.938,352.494,249.968,352.401z"/>
<path style="fill:#2194C1;" d="M256.002,352.539c-0.39,0-0.762-0.022-1.148-0.026v159.468c0.383,0.003,0.764,0.019,1.148,0.019
	c2.02,0,4.025-0.053,6.034-0.1V352.401C260.063,352.494,258.05,352.539,256.002,352.539z"/>
<polygon style="fill:#2B9ED8;" points="227.557,323.558 256,352.539 227.557,380.983 199.113,323.558 "/>
<polygon style="fill:#2194C1;" points="284.444,323.558 256.002,352.539 284.444,380.983 312.889,323.558 "/>
<path style="fill:#F4A200;" d="M166.359,170.667v28.444h88.495V81.053C205.876,81.67,166.359,121.544,166.359,170.667z"/>
<path style="fill:#DD8D00;" d="M345.645,170.667c0-49.509-40.134-89.643-89.643-89.643c-0.384,0-0.765,0.024-1.148,0.029v118.058
	h90.791V170.667z"/>
<path style="fill:#CC8006;" d="M256.002,81.024c-9.947,0-19.504,1.645-28.444,4.636v113.452h56.889V85.659
	C275.504,82.668,265.947,81.024,256.002,81.024z"/>
<path style="fill:#B26B06;" d="M284.446,85.659c-8.94-2.991-18.497-4.636-28.444-4.636c-0.384,0-0.765,0.019-1.148,0.024v118.063
	h29.593V85.659z"/>
<rect x="156.444" y="169.374" style="fill:#DD8D00;" width="199.111" height="31.03"/>
<rect x="254.845" y="169.374" style="fill:#C97C00;" width="100.711" height="31.03"/>
<path style="fill:#935635;" d="M412.446,458.631c10.107-7.814,19.62-16.362,28.444-25.574V255.426h-28.444V458.631z"/>
<path style="fill:#804000;" d="M427.817,255.426v190.319c4.503-4.077,8.871-8.301,13.072-12.688V255.426L427.817,255.426
	L427.817,255.426z"/>
<path style="fill:#E6F3FF;" d="M354.123,310.834c8.511-21.395,34.552-35.173,58.082-35.173h74.118v-29.632h-81.015
	C370.864,246.029,349.732,276.994,354.123,310.834z"/>
<rect x="427.822" y="246.036" style="fill:#CFDBE6;" width="58.504" height="29.632"/>
<g>
</g>
<g>
</g>
<g>
</g>
<g>
</g>
<g>
</g>
<g>
</g>
<g>
</g>
<g>
</g>
<g>
</g>
<g>
</g>
<g>
</g>
<g>
</g>
<g>
</g>
<g>
</g>
<g>
</g>
</svg>
