<?xml version="1.0" encoding="iso-8859-1"?>
<!-- Generator: Adobe Illustrator 19.0.0, SVG Export Plug-In . SVG Version: 6.00 Build 0)  -->
<svg version="1.1" id="Layer_1" xmlns="http://www.w3.org/2000/svg" xmlns:xlink="http://www.w3.org/1999/xlink" x="0px" y="0px"
	 viewBox="0 0 512.002 512.002" style="enable-background:new 0 0 512.002 512.002;" xml:space="preserve">
<circle style="fill:#324A5E;" cx="256.001" cy="256" r="256"/>
<path style="fill:#2B3B4E;" d="M369.646,485.435c82.773-41.079,140.154-125.616,142.283-223.779L353.402,103.129l-107.744,78.169
	l-88.228,65.215l39.221,39.221l0,0L369.646,485.435z"/>
<polygon style="fill:#935635;" points="168.945,227.556 168.945,341.333 253.703,335.786 253.703,222.008 "/>
<polygon style="fill:#804000;" points="338.481,216.459 253.703,222.008 253.703,335.786 338.481,330.237 "/>
<path style="fill:#FED8B2;" d="M278.953,319.538v-27.822h-50.176v27.822c0,2.22-1.8,4.02-4.02,4.02H190.18v96.011h127.371v-96.011
	h-34.576C280.753,323.558,278.953,321.758,278.953,319.538z"/>
<path style="fill:#EABE96;" d="M317.549,323.558h-34.576c-2.22,0-4.02-1.8-4.02-4.02v-27.822h-25.25v127.853h63.847L317.549,323.558
	L317.549,323.558z"/>
<circle style="fill:#FED8B2;" cx="172.598" cy="233.417" r="20.052"/>
<circle style="fill:#EABE96;" cx="335.128" cy="233.417" r="20.052"/>
<path style="fill:#F4E3C3;" d="M256.123,316.926h-4.518c-41.796,0-75.678-33.882-75.678-75.678v-69.096
	c0-41.796,33.882-75.678,75.678-75.678h4.518c41.796,0,75.678,33.882,75.678,75.678v69.096
	C331.801,283.045,297.919,316.926,256.123,316.926z"/>
<path style="fill:#FED8B2;" d="M256.123,96.475h-2.42v220.451h2.42c41.796,0,75.678-33.882,75.678-75.678v-69.096
	C331.801,130.357,297.919,96.475,256.123,96.475z"/>
<path style="fill:#B97850;" d="M323.593,122.051c-14.862-21.171-39.445-35.023-67.277-35.023h-4.906
	c-45.378,0-82.466,36.786-82.466,82.165v6.354v109.306h12.364V199.48c-0.002,0-0.005,0-0.007,0
	c36.605-3.718,72.597-10.899,104.145-26.671c11.352,13.036,24.462,24.678,38.934,34.121v77.921h14.102v-94.698v-20.963
	C338.481,151.645,332.965,135.397,323.593,122.051z"/>
<path style="fill:#935635;" d="M323.593,122.049c-14.862-21.171-39.445-35.023-67.277-35.023h-2.615v98.509
	c10.955-3.469,21.582-7.647,31.742-12.728c11.352,13.036,24.462,24.678,38.934,34.121v77.921h14.102v-94.698v-20.963
	C338.481,151.645,332.965,135.397,323.593,122.049z"/>
<circle style="fill:#59595B;" cx="217.127" cy="224.521" r="7.794"/>
<circle style="fill:#272525;" cx="290.6" cy="224.521" r="7.794"/>
<path style="fill:#FD8469;" d="M253.865,288.39c-14.043,0-25.464-11.423-25.464-25.464c0-2.381,1.929-4.31,4.31-4.31
	s4.31,1.929,4.31,4.31c0,9.288,7.558,16.844,16.844,16.844s16.844-7.558,16.844-16.844c0-2.381,1.929-4.31,4.31-4.31
	s4.31,1.929,4.31,4.31C279.327,276.968,267.904,288.39,253.865,288.39z"/>
<path style="fill:#FC6F58;" d="M275.017,258.617c-2.381,0-4.31,1.929-4.31,4.31c0,9.288-7.556,16.844-16.844,16.844
	c-0.055,0-0.107-0.007-0.162-0.009v8.62c0.055,0,0.107,0.009,0.162,0.009c14.041,0,25.464-11.423,25.464-25.464
	C279.327,260.546,277.398,258.617,275.017,258.617z"/>
<path style="fill:#FFFFFF;" d="M323.018,323.558h-26.696c0,23.449-19.01,74.664-42.456,74.664s-42.456-51.215-42.456-74.664h-26.696
	c-32.153,0-58.218,26.065-58.218,58.218v95.075C164.487,499.181,208.743,512,256.001,512c45.496,0,88.211-11.883,125.235-32.692
	v-97.532C381.236,349.624,355.17,323.558,323.018,323.558z"/>
<path style="fill:#E6F3FF;" d="M323.018,323.558h-26.696c0,23.449-19.01,74.664-42.456,74.664c-0.053,0-0.107-0.01-0.16-0.01v113.75
	c0.767,0.007,1.529,0.04,2.298,0.04c45.496,0,88.211-11.883,125.235-32.692v-97.533C381.236,349.624,355.17,323.558,323.018,323.558
	z"/>
<path style="fill:#FFFFFF;" d="M320.918,175.073c-42.367-19.13-90.914-19.13-133.28,0c-10.828-23.981-21.656-47.963-32.484-71.944
	c63.019-28.455,135.23-28.455,198.249,0C342.574,127.11,331.746,151.092,320.918,175.073z"/>
<path style="fill:#E6F3FF;" d="M253.703,81.796v78.938c22.919-0.081,45.852,4.694,67.215,14.339
	c10.828-23.981,21.656-47.963,32.484-71.944C321.714,88.821,287.702,81.715,253.703,81.796z"/>
<polygon style="fill:#FC6F58;" points="279.853,115.686 262.803,115.686 262.803,98.637 245.752,98.637 245.752,115.686 
	228.703,115.686 228.703,132.736 245.752,132.736 245.752,149.785 262.803,149.785 262.803,132.736 279.853,132.736 "/>
<polygon style="fill:#F1543F;" points="262.803,115.686 262.803,98.637 253.703,98.637 253.703,149.785 262.803,149.785 
	262.803,132.736 279.853,132.736 279.853,115.686 "/>
<rect x="404.688" y="311.165" style="fill:#CFDBE6;" width="15.515" height="62.061"/>
<rect x="412.738" y="311.165" style="fill:#B8C9D9;" width="7.47" height="62.061"/>
<rect x="410.721" y="199.111" style="fill:#CFDBE6;" width="3.448" height="62.061"/>
<rect x="402.102" y="250.828" style="fill:#B5F1F4;" width="20.687" height="6.896"/>
<rect x="412.738" y="250.828" style="fill:#84DBFF;" width="10.056" height="6.896"/>
<rect x="398.223" y="256" style="fill:#E6F3FF;" width="28.444" height="85.333"/>
<rect x="412.738" y="256" style="fill:#CFDBE6;" width="13.929" height="85.333"/>
<rect x="398.223" y="370.64" style="fill:#E6F3FF;" width="28.444" height="5.172"/>
<rect x="412.738" y="370.64" style="fill:#CFDBE6;" width="13.929" height="5.172"/>
<g>
</g>
<g>
</g>
<g>
</g>
<g>
</g>
<g>
</g>
<g>
</g>
<g>
</g>
<g>
</g>
<g>
</g>
<g>
</g>
<g>
</g>
<g>
</g>
<g>
</g>
<g>
</g>
<g>
</g>
</svg>
