<?xml version="1.0" encoding="iso-8859-1"?>
<!-- Generator: Adobe Illustrator 19.0.0, SVG Export Plug-In . SVG Version: 6.00 Build 0)  -->
<svg version="1.1" id="Layer_1" xmlns="http://www.w3.org/2000/svg" xmlns:xlink="http://www.w3.org/1999/xlink" x="0px" y="0px"
	 viewBox="0 0 512.002 512.002" style="enable-background:new 0 0 512.002 512.002;" xml:space="preserve">
<circle style="fill:#B5F1F4;" cx="256.001" cy="256" r="256"/>
<path style="fill:#84DBFF;" d="M382.158,478.792c72.918-41.379,123.511-117.513,129.274-205.886L315.077,76.552l-129.552,80.506
	l-56.896,20.147l51.941,51.941l-23.116,17.396l43.211,43.211l-3.277,4.27L382.158,478.792z"/>
<path style="fill:#FED8B2;" d="M281.091,319.538v-27.822h-50.176v27.822c0,2.22-1.8,4.02-4.02,4.02h-34.576v96.011h127.371v-96.011
	h-34.576C282.89,323.558,281.091,321.758,281.091,319.538z"/>
<path style="fill:#EABE96;" d="M319.687,323.558h-34.576c-2.22,0-4.02-1.8-4.02-4.02v-27.822h-26.524v127.853h65.122v-96.011
	H319.687z"/>
<circle style="fill:#FED8B2;" cx="172.598" cy="233.417" r="20.052"/>
<circle style="fill:#EABE96;" cx="335.128" cy="233.417" r="20.052"/>
<path style="fill:#F4E3C3;" d="M256.123,316.926h-4.518c-41.796,0-75.678-33.882-75.678-75.678v-69.096
	c0-41.796,33.882-75.678,75.678-75.678h4.518c41.796,0,75.678,33.882,75.678,75.678v69.096
	C331.801,283.045,297.919,316.926,256.123,316.926z"/>
<path style="fill:#FED8B2;" d="M256.123,96.475h-1.558v220.451h1.558c41.796,0,75.678-33.882,75.678-75.678v-69.096
	C331.801,130.357,297.919,96.475,256.123,96.475z"/>
<path style="fill:#324A5E;" d="M323.593,122.051c-14.862-21.171-39.445-35.023-67.277-35.023h-4.906
	c-45.378,0-82.165,36.786-82.165,82.165v6.354v57.877h12.062v-33.942c-0.002,0-0.005,0-0.007,0
	c36.605-3.718,72.597-10.899,104.145-26.671c11.352,13.036,24.462,24.678,38.934,34.121v26.491h14.102v-43.268v-20.963
	C338.481,151.645,332.965,135.397,323.593,122.051z"/>
<path style="fill:#2B3B4E;" d="M323.593,122.049c-14.862-21.171-39.445-35.023-67.277-35.023h-1.752v98.244
	c10.652-3.415,20.985-7.514,30.88-12.462c11.352,13.038,24.462,24.678,38.934,34.121v26.491h14.102v-43.268v-20.963
	C338.481,151.645,332.965,135.397,323.593,122.049z"/>
<g>
	<circle style="fill:#59595B;" cx="217.127" cy="224.521" r="7.794"/>
	<circle style="fill:#59595B;" cx="290.6" cy="224.521" r="7.794"/>
</g>
<path style="fill:#FC6F58;" d="M325.155,323.558h-26.696c0,23.449-19.008,28.981-42.456,28.981s-42.456-5.532-42.456-28.981H186.85
	c-32.153,0-58.218,26.065-58.218,58.218v96.337C166.142,499.671,209.631,512,256.001,512s89.86-12.329,127.372-33.887v-96.337
	C383.373,349.624,357.308,323.558,325.155,323.558z"/>
<path style="fill:#F1543F;" d="M325.155,323.558h-26.696c0,23.449-19.008,28.981-42.456,28.981c-0.481,0-0.958-0.007-1.436-0.01
	v159.449c0.479,0.003,0.955,0.024,1.436,0.024c46.37,0,89.86-12.329,127.372-33.887v-96.339
	C383.373,349.624,357.308,323.558,325.155,323.558z"/>
<ellipse transform="matrix(-0.4372 -0.8994 0.8994 -0.4372 204.8583 382.4676)" style="fill:#2C9984;" cx="222.101" cy="127.135" rx="39.944" ry="106.527"/>
<path style="fill:#278976;" d="M204.634,91.212c52.912-25.719,103.624-30.484,113.268-10.642
	c9.645,19.842-25.431,56.777-78.343,82.496L204.634,91.212z"/>
<path style="fill:#935635;" d="M442.615,431.225V317.63c0-7.854-6.368-14.222-14.222-14.222c-7.854,0-14.222,6.368-14.222,14.222
	v139.674C424.299,449.334,433.801,440.608,442.615,431.225z"/>
<path style="fill:#804000;" d="M428.393,303.407c-0.784,0-1.548,0.081-2.298,0.202v143.65c5.734-5.108,11.264-10.438,16.52-16.034
	V317.63C442.615,309.776,436.247,303.407,428.393,303.407z"/>
<path style="fill:#FD8469;" d="M398.225,292.633c0-15.71,28.444-56.889,28.444-56.889s28.444,41.179,28.444,56.889
	s-12.734,28.444-28.444,28.444S398.225,308.343,398.225,292.633z"/>
<path style="fill:#FC6F58;" d="M426.669,235.744c0,0-0.212,0.309-0.574,0.841v84.463c0.193,0.003,0.381,0.029,0.574,0.029
	c15.71,0,28.444-12.734,28.444-28.444S426.669,235.744,426.669,235.744z"/>
<path style="fill:#C1321F;" d="M449.826,275.254c-8.225-17.887-23.159-39.51-23.159-39.51s-28.444,41.179-28.444,56.889
	c0,0,6.609,2.012,12.341,0c4.396-1.543,8.345-4.187,12.655-6.034C430.864,282.777,443.203,281.774,449.826,275.254z"/>
<path style="fill:#A82116;" d="M426.669,235.744c0,0-0.212,0.309-0.574,0.841v48.774c7.592-2.891,17.887-4.351,23.733-10.104
	C441.602,257.369,426.669,235.744,426.669,235.744z"/>
<path style="fill:#217F6D;" d="M207.151,123.68c-2.05,0-4.079-0.909-5.439-2.65L182.2,96.054c-2.343-3.001-1.812-7.335,1.188-9.68
	c3.003-2.345,7.335-1.814,9.68,1.188l19.511,24.976c2.343,3.001,1.812,7.335-1.188,9.68
	C210.129,123.204,208.635,123.68,207.151,123.68z"/>
<path style="fill:#FD8469;" d="M253.863,288.39c-14.043,0-25.464-11.423-25.464-25.464c0-2.381,1.929-4.31,4.31-4.31
	s4.31,1.929,4.31,4.31c0,9.288,7.558,16.844,16.844,16.844s16.844-7.558,16.844-16.844c0-2.381,1.929-4.31,4.31-4.31
	s4.31,1.929,4.31,4.31C279.329,276.968,267.906,288.39,253.863,288.39z"/>
<path style="fill:#FC6F58;" d="M275.019,258.617c-2.381,0-4.31,1.929-4.31,4.31c0,9.288-7.558,16.844-16.844,16.844
	c-0.345,0-0.683-0.031-1.022-0.052v8.62c0.341,0.014,0.678,0.052,1.022,0.052c14.043,0,25.464-11.423,25.464-25.464
	C279.329,260.546,277.4,258.617,275.019,258.617z"/>
<g>
</g>
<g>
</g>
<g>
</g>
<g>
</g>
<g>
</g>
<g>
</g>
<g>
</g>
<g>
</g>
<g>
</g>
<g>
</g>
<g>
</g>
<g>
</g>
<g>
</g>
<g>
</g>
<g>
</g>
</svg>
