<?xml version="1.0" encoding="iso-8859-1"?>
<!-- Generator: Adobe Illustrator 19.0.0, SVG Export Plug-In . SVG Version: 6.00 Build 0)  -->
<svg version="1.1" id="Layer_1" xmlns="http://www.w3.org/2000/svg" xmlns:xlink="http://www.w3.org/1999/xlink" x="0px" y="0px"
	 viewBox="0 0 512 512" style="enable-background:new 0 0 512 512;" xml:space="preserve">
<circle style="fill:#324A5E;" cx="256" cy="256" r="256"/>
<path style="fill:#2B3B4E;" d="M505.472,313.692L327.951,136.173l-49.783,135.673l-89.112-89.112l-31.082,18.634l28.975,28.975
	l-28.975,16.772l32.799,32.799l-20.889,4.53l75.835,75.835l115.79,129.034C433.292,456.801,487.403,392.135,505.472,313.692z"/>
<path style="fill:#CFDBE6;" d="M174.264,209.33c-10.399,0-19.425-7.806-20.249-18.172c-0.334-4.203,0.671-8.139,2.601-11.471
	c-1.686-2.91-2.665-6.277-2.665-9.881c0-10.914,8.849-19.763,19.763-19.763c0-10.788,8.645-19.558,19.385-19.759
	c11.074-0.207,20.14,9.2,20.14,20.277v21.44c0,20.616-16.713,37.329-37.329,37.329H174.264z"/>
<path style="fill:#B8C9D9;" d="M333.09,209.33c10.399,0,19.425-7.806,20.249-18.172c0.334-4.203-0.671-8.139-2.601-11.471
	c1.686-2.91,2.665-6.277,2.665-9.881c0-10.914-8.849-19.763-19.763-19.763c0-10.788-8.645-19.558-19.385-19.759
	c-11.074-0.207-20.14,9.2-20.14,20.277v21.44c0,20.616,16.713,37.329,37.329,37.329H333.09z"/>
<path style="fill:#FED8B2;" d="M281.09,319.538v-27.822h-50.176v27.822c0,2.22-1.8,4.02-4.02,4.02h-34.576v96.011h127.371v-96.011
	h-34.576C282.89,323.558,281.09,321.758,281.09,319.538z"/>
<path style="fill:#EABE96;" d="M319.686,323.558H285.11c-2.22,0-4.02-1.8-4.02-4.02v-27.822h-26.236v127.853h64.834v-96.011H319.686
	z"/>
<circle style="fill:#FED8B2;" cx="172.597" cy="233.417" r="20.052"/>
<circle style="fill:#EABE96;" cx="335.127" cy="233.417" r="20.052"/>
<path style="fill:#F4E3C3;" d="M256.122,316.926h-4.518c-41.796,0-75.678-33.882-75.678-75.678v-69.096
	c0-41.796,33.882-75.678,75.678-75.678h4.518c41.796,0,75.678,33.882,75.678,75.678v69.096
	C331.8,283.045,297.918,316.926,256.122,316.926z"/>
<path style="fill:#FED8B2;" d="M256.122,96.475h-1.271v220.451h1.271c41.796,0,75.678-33.882,75.678-75.678v-69.096
	C331.8,130.357,297.918,96.475,256.122,96.475z"/>
<path style="fill:#FD8469;" d="M253.862,288.39c-14.043,0-25.464-11.423-25.464-25.464c0-2.381,1.929-4.31,4.31-4.31
	s4.31,1.929,4.31,4.31c0,9.288,7.558,16.844,16.844,16.844c9.287,0,16.844-7.558,16.844-16.844c0-2.381,1.929-4.31,4.31-4.31
	s4.31,1.929,4.31,4.31C279.328,276.968,267.905,288.39,253.862,288.39z"/>
<path style="fill:#FC6F58;" d="M279.328,262.927c0-2.381-1.929-4.31-4.31-4.31c-2.381,0-4.31,1.929-4.31,4.31
	c0,8.954-7.028,16.279-15.856,16.794v8.62C268.435,287.815,279.328,276.633,279.328,262.927z"/>
<circle style="fill:#59595B;" cx="217.126" cy="224.521" r="7.794"/>
<circle style="fill:#272525;" cx="290.599" cy="224.521" r="7.794"/>
<path style="fill:#B97850;" d="M253.864,354.263c-23.449,0-42.458-7.256-42.458-30.704H184.71
	c-32.153,0-58.218,26.065-58.218,58.218v95.075c37.686,22.147,81.537,34.923,128.36,35.128V354.252
	C254.523,354.256,254.195,354.263,253.864,354.263z"/>
<g>
	<path style="fill:#935635;" d="M323.017,323.558H296.32c0,23.116-18.479,30.491-41.469,30.694v157.727
		c0.384,0.002,0.764,0.019,1.148,0.019c45.496,0,88.209-11.883,125.235-32.692v-97.53
		C381.235,349.624,355.169,323.558,323.017,323.558z"/>
	<path style="fill:#935635;" d="M249.968,352.401V511.9c2.008,0.047,4.013,0.1,6.034,0.1c2.02,0,4.025-0.053,6.034-0.1V352.401
		c-1.972,0.093-3.984,0.138-6.034,0.138C253.952,352.539,251.938,352.494,249.968,352.401z"/>
</g>
<path style="fill:#804000;" d="M256.002,352.539c-0.39,0-0.762-0.022-1.148-0.026v159.468c0.383,0.003,0.764,0.019,1.148,0.019
	c2.02,0,4.025-0.053,6.034-0.1V352.401C260.063,352.494,258.05,352.539,256.002,352.539z"/>
<polygon style="fill:#935635;" points="227.557,323.558 256,352.539 227.557,380.983 199.113,323.558 "/>
<polygon style="fill:#804000;" points="284.444,323.558 256.002,352.539 284.444,380.983 312.889,323.558 "/>
<g>
	<path style="fill:#FED8B2;" d="M292.199,173.621c-0.952,0-1.908-0.314-2.707-0.96c-9.581-7.749-21.161-11.845-33.492-11.845
		c-12.328,0-23.909,4.096-33.492,11.845c-1.853,1.498-4.567,1.207-6.061-0.64c-1.498-1.85-1.21-4.563,0.64-6.061
		c10.974-8.876,24.793-13.764,38.912-13.764c14.12,0,27.939,4.889,38.912,13.764c1.85,1.496,2.138,4.21,0.64,6.061
		C294.7,173.075,293.455,173.621,292.199,173.621z"/>
	<path style="fill:#FED8B2;" d="M212.042,156.031c-1.257,0-2.501-0.546-3.353-1.6c-1.498-1.85-1.21-4.563,0.64-6.061
		c13.16-10.647,29.734-16.508,46.67-16.508c16.937,0,33.511,5.861,46.67,16.508c1.85,1.496,2.138,4.21,0.64,6.061
		c-1.498,1.846-4.21,2.139-6.061,0.64c-11.798-9.544-26.062-14.589-41.25-14.589c-15.186,0-29.449,5.046-41.25,14.589
		C213.952,155.717,212.994,156.031,212.042,156.031z"/>
</g>
<g>
	<path style="fill:#EABE96;" d="M294.912,165.962c-10.973-8.875-24.791-13.764-38.912-13.764c-0.383,0-0.764,0.017-1.146,0.024
		v8.642c0.384-0.009,0.762-0.048,1.146-0.048c12.329,0,23.911,4.096,33.492,11.845c0.798,0.646,1.757,0.96,2.707,0.96
		c1.257,0,2.501-0.546,3.353-1.6C297.05,170.172,296.762,167.458,294.912,165.962z"/>
	<path style="fill:#EABE96;" d="M302.67,148.37c-13.159-10.647-29.732-16.508-46.67-16.508c-0.383,0-0.764,0.019-1.146,0.024v8.62
		c0.383-0.007,0.764-0.024,1.146-0.024c15.188,0,29.451,5.046,41.25,14.589c1.85,1.5,4.561,1.207,6.061-0.64
		C304.807,152.581,304.519,149.868,302.67,148.37z"/>
</g>
<rect x="279.273" y="405.549" style="fill:#804000;" width="77.576" height="13.791"/>
<path style="fill:#B8C9D9;" d="M256,256c0,0,14.365-13.791,28.444,0c14.079,13.791,56.889,28.444,56.889,28.444
	S245.655,309.441,256,256z"/>
<path style="fill:#CFDBE6;" d="M255.219,256c0,0-14.365-13.791-28.444,0c-14.079,13.791-56.889,28.444-56.889,28.444
	S265.564,309.441,255.219,256z"/>
<path style="fill:#F9B54C;" d="M457.699,296.512v28.444h15.515v-28.444c0-19.961-16.241-36.202-36.202-36.202
	c-19.961,0-36.202,16.241-36.202,36.202v170.605c5.322-3.656,10.495-7.511,15.515-11.548V296.512
	c0-11.407,9.28-20.687,20.687-20.687C448.419,275.825,457.699,285.105,457.699,296.512z"/>
<path style="fill:#F4A200;" d="M437.012,260.31c-0.193,0-0.381,0.026-0.574,0.029v15.515c0.193-0.005,0.381-0.029,0.574-0.029
	c11.407,0,20.687,9.28,20.687,20.687v28.444h15.515v-28.444C473.214,276.551,456.973,260.31,437.012,260.31z"/>
<g>
</g>
<g>
</g>
<g>
</g>
<g>
</g>
<g>
</g>
<g>
</g>
<g>
</g>
<g>
</g>
<g>
</g>
<g>
</g>
<g>
</g>
<g>
</g>
<g>
</g>
<g>
</g>
<g>
</g>
</svg>
