<?xml version="1.0" encoding="iso-8859-1"?>
<!-- Generator: Adobe Illustrator 19.0.0, SVG Export Plug-In . SVG Version: 6.00 Build 0)  -->
<svg version="1.1" id="Layer_1" xmlns="http://www.w3.org/2000/svg" xmlns:xlink="http://www.w3.org/1999/xlink" x="0px" y="0px"
	 viewBox="0 0 512 512" style="enable-background:new 0 0 512 512;" xml:space="preserve">
<circle style="fill:#E6F3FF;" cx="256" cy="256" r="256"/>
<path style="fill:#CFDBE6;" d="M382.176,478.78C459.695,434.783,512,351.504,512,256c0-6.753-0.265-13.443-0.779-20.065
	l-95.472-95.472l-11.635,11.24L236.87,223.651l-80.134,22.006l44.851,44.851l-4.792,2.891L382.176,478.78z"/>
<path style="fill:#FED8B2;" d="M281.09,319.538v-27.822h-50.176v27.822c0,2.22-1.8,4.02-4.02,4.02h-34.576v96.011h127.371v-96.011
	h-34.576C282.889,323.558,281.09,321.758,281.09,319.538z"/>
<path style="fill:#EABE96;" d="M319.688,323.558h-34.576c-2.22,0-4.02-1.8-4.02-4.02v-27.822h-25.088v127.853h63.685V323.558z"/>
<circle style="fill:#FED8B2;" cx="172.597" cy="233.417" r="20.052"/>
<circle style="fill:#EABE96;" cx="335.127" cy="233.417" r="20.052"/>
<path style="fill:#F4E3C3;" d="M256.124,316.926h-4.518c-41.796,0-75.678-33.882-75.678-75.678v-69.096
	c0-41.796,33.882-75.678,75.678-75.678h4.518c41.796,0,75.678,33.882,75.678,75.678v69.096
	C331.802,283.045,297.918,316.926,256.124,316.926z"/>
<path style="fill:#FED8B2;" d="M256.124,96.475h-0.121v220.451h0.121c41.796,0,75.678-33.882,75.678-75.678v-69.096
	C331.802,130.357,297.918,96.475,256.124,96.475z"/>
<circle style="fill:#59595B;" cx="217.126" cy="224.521" r="7.794"/>
<circle style="fill:#272525;" cx="290.599" cy="224.521" r="7.794"/>
<path style="fill:#FC6F58;" d="M325.156,323.558H298.46c0,23.449-19.008,46.22-42.456,46.22s-42.456-22.771-42.456-46.22h-26.696
	c-32.153,0-58.218,26.065-58.218,58.218v96.337C166.141,499.671,209.632,512,256,512c46.37,0,89.86-12.329,127.372-33.887v-96.337
	C383.372,349.624,357.309,323.558,325.156,323.558z"/>
<path style="fill:#F1543F;" d="M383.372,381.776c0-32.153-26.065-58.218-58.218-58.218h-26.696c0,23.449-19.008,46.22-42.456,46.22
	V512c46.37,0,89.859-12.329,127.371-33.887L383.372,381.776L383.372,381.776z"/>
<path style="fill:#FD8469;" d="M253.864,288.39c-14.043,0-25.464-11.423-25.464-25.464c0-2.381,1.929-4.31,4.31-4.31
	s4.31,1.929,4.31,4.31c0,9.288,7.558,16.844,16.844,16.844c9.287,0,16.844-7.558,16.844-16.844c0-2.381,1.929-4.31,4.31-4.31
	s4.31,1.929,4.31,4.31C279.328,276.968,267.905,288.39,253.864,288.39z"/>
<path style="fill:#FC6F58;" d="M279.328,262.927c0-2.381-1.929-4.31-4.31-4.31s-4.31,1.929-4.31,4.31
	c0,8.563-6.427,15.638-14.707,16.694v8.663C269.045,287.191,279.328,276.246,279.328,262.927z"/>
<path style="fill:#935635;" d="M415.749,140.464c0,0-20.685,17.274-73.552-23.524c-52.867-40.8-104.008-20.113-104.008-20.113
	s-80.45,4.598-67.806,94.815c0.933,6.654,1.895,12.095,2.888,16.494c1.195,12.054,3.932,29.617,10.04,37.521
	c0,0,0.343-13.074,2.315-26.209c6.877-9.475,15.251-36.804,25.948-65.467c0.958,17.836,13.645,35.497,52.474,45.704
	c21.382,5.62,40.989,7.152,58.623,6.096c4.525,15.625,5.161,39.876,5.161,39.876c6.828-8.837,9.442-29.732,10.399-41.52
	C393.985,195.632,415.749,140.464,415.749,140.464z"/>
<path style="fill:#804000;" d="M342.197,116.938c-33.713-26.017-66.7-27.026-86.195-24.345v104.744
	c2.553,0.819,5.222,1.605,8.045,2.346c21.382,5.62,40.989,7.152,58.623,6.096c4.525,15.625,5.161,39.876,5.161,39.876
	c6.828-8.837,9.442-29.732,10.399-41.519c55.753-8.506,77.519-63.674,77.519-63.674S395.064,157.737,342.197,116.938z"/>
<path style="fill:#324A5E;" d="M335.444,462.869H233.446c-5.156,0-9.338-4.18-9.338-9.338v-53.729c0-5.156,4.18-9.338,9.338-9.338
	h101.998c5.156,0,9.338,4.18,9.338,9.338v53.729C344.783,458.688,340.602,462.869,335.444,462.869z"/>
<circle style="fill:#2B3B4E;" cx="295.65" cy="426.667" r="28.444"/>
<path style="fill:#22303F;" d="M324.096,426.667c0-15.71-12.734-28.444-28.444-28.444v56.889
	C311.362,455.111,324.096,442.377,324.096,426.667z"/>
<circle style="fill:#B5F1F4;" cx="295.65" cy="426.667" r="22.411"/>
<g>
	<path style="fill:#84DBFF;" d="M318.062,426.667c0-12.378-10.033-22.411-22.411-22.411v44.822
		C308.029,449.077,318.062,439.044,318.062,426.667z"/>
	<rect x="234.882" y="398.222" style="fill:#84DBFF;" width="28.444" height="15.515"/>
</g>
<g>
</g>
<g>
</g>
<g>
</g>
<g>
</g>
<g>
</g>
<g>
</g>
<g>
</g>
<g>
</g>
<g>
</g>
<g>
</g>
<g>
</g>
<g>
</g>
<g>
</g>
<g>
</g>
<g>
</g>
</svg>
