<?xml version="1.0" encoding="iso-8859-1"?>
<!-- Generator: Adobe Illustrator 19.0.0, SVG Export Plug-In . SVG Version: 6.00 Build 0)  -->
<svg version="1.1" id="Layer_1" xmlns="http://www.w3.org/2000/svg" xmlns:xlink="http://www.w3.org/1999/xlink" x="0px" y="0px"
	 viewBox="0 0 512.002 512.002" style="enable-background:new 0 0 512.002 512.002;" xml:space="preserve">
<circle style="fill:#324A5E;" cx="256.001" cy="256" r="256"/>
<path style="fill:#2B3B4E;" d="M382.155,478.794C459.687,434.798,512.001,351.513,512.001,256c0-4.622-0.129-9.214-0.371-13.776
	L356.434,87.028l-129.586,8.039l-72.242,44.544l74.221,74.221l-70.261,33.904l47.904,47.904l-7.358,0.112L382.155,478.794z"/>
<path style="fill:#FED8B2;" d="M281.091,319.538v-27.822h-50.176v27.822c0,2.22-1.8,4.02-4.02,4.02h-34.576v96.011h127.371v-96.011
	h-34.576C282.89,323.558,281.091,321.758,281.091,319.538z"/>
<path style="fill:#EABE96;" d="M319.687,323.558h-34.576c-2.22,0-4.02-1.8-4.02-4.02v-27.822h-25.09v127.853h63.686V323.558z"/>
<path style="fill:#31BAFD;" d="M256.001,354.263c-23.449,0-44.594-7.256-44.594-30.704H184.71
	c-32.153,0-58.218,26.065-58.218,58.218v95.075C164.487,499.181,208.743,512,256.001,512l0,0V354.263L256.001,354.263z"/>
<path style="fill:#2B9ED8;" d="M381.236,381.776c0-32.153-26.065-58.218-58.218-58.218h-26.696c0,23.449-16.872,30.704-40.32,30.704
	V512c45.496,0,88.209-11.883,125.235-32.692V381.776z"/>
<path style="fill:#E6F3FF;" d="M256.001,354.263c-23.449,0-44.594-7.256-44.594-30.704h-9.319l36.674,131.553h17.239V354.263
	L256.001,354.263z"/>
<path style="fill:#CFDBE6;" d="M309.916,323.558h-13.595c0,23.449-16.872,30.704-40.32,30.704v100.849h17.239L309.916,323.558z"/>
<path style="fill:#B5F1F4;" d="M249.969,352.401V511.9c2.008,0.047,4.013,0.1,6.034,0.1c2.02,0,4.025-0.053,6.034-0.1V352.401
	c-1.972,0.093-3.984,0.138-6.034,0.138S251.939,352.494,249.969,352.401z"/>
<path style="fill:#84DBFF;" d="M262.036,352.401c-1.972,0.093-3.984,0.138-6.034,0.138l0,0V512c2.019,0,4.025-0.053,6.034-0.1
	V352.401z"/>
<polygon style="fill:#B5F1F4;" points="227.558,323.558 256.001,352.539 227.558,380.983 199.114,323.558 "/>
<polygon style="fill:#84DBFF;" points="284.445,323.558 256.003,352.539 284.445,380.983 312.89,323.558 "/>
<path style="fill:#2394C1;" d="M256.003,417.185V512c4.863,0,9.69-0.166,14.484-0.462l42.403-93.874l-22.411-13.888l22.411-18.198
	V322.37h-28.444L256.003,417.185z"/>
<path style="fill:#2B9ED8;" d="M227.558,322.37h-28.444v63.21l22.411,18.198l-22.411,13.888l42.403,93.874
	c4.796,0.297,9.623,0.462,14.484,0.462v-94.815L227.558,322.37z"/>
<circle style="fill:#FED8B2;" cx="172.598" cy="233.417" r="20.052"/>
<circle style="fill:#EABE96;" cx="335.128" cy="233.417" r="20.052"/>
<path style="fill:#F4E3C3;" d="M256.123,316.926h-4.518c-41.796,0-75.678-33.882-75.678-75.678v-69.096
	c0-41.796,33.882-75.678,75.678-75.678h4.518c41.796,0,75.678,33.882,75.678,75.678v69.096
	C331.801,283.045,297.919,316.926,256.123,316.926z"/>
<path style="fill:#FED8B2;" d="M256.123,96.475h-0.122v220.451h0.122c41.796,0,75.678-33.882,75.678-75.678v-69.096
	C331.801,130.357,297.919,96.475,256.123,96.475z"/>
<path style="fill:#F9B54C;" d="M323.593,122.049c-14.862-21.171-39.445-35.023-67.277-35.023h-0.315h-4.591
	c-45.378,0-82.165,36.786-82.165,82.165v6.354v57.877h12.062V199.48c25.64-2.605,50.972-6.923,74.692-14.688
	c10.143-3.32,19.996-7.259,29.444-11.983c11.352,13.038,24.462,24.678,38.934,34.121v26.491h14.102v-43.268v-20.963
	C338.481,151.645,332.965,135.397,323.593,122.049z"/>
<path style="fill:#F4A200;" d="M323.593,122.049c-14.862-21.171-39.445-35.023-67.277-35.023h-0.315v97.764
	c10.143-3.32,19.996-7.259,29.444-11.983c11.352,13.038,24.462,24.678,38.934,34.121v26.491h14.102v-43.268v-20.963
	C338.481,151.645,332.965,135.397,323.593,122.049z"/>
<circle style="fill:#59595B;" cx="217.127" cy="224.521" r="7.794"/>
<circle style="fill:#272525;" cx="290.6" cy="224.521" r="7.794"/>
<path style="fill:#FD8469;" d="M253.865,288.39c-14.043,0-25.464-11.423-25.464-25.464c0-2.381,1.929-4.31,4.31-4.31
	s4.31,1.929,4.31,4.31c0,9.288,7.558,16.844,16.844,16.844s16.844-7.558,16.844-16.844c0-2.381,1.929-4.31,4.31-4.31
	s4.31,1.929,4.31,4.31C279.327,276.968,267.904,288.39,253.865,288.39z"/>
<path style="fill:#FC6F58;" d="M279.327,262.927c0-2.381-1.929-4.31-4.31-4.31s-4.31,1.929-4.31,4.31
	c0,8.563-6.427,15.639-14.707,16.694v8.663C269.044,287.191,279.327,276.247,279.327,262.927z"/>
<ellipse style="fill:#2B9ED8;" cx="256.001" cy="113.778" rx="113.778" ry="56.889"/>
<path style="fill:#2394C1;" d="M256.003,56.889L256.003,56.889v113.778l0,0c62.838,0,113.778-25.471,113.778-56.889
	S318.839,56.889,256.003,56.889z"/>
<path style="fill:#FFD15D;" d="M337.026,151.13c1.25-8.785,1.336-17.236,2.586-26.019c-55.46-7.894-111.759-7.894-167.219,0
	c1.25,8.785,1.336,17.236,2.586,26.019H337.026z"/>
<path style="fill:#F9B54C;" d="M339.612,125.109c-27.731-3.946-55.67-5.92-83.609-5.92v31.939h81.024
	C338.276,142.345,338.36,133.894,339.612,125.109z"/>
<path style="fill:#324A5E;" d="M337.026,151.13c0,14.915-36.276,27.008-81.024,27.008s-81.024-12.091-81.024-27.008H337.026z"/>
<path style="fill:#2B3B4E;" d="M256.001,151.13v27.008l0,0c44.747,0,81.024-12.091,81.024-27.008H256.001z"/>
<rect x="315.476" y="396.498" style="fill:#FFD15D;" width="51.717" height="12.067"/>
<g>
</g>
<g>
</g>
<g>
</g>
<g>
</g>
<g>
</g>
<g>
</g>
<g>
</g>
<g>
</g>
<g>
</g>
<g>
</g>
<g>
</g>
<g>
</g>
<g>
</g>
<g>
</g>
<g>
</g>
</svg>
