<?xml version="1.0" encoding="iso-8859-1"?>
<!-- Generator: Adobe Illustrator 19.0.0, SVG Export Plug-In . SVG Version: 6.00 Build 0)  -->
<svg version="1.1" id="Layer_1" xmlns="http://www.w3.org/2000/svg" xmlns:xlink="http://www.w3.org/1999/xlink" x="0px" y="0px"
	 viewBox="0 0 512.002 512.002" style="enable-background:new 0 0 512.002 512.002;" xml:space="preserve">
<circle style="fill:#E6F3FF;" cx="256.001" cy="256" r="256"/>
<path style="fill:#CFDBE6;" d="M512.001,256c0-0.238-0.009-0.474-0.009-0.712l-35.802-35.802l-20.804,16.037l-125.678-125.68
	L194.363,231.71l-38.164,13.241l47.661,47.661l-7.658,0.165l42.512,42.512c0,0,79.432,97.339,125.687,152.674
	C451.594,447.147,512.001,358.636,512.001,256z"/>
<path style="fill:#FFD15D;" d="M423.221,405.607L423.221,405.607c-5.084,0-9.204-4.12-9.204-9.204V262.947
	c0-5.084,4.12-9.204,9.204-9.204l0,0c5.084,0,9.204,4.12,9.204,9.204v133.456C432.424,401.487,428.304,405.607,423.221,405.607z"/>
<path style="fill:#F9B54C;" d="M423.796,253.8v151.749c4.81-0.302,8.628-4.26,8.628-9.145V262.947
	C432.424,258.06,428.605,254.104,423.796,253.8z"/>
<path style="fill:#FED8B2;" d="M281.091,319.538v-27.822h-50.176v27.822c0,2.22-1.8,4.02-4.02,4.02h-34.576v96.011h127.371v-96.011
	h-34.576C282.89,323.558,281.091,321.758,281.091,319.538z"/>
<path style="fill:#EABE96;" d="M319.687,323.558h-34.576c-2.22,0-4.02-1.8-4.02-4.02v-27.822h-25.662v127.853h64.26v-96.011H319.687
	z"/>
<circle style="fill:#FED8B2;" cx="172.598" cy="233.417" r="20.052"/>
<circle style="fill:#EABE96;" cx="335.128" cy="233.417" r="20.052"/>
<path style="fill:#F4E3C3;" d="M256.123,316.926h-4.518c-41.796,0-75.678-33.882-75.678-75.678v-69.096
	c0-41.796,33.882-75.678,75.678-75.678h4.518c41.796,0,75.678,33.882,75.678,75.678v69.096
	C331.801,283.045,297.919,316.926,256.123,316.926z"/>
<path style="fill:#FED8B2;" d="M256.123,96.475h-0.696v220.451h0.696c41.796,0,75.678-33.882,75.678-75.678v-69.096
	C331.801,130.357,297.919,96.475,256.123,96.475z"/>
<path style="fill:#FD8469;" d="M251.41,87.028c-45.378,0-82.163,36.786-82.163,82.165v6.354v57.877h12.062v-33.942
	c-0.002,0-0.005,0-0.007,0c25.435-2.584,50.569-6.847,74.126-14.495V87.028H251.41z"/>
<path style="fill:#FC6F58;" d="M323.593,122.049c-14.863-21.171-39.445-35.023-67.277-35.023h-0.89v97.957
	c10.345-3.358,20.39-7.363,30.018-12.176c11.352,13.036,24.462,24.678,38.934,34.121v26.491h14.102v-43.268v-20.963
	C338.481,151.645,332.965,135.397,323.593,122.049z"/>
<circle style="fill:#59595B;" cx="217.127" cy="224.521" r="7.794"/>
<circle style="fill:#272525;" cx="290.6" cy="224.521" r="7.794"/>
<path style="fill:#FD8469;" d="M275.019,258.617c-2.381,0-4.31,1.929-4.31,4.31c0,8.759-6.725,15.974-15.281,16.767
	c-0.515,0.048-1.036,0.079-1.564,0.079c-9.288,0-16.844-7.558-16.844-16.844c0-2.381-1.929-4.31-4.31-4.31s-4.31,1.929-4.31,4.31
	c0,14.043,11.423,25.464,25.464,25.464c0.528,0,1.045-0.048,1.564-0.079c13.312-0.815,23.9-11.871,23.9-25.386
	C279.329,260.546,277.4,258.617,275.019,258.617z"/>
<path style="fill:#FC6F58;" d="M279.329,262.927c0-2.381-1.929-4.31-4.31-4.31s-4.31,1.929-4.31,4.31
	c0,8.759-6.725,15.974-15.281,16.767v8.62C268.741,287.497,279.329,276.44,279.329,262.927z"/>
<path style="fill:#4CCBFC;" d="M339.61,198.249H168.944v-63.05c0-15.646,9.95-29.56,24.757-34.618l50.233-17.158
	c7.814-2.669,16.303-2.617,24.083,0.152l47.271,16.813c14.583,5.184,24.323,18.987,24.323,34.464V198.249z"/>
<g>
	<path style="fill:#31BAFD;" d="M339.61,134.853c0-15.477-9.74-29.281-24.323-34.466l-47.271-16.813
		c-4.068-1.446-8.332-2.132-12.59-2.095v116.77h84.183V134.853z"/>
	<path style="fill:#31BAFD;" d="M165.496,205.791c0-17.137,40.52-31.03,90.505-31.03s90.505,13.893,90.505,31.03H165.496z"/>
</g>
<path style="fill:#2B9ED8;" d="M256.001,174.761c-0.193,0-0.381,0.005-0.574,0.005v31.025h91.079
	C346.506,188.654,305.986,174.761,256.001,174.761z"/>
<path style="fill:#FFD300;" d="M323.018,323.558h-26.696c0,23.449-19.01,42.456-42.456,42.456s-42.456-19.01-42.456-42.456h-26.696
	c-32.153,0-58.218,26.065-58.218,58.218v95.075C164.487,499.181,208.743,512,256.001,512c45.496,0,88.211-11.883,125.235-32.692
	v-97.532C381.236,349.624,355.17,323.558,323.018,323.558z"/>
<path style="fill:#F4A200;" d="M323.018,323.558h-26.696c0,22.924-18.172,41.593-40.893,42.418v146.015
	c0.191,0,0.381,0.01,0.574,0.01c45.496,0,88.209-11.883,125.235-32.692v-97.533C381.236,349.624,355.17,323.558,323.018,323.558z"/>
<path style="fill:#C1321F;" d="M199.114,323.558H184.71c-4.842,0-9.544,0.602-14.041,1.715v172.13
	C197.36,506.845,226.076,512,256.003,512c29.929,0,58.64-5.172,85.333-14.615v-170.87c-5.761-1.908-11.916-2.958-18.316-2.958
	h-10.128v103.11H199.114L199.114,323.558L199.114,323.558z"/>
<path style="fill:#A82116;" d="M323.018,323.558H312.89v103.109h-57.463v85.326c0.191,0,0.381,0.007,0.574,0.007
	c29.929,0,58.64-5.172,85.333-14.615v-170.87C335.573,324.606,329.42,323.558,323.018,323.558z"/>
<path style="fill:#FC6F58;" d="M423.221,282.734L423.221,282.734c-25.162,0-45.559-20.397-45.559-45.559v-15.186h91.119v15.186
	C468.779,262.337,448.382,282.734,423.221,282.734z"/>
<path style="fill:#F1543F;" d="M423.796,221.989v60.731c24.895-0.31,44.984-20.577,44.984-45.546v-15.186H423.796z"/>
<path style="fill:#C1321F;" d="M466.479,235.796h-86.516c-6.099,0-11.045-4.944-11.045-11.045l0,0
	c0-6.099,4.944-11.045,11.045-11.045h86.516c6.099,0,11.045,4.944,11.045,11.045l0,0
	C477.524,230.85,472.579,235.796,466.479,235.796z"/>
<path style="fill:#A82116;" d="M466.479,213.706h-42.684v22.09h42.684c6.099,0,11.045-4.944,11.045-11.045
	S472.579,213.706,466.479,213.706z"/>
<g>
</g>
<g>
</g>
<g>
</g>
<g>
</g>
<g>
</g>
<g>
</g>
<g>
</g>
<g>
</g>
<g>
</g>
<g>
</g>
<g>
</g>
<g>
</g>
<g>
</g>
<g>
</g>
<g>
</g>
</svg>
