<?xml version="1.0" encoding="iso-8859-1"?>
<!-- Generator: Adobe Illustrator 19.0.0, SVG Export Plug-In . SVG Version: 6.00 Build 0)  -->
<svg version="1.1" id="Layer_1" xmlns="http://www.w3.org/2000/svg" xmlns:xlink="http://www.w3.org/1999/xlink" x="0px" y="0px"
	 viewBox="0 0 512.002 512.002" style="enable-background:new 0 0 512.002 512.002;" xml:space="preserve">
<circle style="fill:#FFD15D;" cx="256.001" cy="256" r="256"/>
<path style="fill:#F9B54C;" d="M382.161,478.791C459.689,434.793,512.001,351.511,512.001,256c0-5.261-0.178-10.48-0.491-15.662
	l-66.741-66.741l-28.341,39.865L309.914,106.949l-92.793,85.84l-59.666,53.751l46.616,46.616l-4.96,2.584L382.161,478.791z"/>
<rect x="322.371" y="173.597" style="fill:#FFFFFF;" width="122.397" height="195.836"/>
<path style="fill:#FED8B2;" d="M281.089,319.538v-27.822h-50.176v27.822c0,2.22-1.8,4.02-4.02,4.02h-34.576v96.011h127.371v-96.011
	h-34.576C282.889,323.558,281.089,321.758,281.089,319.538z"/>
<path style="fill:#EABE96;" d="M319.687,323.558h-34.576c-2.22,0-4.02-1.8-4.02-4.02v-27.822h-26.814v127.853h65.408v-96.011
	H319.687z"/>
<path style="fill:#324A5E;" d="M323.018,323.558h-26.696c0,23.449-16.872,30.704-40.32,30.704c-0.576,0-1.15-0.009-1.722-0.017
	v157.725c0.576,0.003,1.146,0.029,1.722,0.029c45.496,0,88.209-11.883,125.235-32.692v-97.532
	C381.234,349.624,355.17,323.558,323.018,323.558z"/>
<path style="fill:#3C5668;" d="M211.407,323.558H184.71c-32.153,0-58.218,26.065-58.218,58.218v95.075
	c37.531,22.057,81.179,34.811,127.786,35.119V354.245C231.527,353.892,211.407,346.431,211.407,323.558z"/>
<path style="fill:#B5F1F4;" d="M238.762,455.111h34.478l36.676-131.553h-13.595c0,23.449-16.872,30.704-40.32,30.704
	s-44.594-7.256-44.594-30.704h-9.319L238.762,455.111z"/>
<circle style="fill:#FED8B2;" cx="172.598" cy="233.417" r="20.052"/>
<circle style="fill:#EABE96;" cx="335.128" cy="233.417" r="20.052"/>
<path style="fill:#F4E3C3;" d="M256.123,316.926h-4.518c-41.796,0-75.678-33.882-75.678-75.678v-69.096
	c0-41.796,33.882-75.678,75.678-75.678h4.518c41.796,0,75.678,33.882,75.678,75.678v69.096
	C331.801,283.045,297.918,316.926,256.123,316.926z"/>
<path style="fill:#FED8B2;" d="M256.123,96.475h-1.845v220.451h1.845c41.796,0,75.678-33.882,75.678-75.678v-69.096
	C331.801,130.357,297.918,96.475,256.123,96.475z"/>
<path style="fill:#935635;" d="M323.593,122.051c-14.862-21.171-39.445-35.023-67.277-35.023h-4.906
	c-45.378,0-82.165,36.786-82.165,82.165v6.354v57.877h12.062v-33.942c-0.002,0-0.005,0-0.007,0
	c36.605-3.718,72.597-10.899,104.145-26.671c11.352,13.036,24.462,24.678,38.934,34.121v26.491h14.102v-43.268v-20.963
	C338.481,151.645,332.963,135.397,323.593,122.051z"/>
<path style="fill:#804000;" d="M323.593,122.049c-14.863-21.171-39.445-35.023-67.277-35.023h-2.039v98.332
	c10.752-3.432,21.183-7.559,31.166-12.55c11.352,13.036,24.462,24.678,38.934,34.121v26.491h14.102v-43.268v-20.963
	C338.481,151.645,332.963,135.397,323.593,122.049z"/>
<circle style="fill:#59595B;" cx="217.127" cy="224.521" r="7.794"/>
<circle style="fill:#272525;" cx="290.6" cy="224.521" r="7.794"/>
<path style="fill:#FD8469;" d="M253.863,288.39c-14.043,0-25.464-11.423-25.464-25.464c0-2.381,1.929-4.31,4.31-4.31
	s4.31,1.929,4.31,4.31c0,9.288,7.558,16.844,16.844,16.844s16.844-7.558,16.844-16.844c0-2.381,1.929-4.31,4.31-4.31
	s4.31,1.929,4.31,4.31C279.327,276.968,267.904,288.39,253.863,288.39z"/>
<path style="fill:#FC6F58;" d="M279.327,262.927c0-2.381-1.929-4.31-4.31-4.31s-4.31,1.929-4.31,4.31
	c0,9.149-7.335,16.601-16.431,16.824v8.62C268.127,288.146,279.327,276.828,279.327,262.927z"/>
<path style="fill:#F1543F;" d="M262.629,373.701h-13.255l-11.912,111.38c2.167,1.708,3.387,4.315,3.663,7.039
	c1.11,1.167,1.95,2.748,2.35,4.801c1.167,5.991,11.024,5.954,15.958,5.092c6.565-1.148,11.223-7.034,15.663-11.766L262.629,373.701z
	"/>
<path style="fill:#C1321F;" d="M262.629,373.701h-8.352v128.721c1.908,0.012,3.736-0.16,5.153-0.409
	c6.565-1.148,11.223-7.034,15.663-11.766L262.629,373.701z"/>
<polygon style="fill:#FC6F58;" points="273.24,352.539 238.762,352.539 249.34,375.486 262.662,375.486 "/>
<polygon style="fill:#F1543F;" points="273.24,352.539 254.277,352.539 254.277,375.486 262.662,375.486 "/>
<g>
	<polygon style="fill:#2B9ED8;" points="227.556,323.558 256.001,352.539 227.556,380.983 199.112,323.558 	"/>
	<polygon style="fill:#2B9ED8;" points="284.445,323.558 256.001,352.539 284.445,380.983 312.89,323.558 	"/>
</g>
<path style="fill:#2B3B4E;" d="M256.001,417.185V512c4.863,0,9.69-0.166,14.484-0.462l42.403-93.874l-22.411-13.888l22.411-18.198
	V322.37h-28.443L256.001,417.185z"/>
<path style="fill:#324A5E;" d="M227.556,322.37h-28.444v63.21l22.411,18.198l-22.411,13.888l42.403,93.874
	c4.796,0.297,9.623,0.462,14.484,0.462v-94.815L227.556,322.37z"/>
<g>
	<rect x="369.779" y="224.108" style="fill:#B8C9D9;" width="56.889" height="6.896"/>
	<rect x="369.779" y="252.552" style="fill:#B8C9D9;" width="56.889" height="6.896"/>
	<rect x="369.779" y="280.997" style="fill:#B8C9D9;" width="56.889" height="6.896"/>
	<rect x="369.779" y="309.441" style="fill:#B8C9D9;" width="56.889" height="6.896"/>
</g>
<g>
</g>
<g>
</g>
<g>
</g>
<g>
</g>
<g>
</g>
<g>
</g>
<g>
</g>
<g>
</g>
<g>
</g>
<g>
</g>
<g>
</g>
<g>
</g>
<g>
</g>
<g>
</g>
<g>
</g>
</svg>
