<?xml version="1.0" encoding="iso-8859-1"?>
<!-- Generator: Adobe Illustrator 19.0.0, SVG Export Plug-In . SVG Version: 6.00 Build 0)  -->
<svg version="1.1" id="Layer_1" xmlns="http://www.w3.org/2000/svg" xmlns:xlink="http://www.w3.org/1999/xlink" x="0px" y="0px"
	 viewBox="0 0 512 512" style="enable-background:new 0 0 512 512;" xml:space="preserve">
<circle style="fill:#CFDBE6;" cx="256" cy="256" r="256"/>
<path style="fill:#B8C9D9;" d="M379.271,480.406c72.544-39.936,123.63-114.017,131.617-200.594L353.111,116.402l-164.857,45.994
	l-29.667,27.845l40.688,44.098l-41.562,12.49l41.305,41.305l-3.794,3.584l52.815,52.815l0,0L379.271,480.406z"/>
<path style="fill:#FED8B2;" d="M281.088,319.538v-27.822h-50.176v27.822c0,2.22-1.8,4.02-4.02,4.02h-34.576v96.011h127.371v-96.011
	H285.11C282.888,323.558,281.088,321.758,281.088,319.538z"/>
<path style="fill:#EABE96;" d="M319.686,323.558H285.11c-2.22,0-4.02-1.8-4.02-4.02v-27.822h-25.662v127.853h64.26v-96.011H319.686z
	"/>
<path style="fill:#465F70;" d="M256,352.539c-23.449,0-42.456-5.532-42.456-28.981h-26.696c-32.153,0-58.218,26.065-58.218,58.218
	v96.337C166.14,499.671,209.63,512,256,512h0.002L256,352.539L256,352.539z"/>
<path style="fill:#324A5E;" d="M383.371,381.776c0-32.153-26.065-58.218-58.218-58.218h-26.696
	c0,23.449-19.008,28.981-42.456,28.981V512c46.37,0,89.859-12.329,127.371-33.887L383.371,381.776L383.371,381.776z"/>
<path style="fill:#2B3B4E;" d="M249.966,352.401V511.9c2.008,0.047,4.013,0.1,6.034,0.1s4.025-0.053,6.034-0.1V352.401
	c-1.972,0.093-3.984,0.138-6.034,0.138C253.95,352.539,251.938,352.494,249.966,352.401z"/>
<path style="fill:#23313F;" d="M256,352.539c-0.195,0-0.379-0.012-0.574-0.014V511.99c0.191,0.002,0.381,0.009,0.574,0.009
	c2.02,0,4.025-0.053,6.034-0.1V352.401C260.062,352.494,258.05,352.539,256,352.539z"/>
<polygon style="fill:#324A5E;" points="227.556,323.558 256,352.539 227.556,380.983 199.111,323.558 "/>
<polygon style="fill:#2B3B4E;" points="284.444,323.558 256,352.539 284.444,380.983 312.889,323.558 "/>
<circle style="fill:#FED8B2;" cx="172.597" cy="233.417" r="20.052"/>
<circle style="fill:#EABE96;" cx="335.127" cy="233.417" r="20.052"/>
<path style="fill:#F4E3C3;" d="M256.122,316.926h-4.518c-41.796,0-75.678-33.882-75.678-75.678v-69.096
	c0-41.796,33.882-75.678,75.678-75.678h4.518c41.796,0,75.678,33.882,75.678,75.678v69.096
	C331.8,283.045,297.917,316.926,256.122,316.926z"/>
<path style="fill:#FED8B2;" d="M256.122,96.475h-0.696v220.451h0.696c41.796,0,75.678-33.882,75.678-75.678v-69.096
	C331.798,130.357,297.917,96.475,256.122,96.475z"/>
<path style="fill:#2B3B4E;" d="M334.438,179.143c0,14.439-35.118,26.146-78.438,26.146s-78.438-11.705-78.438-26.146l77.29-9.216
	L334.438,179.143z"/>
<path style="fill:#23313F;" d="M255.426,169.993v35.29c0.193,0,0.381,0.005,0.574,0.005c43.32,0,78.438-11.705,78.438-26.146
	L255.426,169.993z"/>
<circle style="fill:#59595B;" cx="217.126" cy="224.521" r="7.794"/>
<circle style="fill:#272525;" cx="290.599" cy="224.521" r="7.794"/>
<path style="fill:#FD8469;" d="M253.862,288.39c-14.043,0-25.464-11.423-25.464-25.464c0-2.381,1.929-4.31,4.31-4.31
	s4.31,1.929,4.31,4.31c0,9.288,7.558,16.844,16.844,16.844c9.287,0,16.844-7.558,16.844-16.844c0-2.381,1.929-4.31,4.31-4.31
	s4.31,1.929,4.31,4.31C279.326,276.968,267.904,288.39,253.862,288.39z"/>
<path style="fill:#FC6F58;" d="M279.326,262.927c0-2.381-1.929-4.31-4.31-4.31c-2.381,0-4.31,1.929-4.31,4.31
	c0,8.761-6.725,15.974-15.281,16.767v8.62C268.738,287.497,279.326,276.44,279.326,262.927z"/>
<path style="fill:#324A5E;" d="M348.965,113.416l-85.983-42.598c-4.399-2.179-9.563-2.179-13.962,0l-85.985,42.598
	c-5.356,2.653-8.745,8.114-8.745,14.091v51.933c0,6.063,3.484,11.585,8.957,14.195l12.678,6.046v-27.527
	c0-4.377,0.393-8.661,1.107-12.834h153.662c0.714,4.174,1.107,8.457,1.107,12.834v30.006l16.806-7.801
	c5.553-2.577,9.106-8.144,9.106-14.265v-52.584C357.71,121.53,354.321,116.071,348.965,113.416z"/>
<path style="fill:#2B3B4E;" d="M348.965,113.416l-85.983-42.598c-2.376-1.177-4.973-1.696-7.556-1.602v90.102h75.267
	c0.714,4.174,1.107,8.457,1.107,12.834v30.006l16.806-7.801c5.553-2.577,9.106-8.144,9.106-14.265v-52.584
	C357.71,121.53,354.321,116.071,348.965,113.416z"/>
<path style="fill:#FFD15D;" d="M176.7,182.877c52.602-7.487,105.998-7.487,158.599,0c1.241-8.723,2.482-17.446,3.725-26.171
	c-55.072-7.839-110.976-7.839-166.048,0C174.218,165.431,175.459,174.154,176.7,182.877z"/>
<path style="fill:#F9B54C;" d="M255.426,150.835v26.434c26.691-0.028,53.382,1.839,79.874,5.61
	c1.241-8.723,2.482-17.446,3.725-26.171C311.298,152.762,283.362,150.807,255.426,150.835z"/>
<polygon style="fill:#FFD15D;" points="325.532,380.985 332.498,396.786 349.667,394.919 339.466,408.854 349.667,422.788 
	332.498,420.921 325.532,436.72 318.564,420.921 301.397,422.788 311.598,408.854 301.397,394.919 318.564,396.786 "/>
<g>
</g>
<g>
</g>
<g>
</g>
<g>
</g>
<g>
</g>
<g>
</g>
<g>
</g>
<g>
</g>
<g>
</g>
<g>
</g>
<g>
</g>
<g>
</g>
<g>
</g>
<g>
</g>
<g>
</g>
</svg>
