<?xml version="1.0" encoding="iso-8859-1"?>
<!-- Generator: Adobe Illustrator 19.0.0, SVG Export Plug-In . SVG Version: 6.00 Build 0)  -->
<svg version="1.1" id="Layer_1" xmlns="http://www.w3.org/2000/svg" xmlns:xlink="http://www.w3.org/1999/xlink" x="0px" y="0px"
	 viewBox="0 0 512 512" style="enable-background:new 0 0 512 512;" xml:space="preserve">
<circle style="fill:#84DBFF;" cx="256" cy="256" r="256"/>
<path style="fill:#31BAFD;" d="M378.165,481.023C457.89,437.65,512,353.146,512,256c0-4.479-0.117-8.928-0.345-13.35L361.719,92.712
	l-153.579,23.773l-55.594,20.995l125.012,125.012l-72.597-46.445l-46.699,31.382l46.518,46.518l-2.846,4.387l38.683,38.683
	l-2.141,4.317L378.165,481.023z"/>
<path style="fill:#FED8B2;" d="M281.09,319.538v-27.822h-50.176v27.822c0,2.22-1.8,4.02-4.02,4.02h-34.576v96.011h127.371v-96.011
	h-34.576C282.889,323.558,281.09,321.758,281.09,319.538z"/>
<path style="fill:#EABE96;" d="M319.686,323.558H285.11c-2.22,0-4.02-1.8-4.02-4.02v-27.822h-25.088v127.853h63.685V323.558z"/>
<path style="fill:#324A5E;" d="M323.017,323.558H296.32c0,23.449-16.872,30.704-40.32,30.704s-44.594-7.256-44.594-30.704H184.71
	c-32.153,0-58.218,26.065-58.218,58.218v95.075C164.486,499.181,208.743,512,256,512c45.496,0,88.211-11.883,125.235-32.692v-97.532
	C381.235,349.624,355.169,323.558,323.017,323.558z"/>
<path style="fill:#2B3B4E;" d="M381.235,381.776c0-32.153-26.065-58.218-58.218-58.218H296.32c0,23.449-16.872,30.704-40.319,30.704
	V512c45.496,0,88.209-11.883,125.233-32.692V381.776z"/>
<circle style="fill:#FED8B2;" cx="172.597" cy="233.417" r="20.052"/>
<circle style="fill:#EABE96;" cx="335.127" cy="233.417" r="20.052"/>
<path style="fill:#F4E3C3;" d="M256.122,316.926h-4.518c-41.796,0-75.678-33.882-75.678-75.678v-69.096
	c0-41.796,33.882-75.678,75.678-75.678h4.518c41.796,0,75.678,33.882,75.678,75.678v69.096
	C331.8,283.045,297.918,316.926,256.122,316.926z"/>
<path style="fill:#FED8B2;" d="M256.122,96.475h-0.121v220.451h0.121c41.796,0,75.678-33.882,75.678-75.678v-69.096
	C331.8,130.357,297.918,96.475,256.122,96.475z"/>
<path style="fill:#935635;" d="M323.593,122.051c-14.862-21.171-39.445-35.023-67.277-35.023h-4.906
	c-45.378,0-82.165,36.786-82.165,82.165v6.354v57.877h12.062v-33.942c-0.002,0-0.005,0-0.007,0
	c36.605-3.718,72.597-10.899,104.145-26.671c11.352,13.036,24.462,24.678,38.934,34.121v26.491h14.102v-43.268v-20.963
	C338.48,151.645,332.964,135.397,323.593,122.051z"/>
<path style="fill:#804000;" d="M323.593,122.049c-14.862-21.171-39.445-35.023-67.277-35.023H256v97.764
	c10.142-3.32,19.996-7.259,29.443-11.983c11.352,13.038,24.462,24.678,38.934,34.121v26.491h14.102v-43.268v-20.963
	C338.48,151.645,332.964,135.397,323.593,122.049z"/>
<circle style="fill:#59595B;" cx="217.126" cy="224.521" r="7.794"/>
<circle style="fill:#272525;" cx="290.599" cy="224.521" r="7.794"/>
<path style="fill:#FD8469;" d="M253.862,288.39c-14.043,0-25.464-11.423-25.464-25.464c0-2.381,1.929-4.31,4.31-4.31
	s4.31,1.929,4.31,4.31c0,9.288,7.558,16.844,16.844,16.844c9.287,0,16.844-7.558,16.844-16.844c0-2.381,1.929-4.31,4.31-4.31
	s4.31,1.929,4.31,4.31C279.328,276.968,267.905,288.39,253.862,288.39z"/>
<path style="fill:#FC6F58;" d="M279.328,262.927c0-2.381-1.929-4.31-4.31-4.31s-4.31,1.929-4.31,4.31
	c0,8.563-6.427,15.638-14.707,16.694v8.663C269.045,287.191,279.328,276.246,279.328,262.927z"/>
<ellipse style="fill:#324A5E;" cx="256" cy="113.778" rx="113.778" ry="56.889"/>
<path style="fill:#2B3B4E;" d="M369.78,113.778c0-31.418-50.94-56.889-113.778-56.889v113.778
	C318.838,170.667,369.78,145.196,369.78,113.778z"/>
<path style="fill:#FFD15D;" d="M335.86,151.464c1.25-8.785,2.5-17.57,3.751-26.353c-55.46-7.894-111.759-7.894-167.219,0
	c1.25,8.785,2.501,17.57,3.751,26.353H335.86z"/>
<g>
	<path style="fill:#F9B54C;" d="M339.611,125.109c-27.731-3.946-55.67-5.92-83.609-5.92v32.273h79.858
		C337.11,142.679,338.36,133.894,339.611,125.109z"/>
	<path style="fill:#F9B54C;" d="M336.163,150.85c0,15.224-35.89,27.564-80.162,27.564s-80.162-12.341-80.162-27.564H336.163z"/>
</g>
<path style="fill:#F4A200;" d="M336.163,150.85h-80.162v27.564C300.273,178.416,336.163,166.074,336.163,150.85z"/>
<path style="fill:#FFD15D;" d="M314.132,505.36c7.833-1.82,15.529-3.999,23.068-6.52L192.681,323.558h-7.973
	c-6.32,0-12.398,1.021-18.096,2.882L314.132,505.36z"/>
<path style="fill:#F9B54C;" d="M337.199,498.84l-81.198-98.482v34.499l58.13,70.504C321.965,503.539,329.661,501.36,337.199,498.84z
	"/>
<g>
	<rect x="358.572" y="254.793" style="fill:#FFFFFF;" width="118.949" height="71.37"/>
	<rect x="358.572" y="254.793" style="fill:#FFFFFF;" width="61.199" height="71.37"/>
</g>
<g>
	<rect x="419.771" y="254.793" style="fill:#E6F3FF;" width="57.751" height="71.37"/>
	<polygon style="fill:#E6F3FF;" points="477.524,254.793 419.85,302.373 358.574,254.793 	"/>
</g>
<polygon style="fill:#CFDBE6;" points="477.524,254.793 419.773,254.793 419.773,302.313 419.85,302.373 "/>
<g>
</g>
<g>
</g>
<g>
</g>
<g>
</g>
<g>
</g>
<g>
</g>
<g>
</g>
<g>
</g>
<g>
</g>
<g>
</g>
<g>
</g>
<g>
</g>
<g>
</g>
<g>
</g>
<g>
</g>
</svg>
