<?xml version="1.0" encoding="iso-8859-1"?>
<!-- Generator: Adobe Illustrator 19.0.0, SVG Export Plug-In . SVG Version: 6.00 Build 0)  -->
<svg version="1.1" id="Layer_1" xmlns="http://www.w3.org/2000/svg" xmlns:xlink="http://www.w3.org/1999/xlink" x="0px" y="0px"
	 viewBox="0 0 512 512" style="enable-background:new 0 0 512 512;" xml:space="preserve">
<circle style="fill:#90DFAA;" cx="256" cy="256" r="256"/>
<path style="fill:#6FC186;" d="M505.194,314.84L315.077,124.721l-34.942,38.188l-61.162,80.07l-61.945,3.069l49.928,49.928
	l-5.218,2.172l50.012,50.012l130.562,130.548C443.325,444.026,488.691,385.003,505.194,314.84z"/>
<path style="fill:#324A5E;" d="M325.154,323.558H285.11c-2.22,0-4.02-1.8-4.02-4.02v-27.822h-50.176v27.822
	c0,2.22-1.8,4.02-4.02,4.02h-40.045c-32.153,0-58.218,26.065-58.218,58.218v96.337C166.141,499.671,209.63,512,256,512
	s89.86-12.329,127.372-33.887v-96.337C383.372,349.624,357.307,323.558,325.154,323.558z"/>
<path style="fill:#2B3B4E;" d="M383.372,381.776c0-32.153-26.065-58.218-58.218-58.218H285.11c-2.22,0-4.02-1.8-4.02-4.02v-27.822
	H256V512c46.37,0,89.86-12.329,127.372-33.887V381.776z"/>
<rect x="243.933" y="304.838" style="fill:#FFFFFF;" width="25.285" height="32.18"/>
<rect x="255.707" y="304.838" style="fill:#E6F3FF;" width="13.503" height="32.18"/>
<circle style="fill:#FED8B2;" cx="172.597" cy="233.417" r="20.052"/>
<circle style="fill:#EABE96;" cx="335.127" cy="233.417" r="20.052"/>
<path style="fill:#F4E3C3;" d="M256.122,316.926h-4.518c-41.796,0-75.678-33.882-75.678-75.678v-69.096
	c0-41.796,33.882-75.678,75.678-75.678h4.518c41.796,0,75.678,33.882,75.678,75.678v69.096
	C331.8,283.045,297.918,316.926,256.122,316.926z"/>
<path style="fill:#FED8B2;" d="M256.122,96.475h-1.558v220.451h1.558c41.796,0,75.678-33.882,75.678-75.678v-69.096
	C331.8,130.357,297.918,96.475,256.122,96.475z"/>
<path style="fill:#935635;" d="M256.122,96.475h-4.518c-41.796,0-75.678,33.882-75.678,75.678v12.422
	c34.554-6.387,69.082-15.213,104.208-21.666c22.48-4.817,35.988,15.789,51.665,29.782v-20.539
	C331.8,130.357,297.918,96.475,256.122,96.475z"/>
<path style="fill:#804000;" d="M256.122,96.475h-1.558v71.506c8.494-1.784,17.015-3.5,25.571-5.072
	c22.48-4.817,35.988,15.789,51.665,29.782v-20.539C331.8,130.357,297.918,96.475,256.122,96.475z"/>
<circle style="fill:#59595B;" cx="217.126" cy="224.521" r="7.794"/>
<circle style="fill:#272525;" cx="290.599" cy="224.521" r="7.794"/>
<path style="fill:#FD8469;" d="M256,288.39c-14.043,0-25.464-11.423-25.464-25.464c0-2.381,1.929-4.31,4.31-4.31
	c2.381,0,4.31,1.929,4.31,4.31c0,9.288,7.558,16.844,16.844,16.844c9.287,0,16.844-7.558,16.844-16.844
	c0-2.381,1.929-4.31,4.31-4.31s4.31,1.929,4.31,4.31C281.464,276.968,270.041,288.39,256,288.39z"/>
<path style="fill:#FC6F58;" d="M277.154,258.617c-2.381,0-4.31,1.929-4.31,4.31c0,9.288-7.556,16.844-16.844,16.844
	c-0.484,0-0.962-0.033-1.436-0.072v8.62c0.479,0.028,0.952,0.072,1.436,0.072c14.041,0,25.464-11.423,25.464-25.464
	C281.464,260.546,279.535,258.617,277.154,258.617z"/>
<polygon style="fill:#FFD15D;" points="274.963,398.374 262.322,398.374 262.322,385.733 249.678,385.733 249.678,398.374 
	237.037,398.374 237.037,411.015 249.678,411.015 249.678,444.323 262.322,444.323 262.322,411.015 274.963,411.015 "/>
<polygon style="fill:#F9B54C;" points="262.322,398.374 262.322,385.731 255.714,385.731 255.714,444.323 262.322,444.323 
	262.322,411.015 274.963,411.015 274.963,398.374 "/>
<g>
</g>
<g>
</g>
<g>
</g>
<g>
</g>
<g>
</g>
<g>
</g>
<g>
</g>
<g>
</g>
<g>
</g>
<g>
</g>
<g>
</g>
<g>
</g>
<g>
</g>
<g>
</g>
<g>
</g>
</svg>
