<?xml version="1.0" encoding="iso-8859-1"?>
<!-- Generator: Adobe Illustrator 19.0.0, SVG Export Plug-In . SVG Version: 6.00 Build 0)  -->
<svg version="1.1" id="Layer_1" xmlns="http://www.w3.org/2000/svg" xmlns:xlink="http://www.w3.org/1999/xlink" x="0px" y="0px"
	 viewBox="0 0 512.002 512.002" style="enable-background:new 0 0 512.002 512.002;" xml:space="preserve">
<circle style="fill:#324A5E;" cx="256.001" cy="256" r="256"/>
<path style="fill:#2B3B4E;" d="M512.001,256c0-23.571-3.201-46.39-9.166-68.067l-40.827-42.263l-34.795,67.565l-83.503-84.666
	l-110.12,34.34l-91.119,46.077l28.696,28.696l-13.14,9.49l53.164,53.164L377.333,481.47
	C457.512,438.231,512.001,353.482,512.001,256z"/>
<rect x="199.112" y="152.566" style="fill:#576D7C;" width="256" height="206.869"/>
<path style="fill:#E6F3FF;" d="M462.008,366.33H192.216V145.67h269.791V366.33z M206.008,352.539h242.209V159.461H206.008V352.539z"
	/>
<path style="fill:#FED8B2;" d="M281.091,319.538v-27.822h-50.176v27.822c0,2.22-1.8,4.02-4.02,4.02h-34.576v96.011h127.371v-96.011
	h-34.576C282.89,323.558,281.091,321.758,281.091,319.538z"/>
<path style="fill:#EABE96;" d="M319.687,323.558h-34.576c-2.22,0-4.02-1.8-4.02-4.02v-27.822h-27.388v127.853h65.984V323.558z"/>
<path style="fill:#B97850;" d="M211.407,323.558H184.71c-32.153,0-58.218,26.065-58.218,58.218v95.075
	c37.378,21.966,80.82,34.701,127.21,35.109V354.237C231.189,353.768,211.407,346.238,211.407,323.558z"/>
<path style="fill:#935635;" d="M323.018,323.558h-26.696c0,23.449-16.872,30.704-40.32,30.704c-0.769,0-1.534-0.009-2.298-0.024
	v157.724c0.767,0.007,1.529,0.04,2.298,0.04c45.496,0,88.211-11.883,125.235-32.692v-97.533
	C381.236,349.624,355.17,323.558,323.018,323.558z"/>
<path style="fill:#F4E3C3;" d="M211.407,323.558h-9.319l36.674,131.553h14.941V354.238
	C231.189,353.768,211.407,346.238,211.407,323.558z"/>
<g>
	<path style="fill:#FED8B2;" d="M309.916,323.558h-13.595c0,23.449-16.872,30.704-40.32,30.704c-0.769,0-1.534-0.009-2.298-0.024
		v100.873h19.537L309.916,323.558z"/>
	<circle style="fill:#FED8B2;" cx="172.598" cy="233.417" r="20.052"/>
</g>
<circle style="fill:#EABE96;" cx="335.128" cy="233.417" r="20.052"/>
<path style="fill:#F4E3C3;" d="M256.123,316.926h-4.518c-41.796,0-75.678-33.882-75.678-75.678v-69.096
	c0-41.796,33.882-75.678,75.678-75.678h4.518c41.796,0,75.678,33.882,75.678,75.678v69.096
	C331.801,283.045,297.919,316.926,256.123,316.926z"/>
<path style="fill:#FED8B2;" d="M256.123,96.475h-2.42v220.451h2.42c41.796,0,75.678-33.882,75.678-75.678v-69.096
	C331.801,130.357,297.919,96.475,256.123,96.475z"/>
<g>
	<circle style="fill:#59595B;" cx="217.127" cy="224.521" r="7.794"/>
	<circle style="fill:#59595B;" cx="290.6" cy="224.521" r="7.794"/>
</g>
<path style="fill:#FD8469;" d="M253.865,283.415c-8.556,0-15.515-6.959-15.515-15.515c0-2.381,1.929-4.31,4.31-4.31
	s4.31,1.929,4.31,4.31c0,3.803,3.093,6.896,6.896,6.896c3.803,0,6.896-3.093,6.896-6.896c0-2.381,1.929-4.31,4.31-4.31
	s4.31,1.929,4.31,4.31C269.38,276.456,262.421,283.415,253.865,283.415z"/>
<path style="fill:#FC6F58;" d="M265.07,263.59c-2.381,0-4.31,1.929-4.31,4.31c0,3.803-3.093,6.896-6.896,6.896
	c-0.055,0-0.107-0.016-0.162-0.016v8.628c0.055,0,0.107,0.009,0.162,0.009c8.556,0,15.515-6.959,15.515-15.515
	C269.38,265.521,267.451,263.59,265.07,263.59z"/>
<path style="fill:#D8AC84;" d="M249.969,352.401V511.9c2.008,0.047,4.013,0.1,6.034,0.1c2.02,0,4.025-0.053,6.034-0.1V352.401
	c-1.972,0.093-3.984,0.138-6.034,0.138S251.939,352.494,249.969,352.401z"/>
<path style="fill:#B97850;" d="M256.003,352.539c-0.781,0-1.529-0.04-2.298-0.053V511.96c0.765,0.012,1.529,0.038,2.298,0.038
	c2.02,0,4.025-0.053,6.034-0.1V352.401C260.064,352.494,258.051,352.539,256.003,352.539z"/>
<polygon style="fill:#D6A980;" points="227.558,323.558 256.001,352.539 227.558,380.983 199.114,323.558 "/>
<polygon style="fill:#B97850;" points="284.445,323.558 256.003,352.539 284.445,380.983 312.89,323.558 "/>
<g>
	<path style="fill:#FED8B2;" d="M292.199,173.621c-0.952,0-1.908-0.314-2.707-0.96c-9.581-7.749-21.161-11.845-33.492-11.845
		c-12.331,0-23.911,4.096-33.492,11.845c-1.853,1.5-4.565,1.207-6.061-0.64c-1.498-1.85-1.21-4.563,0.64-6.061
		c10.973-8.875,24.791-13.764,38.912-13.764c14.121,0,27.939,4.889,38.912,13.764c1.85,1.496,2.138,4.21,0.64,6.061
		C294.701,173.075,293.458,173.621,292.199,173.621z"/>
	<path style="fill:#FED8B2;" d="M299.957,156.031c-0.952,0-1.908-0.314-2.707-0.96c-11.8-9.544-26.064-14.589-41.25-14.589
		c-15.186,0-29.449,5.046-41.25,14.589c-1.853,1.5-4.565,1.207-6.061-0.64c-1.498-1.85-1.21-4.563,0.64-6.061
		c13.16-10.647,29.734-16.508,46.67-16.508s33.509,5.861,46.67,16.508c1.85,1.496,2.138,4.21,0.64,6.061
		C302.46,155.482,301.215,156.031,299.957,156.031z"/>
</g>
<g>
	<path style="fill:#EABE96;" d="M294.913,165.962c-10.973-8.875-24.791-13.764-38.912-13.764c-0.767,0-1.533,0.021-2.298,0.05v8.666
		c0.765-0.033,1.526-0.097,2.298-0.097c12.329,0,23.911,4.096,33.492,11.845c0.798,0.646,1.757,0.96,2.707,0.96
		c1.257,0,2.501-0.546,3.353-1.6C297.052,170.172,296.764,167.458,294.913,165.962z"/>
	<path style="fill:#EABE96;" d="M302.67,148.37c-13.16-10.647-29.734-16.508-46.67-16.508c-0.767,0-1.533,0.026-2.298,0.05v8.618
		c0.764-0.026,1.529-0.048,2.298-0.048c15.186,0,29.449,5.046,41.25,14.589c0.798,0.646,1.757,0.96,2.707,0.96
		c1.257,0,2.503-0.546,3.353-1.6C304.81,152.581,304.522,149.868,302.67,148.37z"/>
</g>
<path style="fill:#CFDBE6;" d="M161.857,218.074c-12.698,0-23.723-9.533-24.728-22.194c-0.409-5.132,0.821-9.938,3.177-14.008
	c-2.058-3.553-3.255-7.666-3.255-12.067c0-13.329,10.805-24.135,24.135-24.135c0-13.176,10.557-23.885,23.674-24.13
	c13.526-0.253,24.595,11.235,24.595,24.762v26.184c0,25.178-20.411,45.587-45.587,45.587H161.857z"/>
<path style="fill:#B8C9D9;" d="M350.145,218.074c12.698,0,23.723-9.533,24.728-22.194c0.409-5.132-0.821-9.938-3.177-14.008
	c2.058-3.553,3.255-7.666,3.255-12.067c0-13.329-10.805-24.135-24.135-24.135c0-13.176-10.557-23.885-23.674-24.13
	c-13.526-0.253-24.595,11.235-24.595,24.762v26.184c0,25.178,20.411,45.587,45.587,45.587H350.145z"/>
<path style="fill:#CFDBE6;" d="M269.649,245.657h-27.295c-12.457,0-22.554,10.099-22.554,22.554v27.295
	c0,12.457,10.099,22.554,22.554,22.554h27.295c12.457,0,22.554-10.099,22.554-22.554V268.21
	C292.203,255.755,282.104,245.657,269.649,245.657z M275.826,284.444h-39.65c-4.76,0-8.62-9.462-8.62-14.222s3.86-8.62,8.62-8.62
	h39.65c4.76,0,8.62,3.86,8.62,8.62S280.585,284.444,275.826,284.444z"/>
<path style="fill:#B8C9D9;" d="M269.649,245.657h-15.946v15.946h22.123c4.76,0,8.62,3.86,8.62,8.62s-3.86,14.222-8.62,14.222
	h-22.123v33.616h15.946c12.457,0,22.554-10.099,22.554-22.554v-27.295C292.203,255.755,282.104,245.657,269.649,245.657z"/>
<path style="fill:#804000;" d="M256.003,417.185V512c4.863,0,9.69-0.166,14.484-0.462l42.403-93.874l-22.411-13.888l22.411-18.198
	V322.37h-28.444L256.003,417.185z"/>
<path style="fill:#935635;" d="M227.558,322.37h-28.444v63.21l22.411,18.198l-22.411,13.888l42.403,93.874
	c4.796,0.297,9.623,0.462,14.484,0.462v-94.815L227.558,322.37z"/>
<g>
	<rect x="369.779" y="249.104" style="fill:#E6F3FF;" width="56.889" height="13.791"/>
	<rect x="369.779" y="277.549" style="fill:#E6F3FF;" width="56.889" height="13.791"/>
</g>
<g>
</g>
<g>
</g>
<g>
</g>
<g>
</g>
<g>
</g>
<g>
</g>
<g>
</g>
<g>
</g>
<g>
</g>
<g>
</g>
<g>
</g>
<g>
</g>
<g>
</g>
<g>
</g>
<g>
</g>
</svg>
