<?xml version="1.0" encoding="iso-8859-1"?>
<!-- Generator: Adobe Illustrator 19.0.0, SVG Export Plug-In . SVG Version: 6.00 Build 0)  -->
<svg version="1.1" id="Layer_1" xmlns="http://www.w3.org/2000/svg" xmlns:xlink="http://www.w3.org/1999/xlink" x="0px" y="0px"
	 viewBox="0 0 512 512" style="enable-background:new 0 0 512 512;" xml:space="preserve">
<circle style="fill:#324A5E;" cx="256" cy="256" r="256"/>
<path style="fill:#2B3B4E;" d="M507.452,304.18L315.077,111.802L195.044,215.28l-38.36,30.306l43.458,43.458l-4.218,3.444
	l63.702,63.702l118.4,124.912C444.302,445.099,492.885,380.668,507.452,304.18z"/>
<path style="fill:#FED8B2;" d="M278.952,319.538v-27.822h-50.176v27.822c0,2.22-1.8,4.02-4.02,4.02H190.18v96.011H317.55v-96.011
	h-34.576C280.752,323.558,278.952,321.758,278.952,319.538z"/>
<path style="fill:#EABE96;" d="M317.549,323.558h-34.576c-2.22,0-4.02-1.8-4.02-4.02v-27.822h-25.248v127.853h63.847v-96.011
	H317.549z"/>
<circle style="fill:#FED8B2;" cx="172.597" cy="233.417" r="20.052"/>
<circle style="fill:#EABE96;" cx="335.127" cy="233.417" r="20.052"/>
<path style="fill:#F4E3C3;" d="M256.122,316.926h-4.518c-41.796,0-75.678-33.882-75.678-75.678v-69.096
	c0-41.796,33.882-75.678,75.678-75.678h4.518c41.796,0,75.678,33.882,75.678,75.678v69.096
	C331.8,283.045,297.918,316.926,256.122,316.926z"/>
<path style="fill:#FED8B2;" d="M256.122,96.475h-2.42v220.451h2.42c41.796,0,75.678-33.882,75.678-75.678v-69.096
	C331.8,130.357,297.918,96.475,256.122,96.475z"/>
<path style="fill:#FFD15D;" d="M323.593,122.051c-14.862-21.171-39.445-35.023-67.277-35.023h-4.906
	c-45.378,0-82.165,36.786-82.165,82.165v6.354v57.877h12.062v-41.762c-0.002,0-0.005-20.994-0.007-20.994
	c36.605-3.718,72.597,10.095,104.145-5.677c11.352,13.036,24.462,24.678,38.934,34.121v34.311h14.102v-43.268v-20.963
	C338.48,151.645,332.964,135.397,323.593,122.051z"/>
<path style="fill:#F9B54C;" d="M323.593,122.049c-14.862-21.171-39.445-35.023-67.277-35.023h-2.613v85.561
	c10.955-0.515,21.58-2.517,31.742-7.597c11.352,13.036,24.462,24.678,38.934,34.121v34.311h14.102v-43.268v-20.963
	C338.48,151.645,332.964,135.397,323.593,122.049z"/>
<circle style="fill:#59595B;" cx="217.126" cy="224.521" r="7.794"/>
<circle style="fill:#272525;" cx="290.599" cy="224.521" r="7.794"/>
<path style="fill:#FD8469;" d="M253.862,288.39c-14.043,0-25.464-11.423-25.464-25.464c0-2.381,1.929-4.31,4.31-4.31
	s4.31,1.929,4.31,4.31c0,9.288,7.558,16.844,16.844,16.844c9.287,0,16.844-7.558,16.844-16.844c0-2.381,1.929-4.31,4.31-4.31
	s4.31,1.929,4.31,4.31C279.328,276.968,267.905,288.39,253.862,288.39z"/>
<path style="fill:#FC6F58;" d="M275.018,258.617c-2.381,0-4.31,1.929-4.31,4.31c0,9.288-7.558,16.844-16.844,16.844
	c-0.053,0-0.107-0.007-0.16-0.009v8.62c0.053,0,0.105,0.009,0.16,0.009c14.043,0,25.464-11.423,25.464-25.464
	C279.328,260.546,277.399,258.617,275.018,258.617z"/>
<path style="fill:#4CDBC4;" d="M323.017,323.558H296.32c0,23.449-19.01,42.456-42.456,42.456s-42.456-19.01-42.456-42.456h-26.696
	c-32.153,0-58.218,26.065-58.218,58.218v95.075C164.486,499.181,208.743,512,256,512c45.496,0,88.211-11.883,125.235-32.692v-97.532
	C381.235,349.624,355.169,323.558,323.017,323.558z"/>
<path style="fill:#42C6AC;" d="M323.017,323.558H296.32c0,23.449-19.01,42.456-42.456,42.456c-0.053,0-0.107-0.003-0.16-0.003
	V511.96c0.767,0.007,1.529,0.04,2.298,0.04c45.496,0,88.211-11.883,125.235-32.692v-97.532
	C381.235,349.624,355.169,323.558,323.017,323.558z"/>
<path style="fill:#E6F3FF;" d="M402.525,433.274h-58.02c-7.304,0-13.226-5.922-13.226-13.226V305.712
	c0-7.304,5.922-13.226,13.226-13.226h58.021c7.304,0,13.226,5.922,13.226,13.226v114.336
	C415.751,427.354,409.829,433.274,402.525,433.274z"/>
<path style="fill:#CFDBE6;" d="M402.525,292.49h-28.581v140.786h28.581c7.304,0,13.226-5.922,13.226-13.226V305.714
	C415.751,298.41,409.829,292.49,402.525,292.49z"/>
<rect x="335.127" y="311.682" style="fill:#B5F1F4;" width="76.791" height="102.383"/>
<rect x="373.95" y="311.682" style="fill:#84DBFF;" width="37.96" height="102.383"/>
<path style="fill:#808183;" d="M291.978,194.772c-15.276,0-27.915,11.348-30.02,26.052H245.77
	c-2.103-14.703-14.746-26.052-30.022-26.052c-16.743,0-30.363,13.619-30.363,30.361s13.621,30.363,30.363,30.363
	c15.276,0,27.917-11.35,30.022-26.053h16.187c2.103,14.703,14.745,26.053,30.02,26.053c16.743,0,30.363-13.621,30.363-30.363
	S308.72,194.772,291.978,194.772z M215.749,246.879c-11.99,0-21.744-9.754-21.744-21.744c0-11.988,9.754-21.742,21.744-21.742
	c11.99,0,21.744,9.754,21.744,21.742C237.492,237.125,227.738,246.879,215.749,246.879z M291.978,246.879
	c-11.988,0-21.742-9.754-21.742-21.744c0-11.988,9.754-21.742,21.742-21.742c11.99,0,21.744,9.754,21.744,21.742
	C313.722,237.125,303.968,246.879,291.978,246.879z"/>
<path style="fill:#59595B;" d="M291.978,194.772c-15.276,0-27.915,11.348-30.02,26.052h-8.254v8.62h8.254
	c2.103,14.703,14.745,26.053,30.02,26.053c16.743,0,30.363-13.621,30.363-30.363S308.72,194.772,291.978,194.772z M291.978,246.879
	c-11.988,0-21.742-9.754-21.742-21.744c0-11.988,9.754-21.742,21.742-21.742c11.99,0,21.744,9.754,21.744,21.742
	C313.722,237.125,303.968,246.879,291.978,246.879z"/>
<path style="fill:#00A49A;" d="M278.952,466.51c-1.764,0-3.529-0.674-4.875-2.02c-2.694-2.693-2.694-7.059,0-9.75l26-26.003
	l-26-26.002c-2.694-2.693-2.694-7.059,0-9.75c2.691-2.694,7.061-2.694,9.75,0l30.877,30.877c2.694,2.693,2.694,7.059,0,9.75
	l-30.877,30.879C282.483,465.837,280.716,466.51,278.952,466.51z"/>
<g>
	<path style="fill:#1EA8A4;" d="M211.406,466.51c-1.764,0-3.531-0.674-4.875-2.02l-30.879-30.879
		c-1.293-1.293-2.02-3.048-2.02-4.875c0-1.827,0.727-3.582,2.02-4.875l30.879-30.877c2.691-2.694,7.061-2.694,9.75,0
		c2.694,2.693,2.694,7.059,0,9.75l-26.002,26.002l26.002,26.003c2.694,2.693,2.694,7.059,0,9.75
		C214.937,465.837,213.171,466.51,211.406,466.51z"/>
	<path style="fill:#1EA8A4;" d="M233.598,463.934c-0.805,0-1.62-0.141-2.419-0.441c-3.565-1.336-5.373-5.311-4.036-8.876
		l21.226-56.601c1.334-3.565,5.31-5.375,8.876-4.036c3.565,1.336,5.373,5.311,4.036,8.876l-21.226,56.601
		C239.02,462.226,236.392,463.934,233.598,463.934z"/>
</g>
<path style="fill:#00A49A;" d="M257.248,393.98c-1.176-0.441-2.389-0.512-3.546-0.319v29.41l7.58-20.215
	C262.622,399.291,260.813,395.316,257.248,393.98z"/>
<g>
</g>
<g>
</g>
<g>
</g>
<g>
</g>
<g>
</g>
<g>
</g>
<g>
</g>
<g>
</g>
<g>
</g>
<g>
</g>
<g>
</g>
<g>
</g>
<g>
</g>
<g>
</g>
<g>
</g>
</svg>
