<?xml version="1.0" encoding="iso-8859-1"?>
<!-- Generator: Adobe Illustrator 19.0.0, SVG Export Plug-In . SVG Version: 6.00 Build 0)  -->
<svg version="1.1" id="Layer_1" xmlns="http://www.w3.org/2000/svg" xmlns:xlink="http://www.w3.org/1999/xlink" x="0px" y="0px"
	 viewBox="0 0 512.002 512.002" style="enable-background:new 0 0 512.002 512.002;" xml:space="preserve">
<circle style="fill:#31BAFD;" cx="256.001" cy="256" r="256"/>
<path style="fill:#2B9ED8;" d="M437.02,437.019c49.554-49.554,74.531-114.369,74.961-179.315L359.578,105.301L218.971,242.979
	l-61.945,3.069l49.928,49.928l-5.218,2.172l50.012,50.012L382.32,478.72C401.898,467.601,420.329,453.711,437.02,437.019z"/>
<path style="fill:#FED8B2;" d="M281.089,319.538v-27.822h-50.176v27.822c0,2.22-1.8,4.02-4.02,4.02h-34.576v96.011h127.371v-96.011
	h-34.576C282.889,323.558,281.089,321.758,281.089,319.538z"/>
<path style="fill:#EABE96;" d="M319.687,323.558h-34.576c-2.22,0-4.02-1.8-4.02-4.02v-27.822h-26.524v127.853h65.122v-96.011
	H319.687z"/>
<circle style="fill:#FED8B2;" cx="172.598" cy="233.417" r="20.052"/>
<circle style="fill:#EABE96;" cx="335.128" cy="233.417" r="20.052"/>
<path style="fill:#F4E3C3;" d="M256.123,316.926h-4.518c-41.796,0-75.678-33.882-75.678-75.678v-69.096
	c0-41.796,33.882-75.678,75.678-75.678h4.518c41.796,0,75.678,33.882,75.678,75.678v69.096
	C331.801,283.045,297.918,316.926,256.123,316.926z"/>
<path style="fill:#FED8B2;" d="M256.123,96.475h-1.558v220.451h1.558c41.796,0,75.678-33.882,75.678-75.678v-69.096
	C331.801,130.357,297.918,96.475,256.123,96.475z"/>
<path style="fill:#324A5E;" d="M323.593,122.051c-14.862-21.171-39.445-35.023-67.277-35.023h-4.906
	c-45.378,0-82.165,36.786-82.165,82.165v6.354v57.877h12.062v-33.942c-0.003,0-0.005,0-0.007,0
	c36.605-3.718,72.597-10.899,104.145-26.671c11.352,13.036,24.462,24.678,38.934,34.121v26.491h14.102v-43.268v-20.963
	C338.481,151.645,332.963,135.397,323.593,122.051z"/>
<path style="fill:#2B3B4E;" d="M323.593,122.049c-14.862-21.171-39.445-35.023-67.277-35.023h-1.752v98.244
	c10.652-3.415,20.985-7.514,30.88-12.462c11.352,13.038,24.462,24.678,38.934,34.121v26.491h14.102v-43.268v-20.963
	C338.481,151.645,332.963,135.397,323.593,122.049z"/>
<circle style="fill:#59595B;" cx="217.127" cy="224.521" r="7.794"/>
<circle style="fill:#272525;" cx="290.6" cy="224.521" r="7.794"/>
<path style="fill:#E6F3FF;" d="M325.155,323.558h-26.696c0,23.449-19.008,28.981-42.456,28.981s-42.456-5.532-42.456-28.981H186.85
	c-32.153,0-58.218,26.065-58.218,58.218v96.337C166.141,499.671,209.631,512,256.001,512s89.86-12.329,127.372-33.887v-96.337
	C383.373,349.624,357.308,323.558,325.155,323.558z"/>
<path style="fill:#FFFFFF;" d="M325.155,323.558h-26.696c0,23.449-19.008,28.981-42.456,28.981s-42.456-5.532-42.456-28.981H186.85
	c-32.153,0-58.218,26.065-58.218,58.218v96.337C166.141,499.671,209.631,512,256.001,512s89.86-12.329,127.372-33.887v-96.337
	C383.373,349.624,357.308,323.558,325.155,323.558z"/>
<path style="fill:#E6F3FF;" d="M325.155,323.558h-26.696c0,23.449-19.008,28.981-42.456,28.981c-0.481,0-0.958-0.007-1.436-0.01
	v159.449c0.479,0.002,0.955,0.024,1.436,0.024c46.37,0,89.86-12.329,127.372-33.887v-96.339
	C383.373,349.624,357.308,323.558,325.155,323.558z"/>
<path style="fill:#FD8469;" d="M253.863,288.39c-14.043,0-25.464-11.423-25.464-25.464c0-2.381,1.929-4.31,4.31-4.31
	s4.31,1.929,4.31,4.31c0,9.288,7.558,16.844,16.844,16.844s16.844-7.558,16.844-16.844c0-2.381,1.929-4.31,4.31-4.31
	s4.31,1.929,4.31,4.31C279.327,276.968,267.904,288.39,253.863,288.39z"/>
<path style="fill:#FC6F58;" d="M279.327,262.927c0-2.381-1.929-4.31-4.31-4.31s-4.31,1.929-4.31,4.31
	c0,9.051-7.182,16.437-16.143,16.81v8.62C268.28,287.978,279.327,276.732,279.327,262.927z"/>
<ellipse style="fill:#E6F3FF;" cx="254.277" cy="113.778" rx="84.008" ry="48.269"/>
<path style="fill:#CFDBE6;" d="M338.285,113.778c0-26.603-37.457-48.176-83.72-48.266v96.53
	C300.828,161.954,338.285,140.381,338.285,113.778z"/>
<path style="fill:#FFFFFF;" d="M343.058,181.01c-58.466-13.069-119.096-13.069-177.562,0c-5.641-25.236-11.281-50.471-16.922-75.707
	c69.61-15.56,141.798-15.56,211.408,0C354.339,130.539,348.699,155.774,343.058,181.01z"/>
<path style="fill:#E6F3FF;" d="M359.98,105.303c-34.711-7.759-70.063-11.645-105.415-11.666v77.576
	c29.679,0.021,59.354,3.284,88.493,9.799C348.699,155.774,354.339,130.539,359.98,105.303z"/>
<path style="fill:#B5F1F4;" d="M256.001,398.222l93.081-69.516c-7.301-3.296-15.396-5.148-23.926-5.148h-26.696
	c0,23.449-19.008,28.981-42.456,28.981s-42.456-5.532-42.456-28.981H186.85c-8.532,0-16.625,1.85-23.926,5.148L256.001,398.222z"/>
<path style="fill:#84DBFF;" d="M349.081,328.706c-7.301-3.296-15.396-5.148-23.926-5.148h-26.696
	c0,23.449-19.008,28.981-42.456,28.981c-0.481,0-0.958-0.007-1.436-0.01v44.622l1.434,1.072L349.081,328.706z"/>
<path style="fill:#2B9ED8;" d="M218.47,404.656c-9.823,9.376-14.565,22.068-14.164,34.651c12.548,0.986,25.448-3.162,35.271-12.536
	c9.823-9.375,14.565-22.068,14.164-34.651C241.193,391.132,228.293,395.28,218.47,404.656z"/>
<path style="fill:#1B8EBC;" d="M295.04,406.437c9.375,9.823,13.522,22.721,12.536,35.271c-12.581,0.402-25.274-4.341-34.649-14.164
	s-13.522-22.721-12.536-35.271C272.971,391.871,285.664,396.616,295.04,406.437z"/>
<circle style="fill:#31BAFD;" cx="256.001" cy="395.326" r="14.751"/>
<path style="fill:#2B9ED8;" d="M256.344,380.575c-0.602-0.014-1.195,0.019-1.779,0.076v29.339c0.362,0.034,0.724,0.072,1.093,0.081
	c8.145,0.19,14.901-6.259,15.091-14.405C270.939,387.52,264.489,380.764,256.344,380.575z"/>
<g>
</g>
<g>
</g>
<g>
</g>
<g>
</g>
<g>
</g>
<g>
</g>
<g>
</g>
<g>
</g>
<g>
</g>
<g>
</g>
<g>
</g>
<g>
</g>
<g>
</g>
<g>
</g>
<g>
</g>
</svg>
