<?xml version="1.0" encoding="iso-8859-1"?>
<!-- Generator: Adobe Illustrator 19.0.0, SVG Export Plug-In . SVG Version: 6.00 Build 0)  -->
<svg version="1.1" id="Layer_1" xmlns="http://www.w3.org/2000/svg" xmlns:xlink="http://www.w3.org/1999/xlink" x="0px" y="0px"
	 viewBox="0 0 512.002 512.002" style="enable-background:new 0 0 512.002 512.002;" xml:space="preserve">
<circle style="fill:#B5F1F4;" cx="256.001" cy="256" r="256"/>
<path style="fill:#84DBFF;" d="M437.02,437.019c42.358-42.358,66.762-95.866,73.226-151.074l-56.737-56.737l-6.835,15.224
	L317.78,115.536L197.492,218.75l-39.774,28.077l33.152,33.152l1.052,37.659l56.027,55.018l98.325,122.961
	C379.362,483.176,410.394,463.644,437.02,437.019z"/>
<path style="fill:#FED8B2;" d="M325.155,323.558h-40.045c-2.22,0-4.02-1.8-4.02-4.02v-27.822h-50.176v27.822
	c0,2.22-1.8,4.02-4.02,4.02H186.85c-32.153,0-58.218,26.065-58.218,58.218v96.337C166.142,499.671,209.631,512,256.001,512
	s89.86-12.329,127.372-33.887v-96.337C383.373,349.624,357.308,323.558,325.155,323.558z"/>
<path style="fill:#EABE96;" d="M325.155,323.558h-40.045c-2.22,0-4.02-1.8-4.02-4.02v-27.822h-27.386v220.246
	c0.767,0.007,1.529,0.038,2.298,0.038c46.37,0,89.86-12.329,127.372-33.887v-96.337
	C383.373,349.624,357.308,323.558,325.155,323.558z"/>
<path style="fill:#FC6F58;" d="M180.151,376.673c-16.549,0-34.199-2.201-49.843-8.773c-1.088,4.448-1.677,9.092-1.677,13.876v96.337
	C166.142,499.671,209.631,512,256.001,512s89.86-12.329,127.372-33.887v-96.337c0-8.13-1.672-15.869-4.682-22.897
	C314.34,377.13,247.245,379.87,180.151,376.673z"/>
<path style="fill:#F1543F;" d="M378.691,358.879c-40.793,11.569-82.689,16.893-124.988,18.435v134.649
	c0.767,0.007,1.529,0.038,2.298,0.038c46.37,0,89.86-12.329,127.372-33.887v-96.339
	C383.373,373.646,381.701,365.908,378.691,358.879z"/>
<circle style="fill:#FED8B2;" cx="172.598" cy="233.417" r="20.052"/>
<circle style="fill:#EABE96;" cx="335.128" cy="233.417" r="20.052"/>
<path style="fill:#F4E3C3;" d="M256.123,316.926h-4.52c-41.796,0-75.678-33.882-75.678-75.678v-69.096
	c0-41.796,33.882-75.678,75.678-75.678h4.52c41.796,0,75.678,33.882,75.678,75.678v69.096
	C331.801,283.045,297.919,316.926,256.123,316.926z"/>
<path style="fill:#FED8B2;" d="M256.123,96.475h-2.42v220.451h2.42c41.796,0,75.678-33.882,75.678-75.678v-69.096
	C331.801,130.357,297.919,96.475,256.123,96.475z"/>
<circle style="fill:#59595B;" cx="217.127" cy="224.521" r="7.794"/>
<circle style="fill:#272525;" cx="290.6" cy="224.521" r="7.794"/>
<path style="fill:#FD8469;" d="M253.863,288.39c-14.043,0-25.464-11.423-25.464-25.464c0-2.381,1.929-4.31,4.31-4.31
	s4.31,1.929,4.31,4.31c0,9.288,7.558,16.844,16.844,16.844s16.844-7.558,16.844-16.844c0-2.381,1.929-4.31,4.31-4.31
	s4.31,1.929,4.31,4.31C279.329,276.968,267.906,288.39,253.863,288.39z"/>
<path style="fill:#FC6F58;" d="M275.019,258.617c-2.381,0-4.31,1.929-4.31,4.31c0,9.288-7.558,16.844-16.844,16.844
	c-0.053,0-0.107-0.007-0.16-0.009v8.62c0.053,0,0.105,0.009,0.16,0.009c14.043,0,25.464-11.423,25.464-25.464
	C279.329,260.546,277.4,258.617,275.019,258.617z"/>
<path style="fill:#9A4F03;" d="M169.247,170.027c0-45.378,36.786-82.165,82.165-82.165h4.906c27.832,0,52.414,13.852,67.277,35.023
	c9.369,13.346,14.888,29.596,14.888,47.142v118.377c0,4.87-6.984,5.648-8.052,0.895c-6.637-29.529-18.401-63.714-38.8-80.734
	c-30.727-25.638-69.53,4.022-92.517-31.03c0,0-20.113,62.635,0,136.189C204.849,334.703,161.188,314.299,169.247,170.027z"/>
<path style="fill:#804000;" d="M323.593,122.885c-14.862-21.171-39.445-35.023-67.277-35.023h-2.613v108.834
	c12.928,0.314,26.031,1.946,37.926,11.869c20.399,17.02,32.161,51.205,38.8,80.734c1.069,4.753,8.052,3.975,8.052-0.895V170.027
	C338.481,152.481,332.965,136.233,323.593,122.885z"/>
<path style="fill:#2B3B4E;" d="M426.669,359.434L426.669,359.434c-9.045,0-16.377-7.332-16.377-16.377v-76.714h32.754v76.714
	C443.046,352.103,435.713,359.434,426.669,359.434z"/>
<path style="fill:#1C2935;" d="M425.519,266.343v93.032c0.381,0.026,0.76,0.059,1.148,0.059c9.045,0,16.377-7.332,16.377-16.377
	v-76.714H425.519z"/>
<circle style="fill:#324A5E;" cx="426.668" cy="256" r="37.926"/>
<path style="fill:#2B3B4E;" d="M426.669,218.074c-0.384,0-0.765,0.017-1.148,0.029v75.793c0.383,0.012,0.764,0.029,1.148,0.029
	c20.945,0,37.926-16.98,37.926-37.926S447.615,218.074,426.669,218.074z"/>
<g>
	<path style="fill:#E6F3FF;" d="M465.845,326.303h-2.962v32.842c-2.588-1.822-6.382-1.957-9.614-0.052
		c-4.229,2.491-5.884,7.518-3.698,11.226s7.385,4.694,11.612,2.203c2.943-1.734,4.634-4.696,4.658-7.585h0.005v-38.634H465.845z"/>
	<path style="fill:#E6F3FF;" d="M395.927,200.718h-15.515v32.842c-2.586-1.822-6.382-1.957-9.614-0.052
		c-4.229,2.491-5.884,7.518-3.698,11.226c2.186,3.708,7.385,4.694,11.612,2.203c2.943-1.734,4.634-4.696,4.658-7.585h0.005v-34.216
		h12.552V200.718L395.927,200.718z"/>
	<path style="fill:#E6F3FF;" d="M384.973,272.548h-15.515v32.842c-2.586-1.822-6.382-1.957-9.614-0.052
		c-4.229,2.491-5.884,7.518-3.698,11.226c2.186,3.708,7.385,4.694,11.612,2.203c2.943-1.734,4.634-4.696,4.658-7.585h0.005v-34.216
		h12.552L384.973,272.548L384.973,272.548z"/>
</g>
<g>
</g>
<g>
</g>
<g>
</g>
<g>
</g>
<g>
</g>
<g>
</g>
<g>
</g>
<g>
</g>
<g>
</g>
<g>
</g>
<g>
</g>
<g>
</g>
<g>
</g>
<g>
</g>
<g>
</g>
</svg>
