<?xml version="1.0" encoding="iso-8859-1"?>
<!-- Generator: Adobe Illustrator 19.0.0, SVG Export Plug-In . SVG Version: 6.00 Build 0)  -->
<svg version="1.1" id="Layer_1" xmlns="http://www.w3.org/2000/svg" xmlns:xlink="http://www.w3.org/1999/xlink" x="0px" y="0px"
	 viewBox="0 0 512.002 512.002" style="enable-background:new 0 0 512.002 512.002;" xml:space="preserve">
<circle style="fill:#F9B54C;" cx="256.001" cy="256" r="256"/>
<path style="fill:#F4A200;" d="M382.163,478.81c19.635-11.133,38.121-25.054,54.858-41.789
	c44.029-44.029,68.656-100.107,73.904-157.62l-51.502-52.562l-3.944,3.908l-29.174-31.196l-1.358,5.292l-93.46-95.473
	l-44.168,46.644l-85.59,49.624l-49.162,10.483l19.773,21.12l-13.346,10.905l41.936,43.092l-3.315,3.02L382.163,478.81z"/>
<path style="fill:#324A5E;" d="M281.089,319.538v-27.822h-50.176v27.822c0,2.22-1.8,4.02-4.02,4.02h-34.576v96.011h127.371v-96.011
	h-34.576C282.889,323.558,281.089,321.758,281.089,319.538z"/>
<path style="fill:#2B3B4E;" d="M319.687,323.558h-34.576c-2.22,0-4.02-1.8-4.02-4.02v-27.822h-27.96v127.853h66.558v-96.011H319.687
	z"/>
<circle style="fill:#FED8B2;" cx="172.598" cy="233.417" r="20.052"/>
<circle style="fill:#EABE96;" cx="335.128" cy="233.417" r="20.052"/>
<path style="fill:#F4E3C3;" d="M256.123,316.926h-4.518c-41.796,0-75.678-33.882-75.678-75.678v-69.096
	c0-41.796,33.882-75.678,75.678-75.678h4.518c41.796,0,75.678,33.882,75.678,75.678v69.096
	C331.801,283.045,297.918,316.926,256.123,316.926z"/>
<path style="fill:#FED8B2;" d="M256.123,96.475h-2.994v220.451h2.994c41.796,0,75.678-33.882,75.678-75.678v-69.096
	C331.801,130.357,297.918,96.475,256.123,96.475z"/>
<path style="fill:#6FC186;" d="M156.852,165.673c0-51.86,42.041-93.901,93.901-93.901h5.608c31.808,0,59.902,15.831,76.888,40.026
	c10.709,15.253,17.015,33.823,17.015,53.875v34.194H158.478L156.852,165.673z"/>
<path style="fill:#42A65E;" d="M350.264,165.673c0-20.052-6.306-38.622-17.015-53.875c-16.986-24.195-45.08-40.026-76.888-40.026
	h-3.234v128.097h97.135v-34.195H350.264z"/>
<circle style="fill:#59595B;" cx="217.127" cy="228.417" r="7.794"/>
<circle style="fill:#272525;" cx="290.6" cy="228.417" r="7.794"/>
<path style="fill:#90DFAA;" d="M325.155,323.558h-26.696c0,23.449-19.008,46.22-42.456,46.22s-42.456-22.771-42.456-46.22H186.85
	c-32.153,0-58.218,26.065-58.218,58.218v96.337C166.141,499.671,209.631,512,256.001,512s89.86-12.329,127.372-33.887v-96.337
	C383.373,349.624,357.308,323.558,325.155,323.558z"/>
<path style="fill:#6FC186;" d="M325.155,323.558h-26.696c0,23.449-19.008,46.22-42.456,46.22c-0.967,0-1.922-0.053-2.872-0.128
	v142.303c0.958,0.01,1.91,0.048,2.872,0.048c46.37,0,89.86-12.329,127.372-33.887v-96.339
	C383.373,349.624,357.308,323.558,325.155,323.558z"/>
<path style="fill:#FD8469;" d="M253.863,288.39c-14.043,0-25.464-11.423-25.464-25.464c0-2.381,1.929-4.31,4.31-4.31
	s4.31,1.929,4.31,4.31c0,9.288,7.558,16.844,16.844,16.844s16.844-7.558,16.844-16.844c0-2.381,1.929-4.31,4.31-4.31
	s4.31,1.929,4.31,4.31C279.327,276.968,267.904,288.39,253.863,288.39z"/>
<path style="fill:#FC6F58;" d="M275.017,258.617c-2.381,0-4.31,1.929-4.31,4.31c0,9.288-7.558,16.844-16.844,16.844
	c-0.248,0-0.49-0.026-0.734-0.038v8.62c0.247,0.007,0.486,0.038,0.734,0.038c14.043,0,25.464-11.423,25.464-25.464
	C279.327,260.546,277.398,258.617,275.017,258.617z"/>
<rect x="152.567" y="183.613" style="fill:#90DFAA;" width="206.869" height="32.508"/>
<rect x="253.122" y="183.613" style="fill:#6FC186;" width="106.313" height="32.508"/>
<path style="fill:#9A4F03;" d="M481.833,256.862h-9.583c-1.477-24.259-20.633-43.81-44.72-45.915v-8.389
	c0-2.381-1.929-4.31-4.31-4.31s-4.31,1.929-4.31,4.31v8.389c-24.086,2.105-43.242,21.656-44.72,45.915h-9.583
	c-2.381,0-4.31,1.929-4.31,4.31s1.929,4.31,4.31,4.31h9.811c2.631,23.05,21.268,41.3,44.492,43.329v10.974
	c0,2.381,1.929,4.31,4.31,4.31s4.31-1.929,4.31-4.31V308.81c23.224-2.029,41.863-20.278,44.492-43.329h9.811
	c2.381,0,4.31-1.929,4.31-4.31S484.213,256.862,481.833,256.862z M463.607,256.862h-10.373
	c-1.376-13.793-12.091-24.847-25.705-26.807V219.6C446.86,221.653,462.163,237.358,463.607,256.862z M418.91,256.862h-17.003
	c1.274-9.033,8.147-16.293,17.003-18.098V256.862z M418.91,265.481v15.512c-7.992-1.629-14.365-7.704-16.474-15.512H418.91z
	 M427.529,265.481h16.474c-2.108,7.809-8.482,13.883-16.474,15.512V265.481z M427.529,256.862v-18.098
	c8.856,1.805,15.729,9.064,17.003,18.098H427.529z M418.91,219.598v10.455c-13.615,1.962-24.329,13.014-25.705,26.807h-10.373
	C384.277,237.358,399.58,221.653,418.91,219.598z M383.104,265.481h10.488c2.374,12.572,12.566,22.385,25.317,24.221v10.455
	C400.442,298.196,385.647,283.774,383.104,265.481z M427.529,300.16v-10.455c12.752-1.838,22.943-11.648,25.317-24.221h10.488
	C460.792,283.774,445.998,298.196,427.529,300.16z"/>
<path style="fill:#804000;" d="M481.833,256.862h-9.583c-1.477-24.259-20.633-43.81-44.72-45.915v-8.389
	c0-2.381-1.929-4.31-4.31-4.31v125.845c2.381,0,4.31-1.929,4.31-4.31V308.81c23.224-2.029,41.863-20.278,44.492-43.329h9.811
	c2.381,0,4.31-1.929,4.31-4.31S484.213,256.862,481.833,256.862z M427.529,238.764c8.856,1.805,15.729,9.064,17.003,18.098h-17.003
	V238.764z M427.529,265.481h16.474c-2.108,7.809-8.482,13.883-16.474,15.512V265.481z M427.529,300.16v-10.455
	c12.752-1.838,22.943-11.648,25.317-24.221h10.488C460.792,283.774,445.998,298.196,427.529,300.16z M453.235,256.862
	c-1.376-13.793-12.091-24.847-25.705-26.807V219.6c19.33,2.053,34.633,17.76,36.078,37.264h-10.373V256.862z"/>
<g>
</g>
<g>
</g>
<g>
</g>
<g>
</g>
<g>
</g>
<g>
</g>
<g>
</g>
<g>
</g>
<g>
</g>
<g>
</g>
<g>
</g>
<g>
</g>
<g>
</g>
<g>
</g>
<g>
</g>
</svg>
