<?xml version="1.0" encoding="iso-8859-1"?>
<!-- Generator: Adobe Illustrator 19.0.0, SVG Export Plug-In . SVG Version: 6.00 Build 0)  -->
<svg version="1.1" id="Layer_1" xmlns="http://www.w3.org/2000/svg" xmlns:xlink="http://www.w3.org/1999/xlink" x="0px" y="0px"
	 viewBox="0 0 512 512" style="enable-background:new 0 0 512 512;" xml:space="preserve">
<circle style="fill:#B5F1F4;" cx="256" cy="256" r="256"/>
<path style="fill:#84DBFF;" d="M511.728,267.597L275.232,31.101l-84.914,163.954l-32.132,94.398L359.103,490.37
	C445.795,452.177,507.28,367.313,511.728,267.597z"/>
<path style="fill:#FED8B2;" d="M281.088,319.538v-27.822h-50.176v27.822c0,2.22-1.8,4.02-4.02,4.02h-34.576v96.011h127.371v-96.011
	H285.11C282.888,323.558,281.088,321.758,281.088,319.538z"/>
<path style="fill:#EABE96;" d="M319.686,323.558H285.11c-2.22,0-4.02-1.8-4.02-4.02v-27.822h-26.236v127.853h64.834v-96.011H319.686
	z"/>
<circle style="fill:#FED8B2;" cx="172.597" cy="233.417" r="20.052"/>
<circle style="fill:#EABE96;" cx="335.127" cy="233.417" r="20.052"/>
<path style="fill:#F4E3C3;" d="M256.122,316.926h-4.518c-41.796,0-75.678-33.882-75.678-75.678v-69.096
	c0-41.796,33.882-75.678,75.678-75.678h4.518c41.796,0,75.678,33.882,75.678,75.678v69.096
	C331.8,283.045,297.917,316.926,256.122,316.926z"/>
<path style="fill:#FED8B2;" d="M256.122,96.475h-1.271v220.451h1.271c41.796,0,75.678-33.882,75.678-75.678v-69.096
	C331.8,130.357,297.917,96.475,256.122,96.475z"/>
<path style="fill:#324A5E;" d="M188.768,219.896c41.389-4.205,65.134-38.648,100.804-56.482
	c12.836,14.741,20.745,27.903,37.109,38.581v88.431h22.859V159.325c0-19.839-6.239-38.212-16.834-53.303
	c-16.805-23.938-44.599-39.6-76.069-39.6h-5.548c-51.309,0-92.903,41.594-92.903,92.903v130.127h30.582L188.768,219.896
	L188.768,219.896z"/>
<path style="fill:#2B3B4E;" d="M332.705,106.022c-16.805-23.938-44.599-39.6-76.069-39.6h-1.784v120.106
	c10.954-8.401,22.088-16.798,34.719-23.112c12.836,14.741,20.745,27.903,37.109,38.581v88.429h22.859V159.325
	C349.539,139.485,343.3,121.113,332.705,106.022z"/>
<circle style="fill:#59595B;" cx="217.126" cy="224.521" r="7.794"/>
<circle style="fill:#272525;" cx="290.599" cy="224.521" r="7.794"/>
<path style="fill:#FF6472;" d="M325.154,323.558h-26.696c0,23.449-19.008,46.22-42.456,46.22s-42.456-22.771-42.456-46.22h-26.696
	c-32.153,0-58.218,26.065-58.218,58.218v96.337C166.14,499.671,209.63,512,256,512s89.86-12.329,127.372-33.887v-96.337
	C383.371,349.624,357.307,323.558,325.154,323.558z"/>
<path style="fill:#C75163;" d="M325.154,323.558h-26.696c0,23.449-19.008,46.22-42.456,46.22c-0.384,0-0.765-0.022-1.148-0.034
	v142.238c0.384,0.002,0.764,0.019,1.148,0.019c46.37,0,89.86-12.329,127.372-33.887v-96.337
	C383.371,349.624,357.307,323.558,325.154,323.558z"/>
<path style="fill:#FD8469;" d="M253.862,288.39c-14.043,0-25.464-11.423-25.464-25.464c0-2.381,1.929-4.31,4.31-4.31
	s4.31,1.929,4.31,4.31c0,9.288,7.558,16.844,16.844,16.844c9.287,0,16.844-7.558,16.844-16.844c0-2.381,1.929-4.31,4.31-4.31
	s4.31,1.929,4.31,4.31C279.326,276.968,267.904,288.39,253.862,288.39z"/>
<path style="fill:#FC6F58;" d="M279.326,262.927c0-2.381-1.929-4.31-4.31-4.31s-4.31,1.929-4.31,4.31
	c0,8.954-7.028,16.279-15.856,16.794v8.62C268.433,287.815,279.326,276.633,279.326,262.927z"/>
<rect x="131.002" y="70.686" transform="matrix(-0.86 0.5103 -0.5103 -0.86 453.0067 73.9931)" style="fill:#FF6472;" width="170.702" height="56.906"/>
<polygon style="fill:#C75163;" points="275.232,31.101 199.92,75.792 227.804,125.411 304.269,80.036 "/>
<rect x="298.236" y="402.101" style="fill:#B2475B;" width="56.889" height="20.687"/>
<rect x="227.556" y="317.199" style="fill:#C1321F;" width="56.889" height="8.62"/>
<rect x="254.845" y="317.199" style="fill:#A82116;" width="29.599" height="8.62"/>
<g>
	<path style="fill:#C1321F;" d="M198.096,320.84c-9.685,5.435-16.02,14.529-18.254,24.579c9.742,3.329,20.806,2.66,30.491-2.774
		c9.685-5.435,16.02-14.529,18.254-24.579C218.843,314.737,207.781,315.406,198.096,320.84z"/>
	<path style="fill:#C1321F;" d="M258.403,337.792c5.435,9.685,6.103,20.747,2.774,30.491c-10.05-2.234-19.144-8.57-24.579-18.254
		c-5.435-9.685-6.103-20.747-2.774-30.491C243.874,321.774,252.968,328.108,258.403,337.792z"/>
</g>
<circle style="fill:#A82116;" cx="230.521" cy="321.267" r="8.602"/>
<g>
</g>
<g>
</g>
<g>
</g>
<g>
</g>
<g>
</g>
<g>
</g>
<g>
</g>
<g>
</g>
<g>
</g>
<g>
</g>
<g>
</g>
<g>
</g>
<g>
</g>
<g>
</g>
<g>
</g>
</svg>
