<?xml version="1.0" encoding="iso-8859-1"?>
<!-- Generator: Adobe Illustrator 19.0.0, SVG Export Plug-In . SVG Version: 6.00 Build 0)  -->
<svg version="1.1" id="Layer_1" xmlns="http://www.w3.org/2000/svg" xmlns:xlink="http://www.w3.org/1999/xlink" x="0px" y="0px"
	 viewBox="0 0 512 512" style="enable-background:new 0 0 512 512;" xml:space="preserve">
<circle style="fill:#E6F3FF;" cx="256" cy="256" r="256"/>
<path style="fill:#CFDBE6;" d="M382.167,478.787c71.775-40.734,121.923-115.143,128.967-201.75L308.636,74.538L184.746,213.37
	l-27.343,33.115l44.07,44.07l-4.406,3.132L382.167,478.787z"/>
<ellipse style="fill:#F4A200;" cx="256" cy="85.333" rx="56.889" ry="28.444"/>
<path style="fill:#D38905;" d="M256.002,56.889c-0.384,0-0.765,0.01-1.148,0.014v56.86c0.383,0.003,0.764,0.014,1.148,0.014
	c31.418,0,56.889-12.734,56.889-28.444C312.891,69.623,287.42,56.889,256.002,56.889z"/>
<path style="fill:#FED8B2;" d="M281.09,319.538v-27.822h-50.176v27.822c0,2.22-1.8,4.02-4.02,4.02h-34.576v96.011h127.371v-96.011
	h-34.576C282.889,323.558,281.09,321.758,281.09,319.538z"/>
<path style="fill:#EABE96;" d="M319.686,323.558H285.11c-2.22,0-4.02-1.8-4.02-4.02v-27.822h-26.236v127.853h64.834v-96.011H319.686
	z"/>
<circle style="fill:#FED8B2;" cx="172.597" cy="233.417" r="20.052"/>
<circle style="fill:#EABE96;" cx="335.127" cy="233.417" r="20.052"/>
<path style="fill:#F4E3C3;" d="M256.122,316.926h-4.518c-41.796,0-75.678-33.882-75.678-75.678v-69.096
	c0-41.796,33.882-75.678,75.678-75.678h4.518c41.796,0,75.678,33.882,75.678,75.678v69.096
	C331.8,283.045,297.918,316.926,256.122,316.926z"/>
<path style="fill:#FED8B2;" d="M256.122,96.475h-1.271v220.451h1.271c41.796,0,75.678-33.882,75.678-75.678v-69.096
	C331.8,130.357,297.918,96.475,256.122,96.475z"/>
<path style="fill:#F9B54C;" d="M323.593,122.051c-14.862-21.171-39.445-35.023-67.277-35.023h-4.906
	c-45.378,0-82.165,36.786-82.165,82.165v6.354v57.877h12.062v-33.942c-0.002,0-0.005,0-0.007,0
	c36.605-3.718,72.597-10.899,104.145-26.671c11.352,13.036,24.462,24.678,38.934,34.121v26.491h14.102v-43.268v-20.963
	C338.48,151.645,332.964,135.397,323.593,122.051z"/>
<path style="fill:#F4A200;" d="M323.593,122.049c-14.862-21.171-39.445-35.023-67.277-35.023h-1.464v98.151
	c10.55-3.396,20.787-7.466,30.592-12.369c11.352,13.036,24.462,24.678,38.934,34.121v26.491h14.102v-43.268v-20.963
	C338.48,151.645,332.964,135.397,323.593,122.049z"/>
<circle style="fill:#59595B;" cx="217.126" cy="224.521" r="7.794"/>
<circle style="fill:#272525;" cx="290.599" cy="224.521" r="7.794"/>
<path style="fill:#FF6472;" d="M325.154,323.558h-26.696c0,23.449-19.008,28.981-42.456,28.981s-42.456-5.532-42.456-28.981h-26.696
	c-32.153,0-58.218,26.065-58.218,58.218v96.337C166.141,499.671,209.63,512,256,512s89.86-12.329,127.372-33.887v-96.337
	C383.372,349.624,357.307,323.558,325.154,323.558z"/>
<path style="fill:#C75163;" d="M325.154,323.558h-26.696c0,23.449-19.008,28.981-42.456,28.981c-0.384,0-0.765-0.005-1.148-0.009
	v159.451c0.384,0.002,0.764,0.019,1.148,0.019c46.37,0,89.86-12.329,127.372-33.887v-96.337
	C383.372,349.624,357.307,323.558,325.154,323.558z"/>
<path style="fill:#FD8469;" d="M253.862,288.39c-14.043,0-25.464-11.423-25.464-25.464c0-2.381,1.929-4.31,4.31-4.31
	s4.31,1.929,4.31,4.31c0,9.288,7.558,16.844,16.844,16.844c9.287,0,16.844-7.558,16.844-16.844c0-2.381,1.929-4.31,4.31-4.31
	s4.31,1.929,4.31,4.31C279.328,276.968,267.905,288.39,253.862,288.39z"/>
<path style="fill:#FC6F58;" d="M279.328,262.927c0-2.381-1.929-4.31-4.31-4.31s-4.31,1.929-4.31,4.31
	c0,8.954-7.028,16.279-15.856,16.794v8.62C268.435,287.815,279.328,276.633,279.328,262.927z"/>
<g>
	<path style="fill:#324A5E;" d="M313.68,288.754h-29.234c-2.381,0-4.31-1.929-4.31-4.31s1.929-4.31,4.31-4.31h29.234
		c12.872,0,23.345-10.471,23.345-23.343v-29.236c0-2.381,1.929-4.31,4.31-4.31s4.31,1.929,4.31,4.31v29.236
		C345.645,274.416,331.304,288.754,313.68,288.754z"/>
	<path style="fill:#324A5E;" d="M299.099,293.064h-13.791c-4.761,0-8.62-3.858-8.62-8.62s3.858-8.62,8.62-8.62h13.791
		c4.761,0,8.62,3.858,8.62,8.62S303.859,293.064,299.099,293.064z"/>
</g>
<g>
</g>
<g>
</g>
<g>
</g>
<g>
</g>
<g>
</g>
<g>
</g>
<g>
</g>
<g>
</g>
<g>
</g>
<g>
</g>
<g>
</g>
<g>
</g>
<g>
</g>
<g>
</g>
<g>
</g>
</svg>
