<?xml version="1.0" encoding="iso-8859-1"?>
<!-- Generator: Adobe Illustrator 19.0.0, SVG Export Plug-In . SVG Version: 6.00 Build 0)  -->
<svg version="1.1" id="Layer_1" xmlns="http://www.w3.org/2000/svg" xmlns:xlink="http://www.w3.org/1999/xlink" x="0px" y="0px"
	 viewBox="0 0 512 512" style="enable-background:new 0 0 512 512;" xml:space="preserve">
<circle style="fill:#324A5E;" cx="256" cy="256" r="256"/>
<path style="fill:#2B3B4E;" d="M381.39,479.222c65.226-36.719,112.74-101.183,126.514-177.397L302.556,96.475l-89.652,54.367
	l-70.68,48.269l35.602,35.602l-18.973,13.283l45.172,45.172l-6.161,1.362L381.39,479.222z"/>
<rect x="354.263" y="263.327" style="fill:#FD8469;" width="100.848" height="123.259"/>
<rect x="343.057" y="263.327" style="fill:#FC6F58;" width="30.815" height="123.259"/>
<rect x="387.879" y="296.943" style="fill:#E6F3FF;" width="50.424" height="25.212"/>
<path style="fill:#FED8B2;" d="M281.09,319.538v-27.822h-50.176v27.822c0,2.22-1.8,4.02-4.02,4.02h-34.576v96.011h127.371v-96.011
	h-34.576C282.89,323.558,281.09,321.758,281.09,319.538z"/>
<path style="fill:#EABE96;" d="M319.686,323.558H285.11c-2.22,0-4.02-1.8-4.02-4.02v-27.822h-25.662v127.853h64.26v-96.011H319.686z
	"/>
<circle style="fill:#FED8B2;" cx="172.597" cy="233.417" r="20.052"/>
<circle style="fill:#EABE96;" cx="335.127" cy="233.417" r="20.052"/>
<path style="fill:#F4E3C3;" d="M256.122,316.926h-4.518c-41.796,0-75.678-33.882-75.678-75.678v-69.096
	c0-41.796,33.882-75.678,75.678-75.678h4.518c41.796,0,75.678,33.882,75.678,75.678v69.096
	C331.8,283.045,297.918,316.926,256.122,316.926z"/>
<path style="fill:#FED8B2;" d="M256.122,96.475h-0.696v220.451h0.696c41.796,0,75.678-33.882,75.678-75.678v-69.096
	C331.8,130.357,297.918,96.475,256.122,96.475z"/>
<circle style="fill:#59595B;" cx="217.126" cy="224.521" r="7.794"/>
<circle style="fill:#272525;" cx="290.599" cy="224.521" r="7.794"/>
<path style="fill:#E6F3FF;" d="M213.544,323.558h-26.696c-32.153,0-58.218,26.065-58.218,58.218v96.337
	c37.357,21.468,80.644,33.775,126.797,33.876V352.534C232.245,352.444,213.544,346.814,213.544,323.558z"/>
<path style="fill:#CFDBE6;" d="M325.155,323.558h-26.696c0,23.449-19.008,28.981-42.456,28.981c-0.193,0-0.383-0.003-0.574-0.005
	V511.99c0.191,0,0.381,0.009,0.574,0.009c46.37,0,89.86-12.329,127.372-33.887v-96.335
	C383.373,349.624,357.307,323.558,325.155,323.558z"/>
<path style="fill:#FD8469;" d="M253.862,288.39c-14.043,0-25.464-11.423-25.464-25.464c0-2.381,1.929-4.31,4.31-4.31
	s4.31,1.929,4.31,4.31c0,9.288,7.558,16.844,16.844,16.844c9.287,0,16.844-7.558,16.844-16.844c0-2.381,1.929-4.31,4.31-4.31
	s4.31,1.929,4.31,4.31C279.328,276.968,267.905,288.39,253.862,288.39z"/>
<path style="fill:#FC6F58;" d="M279.328,262.927c0-2.381-1.929-4.31-4.31-4.31c-2.381,0-4.31,1.929-4.31,4.31
	c0,8.759-6.725,15.974-15.281,16.767v8.62C268.74,287.497,279.328,276.44,279.328,262.927z"/>
<path style="fill:#808183;" d="M291.978,194.772c-15.276,0-27.915,11.348-30.02,26.052H245.77
	c-2.103-14.703-14.746-26.052-30.022-26.052c-16.743,0-30.363,13.619-30.363,30.361s13.621,30.363,30.363,30.363
	c15.276,0,27.917-11.35,30.022-26.053h16.187c2.103,14.703,14.745,26.053,30.02,26.053c16.743,0,30.363-13.621,30.363-30.363
	S308.721,194.772,291.978,194.772z M215.749,246.879c-11.99,0-21.744-9.754-21.744-21.744c0-11.988,9.754-21.742,21.744-21.742
	c11.99,0,21.744,9.754,21.744,21.742C237.492,237.125,227.738,246.879,215.749,246.879z M291.978,246.879
	c-11.988,0-21.742-9.754-21.742-21.744c0-11.988,9.754-21.742,21.742-21.742c11.99,0,21.744,9.754,21.744,21.742
	C313.722,237.125,303.968,246.879,291.978,246.879z"/>
<path style="fill:#59595B;" d="M291.978,194.772c-15.276,0-27.915,11.348-30.02,26.052h-6.53v8.62h6.53
	c2.103,14.703,14.745,26.053,30.02,26.053c16.743,0,30.363-13.621,30.363-30.363S308.721,194.772,291.978,194.772z M291.978,246.879
	c-11.988,0-21.742-9.754-21.742-21.744c0-11.988,9.754-21.742,21.742-21.742c11.99,0,21.744,9.754,21.744,21.742
	C313.722,237.125,303.968,246.879,291.978,246.879z"/>
<path style="fill:#B8C9D9;" d="M249.968,352.401V511.9c2.008,0.047,4.013,0.1,6.034,0.1c2.02,0,4.025-0.053,6.034-0.1V352.401
	c-1.972,0.093-3.984,0.138-6.034,0.138C253.952,352.539,251.938,352.494,249.968,352.401z"/>
<path style="fill:#95AABC;" d="M256.002,352.539c-0.195,0-0.379-0.012-0.574-0.014V511.99c0.191,0.002,0.381,0.009,0.574,0.009
	c2.02,0,4.025-0.053,6.034-0.1V352.401C260.063,352.494,258.05,352.539,256.002,352.539z"/>
<polygon style="fill:#CFDBE6;" points="227.557,323.558 256,352.539 227.557,380.983 199.113,323.558 "/>
<polygon style="fill:#B8C9D9;" points="284.444,323.558 256.002,352.539 284.444,380.983 312.889,323.558 "/>
<path style="fill:#B97850;" d="M323.593,122.049c-4.372-6.227-9.604-11.798-15.491-16.593c-4.467-12.821-18.901-21.837-52.1-20.123
	c-100.274,5.172-113.778,113.778-113.778,113.778c11.583,0.767,20.583,0.924,27.022,0.862v33.449h12.062V199.48
	c-0.002,0-0.005,0-0.007,0c36.605-3.718,89.7-25.971,121.246-41.743c5.891,23.704,7.361,31.93,21.832,41.374v34.311h14.102v-43.268
	v-20.963C338.48,151.645,332.964,135.397,323.593,122.049z"/>
<path style="fill:#935635;" d="M323.593,122.049c-4.372-6.227-9.604-11.798-15.491-16.593c-4.467-12.821-18.901-21.837-52.1-20.123
	c-0.195,0.01-0.381,0.029-0.574,0.04v93.334c17.582-6.928,34.168-14.495,47.12-20.97c5.891,23.704,7.361,31.93,21.832,41.374v34.311
	h14.102v-43.268v-20.963C338.48,151.645,332.964,135.397,323.593,122.049z"/>
<g>
</g>
<g>
</g>
<g>
</g>
<g>
</g>
<g>
</g>
<g>
</g>
<g>
</g>
<g>
</g>
<g>
</g>
<g>
</g>
<g>
</g>
<g>
</g>
<g>
</g>
<g>
</g>
<g>
</g>
</svg>
