<?xml version="1.0" encoding="iso-8859-1"?>
<!-- Generator: Adobe Illustrator 19.0.0, SVG Export Plug-In . SVG Version: 6.00 Build 0)  -->
<svg version="1.1" id="Layer_1" xmlns="http://www.w3.org/2000/svg" xmlns:xlink="http://www.w3.org/1999/xlink" x="0px" y="0px"
	 viewBox="0 0 512.002 512.002" style="enable-background:new 0 0 512.002 512.002;" xml:space="preserve">
<circle style="fill:#90DFAA;" cx="256.001" cy="256" r="256"/>
<path style="fill:#6CBC82;" d="M382.172,478.804c19.634-11.133,38.114-25.05,54.85-41.786
	c37.562-37.562,61.009-83.894,70.346-132.405l-187.68-187.678l-77.477,77.003l-85.314,51.948l47.93,47.93l-7.473,0.169
	L382.172,478.804z"/>
<path style="fill:#E6F3FF;" d="M309.473,339.358c0-42.722,34.633-77.355,77.355-77.355s77.355,34.633,77.355,77.355H309.473z"/>
<path style="fill:#CFDBE6;" d="M387.018,262.008v77.35h77.167C464.183,296.7,429.652,262.11,387.018,262.008z"/>
<rect x="301.736" y="337.041" style="fill:#F4A200;" width="170.184" height="12.378"/>
<rect x="387.018" y="337.041" style="fill:#D68A05;" width="84.902" height="12.378"/>
<circle style="fill:#F4A200;" cx="386.828" cy="254.138" r="8.251"/>
<path style="fill:#D68A05;" d="M395.08,254.138c0-4.492-3.594-8.13-8.063-8.232v16.465
	C391.484,262.268,395.08,258.631,395.08,254.138z"/>
<path style="fill:#FFFFFF;" d="M281.089,319.538v-27.822h-50.176v27.822c0,2.22-1.8,4.02-4.02,4.02h-34.576v96.011h127.371v-96.011
	h-34.576C282.889,323.558,281.089,321.758,281.089,319.538z"/>
<path style="fill:#E6F3FF;" d="M319.687,323.558h-34.576c-2.22,0-4.02-1.8-4.02-4.02v-27.822h-25.664v127.853h64.26V323.558z"/>
<circle style="fill:#FED8B2;" cx="172.598" cy="233.417" r="20.052"/>
<circle style="fill:#EABE96;" cx="335.128" cy="233.417" r="20.052"/>
<path style="fill:#F4E3C3;" d="M256.123,316.926h-4.518c-41.796,0-75.678-33.882-75.678-75.678v-69.096
	c0-41.796,33.882-75.678,75.678-75.678h4.518c41.796,0,75.678,33.882,75.678,75.678v69.096
	C331.801,283.045,297.918,316.926,256.123,316.926z"/>
<path style="fill:#FED8B2;" d="M256.123,96.475h-0.696v220.451h0.696c41.796,0,75.678-33.882,75.678-75.678v-69.096
	C331.801,130.357,297.918,96.475,256.123,96.475z"/>
<path style="fill:#935635;" d="M323.593,122.051c-14.862-21.171-39.445-35.023-67.277-35.023h-4.906
	c-45.378,0-82.165,36.786-82.165,82.165v64.231h12.062v-33.942c-0.003,0-0.005,0-0.007,0c36.605-3.718,72.597-10.899,104.145-26.671
	c11.352,13.036,24.462,24.678,38.934,34.121v26.491h14.102v-64.233C338.481,151.645,332.963,135.397,323.593,122.051z"/>
<path style="fill:#804000;" d="M323.593,122.049c-14.862-21.171-39.445-35.023-67.277-35.023h-0.891v97.957
	c10.347-3.358,20.392-7.363,30.018-12.176c11.352,13.038,24.462,24.678,38.934,34.121v26.491h14.102v-64.229
	C338.481,151.645,332.963,135.397,323.593,122.049z"/>
<circle style="fill:#59595B;" cx="217.127" cy="224.521" r="7.794"/>
<circle style="fill:#272525;" cx="290.6" cy="224.521" r="7.794"/>
<path style="fill:#FD8469;" d="M253.863,288.39c-14.043,0-25.464-11.423-25.464-25.464c0-2.381,1.929-4.31,4.31-4.31
	s4.31,1.929,4.31,4.31c0,9.288,7.558,16.844,16.844,16.844s16.844-7.558,16.844-16.844c0-2.381,1.929-4.31,4.31-4.31
	s4.31,1.929,4.31,4.31C279.327,276.968,267.904,288.39,253.863,288.39z"/>
<path style="fill:#FC6F58;" d="M279.327,262.927c0-2.381-1.929-4.31-4.31-4.31s-4.31,1.929-4.31,4.31
	c0,8.761-6.723,15.974-15.281,16.767v8.62C268.737,287.497,279.327,276.44,279.327,262.927z"/>
<path style="fill:#324A5E;" d="M211.405,323.558h-26.696c-32.153,0-58.218,26.065-58.218,58.218v95.075
	c37.841,22.238,81.894,35.035,128.934,35.138v-85.354C232.208,425.355,211.405,346.815,211.405,323.558z"/>
<path style="fill:#2B3B4E;" d="M323.018,323.558h-26.696c0,23.449-16.872,103.109-40.32,103.109c-0.191,0-0.383-0.019-0.574-0.031
	v85.354c0.191,0,0.383,0.01,0.574,0.01c45.496,0,88.211-11.883,125.235-32.692v-97.532
	C381.234,349.624,355.17,323.558,323.018,323.558z"/>
<path style="fill:#233444;" d="M256.001,417.185V512c4.863,0,9.69-0.166,14.484-0.462l42.403-93.874l-22.411-13.888l22.411-18.198
	V322.37h-28.443L256.001,417.185z"/>
<path style="fill:#2B3B4E;" d="M227.556,322.37h-28.444v63.21l22.411,18.198l-22.411,13.888l42.403,93.874
	c4.796,0.297,9.623,0.462,14.484,0.462v-94.815L227.556,322.37z"/>
<path style="fill:#F1543F;" d="M254.277,347.367l-27.998,13.998c-6.146,3.072-13.376-1.396-13.376-8.266v-32.151
	c0-6.872,7.23-11.34,13.376-8.266l27.998,13.998V347.367z"/>
<path style="fill:#C1321F;" d="M252.553,326.68l27.998-13.998c6.146-3.072,13.376,1.396,13.376,8.266v32.151
	c0,6.872-7.23,11.34-13.376,8.266l-27.998-13.998V326.68z"/>
<path style="fill:#FC6F58;" d="M257.437,351.246h-8.045c-5.634,0-10.2-4.567-10.2-10.2V333c0-5.634,4.567-10.2,10.2-10.2h8.045
	c5.634,0,10.199,4.567,10.199,10.2v8.045C267.637,346.679,263.071,351.246,257.437,351.246z"/>
<path style="fill:#F1543F;" d="M257.437,322.801h-2.012v28.444h2.012c5.634,0,10.2-4.567,10.2-10.2V333
	C267.637,327.368,263.071,322.801,257.437,322.801z"/>
<rect x="318.923" y="392.189" style="fill:#233444;" width="44.822" height="17.239"/>
<g>
</g>
<g>
</g>
<g>
</g>
<g>
</g>
<g>
</g>
<g>
</g>
<g>
</g>
<g>
</g>
<g>
</g>
<g>
</g>
<g>
</g>
<g>
</g>
<g>
</g>
<g>
</g>
<g>
</g>
</svg>
