<?xml version="1.0" encoding="iso-8859-1"?>
<!-- Generator: Adobe Illustrator 19.0.0, SVG Export Plug-In . SVG Version: 6.00 Build 0)  -->
<svg version="1.1" id="Layer_1" xmlns="http://www.w3.org/2000/svg" xmlns:xlink="http://www.w3.org/1999/xlink" x="0px" y="0px"
	 viewBox="0 0 512 512" style="enable-background:new 0 0 512 512;" xml:space="preserve">
<circle style="fill:#324A5E;" cx="256" cy="256" r="256"/>
<path style="fill:#2B3B4E;" d="M382.242,478.744C459.726,434.736,512,351.477,512,256c0-6.753-0.265-13.443-0.779-20.063
	l-95.473-95.473l-10.342,10.666l-148.04,58.109l-100.631,36.417l43.68,43.573l-5.201,2.484L382.242,478.744z"/>
<path style="fill:#CFDBE6;" d="M403.609,245.963c0,0-0.574-13.627,16.929-13.627c13.627,0,61.724,0,61.724,0v105.943h-78.653
	V245.963z"/>
<path style="fill:#E6F3FF;" d="M403.609,245.963c0,0,0.574-13.627-16.929-13.627c-13.627,0-62.586,0-62.586,0v105.943h79.515
	V245.963z"/>
<path style="fill:#FED8B2;" d="M281.088,319.538v-27.822h-50.176v27.822c0,2.22-1.8,4.02-4.02,4.02h-34.576v96.011h127.371v-96.011
	H285.11C282.888,323.558,281.088,321.758,281.088,319.538z"/>
<path style="fill:#EABE96;" d="M319.686,323.558H285.11c-2.22,0-4.02-1.8-4.02-4.02v-27.822h-25.662v127.853h64.26v-96.011H319.686z
	"/>
<circle style="fill:#FED8B2;" cx="172.597" cy="233.417" r="20.052"/>
<circle style="fill:#EABE96;" cx="335.127" cy="233.417" r="20.052"/>
<path style="fill:#F4E3C3;" d="M256.122,316.926h-4.518c-41.796,0-75.678-33.882-75.678-75.678v-69.096
	c0-41.796,33.882-75.678,75.678-75.678h4.518c41.796,0,75.678,33.882,75.678,75.678v69.096
	C331.8,283.045,297.917,316.926,256.122,316.926z"/>
<path style="fill:#FED8B2;" d="M256.122,96.475h-0.696v220.451h0.696c41.796,0,75.678-33.882,75.678-75.678v-69.096
	C331.798,130.357,297.917,96.475,256.122,96.475z"/>
<circle style="fill:#59595B;" cx="217.126" cy="224.521" r="7.794"/>
<circle style="fill:#272525;" cx="290.599" cy="224.521" r="7.794"/>
<path style="fill:#FD8469;" d="M325.154,323.558h-26.696c0,23.449-19.008,50.241-42.456,50.241s-42.456-26.793-42.456-50.241
	h-26.696c-32.153,0-58.218,26.065-58.218,58.218v96.337C166.14,499.671,209.63,512,256,512s89.86-12.329,127.372-33.887v-96.337
	C383.371,349.624,357.307,323.558,325.154,323.558z"/>
<path style="fill:#FC6F58;" d="M325.154,323.558h-26.696c0,23.449-19.008,50.241-42.456,50.241c-0.193,0-0.383-0.017-0.574-0.021
	V511.99c0.191,0,0.381,0.009,0.574,0.009c46.37,0,89.86-12.329,127.372-33.887v-96.335
	C383.371,349.624,357.307,323.558,325.154,323.558z"/>
<path style="fill:#FD8469;" d="M253.862,288.39c-14.043,0-25.464-11.423-25.464-25.464c0-2.381,1.929-4.31,4.31-4.31
	s4.31,1.929,4.31,4.31c0,9.288,7.558,16.844,16.844,16.844c9.287,0,16.844-7.558,16.844-16.844c0-2.381,1.929-4.31,4.31-4.31
	s4.31,1.929,4.31,4.31C279.326,276.968,267.904,288.39,253.862,288.39z"/>
<path style="fill:#FC6F58;" d="M279.326,262.927c0-2.381-1.929-4.31-4.31-4.31s-4.31,1.929-4.31,4.31
	c0,8.761-6.725,15.974-15.281,16.767v8.62C268.738,287.497,279.326,276.44,279.326,262.927z"/>
<path style="fill:#FFD15D;" d="M415.747,140.464c0,0-20.685,17.274-73.552-23.524c-52.867-40.8-104.008-20.113-104.008-20.113
	s-80.45,4.598-67.806,94.815c0.933,6.654,1.895,12.095,2.888,16.494c1.195,12.054,3.932,29.617,10.04,37.521
	c0,0,0.343-13.074,2.315-26.209c6.877-9.475,15.251-36.804,25.948-65.467c0.958,17.836,13.645,35.497,52.474,45.704
	c21.382,5.62,40.989,7.152,58.623,6.096c4.525,15.625,5.161,39.876,5.161,39.876c6.828-8.837,9.442-29.732,10.399-41.52
	C393.983,195.632,415.747,140.464,415.747,140.464z"/>
<path style="fill:#F9B54C;" d="M342.195,116.938c-34.045-26.274-67.353-27.043-86.769-24.264v104.477
	c2.724,0.886,5.582,1.734,8.62,2.532c21.382,5.62,40.989,7.152,58.623,6.096c4.525,15.625,5.161,39.876,5.161,39.876
	c6.828-8.837,9.442-29.732,10.399-41.52c55.753-8.504,77.519-63.674,77.519-63.674S395.062,157.737,342.195,116.938z"/>
<g>
</g>
<g>
</g>
<g>
</g>
<g>
</g>
<g>
</g>
<g>
</g>
<g>
</g>
<g>
</g>
<g>
</g>
<g>
</g>
<g>
</g>
<g>
</g>
<g>
</g>
<g>
</g>
<g>
</g>
</svg>
