<svg width="30" height="26" viewBox="0 0 30 26" fill="none" xmlns="http://www.w3.org/2000/svg">
<path d="M27.8434 13.0019C26.112 13.0019 24.5502 12.9922 22.9885 13.0058C21.7543 13.0156 21.3869 13.3784 21.3689 14.582C21.3589 15.3291 21.3569 16.0782 21.3749 16.8254C21.3988 17.8827 21.8182 18.304 22.8947 18.3157C24.4903 18.3313 26.086 18.3196 27.6957 18.3196C27.6957 20.0109 27.8714 21.669 27.6437 23.2745C27.436 24.7453 25.9462 25.6953 24.3166 25.6992C17.3867 25.7168 10.4568 25.7207 3.52686 25.6973C1.53976 25.6895 0.0379447 24.2264 0.0239651 22.2952C-0.00798837 17.871 -0.00798837 13.4486 0.0239651 9.02438C0.0379447 7.07365 1.52977 5.63011 3.52287 5.62426C10.4528 5.60475 17.3827 5.6067 24.3126 5.62426C26.3336 5.62816 27.7875 7.02879 27.8395 8.98537C27.8714 10.2787 27.8434 11.5759 27.8434 13.0019Z" fill="white"/>
<path d="M25.5153 5.18346C25.1678 5.18346 24.8762 5.16395 24.5866 5.18736C23.8597 5.24393 23.632 4.95913 23.638 4.2276C23.65 2.31003 22.7752 1.66239 20.878 2.00767C15.2901 3.024 9.70428 4.04033 4.11043 5.02155C2.59064 5.28685 1.10481 5.5502 0.0703125 7.0191C0.184147 5.10543 1.42234 3.6931 3.38149 3.32636C9.45265 2.19299 15.5318 1.10253 21.6169 0.0452329C22.963 -0.188855 23.9935 0.511458 24.7584 1.54925C25.5612 2.63776 25.665 3.87647 25.5153 5.18346Z" fill="white"/>
<path d="M25.9067 17.8806C24.9101 17.8806 23.9136 17.8767 22.917 17.8826C22.1821 17.8865 21.8046 17.5548 21.8126 16.8214C21.8206 16.043 21.8186 15.2647 21.8146 14.4863C21.8106 13.7607 22.1661 13.429 22.919 13.4349C24.9121 13.4505 26.9052 13.4544 28.9003 13.4368C29.6552 13.431 30.0067 13.7548 30.0007 14.4844C29.9927 15.2627 29.9907 16.0411 29.9987 16.8194C30.0067 17.549 29.6452 17.8865 28.9003 17.8767C27.9037 17.865 26.9072 17.8728 25.9106 17.8728C25.9067 17.8748 25.9067 17.8787 25.9067 17.8806ZM27.4244 14.6853C27.069 15.1184 26.6616 15.4129 26.7075 15.6041C26.7774 15.8928 27.1628 16.1093 27.4145 16.3551C27.6441 16.1191 28.0236 15.9026 28.0575 15.6431C28.0875 15.411 27.738 15.132 27.4244 14.6853Z" fill="white"/>
</svg>
