<svg xmlns="http://www.w3.org/2000/svg" width="25" height="19" viewBox="0 0 25 19" fill="none"><path d="M24.3544 8.45953L16.9855 0.271831C16.8283 0.0982522 16.6089 0 16.3763 0H11.4637C11.1411 0 10.848 0.189955 10.7153 0.484712C10.5843 0.781107 10.6384 1.12663 10.8545 1.36571L17.7306 9.00647L10.8545 16.6456C10.6384 16.8863 10.5827 17.2318 10.7153 17.5266C10.848 17.823 11.1411 18.0129 11.4637 18.0129H16.3763C16.6089 18.0129 16.8283 17.913 16.9855 17.7427L24.3544 9.55505C24.6344 9.24391 24.6344 8.76903 24.3544 8.45953Z" fill="url(#paint0_linear_159_67708)"></path><path d="M13.7104 8.45953L6.34148 0.271831C6.18427 0.0982522 5.96484 0 5.73231 0H0.819691C0.497095 0 0.203976 0.189955 0.071335 0.484712C-0.0596682 0.781107 -0.00562942 1.12663 0.210526 1.36571L7.08656 9.00647L0.210526 16.6456C-0.00562942 16.8863 -0.0613058 17.2318 0.071335 17.5266C0.203976 17.823 0.497095 18.0129 0.819691 18.0129H5.73231C5.96484 18.0129 6.18427 17.913 6.34148 17.7427L13.7104 9.55505C13.9904 9.24391 13.9904 8.76903 13.7104 8.45953Z" fill="url(#paint1_linear_159_67708)"></path><defs><linearGradient id="paint0_linear_159_67708" x1="10.644" y1="0" x2="28.9548" y2="13.8495" gradientUnits="userSpaceOnUse"><stop stop-color="#F539F8"></stop><stop offset="0.416763" stop-color="#C342F9"></stop><stop offset="1" stop-color="#5356FB"></stop></linearGradient><linearGradient id="paint1_linear_159_67708" x1="0" y1="0" x2="18.3108" y2="13.8495" gradientUnits="userSpaceOnUse"><stop stop-color="#F539F8"></stop><stop offset="0.416763" stop-color="#C342F9"></stop><stop offset="1" stop-color="#5356FB"></stop></linearGradient></defs></svg>